<?xml version="1.0" encoding="utf-8"?>
<!-- Generator: Adobe Illustrator 22.1.0, SVG Export Plug-In . SVG Version: 6.00 Build 0)  -->
<svg version="1.1" id="Layer_1" xmlns="http://www.w3.org/2000/svg" xmlns:xlink="http://www.w3.org/1999/xlink" x="0px" y="0px"
	 viewBox="0 0 512 512" style="enable-background:new 0 0 512 512;" xml:space="preserve">
<g>
	<path style="fill:#FFFFFF;stroke:#000000;stroke-width:5;stroke-linecap:round;stroke-linejoin:round;stroke-miterlimit:10;" d="
		M248.8,126.4c0,0-33.8-4.2-19-40.1s25.3-21.1,25.3-61.3c0,0,52.8,65.5,4.2,101.4H248.8z"/>
	<path style="fill:#FFFFFF;stroke:#000000;stroke-width:5;stroke-linecap:round;stroke-linejoin:round;stroke-miterlimit:10;" d="
		M251.3,125.3c0,0-22.6-2.7-12.7-26.8c9.9-23.9,16.9-14.2,16.9-40.8c0,0,35.3,43.7,2.7,67.6H251.3z"/>
	
		<polyline style="fill:#FFFFFF;stroke:#000000;stroke-width:5;stroke-linecap:round;stroke-linejoin:round;stroke-miterlimit:10;" points="
		247.8,143.5 247.8,125.3 260.4,125.3 260.4,143.5 	"/>
</g>
<g style="opacity:0;">
	<circle cx="320.6" cy="156.6" r="3.5"/>
	<circle cx="321.7" cy="224.9" r="3.5"/>
	<circle cx="321.7" cy="293.3" r="3.5"/>
	<circle cx="321.7" cy="361.7" r="3.5"/>
	<circle cx="321.7" cy="430" r="3.5"/>
	<circle cx="318.3" cy="495" r="3.5"/>
	<circle cx="249.9" cy="495" r="3.5"/>
	<circle cx="186.5" cy="490" r="3.5"/>
	<circle cx="186.5" cy="421.6" r="3.5"/>
	<circle cx="186.5" cy="353.3" r="3.5"/>
	<circle cx="186.5" cy="284.9" r="3.5"/>
	<circle cx="186.5" cy="216.5" r="3.5"/>
	<circle cx="187.7" cy="148.2" r="3.5"/>
	<circle cx="253" cy="145.1" r="3.5"/>
</g>
</svg>
