<?xml version="1.0" encoding="utf-8"?>
<!-- Generator: Adobe Illustrator 22.1.0, SVG Export Plug-In . SVG Version: 6.00 Build 0)  -->
<svg version="1.1" id="Layer_1" xmlns="http://www.w3.org/2000/svg" xmlns:xlink="http://www.w3.org/1999/xlink" x="0px" y="0px"
	 viewBox="0 0 512 512" style="enable-background:new 0 0 512 512;" xml:space="preserve">
<g style="opacity:0;">
	<circle cx="266.5" cy="251.5" r="3.5"/>
	<circle cx="248.5" cy="197.5" r="3.5"/>
	<circle cx="231.5" cy="141.5" r="3.5"/>
	<circle cx="212.5" cy="78.5" r="3.5"/>
	<circle cx="192.5" cy="15.5" r="3.5"/>
	<circle cx="167.5" cy="22.5" r="3.5"/>
	<circle cx="176.5" cy="85.5" r="3.5"/>
	<circle cx="187.5" cy="145.5" r="3.5"/>
	<circle cx="196.5" cy="209.5" r="3.5"/>
	<circle cx="206.5" cy="281.5" r="3.5"/>
	<circle cx="218.5" cy="353.5" r="3.5"/>
	<circle cx="236.5" cy="353.5" r="3.5"/>
	<circle cx="242.5" cy="362.5" r="3.5"/>
	<circle cx="232.5" cy="372.5" r="3.5"/>
	<circle cx="220.5" cy="373.5" r="3.5"/>
	<circle cx="229.5" cy="425.5" r="3.5"/>
	<circle cx="240.5" cy="493.5" r="3.5"/>
	<circle cx="253.5" cy="498.5" r="3.5"/>
	<circle cx="268.5" cy="487.5" r="3.5"/>
	<circle cx="281.5" cy="497.5" r="3.5"/>
	<circle cx="293.5" cy="493.5" r="3.5"/>
	<circle cx="303.5" cy="428.5" r="3.5"/>
	<circle cx="312.5" cy="375.5" r="3.5"/>
	<circle cx="301.5" cy="373.5" r="3.5"/>
	<circle cx="290.5" cy="364.5" r="3.5"/>
	<circle cx="300.5" cy="354.5" r="3.5"/>
	<circle cx="316.5" cy="354.5" r="3.5"/>
	<circle cx="326.5" cy="284.5" r="3.5"/>
	<circle cx="338.5" cy="209.5" r="3.5"/>
	<circle cx="348.5" cy="138.5" r="3.5"/>
	<circle cx="358.5" cy="71.5" r="3.5"/>
	<circle cx="366.5" cy="20.5" r="3.5"/>
	<circle cx="341.5" cy="10.5" r="3.5"/>
	<circle cx="323.5" cy="68.5" r="3.5"/>
	<circle cx="300.5" cy="141.5" r="3.5"/>
	<circle cx="284.5" cy="197.5" r="3.5"/>
</g>
<g>
	<path style="fill:none;stroke:#000000;stroke-width:5;stroke-miterlimit:10;" d="M266.1,313.1c0.4,0,0.6,0,1,0s0.6,0,1,0
		c8.3,0,15.2,7.7,15.2,17.3s-6.9,17.3-15.2,17.3c-0.4,0-0.6,0-1,0s-0.6,0-1,0c-8.3,0-15.2-7.7-15.2-17.3S257.7,313.1,266.1,313.1z"
		/>
	<ellipse style="fill:none;stroke:#000000;stroke-width:5;stroke-miterlimit:10;" cx="267.1" cy="402.5" rx="18.3" ry="38.6"/>
	<line style="fill:none;stroke:#000000;stroke-width:5;stroke-miterlimit:10;" x1="266" y1="251" x2="266" y2="313"/>
	<line style="fill:none;stroke:#000000;stroke-width:5;stroke-miterlimit:10;" x1="267.5" y1="347.5" x2="267.5" y2="363.5"/>
	<line style="fill:none;stroke:#000000;stroke-width:5;stroke-miterlimit:10;" x1="267.5" y1="441.5" x2="267.5" y2="486"/>
</g>
</svg>
