<?xml version="1.0" encoding="utf-8"?>
<!-- Generator: Adobe Illustrator 22.1.0, SVG Export Plug-In . SVG Version: 6.00 Build 0)  -->
<svg version="1.1" id="Layer_1" xmlns="http://www.w3.org/2000/svg" xmlns:xlink="http://www.w3.org/1999/xlink" x="0px" y="0px"
	 viewBox="0 0 512 512" style="enable-background:new 0 0 512 512;" xml:space="preserve">
<g>
	<path style="fill:none;stroke:#000000;stroke-width:5;stroke-linecap:round;stroke-linejoin:round;stroke-miterlimit:10;" d="
		M38.5,17.5L27,17.3c-1.5-1.7-3.6-2.8-6.1-2.8c-4.3,0-8,3.5-8,8s3.7,8,8,8c2.4,0,4.6-1.1,6.1-2.8l11.6-0.2"/>
	<path style="fill:none;stroke:#000000;stroke-width:5;stroke-linecap:round;stroke-linejoin:round;stroke-miterlimit:10;" d="
		M472,27.7h13.9c1.5,1.7,3.7,2.8,6.1,2.8c4.3,0,8-3.5,8-8s-3.5-8-8-8c-2.4,0-4.6,1.1-6.1,2.8c-5.2,0-14.4,0.2-14.4,0.2"/>
	<path style="fill:none;stroke:#000000;stroke-width:5;stroke-linecap:round;stroke-linejoin:round;stroke-miterlimit:10;" d="
		M245.1,63.5c-8.4,1.6-15.8,5-19.7,10.1c-10.9,13.9-52.1,13.9-62.3,0c-12.4-15.6-49.3-13.9-60.1,0s-52.1,13.9-62.3,0"/>
	<path style="fill:none;stroke:#000000;stroke-width:5;stroke-linecap:round;stroke-linejoin:round;stroke-miterlimit:10;" d="
		M471.1,73.5c-10.9,13.9-53,13.9-63.2,0c-12.2-15.6-49.3-13.9-60.1,0c-10.9,13.9-52.1,13.9-62.3,0c-4.5-5.7-12.3-9.1-20.8-10.4"/>
	<path style="fill:none;stroke:#000000;stroke-width:5;stroke-linecap:round;stroke-linejoin:round;stroke-miterlimit:10;" d="
		M38.1,291.8c0,0,47.5,14.8,89.9-6.2"/>
	<path style="fill:none;stroke:#000000;stroke-width:5;stroke-linecap:round;stroke-linejoin:round;stroke-miterlimit:10;" d="
		M379.5,281.5c0,0,56.5,19.1,90.2-14.5"/>
</g>
<g style="opacity:0;">
	<circle cx="254.6" cy="10.5" r="3.5"/>
	<circle cx="194.5" cy="10.5" r="3.5"/>
	<circle cx="134.4" cy="10.5" r="3.5"/>
	<circle cx="74.3" cy="10.5" r="3.5"/>
	<circle cx="38.6" cy="10.5" r="3.5"/>
	<circle cx="40.3" cy="80.1" r="3.5"/>
	<circle cx="39.8" cy="132.5" r="3.5"/>
	<circle cx="39" cy="207.1" r="3.5"/>
	<circle cx="38.1" cy="291.8" r="3.5"/>
	<circle cx="37.1" cy="374.7" r="3.5"/>
	<circle cx="36.4" cy="443.6" r="3.5"/>
	<circle cx="35.9" cy="491.6" r="3.5"/>
	<circle cx="78.9" cy="491.6" r="3.5"/>
	<circle cx="124" cy="491.6" r="3.5"/>
	<circle cx="124.4" cy="461.6" r="3.5"/>
	<circle cx="124.5" cy="409.3" r="3.5"/>
	<circle cx="124.3" cy="327.7" r="3.5"/>
	<circle cx="129.4" cy="285.5" r="3.5"/>
	<circle cx="155.1" cy="236.4" r="3.5"/>
	<circle cx="191.4" cy="166.1" r="3.5"/>
	<circle cx="243.7" cy="63.2" r="3.5"/>
	<circle cx="264" cy="63.4" r="3.5"/>
	<circle cx="317.3" cy="165.3" r="3.5"/>
	<circle cx="353.5" cy="235.8" r="3.5"/>
	<circle cx="379.3" cy="285.2" r="3.5"/>
	<circle cx="384.7" cy="318.1" r="3.5"/>
	<circle cx="384.7" cy="378.2" r="3.5"/>
	<circle cx="384.7" cy="438.3" r="3.5"/>
	<circle cx="389.5" cy="491.6" r="3.5"/>
	<circle cx="433.6" cy="491.6" r="3.5"/>
	<circle cx="473.2" cy="491.6" r="3.5"/>
	<circle cx="473" cy="407.8" r="3.5"/>
	<circle cx="472.5" cy="320.2" r="3.5"/>
	<circle cx="472" cy="264.4" r="3.5"/>
	<circle cx="471.1" cy="206.4" r="3.5"/>
	<circle cx="470.7" cy="128.9" r="3.5"/>
	<circle cx="470.9" cy="75.6" r="3.5"/>
	<circle cx="472.6" cy="10.5" r="3.5"/>
	<circle cx="436.5" cy="10.5" r="3.5"/>
	<circle cx="376.4" cy="10.5" r="3.5"/>
	<circle cx="316.3" cy="10.5" r="3.5"/>
</g>
</svg>
