<?xml version="1.0" encoding="utf-8"?>
<!-- Generator: Adobe Illustrator 22.1.0, SVG Export Plug-In . SVG Version: 6.00 Build 0)  -->
<svg version="1.1" id="Layer_1" xmlns="http://www.w3.org/2000/svg" xmlns:xlink="http://www.w3.org/1999/xlink" x="0px" y="0px"
	 viewBox="0 0 512 512" style="enable-background:new 0 0 512 512;" xml:space="preserve">
<g>
	<path style="fill:none;stroke:#000000;stroke-width:5;stroke-miterlimit:10;" d="M338.1,193.7c3.7,9.3-0.2,19.5-9.1,23.8l-1,0.6
		c-2.6,1.4-5.5,2-8.5,2c-7.9,0-15-4.9-17.7-12.2l-25-66.2c-3.5-9.3,0.8-19.7,9.7-23.8c2.6-1.2,5.3-1.8,8.1-1.8
		c7.9,0,14.8,4.7,17.5,12L338.1,193.7z"/>
</g>
<g style="opacity:0;">
	<circle cx="237.5" cy="29.5" r="3.5"/>
	<circle cx="237.5" cy="66.5" r="3.5"/>
	<circle cx="220.5" cy="66.5" r="3.5"/>
	<circle cx="220.5" cy="87.5" r="3.5"/>
	<circle cx="185.5" cy="135.5" r="3.5"/>
	<circle cx="142.5" cy="203.5" r="3.5"/>
	<circle cx="142.5" cy="275.5" r="3.5"/>
	<circle cx="142.5" cy="347.5" r="3.5"/>
	<circle cx="142.5" cy="419.5" r="3.5"/>
	<circle cx="142.5" cy="475.5" r="3.5"/>
	<circle cx="219.5" cy="475.5" r="3.5"/>
	<circle cx="296.5" cy="475.5" r="3.5"/>
	<circle cx="358.5" cy="475.5" r="3.5"/>
	<circle cx="358.5" cy="419.5" r="3.5"/>
	<circle cx="358.5" cy="350.5" r="3.5"/>
	<circle cx="358.5" cy="275.5" r="3.5"/>
	<circle cx="358.5" cy="203.5" r="3.5"/>
	<circle cx="332.5" cy="138.5" r="3.5"/>
	<circle cx="313.5" cy="87.5" r="3.5"/>
	<circle cx="312.5" cy="66.5" r="3.5"/>
	<circle cx="293.5" cy="66.5" r="3.5"/>
	<circle cx="293.5" cy="28.5" r="3.5"/>
</g>
</svg>
