<?xml version="1.0" encoding="utf-8"?>
<!-- Generator: Adobe Illustrator 22.1.0, SVG Export Plug-In . SVG Version: 6.00 Build 0)  -->
<svg version="1.1" id="Layer_1" xmlns="http://www.w3.org/2000/svg" xmlns:xlink="http://www.w3.org/1999/xlink" x="0px" y="0px"
	 viewBox="0 0 512 512" style="enable-background:new 0 0 512 512;" xml:space="preserve">
<g>
	<path style="fill:#FFFFFF;stroke:#000000;stroke-width:5;stroke-linecap:round;stroke-linejoin:round;stroke-miterlimit:10;" d="
		M437.5,255.3c-1.9,9.4-4.2,17.5-6.6,22.4c-7.2,14.7-48.1,77-74.9,98.5l-3.8-1.2l0,0"/>
	<path style="fill:#FFFFFF;stroke:#000000;stroke-width:5;stroke-linecap:round;stroke-linejoin:round;stroke-miterlimit:10;" d="
		M414.3,282.8c1.4-2.6,2.8-5.4,4-8c21.9-46,13.3-87.6-38.8-104.2c-52.3-16.8-72.9-12.9-106-7c-33.1,5.9-88.1,34.2-103,45
		c-15,10.8-83.8,64.7-88.5,76.6c43-33.9,140.1-57.4,225.1-57.4C380.7,227.7,408.3,271.2,414.3,282.8z"/>
	
		<polyline style="fill:#FFFFFF;stroke:#000000;stroke-width:5;stroke-linecap:round;stroke-linejoin:round;stroke-miterlimit:10;" points="
		321.5,410.5 356,376.4 73.9,282.3 	"/>
	
		<line style="fill:#FFFFFF;stroke:#000000;stroke-width:5;stroke-linecap:round;stroke-linejoin:round;stroke-miterlimit:10;" x1="414.5" y1="282.5" x2="355.5" y2="376.5"/>
</g>
<g style="opacity:0;">
	<circle cx="451.5" cy="65.5" r="3.5"/>
	<circle cx="418.5" cy="67.5" r="3.5"/>
	<circle cx="392.5" cy="88.5" r="3.5"/>
	<circle cx="371.5" cy="120.5" r="3.5"/>
	<circle cx="352.5" cy="147.5" r="3.5"/>
	<circle cx="314.5" cy="148.5" r="3.5"/>
	<circle cx="273.5" cy="151.5" r="3.5"/>
	<circle cx="241.5" cy="158.5" r="3.5"/>
	<circle cx="204.5" cy="175.5" r="3.5"/>
	<circle cx="167.5" cy="198.5" r="3.5"/>
	<circle cx="131.5" cy="223.5" r="3.5"/>
	<circle cx="101.5" cy="251.5" r="3.5"/>
	<circle cx="74.5" cy="282.5" r="3.5"/>
	<circle cx="53.5" cy="294.5" r="3.5"/>
	<circle cx="94.5" cy="313.5" r="3.5"/>
	<circle cx="138.5" cy="332.5" r="3.5"/>
	<circle cx="185.5" cy="353.5" r="3.5"/>
	<circle cx="238.5" cy="376.5" r="3.5"/>
	<circle cx="277.5" cy="392.5" r="3.5"/>
	<circle cx="321.5" cy="410.5" r="3.5"/>
	<circle cx="358.5" cy="386.5" r="3.5"/>
	<circle cx="392.5" cy="360.5" r="3.5"/>
	<circle cx="423.5" cy="326.5" r="3.5"/>
	<circle cx="433.5" cy="305.5" r="3.5"/>
	<circle cx="437.5" cy="290.5" r="3.5"/>
	<circle cx="437.5" cy="255.5" r="3.5"/>
	<circle cx="441.5" cy="227.5" r="3.5"/>
	<circle cx="436.5" cy="201.5" r="3.5"/>
	<circle cx="415.5" cy="175.5" r="3.5"/>
	<circle cx="392.5" cy="161.5" r="3.5"/>
	<circle cx="383.5" cy="147.5" r="3.5"/>
	<circle cx="399.5" cy="130.5" r="3.5"/>
	<circle cx="428.5" cy="116.5" r="3.5"/>
	<circle cx="456.5" cy="103.5" r="3.5"/>
	<circle cx="464.5" cy="84.5" r="3.5"/>
</g>
</svg>
