<?xml version="1.0" encoding="utf-8"?>
<!-- Generator: Adobe Illustrator 22.1.0, SVG Export Plug-In . SVG Version: 6.00 Build 0)  -->
<svg version="1.1" id="Layer_1" xmlns="http://www.w3.org/2000/svg" xmlns:xlink="http://www.w3.org/1999/xlink" x="0px" y="0px"
	 viewBox="0 0 512 512" style="enable-background:new 0 0 512 512;" xml:space="preserve">
<g>
	<path style="fill:none;stroke:#000000;stroke-width:5;stroke-linecap:round;stroke-linejoin:round;stroke-miterlimit:10;" d="
		M256.4,140.6c-12.5,0-22.4,10.1-22.4,22.4c0,12.5,10.1,22.4,22.4,22.4c12.5,0,22.4-10.1,22.4-22.4
		C279,150.5,268.9,140.6,256.4,140.6z"/>
	
		<line style="fill:none;stroke:#000000;stroke-width:5;stroke-linecap:round;stroke-linejoin:round;stroke-miterlimit:10;" x1="341.7" y1="84.6" x2="171.2" y2="84.6"/>
	<path style="fill:none;stroke:#000000;stroke-width:5;stroke-linecap:round;stroke-linejoin:round;stroke-miterlimit:10;" d="
		M318.3,29.6c-18.2-10.3-39.3-16.3-61.6-16.3s-43.5,5.9-61.6,16.3"/>
	
		<line style="fill:none;stroke:#000000;stroke-width:5;stroke-linecap:round;stroke-linejoin:round;stroke-miterlimit:10;" x1="322.7" y1="465.9" x2="190.4" y2="465.9"/>
</g>
<g style="opacity:0;">
	<circle cx="230.3" cy="31.6" r="3.5"/>
	<circle cx="280.4" cy="31.6" r="3.5"/>
	<circle cx="340.4" cy="31.6" r="3.5"/>
	<circle cx="341.9" cy="82" r="3.5"/>
	<circle cx="341.9" cy="118" r="3.5"/>
	<circle cx="341.9" cy="168" r="3.5"/>
	<circle cx="341.9" cy="218" r="3.5"/>
	<circle cx="322.9" cy="254.3" r="3.5"/>
	<circle cx="322.9" cy="314.3" r="3.5"/>
	<circle cx="322.9" cy="364.3" r="3.5"/>
	<circle cx="322.9" cy="414.3" r="3.5"/>
	<circle cx="322.9" cy="464.3" r="3.5"/>
	<circle cx="322.4" cy="498.9" r="3.5"/>
	<circle cx="256.3" cy="499" r="3.5"/>
	<circle cx="192.3" cy="499" r="3.5"/>
	<circle cx="190.4" cy="465.7" r="3.5"/>
	<circle cx="190.4" cy="415.7" r="3.5"/>
	<circle cx="190.4" cy="365.7" r="3.5"/>
	<circle cx="190.4" cy="315.7" r="3.5"/>
	<circle cx="190.4" cy="265.6" r="3.5"/>
	<circle cx="176.5" cy="227.7" r="3.5"/>
	<circle cx="171.2" cy="179.6" r="3.5"/>
	<circle cx="171.2" cy="129.6" r="3.5"/>
	<circle cx="171.2" cy="79.6" r="3.5"/>
	<circle cx="171.2" cy="31.6" r="3.5"/>
</g>
</svg>
