<?xml version="1.0" encoding="utf-8"?>
<!-- Generator: Adobe Illustrator 22.1.0, SVG Export Plug-In . SVG Version: 6.00 Build 0)  -->
<svg version="1.1" id="Layer_1" xmlns="http://www.w3.org/2000/svg" xmlns:xlink="http://www.w3.org/1999/xlink" x="0px" y="0px"
	 viewBox="0 0 512 512" style="enable-background:new 0 0 512 512;" xml:space="preserve">
<g>
	<circle cx="232.5" cy="135.5" r="3.5"/>
	<circle cx="243.5" cy="116.5" r="3.5"/>
	<circle cx="265.5" cy="116.5" r="3.5"/>
	<circle cx="263.5" cy="139.5" r="3.5"/>
	<circle cx="246.5" cy="160.5" r="3.5"/>
	<circle cx="246.5" cy="182.5" r="3.5"/>
	<circle cx="221.5" cy="184.5" r="3.5"/>
	<circle cx="192.5" cy="207.5" r="3.5"/>
	<circle cx="147.5" cy="248.5" r="3.5"/>
	<circle cx="97.5" cy="279.5" r="3.5"/>
	<circle cx="51.5" cy="303.5" r="3.5"/>
	<circle cx="25.5" cy="317.5" r="3.5"/>
	<circle cx="18.5" cy="337.5" r="3.5"/>
	<circle cx="36.5" cy="343.5" r="3.5"/>
	<circle cx="67.5" cy="329.5" r="3.5"/>
	<circle cx="114.5" cy="306.5" r="3.5"/>
	<circle cx="162.5" cy="277.5" r="3.5"/>
	<circle cx="216.5" cy="237.5" r="3.5"/>
	<circle cx="253.5" cy="219.5" r="3.5"/>
	<circle cx="290.5" cy="239.5" r="3.5"/>
	<circle cx="334.5" cy="274.5" r="3.5"/>
	<circle cx="394.5" cy="308.5" r="3.5"/>
	<circle cx="456.5" cy="336.5" r="3.5"/>
	<circle cx="478.5" cy="343.5" r="3.5"/>
	<circle cx="490.5" cy="336.5" r="3.5"/>
	<circle cx="481.5" cy="316.5" r="3.5"/>
	<circle cx="466.5" cy="308.5" r="3.5"/>
	<circle cx="418.5" cy="285.5" r="3.5"/>
	<circle cx="365.5" cy="254.5" r="3.5"/>
	<circle cx="326.5" cy="222.5" r="3.5"/>
	<circle cx="304.5" cy="199.5" r="3.5"/>
	<circle cx="285.5" cy="184.5" r="3.5"/>
	<circle cx="263.5" cy="182.5" r="3.5"/>
	<circle cx="262.5" cy="160.5" r="3.5"/>
	<circle cx="282.5" cy="147.5" r="3.5"/>
	<circle cx="287.5" cy="125.5" r="3.5"/>
	<circle cx="278.5" cy="102.5" r="3.5"/>
	<circle cx="253.5" cy="95.5" r="3.5"/>
	<circle cx="228.5" cy="109.5" r="3.5"/>
</g>
</svg>
