<?xml version="1.0" encoding="utf-8"?>
<!-- Generator: Adobe Illustrator 22.1.0, SVG Export Plug-In . SVG Version: 6.00 Build 0)  -->
<svg version="1.1" id="Layer_1" xmlns="http://www.w3.org/2000/svg" xmlns:xlink="http://www.w3.org/1999/xlink" x="0px" y="0px"
	 viewBox="0 0 512 512" style="enable-background:new 0 0 512 512;" xml:space="preserve">
<g>
	<path style="fill:none;stroke:#000000;stroke-width:5;stroke-miterlimit:10;" d="M92,408.3c29.3-51.4,102.6-29.7,125.5,11.2"/>
	<path style="fill:none;stroke:#000000;stroke-width:5;stroke-miterlimit:10;" d="M83.5,393.5c32.2,61.9,129,55,141,15"/>
</g>
<g style="opacity:0;">
	<circle cx="436.8" cy="47.5" r="3.5"/>
	<circle cx="436" cy="65.8" r="3.5"/>
	<circle cx="421.7" cy="89.2" r="3.5"/>
	<circle cx="402.9" cy="118" r="3.5"/>
	<circle cx="380.7" cy="150.9" r="3.5"/>
	<circle cx="356" cy="186.7" r="3.5"/>
	<circle cx="330.1" cy="224.2" r="3.5"/>
	<circle cx="304" cy="262.1" r="3.5"/>
	<circle cx="278.7" cy="299.1" r="3.5"/>
	<circle cx="255.4" cy="334" r="3.5"/>
	<circle cx="236.1" cy="368.5" r="3.5"/>
	<circle cx="225.9" cy="408.3" r="3.5"/>
	<circle cx="210" cy="441.4" r="3.5"/>
	<circle cx="175.5" cy="457.2" r="3.5"/>
	<circle cx="137.2" cy="451.8" r="3.5"/>
	<circle cx="104" cy="432.9" r="3.5"/>
	<circle cx="82.9" cy="393.3" r="3.5"/>
	<circle cx="106.1" cy="365.1" r="3.5"/>
	<circle cx="146.2" cy="360" r="3.5"/>
	<circle cx="189" cy="366.8" r="3.5"/>
	<circle cx="208.8" cy="356.1" r="3.5"/>
	<circle cx="232.5" cy="317.5" r="3.5"/>
	<circle cx="239.8" cy="305.9" r="3.5"/>
	<circle cx="257.3" cy="277.7" r="3.5"/>
	<circle cx="282.7" cy="236.9" r="3.5"/>
	<circle cx="312.5" cy="189" r="3.5"/>
	<circle cx="343.1" cy="139.6" r="3.5"/>
	<circle cx="371.1" cy="94.4" r="3.5"/>
	<circle cx="393.1" cy="59.1" r="3.5"/>
	<circle cx="405.4" cy="39.3" r="3.5"/>
	<circle cx="422.6" cy="37.8" r="3.5"/>
</g>
</svg>
