<?xml version="1.0" encoding="utf-8"?>
<!-- Generator: Adobe Illustrator 22.1.0, SVG Export Plug-In . SVG Version: 6.00 Build 0)  -->
<svg version="1.1" id="Layer_1" xmlns="http://www.w3.org/2000/svg" xmlns:xlink="http://www.w3.org/1999/xlink" x="0px" y="0px"
	 viewBox="0 0 512 512" style="enable-background:new 0 0 512 512;" xml:space="preserve">
<g style="opacity:0;">
	<circle cx="256.2" cy="18.8" r="3.5"/>
	<circle cx="232.2" cy="39.8" r="3.5"/>
	<circle cx="228.7" cy="79" r="3.5"/>
	<circle cx="238.5" cy="109.4" r="3.5"/>
	<circle cx="238.5" cy="159.8" r="3.5"/>
	<circle cx="238.5" cy="210.2" r="3.5"/>
	<circle cx="238.5" cy="260.5" r="3.5"/>
	<circle cx="238.5" cy="310.9" r="3.5"/>
	<circle cx="238.5" cy="371.3" r="3.5"/>
	<circle cx="238.5" cy="431.6" r="3.5"/>
	<circle cx="238.5" cy="494" r="3.5"/>
	<circle cx="273.5" cy="494.2" r="3.5"/>
	<circle cx="273.5" cy="431.8" r="3.5"/>
	<circle cx="273.5" cy="371.5" r="3.5"/>
	<circle cx="273.5" cy="311.1" r="3.5"/>
	<circle cx="273.5" cy="260.7" r="3.5"/>
	<circle cx="273.5" cy="210.4" r="3.5"/>
	<circle cx="273.5" cy="160" r="3.5"/>
	<circle cx="273.5" cy="109.6" r="3.5"/>
	<circle cx="283.3" cy="79.3" r="3.5"/>
	<circle cx="280" cy="42.8" r="3.5"/>
</g>
<g>
	<path style="fill:none;stroke:#000000;stroke-width:5;stroke-miterlimit:10;" d="M239,110c11.3,13.8,22.7,13.8,34,0"/>
</g>
</svg>
