<?xml version="1.0" encoding="utf-8"?>
<!-- Generator: Adobe Illustrator 22.1.0, SVG Export Plug-In . SVG Version: 6.00 Build 0)  -->
<svg version="1.1" id="Layer_1" xmlns="http://www.w3.org/2000/svg" xmlns:xlink="http://www.w3.org/1999/xlink" x="0px" y="0px"
	 viewBox="0 0 512 512" style="enable-background:new 0 0 512 512;" xml:space="preserve">
<g>
	<path style="fill:none;stroke:#000000;stroke-width:5;stroke-miterlimit:10;" d="M383.3,359.9H46.5c-9.2,0-16.5-7.3-16.5-16.5
		V129.9c0-9.2,7.3-16.5,16.5-16.5h336.8c9.2,0,16.5,7.3,16.5,16.5v213.7C399.8,352.6,392.5,359.9,383.3,359.9z"/>
	<path style="fill:none;stroke:#000000;stroke-width:5;stroke-miterlimit:10;" d="M366.9,335.3L366.9,335.3c4.6,0,8.1-3.7,8.1-8.1
		V146.4c0-4.6-3.7-8.1-8.1-8.1l0,0c-4.6,0-8.1,3.7-8.1,8.1v180.8C358.8,331.6,362.3,335.3,366.9,335.3z"/>
	<path style="fill:none;stroke:#000000;stroke-width:5;stroke-miterlimit:10;" d="M63,335.3h262.9c4.6,0,8.1-3.7,8.1-8.1V146.4
		c0-4.6-3.7-8.1-8.1-8.1H63c-4.6,0-8.1,3.7-8.1,8.1v180.8C54.6,331.6,58.4,335.3,63,335.3z"/>
	<g>
		<circle style="fill:none;stroke:#000000;stroke-width:5;stroke-miterlimit:10;" cx="445" cy="323" r="20.6"/>
		<circle style="fill:none;stroke:#000000;stroke-width:5;stroke-miterlimit:10;" cx="445" cy="265.5" r="20.6"/>
	</g>
	<g>
		<path style="fill:none;stroke:#000000;stroke-width:5;stroke-miterlimit:10;" d="M457.3,212h-24.6c-4.6,0-8.1-3.7-8.1-8.1l0,0
			c0-4.6,3.7-8.1,8.1-8.1h24.6c4.6,0,8.1,3.7,8.1,8.1l0,0C465.6,208.4,461.9,212,457.3,212z"/>
		<path style="fill:none;stroke:#000000;stroke-width:5;stroke-miterlimit:10;" d="M457.3,179.1h-24.6c-4.6,0-8.1-3.7-8.1-8.1l0,0
			c0-4.6,3.7-8.1,8.1-8.1h24.6c4.6,0,8.1,3.7,8.1,8.1l0,0C465.6,175.5,461.9,179.1,457.3,179.1z"/>
		<path style="fill:none;stroke:#000000;stroke-width:5;stroke-miterlimit:10;" d="M457.3,146.4h-24.6c-4.6,0-8.1-3.7-8.1-8.1l0,0
			c0-4.6,3.7-8.1,8.1-8.1h24.6c4.6,0,8.1,3.7,8.1,8.1l0,0C465.6,142.6,461.9,146.4,457.3,146.4z"/>
	</g>
	<path style="fill:none;stroke:#000000;stroke-width:5;stroke-miterlimit:10;" d="M432.5,376.5v8.1h0.2c0,4.6,3.7,8.1,8.1,8.1h16.5
		c4.6,0,8.1-3.7,8.1-8.1v-8.1"/>
	<path style="fill:none;stroke:#000000;stroke-width:5;stroke-miterlimit:10;" d="M38.2,376.3L38.2,376.3v8.1c0,4.6,3.7,8.1,8.1,8.1
		h16.5c4.6,0,8.1-3.7,8.1-8.1v-8.1"/>
</g>
<g style="opacity:0;">
	<circle cx="490" cy="97" r="3.5"/>
	<circle cx="419.4" cy="97" r="3.5"/>
	<circle cx="348.1" cy="97" r="3.5"/>
	<circle cx="276.7" cy="97" r="3.5"/>
	<circle cx="190.4" cy="97" r="3.5"/>
	<circle cx="99.1" cy="97" r="3.5"/>
	<circle cx="14" cy="98.2" r="3.5"/>
	<circle cx="14" cy="187.1" r="3.5"/>
	<circle cx="14" cy="287.4" r="3.5"/>
	<circle cx="14" cy="374.2" r="3.5"/>
	<circle cx="99.1" cy="376" r="3.5"/>
	<circle cx="190.4" cy="376" r="3.5"/>
	<circle cx="276.7" cy="376" r="3.5"/>
	<circle cx="348.1" cy="376" r="3.5"/>
	<circle cx="419.4" cy="376" r="3.5"/>
	<circle cx="490" cy="373.3" r="3.5"/>
	<circle cx="490" cy="287.4" r="3.5"/>
	<circle cx="491" cy="187.1" r="3.5"/>
</g>
</svg>
