<?xml version="1.0" encoding="utf-8"?>
<!-- Generator: Adobe Illustrator 22.1.0, SVG Export Plug-In . SVG Version: 6.00 Build 0)  -->
<svg version="1.1" id="Layer_1" xmlns="http://www.w3.org/2000/svg" xmlns:xlink="http://www.w3.org/1999/xlink" x="0px" y="0px"
	 viewBox="0 0 512 512" style="enable-background:new 0 0 512 512;" xml:space="preserve">
<g>
	<path style="fill:none;stroke:#000000;stroke-width:5;stroke-miterlimit:10;" d="M313.4,293.4c-18.3,8.3-40.1,14.9-66.6,18.7
		c-56.6,8.1-106-4.4-141.7-20.7"/>
	
		<ellipse transform="matrix(0.1242 -0.9923 0.9923 0.1242 -14.6274 374.8567)" style="fill:none;stroke:#000000;stroke-width:5;stroke-miterlimit:10;" cx="205" cy="195.7" rx="89.8" ry="149"/>
</g>
<g style="opacity:0;">
	<circle cx="50.5" cy="103.5" r="3.5"/>
	<circle cx="28.5" cy="130.5" r="3.5"/>
	<circle cx="18.5" cy="159.5" r="3.5"/>
	<circle cx="18.5" cy="194.5" r="3.5"/>
	<circle cx="28.5" cy="226.5" r="3.5"/>
	<circle cx="47.5" cy="252.5" r="3.5"/>
	<circle cx="76.5" cy="277.5" r="3.5"/>
	<circle cx="105.5" cy="291.5" r="3.5"/>
	<circle cx="144.5" cy="316.5" r="3.5"/>
	<circle cx="183.5" cy="325.5" r="3.5"/>
	<circle cx="225.5" cy="328.5" r="3.5"/>
	<circle cx="256.5" cy="324.5" r="3.5"/>
	<circle cx="295.5" cy="310.5" r="3.5"/>
	<circle cx="315.5" cy="327.5" r="3.5"/>
	<circle cx="325.5" cy="345.5" r="3.5"/>
	<circle cx="347.5" cy="350.5" r="3.5"/>
	<circle cx="368.5" cy="358.5" r="3.5"/>
	<circle cx="386.5" cy="377.5" r="3.5"/>
	<circle cx="404.5" cy="400.5" r="3.5"/>
	<circle cx="431.5" cy="427.5" r="3.5"/>
	<circle cx="450.5" cy="442.5" r="3.5"/>
	<circle cx="472.5" cy="449.5" r="3.5"/>
	<circle cx="488.5" cy="439.5" r="3.5"/>
	<circle cx="483.5" cy="417.5" r="3.5"/>
	<circle cx="459.5" cy="386.5" r="3.5"/>
	<circle cx="437.5" cy="363.5" r="3.5"/>
	<circle cx="410.5" cy="343.5" r="3.5"/>
	<circle cx="383.5" cy="323.5" r="3.5"/>
	<circle cx="375.5" cy="306.5" r="3.5"/>
	<circle cx="362.5" cy="298.5" r="3.5"/>
	<circle cx="347.5" cy="271.5" r="3.5"/>
	<circle cx="375.5" cy="239.5" r="3.5"/>
	<circle cx="387.5" cy="197.5" r="3.5"/>
	<circle cx="385.5" cy="157.5" r="3.5"/>
	<circle cx="365.5" cy="120.5" r="3.5"/>
	<circle cx="336.5" cy="96.5" r="3.5"/>
	<circle cx="293.5" cy="74.5" r="3.5"/>
	<circle cx="252.5" cy="60.5" r="3.5"/>
	<circle cx="203.5" cy="53.5" r="3.5"/>
	<circle cx="162.5" cy="57.5" r="3.5"/>
	<circle cx="116.5" cy="66.5" r="3.5"/>
	<circle cx="79.5" cy="81.5" r="3.5"/>
</g>
</svg>
