<?xml version="1.0" encoding="utf-8"?>
<!-- Generator: Adobe Illustrator 22.1.0, SVG Export Plug-In . SVG Version: 6.00 Build 0)  -->
<svg version="1.1" id="Layer_1" xmlns="http://www.w3.org/2000/svg" xmlns:xlink="http://www.w3.org/1999/xlink" x="0px" y="0px"
	 viewBox="0 0 512 512" style="enable-background:new 0 0 512 512;" xml:space="preserve">
<g style="opacity:0;">
	<circle cx="392.5" cy="12.5" r="3.5"/>
	<circle cx="349.8" cy="54" r="3.5"/>
	<circle cx="307.1" cy="95.6" r="3.5"/>
	<circle cx="264.4" cy="137.1" r="3.5"/>
	<circle cx="221.8" cy="178.6" r="3.5"/>
	<circle cx="180" cy="221.1" r="3.5"/>
	<circle cx="138.8" cy="264.1" r="3.5"/>
	<circle cx="110.9" cy="297.4" r="3.5"/>
	<circle cx="85.8" cy="356.4" r="3.5"/>
	<circle cx="47.7" cy="415.4" r="3.5"/>
	<circle cx="91" cy="416.2" r="3.5"/>
	<circle cx="153.3" cy="372.3" r="3.5"/>
	<circle cx="210" cy="318.3" r="3.5"/>
	<circle cx="253.8" cy="273" r="3.5"/>
	<circle cx="267.7" cy="257.1" r="3.5"/>
	<circle cx="307" cy="214.8" r="3.5"/>
	<circle cx="365.2" cy="194.9" r="3.5"/>
	<circle cx="389.3" cy="154.2" r="3.5"/>
	<circle cx="445.6" cy="110.6" r="3.5"/>
	<circle cx="494.8" cy="97.5" r="3.5"/>
	<circle cx="448.2" cy="38.9" r="3.5"/>
</g>
<g>
	<path style="fill:none;stroke:#000000;stroke-width:5;stroke-miterlimit:10;" d="M207,200c0,0,42,23,61,57"/>
	<path style="fill:none;stroke:#000000;stroke-width:5;stroke-miterlimit:10;" d="M45.4,412.7c0,0,45.1,0.8,104.1-60.2
		S260.8,246,260.8,246"/>
</g>
</svg>
