<?xml version="1.0" encoding="utf-8"?>
<!-- Generator: Adobe Illustrator 22.1.0, SVG Export Plug-In . SVG Version: 6.00 Build 0)  -->
<svg version="1.1" id="Layer_1" xmlns="http://www.w3.org/2000/svg" xmlns:xlink="http://www.w3.org/1999/xlink" x="0px" y="0px"
	 viewBox="0 0 512 512" style="enable-background:new 0 0 512 512;" xml:space="preserve">
<g>
	<path style="fill:none;stroke:#000000;stroke-width:5;stroke-linecap:round;stroke-linejoin:round;stroke-miterlimit:10;" d="
		M289.1,230.6L221,305.2c-10.4,11.4-13.3,28-6.3,41.7c5.1,9.8,15.5,19.4,36,25.3c55,15.5,92.8,28.4,92.8,28.4s42.9,12.9,61.9-20.6
		c19-33.5,43.9-94.4,43.9-94.4s16.3-32.7-33.5-48.2l-68.7-14.5C347.1,222.9,306.5,211.4,289.1,230.6z"/>
	<path style="fill:none;stroke:#000000;stroke-width:5;stroke-linecap:round;stroke-linejoin:round;stroke-miterlimit:10;" d="
		M241.7,255.6c0,0-56.4-27.4-90.6-8.2S81.2,306,81.2,306l44.4,16.6c11.7,4.5,23.7,8.2,35.6,5.5c12.3-2.9,22.3-6.9,28.2-12.3
		l28.4-29.8L241.7,255.6z"/>
	<path style="fill:none;stroke:#000000;stroke-width:5;stroke-linecap:round;stroke-linejoin:round;stroke-miterlimit:10;" d="
		M239.4,368.2c0,0,44.1-96.7,91.2-90.1c47.2,6.7,107.7,33.1,107.7,33.1l-30.5,64.4c-4.9,10.4-12.3,18-22.3,22.7
		c-12.7,4.9-24.9,6.3-36.2,3.5l-38.4-11.7L239.4,368.2z"/>
	
		<line style="fill:none;stroke:#000000;stroke-width:5;stroke-linecap:round;stroke-linejoin:round;stroke-miterlimit:10;" x1="247" y1="189.9" x2="341.4" y2="210.4"/>
	<path style="fill:none;stroke:#000000;stroke-width:5;stroke-linecap:round;stroke-linejoin:round;stroke-miterlimit:10;" d="
		M331.4,208.3c0,0-8-40.3,30-30.3"/>
	<path style="fill:none;stroke:#000000;stroke-width:5;stroke-linecap:round;stroke-linejoin:round;stroke-miterlimit:10;" d="
		M251.9,190.8c0,0,5.1-33.3-8.8-32.1c-13.9,1.2-20,4.5-20,4.5"/>
	<path style="fill:none;stroke:#000000;stroke-width:5;stroke-linecap:round;stroke-linejoin:round;stroke-miterlimit:10;" d="
		M289.3,199.1l-9.2-160c0,0-4.3-32.5-27.4-23.3s-17.8,116.1-17.8,116.1"/>
	<path style="fill:none;stroke:#000000;stroke-width:5;stroke-linecap:round;stroke-linejoin:round;stroke-miterlimit:10;" d="
		M141.1,189.9c-2,0.8-3.7,2-5.3,3.3L54,259.9c0,0-30,26.6,9.4,39.9s68.7,25.3,68.7,25.3s33.5,14.7,63.4-14.7s61.9-77.3,61.9-77.3
		s11.2-27.4-24.9-37c-36-9.4-60.9-13.7-60.9-13.7S162.2,180.5,141.1,189.9z"/>
</g>
<g style="opacity:0;">
	<circle cx="201" cy="165.2" r="3.5"/>
	<circle cx="241" cy="174.2" r="3.5"/>
	<circle cx="317" cy="189.5" r="3.5"/>
	<circle cx="393.1" cy="204.7" r="3.5"/>
	<circle cx="447.1" cy="220" r="3.5"/>
	<circle cx="485.1" cy="234" r="3.5"/>
	<circle cx="468.5" cy="281.2" r="3.5"/>
	<circle cx="438" cy="352.5" r="3.5"/>
	<circle cx="399.6" cy="430.8" r="3.5"/>
	<circle cx="341.8" cy="419.2" r="3.5"/>
	<circle cx="269.6" cy="391" r="3.5"/>
	<circle cx="197.3" cy="362.8" r="3.5"/>
	<circle cx="125.1" cy="334.5" r="3.5"/>
	<circle cx="52.9" cy="306.3" r="3.5"/>
	<circle cx="12.5" cy="288.1" r="3.5"/>
	<circle cx="49.5" cy="248.1" r="3.5"/>
	<circle cx="96" cy="204.3" r="3.5"/>
	<circle cx="155.4" cy="161.5" r="3.5"/>
</g>
</svg>
