<?xml version="1.0" encoding="utf-8"?>
<!-- Generator: Adobe Illustrator 22.1.0, SVG Export Plug-In . SVG Version: 6.00 Build 0)  -->
<svg version="1.1" id="Layer_1" xmlns="http://www.w3.org/2000/svg" xmlns:xlink="http://www.w3.org/1999/xlink" x="0px" y="0px"
	 viewBox="0 0 512 512" style="enable-background:new 0 0 512 512;" xml:space="preserve">
<g>
	<path style="fill:none;stroke:#000000;stroke-width:5;stroke-miterlimit:10;" d="M226,477.1c0,3.2-2.6,5.7-5.7,5.7
		c-3.2,0-5.7-2.6-5.7-5.7v-95.4c0-3.2,2.6-5.7,5.7-5.7c3.2,0,5.7,2.6,5.7,5.7V477.1z M261.7,477.1c0,3.2-2.6,5.7-5.7,5.7
		s-5.7-2.6-5.7-5.7v-95.4c0-3.2,2.6-5.7,5.7-5.7c3.2,0,5.7,2.6,5.7,5.7V477.1z M297.5,477.1c0,3.2-2.6,5.7-5.7,5.7
		c-3.2,0-5.7-2.6-5.7-5.7v-95.4c0-3.2,2.6-5.7,5.7-5.7s5.7,2.6,5.7,5.7V477.1z"/>
</g>
<g style="opacity:0;">
	<circle cx="263.7" cy="12.3" r="3.5"/>
	<circle cx="273.6" cy="55.7" r="3.5"/>
	<circle cx="273.6" cy="104.7" r="3.5"/>
	<circle cx="273.6" cy="153.7" r="3.5"/>
	<circle cx="268.4" cy="200.8" r="3.5"/>
	<circle cx="268.4" cy="249.8" r="3.5"/>
	<circle cx="268.4" cy="298.9" r="3.5"/>
	<circle cx="289.7" cy="328.4" r="3.5"/>
	<circle cx="319.7" cy="366.3" r="3.5"/>
	<circle cx="321.6" cy="415.1" r="3.5"/>
	<circle cx="321.6" cy="464.2" r="3.5"/>
	<circle cx="319.2" cy="501" r="3.5"/>
	<circle cx="256.2" cy="501" r="3.5"/>
	<circle cx="189.1" cy="501" r="3.5"/>
	<circle cx="190.4" cy="464.4" r="3.5"/>
	<circle cx="190.4" cy="415.3" r="3.5"/>
	<circle cx="192.3" cy="366.6" r="3.5"/>
	<circle cx="222.3" cy="328.4" r="3.5"/>
	<circle cx="243.6" cy="299" r="3.5"/>
	<circle cx="243.6" cy="250" r="3.5"/>
	<circle cx="243.6" cy="201" r="3.5"/>
	<circle cx="238.6" cy="153.7" r="3.5"/>
	<circle cx="238.6" cy="104.7" r="3.5"/>
	<circle cx="238.6" cy="55.7" r="3.5"/>
	<circle cx="248.5" cy="12.3" r="3.5"/>
</g>
</svg>
