<?xml version="1.0" encoding="utf-8"?>
<!-- Generator: Adobe Illustrator 22.1.0, SVG Export Plug-In . SVG Version: 6.00 Build 0)  -->
<svg version="1.1" id="Layer_1" xmlns="http://www.w3.org/2000/svg" xmlns:xlink="http://www.w3.org/1999/xlink" x="0px" y="0px"
	 viewBox="0 0 512 512" style="enable-background:new 0 0 512 512;" xml:space="preserve">
<g style="opacity:0;">
	<circle cx="21" cy="171" r="3.5"/>
	<circle cx="26.9" cy="210.9" r="3.5"/>
	<circle cx="39" cy="255.1" r="3.5"/>
	<circle cx="74.4" cy="299.5" r="3.5"/>
	<circle cx="106.7" cy="303.4" r="3.5"/>
	<circle cx="134.1" cy="280.6" r="3.5"/>
	<circle cx="146.8" cy="255.7" r="3.5"/>
	<circle cx="157" cy="255.8" r="3.5"/>
	<circle cx="174.1" cy="299.2" r="3.5"/>
	<circle cx="206.2" cy="336.2" r="3.5"/>
	<circle cx="245.3" cy="351.3" r="3.5"/>
	<circle cx="282.1" cy="343.2" r="3.5"/>
	<circle cx="297.9" cy="309.9" r="3.5"/>
	<circle cx="312" cy="269.1" r="3.5"/>
	<circle cx="305.4" cy="240" r="3.5"/>
	<circle cx="246.3" cy="227.2" r="3.5"/>
	<circle cx="193.7" cy="221.5" r="3.5"/>
	<circle cx="164.5" cy="222.3" r="3.5"/>
	<circle cx="145.4" cy="221.8" r="3.5"/>
	<circle cx="107.1" cy="198" r="3.5"/>
	<circle cx="74.6" cy="183.1" r="3.5"/>
	<circle cx="37" cy="167.8" r="3.5"/>
</g>
<g>
	<path style="fill:none;stroke:#000000;stroke-width:5;stroke-miterlimit:10;" d="M103.1,218.5c-13-7.4-27.3-15.5-42.4-17.2
		c-4.1-0.5-8.6-1.4-12-0.2c-1.5,1.5-2.5,4.7-3,6.8c-0.5,1.9-0.8,3.9-1,5.7l1,12.8c0.8,4.4,2,8.8,2.9,12.8c1.2,4.9,2.7,9.6,4.4,14.3
		c2.4,6.2,4.6,12.5,8.8,17.9c1.7,2.2,3.9,4.9,6.2,7.4c7.9,6.8,16.7,9.8,24.1,10.6c17,2,21.6-16,26.3-33.1
		C123.1,240.8,117,226.6,103.1,218.5z"/>
	<path style="fill:none;stroke:#000000;stroke-width:5;stroke-miterlimit:10;" d="M263.7,259.2c-49.3-22-75.9-16.9-75.9-16.9
		s-10.5,2.2-9.9,11.4c0,0-0.9,14.2,7.3,34.4c1.4,3.3,2.8,6.2,4,8.5c3.8,7.4,8,14,12.1,18.7c13.3,15,36,20.2,46.7,20.7
		s25.8-1.4,28.5-36.3S263.7,259.2,263.7,259.2z"/>
	<path style="fill:none;stroke:#000000;stroke-width:5;stroke-miterlimit:10;" d="M316.6,266.8c0,0,59.6-6.1,95.2-7.3
		c35.9-1.2,42.1-8.3,42.1-8.3c10.5-10.7,17-7.3,17-7.3c10.7,11.1,5.9,23.3,8.7,29c2.8,5.7,4.9,3,4.9,3l5.5-11.1
		c1.6-3.6,0.8-10.1,0.8-10.1c-3.6-33.2-28.2-29.4-28.2-29.4l-1,0.4c-2.2-0.2-4.7,0-6.9,0.2c-7.5,0.6-15,2.2-22.5,3
		c-12.4,1.2-24.5,2.8-36.7,4.1c-22.7,2.4-67.4,4.9-90.1,7.5"/>
	<path style="fill:none;stroke:#000000;stroke-width:5;stroke-miterlimit:10;" d="M74.5,183.5l127.4,4.1c10.5-5.3,21.5-7.9,35.5-6.3
		c13.8,1.8,54.3,33.8,54.3,33.8c26.3,21.9,42.9,10.3,42.9,10.3c11.1-8.7-2.2-15.6-2.2-15.6L303,193.3
		c-37.3-20.7-62.4-27.8-93.2-31.2C179,158.5,37,167.8,37,167.8"/>
</g>
</svg>
