<?xml version="1.0" encoding="utf-8"?>
<!-- Generator: Adobe Illustrator 22.1.0, SVG Export Plug-In . SVG Version: 6.00 Build 0)  -->
<svg version="1.1" id="Layer_1" xmlns="http://www.w3.org/2000/svg" xmlns:xlink="http://www.w3.org/1999/xlink" x="0px" y="0px"
	 viewBox="0 0 512 512" style="enable-background:new 0 0 512 512;" xml:space="preserve">
<g style="opacity:0;">
	<circle cx="281" cy="13.4" r="3.5"/>
	<circle cx="313.2" cy="13.4" r="3.5"/>
	<circle cx="313.2" cy="37" r="3.5"/>
	<circle cx="313.2" cy="75.3" r="3.5"/>
	<circle cx="313.2" cy="115.6" r="3.5"/>
	<circle cx="313.2" cy="155.3" r="3.5"/>
	<circle cx="305.4" cy="190.4" r="3.5"/>
	<circle cx="285.1" cy="202.8" r="3.5"/>
	<circle cx="328.7" cy="202.8" r="3.5"/>
	<circle cx="328.7" cy="227" r="3.5"/>
	<circle cx="328.7" cy="267.1" r="3.5"/>
	<circle cx="328.7" cy="307.3" r="3.5"/>
	<circle cx="328.7" cy="347.4" r="3.5"/>
	<circle cx="328.7" cy="387.5" r="3.5"/>
	<circle cx="328.7" cy="427.7" r="3.5"/>
	<circle cx="328.7" cy="467.8" r="3.5"/>
	<circle cx="328.7" cy="499" r="3.5"/>
	<circle cx="275.9" cy="499" r="3.5"/>
	<circle cx="235.8" cy="499" r="3.5"/>
	<circle cx="183.6" cy="499" r="3.5"/>
	<circle cx="183.6" cy="467.4" r="3.5"/>
	<circle cx="183.6" cy="427.3" r="3.5"/>
	<circle cx="183.6" cy="387.2" r="3.5"/>
	<circle cx="183.6" cy="347" r="3.5"/>
	<circle cx="183.6" cy="306.9" r="3.5"/>
	<circle cx="183.6" cy="266.8" r="3.5"/>
	<circle cx="183.6" cy="226.6" r="3.5"/>
	<circle cx="183.6" cy="202.8" r="3.5"/>
	<circle cx="226.4" cy="202.8" r="3.5"/>
	<circle cx="206.4" cy="190.5" r="3.5"/>
	<circle cx="198.8" cy="155.6" r="3.5"/>
	<circle cx="198.8" cy="115.9" r="3.5"/>
	<circle cx="198.8" cy="75.5" r="3.5"/>
	<circle cx="198.8" cy="37.2" r="3.5"/>
	<circle cx="198.8" cy="13.4" r="3.5"/>
	<circle cx="230.7" cy="13.4" r="3.5"/>
</g>
<g>
	<g>
		<path style="fill:none;stroke:#000000;stroke-width:5;stroke-miterlimit:10;" d="M315.2,360.9c0,5.6-4.6,10.3-10.3,10.3h-98
			c-5.6,0-10.3-4.6-10.3-10.3V249.9c0-5.6,4.6-10.3,10.3-10.3h98c5.6,0,10.3,4.6,10.3,10.3V360.9z"/>
	</g>
	<line style="fill:none;stroke:#000000;stroke-width:5;stroke-miterlimit:10;" x1="285" y1="203" x2="226" y2="203"/>
	<line style="fill:none;stroke:#000000;stroke-width:5;stroke-miterlimit:10;" x1="196.7" y1="263.3" x2="315.2" y2="263.3"/>
	<line style="fill:none;stroke:#000000;stroke-width:5;stroke-miterlimit:10;" x1="255.5" y1="239.7" x2="255.5" y2="263.6"/>
	<line style="fill:none;stroke:#000000;stroke-width:5;stroke-miterlimit:10;" x1="196.7" y1="355.7" x2="313.5" y2="355.7"/>
</g>
</svg>
