<?xml version="1.0" encoding="utf-8"?>
<!-- Generator: Adobe Illustrator 22.1.0, SVG Export Plug-In . SVG Version: 6.00 Build 0)  -->
<svg version="1.1" id="Layer_1" xmlns="http://www.w3.org/2000/svg" xmlns:xlink="http://www.w3.org/1999/xlink" x="0px" y="0px"
	 viewBox="0 0 512 512" style="enable-background:new 0 0 512 512;" xml:space="preserve">
<g>
	
		<path id="path3413_1_" style="fill:none;stroke:#000000;stroke-width:5;stroke-linecap:round;stroke-linejoin:round;stroke-miterlimit:10;" d="
		M309.4,183.9L282.8,198l-45.2-46.8l26.7-13.9L309.4,183.9z"/>
	<path style="fill:none;stroke:#000000;stroke-width:5;stroke-linecap:round;stroke-linejoin:round;stroke-miterlimit:10;" d="
		M451.2,213.1c-29-29-78.5-36.4-123.8-15.6l-227,124.1l5.1,60"/>
	
		<line style="fill:none;stroke:#000000;stroke-width:5;stroke-linecap:round;stroke-linejoin:round;stroke-miterlimit:10;" x1="31.5" y1="244.5" x2="100" y2="322"/>
</g>
<g style="opacity:0;">
	<circle cx="243.6" cy="131.2" r="3.5"/>
	<circle cx="190.3" cy="159.1" r="3.5"/>
	<circle cx="137" cy="187" r="3.5"/>
	<circle cx="83.7" cy="215" r="3.5"/>
	<circle cx="30.4" cy="242.9" r="3.5"/>
	<circle cx="28.3" cy="301.8" r="3.5"/>
	<circle cx="64.1" cy="347.8" r="3.5"/>
	<circle cx="106.6" cy="383" r="3.5"/>
	<circle cx="159.2" cy="353.7" r="3.5"/>
	<circle cx="211.8" cy="324.5" r="3.5"/>
	<circle cx="257.3" cy="341.4" r="3.5"/>
	<circle cx="300.5" cy="379.6" r="3.5"/>
	<circle cx="357.2" cy="390.5" r="3.5"/>
	<circle cx="418" cy="370.3" r="3.5"/>
	<circle cx="461.9" cy="324.7" r="3.5"/>
	<circle cx="475.7" cy="269" r="3.5"/>
	<circle cx="454.3" cy="216.5" r="3.5"/>
	<circle cx="411.3" cy="174.5" r="3.5"/>
	<circle cx="368" cy="133.2" r="3.5"/>
	<circle cx="312.1" cy="113.7" r="3.5"/>
</g>
</svg>
