<?xml version="1.0" encoding="utf-8"?>
<!-- Generator: Adobe Illustrator 22.1.0, SVG Export Plug-In . SVG Version: 6.00 Build 0)  -->
<svg version="1.1" id="Layer_1" xmlns="http://www.w3.org/2000/svg" xmlns:xlink="http://www.w3.org/1999/xlink" x="0px" y="0px"
	 viewBox="0 0 512 512" style="enable-background:new 0 0 512 512;" xml:space="preserve">
<g>
	
		<path style="fill:none;stroke:#000000;stroke-width:5;stroke-linecap:round;stroke-linejoin:round;stroke-miterlimit:10;enable-background:new    ;" d="
		M495,228.9c0,36.4-107.5,66-240.1,66s-240.1-29.5-240.1-66"/>
	<path style="fill:none;stroke:#000000;stroke-width:5;stroke-linecap:round;stroke-linejoin:round;stroke-miterlimit:10;" d="
		M400,176.2l5.7-14.3c3.3-8.2-2.2-17.2-11-18l-56.8-5.5c-6.5-0.6-12.5,3.7-14.1,10l-4.1,16.8"/>
	<path style="fill:none;stroke:#000000;stroke-width:5;stroke-linecap:round;stroke-linejoin:round;stroke-miterlimit:10;" d="
		M127.6,284.7l-4.7-6.9c-2.7-3.9,3.3-6.9,12.1-5.9l56.4,6.9c6.5,0.8,12.1,3.5,13.3,6.5l2.9,7.6"/>
</g>
<g style="opacity:0;">
	<circle cx="333.8" cy="166.4" r="3.5"/>
	<circle cx="398" cy="175.8" r="3.5"/>
	<circle cx="448.7" cy="189.8" r="3.5"/>
	<circle cx="482.2" cy="207.6" r="3.5"/>
	<circle cx="494.8" cy="227.9" r="3.5"/>
	<circle cx="494.1" cy="241.5" r="3.5"/>
	<circle cx="485.5" cy="269.3" r="3.5"/>
	<circle cx="457.3" cy="306.1" r="3.5"/>
	<circle cx="398" cy="342.7" r="3.5"/>
	<circle cx="308.8" cy="367.7" r="3.5"/>
	<circle cx="258.3" cy="372.2" r="3.5"/>
	<circle cx="207.9" cy="369.3" r="3.5"/>
	<circle cx="158.5" cy="358.6" r="3.5"/>
	<circle cx="112.7" cy="340.8" r="3.5"/>
	<circle cx="70.7" cy="314.3" r="3.5"/>
	<circle cx="36.4" cy="276.9" r="3.5"/>
	<circle cx="14.8" cy="229.1" r="3.5"/>
	<circle cx="26.5" cy="208.4" r="3.5"/>
	<circle cx="59.4" cy="190.4" r="3.5"/>
	<circle cx="109.6" cy="176.2" r="3.5"/>
	<circle cx="173.6" cy="166.6" r="3.5"/>
	<circle cx="247.5" cy="162.7" r="3.5"/>
</g>
</svg>
