<?xml version="1.0" encoding="utf-8"?>
<!-- Generator: Adobe Illustrator 22.1.0, SVG Export Plug-In . SVG Version: 6.00 Build 0)  -->
<svg version="1.1" id="Layer_1" xmlns="http://www.w3.org/2000/svg" xmlns:xlink="http://www.w3.org/1999/xlink" x="0px" y="0px"
	 viewBox="0 0 512 512" style="enable-background:new 0 0 512 512;" xml:space="preserve">
<g>
	<circle cx="434.5" cy="38.5" r="3.5"/>
	<circle cx="396.5" cy="25.5" r="3.5"/>
	<circle cx="358.5" cy="19.5" r="3.5"/>
	<circle cx="318.5" cy="18.5" r="3.5"/>
	<circle cx="286.5" cy="20.5" r="3.5"/>
	<circle cx="260.5" cy="24.5" r="3.5"/>
	<circle cx="231.5" cy="32.5" r="3.5"/>
	<circle cx="203.5" cy="44.5" r="3.5"/>
	<circle cx="177.5" cy="60.5" r="3.5"/>
	<circle cx="154.5" cy="78.5" r="3.5"/>
	<circle cx="133.5" cy="99.5" r="3.5"/>
	<circle cx="117.5" cy="121.5" r="3.5"/>
	<circle cx="102.5" cy="148.5" r="3.5"/>
	<circle cx="92.5" cy="174.5" r="3.5"/>
	<circle cx="85.5" cy="198.5" r="3.5"/>
	<circle cx="80.5" cy="224.5" r="3.5"/>
	<circle cx="78.5" cy="250.5" r="3.5"/>
	<circle cx="78.5" cy="281.5" r="3.5"/>
	<circle cx="82.5" cy="311.5" r="3.5"/>
	<circle cx="86.5" cy="336.5" r="3.5"/>
	<circle cx="94.5" cy="363.5" r="3.5"/>
	<circle cx="104.5" cy="385.5" r="3.5"/>
	<circle cx="116.5" cy="407.5" r="3.5"/>
	<circle cx="133.5" cy="430.5" r="3.5"/>
	<circle cx="151.5" cy="448.5" r="3.5"/>
	<circle cx="172.5" cy="464.5" r="3.5"/>
	<circle cx="196.5" cy="478.5" r="3.5"/>
	<circle cx="218.5" cy="488.5" r="3.5"/>
	<circle cx="245.5" cy="496.5" r="3.5"/>
	<circle cx="273.5" cy="501.5" r="3.5"/>
	<circle cx="301.5" cy="502.5" r="3.5"/>
	<circle cx="325.5" cy="503.5" r="3.5"/>
	<circle cx="349.5" cy="501.5" r="3.5"/>
	<circle cx="374.5" cy="498.5" r="3.5"/>
	<circle cx="397.5" cy="492.5" r="3.5"/>
	<circle cx="418.5" cy="487.5" r="3.5"/>
	<circle cx="434.5" cy="479.5" r="3.5"/>
	<circle cx="422.5" cy="431.5" r="3.5"/>
	<circle cx="401.5" cy="438.5" r="3.5"/>
	<circle cx="381.5" cy="443.5" r="3.5"/>
	<circle cx="359.5" cy="448.5" r="3.5"/>
	<circle cx="338.5" cy="450.5" r="3.5"/>
	<circle cx="318.5" cy="450.5" r="3.5"/>
	<circle cx="298.5" cy="448.5" r="3.5"/>
	<circle cx="275.5" cy="444.5" r="3.5"/>
	<circle cx="253.5" cy="438.5" r="3.5"/>
	<circle cx="230.5" cy="428.5" r="3.5"/>
	<circle cx="213.5" cy="418.5" r="3.5"/>
	<circle cx="198.5" cy="407.5" r="3.5"/>
	<circle cx="185.5" cy="393.5" r="3.5"/>
	<circle cx="173.5" cy="377.5" r="3.5"/>
	<circle cx="161.5" cy="356.5" r="3.5"/>
	<circle cx="153.5" cy="335.5" r="3.5"/>
	<circle cx="147.5" cy="311.5" r="3.5"/>
	<circle cx="143.5" cy="283.5" r="3.5"/>
	<circle cx="143.5" cy="262.5" r="3.5"/>
	<circle cx="143.5" cy="237.5" r="3.5"/>
	<circle cx="147.5" cy="211.5" r="3.5"/>
	<circle cx="153.5" cy="185.5" r="3.5"/>
	<circle cx="163.5" cy="162.5" r="3.5"/>
	<circle cx="176.5" cy="139.5" r="3.5"/>
	<circle cx="193.5" cy="119.5" r="3.5"/>
	<circle cx="215.5" cy="100.5" r="3.5"/>
	<circle cx="236.5" cy="88.5" r="3.5"/>
	<circle cx="262.5" cy="78.5" r="3.5"/>
	<circle cx="289.5" cy="72.5" r="3.5"/>
	<circle cx="316.5" cy="69.5" r="3.5"/>
	<circle cx="342.5" cy="69.5" r="3.5"/>
	<circle cx="364.5" cy="72.5" r="3.5"/>
	<circle cx="390.5" cy="78.5" r="3.5"/>
	<circle cx="418.5" cy="87.5" r="3.5"/>
</g>
</svg>
