<?xml version="1.0" encoding="utf-8"?>
<!-- Generator: Adobe Illustrator 22.1.0, SVG Export Plug-In . SVG Version: 6.00 Build 0)  -->
<svg version="1.1" id="Layer_1" xmlns="http://www.w3.org/2000/svg" xmlns:xlink="http://www.w3.org/1999/xlink" x="0px" y="0px"
	 viewBox="0 0 512 512" style="enable-background:new 0 0 512 512;" xml:space="preserve">
<g>
	<circle cx="153.5" cy="39.5" r="3.5"/>
	<circle cx="153.5" cy="101.5" r="3.5"/>
	<circle cx="153.5" cy="165.5" r="3.5"/>
	<circle cx="153.5" cy="228.5" r="3.5"/>
	<circle cx="219.5" cy="228.5" r="3.5"/>
	<circle cx="295.5" cy="228.5" r="3.5"/>
	<circle cx="375.5" cy="228.5" r="3.5"/>
	<circle cx="375.5" cy="165.5" r="3.5"/>
	<circle cx="375.5" cy="98.5" r="3.5"/>
	<circle cx="375.5" cy="39.5" r="3.5"/>
	<circle cx="434.5" cy="39.5" r="3.5"/>
	<circle cx="434.5" cy="97.5" r="3.5"/>
	<circle cx="434.5" cy="167.5" r="3.5"/>
	<circle cx="434.5" cy="233.5" r="3.5"/>
	<circle cx="434.5" cy="292.5" r="3.5"/>
	<circle cx="434.5" cy="354.5" r="3.5"/>
	<circle cx="434.5" cy="423.5" r="3.5"/>
	<circle cx="434.5" cy="493.5" r="3.5"/>
	<circle cx="375.5" cy="493.5" r="3.5"/>
	<circle cx="375.5" cy="423.5" r="3.5"/>
	<circle cx="375.5" cy="350.5" r="3.5"/>
	<circle cx="375.5" cy="281.5" r="3.5"/>
	<circle cx="295.5" cy="281.5" r="3.5"/>
	<circle cx="219.5" cy="281.5" r="3.5"/>
	<circle cx="153.5" cy="281.5" r="3.5"/>
	<circle cx="153.5" cy="350.5" r="3.5"/>
	<circle cx="153.5" cy="423.5" r="3.5"/>
	<circle cx="153.5" cy="493.5" r="3.5"/>
	<circle cx="95.5" cy="493.5" r="3.5"/>
	<circle cx="95.5" cy="423.5" r="3.5"/>
	<circle cx="95.5" cy="353.5" r="3.5"/>
	<circle cx="95.5" cy="283.5" r="3.5"/>
	<circle cx="95.5" cy="228.5" r="3.5"/>
	<circle cx="95.5" cy="168.5" r="3.5"/>
	<circle cx="95.5" cy="104.5" r="3.5"/>
	<circle cx="95.5" cy="39.5" r="3.5"/>
</g>
</svg>
