<?xml version="1.0" encoding="utf-8"?>
<!-- Generator: Adobe Illustrator 22.1.0, SVG Export Plug-In . SVG Version: 6.00 Build 0)  -->
<svg version="1.1" id="Layer_1" xmlns="http://www.w3.org/2000/svg" xmlns:xlink="http://www.w3.org/1999/xlink" x="0px" y="0px"
	 viewBox="0 0 512 512" style="enable-background:new 0 0 512 512;" xml:space="preserve">
<g>
	<circle cx="377.5" cy="39.5" r="3.5"/>
	<circle cx="377.5" cy="87.5" r="3.5"/>
	<circle cx="377.5" cy="135.5" r="3.5"/>
	<circle cx="377.5" cy="183.5" r="3.5"/>
	<circle cx="377.5" cy="231.5" r="3.5"/>
	<circle cx="377.5" cy="279.5" r="3.5"/>
	<circle cx="377.5" cy="327.5" r="3.5"/>
	<circle cx="376.5" cy="361.5" r="3.5"/>
	<circle cx="374.5" cy="386.5" r="3.5"/>
	<circle cx="369.5" cy="408.5" r="3.5"/>
	<circle cx="363.5" cy="428.5" r="3.5"/>
	<circle cx="354.5" cy="448.5" r="3.5"/>
	<circle cx="340.5" cy="466.5" r="3.5"/>
	<circle cx="322.5" cy="480.5" r="3.5"/>
	<circle cx="301.5" cy="491.5" r="3.5"/>
	<circle cx="279.5" cy="498.5" r="3.5"/>
	<circle cx="255.5" cy="502.5" r="3.5"/>
	<circle cx="232.5" cy="502.5" r="3.5"/>
	<circle cx="209.5" cy="499.5" r="3.5"/>
	<circle cx="190.5" cy="495.5" r="3.5"/>
	<circle cx="176.5" cy="491.5" r="3.5"/>
	<circle cx="185.5" cy="443.5" r="3.5"/>
	<circle cx="202.5" cy="448.5" r="3.5"/>
	<circle cx="218.5" cy="451.5" r="3.5"/>
	<circle cx="234.5" cy="451.5" r="3.5"/>
	<circle cx="254.5" cy="451.5" r="3.5"/>
	<circle cx="269.5" cy="446.5" r="3.5"/>
	<circle cx="284.5" cy="439.5" r="3.5"/>
	<circle cx="296.5" cy="428.5" r="3.5"/>
	<circle cx="305.5" cy="415.5" r="3.5"/>
	<circle cx="311.5" cy="399.5" r="3.5"/>
	<circle cx="315.5" cy="381.5" r="3.5"/>
	<circle cx="317.5" cy="364.5" r="3.5"/>
	<circle cx="317.5" cy="339.5" r="3.5"/>
	<circle cx="318.5" cy="321.5" r="3.5"/>
	<circle cx="318.5" cy="279.5" r="3.5"/>
	<circle cx="318.5" cy="231.5" r="3.5"/>
	<circle cx="318.5" cy="185.5" r="3.5"/>
	<circle cx="318.5" cy="136.5" r="3.5"/>
	<circle cx="318.5" cy="88.5" r="3.5"/>
	<circle cx="318.5" cy="39.5" r="3.5"/>
</g>
</svg>
