<?xml version="1.0" encoding="utf-8"?>
<!-- Generator: Adobe Illustrator 22.1.0, SVG Export Plug-In . SVG Version: 6.00 Build 0)  -->
<svg version="1.1" id="Layer_1" xmlns="http://www.w3.org/2000/svg" xmlns:xlink="http://www.w3.org/1999/xlink" x="0px" y="0px"
	 viewBox="0 0 512 512" style="enable-background:new 0 0 512 512;" xml:space="preserve">
<g>
	<circle cx="192.5" cy="15.5" r="3.5"/>
	<circle cx="192.5" cy="72.5" r="3.5"/>
	<circle cx="192.5" cy="132.5" r="3.5"/>
	<circle cx="192.5" cy="192.5" r="3.5"/>
	<circle cx="192.5" cy="257.5" r="3.5"/>
	<circle cx="192.5" cy="318.5" r="3.5"/>
	<circle cx="231.5" cy="269.5" r="3.5"/>
	<circle cx="275.5" cy="217.5" r="3.5"/>
	<circle cx="319.5" cy="167.5" r="3.5"/>
	<circle cx="389.5" cy="167.5" r="3.5"/>
	<circle cx="319.5" cy="244.5" r="3.5"/>
	<circle cx="265.5" cy="302.5" r="3.5"/>
	<circle cx="299.5" cy="349.5" r="3.5"/>
	<circle cx="347.5" cy="414.5" r="3.5"/>
	<circle cx="407.5" cy="494.5" r="3.5"/>
	<circle cx="337.5" cy="494.5" r="3.5"/>
	<circle cx="295.5" cy="441.5" r="3.5"/>
	<circle cx="255.5" cy="383.5" r="3.5"/>
	<circle cx="221.5" cy="337.5" r="3.5"/>
	<circle cx="192.5" cy="370.5" r="3.5"/>
	<circle cx="192.5" cy="438.5" r="3.5"/>
	<circle cx="192.5" cy="494.5" r="3.5"/>
	<circle cx="134.5" cy="494.5" r="3.5"/>
	<circle cx="134.5" cy="434.5" r="3.5"/>
	<circle cx="134.5" cy="374.5" r="3.5"/>
	<circle cx="134.5" cy="314.5" r="3.5"/>
	<circle cx="134.5" cy="254.5" r="3.5"/>
	<circle cx="134.5" cy="194.5" r="3.5"/>
	<circle cx="134.5" cy="134.5" r="3.5"/>
	<circle cx="134.5" cy="74.5" r="3.5"/>
	<circle cx="134.5" cy="14.5" r="3.5"/>
</g>
</svg>
