<?xml version="1.0" encoding="utf-8"?>
<!-- Generator: Adobe Illustrator 22.1.0, SVG Export Plug-In . SVG Version: 6.00 Build 0)  -->
<svg version="1.1" id="Layer_1" xmlns="http://www.w3.org/2000/svg" xmlns:xlink="http://www.w3.org/1999/xlink" x="0px" y="0px"
	 viewBox="0 0 512 512" style="enable-background:new 0 0 512 512;" xml:space="preserve">
<g style="opacity:0;">
	<circle cx="235.5" cy="36.5" r="3.5"/>
	<circle cx="292.5" cy="32.5" r="3.5"/>
	<circle cx="339.5" cy="42.5" r="3.5"/>
	<circle cx="381.5" cy="62.5" r="3.5"/>
	<circle cx="420.5" cy="95.5" r="3.5"/>
	<circle cx="446.5" cy="133.5" r="3.5"/>
	<circle cx="465.5" cy="179.5" r="3.5"/>
	<circle cx="475.5" cy="235.5" r="3.5"/>
	<circle cx="475.5" cy="287.5" r="3.5"/>
	<circle cx="469.5" cy="335.5" r="3.5"/>
	<circle cx="453.5" cy="381.5" r="3.5"/>
	<circle cx="429.5" cy="423.5" r="3.5"/>
	<circle cx="398.5" cy="455.5" r="3.5"/>
	<circle cx="360.5" cy="481.5" r="3.5"/>
	<circle cx="313.5" cy="497.5" r="3.5"/>
	<circle cx="265.5" cy="502.5" r="3.5"/>
	<circle cx="215.5" cy="496.5" r="3.5"/>
	<circle cx="167.5" cy="478.5" r="3.5"/>
	<circle cx="133.5" cy="454.5" r="3.5"/>
	<circle cx="97.5" cy="412.5" r="3.5"/>
	<circle cx="75.5" cy="367.5" r="3.5"/>
	<circle cx="63.5" cy="318.5" r="3.5"/>
	<circle cx="58.5" cy="265.5" r="3.5"/>
	<circle cx="64.5" cy="211.5" r="3.5"/>
	<circle cx="79.5" cy="157.5" r="3.5"/>
	<circle cx="107.5" cy="108.5" r="3.5"/>
	<circle cx="147.5" cy="69.5" r="3.5"/>
	<circle cx="188.5" cy="46.5" r="3.5"/>
</g>
<g>
	<ellipse style="fill:none;stroke:#000000;stroke-width:5;stroke-miterlimit:10;" cx="270" cy="267.8" rx="148" ry="188.3"/>
</g>
</svg>
