<?xml version="1.0" encoding="utf-8"?>
<!-- Generator: Adobe Illustrator 22.1.0, SVG Export Plug-In . SVG Version: 6.00 Build 0)  -->
<svg version="1.1" id="Layer_1" xmlns="http://www.w3.org/2000/svg" xmlns:xlink="http://www.w3.org/1999/xlink" x="0px" y="0px"
	 viewBox="0 0 512 512" style="enable-background:new 0 0 512 512;" xml:space="preserve">
<g>
	<path style="fill:none;stroke:#000000;stroke-width:5;" d="M386,228.5c0-82.7-42.9-167.9-130.5-167.9
		c-90.1,0-134.2,83.3-133.6,172.8C121.3,321,169.7,400.1,253,400.1C338.2,400.1,386,322.9,386,228.5z"/>
</g>
<g style="opacity:0;">
	<circle cx="250.5" cy="443.5" r="3.5"/>
	<circle cx="215.5" cy="439.5" r="3.5"/>
	<circle cx="185.5" cy="431.5" r="3.5"/>
	<circle cx="157.5" cy="417.5" r="3.5"/>
	<circle cx="129.5" cy="397.5" r="3.5"/>
	<circle cx="109.5" cy="376.5" r="3.5"/>
	<circle cx="93.5" cy="353.5" r="3.5"/>
	<circle cx="82.5" cy="329.5" r="3.5"/>
	<circle cx="71.5" cy="301.5" r="3.5"/>
	<circle cx="66.5" cy="272.5" r="3.5"/>
	<circle cx="65.5" cy="244.5" r="3.5"/>
	<circle cx="65.5" cy="214.5" r="3.5"/>
	<circle cx="69.5" cy="179.5" r="3.5"/>
	<circle cx="78.5" cy="146.5" r="3.5"/>
	<circle cx="92.5" cy="111.5" r="3.5"/>
	<circle cx="112.5" cy="81.5" r="3.5"/>
	<circle cx="136.5" cy="57.5" r="3.5"/>
	<circle cx="170.5" cy="34.5" r="3.5"/>
	<circle cx="210.5" cy="20.5" r="3.5"/>
	<circle cx="252.5" cy="15.5" r="3.5"/>
	<circle cx="293.5" cy="18.5" r="3.5"/>
	<circle cx="336.5" cy="31.5" r="3.5"/>
	<circle cx="373.5" cy="55.5" r="3.5"/>
	<circle cx="403.5" cy="88.5" r="3.5"/>
	<circle cx="423.5" cy="125.5" r="3.5"/>
	<circle cx="436.5" cy="166.5" r="3.5"/>
	<circle cx="440.5" cy="198.5" r="3.5"/>
	<circle cx="443.5" cy="235.5" r="3.5"/>
	<circle cx="440.5" cy="264.5" r="3.5"/>
	<circle cx="434.5" cy="293.5" r="3.5"/>
	<circle cx="425.5" cy="320.5" r="3.5"/>
	<circle cx="414.5" cy="346.5" r="3.5"/>
	<circle cx="397.5" cy="371.5" r="3.5"/>
	<circle cx="374.5" cy="395.5" r="3.5"/>
	<circle cx="348.5" cy="414.5" r="3.5"/>
	<circle cx="324.5" cy="424.5" r="3.5"/>
	<circle cx="371.5" cy="436.5" r="3.5"/>
	<circle cx="414.5" cy="446.5" r="3.5"/>
	<circle cx="445.5" cy="452.5" r="3.5"/>
	<circle cx="431.5" cy="497.5" r="3.5"/>
	<circle cx="400.5" cy="488.5" r="3.5"/>
	<circle cx="359.5" cy="476.5" r="3.5"/>
	<circle cx="320.5" cy="465.5" r="3.5"/>
	<circle cx="276.5" cy="450.5" r="3.5"/>
</g>
</svg>
