<?xml version="1.0" encoding="utf-8"?>
<!-- Generator: Adobe Illustrator 22.1.0, SVG Export Plug-In . SVG Version: 6.00 Build 0)  -->
<svg version="1.1" id="Layer_1" xmlns="http://www.w3.org/2000/svg" xmlns:xlink="http://www.w3.org/1999/xlink" x="0px" y="0px"
	 viewBox="0 0 512 512" style="enable-background:new 0 0 512 512;" xml:space="preserve">
<g>
	<path style="fill:none;stroke:#000000;stroke-width:5;" d="M173.8,249h60.6c63.3,0,103.4-34.7,103.4-87.1
		c0-59.2-42.9-85.1-105.5-85.7c-28.6,0-49,2.7-58.5,5.4V249z"/>
</g>
<g style="opacity:0;">
	<circle cx="114.5" cy="41.5" r="3.5"/>
	<circle cx="152.5" cy="35.5" r="3.5"/>
	<circle cx="187.5" cy="31.5" r="3.5"/>
	<circle cx="219.5" cy="31.5" r="3.5"/>
	<circle cx="252.5" cy="32.5" r="3.5"/>
	<circle cx="283.5" cy="35.5" r="3.5"/>
	<circle cx="313.5" cy="41.5" r="3.5"/>
	<circle cx="336.5" cy="51.5" r="3.5"/>
	<circle cx="355.5" cy="63.5" r="3.5"/>
	<circle cx="369.5" cy="77.5" r="3.5"/>
	<circle cx="380.5" cy="92.5" r="3.5"/>
	<circle cx="390.5" cy="112.5" r="3.5"/>
	<circle cx="395.5" cy="133.5" r="3.5"/>
	<circle cx="397.5" cy="152.5" r="3.5"/>
	<circle cx="396.5" cy="171.5" r="3.5"/>
	<circle cx="390.5" cy="196.5" r="3.5"/>
	<circle cx="383.5" cy="213.5" r="3.5"/>
	<circle cx="372.5" cy="229.5" r="3.5"/>
	<circle cx="362.5" cy="243.5" r="3.5"/>
	<circle cx="343.5" cy="256.5" r="3.5"/>
	<circle cx="324.5" cy="267.5" r="3.5"/>
	<circle cx="310.5" cy="274.5" r="3.5"/>
	<circle cx="336.5" cy="290.5" r="3.5"/>
	<circle cx="355.5" cy="310.5" r="3.5"/>
	<circle cx="366.5" cy="330.5" r="3.5"/>
	<circle cx="373.5" cy="350.5" r="3.5"/>
	<circle cx="380.5" cy="375.5" r="3.5"/>
	<circle cx="385.5" cy="398.5" r="3.5"/>
	<circle cx="391.5" cy="421.5" r="3.5"/>
	<circle cx="396.5" cy="444.5" r="3.5"/>
	<circle cx="403.5" cy="465.5" r="3.5"/>
	<circle cx="413.5" cy="492.5" r="3.5"/>
	<circle cx="351.5" cy="492.5" r="3.5"/>
	<circle cx="344.5" cy="474.5" r="3.5"/>
	<circle cx="339.5" cy="458.5" r="3.5"/>
	<circle cx="335.5" cy="442.5" r="3.5"/>
	<circle cx="331.5" cy="426.5" r="3.5"/>
	<circle cx="326.5" cy="409.5" r="3.5"/>
	<circle cx="321.5" cy="386.5" r="3.5"/>
	<circle cx="317.5" cy="368.5" r="3.5"/>
	<circle cx="313.5" cy="355.5" r="3.5"/>
	<circle cx="306.5" cy="338.5" r="3.5"/>
	<circle cx="296.5" cy="323.5" r="3.5"/>
	<circle cx="283.5" cy="310.5" r="3.5"/>
	<circle cx="270.5" cy="303.5" r="3.5"/>
	<circle cx="255.5" cy="297.5" r="3.5"/>
	<circle cx="233.5" cy="293.5" r="3.5"/>
	<circle cx="174.5" cy="293.5" r="3.5"/>
	<circle cx="174.5" cy="365.5" r="3.5"/>
	<circle cx="174.5" cy="437.5" r="3.5"/>
	<circle cx="174.5" cy="493.5" r="3.5"/>
	<circle cx="113.5" cy="493.5" r="3.5"/>
	<circle cx="113.5" cy="427.5" r="3.5"/>
	<circle cx="113.5" cy="349.5" r="3.5"/>
	<circle cx="113.5" cy="273.5" r="3.5"/>
	<circle cx="114.5" cy="200.5" r="3.5"/>
	<circle cx="115.5" cy="127.5" r="3.5"/>
</g>
</svg>
