<?xml version="1.0" encoding="utf-8"?>
<!-- Generator: Adobe Illustrator 22.1.0, SVG Export Plug-In . SVG Version: 6.00 Build 0)  -->
<svg version="1.1" id="Layer_1" xmlns="http://www.w3.org/2000/svg" xmlns:xlink="http://www.w3.org/1999/xlink" x="0px" y="0px"
	 viewBox="0 0 512 512" style="enable-background:new 0 0 512 512;" xml:space="preserve">
<g>
	<circle cx="103.5" cy="34.5" r="3.5"/>
	<circle cx="103.5" cy="101.5" r="3.5"/>
	<circle cx="103.5" cy="168.5" r="3.5"/>
	<circle cx="103.5" cy="235.5" r="3.5"/>
	<circle cx="103.5" cy="302.5" r="3.5"/>
	<circle cx="109.5" cy="369.5" r="3.5"/>
	<circle cx="117.5" cy="400.5" r="3.5"/>
	<circle cx="128.5" cy="423.5" r="3.5"/>
	<circle cx="142.5" cy="444.5" r="3.5"/>
	<circle cx="154.5" cy="460.5" r="3.5"/>
	<circle cx="171.5" cy="473.5" r="3.5"/>
	<circle cx="190.5" cy="483.5" r="3.5"/>
	<circle cx="212.5" cy="492.5" r="3.5"/>
	<circle cx="238.5" cy="499.5" r="3.5"/>
	<circle cx="264.5" cy="499.5" r="3.5"/>
	<circle cx="290.5" cy="499.5" r="3.5"/>
	<circle cx="312.5" cy="495.5" r="3.5"/>
	<circle cx="338.5" cy="488.5" r="3.5"/>
	<circle cx="363.5" cy="478.5" r="3.5"/>
	<circle cx="385.5" cy="460.5" r="3.5"/>
	<circle cx="405.5" cy="440.5" r="3.5"/>
	<circle cx="418.5" cy="416.5" r="3.5"/>
	<circle cx="427.5" cy="393.5" r="3.5"/>
	<circle cx="436.5" cy="362.5" r="3.5"/>
	<circle cx="441.5" cy="305.5" r="3.5"/>
	<circle cx="441.5" cy="235.5" r="3.5"/>
	<circle cx="441.5" cy="165.5" r="3.5"/>
	<circle cx="441.5" cy="95.5" r="3.5"/>
	<circle cx="441.5" cy="34.5" r="3.5"/>
	<circle cx="382.5" cy="34.5" r="3.5"/>
	<circle cx="382.5" cy="92.5" r="3.5"/>
	<circle cx="382.5" cy="167.5" r="3.5"/>
	<circle cx="382.5" cy="235.5" r="3.5"/>
	<circle cx="382.5" cy="305.5" r="3.5"/>
	<circle cx="381.5" cy="338.5" r="3.5"/>
	<circle cx="377.5" cy="359.5" r="3.5"/>
	<circle cx="370.5" cy="380.5" r="3.5"/>
	<circle cx="363.5" cy="397.5" r="3.5"/>
	<circle cx="354.5" cy="413.5" r="3.5"/>
	<circle cx="340.5" cy="427.5" r="3.5"/>
	<circle cx="324.5" cy="438.5" r="3.5"/>
	<circle cx="305.5" cy="447.5" r="3.5"/>
	<circle cx="288.5" cy="451.5" r="3.5"/>
	<circle cx="271.5" cy="451.5" r="3.5"/>
	<circle cx="254.5" cy="450.5" r="3.5"/>
	<circle cx="237.5" cy="447.5" r="3.5"/>
	<circle cx="220.5" cy="440.5" r="3.5"/>
	<circle cx="206.5" cy="430.5" r="3.5"/>
	<circle cx="193.5" cy="418.5" r="3.5"/>
	<circle cx="183.5" cy="403.5" r="3.5"/>
	<circle cx="174.5" cy="386.5" r="3.5"/>
	<circle cx="167.5" cy="364.5" r="3.5"/>
	<circle cx="163.5" cy="342.5" r="3.5"/>
	<circle cx="163.5" cy="302.5" r="3.5"/>
	<circle cx="163.5" cy="233.5" r="3.5"/>
	<circle cx="163.5" cy="164.5" r="3.5"/>
	<circle cx="163.5" cy="95.5" r="3.5"/>
	<circle cx="163.5" cy="35.5" r="3.5"/>
</g>
</svg>
