<?xml version="1.0" encoding="utf-8"?>
<!-- Generator: Adobe Illustrator 22.1.0, SVG Export Plug-In . SVG Version: 6.00 Build 0)  -->
<svg version="1.1" id="Layer_1" xmlns="http://www.w3.org/2000/svg" xmlns:xlink="http://www.w3.org/1999/xlink" x="0px" y="0px"
	 viewBox="0 0 512 512" style="enable-background:new 0 0 512 512;" xml:space="preserve">
<g>
	<circle cx="81.5" cy="33.5" r="3.5"/>
	<circle cx="120.5" cy="99.5" r="3.5"/>
	<circle cx="175.5" cy="190.5" r="3.5"/>
	<circle cx="214.5" cy="259.5" r="3.5"/>
	<circle cx="179.5" cy="323.5" r="3.5"/>
	<circle cx="120.5" cy="416.5" r="3.5"/>
	<circle cx="75.5" cy="490.5" r="3.5"/>
	<circle cx="143.5" cy="490.5" r="3.5"/>
	<circle cx="179.5" cy="423.5" r="3.5"/>
	<circle cx="225.5" cy="343.5" r="3.5"/>
	<circle cx="248.5" cy="299.5" r="3.5"/>
	<circle cx="273.5" cy="343.5" r="3.5"/>
	<circle cx="323.5" cy="430.5" r="3.5"/>
	<circle cx="361.5" cy="490.5" r="3.5"/>
	<circle cx="429.5" cy="490.5" r="3.5"/>
	<circle cx="384.5" cy="418.5" r="3.5"/>
	<circle cx="326.5" cy="323.5" r="3.5"/>
	<circle cx="286.5" cy="255.5" r="3.5"/>
	<circle cx="330.5" cy="186.5" r="3.5"/>
	<circle cx="385.5" cy="99.5" r="3.5"/>
	<circle cx="427.5" cy="33.5" r="3.5"/>
	<circle cx="355.5" cy="33.5" r="3.5"/>
	<circle cx="322.5" cy="92.5" r="3.5"/>
	<circle cx="276.5" cy="172.5" r="3.5"/>
	<circle cx="251.5" cy="220.5" r="3.5"/>
	<circle cx="225.5" cy="168.5" r="3.5"/>
	<circle cx="182.5" cy="92.5" r="3.5"/>
	<circle cx="149.5" cy="33.5" r="3.5"/>
</g>
</svg>
