<?xml version="1.0" encoding="utf-8"?>
<!-- Generator: Adobe Illustrator 22.1.0, SVG Export Plug-In . SVG Version: 6.00 Build 0)  -->
<svg version="1.1" id="Layer_1" xmlns="http://www.w3.org/2000/svg" xmlns:xlink="http://www.w3.org/1999/xlink" x="0px" y="0px"
	 viewBox="0 0 512 512" style="enable-background:new 0 0 512 512;" xml:space="preserve">
<g style="opacity:0;">
	<circle cx="260.5" cy="12.5" r="3.5"/>
	<circle cx="218.5" cy="17.5" r="3.5"/>
	<circle cx="182.5" cy="33.5" r="3.5"/>
	<circle cx="149.5" cy="58.5" r="3.5"/>
	<circle cx="127.5" cy="88.5" r="3.5"/>
	<circle cx="111.5" cy="122.5" r="3.5"/>
	<circle cx="106.5" cy="156.5" r="3.5"/>
	<circle cx="111.5" cy="193.5" r="3.5"/>
	<circle cx="127.5" cy="231.5" r="3.5"/>
	<circle cx="153.5" cy="262.5" r="3.5"/>
	<circle cx="171.5" cy="301.5" r="3.5"/>
	<circle cx="181.5" cy="349.5" r="3.5"/>
	<circle cx="169.5" cy="365.5" r="3.5"/>
	<circle cx="179.5" cy="380.5" r="3.5"/>
	<circle cx="189.5" cy="380.5" r="3.5"/>
	<circle cx="189.5" cy="452.5" r="3.5"/>
	<circle cx="202.5" cy="454.5" r="3.5"/>
	<circle cx="215.5" cy="473.5" r="3.5"/>
	<circle cx="247.5" cy="485.5" r="3.5"/>
	<circle cx="278.5" cy="481.5" r="3.5"/>
	<circle cx="308.5" cy="457.5" r="3.5"/>
	<circle cx="308.5" cy="380.5" r="3.5"/>
	<circle cx="329.5" cy="380.5" r="3.5"/>
	<circle cx="341.5" cy="365.5" r="3.5"/>
	<circle cx="330.5" cy="349.5" r="3.5"/>
	<circle cx="338.5" cy="301.5" r="3.5"/>
	<circle cx="366.5" cy="255.5" r="3.5"/>
	<circle cx="396.5" cy="208.5" r="3.5"/>
	<circle cx="404.5" cy="163.5" r="3.5"/>
	<circle cx="396.5" cy="115.5" r="3.5"/>
	<circle cx="379.5" cy="81.5" r="3.5"/>
	<circle cx="352.5" cy="48.5" r="3.5"/>
	<circle cx="311.5" cy="20.5" r="3.5"/>
</g>
<g>
	<path style="fill:#FFFFFF;stroke:#000000;stroke-width:5;stroke-miterlimit:10;" d="M313.1,164.1c-0.8-0.2-1.6-0.2-2.5,0
		c-0.8,0-1.4,0.2-2,0.6c-11.5,7-24.5,2.7-29.5,0.6c-0.2,0-0.4-0.2-0.6-0.2c-0.8-0.6-1.6-1-2.9-1.2c-1.4-0.2-2.9,0.4-3.9,1.2
		c-0.2,0-0.4,0.2-0.6,0.2c-13.5,5.9-25.6,2-30.1,0.2c-0.6-0.2-1-0.4-1.6-0.4c-1-0.8-2.5-1.2-3.9-1c-1.4,0.2-2.7,1-3.5,2
		c-0.2,0-0.2,0.2-0.4,0.2c-15.7,9.8-29.9-0.6-30.5-1.2c-0.8-0.6-1.6-1-2.7-1c-0.8-0.2-1.6-0.2-2.7,0c-2.7,0.8-4.3,3.7-3.5,6.3
		l34.4,115.8c-5.5,5.7-9,13.5-9,22.1v41.5h14.3v-41.5c0-9.6,8-17.6,17.6-17.6h9.8c9.6,0,17.6,8,17.6,17.6v41.5h14.3v-41.5
		c0-7.6-2.7-14.5-7.2-20l32.5-117.8C317.4,167.5,315.8,164.9,313.1,164.1z M303.9,177.6l-28.2,102.7l-3.9-1.8v-29.7
		c4.1-0.4,7.2-3.9,7.2-8c0-3.9-2.7-7-6.1-8l6.3-56.2C285.3,178.4,294.3,180,303.9,177.6z M268.7,177l-6.3,55.4h-12.3l-8-55.4
		C248.7,178.6,258.1,180,268.7,177z M232.1,177.4l7.8,55c-4.5,0.2-8,3.7-8,8.2c0,4.1,3.1,7.6,7.2,8V278c-1.2,0.4-2.5,1-3.7,1.6
		l-30.1-101c3.5,1.2,7.6,2,12.1,2C221.9,180.6,226.8,179.8,232.1,177.4z M249.5,276.4C249.5,276.4,249.3,276.4,249.5,276.4
		l-0.2-27.6h12.3v27.8c-0.8,0-1.4-0.2-2.3-0.2H249.5z"/>
</g>
</svg>
