<?xml version="1.0" encoding="utf-8"?>
<!-- Generator: Adobe Illustrator 22.1.0, SVG Export Plug-In . SVG Version: 6.00 Build 0)  -->
<svg version="1.1" id="Layer_1" xmlns="http://www.w3.org/2000/svg" xmlns:xlink="http://www.w3.org/1999/xlink" x="0px" y="0px"
	 viewBox="0 0 512 512" style="enable-background:new 0 0 512 512;" xml:space="preserve">
<g>
	<circle cx="260.5" cy="12.5" r="3.5"/>
	<circle cx="218.5" cy="17.5" r="3.5"/>
	<circle cx="182.5" cy="33.5" r="3.5"/>
	<circle cx="149.5" cy="58.5" r="3.5"/>
	<circle cx="127.5" cy="88.5" r="3.5"/>
	<circle cx="111.5" cy="122.5" r="3.5"/>
	<circle cx="106.5" cy="156.5" r="3.5"/>
	<circle cx="111.5" cy="193.5" r="3.5"/>
	<circle cx="127.5" cy="231.5" r="3.5"/>
	<circle cx="153.5" cy="262.5" r="3.5"/>
	<circle cx="171.5" cy="301.5" r="3.5"/>
	<circle cx="181.5" cy="349.5" r="3.5"/>
	<circle cx="169.5" cy="365.5" r="3.5"/>
	<circle cx="179.5" cy="380.5" r="3.5"/>
	<circle cx="189.5" cy="380.5" r="3.5"/>
	<circle cx="189.5" cy="452.5" r="3.5"/>
	<circle cx="202.5" cy="454.5" r="3.5"/>
	<circle cx="215.5" cy="473.5" r="3.5"/>
	<circle cx="247.5" cy="485.5" r="3.5"/>
	<circle cx="278.5" cy="481.5" r="3.5"/>
	<circle cx="308.5" cy="457.5" r="3.5"/>
	<circle cx="308.5" cy="380.5" r="3.5"/>
	<circle cx="329.5" cy="380.5" r="3.5"/>
	<circle cx="341.5" cy="365.5" r="3.5"/>
	<circle cx="330.5" cy="349.5" r="3.5"/>
	<circle cx="338.5" cy="301.5" r="3.5"/>
	<circle cx="366.5" cy="255.5" r="3.5"/>
	<circle cx="396.5" cy="208.5" r="3.5"/>
	<circle cx="404.5" cy="163.5" r="3.5"/>
	<circle cx="396.5" cy="115.5" r="3.5"/>
	<circle cx="379.5" cy="81.5" r="3.5"/>
	<circle cx="352.5" cy="48.5" r="3.5"/>
	<circle cx="311.5" cy="20.5" r="3.5"/>
</g>
</svg>
