<?xml version="1.0" encoding="utf-8"?>
<!-- Generator: Adobe Illustrator 22.1.0, SVG Export Plug-In . SVG Version: 6.00 Build 0)  -->
<svg version="1.1" id="Layer_1" xmlns="http://www.w3.org/2000/svg" xmlns:xlink="http://www.w3.org/1999/xlink" x="0px" y="0px"
	 viewBox="0 0 512 512" style="enable-background:new 0 0 512 512;" xml:space="preserve">
<g>
	
		<rect x="53.7" y="143.5" style="fill:none;stroke:#000000;stroke-width:5;stroke-linecap:round;stroke-linejoin:round;stroke-miterlimit:10;" width="257.5" height="174"/>
	
		<rect x="377.5" y="108.5" style="fill:none;stroke:#000000;stroke-width:5;stroke-linecap:round;stroke-linejoin:round;stroke-miterlimit:10;" width="114" height="277"/>
	
		<rect x="388.5" y="130.5" style="fill:none;stroke:#000000;stroke-width:5;stroke-linecap:round;stroke-linejoin:round;stroke-miterlimit:10;" width="94" height="21"/>
	
		<circle style="fill:none;stroke:#000000;stroke-width:5;stroke-linecap:round;stroke-linejoin:round;stroke-miterlimit:10;" cx="435.5" cy="279.5" r="16"/>
	
		<polyline style="fill:none;stroke:#000000;stroke-width:5;stroke-linecap:round;stroke-linejoin:round;stroke-miterlimit:10;" points="
		152,330.5 149.5,372.5 133.5,385.5 233.5,385.5 219.5,371.5 219.5,330.5 	"/>
</g>
<g style="opacity:0;">
	<circle cx="330.5" cy="190.1" r="3.5"/>
	<circle cx="330.5" cy="239.1" r="3.5"/>
	<circle cx="330.5" cy="288.2" r="3.5"/>
	<circle cx="330.5" cy="330" r="3.5"/>
	<circle cx="274.6" cy="330" r="3.5"/>
	<circle cx="225.6" cy="330" r="3.5"/>
	<circle cx="176.5" cy="330" r="3.5"/>
	<circle cx="127.4" cy="330" r="3.5"/>
	<circle cx="78.3" cy="330" r="3.5"/>
	<circle cx="34.5" cy="330" r="3.5"/>
	<circle cx="34.5" cy="276.2" r="3.5"/>
	<circle cx="34.5" cy="227.1" r="3.5"/>
	<circle cx="34.5" cy="178" r="3.5"/>
	<circle cx="36" cy="130.5" r="3.5"/>
	<circle cx="85.1" cy="130.5" r="3.5"/>
	<circle cx="134.2" cy="130.5" r="3.5"/>
	<circle cx="183.3" cy="130.5" r="3.5"/>
	<circle cx="232.4" cy="130.5" r="3.5"/>
	<circle cx="281.4" cy="130.5" r="3.5"/>
	<circle cx="330.5" cy="130.5" r="3.5"/>
</g>
</svg>
