<?xml version="1.0" encoding="utf-8"?>
<!-- Generator: Adobe Illustrator 22.1.0, SVG Export Plug-In . SVG Version: 6.00 Build 0)  -->
<svg version="1.1" id="Layer_1" xmlns="http://www.w3.org/2000/svg" xmlns:xlink="http://www.w3.org/1999/xlink" x="0px" y="0px"
	 viewBox="0 0 512 512" style="enable-background:new 0 0 512 512;" xml:space="preserve">
<g>
	
		<line style="fill:none;stroke:#000000;stroke-width:5;stroke-linecap:round;stroke-linejoin:round;stroke-miterlimit:10;" x1="116.3" y1="292.7" x2="116.3" y2="479"/>
	
		<line style="fill:none;stroke:#000000;stroke-width:5;stroke-linecap:round;stroke-linejoin:round;stroke-miterlimit:10;" x1="384.5" y1="292.5" x2="384.5" y2="479"/>
	
		<line style="fill:none;stroke:#000000;stroke-width:5;stroke-linecap:round;stroke-linejoin:round;stroke-miterlimit:10;" x1="457.5" y1="351.5" x2="457.5" y2="419.5"/>
	
		<line style="fill:none;stroke:#000000;stroke-width:5;stroke-linecap:round;stroke-linejoin:round;stroke-miterlimit:10;" x1="426.5" y1="314.5" x2="433.5" y2="445.5"/>
	
		<line style="fill:none;stroke:#000000;stroke-width:5;stroke-linecap:round;stroke-linejoin:round;stroke-miterlimit:10;" x1="74.5" y1="314.5" x2="66.5" y2="445.5"/>
	
		<line style="fill:none;stroke:#000000;stroke-width:5;stroke-linecap:round;stroke-linejoin:round;stroke-miterlimit:10;" x1="44.5" y1="351.5" x2="44.5" y2="419.5"/>
</g>
<g style="opacity:0;">
	<circle cx="325.8" cy="39.3" r="3.5"/>
	<circle cx="291.8" cy="30.3" r="3.5"/>
	<circle cx="361.8" cy="56.2" r="3.5"/>
	<circle cx="393.8" cy="79.1" r="3.5"/>
	<circle cx="421.2" cy="107.3" r="3.5"/>
	<circle cx="443.3" cy="140" r="3.5"/>
	<circle cx="459.2" cy="176.5" r="3.5"/>
	<circle cx="468.3" cy="216.2" r="3.5"/>
	<circle cx="464.2" cy="254.3" r="3.5"/>
	<circle cx="457.3" cy="287.4" r="3.5"/>
	<circle cx="457.3" cy="327.4" r="3.5"/>
	<circle cx="471.8" cy="357.2" r="3.5"/>
	<circle cx="481.9" cy="393.5" r="3.5"/>
	<circle cx="456.9" cy="419.3" r="3.5"/>
	<circle cx="438.9" cy="447.6" r="3.5"/>
	<circle cx="410.5" cy="470" r="3.5"/>
	<circle cx="372.5" cy="479" r="3.5"/>
	<circle cx="347.8" cy="460.7" r="3.5"/>
	<circle cx="347.8" cy="420.7" r="3.5"/>
	<circle cx="347.8" cy="380.7" r="3.5"/>
	<circle cx="347.8" cy="340.7" r="3.5"/>
	<circle cx="347.8" cy="300.6" r="3.5"/>
	<circle cx="382.7" cy="292.5" r="3.5"/>
	<circle cx="419.3" cy="306.9" r="3.5"/>
	<circle cx="426.6" cy="284.7" r="3.5"/>
	<circle cx="416.2" cy="250" r="3.5"/>
	<circle cx="411.8" cy="209" r="3.5"/>
	<circle cx="398.1" cy="171.7" r="3.5"/>
	<circle cx="376.4" cy="139.1" r="3.5"/>
	<circle cx="347.6" cy="112.7" r="3.5"/>
	<circle cx="313.3" cy="93.6" r="3.5"/>
	<circle cx="274.5" cy="83" r="3.5"/>
	<circle cx="232.9" cy="82.3" r="3.5"/>
	<circle cx="193.6" cy="91.4" r="3.5"/>
	<circle cx="158.5" cy="109.3" r="3.5"/>
	<circle cx="128.8" cy="134.8" r="3.5"/>
	<circle cx="106" cy="166.5" r="3.5"/>
	<circle cx="91" cy="203.2" r="3.5"/>
	<circle cx="85.3" cy="243.8" r="3.5"/>
	<circle cx="74.7" cy="278.9" r="3.5"/>
	<circle cx="78.3" cy="309.9" r="3.5"/>
	<circle cx="113.6" cy="292.9" r="3.5"/>
	<circle cx="152.6" cy="296.2" r="3.5"/>
	<circle cx="153.3" cy="335.9" r="3.5"/>
	<circle cx="153.3" cy="376" r="3.5"/>
	<circle cx="153.3" cy="416" r="3.5"/>
	<circle cx="153.3" cy="456" r="3.5"/>
	<circle cx="133.5" cy="479" r="3.5"/>
	<circle cx="94.6" cy="472.2" r="3.5"/>
	<circle cx="66.4" cy="446.3" r="3.5"/>
	<circle cx="44.7" cy="423.1" r="3.5"/>
	<circle cx="20" cy="397.2" r="3.5"/>
	<circle cx="26" cy="360" r="3.5"/>
	<circle cx="44.7" cy="331.4" r="3.5"/>
	<circle cx="44.7" cy="291.3" r="3.5"/>
	<circle cx="41.7" cy="254.3" r="3.5"/>
	<circle cx="33.4" cy="220.2" r="3.5"/>
	<circle cx="41.7" cy="180.6" r="3.5"/>
	<circle cx="56.8" cy="143.9" r="3.5"/>
	<circle cx="78.1" cy="110.9" r="3.5"/>
	<circle cx="104.7" cy="82.3" r="3.5"/>
	<circle cx="136" cy="58.8" r="3.5"/>
	<circle cx="171.3" cy="41.2" r="3.5"/>
	<circle cx="209.9" cy="30.1" r="3.5"/>
	<circle cx="251.1" cy="26.2" r="3.5"/>
</g>
</svg>
