<?xml version="1.0" encoding="utf-8"?>
<!-- Generator: Adobe Illustrator 22.1.0, SVG Export Plug-In . SVG Version: 6.00 Build 0)  -->
<svg version="1.1" id="Layer_1" xmlns="http://www.w3.org/2000/svg" xmlns:xlink="http://www.w3.org/1999/xlink" x="0px" y="0px"
	 viewBox="0 0 512 512" style="enable-background:new 0 0 512 512;" xml:space="preserve">
<g>
	<path style="fill:none;stroke:#000000;stroke-width:5;stroke-linecap:round;stroke-linejoin:round;stroke-miterlimit:10;" d="
		M325.8,238.8c56-1,77.2-4.1,77.2-4.1s4.7-0.8,3.3-9.6"/>
	<path style="fill:none;stroke:#000000;stroke-width:5;stroke-linecap:round;stroke-linejoin:round;stroke-miterlimit:10;" d="
		M406.3,225.1C404.7,214.7,382,29.7,382,29.7s-1.8-7.7-13.5-10.4c-10.4-2.4-33-4.3-81.9-4.9c-3.9-0.2-8.2-0.4-12.8-0.4
		c-6.3,0-12.4,0-18.1,0s-11.8,0-18.1,0c-4.7,0-8.8,0.2-12.8,0.4c-49.1,0.6-71.7,2.4-82.1,4.9c-11.8,2.7-13.5,10.4-13.5,10.4
		s-22.6,185-24.2,195.4c-1.4,8.8,3.7,9.6,3.7,9.6s21,2.9,77.2,4.1"/>
	<path style="fill:none;stroke:#000000;stroke-width:5;stroke-linecap:round;stroke-linejoin:round;stroke-miterlimit:10;" d="
		M262.8,239.2c10.9,0.1,34.1,0.1,62.8-0.6c49.9-1,72.1-3.5,76.4-3.9c-0.2-2.2,0-3.3-5.9-4.3c-6.7-1-42-4.9-140.4-4.9
		s-136.3,3.3-143.1,5.1c-3.5,0.8-4.7,2.4-4.9,3.5c0.6,0.4,1,0.4,1,0.4s21,2.9,77.2,4.1c30.1,0.5,51.9,0.3,62.6,0.2"/>
	
		<polyline style="fill:none;stroke:#000000;stroke-width:5;stroke-linecap:round;stroke-linejoin:round;stroke-miterlimit:10;" points="
		248.4,248.4 248.4,225.7 262.8,225.7 262.8,248.4 	"/>
	<path style="fill:none;stroke:#000000;stroke-width:5;stroke-linecap:round;stroke-linejoin:round;stroke-miterlimit:10;" d="
		M383.9,45.2c-1.2-9.6-2-15.5-2-15.5s-1.8-7.7-13.5-10.4c-10.4-2.4-33-4.3-81.9-4.9c-3.9-0.2-8.2-0.4-12.8-0.4c-6.3,0-12.4,0-18.1,0
		s-11.8,0-18.1,0c-4.7,0-8.8,0.2-12.8,0.4c-49.1,0.6-71.7,2.4-82.1,4.9c-11.8,2.7-13.5,10.4-13.5,10.4s-0.8,5.9-2,15.5
		C137.5,40.5,167.1,33,254.5,33C342.3,33,373.1,40.5,383.9,45.2z"/>
</g>
<g style="opacity:0;">
	<circle cx="275.3" cy="248.4" r="3.5"/>
	<circle cx="279.5" cy="312.9" r="3.5"/>
	<circle cx="297.2" cy="345" r="3.5"/>
	<circle cx="332.8" cy="379.4" r="3.5"/>
	<circle cx="338.7" cy="428.9" r="3.5"/>
	<circle cx="313.1" cy="476.6" r="3.5"/>
	<circle cx="274.9" cy="499" r="3.5"/>
	<circle cx="224.1" cy="499" r="3.5"/>
	<circle cx="191.6" cy="467" r="3.5"/>
	<circle cx="169.4" cy="416.9" r="3.5"/>
	<circle cx="185.8" cy="371.5" r="3.5"/>
	<circle cx="220.4" cy="337" r="3.5"/>
	<circle cx="233.5" cy="303" r="3.5"/>
	<circle cx="236" cy="248.4" r="3.5"/>
</g>
</svg>
