<?xml version="1.0" encoding="utf-8"?>
<!-- Generator: Adobe Illustrator 22.1.0, SVG Export Plug-In . SVG Version: 6.00 Build 0)  -->
<svg version="1.1" id="Layer_1" xmlns="http://www.w3.org/2000/svg" xmlns:xlink="http://www.w3.org/1999/xlink" x="0px" y="0px"
	 viewBox="0 0 512 512" style="enable-background:new 0 0 512 512;" xml:space="preserve">
<g>
	<circle cx="123" cy="35.6" r="3.5"/>
	<circle cx="123" cy="78.2" r="3.5"/>
	<circle cx="123" cy="139.2" r="3.5"/>
	<circle cx="123" cy="210.2" r="3.5"/>
	<circle cx="123" cy="272.1" r="3.5"/>
	<circle cx="123" cy="342.1" r="3.5"/>
	<circle cx="123" cy="413.1" r="3.5"/>
	<circle cx="123" cy="482" r="3.5"/>
	<circle cx="201.4" cy="481.9" r="3.5"/>
	<circle cx="302.3" cy="481.7" r="3.5"/>
	<circle cx="382.2" cy="481.6" r="3.5"/>
	<circle cx="382.2" cy="415.5" r="3.5"/>
	<circle cx="382.2" cy="344.5" r="3.5"/>
	<circle cx="382.2" cy="274.5" r="3.5"/>
	<circle cx="382.2" cy="212.5" r="3.5"/>
	<circle cx="382.2" cy="141.6" r="3.5"/>
	<circle cx="382.2" cy="80.6" r="3.5"/>
	<circle cx="382.2" cy="35.4" r="3.5"/>
	<circle cx="291.5" cy="35.3" r="3.5"/>
	<circle cx="200.5" cy="35.4" r="3.5"/>
</g>
</svg>
