<?xml version="1.0" encoding="utf-8"?>
<!-- Generator: Adobe Illustrator 22.1.0, SVG Export Plug-In . SVG Version: 6.00 Build 0)  -->
<svg version="1.1" id="Layer_1" xmlns="http://www.w3.org/2000/svg" xmlns:xlink="http://www.w3.org/1999/xlink" x="0px" y="0px"
	 viewBox="0 0 512 512" style="enable-background:new 0 0 512 512;" xml:space="preserve">
<g>
	<circle cx="259.8" cy="18.5" r="3.5"/>
	<circle cx="310.4" cy="19.1" r="3.5"/>
	<circle cx="347.7" cy="44.8" r="3.5"/>
	<circle cx="345.3" cy="95.5" r="3.5"/>
	<circle cx="342.3" cy="146" r="3.5"/>
	<circle cx="339.3" cy="196.5" r="3.5"/>
	<circle cx="336.3" cy="247" r="3.5"/>
	<circle cx="333.3" cy="297.5" r="3.5"/>
	<circle cx="330.3" cy="348" r="3.5"/>
	<circle cx="327.2" cy="398.5" r="3.5"/>
	<circle cx="324.2" cy="449" r="3.5"/>
	<circle cx="305.7" cy="492.4" r="3.5"/>
	<circle cx="255.4" cy="494.7" r="3.5"/>
	<circle cx="204.7" cy="493.8" r="3.5"/>
	<circle cx="179.9" cy="455.4" r="3.5"/>
	<circle cx="178" cy="404.8" r="3.5"/>
	<circle cx="176.1" cy="354.3" r="3.5"/>
	<circle cx="174.2" cy="303.7" r="3.5"/>
	<circle cx="172.3" cy="253.1" r="3.5"/>
	<circle cx="170.4" cy="202.6" r="3.5"/>
	<circle cx="168.5" cy="152" r="3.5"/>
	<circle cx="166.6" cy="101.5" r="3.5"/>
	<circle cx="164.7" cy="50.9" r="3.5"/>
	<circle cx="194.9" cy="17.8" r="3.5"/>
</g>
</svg>
