<?xml version="1.0" encoding="utf-8"?>
<!-- Generator: Adobe Illustrator 22.1.0, SVG Export Plug-In . SVG Version: 6.00 Build 0)  -->
<svg version="1.1" id="Layer_1" xmlns="http://www.w3.org/2000/svg" xmlns:xlink="http://www.w3.org/1999/xlink" x="0px" y="0px"
	 viewBox="0 0 512 512" style="enable-background:new 0 0 512 512;" xml:space="preserve">
<g>
	<path style="fill:none;stroke:#000000;stroke-width:5;stroke-miterlimit:10;" d="M209.8,130.4l-10.1-0.2c-3.8,0-6.9-3.2-6.9-7
		l0.2-10.1c0-3.8,3.2-6.9,7-6.9l10.1,0.2c3.8,0,6.9,3.2,6.9,7l-0.2,10.1C216.8,127.4,213.6,130.4,209.8,130.4z"/>
	<path style="fill:none;stroke:#000000;stroke-width:5;stroke-miterlimit:10;" d="M242.8,130.8l-10.1-0.2c-3.8,0-6.9-3.2-6.9-7
		l0.2-10.1c0-3.8,3.2-6.9,7-6.9l10.1,0.2c3.8,0,6.9,3.2,6.9,7l-0.2,10.1C249.8,127.7,246.6,130.8,242.8,130.8z"/>
	<path style="fill:none;stroke:#000000;stroke-width:5;stroke-miterlimit:10;" d="M276.9,131.2l-10.1-0.2c-3.8,0-6.9-3.2-6.9-7
		l0.2-10.1c0-3.8,3.2-6.9,7-6.9l10.1,0.2c3.8,0,6.9,3.2,6.9,7l-0.2,10.1C283.9,128.1,280.7,131.2,276.9,131.2z"/>
	<path style="fill:none;stroke:#000000;stroke-width:5;stroke-miterlimit:10;" d="M311.9,131.6l-10.1-0.2c-3.8,0-6.9-3.2-6.9-7
		l0.2-10.1c0-3.8,3.2-6.9,7-6.9l10.1,0.2c3.8,0,6.9,3.2,6.9,7l-0.2,10.1C318.8,128.5,315.7,131.6,311.9,131.6z"/>
	<path style="fill:none;stroke:#000000;stroke-width:5;stroke-miterlimit:10;" d="M209.4,168.3l-10.1-0.2c-3.8,0-6.9-3.2-6.9-7
		l0.2-10.1c0-3.8,3.2-6.9,7-6.9l10.1,0.2c3.8,0,6.9,3.2,6.9,7l-0.2,10.1C216.3,165.3,213.2,168.3,209.4,168.3z"/>
	<path style="fill:none;stroke:#000000;stroke-width:5;stroke-miterlimit:10;" d="M242.4,168.7l-10.1-0.2c-3.8,0-6.9-3.2-6.9-7
		l0.2-10.1c0-3.8,3.2-6.9,7-6.9l10.1,0.2c3.8,0,6.9,3.2,6.9,7l-0.2,10.1C249.2,165.7,246.2,168.7,242.4,168.7z"/>
	<path style="fill:none;stroke:#000000;stroke-width:5;stroke-miterlimit:10;" d="M276.5,169.1l-10.1-0.2c-3.8,0-6.9-3.2-6.9-7
		l0.2-10.1c0-3.8,3.2-6.9,7-6.9l10.1,0.2c3.8,0,6.9,3.2,6.9,7l-0.2,10.1C283.3,166,280.3,169.1,276.5,169.1z"/>
	<path style="fill:none;stroke:#000000;stroke-width:5;stroke-miterlimit:10;" d="M311.4,169.5l-10.1-0.2c-3.8,0-6.9-3.2-6.9-7
		l0.2-10.1c0-3.8,3.2-6.9,7-6.9l10.1,0.2c3.8,0,6.9,3.2,6.9,7l-0.2,10.1C318.4,166.4,315.2,169.5,311.4,169.5z"/>
	<path style="fill:none;stroke:#000000;stroke-width:5;stroke-miterlimit:10;" d="M209,206.2l-10.1-0.2c-3.8,0-6.9-3.2-6.9-7
		l0.2-10.1c0-3.8,3.2-6.9,7-6.9l10.1,0.2c3.8,0,6.9,3.2,6.9,7l-0.2,10.1C215.9,203.2,212.8,206.4,209,206.2z"/>
	<path style="fill:none;stroke:#000000;stroke-width:5;stroke-miterlimit:10;" d="M242,206.6l-10.1-0.2c-3.8,0-6.9-3.2-6.9-7
		l0.2-10.1c0-3.8,3.2-6.9,7-6.9l10.1,0.2c3.8,0,6.9,3.2,6.9,7l-0.2,10.1C248.9,203.6,245.8,206.6,242,206.6z"/>
	<path style="fill:none;stroke:#000000;stroke-width:5;stroke-miterlimit:10;" d="M276.1,207l-10.1-0.2c-3.8,0-6.9-3.2-6.9-7
		l0.2-10.1c0-3.8,3.2-6.9,7-6.9l10.1,0.2c3.8,0,6.9,3.2,6.9,7l-0.2,10.1C283,204,279.9,207,276.1,207z"/>
	<path style="fill:none;stroke:#000000;stroke-width:5;stroke-miterlimit:10;" d="M311,207.4l-10.1-0.2c-3.8,0-6.9-3.2-6.9-7
		l0.2-10.1c0-3.8,3.2-6.9,7-6.9l10.1,0.2c3.8,0,6.9,3.2,6.9,7l-0.2,10.1C318,204.3,314.8,207.4,311,207.4z"/>
	<path style="fill:none;stroke:#000000;stroke-width:5;stroke-miterlimit:10;" d="M208.7,241.5l-10.1-0.2c-3.8,0-6.9-3.2-6.9-7
		l0.2-10.1c0-3.8,3.2-6.9,7-6.9l10.1,0.2c3.8,0,6.9,3.2,6.9,7l-0.2,10.1C215.5,238.6,212.5,241.7,208.7,241.5z"/>
	<path style="fill:none;stroke:#000000;stroke-width:5;stroke-miterlimit:10;" d="M241.6,241.9l-10.1-0.2c-3.8,0-6.9-3.2-6.9-7
		l0.2-10.1c0-3.8,3.2-6.9,7-6.9l10.1,0.2c3.8,0,6.9,3.2,6.9,7l-0.2,10.1C248.5,238.8,245.4,241.9,241.6,241.9z"/>
	<path style="fill:none;stroke:#000000;stroke-width:5;stroke-miterlimit:10;" d="M275.7,242.3l-10.1-0.2c-3.8,0-6.9-3.2-6.9-7
		l0.2-10.1c0-3.8,3.2-6.9,7-6.9l10.1,0.2c3.8,0,6.9,3.2,6.9,7l-0.2,10.1C282.6,239.2,279.5,242.3,275.7,242.3z"/>
	<path style="fill:none;stroke:#000000;stroke-width:5;stroke-miterlimit:10;" d="M310.6,242.6l-10.1-0.2c-3.8,0-6.9-3.2-6.9-7
		l0.2-10.1c0-3.8,3.2-6.9,7-6.9l10.1,0.2c3.8,0,6.9,3.2,6.9,7l-0.2,10.1C317.6,239.6,314.4,242.6,310.6,242.6z"/>
	<path style="fill:none;stroke:#000000;stroke-width:5;stroke-miterlimit:10;" d="M207.1,372.4l-10.1-0.2c-3.8,0-6.9-3.2-6.9-7
		l0.2-10.1c0-3.8,3.2-6.9,7-6.9l10.1,0.2c3.8,0,6.9,3.2,6.9,7l-0.2,10.1C214.2,369.3,210.9,372.4,207.1,372.4z"/>
	<path style="fill:none;stroke:#000000;stroke-width:5;stroke-miterlimit:10;" d="M240.1,372.8l-10.1-0.2c-3.8,0-6.9-3.2-6.9-7
		l0.2-10.1c0-3.8,3.2-6.9,7-6.9l10.1,0.2c3.8,0,6.9,3.2,6.9,7l-0.2,10.1C247.1,369.7,243.9,372.8,240.1,372.8z"/>
	<path style="fill:none;stroke:#000000;stroke-width:5;stroke-miterlimit:10;" d="M274.2,373.1l-10.1-0.2c-3.8,0-6.9-3.2-6.9-7
		l0.2-10.1c0-3.8,3.2-6.9,7-6.9l10.1,0.2c3.8,0,6.9,3.2,6.9,7l-0.2,10.1C281.2,370.1,278,373.1,274.2,373.1z"/>
	<path style="fill:none;stroke:#000000;stroke-width:5;stroke-miterlimit:10;" d="M309.3,373.5l-10.1-0.2c-3.8,0-6.9-3.2-6.9-7
		l0.2-10.1c0-3.8,3.2-6.9,7-6.9l10.1,0.2c3.8,0,6.9,3.2,6.9,7l-0.2,10.1C316.1,370.5,313.1,373.5,309.3,373.5z"/>
	
		<ellipse transform="matrix(0.1602 -0.9871 0.9871 0.1602 -76.355 498.7954)" style="fill:none;stroke:#000000;stroke-width:5;stroke-miterlimit:10;" cx="255" cy="294.3" rx="21" ry="21"/>
	<g>
		<path style="fill:none;stroke:#000000;stroke-width:5;stroke-miterlimit:10;" d="M250.6,267.6l0.2-17.5l0,0
			c-21.9-0.2-39.8,17.3-40.2,39.1l17.9,0.4C229.6,277.9,239,268.7,250.6,267.6z"/>
		<path style="fill:none;stroke:#000000;stroke-width:5;stroke-miterlimit:10;" d="M281.6,289.9l17.5,0.2l0,0
			c0.2-21.9-17.3-39.8-39.1-40.2l-0.4,17.9C271.3,268.9,280.5,278.3,281.6,289.9z"/>
		<path style="fill:none;stroke:#000000;stroke-width:5;stroke-miterlimit:10;" d="M281.6,299.8c-1.3,11.6-10.7,20.8-22.3,21.9
			l-0.2,17.5l0,0c21.9,0.2,39.8-17.3,40.2-39.1L281.6,299.8z"/>
		<path style="fill:none;stroke:#000000;stroke-width:5;stroke-miterlimit:10;" d="M228.3,298.6l-17.5-0.2l0,0
			c-0.2,21.9,17.3,39.8,39.1,40.2l0.4-17.9C238.8,319.6,229.6,310.3,228.3,298.6z"/>
	</g>
</g>
<g style="opacity:0;">
	<circle cx="259.8" cy="18.5" r="3.5"/>
	<circle cx="310.4" cy="19.1" r="3.5"/>
	<circle cx="347.7" cy="44.8" r="3.5"/>
	<circle cx="345.3" cy="95.5" r="3.5"/>
	<circle cx="342.3" cy="146" r="3.5"/>
	<circle cx="339.3" cy="196.5" r="3.5"/>
	<circle cx="336.3" cy="247" r="3.5"/>
	<circle cx="333.3" cy="297.5" r="3.5"/>
	<circle cx="330.3" cy="348" r="3.5"/>
	<circle cx="327.2" cy="398.5" r="3.5"/>
	<circle cx="324.2" cy="449" r="3.5"/>
	<circle cx="305.7" cy="492.4" r="3.5"/>
	<circle cx="255.4" cy="494.7" r="3.5"/>
	<circle cx="204.7" cy="493.8" r="3.5"/>
	<circle cx="179.9" cy="455.4" r="3.5"/>
	<circle cx="178" cy="404.8" r="3.5"/>
	<circle cx="176.1" cy="354.3" r="3.5"/>
	<circle cx="174.2" cy="303.7" r="3.5"/>
	<circle cx="172.3" cy="253.1" r="3.5"/>
	<circle cx="170.4" cy="202.6" r="3.5"/>
	<circle cx="168.5" cy="152" r="3.5"/>
	<circle cx="166.6" cy="101.5" r="3.5"/>
	<circle cx="164.7" cy="50.9" r="3.5"/>
	<circle cx="194.9" cy="17.8" r="3.5"/>
</g>
</svg>
