<?xml version="1.0" encoding="utf-8"?>
<!-- Generator: Adobe Illustrator 22.1.0, SVG Export Plug-In . SVG Version: 6.00 Build 0)  -->
<svg version="1.1" id="Layer_1" xmlns="http://www.w3.org/2000/svg" xmlns:xlink="http://www.w3.org/1999/xlink" x="0px" y="0px"
	 viewBox="0 0 512 512" style="enable-background:new 0 0 512 512;" xml:space="preserve">
<g>
	<path id="XMLID_186_" style="fill:none;stroke:#000000;stroke-width:5;stroke-miterlimit:10;" d="M287,470c0,6-4.9,11.1-11.1,11.1
		l-45.2,0.2c-6,0-11.1-4.9-11.1-11.1l0,0c0-6,4.9-11.1,11.1-11.1l45.2-0.2C282.1,458.9,287,463.9,287,470L287,470z"/>
	<path id="XMLID_187_" style="fill:none;stroke:#000000;stroke-width:5;stroke-miterlimit:10;" d="M415.9,418.5
		c0,16.6-13.2,30-29.8,30L123,448.9c-16.4,0-29.8-13.2-29.8-29.8l-1-353.3c0-16.6,13.2-30,29.8-30l263.1-0.4
		c16.4,0,29.8,13.2,29.8,29.8L415.9,418.5z"/>
	
		<rect id="XMLID_185_" x="153.8" y="400.4" transform="matrix(1 -2.184485e-03 2.184485e-03 1 -0.9054 0.3756)" style="fill:none;stroke:#000000;stroke-width:5;stroke-miterlimit:10;" width="35.4" height="28.4"/>
	
		<rect id="XMLID_184_" x="211" y="400.2" transform="matrix(1 -2.184485e-03 2.184485e-03 1 -0.9048 0.5007)" style="fill:none;stroke:#000000;stroke-width:5;stroke-miterlimit:10;" width="35.4" height="28.4"/>
	
		<rect id="XMLID_183_" x="271" y="400.2" transform="matrix(1 -2.184485e-03 2.184485e-03 1 -0.9047 0.6317)" style="fill:none;stroke:#000000;stroke-width:5;stroke-miterlimit:10;" width="35.4" height="28.4"/>
	
		<rect id="XMLID_182_" x="329.8" y="400" transform="matrix(1 -2.184485e-03 2.184485e-03 1 -0.9041 0.7602)" style="fill:none;stroke:#000000;stroke-width:5;stroke-miterlimit:10;" width="35.4" height="28.4"/>
</g>
<g style="opacity:0;">
	<circle cx="240" cy="15.5" r="3.5"/>
	<circle cx="176.3" cy="15.5" r="3.5"/>
	<circle cx="112.5" cy="15.5" r="3.5"/>
	<circle cx="90.5" cy="18.5" r="3.5"/>
	<circle cx="76.5" cy="31.5" r="3.5"/>
	<circle cx="73.5" cy="47.5" r="3.5"/>
	<circle cx="73.5" cy="98.5" r="3.5"/>
	<circle cx="73.5" cy="149.5" r="3.5"/>
	<circle cx="73.5" cy="200.5" r="3.5"/>
	<circle cx="73.5" cy="251.5" r="3.5"/>
	<circle cx="73.5" cy="302.5" r="3.5"/>
	<circle cx="73.5" cy="353.5" r="3.5"/>
	<circle cx="73.5" cy="404.5" r="3.5"/>
	<circle cx="73.5" cy="455.5" r="3.5"/>
	<circle cx="77.5" cy="475.5" r="3.5"/>
	<circle cx="88.5" cy="490.5" r="3.5"/>
	<circle cx="108.5" cy="498.5" r="3.5"/>
	<circle cx="152.5" cy="498.5" r="3.5"/>
	<circle cx="196.5" cy="498.5" r="3.5"/>
	<circle cx="240.5" cy="498.5" r="3.5"/>
	<circle cx="284.5" cy="498.5" r="3.5"/>
	<circle cx="328.5" cy="498.5" r="3.5"/>
	<circle cx="372.5" cy="498.5" r="3.5"/>
	<circle cx="412.5" cy="496.5" r="3.5"/>
	<circle cx="428.5" cy="486.5" r="3.5"/>
	<circle cx="437.5" cy="468.5" r="3.5"/>
	<circle cx="437.5" cy="425.5" r="3.5"/>
	<circle cx="437.5" cy="382.5" r="3.5"/>
	<circle cx="437.5" cy="339.5" r="3.5"/>
	<circle cx="437.5" cy="296.5" r="3.5"/>
	<circle cx="437.5" cy="253.5" r="3.5"/>
	<circle cx="437.5" cy="210.5" r="3.5"/>
	<circle cx="437.5" cy="167.5" r="3.5"/>
	<circle cx="437.5" cy="124.5" r="3.5"/>
	<circle cx="437.5" cy="81.5" r="3.5"/>
	<circle cx="438.5" cy="48.5" r="3.5"/>
	<circle cx="433.5" cy="31.5" r="3.5"/>
	<circle cx="421.5" cy="19.5" r="3.5"/>
	<circle cx="405.5" cy="14.5" r="3.5"/>
	<circle cx="367.5" cy="14.5" r="3.5"/>
	<circle cx="303.8" cy="14.5" r="3.5"/>
</g>
</svg>
