<?xml version="1.0" encoding="utf-8"?>
<!-- Generator: Adobe Illustrator 22.1.0, SVG Export Plug-In . SVG Version: 6.00 Build 0)  -->
<svg version="1.1" id="Layer_1" xmlns="http://www.w3.org/2000/svg" xmlns:xlink="http://www.w3.org/1999/xlink" x="0px" y="0px"
	 viewBox="0 0 512 512" style="enable-background:new 0 0 512 512;" xml:space="preserve">
<g>
	<g>
		
			<line style="fill:none;stroke:#000000;stroke-width:5;stroke-linecap:round;stroke-linejoin:round;stroke-miterlimit:10;" x1="488.5" y1="23.5" x2="496" y2="16"/>
		
			<line style="fill:none;stroke:#000000;stroke-width:5;stroke-linecap:round;stroke-linejoin:round;stroke-miterlimit:10;" x1="498.5" y1="32.5" x2="506" y2="25"/>
	</g>
	
		<line style="fill:none;stroke:#000000;stroke-width:5;stroke-linecap:round;stroke-linejoin:round;stroke-miterlimit:10;" x1="37.5" y1="497.5" x2="30" y2="505"/>
	
		<line style="fill:none;stroke:#000000;stroke-width:5;stroke-linecap:round;stroke-linejoin:round;stroke-miterlimit:10;" x1="26.5" y1="487.5" x2="19" y2="495"/>
</g>
<g style="opacity:0;">
	<circle cx="503.3" cy="39.6" r="3.5"/>
	<circle cx="460.5" cy="82.5" r="3.5"/>
	<circle cx="417.7" cy="125.5" r="3.5"/>
	<circle cx="374.9" cy="168.4" r="3.5"/>
	<circle cx="332.1" cy="211.4" r="3.5"/>
	<circle cx="289.3" cy="254.3" r="3.5"/>
	<circle cx="246.5" cy="297.2" r="3.5"/>
	<circle cx="203.7" cy="340.2" r="3.5"/>
	<circle cx="160.9" cy="383.1" r="3.5"/>
	<circle cx="118.1" cy="426.1" r="3.5"/>
	<circle cx="75.3" cy="469" r="3.5"/>
	<circle cx="42.4" cy="501.1" r="3.5"/>
	<circle cx="23.4" cy="482.1" r="3.5"/>
	<circle cx="55.4" cy="449.2" r="3.5"/>
	<circle cx="98.2" cy="406.2" r="3.5"/>
	<circle cx="141" cy="363.2" r="3.5"/>
	<circle cx="183.8" cy="320.3" r="3.5"/>
	<circle cx="226.5" cy="277.3" r="3.5"/>
	<circle cx="269.3" cy="234.3" r="3.5"/>
	<circle cx="312.1" cy="191.4" r="3.5"/>
	<circle cx="354.9" cy="148.4" r="3.5"/>
	<circle cx="397.7" cy="105.5" r="3.5"/>
	<circle cx="440.5" cy="62.5" r="3.5"/>
	<circle cx="483.3" cy="19.5" r="3.5"/>
</g>
</svg>
