<?xml version="1.0" encoding="utf-8"?>
<!-- Generator: Adobe Illustrator 22.1.0, SVG Export Plug-In . SVG Version: 6.00 Build 0)  -->
<svg version="1.1" id="Layer_1" xmlns="http://www.w3.org/2000/svg" xmlns:xlink="http://www.w3.org/1999/xlink" x="0px" y="0px"
	 viewBox="0 0 512 512" style="enable-background:new 0 0 512 512;" xml:space="preserve">
<g>
	<circle cx="27.1" cy="125.8" r="3.5"/>
	<circle cx="27.1" cy="155.1" r="3.5"/>
	<circle cx="27.1" cy="190.9" r="3.5"/>
	<circle cx="27.1" cy="232.9" r="3.5"/>
	<circle cx="27.1" cy="271.9" r="3.5"/>
	<circle cx="27.1" cy="314.9" r="3.5"/>
	<circle cx="27.1" cy="362.2" r="3.5"/>
	<circle cx="48.2" cy="362.2" r="3.5"/>
	<circle cx="48.2" cy="337.9" r="3.5"/>
	<circle cx="58.4" cy="313.9" r="3.5"/>
	<circle cx="91.8" cy="301.6" r="3.5"/>
	<circle cx="128.7" cy="306.7" r="3.5"/>
	<circle cx="151.6" cy="332.8" r="3.5"/>
	<circle cx="154.7" cy="364.1" r="3.5"/>
	<circle cx="203.9" cy="364.1" r="3.5"/>
	<circle cx="256.2" cy="364.1" r="3.5"/>
	<circle cx="317.2" cy="364.1" r="3.5"/>
	<circle cx="361.9" cy="364.1" r="3.5"/>
	<circle cx="366.8" cy="329.9" r="3.5"/>
	<circle cx="389.1" cy="306.1" r="3.5"/>
	<circle cx="426" cy="301" r="3.5"/>
	<circle cx="459" cy="315.9" r="3.5"/>
	<circle cx="475.4" cy="340.5" r="3.5"/>
	<circle cx="475.4" cy="362.2" r="3.5"/>
	<circle cx="495.9" cy="362.2" r="3.5"/>
	<circle cx="497.3" cy="325.2" r="3.5"/>
	<circle cx="495.9" cy="293.4" r="3.5"/>
	<circle cx="483.8" cy="275" r="3.5"/>
	<circle cx="465.2" cy="262.7" r="3.5"/>
	<circle cx="441.6" cy="257.5" r="3.5"/>
	<circle cx="424.6" cy="214.5" r="3.5"/>
	<circle cx="404.7" cy="179.7" r="3.5"/>
	<circle cx="363.7" cy="183.2" r="3.5"/>
	<circle cx="322.2" cy="183.2" r="3.5"/>
	<circle cx="320.7" cy="125.8" r="3.5"/>
	<circle cx="281.8" cy="125.8" r="3.5"/>
	<circle cx="250" cy="125.8" r="3.5"/>
	<circle cx="211.5" cy="125.8" r="3.5"/>
	<circle cx="163.3" cy="125.8" r="3.5"/>
	<circle cx="116.8" cy="125.8" r="3.5"/>
	<circle cx="70.1" cy="125.8" r="3.5"/>
</g>
</svg>
