<?xml version="1.0" encoding="utf-8"?>
<!-- Generator: Adobe Illustrator 22.1.0, SVG Export Plug-In . SVG Version: 6.00 Build 0)  -->
<svg version="1.1" id="Layer_1" xmlns="http://www.w3.org/2000/svg" xmlns:xlink="http://www.w3.org/1999/xlink" x="0px" y="0px"
	 viewBox="0 0 512 512" style="enable-background:new 0 0 512 512;" xml:space="preserve">
<g>
	<g>
		<path d="M194.7,267.2h-43.1c-1.4,0-2.5-1.1-2.5-2.5v-29.3h-28.2c-1.4,0-2.5-1.1-2.5-2.5v-43c0-1.4,1.1-2.5,2.5-2.5h28.2v-29.3
			c0-1.4,1.1-2.5,2.5-2.5h43.1c1.4,0,2.5,1.1,2.5,2.5v29.3h28.2c1.4,0,2.5,1.1,2.5,2.5v43c0,1.4-1.1,2.5-2.5,2.5h-28.2v29.3
			C197.2,266.1,196.1,267.2,194.7,267.2z M154.1,262.2h38.1v-29.3c0-1.4,1.1-2.5,2.5-2.5h28.2v-38h-28.2c-1.4,0-2.5-1.1-2.5-2.5
			v-29.3h-38.1v29.3c0,1.4-1.1,2.5-2.5,2.5h-28.2v38h28.2c1.4,0,2.5,1.1,2.5,2.5V262.2z"/>
	</g>
	<g>
		<path d="M379.1,178.1c-1.2,0-2.3-0.9-2.5-2.1l-5.8-38.9h-18.2l-3.9,38.7c-0.1,1.4-1.4,2.4-2.7,2.2c-1.4-0.1-2.4-1.4-2.2-2.7
			l4.1-41c0.1-1.3,1.2-2.3,2.5-2.3H373c1.2,0,2.3,0.9,2.5,2.1l6.1,41c0.2,1.4-0.7,2.6-2.1,2.8C379.3,178.1,379.2,178.1,379.1,178.1z
			"/>
	</g>
	<g>
		<path d="M416,262.1h-75.8c-1.4,0-2.5-1.1-2.5-2.5v-59.4c0-1.4,1.1-2.5,2.5-2.5h53.3c1,0,2,0.6,2.3,1.6l22.5,59.4
			c0.3,0.8,0.2,1.6-0.3,2.3S416.8,262.1,416,262.1z M342.7,257.1h69.7l-20.6-54.4h-49.1V257.1z"/>
	</g>
	<g>
		<path d="M98.4,405.5c-22.8,0-41.4-18.6-41.4-41.4s18.6-41.4,41.4-41.4s41.4,18.6,41.4,41.4S121.2,405.5,98.4,405.5z M98.4,327.7
			C78.3,327.7,62,344,62,364.1c0,20.1,16.3,36.4,36.4,36.4s36.4-16.3,36.4-36.4C134.8,344,118.5,327.7,98.4,327.7z"/>
	</g>
	<g>
		<path d="M420.1,405.5c-22.8,0-41.4-18.6-41.4-41.4s18.6-41.4,41.4-41.4s41.4,18.6,41.4,41.4S442.9,405.5,420.1,405.5z
			 M420.1,327.7c-20.1,0-36.4,16.3-36.4,36.4c0,20.1,16.3,36.4,36.4,36.4c20.1,0,36.4-16.3,36.4-36.4
			C456.5,344,440.2,327.7,420.1,327.7z"/>
	</g>
</g>
</svg>
