<?xml version="1.0" encoding="utf-8"?>
<!-- Generator: Adobe Illustrator 22.1.0, SVG Export Plug-In . SVG Version: 6.00 Build 0)  -->
<svg version="1.1" id="Layer_1" xmlns="http://www.w3.org/2000/svg" xmlns:xlink="http://www.w3.org/1999/xlink" x="0px" y="0px"
	 viewBox="0 0 512 512" style="enable-background:new 0 0 512 512;" xml:space="preserve">
<g>
	<circle cx="57.8" cy="55.1" r="3.5"/>
	<circle cx="31.4" cy="77.6" r="3.5"/>
	<circle cx="17" cy="102.7" r="3.5"/>
	<circle cx="15.6" cy="140.6" r="3.5"/>
	<circle cx="15.6" cy="183.3" r="3.5"/>
	<circle cx="14.6" cy="239.5" r="3.5"/>
	<circle cx="14.6" cy="298.7" r="3.5"/>
	<circle cx="13.5" cy="342.2" r="3.5"/>
	<circle cx="11.5" cy="393.5" r="3.5"/>
	<circle cx="29.3" cy="392.8" r="3.5"/>
	<circle cx="36.8" cy="349.6" r="3.5"/>
	<circle cx="73.9" cy="325.5" r="3.5"/>
	<circle cx="120.5" cy="327.1" r="3.5"/>
	<circle cx="144.6" cy="347.9" r="3.5"/>
	<circle cx="157" cy="373.3" r="3.5"/>
	<circle cx="158" cy="393.5" r="3.5"/>
	<circle cx="202.3" cy="394.9" r="3.5"/>
	<circle cx="245.4" cy="394.9" r="3.5"/>
	<circle cx="292.8" cy="394.9" r="3.5"/>
	<circle cx="335.5" cy="394.9" r="3.5"/>
	<circle cx="376.5" cy="394.9" r="3.5"/>
	<circle cx="389.9" cy="361.7" r="3.5"/>
	<circle cx="422" cy="340.5" r="3.5"/>
	<circle cx="457" cy="332.3" r="3.5"/>
	<circle cx="496.8" cy="340.5" r="3.5"/>
	<circle cx="488.9" cy="323.8" r="3.5"/>
	<circle cx="474.5" cy="312.7" r="3.5"/>
	<circle cx="457" cy="305.3" r="3.5"/>
	<circle cx="466.9" cy="274.4" r="3.5"/>
	<circle cx="476.2" cy="249" r="3.5"/>
	<circle cx="476.2" cy="216.5" r="3.5"/>
	<circle cx="467.5" cy="197.3" r="3.5"/>
	<circle cx="455.9" cy="170.3" r="3.5"/>
	<circle cx="445.7" cy="147.8" r="3.5"/>
	<circle cx="432.1" cy="124.3" r="3.5"/>
	<circle cx="418.7" cy="92.7" r="3.5"/>
	<circle cx="403.6" cy="70.6" r="3.5"/>
	<circle cx="386.9" cy="54.3" r="3.5"/>
	<circle cx="357.3" cy="49.1" r="3.5"/>
	<circle cx="321.7" cy="49.1" r="3.5"/>
	<circle cx="290.9" cy="49.1" r="3.5"/>
	<ellipse transform="matrix(0.1602 -0.9871 0.9871 0.1602 163.3377 293.5804)" cx="254.2" cy="50.8" rx="3.5" ry="3.5"/>
	<circle cx="216" cy="50" r="3.5"/>
	<circle cx="176" cy="47.3" r="3.5"/>
	<circle cx="138.5" cy="49.1" r="3.5"/>
	<circle cx="108.7" cy="49.1" r="3.5"/>
	<circle cx="83.3" cy="49.1" r="3.5"/>
</g>
</svg>
