<?xml version="1.0" encoding="utf-8"?>
<!-- Generator: Adobe Illustrator 22.1.0, SVG Export Plug-In . SVG Version: 6.00 Build 0)  -->
<svg version="1.1" id="Layer_1" xmlns="http://www.w3.org/2000/svg" xmlns:xlink="http://www.w3.org/1999/xlink" x="0px" y="0px"
	 viewBox="0 0 512 512" style="enable-background:new 0 0 512 512;" xml:space="preserve">
<g>
	<g>
		<path d="M266.2,269.6c-1.4,0-2.5-1.1-2.5-2.5V108.3c0-1.4,1.1-2.5,2.5-2.5s2.5,1.1,2.5,2.5v158.8
			C268.7,268.5,267.6,269.6,266.2,269.6z"/>
	</g>
	<g>
		<path d="M260.2,308.6h-95.8c-1.4,0-2.5-1.1-2.5-2.5s1.1-2.5,2.5-2.5h95.8c1.4,0,2.5,1.1,2.5,2.5S261.6,308.6,260.2,308.6z"/>
	</g>
	<g>
		<path d="M377.3,359.7h-29.9c-1.4,0-2.5-1.1-2.5-2.5v-62.6c0-1.4,1.1-2.5,2.5-2.5h19.1c0.5-11.1-3.1-17.9-11.9-22.4h-7.2l-69.2,0.2
			h-15v87.3c0,1.4-1.1,2.5-2.5,2.5h-96.2c-1.4,0-2.5-1.1-2.5-2.5v-50.6c-0.7-2.6-7.1-25.7-27.9-33.9H14.6c-1.4,0-2.5-1.1-2.5-2.5
			s1.1-2.5,2.5-2.5h120c0.3,0,0.6,0.1,0.9,0.2c24.9,9.5,31.2,36.7,31.5,37.9c0,0.2,0.1,0.4,0.1,0.5v48.4h91.2v-87.3
			c0-1.4,1.1-2.5,2.5-2.5h17.5l69.2-0.2h7.8c0.4,0,0.8,0.1,1.1,0.3c15.1,7.4,15.8,20.6,15,29.9c-0.1,1.3-1.2,2.3-2.5,2.3h-18.9v57.6
			H375l8.9-120.5c0.1-1.3,1.2-2.3,2.5-2.3h89.8c1.4,0,2.5,1.1,2.5,2.5s-1.1,2.5-2.5,2.5h-87.5l-8.9,120.5
			C379.7,358.7,378.6,359.7,377.3,359.7z"/>
	</g>
	<g>
		<path d="M452.8,449c-29.1,0-52.8-23.7-52.8-52.8c0-2.1,0.2-4.3,0.4-6.6c0-0.3,0.1-0.7,0.3-0.9c9.8-18.2,24.7-31.1,44.3-38.1
			c6.9-2.6,16.1-3.7,27.4-3.2c0.3,0,0.6,0.1,0.9,0.2c19.5,8.1,32.2,27.3,32.4,48.7C505.6,425.3,481.9,449,452.8,449z M405.3,390.5
			c-0.2,2-0.3,3.9-0.3,5.7c0,26.4,21.4,47.8,47.8,47.8s47.8-21.4,47.8-47.8c-0.2-19.3-11.5-36.5-29-43.9c-10.3-0.4-18.7,0.6-25,3
			C428.4,361.8,414.5,373.7,405.3,390.5z"/>
	</g>
	<g>
		<path d="M134.3,272.7H11.5c-1.4,0-2.5-1.1-2.5-2.5s1.1-2.5,2.5-2.5h120.2l-2.4-99c-0.4-14.2,4.5-28.2,13.8-39.4
			c10.5-12.9,26.4-20.7,43.6-21.3l184.2-5.4c1.3,0,2.4,0.9,2.6,2.2l14.7,126.6H476c1.4,0,2.5,1.1,2.5,2.5s-1.1,2.5-2.5,2.5h-90
			c-1.3,0-2.3-1-2.5-2.2l-14.7-126.5L186.9,113c-15.7,0.6-30.3,7.7-39.9,19.5c-8.5,10.3-13,23.1-12.6,36l2.5,101.6
			c0,0.7-0.2,1.3-0.7,1.8C135.6,272.4,135,272.7,134.3,272.7z"/>
	</g>
	<g>
		<path d="M412.4,215.4c-16.3,0-21.7-16-24.9-31.7c-3.9-18.1-4.3-43.6-1-63.3c3.4-20.9,21.8-19,22-19c0.8,0.1,1.6,0.6,2,1.4
			c0.4,0.8,39.2,80.9,46.8,94.2c3.7,6.5,4.7,11.3,3,14.7c-1.5,3.1-4.5,3.5-4.9,3.6c-0.1,0-0.2,0-0.4,0c-0.3,0-28.7-0.4-41.9,0
			C412.9,215.4,412.7,215.4,412.4,215.4z M406.6,106.3c-3.5,0.1-12.9,1.5-15.1,14.9c-3.2,19.2-2.8,43.9,1,61.5
			c4,20,10,28.1,20.6,27.7c12.6-0.4,38.9,0,41.8,0c0.2-0.1,0.7-0.3,1-0.9c0.4-0.8,0.9-3.5-2.9-10
			C445.6,186.8,411.9,117.3,406.6,106.3z"/>
	</g>
	<g>
		<path d="M90.2,448.7c-29.1,0-52.8-23.7-52.8-52.8s23.7-52.8,52.8-52.8c29.1,0,52.8,23.7,52.8,52.8S119.3,448.7,90.2,448.7z
			 M90.2,348.1c-26.4,0-47.8,21.4-47.8,47.8c0,26.4,21.4,47.8,47.8,47.8c26.4,0,47.8-21.4,47.8-47.8
			C138,369.5,116.6,348.1,90.2,348.1z"/>
	</g>
</g>
</svg>
