<?xml version="1.0" encoding="utf-8"?>
<!-- Generator: Adobe Illustrator 22.1.0, SVG Export Plug-In . SVG Version: 6.00 Build 0)  -->
<svg version="1.1" id="Layer_2_1_" xmlns="http://www.w3.org/2000/svg" xmlns:xlink="http://www.w3.org/1999/xlink" x="0px" y="0px"
	 viewBox="0 0 512 512" style="enable-background:new 0 0 512 512;" xml:space="preserve">
<g>
	<g>
		<path d="M105.5,378C56.7,378,17,338.3,17,289.5S56.7,201,105.5,201s88.5,39.7,88.5,88.5S154.3,378,105.5,378z M105.5,206
			c-46,0-83.5,37.5-83.5,83.5S59.5,373,105.5,373s83.5-37.5,83.5-83.5S151.5,206,105.5,206z"/>
	</g>
	<g>
		<path d="M403.5,376c-48.8,0-88.5-39.7-88.5-88.5s39.7-88.5,88.5-88.5s88.5,39.7,88.5,88.5S452.3,376,403.5,376z M403.5,204
			c-46,0-83.5,37.5-83.5,83.5s37.5,83.5,83.5,83.5s83.5-37.5,83.5-83.5S449.5,204,403.5,204z"/>
	</g>
	<g>
		<path d="M403.5,290c-1,0-1.9-0.6-2.3-1.5l-65-157c-0.5-1.3,0.1-2.7,1.4-3.3c1.3-0.5,2.7,0.1,3.3,1.4l65,157
			c0.5,1.3-0.1,2.7-1.4,3.3C404.1,289.9,403.8,290,403.5,290z"/>
	</g>
	<g>
		<path d="M344.5,139c-0.9,0-1.8-0.1-2.6-0.4c-2.5-0.8-4.6-2.6-5.7-5c-1.7-4.1-0.2-8.7,3.5-11l14.4-9.2c2.2-1.4,4.8-1.8,7.3-1.1
			c2.4,0.7,4.5,2.3,5.6,4.6c0.1,0.1,0.1,0.2,0.1,0.3l0,0.1c2,4.1,0.5,9-3.4,11.5l-14.5,8.9C347.8,138.5,346.2,139,344.5,139z
			 M358.9,116.9c-0.8,0-1.5,0.2-2.2,0.7l-14.4,9.2c-1.7,1-2.3,3-1.5,4.8c0.5,1,1.4,1.9,2.6,2.2c1.1,0.3,2.2,0.2,3.2-0.4l14.5-8.9
			c1.8-1.1,2.4-3.3,1.5-5.2c-0.1-0.1-0.1-0.2-0.1-0.3l0-0.1c-0.5-0.9-1.3-1.6-2.4-1.9C359.7,116.9,359.3,116.9,358.9,116.9z"/>
	</g>
	<g>
		<path d="M239.5,315c-1,0-2-0.6-2.4-1.7C195.2,196.3,174,136.1,174,134.5c0-1.4,1.1-2.5,2.5-2.5c1.2,0,2.3,0.9,2.5,2.1
			c1.4,5.5,45.8,129.9,62.9,177.5c0.5,1.3-0.2,2.7-1.5,3.2C240.1,315,239.8,315,239.5,315z M179,134.5
			C179,134.5,179,134.5,179,134.5C179,134.5,179,134.5,179,134.5z M179,134.5C179,134.5,179,134.5,179,134.5
			C179,134.5,179,134.5,179,134.5z"/>
	</g>
	<g>
		<path d="M239.5,341c-15.7,0-28.5-12.8-28.5-28.5s12.8-28.5,28.5-28.5s28.5,12.8,28.5,28.5S255.2,341,239.5,341z M239.5,289
			c-13,0-23.5,10.5-23.5,23.5s10.5,23.5,23.5,23.5s23.5-10.5,23.5-23.5S252.5,289,239.5,289z"/>
	</g>
	<g>
		<path d="M207.4,336.2c-0.8,0-1.7-0.4-2.1-1.2c-0.7-1.2-0.3-2.7,0.9-3.4l32.2-19.3c1.2-0.7,2.7-0.3,3.4,0.9
			c0.7,1.2,0.3,2.7-0.9,3.4l-32.2,19.3C208.3,336.1,207.8,336.2,207.4,336.2z"/>
	</g>
	<g>
		<path d="M215.4,343.8c-0.6,0-1.2-0.2-1.7-0.6c-4.9-4.4-16.4-14.8-17.6-17.9c-0.5-1.3,0.1-2.7,1.4-3.3c1.3-0.5,2.7,0.1,3.3,1.3
			c0.9,1.7,9.2,9.7,16.4,16.1c1,0.9,1.1,2.5,0.2,3.5C216.8,343.5,216.1,343.8,215.4,343.8z"/>
	</g>
	<g>
		<path d="M239.6,316.9c-0.9,0-1.7-0.4-2.1-1.2c-0.7-1.2-0.3-2.7,0.9-3.4l31.3-18.7c1.2-0.7,2.7-0.3,3.4,0.9
			c0.7,1.2,0.3,2.7-0.9,3.4l-31.3,18.7C240.5,316.8,240,316.9,239.6,316.9z"/>
	</g>
	<g>
		<path d="M277.4,305.8c-0.8,0-1.5-0.3-2-1c-3.8-5.1-11-13.8-14.2-15.4c-1.2-0.6-1.7-2.1-1.1-3.4c0.6-1.2,2.1-1.7,3.4-1.1
			c5.2,2.7,14.8,15.4,15.8,16.8c0.8,1.1,0.6,2.7-0.5,3.5C278.5,305.6,277.9,305.8,277.4,305.8z"/>
	</g>
	<g>
		<path d="M157.5,137c-1.3,0-2.4-1-2.5-2.3c-0.1-1.4,0.9-2.6,2.3-2.7l49-4c1.4-0.1,2.6,0.9,2.7,2.3c0.1,1.4-0.9,2.6-2.3,2.7l-49,4
			C157.6,137,157.6,137,157.5,137z"/>
	</g>
</g>
</svg>
