<?xml version="1.0" encoding="utf-8"?>
<!-- Generator: Adobe Illustrator 22.1.0, SVG Export Plug-In . SVG Version: 6.00 Build 0)  -->
<svg version="1.1" id="Layer_1" xmlns="http://www.w3.org/2000/svg" xmlns:xlink="http://www.w3.org/1999/xlink" x="0px" y="0px"
	 viewBox="0 0 512 512" style="enable-background:new 0 0 512 512;" xml:space="preserve">
<g>
	<g>
		<path d="M80.4,385.5c-38.2,0-69.3-31.1-69.3-69.3s31.1-69.3,69.3-69.3c38.2,0,69.3,31.1,69.3,69.3S118.6,385.5,80.4,385.5z
			 M80.4,251.9c-35.5,0-64.3,28.8-64.3,64.3s28.8,64.3,64.3,64.3s64.3-28.8,64.3-64.3S115.9,251.9,80.4,251.9z"/>
	</g>
	<g>
		<path d="M421.8,385.5c-38.2,0-69.3-31.1-69.3-69.3s31.1-69.3,69.3-69.3s69.3,31.1,69.3,69.3S460,385.5,421.8,385.5z M421.8,251.9
			c-35.5,0-64.3,28.8-64.3,64.3s28.8,64.3,64.3,64.3s64.3-28.8,64.3-64.3S457.3,251.9,421.8,251.9z"/>
	</g>
	<g>
		<path d="M40.6,257.9c-0.5,0-1-0.1-1.4-0.4c-1.1-0.8-1.5-2.3-0.7-3.5c11.2-16.8,43.3-22.9,61.5-25c1.4-0.2,2.6,0.8,2.8,2.2
			c0.2,1.4-0.8,2.6-2.2,2.8c-17.3,2-47.8,7.7-57.9,22.8C42.2,257.5,41.4,257.9,40.6,257.9z"/>
	</g>
	<g>
		<path d="M321.9,219.7c-0.4,0-0.7-0.1-1.1-0.2c-4.9-2.3-10.4-7.5-14.2-11.6c-0.3-0.4-0.6-0.8-0.6-1.3l-3.2-17.7
			c-0.2-1.4,0.7-2.7,2-2.9c1.3-0.2,2.7,0.7,2.9,2l3.1,17c4.3,4.5,8.3,7.9,11.3,9.5l66.7-18.8l5.4-9.4c0.3-0.5,0.8-0.9,1.4-1.1
			l54.2-17.5l7.2-9.9c0.8-1.1,2.4-1.4,3.5-0.6c1.1,0.8,1.4,2.4,0.6,3.5l-7.7,10.6c-0.3,0.4-0.8,0.7-1.3,0.9l-54.1,17.4l-5.4,9.5
			c-0.3,0.6-0.9,1-1.5,1.2l-68.6,19.3C322.4,219.7,322.1,219.7,321.9,219.7z"/>
	</g>
	<g>
		<path d="M170.6,167.5c-1.5,0-3.5-0.5-5.7-2.3l-17.4-8.2c-0.4-0.2-0.7-0.5-1-0.9c-1.2-1.7-2.5-5.5-0.4-9.1c0.4-1.8,2.8-4.4,7.6-3.9
			c0.2,0,0.5,0.1,0.7,0.2l15.3,6.4c1.4,0.2,5.8,1.1,8,4.5c0.9,1.4,1.8,3.7,0.8,7c0,0.1-0.1,0.2-0.1,0.3c-0.2,0.5-2.2,4.9-6.4,5.8
			C171.7,167.4,171.2,167.5,170.6,167.5z M150.4,152.9l17,8c0.2,0.1,0.4,0.2,0.6,0.4c1.2,1,2.2,1.5,3.1,1.3c1.4-0.3,2.5-2.2,2.8-2.8
			c0.4-1.6,0-2.4-0.2-2.6c-1-1.6-3.9-2.2-4.8-2.3c-0.2,0-0.5-0.1-0.7-0.2l-15.2-6.3c-1-0.1-1.6,0.2-1.9,0.3
			c-0.1,0.3-0.2,0.6-0.4,0.9C149.7,150.7,150.1,152.1,150.4,152.9z"/>
	</g>
	<g>
		<path d="M299,261.6c-0.4,0-0.9-0.1-1.3-0.3c0,0-2.4-1.4-6.4-3.4c-11.7-6.5-33.5-21-41.8-34.4c0,0-0.1-0.1-0.1-0.1
			c-0.2-0.2-0.4-0.5-0.6-0.7c-0.2-0.4-0.4-0.8-0.6-1.4c-2-3-24.4-34-70.2-39.9c-1.4-0.2-2.3-1.4-2.2-2.8c0.2-1.4,1.4-2.3,2.8-2.2
			c50.2,6.4,72.9,40.9,73.9,42.3c0.1,0.2,0.2,0.4,0.3,0.6c0.1,0.2,0.1,0.4,0.2,0.6c0.1,0.1,0.2,0.2,0.3,0.4c0.1,0.1,0.2,0.2,0.3,0.3
			c7.7,12.5,29.6,27,40.1,32.8c4,2.1,6.4,3.5,6.5,3.5c1.2,0.7,1.6,2.2,0.9,3.4C300.7,261.2,299.9,261.6,299,261.6z M251.1,224
			C251.1,224,251.1,224,251.1,224C251.1,224,251.1,224,251.1,224z M251.1,224C251.1,224,251.1,224,251.1,224
			C251.1,224,251.1,224,251.1,224z"/>
	</g>
</g>
</svg>
