<?xml version="1.0" encoding="utf-8"?>
<!-- Generator: Adobe Illustrator 22.1.0, SVG Export Plug-In . SVG Version: 6.00 Build 0)  -->
<svg version="1.1" id="Layer_1" xmlns="http://www.w3.org/2000/svg" xmlns:xlink="http://www.w3.org/1999/xlink" x="0px" y="0px"
	 viewBox="0 0 512 512" style="enable-background:new 0 0 512 512;" xml:space="preserve">
<g>
	<g>
		<path d="M93.8,333.5c-1,0-1.9-0.6-2.3-1.6c-16.2-40.2,17.6-103.9,29.6-124.5c-0.1-0.6,0-1.1,0.3-1.6c14-23.7,34.4-48.3,60.6-73.3
			c0.2-0.2,0.4-0.3,0.7-0.5c31.7-30.3,60.9-50.7,64.1-52.9c0.7-0.5,1.6-0.6,2.4-0.3c0.8,0.3,1.3,1,1.5,1.9l0.6,3.2
			c0.1,0.4,0.1,0.8-0.1,1.2c-7.2,23-11.6,46.6-13.1,70.2c-2,26.2-0.6,53.2,4.2,82.6c0.1,0.2,0.2,0.5,0.3,0.8
			c7.5,41.8,51.8,79.7,52.3,80c1,0.9,1.2,2.4,0.3,3.5c-0.9,1.1-2.4,1.2-3.5,0.4c-54-41.3-195.7,10.1-197.1,10.7
			C94.4,333.5,94.1,333.5,93.8,333.5z M126.5,207.2c0.1,0.5,0,1.1-0.3,1.6c-22.1,37.4-41.5,87.9-30.9,119c8.7-3,40.5-13.7,76.9-20.4
			c45.9-8.4,81.4-7.8,105.9,2c-14.2-15-35-41.2-40.3-69.3c-0.1-0.3-0.3-0.5-0.3-0.8c-4.9-30-6.4-57.6-4.3-84.3
			c1.4-23.2,5.7-46.4,12.6-69c-9.5,6.8-34,25.1-60,50.1c-0.2,0.2-0.4,0.4-0.7,0.5C159.8,160.7,140.2,184.4,126.5,207.2z"/>
	</g>
	<g>
		<path d="M303.4,365.3c-0.5,0-0.9-0.1-1.3-0.4c-0.6-0.4-1-1-1.2-1.7L244.6,76.1c-0.2-1.1,0.3-2.1,1.2-2.7c0.9-0.5,2.1-0.4,2.9,0.4
			l247.1,231.3c0.7,0.6,0.9,1.5,0.7,2.4c-0.2,0.9-0.9,1.6-1.7,1.8L304,365.2C303.9,365.3,303.6,365.3,303.4,365.3z M251,82.7
			l54.3,276.9l184-53.9L251,82.7z"/>
	</g>
	<g>
		<path d="M243.9,63.8c-0.3,0-0.6,0-0.9-0.2c-1.3-0.5-2-1.9-1.5-3.2c3.4-9.2,21.7-13.8,27.3-14.9c13.9-2.9,30.6-3.1,36.5,3
			c0.8,0.8,6.5,4.1,43.9-8.8c9-3.1,17.8-6.5,24.8-9.2l-35,2.7c-1.2,0.1-2.3-0.7-2.6-1.8c-0.3-1.1,0.2-2.4,1.2-2.9l15.4-8
			c-10.7,2.2-23.1,4.6-27.4,5c-0.3,0-31.6,3-39-4.7c-3.1-2.4-27.5,2.9-48.4,9.4c-1.3,0.4-2.7-0.3-3.1-1.6c-0.4-1.3,0.3-2.7,1.6-3.1
			c0.1,0,11.6-3.6,23.6-6.5c22.5-5.3,27.7-3.8,29.8-1.6c3.9,4,24.4,4.2,34.8,3.1c7.7-0.8,44.2-8.6,44.5-8.7c1.2-0.3,2.5,0.4,2.9,1.6
			s-0.1,2.5-1.2,3.1l-20.6,10.8l38.8-3c1.2-0.1,2.3,0.7,2.6,1.9c0.3,1.2-0.3,2.4-1.4,2.9c-0.2,0.1-19.6,8.4-39.8,15.4
			c-37.5,13-46,10.9-49.2,7.6c-3.8-3.9-17.5-4.6-31.8-1.5c-12.5,2.6-22,7.4-23.6,11.8C245.9,63.2,244.9,63.8,243.9,63.8z"/>
	</g>
	<g>
		<path d="M309.7,396.6c-1.2,0-2.2-0.8-2.5-2l-6.1-31.3l-48.6-246.5L246.4,85c-0.3-1.4,0.6-2.7,2-2.9c1.4-0.3,2.7,0.6,2.9,2
			l6.1,31.8L306,362.4l6.1,31.3c0.3,1.4-0.6,2.7-2,2.9C310,396.6,309.9,396.6,309.7,396.6z"/>
	</g>
	<g>
		<path d="M248.1,83.8c-1.2,0-2.2-0.8-2.5-2l-3.9-20.5l-6.6-33.1c-0.3-1.4,0.6-2.7,2-2.9c1.4-0.3,2.7,0.6,2.9,2l6.6,33.1l3.9,20.5
			c0.3,1.4-0.6,2.7-2,2.9C248.4,83.8,248.3,83.8,248.1,83.8z"/>
	</g>
</g>
</svg>
