<?xml version="1.0" encoding="utf-8"?>
<!-- Generator: Adobe Illustrator 22.1.0, SVG Export Plug-In . SVG Version: 6.00 Build 0)  -->
<svg version="1.1" id="Layer_1" xmlns="http://www.w3.org/2000/svg" xmlns:xlink="http://www.w3.org/1999/xlink" x="0px" y="0px"
	 viewBox="0 0 512 512" style="enable-background:new 0 0 512 512;" xml:space="preserve">
<g>
	<circle cx="23.8" cy="371" r="3.5"/>
	<circle cx="30.4" cy="406" r="3.5"/>
	<circle cx="48.2" cy="437.6" r="3.5"/>
	<circle cx="74.1" cy="467.2" r="3.5"/>
	<circle cx="112.1" cy="490.8" r="3.5"/>
	<circle cx="177" cy="492.8" r="3.5"/>
	<circle cx="248.9" cy="492.8" r="3.5"/>
	<circle cx="305.5" cy="492.8" r="3.5"/>
	<circle cx="363.9" cy="490.8" r="3.5"/>
	<circle cx="430.3" cy="490.8" r="3.5"/>
	<circle cx="449.3" cy="458.3" r="3.5"/>
	<circle cx="463.6" cy="419.8" r="3.5"/>
	<circle cx="481.6" cy="370" r="3.5"/>
	<circle cx="450.6" cy="382.3" r="3.5"/>
	<circle cx="412.5" cy="395.6" r="3.5"/>
	<circle cx="368.7" cy="403" r="3.5"/>
	<circle cx="328.4" cy="403" r="3.5"/>
	<circle cx="283.8" cy="395.6" r="3.5"/>
	<circle cx="240.8" cy="383.3" r="3.5"/>
	<circle cx="192.7" cy="373.5" r="3.5"/>
	<circle cx="143.4" cy="361.6" r="3.5"/>
	<circle cx="101.9" cy="360.6" r="3.5"/>
	<circle cx="59" cy="361.1" r="3.5"/>
</g>
</svg>
