<?xml version="1.0" encoding="utf-8"?>
<!-- Generator: Adobe Illustrator 22.1.0, SVG Export Plug-In . SVG Version: 6.00 Build 0)  -->
<svg version="1.1" id="Layer_1" xmlns="http://www.w3.org/2000/svg" xmlns:xlink="http://www.w3.org/1999/xlink" x="0px" y="0px"
	 viewBox="0 0 512 512" style="enable-background:new 0 0 512 512;" xml:space="preserve">
<g>
	<circle cx="300.3" cy="77.3" r="3.5"/>
	<circle cx="294.1" cy="110.9" r="3.5"/>
	<circle cx="289.4" cy="136.6" r="3.5"/>
	<circle cx="285.9" cy="159.3" r="3.5"/>
	<circle cx="257.1" cy="159.3" r="3.5"/>
	<circle cx="223.8" cy="159.3" r="3.5"/>
	<circle cx="197.1" cy="159.3" r="3.5"/>
	<circle cx="171.5" cy="159.3" r="3.5"/>
	<circle cx="169.8" cy="198.3" r="3.5"/>
	<circle cx="169.8" cy="227.4" r="3.5"/>
	<circle cx="169.8" cy="259.4" r="3.5"/>
	<circle cx="140.8" cy="262.9" r="3.5"/>
	<circle cx="117.8" cy="273.6" r="3.5"/>
	<circle cx="104.1" cy="289.3" r="3.5"/>
	<circle cx="96.2" cy="311.8" r="3.5"/>
	<circle cx="104.5" cy="346.8" r="3.5"/>
	<circle cx="121.3" cy="363.9" r="3.5"/>
	<circle cx="145.8" cy="374.4" r="3.5"/>
	<circle cx="176.8" cy="374.4" r="3.5"/>
	<circle cx="212.1" cy="374.4" r="3.5"/>
	<circle cx="246.5" cy="374.4" r="3.5"/>
	<circle cx="277.1" cy="372.9" r="3.5"/>
	<circle cx="301.1" cy="374.4" r="3.5"/>
	<circle cx="331.3" cy="374.4" r="3.5"/>
	<circle cx="357.6" cy="374.4" r="3.5"/>
	<circle cx="385.6" cy="374.4" r="3.5"/>
	<circle cx="410.6" cy="374.4" r="3.5"/>
	<circle cx="441.1" cy="374.4" r="3.5"/>
	<circle cx="462.5" cy="369.4" r="3.5"/>
	<circle cx="479.8" cy="356.4" r="3.5"/>
	<circle cx="490.1" cy="334.8" r="3.5"/>
	<circle cx="492.1" cy="312.4" r="3.5"/>
	<circle cx="486.6" cy="294.6" r="3.5"/>
	<circle cx="476.3" cy="275.6" r="3.5"/>
	<circle cx="451.5" cy="264.9" r="3.5"/>
	<circle cx="449.8" cy="243.6" r="3.5"/>
	<circle cx="449.8" cy="218.3" r="3.5"/>
	<circle cx="449.8" cy="187.4" r="3.5"/>
	<circle cx="432.5" cy="187.4" r="3.5"/>
	<circle cx="430.5" cy="160.9" r="3.5"/>
	<circle cx="429" cy="131.6" r="3.5"/>
	<circle cx="429" cy="103.9" r="3.5"/>
	<circle cx="427" cy="77.3" r="3.5"/>
	<circle cx="398.5" cy="77.3" r="3.5"/>
	<circle cx="368.1" cy="77.3" r="3.5"/>
	<circle cx="334.2" cy="77.4" r="3.5"/>
</g>
</svg>
