<?xml version="1.0" encoding="utf-8"?>
<!-- Generator: Adobe Illustrator 22.1.0, SVG Export Plug-In . SVG Version: 6.00 Build 0)  -->
<svg version="1.1" id="Layer_1" xmlns="http://www.w3.org/2000/svg" xmlns:xlink="http://www.w3.org/1999/xlink" x="0px" y="0px"
	 viewBox="0 0 512 512" style="enable-background:new 0 0 512 512;" xml:space="preserve">
<g>
	<g>
		<path d="M429.4,344.7c-9.2,0-17.8-4.9-22.6-12.8c-2.5-4.2-3.8-8.9-3.8-13.5v-1.1c0,0,0-0.1,0-0.1c0.7-14.1,12.2-25.1,26.3-25.1
			c14.6,0,26.4,11.8,26.4,26.3S443.9,344.7,429.4,344.7z M408,317.4v1c0,3.7,1.1,7.5,3.1,10.9c3.9,6.4,10.9,10.4,18.3,10.4
			c11.7,0,21.3-9.6,21.3-21.3s-9.6-21.3-21.4-21.3C417.9,297.1,408.6,306,408,317.4z"/>
	</g>
	<g>
		<path d="M375.4,254.1h-74.3c-1.4,0-2.5-1.1-2.5-2.5v-80.8c0-0.1,0-0.2,0-0.3l10.7-80.8c0.2-1.2,1.2-2.2,2.5-2.2h63.6
			c1.4,0,2.5,1.1,2.5,2.5v161.6C377.9,253,376.8,254.1,375.4,254.1z M303.6,249.1h69.3V92.5H314L303.6,171V249.1z"/>
	</g>
	<g>
		<path d="M160.7,344.7c-8.8,0-17-4.4-22-11.8c-2.8-4.3-4.3-9.3-4.3-14.5c0-1,0.1-1.9,0.2-2.9l0-0.2c1.6-13.2,12.8-23.2,26.2-23.2
			c10.4,0,19.8,6.1,24,15.5c1.5,3.7,2.2,7.3,2.2,10.8c0,2.6-0.3,5-1,7.2C182.9,336.8,172.4,344.7,160.7,344.7z M160.8,297.1
			c-10.8,0-20,8-21.2,18.7l0,0.2c-0.1,0.9-0.2,1.6-0.2,2.4c0,4.2,1.2,8.3,3.5,11.7c4,6,10.7,9.6,17.8,9.6c9.5,0,17.9-6.4,20.5-15.5
			c0.5-1.8,0.8-3.7,0.8-5.8c0-2.9-0.6-5.9-1.8-8.9C176.8,302,169.2,297.1,160.8,297.1z"/>
	</g>
	<g>
		<path d="M14.2,383.7c-0.4,0-0.9-0.1-1.2-0.3l-8.1-4.6c-1.2-0.7-1.6-2.2-1-3.4l34-62.4l5.9-49c0.1-1,0.8-1.8,1.7-2.1L57,258
			c0.1-0.1,0.3-0.1,0.5-0.1l11.6-1.6c0.7-0.1,1.4,0.1,1.9,0.6c0.5,0.5,0.9,1.1,0.9,1.8l2.2,56.2c0,0.5-0.1,1-0.4,1.4l-8.3,13.2
			l-11.6,18.6l-20.3,32.4c-0.4,0.6-1.1,1.1-1.8,1.2l-17.2,2C14.4,383.7,14.3,383.7,14.2,383.7z M9.5,375.6l5.3,3l15.2-1.8l19.7-31.4
			l11.6-18.6l7.9-12.6L67,261.7l-8.6,1.2l-9.8,3.3l-5.8,47.9c0,0.3-0.1,0.6-0.3,0.9L9.5,375.6z"/>
	</g>
	<g>
		<path d="M246.5,193.4h-55.3c-1.4,0-2.5-1.1-2.5-2.5s1.1-2.5,2.5-2.5h55.3c1.4,0,2.5,1.1,2.5,2.5S247.9,193.4,246.5,193.4z"/>
	</g>
	<g>
		<path d="M246.5,179.7h-55.3c-1.4,0-2.5-1.1-2.5-2.5s1.1-2.5,2.5-2.5h55.3c1.4,0,2.5,1.1,2.5,2.5S247.9,179.7,246.5,179.7z"/>
	</g>
	<g>
		<path d="M246.5,220.8h-55.3c-1.4,0-2.5-1.1-2.5-2.5s1.1-2.5,2.5-2.5h55.3c1.4,0,2.5,1.1,2.5,2.5S247.9,220.8,246.5,220.8z"/>
	</g>
	<g>
		<path d="M246.5,207.1h-55.3c-1.4,0-2.5-1.1-2.5-2.5s1.1-2.5,2.5-2.5h55.3c1.4,0,2.5,1.1,2.5,2.5S247.9,207.1,246.5,207.1z"/>
	</g>
	<g>
		<path d="M51.7,349.3c-0.8,0-1.6-0.4-2.1-1.1c-0.5-0.8-0.6-1.9,0-2.7l11.7-18.7c0.4-0.6,1-1,1.7-1.1l73.7-12.7
			c0.8-0.1,1.6,0.1,2.1,0.6c0.6,0.5,0.9,1.3,0.8,2.1l0,0.3c-0.1,0.9-0.2,1.6-0.2,2.4c-0.1,4.3,1.1,8.3,3.5,11.8
			c0.5,0.7,0.6,1.6,0.2,2.4c-0.3,0.8-1,1.3-1.9,1.5l-89.1,15.3C52,349.3,51.8,349.3,51.7,349.3z M64.9,330.4l-8.1,13l80.1-13.8
			c-1.7-3.5-2.5-7.3-2.5-11.2L64.9,330.4z"/>
	</g>
	<g>
		<path d="M432.1,358.9H155.8c-15.7,0-29.7-8.8-36.5-23c-0.3-0.7-0.3-1.5,0-2.2c0.4-0.7,1-1.2,1.8-1.3l15.7-2.7
			c-1.6-3.5-2.5-7.2-2.5-11.1l-16.1,2.8c-0.7,0.1-1.5-0.1-2-0.6c-0.6-0.5-0.9-1.2-0.9-1.9v-0.4c0-10.9,4.2-21.1,11.8-28.6
			c7.7-7.6,17.8-11.7,28.7-11.7h276.4c10.7-0.1,20.8,4,28.5,11.5c7.7,7.6,11.9,17.8,11.9,28.8C472.6,340.7,454.4,358.9,432.1,358.9z
			 M125.4,336.7c6.4,10.7,17.8,17.2,30.4,17.2h276.3c19.6,0,35.5-15.9,35.5-35.5c0-9.6-3.7-18.5-10.5-25.2
			c-6.7-6.6-15.5-10.2-24.9-10.1H155.8c-9.5,0-18.4,3.7-25.1,10.3c-6.1,6-9.7,13.9-10.3,22.4l16.2-2.8c0.8-0.1,1.6,0.1,2.1,0.6
			c0.6,0.5,0.9,1.3,0.8,2.1l0,0.3c-0.1,0.9-0.2,1.6-0.2,2.4c0,4.2,1.2,8.3,3.5,11.7c0.5,0.7,0.5,1.6,0.2,2.4s-1,1.3-1.9,1.5
			L125.4,336.7z"/>
	</g>
</g>
</svg>
