<?xml version="1.0" encoding="utf-8"?>
<!-- Generator: Adobe Illustrator 22.1.0, SVG Export Plug-In . SVG Version: 6.00 Build 0)  -->
<svg version="1.1" id="Layer_1" xmlns="http://www.w3.org/2000/svg" xmlns:xlink="http://www.w3.org/1999/xlink" x="0px" y="0px"
	 viewBox="0 0 512 512" style="enable-background:new 0 0 512 512;" xml:space="preserve">
<g>
	<g>
		<path d="M466,226.9H153c-11.2,0-20.4-9.2-20.4-20.4v-31.8c0-11.2,9.2-20.4,20.4-20.4h313c5.5,0,10.8,2.2,14.6,6.1
			c3.8,3.8,5.8,8.8,5.8,14.1v32C486.4,217.7,477.2,226.9,466,226.9z M153,159.3c-8.5,0-15.4,6.9-15.4,15.4v31.8
			c0,8.5,6.9,15.4,15.4,15.4h313c8.5,0,15.4-6.9,15.4-15.4v-32c0-4-1.5-7.7-4.3-10.6c-2.9-2.9-6.9-4.6-11.1-4.6H153z"/>
	</g>
	<g>
		<path d="M108.4,334.5h-44c-7.4,0-13.5-5.9-13.5-13.2V178.7c0.2-7.4,6.2-13.2,13.5-13.2h44c7.4,0,13.5,5.9,13.5,13.2v142.6
			C121.9,328.6,115.8,334.5,108.4,334.5z M64.4,170.5c-4.6,0-8.3,3.6-8.5,8.3l0,142.5c0,4.5,3.8,8.2,8.5,8.2h44
			c4.7,0,8.5-3.7,8.5-8.2V178.7c0-4.5-3.8-8.2-8.5-8.2H64.4z"/>
	</g>
	<g>
		<path d="M401.4,380.3c-23.3,0-42.2-18.9-42.2-42.2c0-23.3,18.9-42.2,42.2-42.2c23.3,0,42.2,18.9,42.2,42.2
			C443.6,361.4,424.7,380.3,401.4,380.3z M401.4,300.9c-20.5,0-37.2,16.7-37.2,37.2c0,20.5,16.7,37.2,37.2,37.2
			c20.5,0,37.2-16.7,37.2-37.2C438.6,317.6,421.9,300.9,401.4,300.9z"/>
	</g>
	<g>
		<path d="M179.5,380.3c-23.3,0-42.2-18.9-42.2-42.2c0-23.3,18.9-42.2,42.2-42.2s42.2,18.9,42.2,42.2
			C221.7,361.4,202.8,380.3,179.5,380.3z M179.5,300.9c-20.5,0-37.2,16.7-37.2,37.2c0,20.5,16.7,37.2,37.2,37.2s37.2-16.7,37.2-37.2
			C216.7,317.6,200,300.9,179.5,300.9z"/>
	</g>
	<g>
		<path d="M26.5,229.3H10.2c-0.7,0-1.3-0.3-1.8-0.7c-0.5-0.5-0.9-1.1-0.9-2.2c0-1.4,1.1-2.5,2.5-2.5c0.5,0,1,0.1,1.4,0.4h15.1
			c7.4,0,13.2-5.8,13.2-13.2v-38.3c0-6.4-4.5-11.8-10.6-13c-1.4-0.3-2.2-1.6-2-2.9c0.3-1.4,1.6-2.2,2.9-2c8.5,1.7,14.6,9.2,14.6,18
			v38.3C44.7,221.3,36.7,229.3,26.5,229.3z M10.6,226.4l1.9,0c0,0,0,0,0,0L10.6,226.4z M10,226.4l0.2,0v0H10z M12.5,226.4
			L12.5,226.4L12.5,226.4z"/>
	</g>
</g>
</svg>
