<?xml version="1.0" encoding="utf-8"?>
<!-- Generator: Adobe Illustrator 22.1.0, SVG Export Plug-In . SVG Version: 6.00 Build 0)  -->
<svg version="1.1" id="Layer_1" xmlns="http://www.w3.org/2000/svg" xmlns:xlink="http://www.w3.org/1999/xlink" x="0px" y="0px"
	 viewBox="0 0 512 512" style="enable-background:new 0 0 512 512;" xml:space="preserve">
<g>
	<circle cx="36" cy="133.8" r="3.5"/>
	<circle cx="22.6" cy="166.4" r="3.5"/>
	<circle cx="14.5" cy="192.1" r="3.5"/>
	<circle cx="10" cy="216.1" r="3.5"/>
	<circle cx="6.5" cy="246.5" r="3.5"/>
	<circle cx="7.3" cy="273.3" r="3.5"/>
	<circle cx="7.3" cy="296" r="3.5"/>
	<circle cx="6.5" cy="318.8" r="3.5"/>
	<circle cx="7.3" cy="343.6" r="3.5"/>
	<circle cx="34.6" cy="345.6" r="3.5"/>
	<circle cx="66" cy="347.1" r="3.5"/>
	<circle cx="93.5" cy="347.1" r="3.5"/>
	<circle cx="124.5" cy="347.1" r="3.5"/>
	<circle cx="128" cy="328.5" r="3.5"/>
	<circle cx="138" cy="306.3" r="3.5"/>
	<circle cx="154.5" cy="292.5" r="3.5"/>
	<circle cx="178" cy="286.8" r="3.5"/>
	<circle cx="203.3" cy="290.3" r="3.5"/>
	<circle cx="221.3" cy="309.8" r="3.5"/>
	<circle cx="229.8" cy="328.5" r="3.5"/>
	<circle cx="230.6" cy="347.1" r="3.5"/>
	<circle cx="256" cy="346" r="3.5"/>
	<circle cx="288.3" cy="347.1" r="3.5"/>
	<circle cx="315.8" cy="347.1" r="3.5"/>
	<circle cx="343.5" cy="347.1" r="3.5"/>
	<circle cx="347" cy="321.8" r="3.5"/>
	<circle cx="361.7" cy="296.1" r="3.5"/>
	<circle cx="396.5" cy="282.3" r="3.5"/>
	<circle cx="430" cy="292.6" r="3.5"/>
	<circle cx="456" cy="314.8" r="3.5"/>
	<circle cx="456" cy="346.1" r="3.5"/>
	<circle cx="480.5" cy="346.1" r="3.5"/>
	<circle cx="501.1" cy="346.1" r="3.5"/>
	<circle cx="501.1" cy="317.1" r="3.5"/>
	<circle cx="501.1" cy="284.3" r="3.5"/>
	<circle cx="501.1" cy="256" r="3.5"/>
	<circle cx="501.1" cy="228.8" r="3.5"/>
	<circle cx="499.6" cy="200.5" r="3.5"/>
	<circle cx="501.1" cy="165.8" r="3.5"/>
	<circle cx="499.6" cy="133.8" r="3.5"/>
	<circle cx="465.8" cy="133.8" r="3.5"/>
	<circle cx="426.3" cy="133.8" r="3.5"/>
	<circle cx="381.5" cy="133.8" r="3.5"/>
	<circle cx="346.5" cy="133.8" r="3.5"/>
	<circle cx="309.5" cy="133.8" r="3.5"/>
	<circle cx="259" cy="133.8" r="3.5"/>
	<circle cx="211.3" cy="133.8" r="3.5"/>
	<circle cx="162" cy="133.8" r="3.5"/>
	<circle cx="117" cy="133.8" r="3.5"/>
	<circle cx="76.5" cy="133.8" r="3.5"/>
</g>
</svg>
