<?xml version="1.0" encoding="utf-8"?>
<!-- Generator: Adobe Illustrator 22.1.0, SVG Export Plug-In . SVG Version: 6.00 Build 0)  -->
<svg version="1.1" id="Layer_1" xmlns="http://www.w3.org/2000/svg" xmlns:xlink="http://www.w3.org/1999/xlink" x="0px" y="0px"
	 viewBox="0 0 512 512" style="enable-background:new 0 0 512 512;" xml:space="preserve">
<style type="text/css">
	.st0{fill:#FFFFFF;}
</style>
<g>
	<g>
		<circle class="st0" cx="123.7" cy="359.4" r="37.5"/>
		<path d="M123.7,399.4c-22.1,0-40-17.9-40-40s17.9-40,40-40s40,17.9,40,40S145.8,399.4,123.7,399.4z M123.7,324.4
			c-19.3,0-35,15.7-35,35s15.7,35,35,35s35-15.7,35-35S143,324.4,123.7,324.4z"/>
	</g>
	<g>
		<path class="st0" d="M298.9,237.7c0,0-1.2,35.6-8,39.7l-105.8,2.5c0,0,36.8-31.7,72.1-39.3C292.5,233.2,298.9,237.7,298.9,237.7z"
			/>
		<path d="M178.2,282.6l5.3-4.6c1.5-1.3,37.7-32.2,73.2-39.8c34.6-7.3,42.4-3.4,43.7-2.5l1.1,0.8l0,1.4c-0.3,8.7-1.8,37.3-9.2,41.8
			l-0.6,0.3L178.2,282.6z M289.4,238.9c-5.9,0-15.8,0.9-31.7,4.2c-26.3,5.7-53.7,25.2-65.3,34.2l97.6-2.3c3.2-3.2,5.6-20.1,6.3-35.5
			C295.1,239.2,293,238.9,289.4,238.9z"/>
	</g>
	<g>
		<path class="st0" d="M312.1,236.3v38.9h102.5c0,0-13.8-35-47.3-38.9L312.1,236.3L312.1,236.3z"/>
		<path d="M418.3,277.7H309.6v-43.9l58,0c34.6,4,48.8,39,49.3,40.5L418.3,277.7z M314.6,272.7h96.1c-4.4-8.6-18.1-30.9-43.5-33.9
			h-52.6V272.7z"/>
	</g>
	<g>
		<circle class="st0" cx="417.5" cy="359.4" r="37.5"/>
		<path d="M417.5,399.4c-22.1,0-40-17.9-40-40s17.9-40,40-40s40,17.9,40,40S439.6,399.4,417.5,399.4z M417.5,324.4
			c-19.3,0-35,15.7-35,35s15.7,35,35,35s35-15.7,35-35S436.8,324.4,417.5,324.4z"/>
	</g>
</g>
</svg>
