<?xml version="1.0" encoding="utf-8"?>
<!-- Generator: Adobe Illustrator 22.1.0, SVG Export Plug-In . SVG Version: 6.00 Build 0)  -->
<svg version="1.1" id="Layer_1" xmlns="http://www.w3.org/2000/svg" xmlns:xlink="http://www.w3.org/1999/xlink" x="0px" y="0px"
	 viewBox="0 0 512 512" style="enable-background:new 0 0 512 512;" xml:space="preserve">
<g>
	<circle cx="47.4" cy="145" r="3.5"/>
	<circle cx="50.9" cy="175" r="3.5"/>
	<circle cx="56.4" cy="208" r="3.5"/>
	<circle cx="59.9" cy="242.8" r="3.5"/>
	<circle cx="54.7" cy="261.9" r="3.5"/>
	<circle cx="54.7" cy="279.6" r="3.5"/>
	<circle cx="54.7" cy="299.8" r="3.5"/>
	<circle cx="52.9" cy="321.6" r="3.5"/>
	<circle cx="65.7" cy="321.6" r="3.5"/>
	<circle cx="71.8" cy="300.8" r="3.5"/>
	<circle cx="85.1" cy="287.7" r="3.5"/>
	<circle cx="104.9" cy="279.6" r="3.5"/>
	<circle cx="124.9" cy="279.6" r="3.5"/>
	<circle cx="145.9" cy="287.7" r="3.5"/>
	<circle cx="158.7" cy="300.8" r="3.5"/>
	<circle cx="165.7" cy="320.5" r="3.5"/>
	<circle cx="195.4" cy="320.5" r="3.5"/>
	<circle cx="220.7" cy="320.5" r="3.5"/>
	<circle cx="229.6" cy="300.8" r="3.5"/>
	<circle cx="250.5" cy="287.6" r="3.5"/>
	<circle cx="279" cy="282.3" r="3.5"/>
	<circle cx="306" cy="291.2" r="3.5"/>
	<circle cx="317.8" cy="304.3" r="3.5"/>
	<circle cx="321.3" cy="320.9" r="3.5"/>
	<circle cx="333.7" cy="320.5" r="3.5"/>
	<circle cx="332.3" cy="296.4" r="3.5"/>
	<circle cx="332.3" cy="275.3" r="3.5"/>
	<circle cx="332.5" cy="263" r="3.5"/>
	<circle cx="313" cy="263" r="3.5"/>
	<circle cx="289.3" cy="261.9" r="3.5"/>
	<circle cx="274.5" cy="261.9" r="3.5"/>
	<circle cx="274.5" cy="240.3" r="3.5"/>
	<circle cx="274.5" cy="222.1" r="3.5"/>
	<circle cx="274.5" cy="200.8" r="3.5"/>
	<circle cx="274.1" cy="180.5" r="3.5"/>
	<circle cx="299.5" cy="169.5" r="3.5"/>
	<circle cx="320.8" cy="158.5" r="3.5"/>
	<circle cx="315" cy="142.5" r="3.5"/>
	<circle cx="294.7" cy="139" r="3.5"/>
	<circle cx="272" cy="127.5" r="3.5"/>
	<ellipse transform="matrix(0.1602 -0.9871 0.9871 0.1602 76.2766 367.6523)" cx="254.2" cy="139" rx="3.5" ry="3.5"/>
	<circle cx="233.9" cy="140.5" r="3.5"/>
	<circle cx="215.7" cy="139" r="3.5"/>
	<circle cx="200.8" cy="127.5" r="3.5"/>
	<circle cx="186.1" cy="139" r="3.5"/>
	<circle cx="163.7" cy="142.5" r="3.5"/>
	<circle cx="144.4" cy="140.5" r="3.5"/>
	<circle cx="131.8" cy="127.5" r="3.5"/>
	<circle cx="116.5" cy="139" r="3.5"/>
	<circle cx="97.2" cy="140.5" r="3.5"/>
	<circle cx="73.9" cy="137" r="3.5"/>
	<circle cx="63.4" cy="127.5" r="3.5"/>
</g>
</svg>
