<?xml version="1.0" encoding="utf-8"?>
<!-- Generator: Adobe Illustrator 22.1.0, SVG Export Plug-In . SVG Version: 6.00 Build 0)  -->
<svg version="1.1" id="Layer_1" xmlns="http://www.w3.org/2000/svg" xmlns:xlink="http://www.w3.org/1999/xlink" x="0px" y="0px"
	 viewBox="0 0 512 512" style="enable-background:new 0 0 512 512;" xml:space="preserve">
<g>
	<g>
		<path d="M332.5,306.2c-1.3,0-2.4-1-2.5-2.3c-0.1-1.4,0.9-2.6,2.3-2.7l165.2-14.6c1.4-0.1,2.6,0.9,2.7,2.3c0.1,1.4-0.9,2.6-2.3,2.7
			l-165.2,14.6C332.6,306.2,332.6,306.2,332.5,306.2z"/>
	</g>
	<g>
		<path d="M334.5,253.9H48c-1.4,0-2.5-1.1-2.5-2.5s1.1-2.5,2.5-2.5h285.2l20.3-28.3c0.8-1.1,2.4-1.4,3.5-0.6
			c1.1,0.8,1.4,2.4,0.6,3.5l-21,29.3C336.1,253.5,335.3,253.9,334.5,253.9z"/>
	</g>
	<g>
		<path d="M79.8,253.9c-1.2,0-2.3-0.9-2.5-2.2L61.4,136.3c-0.2-1.4,0.8-2.6,2.1-2.8c1.4-0.2,2.6,0.8,2.8,2.1l15.9,115.4
			c0.2,1.4-0.8,2.6-2.1,2.8C80,253.9,79.9,253.9,79.8,253.9z"/>
	</g>
	<g>
		<path d="M137.6,253.9c-1.3,0-2.4-1-2.5-2.4l-5.8-116.1c-0.1-1.4,1-2.6,2.4-2.6c1.4-0.1,2.6,1,2.6,2.4l5.8,116.1
			c0.1,1.4-1,2.6-2.4,2.6C137.7,253.9,137.6,253.9,137.6,253.9z"/>
	</g>
	<g>
		<path d="M200.8,253.9c-1.4,0-2.5-1.1-2.5-2.5V135.3c0-1.4,1.1-2.5,2.5-2.5s2.5,1.1,2.5,2.5v116.1
			C203.3,252.8,202.2,253.9,200.8,253.9z"/>
	</g>
	<g>
		<path d="M259,253.9C259,253.9,258.9,253.9,259,253.9c-1.5,0-2.5-1.2-2.5-2.6l2.6-75.6c0-0.2,0-0.4,0.1-0.5l10.4-40.5
			c0.3-1.3,1.7-2.1,3-1.8c1.3,0.3,2.1,1.7,1.8,3l-10.3,40.2l-2.6,75.3C261.5,252.8,260.3,253.9,259,253.9z"/>
	</g>
	<g>
		<g>
			<path d="M114.8,375.7c-24.7,0-44.8-20.1-44.8-44.8s20.1-44.8,44.8-44.8c24.7,0,44.8,20.1,44.8,44.8S139.5,375.7,114.8,375.7z
				 M114.8,291.1C92.9,291.1,75,309,75,330.9c0,21.9,17.9,39.8,39.8,39.8s39.8-17.9,39.8-39.8C154.6,309,136.7,291.1,114.8,291.1z
				 M114.9,344.1c-6.9,0-12.5-5.6-12.5-12.5s5.6-12.5,12.5-12.5s12.5,5.6,12.5,12.5S121.8,344.1,114.9,344.1z M114.9,324.1
				c-4.1,0-7.5,3.4-7.5,7.5s3.4,7.5,7.5,7.5s7.5-3.4,7.5-7.5S119,324.1,114.9,324.1z"/>
		</g>
		<g>
			<path d="M147.4,358.1c-0.6,0-1.1-0.2-1.6-0.6l-22.5-18.3c-1.1-0.9-1.2-2.4-0.4-3.5c0.9-1.1,2.4-1.2,3.5-0.4l22.5,18.3
				c1.1,0.9,1.2,2.4,0.4,3.5C148.8,357.8,148.1,358.1,147.4,358.1z"/>
		</g>
		<g>
			<path d="M107.5,325.7c-0.6,0-1.1-0.2-1.6-0.6l-22.4-18.2c-1.1-0.9-1.2-2.4-0.4-3.5c0.9-1.1,2.4-1.2,3.5-0.4l22.4,18.2
				c1.1,0.9,1.2,2.4,0.4,3.5C108.9,325.4,108.2,325.7,107.5,325.7z"/>
		</g>
		<g>
			<path d="M87.9,362.5c-0.6,0-1.2-0.2-1.7-0.7c-1-0.9-1.1-2.5-0.1-3.5l18.7-20.3c0.9-1,2.5-1.1,3.5-0.1c1,0.9,1.1,2.5,0.1,3.5
				l-18.7,20.3C89.2,362.2,88.6,362.5,87.9,362.5z"/>
		</g>
		<g>
			<path d="M121.8,325.7c-0.6,0-1.2-0.2-1.7-0.7c-1-0.9-1.1-2.5-0.1-3.5l20.6-22.4c0.9-1,2.5-1.1,3.5-0.1c1,0.9,1.1,2.5,0.1,3.5
				l-20.6,22.4C123.1,325.4,122.5,325.7,121.8,325.7z"/>
		</g>
		<g>
			<path d="M114.8,375.8C114.8,375.8,114.8,375.8,114.8,375.8c-1.4,0-2.5-1.1-2.5-2.5l0.2-30.9c0-1.4,1.1-2.5,2.5-2.5c0,0,0,0,0,0
				c1.4,0,2.5,1.1,2.5,2.5l-0.2,30.9C117.3,374.7,116.2,375.8,114.8,375.8z"/>
		</g>
		<g>
			<path d="M115.3,323.3C115.3,323.3,115.3,323.3,115.3,323.3c-1.4,0-2.5-1.1-2.5-2.5l0.1-29.1c0-1.4,1.1-2.5,2.5-2.5c0,0,0,0,0,0
				c1.4,0,2.5,1.1,2.5,2.5l-0.1,29.1C117.8,322.2,116.7,323.3,115.3,323.3z"/>
		</g>
		<g>
			<path d="M153.9,332C153.9,332,153.9,332,153.9,332l-27.6-0.2c-1.4,0-2.5-1.1-2.5-2.5c0-1.4,1.1-2.5,2.5-2.5c0,0,0,0,0,0l27.6,0.2
				c1.4,0,2.5,1.1,2.5,2.5C156.4,330.9,155.3,332,153.9,332z"/>
		</g>
		<g>
			<path d="M103.6,331.6C103.6,331.6,103.6,331.6,103.6,331.6l-27.5-0.2c-1.4,0-2.5-1.1-2.5-2.5c0-1.4,1.1-2.5,2.5-2.5c0,0,0,0,0,0
				l27.5,0.2c1.4,0,2.5,1.1,2.5,2.5C106.1,330.5,105,331.6,103.6,331.6z"/>
		</g>
	</g>
	<g>
		<g>
			<path d="M272,378.2c-24.7,0-44.8-20.1-44.8-44.8s20.1-44.8,44.8-44.8c24.7,0,44.8,20.1,44.8,44.8S296.7,378.2,272,378.2z
				 M272,293.6c-21.9,0-39.8,17.9-39.8,39.8c0,21.9,17.9,39.8,39.8,39.8c21.9,0,39.8-17.9,39.8-39.8
				C311.8,311.5,293.9,293.6,272,293.6z M272,346.6c-6.9,0-12.5-5.6-12.5-12.5s5.6-12.5,12.5-12.5s12.5,5.6,12.5,12.5
				S278.9,346.6,272,346.6z M272,326.6c-4.1,0-7.5,3.4-7.5,7.5s3.4,7.5,7.5,7.5s7.5-3.4,7.5-7.5S276.1,326.6,272,326.6z"/>
		</g>
		<g>
			<path d="M304.5,360.7c-0.6,0-1.1-0.2-1.6-0.6l-22.5-18.3c-1.1-0.9-1.2-2.4-0.4-3.5c0.9-1.1,2.4-1.2,3.5-0.4l22.5,18.3
				c1.1,0.9,1.2,2.4,0.4,3.5C305.9,360.4,305.2,360.7,304.5,360.7z"/>
		</g>
		<g>
			<path d="M264.6,328.2c-0.6,0-1.1-0.2-1.6-0.6l-22.3-18.2c-1.1-0.9-1.2-2.4-0.4-3.5c0.9-1.1,2.4-1.2,3.5-0.4l22.3,18.2
				c1.1,0.9,1.2,2.4,0.4,3.5C266,327.9,265.3,328.2,264.6,328.2z"/>
		</g>
		<g>
			<path d="M245.1,365.1c-0.6,0-1.2-0.2-1.7-0.7c-1-0.9-1.1-2.5-0.2-3.5l18.7-20.4c0.9-1,2.5-1.1,3.5-0.2c1,0.9,1.1,2.5,0.2,3.5
				l-18.7,20.4C246.4,364.8,245.8,365.1,245.1,365.1z"/>
		</g>
		<g>
			<path d="M279,328.2c-0.6,0-1.2-0.2-1.7-0.7c-1-0.9-1.1-2.5-0.2-3.5l20.5-22.4c0.9-1,2.5-1.1,3.5-0.2c1,0.9,1.1,2.5,0.2,3.5
				l-20.5,22.4C280.4,327.9,279.7,328.2,279,328.2z"/>
		</g>
		<g>
			<path d="M272,378.3C272,378.3,272,378.3,272,378.3c-1.4,0-2.5-1.1-2.5-2.5l0.1-30.9c0-1.4,1.1-2.5,2.5-2.5c0,0,0,0,0,0
				c1.4,0,2.5,1.1,2.5,2.5l-0.1,30.9C274.5,377.2,273.4,378.3,272,378.3z"/>
		</g>
		<g>
			<path d="M272.3,325.8C272.3,325.8,272.3,325.8,272.3,325.8c-1.4,0-2.5-1.1-2.5-2.5l0.2-29.1c0-1.4,1.1-2.5,2.5-2.5
				c1.4,0,2.5,1.1,2.5,2.5l-0.2,29.1C274.8,324.7,273.7,325.8,272.3,325.8z"/>
		</g>
		<g>
			<path d="M311,334.6C311,334.6,311,334.6,311,334.6l-27.7-0.3c-1.4,0-2.5-1.1-2.5-2.5s1.1-2.5,2.5-2.5l27.7,0.3
				c1.4,0,2.5,1.1,2.5,2.5C313.5,333.5,312.4,334.6,311,334.6z"/>
		</g>
		<g>
			<path d="M260.8,334.2C260.8,334.2,260.8,334.2,260.8,334.2l-27.5-0.3c-1.4,0-2.5-1.1-2.5-2.5c0-1.4,1.1-2.4,2.5-2.5l27.5,0.3
				c1.4,0,2.5,1.1,2.5,2.5C263.3,333.1,262.2,334.2,260.8,334.2z"/>
		</g>
	</g>
</g>
</svg>
