<?xml version="1.0" encoding="utf-8"?>
<!-- Generator: Adobe Illustrator 22.1.0, SVG Export Plug-In . SVG Version: 6.00 Build 0)  -->
<svg version="1.1" id="Layer_1" xmlns="http://www.w3.org/2000/svg" xmlns:xlink="http://www.w3.org/1999/xlink" x="0px" y="0px"
	 viewBox="0 0 512 512" style="enable-background:new 0 0 512 512;" xml:space="preserve">
<g>
	<g>
		<path d="M127.7,286.3H57.4c-6.5,0-11.7-5.2-11.7-11.7s5.2-11.7,11.7-11.7h82.2c1.4,0,2.5,1.1,2.5,2.5s-1.1,2.5-2.5,2.5H57.4
			c-3.7,0-6.7,3-6.7,6.7s3,6.7,6.7,6.7h70.3c1.4,0,2.5,1.1,2.5,2.5S129.1,286.3,127.7,286.3z"/>
	</g>
	<g>
		<path d="M451.7,286.3h-79c-1.4,0-2.5-1.1-2.5-2.5s1.1-2.5,2.5-2.5h79c3.7,0,6.7-3,6.7-6.7s-3-6.7-6.7-6.7h-89.5
			c-1.4,0-2.5-1.1-2.5-2.5s1.1-2.5,2.5-2.5h89.5c6.5,0,11.7,5.2,11.7,11.7S458.2,286.3,451.7,286.3z"/>
	</g>
	<g>
		<path d="M108.7,332.2H57.4c-6.5,0-11.7-5.2-11.7-11.7s5.2-11.7,11.7-11.7h59.8c1.4,0,2.5,1.1,2.5,2.5s-1.1,2.5-2.5,2.5H57.4
			c-3.7,0-6.7,3-6.7,6.7s3,6.7,6.7,6.7h51.3c1.4,0,2.5,1.1,2.5,2.5S110.1,332.2,108.7,332.2z"/>
	</g>
	<g>
		<path d="M451.7,332.2h-61.5c-1.4,0-2.5-1.1-2.5-2.5s1.1-2.5,2.5-2.5h61.5c3.7,0,6.7-3,6.7-6.7s-3-6.7-6.7-6.7h-68.8
			c-1.4,0-2.5-1.1-2.5-2.5s1.1-2.5,2.5-2.5h68.8c6.5,0,11.7,5.2,11.7,11.7S458.2,332.2,451.7,332.2z"/>
	</g>
	<g>
		<g>
			<path d="M248.4,479.6c-65.2,0-118.3-53.1-118.3-118.3S183.2,243,248.4,243s118.3,53.1,118.3,118.3S313.6,479.6,248.4,479.6z
				 M248.4,248c-62.5,0-113.3,50.8-113.3,113.3s50.8,113.3,113.3,113.3c62.5,0,113.3-50.8,113.3-113.3S310.9,248,248.4,248z
				 M248.6,393.1c-16.5,0-29.9-13.4-29.9-29.9c0-16.5,13.4-29.9,29.9-29.9s29.9,13.4,29.9,29.9C278.5,379.7,265.1,393.1,248.6,393.1
				z M248.6,338.3c-13.7,0-24.9,11.2-24.9,24.9c0,13.7,11.2,24.9,24.9,24.9s24.9-11.2,24.9-24.9
				C273.5,349.5,262.3,338.3,248.6,338.3z"/>
		</g>
		<g>
			<path d="M337.6,431.4c-0.6,0-1.1-0.2-1.6-0.6l-61.6-50.1c-1.1-0.9-1.2-2.4-0.4-3.5c0.9-1.1,2.4-1.2,3.5-0.4l61.6,50.1
				c1.1,0.9,1.2,2.4,0.4,3.5C339,431.1,338.3,431.4,337.6,431.4z"/>
		</g>
		<g>
			<path d="M228.4,342.7c-0.6,0-1.1-0.2-1.6-0.6l-67.5-54.8c-1.1-0.9-1.2-2.4-0.4-3.5c0.9-1.1,2.4-1.2,3.5-0.4l67.5,54.8
				c1.1,0.9,1.2,2.4,0.4,3.5C229.8,342.4,229.1,342.7,228.4,342.7z"/>
		</g>
		<g>
			<path d="M169.8,448.8c-0.6,0-1.2-0.2-1.7-0.7c-1-0.9-1.1-2.5-0.1-3.5l56.1-60.9c0.9-1,2.5-1.1,3.5-0.1c1,0.9,1.1,2.5,0.1,3.5
				L171.6,448C171.1,448.5,170.5,448.8,169.8,448.8z"/>
		</g>
		<g>
			<path d="M267.5,342.7c-0.6,0-1.2-0.2-1.7-0.7c-1-0.9-1.1-2.5-0.1-3.5l56.4-61.3c0.9-1,2.5-1.1,3.5-0.1c1,0.9,1.1,2.5,0.1,3.5
				l-56.4,61.3C268.8,342.4,268.2,342.7,267.5,342.7z"/>
		</g>
		<g>
			<path d="M248.4,479.8C248.4,479.8,248.4,479.8,248.4,479.8c-1.4,0-2.5-1.1-2.5-2.5l0.5-84.6c0-1.4,1.1-2.5,2.5-2.5c0,0,0,0,0,0
				c1.4,0,2.5,1.1,2.5,2.5l-0.5,84.6C250.9,478.7,249.8,479.8,248.4,479.8z"/>
		</g>
		<g>
			<path d="M249.4,336.1c-1.4,0-2.5-1.1-2.5-2.5l-1-88.1c0-1.4,1.1-2.5,2.5-2.5c0,0,0,0,0,0c1.4,0,2.5,1.1,2.5,2.5l1,88.1
				C251.9,335,250.8,336.1,249.4,336.1C249.4,336.1,249.4,336.1,249.4,336.1z"/>
		</g>
		<g>
			<path d="M364.1,360.4C364.1,360.4,364.1,360.4,364.1,360.4l-88.2-0.6c-1.4,0-2.5-1.1-2.5-2.5c0-1.4,1.1-2.5,2.5-2.5c0,0,0,0,0,0
				l88.2,0.6c1.4,0,2.5,1.1,2.5,2.5C366.6,359.3,365.5,360.4,364.1,360.4z"/>
		</g>
		<g>
			<path d="M222.1,358.9C222.1,358.9,222.1,358.9,222.1,358.9l-89.4-0.7c-1.4,0-2.5-1.1-2.5-2.5s1.2-2.5,2.5-2.5l89.4,0.7
				c1.4,0,2.5,1.1,2.5,2.5C224.6,357.8,223.5,358.9,222.1,358.9z"/>
		</g>
	</g>
	<g>
		<g>
			<path d="M65.5,233.1c-0.9,0-1.8-0.5-2.3-1.4c-0.6-1.3,0-2.7,1.2-3.3c12.9-6.1,27.4-12,45.8-14.4c11.2-1.6,22.5-2.6,34.5-3.8
				c50.5-4.8,102.6-9.9,141.8-50.7l5-5.2c42.5-44.4,82.6-86.4,151.4-84.3c1.4,0,2.5,1.2,2.4,2.6c0,1.4-1.2,2.4-2.5,2.4
				c0,0,0,0-0.1,0c-66.6-2-105.9,39.2-147.6,82.8l-5,5.2c-40.5,42.1-93.6,47.2-145,52.2c-11.9,1.1-23.2,2.2-34.3,3.8
				c-17.8,2.3-31.8,8.1-44.4,14C66.2,233,65.9,233.1,65.5,233.1z"/>
		</g>
	</g>
</g>
</svg>
