<?xml version="1.0" encoding="utf-8"?>
<!-- Generator: Adobe Illustrator 22.1.0, SVG Export Plug-In . SVG Version: 6.00 Build 0)  -->
<svg version="1.1" id="Layer_1" xmlns="http://www.w3.org/2000/svg" xmlns:xlink="http://www.w3.org/1999/xlink" x="0px" y="0px"
	 viewBox="0 0 512 512" style="enable-background:new 0 0 512 512;" xml:space="preserve">
<g>
	<circle cx="45.7" cy="199.7" r="3.5"/>
	<circle cx="45.7" cy="237.8" r="3.5"/>
	<circle cx="59.7" cy="237.8" r="3.5"/>
	<circle cx="59.7" cy="257.5" r="3.5"/>
	<circle cx="59.7" cy="297.3" r="3.5"/>
	<circle cx="59.7" cy="352.3" r="3.5"/>
	<circle cx="89.7" cy="352.3" r="3.5"/>
	<circle cx="120.7" cy="352.3" r="3.5"/>
	<circle cx="127.7" cy="324" r="3.5"/>
	<circle cx="136.1" cy="297.3" r="3.5"/>
	<circle cx="150.7" cy="274.6" r="3.5"/>
	<circle cx="180.1" cy="254" r="3.5"/>
	<circle cx="217.7" cy="237.8" r="3.5"/>
	<circle cx="267.5" cy="230.8" r="3.5"/>
	<circle cx="310.3" cy="245.5" r="3.5"/>
	<circle cx="341.1" cy="268.9" r="3.5"/>
	<circle cx="364.1" cy="300.8" r="3.5"/>
	<circle cx="376.2" cy="329.7" r="3.5"/>
	<circle cx="376.2" cy="354.2" r="3.5"/>
	<circle cx="415.2" cy="354.2" r="3.5"/>
	<circle cx="454.2" cy="352.3" r="3.5"/>
	<circle cx="454.2" cy="297.3" r="3.5"/>
	<circle cx="454.2" cy="254" r="3.5"/>
	<circle cx="454.2" cy="218.7" r="3.5"/>
	<circle cx="454.2" cy="175.2" r="3.5"/>
	<circle cx="454.2" cy="134.5" r="3.5"/>
	<circle cx="454.2" cy="93.8" r="3.5"/>
	<circle cx="454.2" cy="72.2" r="3.5"/>
	<circle cx="472.6" cy="72.2" r="3.5"/>
	<circle cx="472.6" cy="38.2" r="3.5"/>
	<circle cx="444.2" cy="38.2" r="3.5"/>
	<circle cx="404.2" cy="41.7" r="3.5"/>
	<circle cx="360.6" cy="51.7" r="3.5"/>
	<circle cx="325.7" cy="68.7" r="3.5"/>
	<circle cx="293.2" cy="90.3" r="3.5"/>
	<circle cx="264" cy="116.7" r="3.5"/>
	<circle cx="231.9" cy="145.2" r="3.5"/>
	<circle cx="192.7" cy="171.7" r="3.5"/>
	<circle cx="147.2" cy="182.2" r="3.5"/>
	<circle cx="108.7" cy="182.2" r="3.5"/>
	<circle cx="73.7" cy="185.7" r="3.5"/>
</g>
</svg>
