<?xml version="1.0" encoding="utf-8"?>
<!-- Generator: Adobe Illustrator 22.1.0, SVG Export Plug-In . SVG Version: 6.00 Build 0)  -->
<svg version="1.1" id="Layer_2_1_" xmlns="http://www.w3.org/2000/svg" xmlns:xlink="http://www.w3.org/1999/xlink" x="0px" y="0px"
	 viewBox="0 0 512 512" style="enable-background:new 0 0 512 512;" xml:space="preserve">
<g>
	<g>
		<path d="M102,343.5H29c-1.4,0-2.5-1.1-2.5-2.5V218c0-1.4,1.1-2.5,2.5-2.5h73c1.4,0,2.5,1.1,2.5,2.5v123
			C104.5,342.4,103.4,343.5,102,343.5z M31.5,338.5h68v-118h-68V338.5z"/>
	</g>
	<g>
		<path d="M193.5,307h-73c-1.4,0-2.5-1.1-2.5-2.5v-29c0-1.4,1.1-2.5,2.5-2.5h73c1.4,0,2.5,1.1,2.5,2.5v29
			C196,305.9,194.9,307,193.5,307z M123,302h68v-24h-68V302z"/>
	</g>
	<g>
		<path d="M283.2,307h-73c-1.4,0-2.5-1.1-2.5-2.5v-29c0-1.4,1.1-2.5,2.5-2.5h73c1.4,0,2.5,1.1,2.5,2.5v29
			C285.7,305.9,284.6,307,283.2,307z M212.7,302h68v-24h-68V302z"/>
	</g>
	<g>
		<path d="M372.8,307h-73c-1.4,0-2.5-1.1-2.5-2.5v-29c0-1.4,1.1-2.5,2.5-2.5h73c1.4,0,2.5,1.1,2.5,2.5v29
			C375.3,305.9,374.2,307,372.8,307z M302.3,302h68v-24h-68V302z"/>
	</g>
	<g>
		<path d="M144.5,395c-16.8,0-30.5-13.7-30.5-30.5s13.7-30.5,30.5-30.5s30.5,13.7,30.5,30.5S161.3,395,144.5,395z M144.5,339
			c-14.1,0-25.5,11.4-25.5,25.5s11.4,25.5,25.5,25.5s25.5-11.4,25.5-25.5S158.6,339,144.5,339z"/>
	</g>
	<g>
		<path d="M432.5,395c-16.8,0-30.5-13.7-30.5-30.5s13.7-30.5,30.5-30.5s30.5,13.7,30.5,30.5S449.3,395,432.5,395z M432.5,339
			c-14.1,0-25.5,11.4-25.5,25.5s11.4,25.5,25.5,25.5s25.5-11.4,25.5-25.5S446.6,339,432.5,339z"/>
	</g>
	<g>
		<path d="M462.5,307h-73c-1.4,0-2.5-1.1-2.5-2.5v-29c0-1.4,1.1-2.5,2.5-2.5h73c1.4,0,2.5,1.1,2.5,2.5v29
			C465,305.9,463.9,307,462.5,307z M392,302h68v-24h-68V302z"/>
	</g>
	<g>
		<path d="M192.5,211h-73c-1.4,0-2.5-1.1-2.5-2.5v-29c0-1.4,1.1-2.5,2.5-2.5h73c1.4,0,2.5,1.1,2.5,2.5v29
			C195,209.9,193.9,211,192.5,211z M122,206h68v-24h-68V206z"/>
	</g>
	<g>
		<path d="M282.2,211h-73c-1.4,0-2.5-1.1-2.5-2.5v-29c0-1.4,1.1-2.5,2.5-2.5h73c1.4,0,2.5,1.1,2.5,2.5v29
			C284.7,209.9,283.6,211,282.2,211z M211.7,206h68v-24h-68V206z"/>
	</g>
	<g>
		<path d="M371.8,211h-73c-1.4,0-2.5-1.1-2.5-2.5v-29c0-1.4,1.1-2.5,2.5-2.5h73c1.4,0,2.5,1.1,2.5,2.5v29
			C374.3,209.9,373.2,211,371.8,211z M301.3,206h68v-24h-68V206z"/>
	</g>
	<g>
		<path d="M461.5,211h-73c-1.4,0-2.5-1.1-2.5-2.5v-29c0-1.4,1.1-2.5,2.5-2.5h73c1.4,0,2.5,1.1,2.5,2.5v29
			C464,209.9,462.9,211,461.5,211z M391,206h68v-24h-68V206z"/>
	</g>
</g>
</svg>
