<?xml version="1.0" encoding="utf-8"?>
<!-- Generator: Adobe Illustrator 22.1.0, SVG Export Plug-In . SVG Version: 6.00 Build 0)  -->
<svg version="1.1" id="Layer_1" xmlns="http://www.w3.org/2000/svg" xmlns:xlink="http://www.w3.org/1999/xlink" x="0px" y="0px"
	 viewBox="0 0 512 512" style="enable-background:new 0 0 512 512;" xml:space="preserve">
<g>
	<circle cx="99" cy="154" r="3.5"/>
	<circle cx="142" cy="154" r="3.5"/>
	<circle cx="184.9" cy="154" r="3.5"/>
	<circle cx="227.9" cy="154" r="3.5"/>
	<circle cx="270.9" cy="154" r="3.5"/>
	<circle cx="313.9" cy="154" r="3.5"/>
	<circle cx="356.8" cy="154" r="3.5"/>
	<circle cx="399.8" cy="154" r="3.5"/>
	<circle cx="442.8" cy="154" r="3.5"/>
	<circle cx="485.8" cy="154" r="3.5"/>
	<circle cx="485.8" cy="194.4" r="3.5"/>
	<circle cx="485.8" cy="234.8" r="3.5"/>
	<circle cx="485.8" cy="275.3" r="3.5"/>
	<circle cx="485.8" cy="315.7" r="3.5"/>
	<circle cx="485.8" cy="356" r="3.5"/>
	<circle cx="473" cy="356" r="3.5"/>
	<circle cx="458.5" cy="332.9" r="3.5"/>
	<circle cx="429.4" cy="319.9" r="3.5"/>
	<circle cx="404.9" cy="330.7" r="3.5"/>
	<circle cx="391.9" cy="356" r="3.5"/>
	<circle cx="344.4" cy="356" r="3.5"/>
	<circle cx="290.9" cy="356" r="3.5"/>
	<circle cx="237.4" cy="356" r="3.5"/>
	<circle cx="183.9" cy="356" r="3.5"/>
	<circle cx="171" cy="333" r="3.5"/>
	<circle cx="144.2" cy="322.8" r="3.5"/>
	<circle cx="118" cy="332.7" r="3.5"/>
	<circle cx="107.3" cy="356" r="3.5"/>
	<circle cx="58.8" cy="356" r="3.5"/>
	<circle cx="18.3" cy="356" r="3.5"/>
	<circle cx="18.3" cy="319.6" r="3.5"/>
	<circle cx="18.3" cy="283.3" r="3.5"/>
	<circle cx="18.3" cy="246.9" r="3.5"/>
	<circle cx="18.3" cy="210.6" r="3.5"/>
	<circle cx="26.5" cy="167.4" r="3.5"/>
	<circle cx="56" cy="154" r="3.5"/>
</g>
</svg>
