<?xml version="1.0" encoding="utf-8"?>
<!-- Generator: Adobe Illustrator 22.1.0, SVG Export Plug-In . SVG Version: 6.00 Build 0)  -->
<svg version="1.1" id="Layer_1" xmlns="http://www.w3.org/2000/svg" xmlns:xlink="http://www.w3.org/1999/xlink" x="0px" y="0px"
	 viewBox="0 0 512 512" style="enable-background:new 0 0 512 512;" xml:space="preserve">
<g>
	<circle cx="65.6" cy="166.8" r="3.5"/>
	<circle cx="48.2" cy="196.1" r="3.5"/>
	<circle cx="34.6" cy="216.3" r="3.5"/>
	<circle cx="27.3" cy="241" r="3.5"/>
	<circle cx="27.3" cy="273.4" r="3.5"/>
	<circle cx="27.3" cy="305.7" r="3.5"/>
	<circle cx="10.6" cy="306" r="3.5"/>
	<circle cx="10.6" cy="330.3" r="3.5"/>
	<circle cx="27.3" cy="330" r="3.5"/>
	<circle cx="60.1" cy="330.4" r="3.5"/>
	<circle cx="69.1" cy="309.5" r="3.5"/>
	<circle cx="85.2" cy="292.5" r="3.5"/>
	<circle cx="109.9" cy="285.5" r="3.5"/>
	<circle cx="133.9" cy="294.1" r="3.5"/>
	<circle cx="149.4" cy="307.5" r="3.5"/>
	<circle cx="158.2" cy="330.3" r="3.5"/>
	<circle cx="183.7" cy="330.3" r="3.5"/>
	<circle cx="217.6" cy="330.3" r="3.5"/>
	<circle cx="258.7" cy="328.5" r="3.5"/>
	<circle cx="292.9" cy="328.5" r="3.5"/>
	<circle cx="331.4" cy="330.3" r="3.5"/>
	<circle cx="339.5" cy="312.2" r="3.5"/>
	<circle cx="356.7" cy="294.1" r="3.5"/>
	<circle cx="386.9" cy="285.5" r="3.5"/>
	<circle cx="412.4" cy="294.1" r="3.5"/>
	<circle cx="429.6" cy="312.2" r="3.5"/>
	<circle cx="433.1" cy="328.5" r="3.5"/>
	<circle cx="462.6" cy="330.3" r="3.5"/>
	<circle cx="497.1" cy="330.3" r="3.5"/>
	<circle cx="497.1" cy="309.3" r="3.5"/>
	<circle cx="483.4" cy="309.3" r="3.5"/>
	<circle cx="483.4" cy="278.5" r="3.5"/>
	<circle cx="483.4" cy="245.3" r="3.5"/>
	<circle cx="483.4" cy="208.5" r="3.5"/>
	<circle cx="483.4" cy="166.8" r="3.5"/>
	<circle cx="462.6" cy="166.8" r="3.5"/>
	<circle cx="433.9" cy="166.8" r="3.5"/>
	<circle cx="389.2" cy="166.8" r="3.5"/>
	<circle cx="345.9" cy="166.8" r="3.5"/>
	<circle cx="307.2" cy="166.8" r="3.5"/>
	<circle cx="247.3" cy="166.8" r="3.5"/>
	<circle cx="247.3" cy="196.1" r="3.5"/>
	<circle cx="226.4" cy="196.1" r="3.5"/>
	<circle cx="226.4" cy="166.8" r="3.5"/>
	<circle cx="184.7" cy="166.8" r="3.5"/>
	<circle cx="150.3" cy="166.8" r="3.5"/>
	<circle cx="115" cy="166.8" r="3.5"/>
	<circle cx="90.7" cy="166.8" r="3.5"/>
</g>
</svg>
