<?xml version="1.0" encoding="utf-8"?>
<!-- Generator: Adobe Illustrator 22.1.0, SVG Export Plug-In . SVG Version: 6.00 Build 0)  -->
<svg version="1.1" id="Layer_1" xmlns="http://www.w3.org/2000/svg" xmlns:xlink="http://www.w3.org/1999/xlink" x="0px" y="0px"
	 viewBox="0 0 512 512" style="enable-background:new 0 0 512 512;" xml:space="preserve">
<g>
	<g>
		<path d="M102.4,249.9H40.6c-0.9,0-1.7-0.4-2.1-1.2c-0.5-0.7-0.5-1.6-0.2-2.4l25.8-55.2c0.4-0.9,1.3-1.4,2.3-1.4h36
			c1.4,0,2.5,1.1,2.5,2.5v55.2C104.9,248.8,103.8,249.9,102.4,249.9z M44.5,244.9h55.4v-50.2H68L44.5,244.9z"/>
	</g>
	<g>
		<path d="M453.9,168.7c-1.4,0-2.5-1.1-2.5-2.5v-9.8c0-5.6-4.6-10.2-10.2-10.2H286.9c-5.7,0-10.4,4.6-10.4,10.2v9.8
			c0,1.4-1.1,2.5-2.5,2.5s-2.5-1.1-2.5-2.5v-9.8c0-8.4,6.9-15.2,15.4-15.2h154.3c8.4,0,15.2,6.8,15.2,15.2v9.8
			C456.4,167.6,455.3,168.7,453.9,168.7z"/>
	</g>
	<g>
		<path d="M104.2,178.3c-1.4,0-2.5-1.1-2.5-2.5V159c0-6.1-4.9-11-11-11s-11,4.9-11,11v16.8c0,1.4-1.1,2.5-2.5,2.5s-2.5-1.1-2.5-2.5
			V159c0-8.8,7.2-16,16-16s16,7.2,16,16v16.8C106.7,177.2,105.6,178.3,104.2,178.3z"/>
	</g>
	<g>
		<path d="M497.1,185.7H269.7c-1.4,0-2.5-1.1-2.5-2.5s1.1-2.5,2.5-2.5h227.4c1.4,0,2.5,1.1,2.5,2.5S498.5,185.7,497.1,185.7z"/>
	</g>
	<g>
		<path d="M497.1,233.1H269.7c-1.4,0-2.5-1.1-2.5-2.5s1.1-2.5,2.5-2.5h227.4c1.4,0,2.5,1.1,2.5,2.5S498.5,233.1,497.1,233.1z"/>
	</g>
	<g>
		<path d="M109.9,379.1c-23.2,0-42-18.8-42-42s18.8-42,42-42s42,18.8,42,42S133.1,379.1,109.9,379.1z M109.9,300.1
			c-20.4,0-37,16.6-37,37s16.6,37,37,37s37-16.6,37-37S130.3,300.1,109.9,300.1z"/>
	</g>
	<g>
		<path d="M382.6,379.1c-23.2,0-42-18.8-42-42s18.8-42,42-42s42,18.8,42,42S405.8,379.1,382.6,379.1z M382.6,300.1
			c-20.4,0-37,16.6-37,37s16.6,37,37,37s37-16.6,37-37S403,300.1,382.6,300.1z"/>
	</g>
	<g>
		<path d="M292.9,232.9c-1.4,0-2.5-1.1-2.5-2.5v-47.2c0-1.4,1.1-2.5,2.5-2.5s2.5,1.1,2.5,2.5v47.2
			C295.4,231.8,294.3,232.9,292.9,232.9z"/>
	</g>
	<g>
		<path d="M325.6,232.9c-1.4,0-2.5-1.1-2.5-2.5v-47.2c0-1.4,1.1-2.5,2.5-2.5s2.5,1.1,2.5,2.5v47.2
			C328.1,231.8,327,232.9,325.6,232.9z"/>
	</g>
	<g>
		<path d="M360.2,232.9c-1.4,0-2.5-1.1-2.5-2.5v-47.2c0-1.4,1.1-2.5,2.5-2.5s2.5,1.1,2.5,2.5v47.2
			C362.7,231.8,361.6,232.9,360.2,232.9z"/>
	</g>
	<g>
		<path d="M395.2,232.9c-1.4,0-2.5-1.1-2.5-2.5v-47.2c0-1.4,1.1-2.5,2.5-2.5s2.5,1.1,2.5,2.5v47.2
			C397.7,231.8,396.6,232.9,395.2,232.9z"/>
	</g>
	<g>
		<path d="M427.9,232.9c-1.4,0-2.5-1.1-2.5-2.5v-47.2c0-1.4,1.1-2.5,2.5-2.5s2.5,1.1,2.5,2.5v47.2
			C430.4,231.8,429.3,232.9,427.9,232.9z"/>
	</g>
	<g>
		<path d="M462.6,232.9c-1.4,0-2.5-1.1-2.5-2.5v-47.2c0-1.4,1.1-2.5,2.5-2.5s2.5,1.1,2.5,2.5v47.2
			C465.1,231.8,464,232.9,462.6,232.9z"/>
	</g>
</g>
</svg>
