<?xml version="1.0" encoding="utf-8"?>
<!-- Generator: Adobe Illustrator 22.1.0, SVG Export Plug-In . SVG Version: 6.00 Build 0)  -->
<svg version="1.1" id="Layer_2_1_" xmlns="http://www.w3.org/2000/svg" xmlns:xlink="http://www.w3.org/1999/xlink" x="0px" y="0px"
	 viewBox="0 0 512 512" style="enable-background:new 0 0 512 512;" xml:space="preserve">
<g>
	<g>
		<path d="M391.3,315.8c-20.7,0-37.6-16.9-37.6-37.6s16.9-37.6,37.6-37.6c20.7,0,37.6,16.9,37.6,37.6S412,315.8,391.3,315.8z
			 M391.3,245.6c-18,0-32.6,14.6-32.6,32.6s14.6,32.6,32.6,32.6s32.6-14.6,32.6-32.6S409.3,245.6,391.3,245.6z"/>
	</g>
	<g>
		<path d="M490.5,273.8H461c-1.4,0-2.5-1.1-2.5-2.5s1.1-2.5,2.5-2.5h29.5c1.4,0,2.5,1.1,2.5,2.5S491.9,273.8,490.5,273.8z"/>
	</g>
	<g>
		<path d="M499.5,307c-0.9,0-1.7-0.5-2.2-1.3c-17.4-31.7-0.8-68.7-0.1-70.2c0.6-1.3,2.1-1.8,3.3-1.2c1.3,0.6,1.8,2.1,1.2,3.3
			c-0.2,0.4-16.3,36.3-0.1,65.8c0.7,1.2,0.2,2.7-1,3.4C500.3,306.9,499.9,307,499.5,307z"/>
	</g>
	<g>
		<g>
			<path d="M94.3,315.8c-20.7,0-37.6-16.9-37.6-37.6s16.9-37.6,37.6-37.6c20.7,0,37.6,16.9,37.6,37.6S115,315.8,94.3,315.8z
				 M94.3,245.6c-18,0-32.6,14.6-32.6,32.6s14.6,32.6,32.6,32.6s32.6-14.6,32.6-32.6S112.3,245.6,94.3,245.6z"/>
		</g>
	</g>
	<g>
		<path d="M407.5,205.2h-91.7c-1.4,0-2.5-1.1-2.5-2.5v-60.5c0-1.4,1.1-2.5,2.5-2.5h62.5c1,0,1.8,0.5,2.3,1.4l29.2,60.5
			c0.4,0.8,0.3,1.7-0.1,2.4C409.2,204.8,408.4,205.2,407.5,205.2z M318.3,200.2h85.2l-26.8-55.5h-58.4V200.2z"/>
	</g>
	<g>
		<path d="M287.5,209.5H23c-1.4,0-2.5-1.1-2.5-2.5s1.1-2.5,2.5-2.5h262V128c0-1.4,1.1-2.5,2.5-2.5s2.5,1.1,2.5,2.5v79
			C290,208.4,288.9,209.5,287.5,209.5z"/>
	</g>
</g>
</svg>
