<?xml version="1.0" encoding="utf-8"?>
<!-- Generator: Adobe Illustrator 22.1.0, SVG Export Plug-In . SVG Version: 6.00 Build 0)  -->
<svg version="1.1" id="Layer_1" xmlns="http://www.w3.org/2000/svg" xmlns:xlink="http://www.w3.org/1999/xlink" x="0px" y="0px"
	 viewBox="0 0 512 512" style="enable-background:new 0 0 512 512;" xml:space="preserve">
<g>
	<circle cx="10.5" cy="143.5" r="3.5"/>
	<circle cx="10.5" cy="173.5" r="3.5"/>
	<circle cx="10.5" cy="200.5" r="3.5"/>
	<circle cx="9.5" cy="232.5" r="3.5"/>
	<circle cx="9.5" cy="256.5" r="3.5"/>
	<circle cx="10.5" cy="278.5" r="3.5"/>
	<circle cx="38.5" cy="278.5" r="3.5"/>
	<circle cx="45.5" cy="252.5" r="3.5"/>
	<circle cx="67.5" cy="232.5" r="3.5"/>
	<circle cx="97.5" cy="225.5" r="3.5"/>
	<circle cx="122.5" cy="232.5" r="3.5"/>
	<circle cx="136.5" cy="249.5" r="3.5"/>
	<circle cx="141.5" cy="275.5" r="3.5"/>
	<circle cx="172.5" cy="275.5" r="3.5"/>
	<circle cx="207.5" cy="275.5" r="3.5"/>
	<circle cx="241.5" cy="275.5" r="3.5"/>
	<circle cx="272.5" cy="275.5" r="3.5"/>
	<circle cx="304.5" cy="275.5" r="3.5"/>
	<circle cx="337.5" cy="275.5" r="3.5"/>
	<circle cx="347.5" cy="250.5" r="3.5"/>
	<circle cx="371.5" cy="229.5" r="3.5"/>
	<circle cx="401.5" cy="225.5" r="3.5"/>
	<circle cx="422.5" cy="236.5" r="3.5"/>
	<circle cx="436.5" cy="250.5" r="3.5"/>
	<circle cx="440.5" cy="272.5" r="3.5"/>
	<circle cx="451.5" cy="269.5" r="3.5"/>
	<circle cx="451.5" cy="248.5" r="3.5"/>
	<circle cx="450.5" cy="210.5" r="3.5"/>
	<circle cx="436.5" cy="187.5" r="3.5"/>
	<circle cx="418.5" cy="163.5" r="3.5"/>
	<circle cx="404.5" cy="138.5" r="3.5"/>
	<circle cx="390.5" cy="118.5" r="3.5"/>
	<circle cx="352.5" cy="118.5" r="3.5"/>
	<circle cx="314.5" cy="119.5" r="3.5"/>
	<circle cx="275.5" cy="118.5" r="3.5"/>
	<circle cx="259.5" cy="131.5" r="3.5"/>
	<circle cx="241.5" cy="142.5" r="3.5"/>
	<circle cx="211.5" cy="142.5" r="3.5"/>
	<circle cx="175.5" cy="143.5" r="3.5"/>
	<circle cx="134.5" cy="143.5" r="3.5"/>
	<circle cx="102.5" cy="142.5" r="3.5"/>
	<circle cx="61.5" cy="143.5" r="3.5"/>
	<circle cx="34.5" cy="142.5" r="3.5"/>
</g>
</svg>
