<?xml version="1.0" encoding="utf-8"?>
<!-- Generator: Adobe Illustrator 22.1.0, SVG Export Plug-In . SVG Version: 6.00 Build 0)  -->
<svg version="1.1" id="Layer_1" xmlns="http://www.w3.org/2000/svg" xmlns:xlink="http://www.w3.org/1999/xlink" x="0px" y="0px"
	 viewBox="0 0 512 512" style="enable-background:new 0 0 512 512;" xml:space="preserve">
<g>
	<circle cx="56.8" cy="238.6" r="3.5"/>
	<circle cx="56.8" cy="262.7" r="3.5"/>
	<circle cx="56.8" cy="289" r="3.5"/>
	<circle cx="38.2" cy="289" r="3.5"/>
	<circle cx="18.7" cy="289" r="3.5"/>
	<circle cx="18.7" cy="308" r="3.5"/>
	<circle cx="18.7" cy="327" r="3.5"/>
	<circle cx="44.9" cy="327" r="3.5"/>
	<circle cx="69.6" cy="327" r="3.5"/>
	<circle cx="78.9" cy="299.7" r="3.5"/>
	<circle cx="100" cy="279.6" r="3.5"/>
	<circle cx="126.7" cy="275.8" r="3.5"/>
	<circle cx="153.3" cy="279.3" r="3.5"/>
	<circle cx="173.3" cy="292.5" r="3.5"/>
	<circle cx="184" cy="311.7" r="3.5"/>
	<circle cx="187.5" cy="327" r="3.5"/>
	<circle cx="215.3" cy="328.5" r="3.5"/>
	<circle cx="255" cy="328.5" r="3.5"/>
	<circle cx="289" cy="328.5" r="3.5"/>
	<circle cx="324.5" cy="328.5" r="3.5"/>
	<circle cx="333.7" cy="302.5" r="3.5"/>
	<circle cx="354.7" cy="278" r="3.5"/>
	<circle cx="387" cy="268.8" r="3.5"/>
	<circle cx="415.8" cy="278" r="3.5"/>
	<circle cx="433.3" cy="293.7" r="3.5"/>
	<circle cx="443.5" cy="309.5" r="3.5"/>
	<circle cx="443.7" cy="329.4" r="3.5"/>
	<circle cx="468.7" cy="329.4" r="3.5"/>
	<circle cx="487.9" cy="328.5" r="3.5"/>
	<circle cx="487.9" cy="306" r="3.5"/>
	<circle cx="468.7" cy="306" r="3.5"/>
	<circle cx="457" cy="306" r="3.5"/>
	<circle cx="457" cy="274.5" r="3.5"/>
	<circle cx="458.2" cy="238.8" r="3.5"/>
	<circle cx="435.2" cy="238.4" r="3.5"/>
	<circle cx="433.3" cy="198.3" r="3.5"/>
	<circle cx="390.5" cy="198.3" r="3.5"/>
	<circle cx="362.1" cy="197.7" r="3.5"/>
	<circle cx="331.7" cy="197.7" r="3.5"/>
	<circle cx="334.2" cy="234.7" r="3.5"/>
	<circle cx="306.5" cy="234.7" r="3.5"/>
	<circle cx="299.5" cy="253.5" r="3.5"/>
	<circle cx="289.2" cy="272.3" r="3.5"/>
	<circle cx="257.5" cy="272.3" r="3.5"/>
	<circle cx="227.8" cy="272.3" r="3.5"/>
	<circle cx="193.3" cy="271.7" r="3.5"/>
	<circle cx="176.8" cy="238.6" r="3.5"/>
	<circle cx="142.2" cy="238.2" r="3.5"/>
	<circle cx="93" cy="238.6" r="3.5"/>
</g>
</svg>
