<?xml version="1.0" encoding="utf-8"?>
<!-- Generator: Adobe Illustrator 22.1.0, SVG Export Plug-In . SVG Version: 6.00 Build 0)  -->
<svg version="1.1" id="Layer_1" xmlns="http://www.w3.org/2000/svg" xmlns:xlink="http://www.w3.org/1999/xlink" x="0px" y="0px"
	 viewBox="0 0 512 512" style="enable-background:new 0 0 512 512;" xml:space="preserve">
<style type="text/css">
	.st0{display:none;}
	.st1{display:inline;}
</style>
<g>
	<g>
		<path d="M443.5,238.2c-0.6,0-1.2-0.2-1.7-0.6l-41.5-37.5l-76.8-69v102.3c0,1.4-1.1,2.5-2.5,2.5s-2.5-1.1-2.5-2.5v-108
			c0-1,0.6-1.9,1.5-2.3s2-0.2,2.7,0.4l81,72.8l41.5,37.5c1,0.9,1.1,2.5,0.2,3.5C444.9,237.9,444.2,238.2,443.5,238.2z"/>
	</g>
	<g>
		<path d="M168.1,240.9c-0.2,0-0.4,0-0.7-0.1c-1.3-0.4-2.1-1.7-1.8-3.1l22.3-82.4c0.4-1.3,1.7-2.1,3.1-1.8c1.3,0.4,2.1,1.7,1.8,3.1
			L170.5,239C170.2,240.2,169.2,240.9,168.1,240.9z"/>
	</g>
	<g>
		<g id="_x30_1_1_" class="st0">
			<g class="st1">
				<path d="M127.6,388.6c-1.3,0-2.4-1-2.5-2.3v-0.1c-1.4-0.1-2.7-0.2-4.1-0.4v0.1c-0.4,1.3-1.8,2-3,1.6l-7.1-2
					c-0.7-0.2-1.2-0.6-1.5-1.2c-0.3-0.5-0.4-1.1-0.2-1.7c-1.1-0.4-2.3-1-3.4-1.6c-0.8,1.1-2.2,1.3-3.4,0.6l-6.1-3.9
					c-0.6-0.4-1-0.9-1.1-1.6c-0.1-0.6,0-1.2,0.3-1.7c-1-0.8-2-1.7-2.9-2.6l0,0c-0.5,0.4-1.2,0.6-1.8,0.6c-0.7-0.1-1.3-0.4-1.7-0.9
					l-4.6-5.6c-0.9-1.1-0.7-2.6,0.3-3.5h0.1c-0.7-1.1-1.4-2.2-2-3.3l0,0c-1.3,0.5-2.7-0.2-3.2-1.4l-2.6-6.7c-0.2-0.6-0.2-1.3,0-1.9
					c0.3-0.6,0.7-1,1.3-1.3c-0.3-1.1-0.6-2.4-0.9-3.7c-0.7,0.1-1.3-0.2-1.8-0.6s-0.8-1.1-0.9-1.7l-0.5-7.2c-0.1-1.4,0.9-2.5,2.3-2.7
					h0.1c0.1-1.4,0.2-2.7,0.3-3.9c-0.6-0.2-1.1-0.6-1.4-1.1c-0.3-0.6-0.4-1.3-0.3-1.9l1.8-7.1c0.3-1.3,1.6-2.1,2.9-1.8
					c0.4-1.2,0.9-2.3,1.5-3.5l0,0c-0.6-0.3-1-0.9-1.1-1.6c-0.2-0.7,0-1.3,0.3-1.9l3.8-6.1c0.7-1.2,2.2-1.5,3.4-0.8l0.1,0.1
					c0.8-1,1.6-2,2.5-2.9c-0.4-0.5-0.6-1.1-0.6-1.7c0-0.7,0.4-1.3,0.9-1.8l5.6-4.8c1-0.9,2.5-0.8,3.4,0.2c1.1-0.8,2.3-1.5,3.5-2.1
					l0,0c-0.5-1.3,0.1-2.7,1.4-3.2l6.7-2.8c0.6-0.3,1.3-0.3,1.9,0c0.6,0.2,1,0.7,1.3,1.2c2.9-0.8,5.6-1.4,8.2-1.7l0,0
					c0-1.4,1.1-2.5,2.5-2.5h7.2c1.4,0,2.5,1.1,2.5,2.5l0,0c1.3,0.1,2.6,0.3,3.9,0.6c0.4-1.3,1.8-1.9,3.1-1.6l6.9,2.1
					c0.6,0.2,1.2,0.6,1.5,1.2s0.4,1.3,0.2,1.9c1.1,0.5,2.2,1.1,3.4,1.7l0,0c0.4-0.5,1-0.9,1.6-1c0.7-0.1,1.3,0.1,1.9,0.4l5.9,4.3
					c1.1,0.8,1.4,2.3,0.6,3.4c1,0.9,1.9,1.8,2.8,2.7l0,0c1.1-0.8,2.7-0.6,3.5,0.5l4.3,5.8c0.4,0.5,0.6,1.2,0.5,1.9
					c-0.1,0.6-0.4,1.2-0.9,1.6c0.6,1.1,1.2,2.2,1.7,3.4l0,0c0.6-0.2,1.3-0.2,1.9,0.1c0.6,0.3,1,0.8,1.3,1.4l2.3,6.9
					c0.4,1.3-0.2,2.7-1.5,3.1c0.3,1.2,0.5,2.5,0.7,3.8h0.1c1.4,0,2.5,1.1,2.5,2.4l0.2,7.2c0,1.2-0.8,2.3-2.1,2.5h-0.2
					c-0.1,1.5-0.3,3-0.6,4.3l0,0c1.3,0.4,2,1.8,1.6,3.1l-2.1,6.9c-0.2,0.6-0.6,1.2-1.2,1.5c-0.6,0.3-1.2,0.4-1.8,0.2
					c-0.5,1.2-1.1,2.4-1.7,3.5l0,0c1.1,0.8,1.4,2.3,0.6,3.5l-4.1,5.9c-0.4,0.6-1,0.9-1.6,1s-1.3,0-1.8-0.4c-0.8,1-1.7,1.9-2.7,2.8
					l0,0c0.8,1.1,0.6,2.6-0.5,3.5l-5.8,4.4c-0.5,0.4-1.2,0.6-1.9,0.5c-0.6-0.1-1.2-0.4-1.6-1c-1.1,0.7-2.2,1.3-3.3,1.8
					c0.2,0.6,0.2,1.3-0.1,1.9s-0.8,1.1-1.4,1.3l-6.7,2.5c-1.3,0.5-2.7-0.2-3.2-1.4c-1.2,0.3-2.4,0.5-3.7,0.7c0,0.7-0.2,1.3-0.6,1.8
					c-0.5,0.5-1.1,0.8-1.8,0.8l-7.2,0.3C127.7,388.6,127.6,388.6,127.6,388.6z M119.3,380.5c0.2,0,0.3,0,0.5,0
					c2.6,0.5,5.1,0.8,7.6,0.8c1.3,0,2.3,1,2.5,2.2l2.2-0.1c0-1.2,1-2.3,2.2-2.4c2.8-0.3,5.2-0.8,7.4-1.5c1.2-0.4,2.5,0.2,3,1.3
					l2-0.8c-0.3-1.1,0.2-2.4,1.3-2.9c2.2-1,4.3-2.2,6.9-3.8c1-0.6,2.3-0.4,3.1,0.4l1.8-1.4c-0.6-1-0.4-2.3,0.5-3.1
					c2-1.8,3.8-3.8,5.4-5.7c0.8-0.9,2.1-1.1,3.1-0.6l1.3-1.8c-0.9-0.8-1.1-2.1-0.5-3.1c1.3-2.3,2.4-4.7,3.3-7.1
					c0.4-1.1,1.6-1.8,2.8-1.6l0.7-2.1c-1.1-0.5-1.7-1.6-1.5-2.8c0.5-2.8,1-5.2,1-7.6c0-1.2,0.9-2.2,2.1-2.5h0.1l-0.1-2.6
					c-1.2-0.1-2.2-1-2.4-2.2c-0.3-2.6-0.7-5.1-1.4-7.5c-0.3-1.2,0.3-2.4,1.4-2.9l-0.7-2.2c-1.1,0.2-2.3-0.3-2.8-1.4l-0.3-0.7
					c-1-2.2-2-4.2-3.3-6.1c-0.7-1-0.5-2.4,0.4-3.2l-1.3-1.8c-1,0.6-2.3,0.4-3.1-0.5c-1.6-1.8-3.5-3.6-5.6-5.4
					c-0.9-0.8-1.1-2.1-0.6-3.1l-1.9-1.4c-0.8,0.8-2,1.1-3.1,0.5c-2.6-1.5-4.9-2.6-6.9-3.5c-1.1-0.5-1.7-1.6-1.5-2.8l-2.1-0.7
					c-0.5,1.1-1.7,1.7-2.9,1.4c-2.6-0.7-5.3-1-7.6-1.1c-1.2-0.1-2.2-1.1-2.3-2.3h-2.2c-0.1,1.2-1.1,2.2-2.3,2.3
					c-3.7,0.3-7.4,1-11.6,2.4c-1.1,0.4-2.3-0.1-2.9-1.1l-2.2,0.9c0.3,1.1-0.2,2.4-1.2,2.9c-2.5,1.3-4.6,2.5-6.5,4
					c-1,0.8-2.4,0.7-3.3-0.1l-1.8,1.6c0.6,1,0.5,2.3-0.3,3.1c-1.7,1.7-3.3,3.5-5.1,5.9c-0.7,1-2.1,1.2-3.2,0.7l-1.2,1.9
					c1,0.7,1.3,2.1,0.8,3.2c-1.2,2.3-2.2,4.6-2.9,7c-0.4,1.1-1.5,1.9-2.7,1.7l-0.6,2.3c1.1,0.4,1.7,1.6,1.5,2.8
					c-0.4,2.3-0.7,4.8-0.7,7.6c0,1.2-0.9,2.3-2.1,2.5l0.2,2.2c1.3,0,2.3,0.9,2.5,2.2c0.3,2.2,0.8,4.7,1.7,7.4c0.4,1.2-0.2,2.4-1.2,3
					l0.8,2.1c1.2-0.3,2.4,0.2,2.9,1.3c1.1,2.2,2.4,4.4,3.9,6.5c0.7,1,0.6,2.4-0.3,3.3l1.4,1.7c1-0.7,2.5-0.6,3.3,0.4
					c1.5,1.7,3.5,3.4,5.7,5c1,0.7,1.3,2,0.8,3.1l1.9,1.2c0.8-0.9,2.1-1.2,3.1-0.6c2.5,1.4,4.8,2.4,6.9,3.1c0.6,0.2,1.2,0.6,1.5,1.2
					c0.2,0.5,0.3,1,0.2,1.5l2.3,0.7C117.4,381.1,118.3,380.5,119.3,380.5z"/>
			</g>
			<g class="st1">
				<path d="M128.7,369c-19.2,0-34.8-15.6-34.8-34.8s15.6-34.8,34.8-34.8s34.8,15.6,34.8,34.8S147.9,369,128.7,369z M128.7,304.4
					c-16.4,0-29.8,13.4-29.8,29.8s13.4,29.8,29.8,29.8s29.8-13.4,29.8-29.8S145.1,304.4,128.7,304.4z"/>
			</g>
		</g>
		<g id="_x30_2_1_" class="st0">
			<g class="st1">
				<path d="M127.5,389.6c-0.1,0-0.2,0-0.2,0l-7.2-0.7c-1.4-0.1-2.4-1.3-2.2-2.7v-0.1c-1.2-0.3-2.4-0.6-3.7-0.9
					c-0.3,0.6-0.7,1.1-1.4,1.4c-0.6,0.3-1.4,0.2-2,0l-6.6-3c-1.2-0.5-1.8-1.9-1.3-3.1c-1.1-0.6-2.3-1.4-3.4-2.2
					c-0.9,1-2.5,1-3.5,0.1l-5.4-4.8c-0.5-0.4-0.8-1.1-0.8-1.8c0-0.6,0.2-1.2,0.6-1.7c-0.9-1-1.7-2-2.5-3h-0.1
					c-1.2,0.7-2.7,0.3-3.4-0.9l-3.8-6.3c-0.3-0.6-0.4-1.3-0.3-1.9c0.2-0.6,0.6-1.2,1.1-1.5l0,0c-0.5-1.2-1-2.4-1.5-3.7
					c-0.6,0.1-1.2,0-1.8-0.3c-0.6-0.4-1-0.9-1.1-1.6l-1.6-7.1c-0.3-1.3,0.5-2.6,1.7-2.9c-0.2-1.3-0.3-2.6-0.3-3.9h-0.1
					c-1.4-0.1-2.4-1.3-2.3-2.7l0.5-7.2c0-0.7,0.4-1.3,0.9-1.7c0.5-0.4,1.2-0.6,1.8-0.6c0.2-1.1,0.5-2.4,0.9-3.7
					c-0.6-0.2-1.1-0.7-1.4-1.3c-0.3-0.6-0.3-1.3,0-2l2.8-6.7c0.5-1.2,1.9-1.9,3.2-1.4l0,0c1.4-2.6,3-5,4.7-7.1
					c-0.4-0.5-0.7-1.1-0.7-1.7c0-0.7,0.3-1.3,0.7-1.8l5.1-5.1c0.5-0.5,1.1-0.7,1.8-0.7l0,0c0.7,0,1.3,0.3,1.8,0.7l0,0
					c1-0.8,2.1-1.5,3.2-2.3l0,0c-0.6-1.2-0.1-2.7,1.1-3.3l6.4-3.3c0.6-0.3,1.3-0.4,1.9-0.2c0.6,0.2,1.1,0.6,1.4,1.2
					c1.2-0.5,2.5-0.9,3.7-1.2v-0.2c-0.2-1.3,0.7-2.6,2.1-2.8l7.1-1.2c0.7-0.1,1.3,0,1.9,0.4c0.5,0.3,0.8,0.8,0.9,1.4
					c1.2-0.1,2.5-0.1,3.8-0.1l0,0c0.1-0.7,0.4-1.3,1-1.7c0.5-0.4,1.2-0.6,1.9-0.5l7.2,1c0.7,0.1,1.3,0.4,1.7,1
					c0.4,0.5,0.5,1.1,0.5,1.7c1.2,0.3,2.4,0.7,3.7,1.1c0.6-1.2,2.1-1.7,3.3-1.1l6.6,3.1c0.6,0.3,1.1,0.8,1.3,1.4s0.2,1.3-0.1,1.9
					c1.1,0.7,2.1,1.4,3.1,2.2c0.9-0.9,2.5-0.9,3.4,0l5.3,4.9c0.9,0.8,1.1,2.1,0.4,3.1l-0.9,1.4c0.9,1.1,1.7,2.2,2.6,3.3
					c0.6-0.3,1.3-0.4,1.9-0.3c0.7,0.2,1.2,0.6,1.5,1.2l3.5,6.4c0.3,0.6,0.4,1.3,0.2,1.9s-0.6,1.1-1.1,1.4c0.5,1.1,0.9,2.3,1.3,3.5
					c0.6-0.1,1.2,0,1.7,0.4c0.6,0.4,1,1,1.1,1.6l1.3,7.1c0.2,1.3-0.6,2.6-1.9,2.9c0.1,1.3,0.2,2.6,0.2,4l0,0
					c1.4,0.2,2.3,1.4,2.2,2.8l-0.8,7.2c-0.1,0.7-0.4,1.3-1,1.7c-0.5,0.4-1.1,0.5-1.7,0.5c-0.3,1.2-0.6,2.4-1,3.7l0,0
					c1.2,0.6,1.7,2,1.2,3.3l-3,6.6c-0.3,0.6-0.8,1.1-1.4,1.3c-0.6,0.2-1.3,0.2-1.9-0.1c-0.7,1.1-1.3,2.1-2,3.1c1,0.9,1,2.5,0.1,3.5
					l-4.9,5.3c-0.5,0.5-1.1,0.8-1.7,0.8c-0.6,0-1.2-0.2-1.7-0.6c-1,0.8-2,1.6-3,2.4l0,0c0.3,0.6,0.4,1.3,0.3,1.9s-0.6,1.2-1.2,1.5
					l-6.3,3.6c-1.2,0.7-2.7,0.3-3.4-0.9l0,0c-1.2,0.5-2.4,1-3.7,1.4c0.1,0.6,0,1.2-0.4,1.8c-0.4,0.6-0.9,1-1.6,1.1l-7.1,1.5
					c-1.3,0.3-2.6-0.5-2.9-1.8c-1.4,0.1-2.6,0.2-3.9,0.3v0.1c-0.1,0.7-0.4,1.3-0.9,1.7C128.6,389.4,128.1,389.6,127.5,389.6z
					 M123,384.2l2.2,0.2c0.2-1.2,1.2-2.1,2.5-2.1c2.3,0,4.9-0.2,7.8-0.5c1.2-0.1,2.2,0.6,2.6,1.6l2.3-0.5c-0.1-1.1,0.6-2.2,1.8-2.6
					c2.7-0.8,4.9-1.6,7.1-2.8c1.1-0.6,2.6-0.3,3.3,0.8l2-1.1c-0.5-1.1-0.2-2.4,0.8-3.1c2.2-1.6,4.2-3,6-4.8c0.9-0.9,2.2-1,3.2-0.3
					l1.5-1.7c-0.7-0.9-0.8-2.2-0.1-3.1c1.5-2,2.9-4.2,4.2-6.4c0.6-1.1,1.8-1.5,3-1.1l0.9-2.1c-1.1-0.6-1.5-1.9-1.1-3.1
					c1-2.4,1.5-5,2-7.2c0.2-1.2,1.2-2,2.4-2l0.2-2.2c-1.2-0.2-2.1-1.4-2-2.6c0.2-2.6-0.1-5.5-0.3-7.6c-0.1-1.2,0.6-2.3,1.7-2.7
					l-0.4-2.2c-1.2,0.1-2.2-0.7-2.5-1.8c-0.7-2.6-1.6-4.9-2.6-7.2c-0.5-1.1-0.2-2.4,0.8-3.1l-1-1.9c-1.1,0.5-2.5,0.1-3.1-0.9
					c-1.5-2.2-3-4.2-4.7-6.1c-0.7-0.8-0.9-2-0.3-3l0.8-1.3l-2-1.8c-0.9,0.8-2.3,0.8-3.2,0c-1.9-1.6-3.9-3-6.2-4.3
					c-1.1-0.6-1.5-1.9-1.1-3l-2.1-1c-0.6,1-1.9,1.5-3.1,1c-2.5-1-4.9-1.7-7.2-2.2c-1.2-0.2-2-1.3-2-2.4l-2.3-0.3
					c-0.3,1.2-1.4,2.1-2.6,2c-2.8-0.2-5.3-0.2-7.5,0.2c-0.7,0.1-1.3-0.1-1.9-0.5c-0.4-0.3-0.7-0.7-0.9-1.2l-2.2,0.4
					c0.1,1.2-0.7,2.3-1.8,2.6c-2.3,0.6-5,1.4-7.3,2.5c-1.1,0.5-2.5,0.1-3.1-0.9l-2,1c0.4,1.1,0,2.3-1,3c-2.4,1.6-4.4,3-6.4,4.6
					c-0.9,0.8-2.3,0.7-3.2,0l-1.6,1.6c0.8,0.9,0.8,2.3-0.1,3.3c-2.5,2.8-4.7,6.1-6.5,9.8c-0.5,1.1-1.8,1.7-3,1.3l-0.9,2.1
					c1,0.6,1.6,1.8,1.2,2.9c-0.9,3-1.5,5.4-1.7,7.5c-0.1,1.3-1.2,2.2-2.5,2.2l-0.2,2.2c1.2,0.2,2.1,1.2,2.1,2.5
					c0,2.7,0.2,5.3,0.7,7.6c0.2,1.2-0.5,2.4-1.6,2.8l0.5,2.3c1.1-0.1,2.3,0.6,2.6,1.8c0.8,2.6,1.7,4.9,2.9,7.2
					c0.6,1.1,0.2,2.5-0.8,3.2l1.2,2c1.1-0.6,2.5-0.2,3.2,0.8c1.6,2.2,3.3,4.2,5,6c0.9,0.9,1,2.2,0.3,3.2l1.7,1.5
					c0.9-0.8,2.2-0.8,3.2-0.1c2.2,1.7,4.3,3,6.5,4c1.1,0.5,1.7,1.8,1.3,3l2,0.9c0.6-1,1.8-1.5,2.9-1.1c2.7,0.8,5.2,1.5,7.6,1.9
					C122.2,381.9,123,382.9,123,384.2z"/>
			</g>
			<g class="st1">
				<path d="M128.7,368.8c-19.2,0-34.8-15.6-34.8-34.8s15.6-34.8,34.8-34.8s34.8,15.6,34.8,34.8S147.9,368.8,128.7,368.8z
					 M128.7,304.2c-16.4,0-29.8,13.4-29.8,29.8s13.4,29.8,29.8,29.8s29.8-13.4,29.8-29.8S145.1,304.2,128.7,304.2z"/>
			</g>
		</g>
		<g id="_x30_3_1_" class="st0">
			<g class="st1">
				<path d="M128.9,388.8c-1.3,0-2.4-1-2.5-2.3v-0.1c-1.4-0.1-2.7-0.2-3.9-0.3c-0.2,0.6-0.6,1.1-1.1,1.4c-0.6,0.3-1.3,0.4-1.9,0.3
					l-7.1-1.8c-1.3-0.3-2.1-1.6-1.8-2.9c-1.2-0.4-2.3-0.9-3.5-1.5l0,0c-0.3,0.6-0.9,1-1.6,1.1c-0.7,0.2-1.3,0-1.9-0.3l-6.1-3.8
					c-1.2-0.7-1.5-2.2-0.8-3.4l0.1-0.1c-1-0.8-2-1.6-2.9-2.5c-0.5,0.4-1.1,0.6-1.7,0.6c-0.7,0-1.3-0.4-1.8-0.9l-4.8-5.6
					c-0.9-1-0.8-2.5,0.2-3.4c-0.8-1.1-1.5-2.3-2.1-3.5l0,0c-1.3,0.5-2.7-0.1-3.2-1.4l-2.8-6.7c-0.3-0.6-0.3-1.3,0-1.9
					c0.2-0.6,0.7-1,1.2-1.3c-0.8-2.9-1.4-5.6-1.7-8.2l0,0c-1.4,0-2.5-1.1-2.5-2.5v-7.2c0-1.4,1.1-2.5,2.5-2.5l0,0
					c0.1-1.3,0.3-2.6,0.6-3.9c-1.3-0.4-1.9-1.8-1.6-3.1l2.1-6.9c0.2-0.6,0.6-1.2,1.2-1.5s1.3-0.4,1.9-0.2c0.5-1.1,1.1-2.2,1.7-3.4
					l0,0c-0.5-0.4-0.9-1-1-1.6c-0.1-0.7,0.1-1.3,0.4-1.9l4.3-5.9c0.8-1.1,2.3-1.4,3.4-0.6c0.9-1,1.8-1.9,2.7-2.8l0,0
					c-0.8-1.1-0.6-2.7,0.5-3.5l5.8-4.3c0.5-0.4,1.2-0.6,1.9-0.5c0.6,0.1,1.2,0.4,1.6,0.9c1.1-0.6,2.2-1.2,3.4-1.7l0,0
					c-0.2-0.6-0.2-1.3,0.1-1.9c0.3-0.6,0.8-1,1.4-1.3l6.9-2.3c1.3-0.4,2.7,0.2,3.1,1.5c1.2-0.3,2.5-0.5,3.8-0.7v-0.1
					c0-1.4,1.1-2.5,2.4-2.5l7.2-0.2c1.2,0,2.3,0.8,2.5,2.1v0.2c1.5,0.1,3,0.3,4.3,0.6l0,0c0.4-1.3,1.8-2,3.1-1.6l6.9,2.1
					c0.6,0.2,1.2,0.6,1.5,1.2s0.4,1.2,0.2,1.8c1.2,0.5,2.4,1.1,3.5,1.7l0,0c0.8-1.1,2.3-1.4,3.5-0.6l5.9,4.1c0.6,0.4,0.9,1,1,1.6
					s0,1.3-0.4,1.8c0.9,0.8,1.9,1.7,2.8,2.7l0,0c1.1-0.8,2.6-0.6,3.5,0.5l4.4,5.8c0.4,0.5,0.6,1.2,0.5,1.9c-0.1,0.6-0.4,1.2-1,1.6
					c0.7,1.1,1.3,2.2,1.8,3.3c0.6-0.2,1.3-0.2,1.9,0.1c0.6,0.3,1.1,0.8,1.3,1.4l2.5,6.7c0.5,1.3-0.2,2.7-1.4,3.2
					c0.3,1.2,0.5,2.4,0.7,3.7c0.7,0,1.3,0.2,1.8,0.6c0.5,0.5,0.8,1.1,0.8,1.8l0.3,7.2c0.1,1.3-1,2.5-2.3,2.6h-0.1
					c-0.1,1.4-0.2,2.7-0.4,4.1h0.1c1.3,0.4,2,1.8,1.6,3l-2,7.1c-0.2,0.7-0.6,1.2-1.2,1.5c-0.5,0.3-1.1,0.4-1.7,0.2
					c-0.4,1.1-1,2.3-1.6,3.4c1.1,0.8,1.3,2.2,0.6,3.4l-3.9,6.1c-0.4,0.6-0.9,1-1.6,1.1c-0.6,0.1-1.2,0-1.7-0.3c-0.8,1-1.7,2-2.6,2.9
					l0,0c0.4,0.5,0.6,1.2,0.6,1.8c-0.1,0.7-0.4,1.3-0.9,1.7l-5.6,4.6c-1.1,0.9-2.6,0.7-3.5-0.3V378c-1.1,0.7-2.2,1.4-3.3,2l0,0
					c0.5,1.3-0.2,2.7-1.4,3.2l-6.7,2.6c-0.6,0.2-1.3,0.2-1.9,0c-0.6-0.3-1-0.7-1.3-1.3c-1.1,0.3-2.4,0.6-3.7,0.9
					c0,0.7-0.2,1.3-0.6,1.8c-0.4,0.5-1.1,0.8-1.7,0.9l-7.2,0.5C129,388.8,129,388.8,128.9,388.8z M120.6,380.8c0.2,0,0.3,0,0.5,0
					c2.3,0.4,4.8,0.7,7.6,0.7c1.2,0,2.3,0.9,2.5,2.1l2.2-0.2c0-1.3,0.9-2.3,2.2-2.5c2.2-0.3,4.7-0.8,7.4-1.7c1.2-0.4,2.4,0.2,3,1.2
					l2.1-0.8c-0.3-1.2,0.2-2.4,1.3-2.9c2.2-1.1,4.4-2.4,6.5-3.9c1-0.7,2.4-0.6,3.3,0.3l1.7-1.4c-0.7-1-0.6-2.5,0.4-3.3
					c1.7-1.6,3.4-3.5,5.1-5.7c0.7-1,2-1.3,3.1-0.8l1.2-1.9c-0.9-0.8-1.2-2.1-0.6-3.1c1.4-2.5,2.4-4.8,3.1-6.9
					c0.2-0.6,0.6-1.2,1.2-1.5c0.5-0.2,1-0.3,1.5-0.2l0.7-2.3c-1.1-0.4-1.7-1.6-1.5-2.8c0.5-2.6,0.8-5.1,0.8-7.6c0-1.3,1-2.3,2.2-2.5
					l-0.1-2.2c-1.2,0-2.3-1-2.4-2.2c-0.3-2.8-0.8-5.2-1.5-7.4c-0.4-1.2,0.2-2.5,1.3-3l-0.8-2c-1.1,0.3-2.4-0.2-2.9-1.3
					c-1-2.2-2.2-4.3-3.8-6.9c-0.6-1-0.4-2.3,0.4-3.1l-1.3-2c-1,0.6-2.3,0.4-3.1-0.5c-1.8-2-3.8-3.8-5.7-5.4
					c-0.9-0.8-1.1-2.1-0.6-3.1l-1.8-1.3c-0.8,0.9-2.1,1.1-3.1,0.5c-2.3-1.3-4.7-2.4-7.1-3.3c-1.1-0.4-1.8-1.6-1.6-2.8l-2.1-0.7
					c-0.5,1.1-1.6,1.7-2.8,1.5c-2.8-0.5-5.2-1-7.6-1c-1.2,0-2.2-0.9-2.5-2.1v-0.1l-2.6,0.1c-0.1,1.2-1,2.2-2.2,2.4
					c-2.6,0.3-5.1,0.7-7.5,1.4c-1.2,0.3-2.4-0.3-2.9-1.4l-2.2,0.7c0.2,1.1-0.3,2.3-1.4,2.8l-0.7,0.3c-2.2,1-4.2,2-6.1,3.3
					c-1,0.7-2.4,0.5-3.2-0.4l-1.8,1.3c0.6,1,0.4,2.3-0.5,3.1c-1.8,1.6-3.6,3.5-5.4,5.6c-0.8,0.9-2.1,1.1-3.1,0.6l-1.4,1.9
					c0.8,0.8,1.1,2,0.5,3.1c-1.5,2.6-2.6,4.9-3.5,6.9c-0.5,1.1-1.6,1.7-2.8,1.5l-0.7,2.1c1.1,0.5,1.7,1.7,1.4,2.9
					c-0.7,2.6-1,5.3-1.1,7.6c-0.1,1.2-1.1,2.2-2.3,2.3v2.2c1.2,0.1,2.2,1.1,2.3,2.3c0.3,3.7,1,7.4,2.4,11.6c0.4,1.1-0.1,2.3-1.1,2.9
					L84,354c1.1-0.3,2.4,0.2,2.9,1.2c1.3,2.5,2.5,4.6,4,6.5c0.8,1,0.7,2.4-0.1,3.3l1.6,1.8c1-0.6,2.3-0.5,3.1,0.3
					c1.7,1.7,3.5,3.3,5.9,5.1c1,0.7,1.2,2.1,0.7,3.2l1.9,1.2c0.7-1,2.1-1.3,3.2-0.8c2.3,1.2,4.6,2.2,7,2.9c1.1,0.4,1.9,1.5,1.7,2.7
					l2.3,0.6C118.7,381.4,119.6,380.8,120.6,380.8z M123.9,284.9L123.9,284.9L123.9,284.9z"/>
			</g>
			<g class="st1">
				<path d="M128.7,369c-19.2,0-34.8-15.6-34.8-34.8s15.6-34.8,34.8-34.8s34.8,15.6,34.8,34.8S147.9,369,128.7,369z M128.7,304.4
					c-16.4,0-29.8,13.4-29.8,29.8s13.4,29.8,29.8,29.8s29.8-13.4,29.8-29.8S145.1,304.4,128.7,304.4z"/>
			</g>
		</g>
		<g id="_x30_4_1_" class="st0">
			<g class="st1">
				<path d="M128.9,388.5c-0.1,0-0.1,0-0.2,0l-7.2-0.5c-0.7,0-1.3-0.4-1.7-0.9c-0.4-0.5-0.6-1.2-0.6-1.8c-1.1-0.2-2.4-0.5-3.7-0.9
					c-0.2,0.6-0.7,1.1-1.3,1.4c-0.6,0.3-1.3,0.3-2,0l-6.7-2.8c-1.2-0.5-1.9-1.9-1.4-3.2l0,0c-2.6-1.4-5-3-7.1-4.7
					c-1,0.9-2.5,0.9-3.5,0l-5.1-5.1c-1-1-1-2.6,0-3.5l0,0c-0.8-1-1.5-2.1-2.3-3.2l0,0c-1.2,0.6-2.7,0.1-3.3-1.1l-3.2-6.3
					c-0.3-0.6-0.4-1.3-0.1-1.9c0.2-0.6,0.6-1.1,1.2-1.4c-0.5-1.2-0.9-2.5-1.2-3.7h-0.2c-1.3,0.2-2.6-0.7-2.8-2.1l-1.2-7.1
					c-0.1-0.7,0-1.3,0.4-1.9c0.3-0.5,0.8-0.8,1.4-0.9c-0.1-1.2-0.1-2.5-0.1-3.8l0,0c-0.7-0.1-1.3-0.4-1.7-1
					c-0.4-0.5-0.6-1.2-0.5-1.9l1-7.2c0.1-0.7,0.4-1.3,1-1.7c0.5-0.4,1.1-0.5,1.7-0.5c0.3-1.2,0.7-2.4,1.1-3.7
					c-1.2-0.6-1.7-2.1-1.1-3.3l3.1-6.6c0.3-0.6,0.8-1.1,1.4-1.3c0.6-0.2,1.3-0.2,1.9,0.1c0.7-1.1,1.4-2.1,2.2-3.1
					c-0.9-0.9-0.9-2.5,0-3.4l4.9-5.3c0.8-0.9,2.2-1.1,3.2-0.4l0.9,0.6c1-0.9,2.1-1.7,3.2-2.5c-0.3-0.6-0.4-1.3-0.3-1.9
					c0.2-0.7,0.6-1.2,1.2-1.5l6.4-3.5c0.6-0.3,1.3-0.4,1.9-0.2c0.6,0.2,1.1,0.6,1.4,1.1c1.1-0.5,2.3-0.9,3.5-1.3
					c-0.1-0.6,0-1.2,0.4-1.7c0.4-0.6,1-1,1.6-1.1l7.1-1.3c1.1-0.2,2.3,0.4,2.7,1.5l0.2,0.4c1.3-0.1,2.9-0.2,4.3-0.2l0,0
					c0.2-1.4,1.4-2.3,2.8-2.2l7.2,0.8c0.7,0.1,1.3,0.4,1.7,1c0.4,0.5,0.6,1.1,0.5,1.7c1.2,0.3,2.4,0.6,3.7,1l0,0
					c0.6-1.2,2-1.7,3.3-1.2l6.6,3c0.6,0.3,1.1,0.8,1.3,1.4s0.2,1.3-0.1,1.9c1.1,0.7,2.1,1.3,3.1,2c0.9-1,2.5-1,3.5-0.1l5.3,4.9
					c0.5,0.5,0.8,1.1,0.8,1.7s-0.2,1.2-0.6,1.7c0.8,1,1.6,2,2.4,3l0,0c0.6-0.3,1.3-0.4,1.9-0.3c0.7,0.2,1.2,0.6,1.5,1.2l3.6,6.3
					c0.7,1.2,0.3,2.7-0.9,3.4l0,0c0.5,1.2,1,2.4,1.4,3.7c0.6-0.1,1.2,0,1.8,0.4s1,0.9,1.1,1.6l1.5,7.1c0.3,1.3-0.5,2.6-1.8,2.9
					c0.1,1.4,0.2,2.7,0.2,3.9h0.1c0.7,0.1,1.3,0.4,1.7,0.9s0.6,1.2,0.6,1.8l-0.7,7.2c-0.1,1.4-1.3,2.4-2.7,2.2h-0.1
					c-0.3,1.2-0.6,2.4-0.9,3.7c0.6,0.3,1.1,0.7,1.4,1.4c0.3,0.6,0.2,1.4,0,2l-3,6.6c-0.5,1.2-1.9,1.8-3.1,1.3
					c-0.6,1.1-1.4,2.3-2.2,3.4c1,0.9,1,2.5,0.1,3.5l-4.8,5.4c-0.4,0.5-1.1,0.8-1.8,0.8c-0.6,0-1.2-0.2-1.7-0.6c-1,0.9-2,1.7-3,2.5
					v0.1c0.7,1.2,0.3,2.7-0.9,3.4l-6.3,3.8c-0.6,0.3-1.2,0.4-1.9,0.3c-0.6-0.2-1.2-0.6-1.5-1.1l0,0c-1.2,0.5-2.4,1-3.7,1.5
					c0.1,0.6,0,1.2-0.3,1.8c-0.4,0.6-0.9,1-1.6,1.1l-7.1,1.6c-1.3,0.3-2.6-0.5-2.9-1.7c-1.3,0.2-2.6,0.3-3.9,0.3v0.1
					C131.3,387.5,130.2,388.5,128.9,388.5z M124.4,383.2l2.2,0.2c0.2-1.2,1.2-2.1,2.5-2.1c2.7,0,5.3-0.2,7.6-0.7
					c1.2-0.2,2.4,0.5,2.8,1.6l2.3-0.5c-0.1-1.2,0.6-2.3,1.8-2.6c2.6-0.8,4.9-1.7,7.2-2.9c1.1-0.6,2.5-0.2,3.2,0.8l2-1.2
					c-0.6-1.1-0.2-2.5,0.8-3.2c2.2-1.6,4.3-3.3,6-5c0.9-0.9,2.2-1,3.2-0.3l1.5-1.7c-0.8-0.9-0.8-2.2-0.1-3.2c1.7-2.2,3-4.3,4-6.5
					c0.5-1.1,1.8-1.7,3-1.3l0.9-2c-1-0.6-1.5-1.8-1.1-2.9c0.8-2.7,1.5-5.2,1.9-7.6c0.2-1.2,1.3-2,2.5-2l0.2-2.2
					c-1.2-0.2-2.1-1.2-2.1-2.5c0-2.3-0.2-4.9-0.5-7.8c-0.1-1.2,0.6-2.2,1.6-2.6l-0.5-2.3c-1.1,0.1-2.2-0.6-2.6-1.8
					c-0.8-2.7-1.6-4.9-2.8-7.1c-0.6-1.1-0.3-2.6,0.8-3.3l-1.1-2c-1.1,0.5-2.4,0.2-3.1-0.8c-1.6-2.2-3-4.2-4.8-6
					c-0.9-0.9-1-2.2-0.3-3.2l-1.7-1.5c-0.9,0.7-2.2,0.8-3.1,0.1c-1.9-1.5-4.2-2.9-6.4-4.2c-1.1-0.6-1.5-1.8-1.1-3L149,289
					c-0.6,1.1-1.9,1.5-3.1,1.1c-2.4-1-5-1.5-7.2-2c-1.2-0.2-2-1.2-2-2.4l-2.2-0.2c-0.2,1.2-1.4,2.1-2.6,2c-2.6-0.2-5.5,0.1-7.6,0.3
					c-1.1,0.1-2.1-0.5-2.6-1.5l-0.1-0.3l-2.6,0.5c0.1,1.1-0.7,2.2-1.8,2.5c-2.6,0.7-4.9,1.6-7.2,2.6c-1.1,0.5-2.4,0.2-3.1-0.8
					l-1.9,1c0.5,1.1,0.1,2.5-0.9,3.1c-2.2,1.5-4.2,3-6.1,4.7c-0.9,0.8-2.1,0.9-3.1,0.2l-0.7-0.5l-1.8,1.9c0.8,0.9,0.8,2.3,0,3.2
					c-1.6,1.9-3,3.9-4.3,6.2c-0.6,1.1-1.9,1.5-3,1.1l-1,2.1c1,0.6,1.5,1.9,1,3.1c-1,2.5-1.7,4.9-2.2,7.2c-0.2,1.2-1.3,2-2.4,2
					l-0.3,2.3c1.2,0.3,2.1,1.4,2,2.6c-0.2,2.8-0.2,5.3,0.2,7.5c0.1,0.7-0.1,1.3-0.5,1.9c-0.3,0.4-0.7,0.7-1.2,0.9l0.4,2.2
					c1.2-0.1,2.3,0.7,2.6,1.8c0.6,2.3,1.4,5,2.5,7.3c0.5,1.1,0.1,2.5-0.9,3.1l0.9,1.9c1.1-0.4,2.3,0,3,1c1.6,2.4,3,4.4,4.6,6.4
					c0.8,0.9,0.7,2.3,0,3.2l1.6,1.6c0.9-0.8,2.3-0.8,3.3,0.1c2.8,2.5,6.1,4.7,9.8,6.5c1.1,0.5,1.7,1.8,1.3,3l2.1,0.9
					c0.6-1,1.8-1.6,2.9-1.2c3,0.9,5.4,1.5,7.5,1.7C123.5,380.9,124.4,381.9,124.4,383.2z"/>
			</g>
			<g class="st1">
				<path d="M128.7,369c-19.2,0-34.8-15.6-34.8-34.8s15.6-34.8,34.8-34.8s34.8,15.6,34.8,34.8S147.9,369,128.7,369z M128.7,304.4
					c-16.4,0-29.8,13.4-29.8,29.8s13.4,29.8,29.8,29.8s29.8-13.4,29.8-29.8S145.1,304.4,128.7,304.4z"/>
			</g>
		</g>
		<g id="_x30_5_1_">
			<g>
				<path d="M128.7,386.5c-28.8,0-52.3-23.5-52.3-52.3s23.5-52.3,52.3-52.3s52.3,23.5,52.3,52.3S157.5,386.5,128.7,386.5z
					 M128.7,286.9c-26.1,0-47.3,21.2-47.3,47.3s21.2,47.3,47.3,47.3s47.3-21.2,47.3-47.3S154.8,286.9,128.7,286.9z"/>
			</g>
		</g>
	</g>
	<g>
		<path d="M183.9,261c-0.7,0-1.4-0.3-1.9-0.9c-0.9-1-0.8-2.6,0.3-3.5l31.4-27.2c1-0.9,2.6-0.8,3.5,0.3c0.9,1,0.8,2.6-0.3,3.5
			l-31.4,27.2C185.1,260.8,184.5,261,183.9,261z"/>
	</g>
	<g>
		<path d="M239,256c-0.7,0-1.3-0.3-1.8-0.8l-40.7-43.4c-0.9-1-0.9-2.6,0.1-3.5s2.6-0.9,3.5,0.1l40.7,43.4c0.9,1,0.9,2.6-0.1,3.5
			C240.2,255.8,239.6,256,239,256z"/>
	</g>
	<g>
		<path d="M128.7,369c-19.2,0-34.8-15.6-34.8-34.8s15.6-34.8,34.8-34.8s34.8,15.6,34.8,34.8S147.9,369,128.7,369z M128.7,304.4
			c-16.4,0-29.8,13.4-29.8,29.8s13.4,29.8,29.8,29.8s29.8-13.4,29.8-29.8S145.1,304.4,128.7,304.4z"/>
	</g>
	<g>
		<g id="_x30_1_2_" class="st0">
			<g class="st1">
				<path d="M385.8,383.8c-1.3,0-2.4-1-2.5-2.3v-0.1c-1.4-0.1-2.7-0.2-4.1-0.4v0.1c-0.4,1.3-1.8,2-3,1.6l-7.1-2
					c-0.7-0.2-1.2-0.6-1.5-1.2c-0.3-0.5-0.4-1.1-0.2-1.7c-1.1-0.4-2.3-1-3.4-1.6c-0.8,1.1-2.2,1.3-3.4,0.6l-6.1-3.9
					c-0.6-0.4-1-0.9-1.1-1.6c-0.1-0.6,0-1.2,0.3-1.7c-1-0.8-2-1.7-2.9-2.6l0,0c-0.5,0.4-1.2,0.6-1.8,0.6c-0.7-0.1-1.3-0.4-1.7-0.9
					l-4.6-5.6c-0.9-1.1-0.7-2.6,0.3-3.5h0.1c-0.7-1.1-1.4-2.2-2-3.3l0,0c-1.3,0.5-2.7-0.2-3.2-1.4l-2.6-6.7c-0.2-0.6-0.2-1.3,0-1.9
					c0.3-0.6,0.7-1,1.3-1.3c-0.3-1.1-0.6-2.4-0.9-3.7c-0.7,0.1-1.3-0.2-1.8-0.6s-0.8-1.1-0.9-1.7l-0.5-7.2c-0.1-1.4,0.9-2.5,2.3-2.7
					h0.1c0.1-1.4,0.2-2.7,0.3-3.9c-0.6-0.2-1.1-0.6-1.4-1.1c-0.3-0.6-0.4-1.3-0.3-1.9l1.8-7.1c0.3-1.3,1.6-2.1,2.9-1.8
					c0.4-1.2,0.9-2.3,1.5-3.5l0,0c-0.6-0.3-1-0.9-1.1-1.6s0-1.3,0.3-1.9l3.8-6.1c0.7-1.2,2.2-1.5,3.4-0.8l0.1,0.1
					c0.8-1,1.6-2,2.5-2.9c-0.4-0.5-0.6-1.1-0.6-1.7c0-0.7,0.4-1.3,0.9-1.8l5.6-4.8c1-0.9,2.5-0.8,3.4,0.2c1.1-0.8,2.3-1.5,3.5-2.1
					l0,0c-0.5-1.3,0.1-2.7,1.4-3.2l6.7-2.8c0.6-0.3,1.3-0.3,1.9,0c0.6,0.2,1,0.7,1.3,1.2c2.9-0.8,5.6-1.4,8.2-1.7l0,0
					c0-1.4,1.1-2.5,2.5-2.5h7.2c1.4,0,2.5,1.1,2.5,2.5l0,0c1.3,0.1,2.6,0.3,3.9,0.6c0.4-1.3,1.8-1.9,3.1-1.6l6.9,2.1
					c0.6,0.2,1.2,0.6,1.5,1.2s0.4,1.3,0.2,1.9c1.1,0.5,2.2,1.1,3.4,1.7l0,0c0.4-0.5,1-0.9,1.6-1c0.7-0.1,1.3,0.1,1.9,0.4l5.9,4.3
					c1.1,0.8,1.4,2.3,0.6,3.4c1,0.9,1.9,1.8,2.8,2.7l0,0c1.1-0.8,2.7-0.6,3.5,0.5l4.3,5.8c0.4,0.5,0.6,1.2,0.5,1.9
					c-0.1,0.6-0.4,1.2-0.9,1.6c0.6,1.1,1.2,2.2,1.7,3.4l0,0c0.6-0.2,1.3-0.2,1.9,0.1c0.6,0.3,1,0.8,1.3,1.4l2.3,6.9
					c0.2,0.6,0.2,1.3-0.1,1.9c-0.3,0.6-0.8,1-1.3,1.2c0.3,1.2,0.5,2.5,0.7,3.8h0.1c1.4,0,2.5,1.1,2.5,2.4l0.2,7.2
					c0,1.2-0.8,2.3-2.1,2.5h-0.2c-0.1,1.5-0.3,3-0.6,4.3l0,0c1.3,0.4,2,1.8,1.6,3.1l-2.1,6.9c-0.2,0.6-0.6,1.2-1.2,1.5
					s-1.2,0.4-1.8,0.2c-0.5,1.2-1.1,2.4-1.7,3.5l0,0c1.1,0.8,1.4,2.3,0.6,3.5l-4.1,5.9c-0.4,0.6-1,0.9-1.6,1s-1.3,0-1.8-0.4
					c-0.8,1-1.7,1.9-2.7,2.8l0,0c0.8,1.1,0.6,2.6-0.5,3.5l-5.8,4.4c-0.5,0.4-1.2,0.6-1.9,0.5c-0.6-0.1-1.2-0.4-1.6-1
					c-1.1,0.7-2.2,1.3-3.3,1.8c0.2,0.6,0.2,1.3-0.1,1.9c-0.3,0.6-0.8,1.1-1.4,1.3l-6.7,2.5c-1.3,0.5-2.7-0.2-3.2-1.4
					c-1.2,0.3-2.4,0.5-3.7,0.7c0,0.7-0.2,1.3-0.6,1.8c-0.5,0.5-1.1,0.8-1.8,0.8l-7.2,0.3C385.9,383.8,385.8,383.8,385.8,383.8z
					 M377.5,375.7c0.2,0,0.3,0,0.5,0c2.6,0.5,5.1,0.8,7.6,0.8c1.3,0,2.3,1,2.5,2.2l2.2-0.1c0-1.2,1-2.3,2.2-2.4
					c2.8-0.3,5.2-0.8,7.4-1.5c1.2-0.4,2.5,0.2,3,1.3l2-0.8c-0.3-1.1,0.2-2.4,1.3-2.9c2.2-1,4.3-2.2,6.9-3.8c1-0.6,2.3-0.4,3.1,0.4
					l1.8-1.4c-0.6-1-0.4-2.3,0.5-3.1c2-1.8,3.8-3.8,5.4-5.7c0.8-0.9,2.1-1.1,3.1-0.6l1.3-1.8c-0.9-0.8-1.1-2.1-0.5-3.1
					c1.3-2.3,2.4-4.7,3.3-7.1c0.4-1.1,1.6-1.8,2.8-1.6l0.7-2.1c-1.1-0.5-1.7-1.6-1.5-2.8c0.5-2.8,1-5.2,1-7.6c0-1.2,0.9-2.2,2.1-2.5
					h0.1l-0.1-2.6c-1.2-0.1-2.2-1-2.4-2.2c-0.3-2.6-0.7-5.1-1.4-7.5c-0.3-1.2,0.3-2.4,1.4-2.9l-0.7-2.2c-1.1,0.2-2.3-0.3-2.8-1.4
					L430,310c-1-2.2-2-4.2-3.3-6c-0.7-1-0.5-2.4,0.4-3.2l-1.3-1.8c-1,0.6-2.3,0.4-3.1-0.5c-1.6-1.8-3.5-3.6-5.6-5.4
					c-0.9-0.8-1.1-2.1-0.6-3.1l-1.9-1.4c-0.8,0.8-2.1,1.1-3.1,0.5c-2.6-1.5-4.9-2.6-6.9-3.5c-1.1-0.5-1.7-1.6-1.5-2.8l-2.1-0.7
					c-0.5,1.1-1.7,1.7-2.9,1.4c-2.6-0.7-5.3-1-7.6-1.1c-1.2-0.1-2.2-1.1-2.3-2.3H386c-0.1,1.2-1.1,2.2-2.3,2.3
					c-3.7,0.3-7.4,1-11.6,2.4c-1.1,0.4-2.3-0.1-2.9-1.1l-2.2,0.9c0.3,1.1-0.2,2.4-1.2,2.9c-2.5,1.3-4.6,2.5-6.5,4
					c-1,0.8-2.4,0.7-3.3-0.1l-1.8,1.6c0.6,1,0.5,2.3-0.3,3.1c-1.7,1.7-3.3,3.5-5.1,5.9c-0.7,1-2.1,1.2-3.2,0.7l-1.2,1.9
					c1,0.7,1.3,2.1,0.8,3.2c-1.2,2.3-2.2,4.6-2.9,7c-0.4,1.1-1.5,1.9-2.7,1.7l-0.6,2.3c1.1,0.4,1.7,1.6,1.5,2.8
					c-0.4,2.3-0.7,4.8-0.7,7.6c0,1.2-0.9,2.3-2.1,2.5l0.2,2.2c1.3,0,2.3,0.9,2.5,2.2c0.3,2.2,0.8,4.7,1.7,7.4c0.4,1.2-0.2,2.4-1.2,3
					l0.8,2.1c1.2-0.3,2.4,0.2,2.9,1.3c1.1,2.2,2.4,4.4,3.9,6.5c0.7,1,0.6,2.4-0.3,3.3l1.4,1.7c1-0.7,2.5-0.6,3.3,0.4
					c1.5,1.7,3.5,3.4,5.7,5c1,0.7,1.3,2,0.8,3.1l1.9,1.2c0.8-0.9,2.1-1.2,3.1-0.6c2.5,1.4,4.8,2.4,6.9,3.1c0.6,0.2,1.2,0.6,1.5,1.2
					c0.2,0.5,0.3,1,0.2,1.5l2.3,0.7C375.6,376.3,376.5,375.7,377.5,375.7z"/>
			</g>
			<g class="st1">
				<path d="M387,364.2c-19.2,0-34.8-15.6-34.8-34.8c0-19.2,15.6-34.8,34.8-34.8s34.8,15.6,34.8,34.8S406.2,364.2,387,364.2z
					 M387,299.6c-16.4,0-29.8,13.4-29.8,29.8s13.4,29.8,29.8,29.8s29.8-13.4,29.8-29.8S403.4,299.6,387,299.6z"/>
			</g>
		</g>
		<g id="_x30_2_2_" class="st0">
			<g class="st1">
				<path d="M385.8,384.8c-0.1,0-0.2,0-0.2,0l-7.2-0.7c-1.4-0.1-2.4-1.3-2.2-2.7v-0.1c-1.2-0.3-2.4-0.6-3.7-0.9
					c-0.3,0.6-0.7,1.1-1.4,1.4c-0.6,0.3-1.4,0.2-2,0l-6.6-3c-1.2-0.5-1.8-1.9-1.3-3.1c-1.1-0.6-2.3-1.4-3.4-2.2
					c-0.9,1-2.5,1-3.5,0.1l-5.4-4.8c-0.5-0.4-0.8-1.1-0.8-1.8c0-0.6,0.2-1.2,0.6-1.7c-0.9-1-1.7-2-2.5-3h-0.1
					c-1.2,0.7-2.7,0.3-3.4-0.9l-3.8-6.3c-0.3-0.6-0.4-1.3-0.3-1.9s0.6-1.2,1.1-1.5l0,0c-0.5-1.2-1-2.4-1.5-3.7
					c-0.6,0.1-1.2,0-1.8-0.3c-0.6-0.4-1-0.9-1.1-1.6l-1.6-7.1c-0.3-1.3,0.5-2.6,1.7-2.9c-0.2-1.3-0.3-2.6-0.3-3.9H335
					c-1.4-0.1-2.4-1.3-2.3-2.7l0.5-7.2c0-0.7,0.4-1.3,0.9-1.7c0.5-0.4,1.2-0.6,1.8-0.6c0.2-1.1,0.5-2.4,0.9-3.7
					c-0.6-0.2-1.1-0.7-1.4-1.3c-0.3-0.6-0.3-1.3,0-2l2.8-6.7c0.5-1.2,1.9-1.9,3.2-1.4l0,0c1.4-2.6,3-5,4.7-7.1c-0.9-1-0.9-2.5,0-3.5
					l5.1-5.1c1-1,2.6-1,3.5,0l0,0c1-0.8,2.1-1.5,3.2-2.3l0,0c-0.6-1.2-0.1-2.7,1.1-3.3l6.4-3.3c0.6-0.3,1.3-0.4,1.9-0.2
					c0.6,0.2,1.1,0.6,1.4,1.2c1.2-0.5,2.5-0.9,3.7-1.2v-0.2c-0.2-1.3,0.7-2.6,2.1-2.8l7.1-1.2c0.7-0.1,1.3,0,1.9,0.4
					c0.5,0.3,0.8,0.8,0.9,1.4c1.2-0.1,2.5-0.1,3.8-0.1l0,0c0.1-0.7,0.4-1.3,1-1.7c0.5-0.4,1.2-0.6,1.9-0.5l7.2,1
					c0.7,0.1,1.3,0.4,1.7,1c0.4,0.5,0.5,1.1,0.5,1.7c1.2,0.3,2.4,0.7,3.7,1.1c0.6-1.2,2.1-1.7,3.3-1.1l6.6,3.1
					c0.6,0.3,1.1,0.8,1.3,1.4c0.2,0.6,0.2,1.3-0.1,1.9c1.1,0.7,2.1,1.4,3.1,2.2c0.9-0.9,2.5-0.9,3.4,0l5.3,4.9
					c0.9,0.8,1.1,2.1,0.4,3.1l-0.9,1.4c0.9,1.1,1.7,2.2,2.6,3.3c0.6-0.3,1.3-0.4,1.9-0.3c0.7,0.2,1.2,0.6,1.5,1.2l3.5,6.4
					c0.3,0.6,0.4,1.3,0.2,1.9c-0.2,0.6-0.6,1.1-1.1,1.4c0.5,1.1,0.9,2.3,1.3,3.5c0.6-0.1,1.2,0,1.7,0.4c0.6,0.4,1,1,1.1,1.6l1.3,7.1
					c0.2,1.3-0.6,2.6-1.9,2.9c0.1,1.5,0.2,2.8,0.2,4l0,0c1.4,0.2,2.3,1.4,2.2,2.8l-0.8,7.2c-0.1,0.7-0.4,1.3-1,1.7
					c-0.5,0.4-1.1,0.5-1.7,0.5c-0.3,1.2-0.6,2.4-1,3.7l0,0c1.2,0.6,1.7,2,1.2,3.3l-3,6.6c-0.3,0.6-0.8,1.1-1.4,1.3
					c-0.6,0.2-1.3,0.2-1.9-0.1c-0.7,1.1-1.3,2.1-2,3.1c1,0.9,1,2.5,0.1,3.5l-4.9,5.3c-0.5,0.5-1.1,0.8-1.7,0.8s-1.2-0.2-1.7-0.6
					c-1,0.8-2,1.6-3,2.4l0,0c0.3,0.6,0.4,1.3,0.3,1.9s-0.6,1.2-1.2,1.5l-6.3,3.6c-1.2,0.7-2.7,0.3-3.4-0.9l0,0
					c-1.2,0.5-2.4,1-3.7,1.4c0.1,0.6,0,1.2-0.4,1.8c-0.4,0.6-0.9,1-1.6,1.1l-7.1,1.5c-1.3,0.3-2.6-0.5-2.9-1.8
					c-1.4,0.1-2.6,0.2-3.9,0.3v0.1c-0.1,0.7-0.4,1.3-0.9,1.7C386.9,384.6,386.4,384.8,385.8,384.8z M381.3,379.4l2.2,0.2
					c0.2-1.2,1.2-2.1,2.5-2.1c2.3,0,4.9-0.2,7.8-0.5c1.2-0.1,2.2,0.6,2.6,1.6l2.3-0.5c-0.1-1.1,0.6-2.2,1.8-2.6
					c2.7-0.8,4.9-1.6,7.1-2.8c1.1-0.6,2.6-0.3,3.3,0.8l2-1.1c-0.5-1.1-0.2-2.4,0.8-3.1c2.2-1.6,4.2-3,6-4.8c0.9-0.9,2.2-1,3.2-0.3
					l1.5-1.7c-0.7-0.9-0.8-2.2-0.1-3.1c1.5-1.9,2.9-4.2,4.2-6.4c0.6-1.1,1.8-1.5,3-1.1l0.9-2.1c-1.1-0.6-1.5-1.9-1.1-3.1
					c1-2.4,1.5-5,2-7.2c0.2-1.2,1.2-2,2.4-2l0.2-2.2c-1.2-0.2-2.1-1.4-2-2.6c0.2-2,0.1-4.4-0.3-7.6c-0.1-1.2,0.6-2.3,1.7-2.7
					l-0.4-2.2c-1.1,0.1-2.2-0.7-2.5-1.8c-0.7-2.6-1.6-4.9-2.6-7.2c-0.5-1.1-0.2-2.4,0.8-3.1l-1-1.9c-1.1,0.5-2.5,0.1-3.1-0.9
					c-1.5-2.2-3-4.2-4.7-6.1c-0.7-0.8-0.9-2-0.3-3l0.8-1.3l-2-1.8c-0.9,0.8-2.3,0.8-3.2,0c-1.9-1.6-3.9-3-6.2-4.3
					c-1.1-0.6-1.5-1.9-1.1-3l-2.1-1c-0.6,1-1.9,1.5-3.1,1c-2.5-1-4.9-1.7-7.2-2.2c-1.2-0.2-2-1.3-2-2.4l-2.3-0.3
					c-0.3,1.2-1.4,2.1-2.6,2c-2.8-0.2-5.3-0.2-7.5,0.2c-0.7,0.1-1.3-0.1-1.9-0.5c-0.4-0.3-0.7-0.7-0.9-1.2l-2.2,0.4
					c0.1,1.2-0.7,2.3-1.8,2.7c-2.3,0.6-5,1.4-7.3,2.5c-1.1,0.5-2.5,0.1-3.1-0.9l-2,1c0.4,1.1,0,2.3-1,3c-2.4,1.6-4.4,3-6.4,4.6
					c-0.9,0.8-2.3,0.7-3.2,0l-1.6,1.6c0.8,0.9,0.8,2.3-0.1,3.3c-2.5,2.8-4.7,6.1-6.5,9.8c-0.5,1.1-1.8,1.7-3,1.3l-0.9,2.1
					c1,0.6,1.5,1.8,1.2,2.9c-0.9,3-1.5,5.4-1.7,7.5c-0.1,1.3-1.2,2.2-2.5,2.2l-0.2,2.2c1.2,0.2,2.1,1.2,2.1,2.5
					c0,2.7,0.2,5.3,0.7,7.6c0.2,1.2-0.5,2.4-1.6,2.8l0.5,2.3c1.1-0.1,2.2,0.6,2.6,1.8c0.8,2.6,1.7,4.9,2.9,7.2
					c0.6,1.1,0.2,2.5-0.8,3.2l1.2,2c1.1-0.6,2.5-0.2,3.2,0.8c1.6,2.2,3.3,4.3,5,6c0.9,0.9,1,2.2,0.3,3.2l1.7,1.5
					c0.9-0.8,2.2-0.8,3.2-0.1c2.2,1.7,4.3,3,6.5,4c1.1,0.5,1.7,1.8,1.3,3l2,0.9c0.6-1,1.8-1.5,2.9-1.1c2.7,0.8,5.2,1.5,7.6,1.9
					C380.5,377.1,381.3,378.1,381.3,379.4z"/>
			</g>
			<g class="st1">
				<path d="M387,364c-19.2,0-34.8-15.6-34.8-34.8s15.6-34.8,34.8-34.8s34.8,15.6,34.8,34.8S406.2,364,387,364z M387,299.4
					c-16.4,0-29.8,13.4-29.8,29.8S370.6,359,387,359s29.8-13.4,29.8-29.8S403.4,299.4,387,299.4z"/>
			</g>
		</g>
		<g id="_x30_3_2_" class="st0">
			<g class="st1">
				<path d="M387.1,384c-1.3,0-2.4-1-2.5-2.3v-0.1c-1.4-0.1-2.7-0.2-3.9-0.3c-0.2,0.6-0.6,1.1-1.1,1.4c-0.6,0.3-1.3,0.5-1.9,0.3
					l-7.1-1.8c-1.3-0.3-2.1-1.6-1.8-2.9c-1.2-0.4-2.3-0.9-3.5-1.5l0,0c-0.3,0.6-0.9,1-1.6,1.1c-0.6,0.2-1.3,0-1.9-0.3l-6.1-3.8
					c-1.2-0.7-1.5-2.2-0.8-3.4l0.1-0.1c-1-0.8-2-1.6-2.9-2.5c-0.5,0.4-1.1,0.6-1.7,0.6c-0.7,0-1.3-0.4-1.8-0.9l-4.8-5.6
					c-0.9-1-0.8-2.5,0.2-3.4c-0.8-1.1-1.5-2.3-2.1-3.5l0,0c-1.3,0.5-2.7-0.1-3.2-1.4l-2.8-6.7c-0.3-0.6-0.3-1.3,0-1.9
					c0.2-0.6,0.7-1,1.2-1.3c-0.8-2.9-1.4-5.6-1.7-8.2l0,0c-1.4,0-2.5-1.1-2.5-2.5v-7.2c0-1.4,1.1-2.5,2.5-2.5l0,0
					c0.1-1.3,0.3-2.6,0.6-3.9c-1.3-0.4-1.9-1.8-1.6-3.1l2.1-6.9c0.2-0.6,0.6-1.2,1.2-1.5s1.3-0.4,1.9-0.2c0.5-1.1,1.1-2.2,1.7-3.4
					l0,0c-0.5-0.4-0.9-1-1-1.6c-0.1-0.7,0.1-1.3,0.4-1.9l4.3-5.9c0.8-1.1,2.3-1.4,3.4-0.6c0.9-1,1.8-1.9,2.7-2.8l0,0
					c-0.8-1.1-0.6-2.7,0.5-3.5l5.8-4.3c0.5-0.4,1.2-0.6,1.9-0.5c0.6,0.1,1.2,0.4,1.6,0.9c1.1-0.6,2.2-1.2,3.4-1.7l0,0
					c-0.2-0.6-0.2-1.3,0.1-1.9c0.3-0.6,0.8-1,1.4-1.3l6.9-2.3c1.3-0.4,2.7,0.2,3.1,1.5c1.2-0.3,2.5-0.5,3.8-0.7v-0.1
					c0-1.4,1.1-2.5,2.4-2.5l7.2-0.2c1.2,0,2.3,0.8,2.5,2.1v0.2c1.5,0.1,3,0.3,4.3,0.6l0,0c0.4-1.3,1.8-2,3.1-1.6l6.9,2.1
					c0.6,0.2,1.2,0.6,1.5,1.2s0.4,1.2,0.2,1.8c1.2,0.5,2.4,1.1,3.5,1.7l0,0c0.8-1.1,2.3-1.4,3.5-0.6l5.9,4.1c0.6,0.4,0.9,1,1,1.6
					s0,1.3-0.4,1.8c0.9,0.8,1.9,1.7,2.8,2.7l0,0c1.1-0.8,2.6-0.6,3.5,0.5l4.4,5.8c0.4,0.5,0.6,1.2,0.5,1.9c-0.1,0.6-0.4,1.2-1,1.6
					c0.7,1.1,1.3,2.2,1.8,3.3c0.6-0.2,1.3-0.2,1.9,0.1c0.6,0.3,1.1,0.8,1.3,1.4l2.5,6.7c0.5,1.3-0.2,2.7-1.4,3.2
					c0.3,1.2,0.5,2.4,0.7,3.7c0.6,0,1.3,0.2,1.8,0.6c0.5,0.5,0.8,1.1,0.8,1.8l0.3,7.2c0.1,1.3-0.9,2.5-2.3,2.6h-0.1
					c-0.1,1.4-0.2,2.7-0.4,4.1h0.1c1.3,0.4,2,1.8,1.6,3l-2,7.1c-0.2,0.7-0.6,1.2-1.2,1.5c-0.5,0.3-1.1,0.4-1.7,0.2
					c-0.4,1.1-1,2.3-1.6,3.4c1.1,0.8,1.3,2.2,0.6,3.4l-3.9,6.1c-0.4,0.6-0.9,1-1.6,1.1c-0.6,0.1-1.2,0-1.7-0.3c-0.8,1-1.7,2-2.6,2.9
					l0,0c0.4,0.5,0.6,1.2,0.6,1.8c-0.1,0.7-0.4,1.3-0.9,1.7l-5.6,4.6c-1.1,0.9-2.6,0.7-3.5-0.3v-0.1c-1.1,0.7-2.2,1.4-3.3,2l0,0
					c0.5,1.3-0.2,2.7-1.4,3.2l-6.7,2.6c-0.6,0.2-1.3,0.2-1.9,0c-0.6-0.3-1-0.7-1.3-1.3c-1.1,0.3-2.4,0.6-3.7,0.9
					c0,0.7-0.2,1.3-0.6,1.8s-1.1,0.8-1.7,0.9l-7.2,0.5C387.2,384,387.2,384,387.1,384z M378.8,376c0.2,0,0.3,0,0.5,0
					c2.3,0.4,4.8,0.7,7.6,0.7c1.2,0,2.3,0.9,2.5,2.1l2.2-0.2c0-1.3,0.9-2.3,2.2-2.5c2.2-0.3,4.7-0.8,7.4-1.7c1.2-0.4,2.4,0.2,3,1.2
					l2.1-0.8c-0.3-1.2,0.2-2.4,1.3-2.9c2.2-1.1,4.4-2.4,6.5-3.9c1-0.7,2.4-0.6,3.3,0.3l1.7-1.4c-0.7-1-0.6-2.5,0.4-3.3
					c1.7-1.5,3.4-3.5,5-5.7c0.7-1,2-1.3,3.1-0.8l1.2-1.9c-0.9-0.8-1.2-2.1-0.6-3.1c1.4-2.5,2.4-4.8,3.1-6.9c0.2-0.6,0.6-1.2,1.2-1.5
					c0.5-0.2,1-0.3,1.5-0.2l0.7-2.3c-1.1-0.4-1.7-1.6-1.5-2.8c0.5-2.6,0.8-5.1,0.8-7.6c0-1.3,1-2.3,2.2-2.5l-0.1-2.2
					c-1.2,0-2.3-1-2.4-2.2c-0.3-2.8-0.8-5.2-1.5-7.4c-0.4-1.2,0.2-2.5,1.3-3l-0.8-2c-1.1,0.3-2.4-0.2-2.9-1.3
					c-1-2.2-2.2-4.3-3.8-6.9c-0.6-1-0.4-2.3,0.4-3.1l-1.4-1.8c-1,0.6-2.3,0.4-3.1-0.5c-1.8-2-3.8-3.8-5.7-5.4
					c-0.9-0.8-1.1-2.1-0.6-3.1L414,288c-0.8,0.9-2.1,1.1-3.1,0.5c-2.3-1.3-4.7-2.4-7.1-3.3c-1.1-0.4-1.8-1.6-1.6-2.8l-2.1-0.7
					c-0.5,1.1-1.6,1.7-2.8,1.5c-2.8-0.5-5.2-1-7.6-1c-1.2,0-2.2-0.9-2.5-2.1V280l-2.6,0.1c-0.1,1.2-1,2.2-2.2,2.4
					c-2.6,0.3-5.1,0.7-7.5,1.4c-1.2,0.3-2.4-0.3-2.9-1.3l-2.2,0.7c0.2,1.1-0.3,2.3-1.4,2.8l-0.7,0.3c-2.2,1-4.2,2-6.1,3.3
					c-1,0.7-2.4,0.5-3.2-0.4l-1.8,1.3c0.6,1,0.4,2.3-0.5,3.1c-1.8,1.6-3.6,3.5-5.4,5.6c-0.8,0.9-2.1,1.1-3.1,0.6l-1.4,1.9
					c0.8,0.8,1.1,2,0.5,3.1c-1.5,2.6-2.6,4.9-3.5,6.9c-0.5,1.1-1.6,1.7-2.8,1.5l-0.7,2.1c1.1,0.5,1.7,1.7,1.4,2.9
					c-0.7,2.6-1,5.3-1.1,7.6c-0.1,1.2-1.1,2.2-2.3,2.3v2.2c1.2,0.1,2.2,1.1,2.3,2.3c0.3,3.7,1,7.4,2.4,11.6c0.4,1.1-0.1,2.3-1.1,2.9
					l0.9,2.2c1.1-0.4,2.4,0.2,2.9,1.2c1.3,2.5,2.5,4.6,4,6.5c0.8,1,0.7,2.4-0.1,3.3l1.6,1.8c1-0.6,2.3-0.5,3.1,0.3
					c1.7,1.7,3.5,3.2,5.9,5.1c1,0.7,1.2,2.1,0.7,3.2l1.9,1.2c0.7-1,2.1-1.3,3.2-0.8c2.3,1.2,4.6,2.2,7,2.9c1.1,0.4,1.9,1.5,1.7,2.7
					l2.3,0.6C376.9,376.6,377.8,376,378.8,376z M382.1,280.1L382.1,280.1L382.1,280.1z"/>
			</g>
			<g class="st1">
				<path d="M387,364.2c-19.2,0-34.8-15.6-34.8-34.8c0-19.2,15.6-34.8,34.8-34.8s34.8,15.6,34.8,34.8S406.2,364.2,387,364.2z
					 M387,299.6c-16.4,0-29.8,13.4-29.8,29.8s13.4,29.8,29.8,29.8s29.8-13.4,29.8-29.8S403.4,299.6,387,299.6z"/>
			</g>
		</g>
		<g id="_x30_4_2_" class="st0">
			<g class="st1">
				<path d="M387.3,383.8c-0.1,0-0.1,0-0.2,0l-7.2-0.5c-0.7,0-1.3-0.4-1.7-0.9c-0.4-0.5-0.6-1.2-0.6-1.8c-1.1-0.2-2.4-0.5-3.7-0.9
					c-0.2,0.6-0.7,1.1-1.3,1.4c-0.6,0.3-1.3,0.3-1.9,0l-6.7-2.8c-1.2-0.5-1.9-1.9-1.4-3.2l0,0c-2.6-1.4-5-3-7.1-4.7
					c-1,0.9-2.5,0.9-3.5,0l-5.1-5.1c-0.5-0.5-0.7-1.1-0.7-1.8s0.3-1.3,0.7-1.8l0,0c-0.8-1-1.5-2.1-2.3-3.2l0,0
					c-1.2,0.6-2.7,0.1-3.3-1.1L338,351c-0.3-0.6-0.4-1.3-0.2-1.9c0.2-0.6,0.6-1.1,1.2-1.4c-0.5-1.2-0.9-2.5-1.2-3.7h-0.2
					c-1.3,0.2-2.6-0.7-2.8-2.1l-1.2-7.1c-0.1-0.7,0-1.3,0.4-1.9c0.3-0.5,0.8-0.8,1.4-0.9c-0.1-1.2-0.1-2.5-0.1-3.8l0,0
					c-0.7-0.1-1.3-0.4-1.7-1c-0.4-0.5-0.6-1.2-0.5-1.9l1-7.2c0.1-0.7,0.4-1.3,1-1.7c0.5-0.4,1.1-0.5,1.7-0.5
					c0.3-1.2,0.7-2.4,1.1-3.7c-1.2-0.6-1.7-2.1-1.1-3.3l3.1-6.6c0.3-0.6,0.8-1.1,1.4-1.3c0.6-0.2,1.3-0.2,1.9,0.1
					c0.7-1.1,1.4-2.1,2.2-3.1c-0.9-0.9-0.9-2.5,0-3.4l4.9-5.3c0.8-0.9,2.1-1.1,3.1-0.4l1.4,0.9c1.1-0.9,2.2-1.7,3.3-2.6
					c-0.3-0.6-0.4-1.3-0.3-1.9c0.2-0.7,0.6-1.2,1.2-1.5l6.4-3.5c0.6-0.3,1.3-0.4,1.9-0.2c0.6,0.2,1.1,0.6,1.4,1.1
					c1.1-0.5,2.3-0.9,3.5-1.3c-0.1-0.6,0-1.2,0.4-1.7c0.4-0.6,1-1,1.6-1.1l7.1-1.3c1.3-0.2,2.6,0.6,2.9,1.9c1.5-0.1,2.8-0.2,4-0.2
					l0,0l0,0c0.2-1.4,1.4-2.3,2.8-2.2l7.2,0.8c0.7,0.1,1.3,0.4,1.7,1c0.4,0.5,0.6,1.1,0.5,1.7c1.2,0.3,2.4,0.6,3.7,1l0,0
					c0.6-1.2,2-1.7,3.3-1.2l6.6,3c0.6,0.3,1.1,0.8,1.3,1.4c0.2,0.6,0.2,1.3-0.1,1.9c1.1,0.7,2.1,1.3,3.1,2c0.9-1,2.5-1,3.5-0.1
					l5.3,4.9c0.5,0.5,0.8,1.1,0.8,1.7s-0.2,1.2-0.6,1.7c0.8,1,1.6,2,2.4,3l0,0c0.6-0.3,1.3-0.4,1.9-0.3c0.7,0.2,1.2,0.6,1.5,1.2
					l3.6,6.3c0.7,1.2,0.3,2.7-0.9,3.4l0,0c0.5,1.2,1,2.4,1.4,3.7c0.6-0.1,1.2,0,1.8,0.4c0.6,0.4,1,0.9,1.1,1.6l1.5,7.1
					c0.3,1.3-0.5,2.6-1.8,2.9c0.1,1.4,0.2,2.6,0.2,3.9h0.1c0.7,0.1,1.3,0.4,1.7,0.9c0.4,0.5,0.6,1.2,0.6,1.8l-0.7,7.2
					c-0.1,1.4-1.3,2.4-2.7,2.2h-0.1c-0.3,1.2-0.6,2.4-0.9,3.7c0.6,0.3,1.1,0.7,1.4,1.4c0.3,0.6,0.2,1.4,0,2l-3,6.6
					c-0.5,1.2-1.9,1.8-3.1,1.3c-0.6,1.1-1.4,2.3-2.2,3.4c1,0.9,1,2.5,0.1,3.5l-4.8,5.4c-0.4,0.5-1.1,0.8-1.8,0.8
					c-0.6,0-1.2-0.2-1.7-0.6c-1,0.9-2,1.7-3,2.5v0.1c0.7,1.2,0.3,2.7-0.9,3.4l-6.3,3.8c-0.6,0.3-1.2,0.4-1.9,0.3
					c-0.6-0.2-1.2-0.6-1.5-1.1l0,0c-1.2,0.5-2.4,1-3.7,1.5c0.1,0.6,0,1.2-0.3,1.8c-0.4,0.6-0.9,1-1.6,1.1l-7.1,1.6
					c-1.3,0.3-2.6-0.5-2.9-1.7c-1.3,0.2-2.6,0.3-3.9,0.3v0.1C389.7,382.8,388.6,383.8,387.3,383.8z M382.8,378.5l2.2,0.2
					c0.2-1.2,1.2-2.1,2.5-2.1c2.7,0,5.3-0.2,7.6-0.7c1.2-0.2,2.4,0.5,2.8,1.6l2.3-0.5c-0.1-1.2,0.6-2.3,1.8-2.6
					c2.6-0.8,4.9-1.7,7.2-2.9c1.1-0.6,2.5-0.2,3.2,0.8l2-1.2c-0.6-1.1-0.2-2.5,0.8-3.2c2.2-1.6,4.3-3.3,6-5c0.9-0.9,2.2-1,3.2-0.3
					l1.5-1.7c-0.8-0.9-0.8-2.2-0.1-3.2c1.7-2.2,3-4.3,4-6.5c0.5-1.1,1.8-1.7,3-1.3l0.9-2c-1-0.6-1.5-1.8-1.1-2.9
					c0.8-2.7,1.5-5.2,1.9-7.6c0.2-1.2,1.3-2,2.5-2l0.2-2.2c-1.2-0.2-2.1-1.2-2.1-2.5c0-2.3-0.2-4.9-0.5-7.8
					c-0.1-1.2,0.6-2.2,1.6-2.6l-0.5-2.3c-1.1,0.1-2.2-0.6-2.6-1.8c-0.8-2.7-1.6-4.9-2.8-7.1c-0.6-1.1-0.3-2.6,0.8-3.3l-1.1-2
					c-1.1,0.5-2.4,0.2-3.1-0.8c-1.6-2.2-3-4.2-4.8-6c-0.9-0.9-1-2.2-0.3-3.2l-1.7-1.5c-0.9,0.8-2.2,0.8-3.1,0.1
					c-1.9-1.5-4.2-2.9-6.4-4.2c-1.1-0.6-1.5-1.8-1.1-3l-2.1-0.9c-0.6,1.1-1.9,1.5-3.1,1.1c-2.4-1-5-1.5-7.2-2c-1.2-0.2-2-1.2-2-2.4
					l-2.2-0.2c-0.2,1.2-1.3,2.1-2.6,2c-2-0.2-4.4-0.1-7.6,0.3c-1.2,0.1-2.3-0.6-2.7-1.7l-2.2,0.4c0.1,1.1-0.7,2.2-1.8,2.5
					c-2.6,0.7-4.9,1.6-7.2,2.6c-1.1,0.5-2.4,0.2-3.1-0.8l-1.9,1c0.5,1.1,0.1,2.5-0.9,3.1c-2.2,1.5-4.2,3-6.1,4.7
					c-0.8,0.7-2,0.9-3,0.3l-1.3-0.8l-1.8,2c0.8,0.9,0.8,2.3,0,3.2c-1.6,1.9-3,3.9-4.3,6.2c-0.6,1.1-1.9,1.5-3,1.1l-1,2.1
					c1,0.6,1.5,1.9,1,3.1c-1,2.5-1.7,4.9-2.2,7.2c-0.2,1.2-1.3,2-2.4,2l-0.3,2.3c1.2,0.3,2.1,1.4,2,2.6c-0.2,2.8-0.2,5.3,0.2,7.5
					c0.1,0.7-0.1,1.3-0.5,1.9c-0.3,0.4-0.7,0.7-1.2,0.9l0.4,2.2c1.2-0.1,2.3,0.7,2.6,1.8c0.6,2.3,1.4,5,2.5,7.3
					c0.5,1.1,0.1,2.5-0.9,3.1l1,2c1.1-0.4,2.3,0,3,1c1.6,2.4,3,4.4,4.6,6.4c0.8,0.9,0.7,2.3,0,3.2l1.6,1.6c0.9-0.8,2.3-0.8,3.3,0.1
					c2.8,2.5,6.1,4.7,9.8,6.5c1.1,0.5,1.7,1.8,1.3,3l2.1,0.9c0.6-1,1.8-1.6,2.9-1.2c3,0.9,5.4,1.5,7.5,1.7
					C381.9,376.2,382.8,377.2,382.8,378.5z"/>
			</g>
			<g class="st1">
				<path d="M387,364.2c-19.2,0-34.8-15.6-34.8-34.8c0-19.2,15.6-34.8,34.8-34.8s34.8,15.6,34.8,34.8S406.2,364.2,387,364.2z
					 M387,299.6c-16.4,0-29.8,13.4-29.8,29.8s13.4,29.8,29.8,29.8s29.8-13.4,29.8-29.8S403.4,299.6,387,299.6z"/>
			</g>
		</g>
		<g id="_x30_5_2_">
			<g>
				<path d="M387,381.7c-28.8,0-52.3-23.5-52.3-52.3s23.5-52.3,52.3-52.3s52.3,23.5,52.3,52.3S415.8,381.7,387,381.7z M387,282.1
					c-26.1,0-47.3,21.2-47.3,47.3c0,26.1,21.2,47.3,47.3,47.3s47.3-21.2,47.3-47.3C434.3,303.3,413.1,282.1,387,282.1z"/>
			</g>
		</g>
	</g>
	<g>
		<path d="M387,364.2c-19.2,0-34.8-15.6-34.8-34.8c0-19.2,15.6-34.8,34.8-34.8s34.8,15.6,34.8,34.8S406.2,364.2,387,364.2z
			 M387,299.6c-16.4,0-29.8,13.4-29.8,29.8s13.4,29.8,29.8,29.8s29.8-13.4,29.8-29.8S403.4,299.6,387,299.6z"/>
	</g>
	<g>
		<g>
			<path d="M264.4,274.6c-0.3,0-0.6-0.1-0.9-0.2c-1.3-0.5-1.9-2-1.4-3.2l33.1-83.9c0.7-1.9,2.2-3.5,4.1-4.3c1.8-0.8,3.9-0.9,5.7-0.2
				l8.7,3.5c0.9,0.4,1.6,1.3,1.6,2.3v44.7c0,1.4-1.1,2.5-2.5,2.5s-2.5-1.1-2.5-2.5v-43l-7.1-2.9c-0.5-0.2-1.2-0.2-1.8,0.1
				c-0.7,0.3-1.2,0.9-1.5,1.6L266.7,273C266.3,274,265.4,274.6,264.4,274.6z"/>
		</g>
	</g>
</g>
</svg>
