<?xml version="1.0" encoding="utf-8"?>
<!-- Generator: Adobe Illustrator 22.1.0, SVG Export Plug-In . SVG Version: 6.00 Build 0)  -->
<svg version="1.1" id="Layer_1" xmlns="http://www.w3.org/2000/svg" xmlns:xlink="http://www.w3.org/1999/xlink" x="0px" y="0px"
	 viewBox="0 0 512 512" style="enable-background:new 0 0 512 512;" xml:space="preserve">
<g>
	<g>
		<path d="M117.7,330.6c-18.3,0-33.2-14.9-33.2-33.2c0-18.3,14.9-33.2,33.2-33.2s33.2,14.9,33.2,33.2S136,330.6,117.7,330.6z
			 M117.7,269.2c-15.5,0-28.2,12.7-28.2,28.2s12.7,28.2,28.2,28.2s28.2-12.7,28.2-28.2C145.9,281.9,133.2,269.2,117.7,269.2z"/>
	</g>
	<g>
		<path d="M117.7,319.6c-12.2,0-22.2-10-22.2-22.2s10-22.2,22.2-22.2s22.2,10,22.2,22.2S129.9,319.6,117.7,319.6z M117.7,280.2
			c-9.5,0-17.2,7.7-17.2,17.2s7.7,17.2,17.2,17.2s17.2-7.7,17.2-17.2C134.9,287.9,127.2,280.2,117.7,280.2z"/>
	</g>
	<g>
		<path d="M367.8,330.6c-18.3,0-33.2-14.9-33.2-33.2c0-18.3,14.9-33.2,33.2-33.2s33.2,14.9,33.2,33.2S386.1,330.6,367.8,330.6z
			 M367.8,269.2c-15.5,0-28.2,12.7-28.2,28.2s12.7,28.2,28.2,28.2s28.2-12.7,28.2-28.2C396,281.9,383.3,269.2,367.8,269.2z"/>
	</g>
	<g>
		<path d="M367.8,319.6c-12.2,0-22.2-10-22.2-22.2s10-22.2,22.2-22.2s22.2,10,22.2,22.2S380,319.6,367.8,319.6z M367.8,280.2
			c-9.5,0-17.2,7.7-17.2,17.2s7.7,17.2,17.2,17.2s17.2-7.7,17.2-17.2C385,287.9,377.3,280.2,367.8,280.2z"/>
	</g>
	<g>
		<path d="M367.8,330.6c-18.3,0-33.2-14.9-33.2-33.2c0-18.3,14.9-33.2,33.2-33.2s33.2,14.9,33.2,33.2S386.1,330.6,367.8,330.6z
			 M367.8,269.2c-15.5,0-28.2,12.7-28.2,28.2s12.7,28.2,28.2,28.2s28.2-12.7,28.2-28.2C396,281.9,383.3,269.2,367.8,269.2z"/>
	</g>
	<g>
		<path d="M367.8,319.6c-12.2,0-22.2-10-22.2-22.2s10-22.2,22.2-22.2s22.2,10,22.2,22.2S380,319.6,367.8,319.6z M367.8,280.2
			c-9.5,0-17.2,7.7-17.2,17.2s7.7,17.2,17.2,17.2s17.2-7.7,17.2-17.2C385,287.9,377.3,280.2,367.8,280.2z"/>
	</g>
	<g>
		<path d="M107.5,203.2H52.8c-1.4,0-2.5-1.1-2.5-2.5c0-0.4,0.8-43.4,8.8-54.3c0.5-0.6,1.2-1,2-1h46.4c4,0,7.2,3.7,7.2,8.2V195
			C114.7,199.4,111.4,203.2,107.5,203.2z M55.4,198.2h52.1c1,0,2.2-1.4,2.2-3.2v-41.4c0-1.8-1.2-3.2-2.2-3.2h-45
			C57.6,159.1,55.7,186.1,55.4,198.2z"/>
	</g>
	<g>
		<path d="M203.8,221.3c-1.1,0-2.1-0.7-2.4-1.8l-20.5-70.9c-0.4-1.3,0.4-2.7,1.7-3.1c1.3-0.4,2.7,0.4,3.1,1.7l20.5,70.9
			c0.4,1.3-0.4,2.7-1.7,3.1C204.3,221.3,204,221.3,203.8,221.3z"/>
	</g>
	<g>
		<path d="M305.6,220.4c-1.1,0-2-0.7-2.4-1.8l-22-70c-0.4-1.3,0.3-2.7,1.6-3.1c1.3-0.4,2.7,0.3,3.1,1.6l22,70
			c0.4,1.3-0.3,2.7-1.6,3.1C306.1,220.4,305.8,220.4,305.6,220.4z"/>
	</g>
	<g>
		<path d="M412,221.3c-1.1,0-2.1-0.7-2.4-1.8l-20.9-70.9c-0.4-1.3,0.4-2.7,1.7-3.1c1.3-0.4,2.7,0.4,3.1,1.7l20.9,70.9
			c0.4,1.3-0.4,2.7-1.7,3.1C412.5,221.3,412.2,221.3,412,221.3z"/>
	</g>
	<g>
		<path d="M472.5,203.3c-0.8,0-1.7-0.4-2.1-1.2l-32.5-52.9c-0.7-1.2-0.4-2.7,0.8-3.4s2.7-0.4,3.4,0.8l32.5,52.9
			c0.7,1.2,0.4,2.7-0.8,3.4C473.4,203.2,472.9,203.3,472.5,203.3z"/>
	</g>
	<g>
		<path d="M440,228.5H151.9c-1.2,0-2.3-0.9-2.5-2.1L137,143.7c-0.2-1.4,0.7-2.6,2.1-2.8c1.4-0.2,2.6,0.7,2.8,2.1l12.1,80.6h286
			c1.4,0,2.5,1.1,2.5,2.5S441.4,228.5,440,228.5z"/>
	</g>
</g>
</svg>
