<?xml version="1.0" encoding="utf-8"?>
<!-- Generator: Adobe Illustrator 22.1.0, SVG Export Plug-In . SVG Version: 6.00 Build 0)  -->
<svg version="1.1" id="Layer_2_1_" xmlns="http://www.w3.org/2000/svg" xmlns:xlink="http://www.w3.org/1999/xlink" x="0px" y="0px"
	 viewBox="0 0 512 512" style="enable-background:new 0 0 512 512;" xml:space="preserve">
<g>
	<g>
		<path d="M131.8,348.2c-23.4,0-42.5-19.1-42.5-42.5s19.1-42.5,42.5-42.5s42.5,19.1,42.5,42.5S155.2,348.2,131.8,348.2z
			 M131.8,268.2c-20.7,0-37.5,16.8-37.5,37.5s16.8,37.5,37.5,37.5s37.5-16.8,37.5-37.5S152.5,268.2,131.8,268.2z"/>
	</g>
	<g>
		<path d="M408.2,348.2c-23.4,0-42.5-19.1-42.5-42.5s19.1-42.5,42.5-42.5s42.5,19.1,42.5,42.5S431.6,348.2,408.2,348.2z
			 M408.2,268.2c-20.7,0-37.5,16.8-37.5,37.5s16.8,37.5,37.5,37.5s37.5-16.8,37.5-37.5S428.9,268.2,408.2,268.2z"/>
	</g>
	<g>
		<path d="M408.2,223.6h-91.6c-1.4,0-2.5-1.1-2.5-2.5v-64.6c0-1.4,1.1-2.5,2.5-2.5l39.6-0.1c0,0,0,0,0,0c0.8,0,1.5,0.3,1.9,0.9
			l52,64.7c0.6,0.7,0.7,1.8,0.3,2.6C410,223,409.2,223.6,408.2,223.6z M319.1,218.6H403l-48-59.7l-35.9,0.1V218.6z"/>
	</g>
</g>
</svg>
