<?xml version="1.0" encoding="utf-8"?>
<!-- Generator: Adobe Illustrator 22.1.0, SVG Export Plug-In . SVG Version: 6.00 Build 0)  -->
<svg version="1.1" id="Layer_1" xmlns="http://www.w3.org/2000/svg" xmlns:xlink="http://www.w3.org/1999/xlink" x="0px" y="0px"
	 viewBox="0 0 512 512" style="enable-background:new 0 0 512 512;" xml:space="preserve">
<g>
	<circle cx="69.3" cy="140.9" r="3.5"/>
	<circle cx="117.6" cy="140.9" r="3.5"/>
	<circle cx="165.8" cy="140.9" r="3.5"/>
	<circle cx="214.1" cy="140.9" r="3.5"/>
	<circle cx="262.4" cy="140.9" r="3.5"/>
	<circle cx="310.7" cy="140.9" r="3.5"/>
	<circle cx="359" cy="140.9" r="3.5"/>
	<circle cx="390.4" cy="174.5" r="3.5"/>
	<circle cx="421.8" cy="208" r="3.5"/>
	<circle cx="450.2" cy="225" r="3.5"/>
	<circle cx="478.6" cy="242" r="3.5"/>
	<circle cx="481.8" cy="276.8" r="3.5"/>
	<circle cx="482" cy="309.5" r="3.5"/>
	<circle cx="461" cy="309.5" r="3.5"/>
	<circle cx="448.2" cy="273.5" r="3.5"/>
	<circle cx="421.5" cy="257.1" r="3.5"/>
	<circle cx="386.7" cy="258.9" r="3.5"/>
	<circle cx="362.6" cy="278.9" r="3.5"/>
	<circle cx="349.8" cy="309.5" r="3.5"/>
	<circle cx="308.5" cy="309.5" r="3.5"/>
	<circle cx="267.3" cy="309.5" r="3.5"/>
	<circle cx="226" cy="309.5" r="3.5"/>
	<circle cx="184.8" cy="309.5" r="3.5"/>
	<circle cx="177.3" cy="270.2" r="3.5"/>
	<circle cx="145.7" cy="253.1" r="3.5"/>
	<circle cx="110" cy="255.9" r="3.5"/>
	<circle cx="87.4" cy="275.9" r="3.5"/>
	<circle cx="80.2" cy="309.5" r="3.5"/>
	<circle cx="51.6" cy="309.5" r="3.5"/>
	<circle cx="21" cy="309.5" r="3.5"/>
	<circle cx="21" cy="260.9" r="3.5"/>
	<circle cx="21" cy="221.2" r="3.5"/>
	<circle cx="21" cy="181.5" r="3.5"/>
	<circle cx="21" cy="140.9" r="3.5"/>
</g>
</svg>
