<?xml version="1.0" encoding="utf-8"?>
<!-- Generator: Adobe Illustrator 22.1.0, SVG Export Plug-In . SVG Version: 6.00 Build 0)  -->
<svg version="1.1" id="Layer_1" xmlns="http://www.w3.org/2000/svg" xmlns:xlink="http://www.w3.org/1999/xlink" x="0px" y="0px"
	 viewBox="0 0 512 512" style="enable-background:new 0 0 512 512;" xml:space="preserve">
<g>
	<circle cx="216.8" cy="129.9" r="3.5"/>
	<circle cx="195" cy="139.9" r="3.5"/>
	<circle cx="169" cy="155.4" r="3.5"/>
	<circle cx="145.7" cy="175" r="3.5"/>
	<circle cx="104.9" cy="178.5" r="3.5"/>
	<circle cx="66.8" cy="186.2" r="3.5"/>
	<circle cx="37.9" cy="194.1" r="3.5"/>
	<circle cx="26.7" cy="224.5" r="3.5"/>
	<circle cx="13.2" cy="224.5" r="3.5"/>
	<ellipse transform="matrix(9.802469e-03 -1 1 9.802469e-03 -242.7171 266.4919)" cx="13.2" cy="255.8" rx="3.5" ry="3.5"/>
	
		<ellipse transform="matrix(3.327779e-02 -0.9994 0.9994 3.327779e-02 -194.4648 310.5525)" cx="63.3" cy="255.8" rx="3.5" ry="3.5"/>
	<circle cx="66.8" cy="235.5" r="3.5"/>
	<circle cx="77.8" cy="215" r="3.5"/>
	<circle cx="97.9" cy="208" r="3.5"/>
	<circle cx="122.5" cy="208" r="3.5"/>
	<circle cx="139.1" cy="221" r="3.5"/>
	<circle cx="142.6" cy="239" r="3.5"/>
	<circle cx="145.7" cy="252.3" r="3.5"/>
	<circle cx="179" cy="252.3" r="3.5"/>
	<circle cx="222.1" cy="252.3" r="3.5"/>
	<circle cx="259.6" cy="252.3" r="3.5"/>
	<circle cx="299.5" cy="252.3" r="3.5"/>
	<circle cx="335.8" cy="253.6" r="3.5"/>
	<circle cx="339.3" cy="232" r="3.5"/>
	<circle cx="359.8" cy="215" r="3.5"/>
	<circle cx="386.1" cy="208" r="3.5"/>
	<circle cx="407.5" cy="215" r="3.5"/>
	<circle cx="421.5" cy="232" r="3.5"/>
	<circle cx="425" cy="253.6" r="3.5"/>
	<circle cx="452.5" cy="252.3" r="3.5"/>
	<circle cx="483.8" cy="245.3" r="3.5"/>
	<circle cx="498.8" cy="235.5" r="3.5"/>
	<circle cx="495.3" cy="218.5" r="3.5"/>
	<circle cx="483.8" cy="211.5" r="3.5"/>
	<circle cx="483.7" cy="170.4" r="3.5"/>
	<circle cx="458" cy="170.4" r="3.5"/>
	<circle cx="435.3" cy="170.4" r="3.5"/>
	<circle cx="407.5" cy="155.4" r="3.5"/>
	<circle cx="379.1" cy="139.9" r="3.5"/>
	<circle cx="347.8" cy="129.9" r="3.5"/>
	<circle cx="313.4" cy="129.9" r="3.5"/>
	<circle cx="287.4" cy="129.9" r="3.5"/>
	<circle cx="290.9" cy="112.8" r="3.5"/>
	<circle cx="256.1" cy="112.8" r="3.5"/>
	<circle cx="256.1" cy="128.5" r="3.5"/>
	<circle cx="236.5" cy="128.5" r="3.5"/>
</g>
</svg>
