<?xml version="1.0" encoding="utf-8"?>
<!-- Generator: Adobe Illustrator 22.1.0, SVG Export Plug-In . SVG Version: 6.00 Build 0)  -->
<svg version="1.1" id="Layer_1" xmlns="http://www.w3.org/2000/svg" xmlns:xlink="http://www.w3.org/1999/xlink" x="0px" y="0px"
	 viewBox="0 0 512 512" style="enable-background:new 0 0 512 512;" xml:space="preserve">
<g>
	<g>
		<path d="M364.4,212.2c-0.7,0-1.4-0.3-1.9-0.9c-0.9-1-0.8-2.6,0.3-3.5c13.6-11.8,18.8-21.1,17-30.3c-1.5-7.4-9.9-25-30.5-39
			c-1.1-0.8-1.4-2.3-0.7-3.5c0.8-1.1,2.3-1.4,3.5-0.7c19,13,30.2,30.9,32.5,42.2c2.3,11.2-3.5,22-18.6,35.1
			C365.6,212,365,212.2,364.4,212.2z"/>
	</g>
	<g>
		<path d="M70.3,229H33.7c-1.4,0-2.5-1.1-2.5-2.5s1.1-2.5,2.5-2.5h36.6c1.4,0,2.5,1.1,2.5,2.5S71.7,229,70.3,229z"/>
	</g>
	<g>
		<path d="M480.3,223.3h-65.5c-1.4,0-2.5-1.1-2.5-2.5s1.1-2.5,2.5-2.5h65.5c1.4,0,2.5,1.1,2.5,2.5S481.7,223.3,480.3,223.3z"/>
	</g>
	<g>
		<path d="M104.9,283.2c-18.3,0-33.1-14.8-33.1-33.1S86.6,217,104.9,217s33.1,14.8,33.1,33.1S123.2,283.2,104.9,283.2z M104.9,222
			c-15.5,0-28.1,12.6-28.1,28.1s12.6,28.1,28.1,28.1s28.1-12.6,28.1-28.1S120.4,222,104.9,222z"/>
	</g>
	<g>
		<path d="M384.5,283.2c-18.3,0-33.1-14.8-33.1-33.1s14.8-33.1,33.1-33.1s33.1,14.8,33.1,33.1S402.8,283.2,384.5,283.2z M384.5,222
			c-15.5,0-28.1,12.6-28.1,28.1s12.6,28.1,28.1,28.1s28.1-12.6,28.1-28.1S400,222,384.5,222z"/>
	</g>
	<g>
		<path d="M255.9,184.1h-83.4c-0.9,0-1.7-0.5-2.2-1.3s-0.4-1.7,0-2.5c12.3-20.9,33.6-35,61.6-40.6c21-4.3,38.1-2.4,38.8-2.3
			c0.8,0.1,1.4,0.5,1.8,1.2c0.4,0.6,0.5,1.4,0.2,2.2l-14.5,41.7C257.9,183.4,257,184.1,255.9,184.1z M177,179.1h77.1l12.8-37
			C253.8,141.4,202.5,141.2,177,179.1z"/>
	</g>
	<g>
		<path d="M355,184.1h-81c-0.7,0-1.5-0.3-1.9-0.9c-0.5-0.6-0.7-1.3-0.5-2.1l8.6-42.8c0.2-1.2,1.3-2,2.5-2l56.9,1.8
			c0.5,0,1,0.2,1.5,0.5c7.8,6.1,20.9,18,21,29.4v0.1c1.5,11.6-3.3,14.9-6.3,15.8C355.5,184.1,355.3,184.1,355,184.1z M277.1,179.1
			h77.5c3.3-1.4,2.8-7.6,2.5-10.3c0-0.2-0.1-0.4-0.1-0.7l0,0c0-9.5-13.3-21-18.4-25l-54-1.7L277.1,179.1z"/>
	</g>
	<g>
		<path d="M483.8,205.4h-19.2c-1.4,0-2.5-1.1-2.5-2.5v-13.5c0-0.4,0.1-0.8,0.3-1.1c5.4-10.5,21.2-7.7,21.9-7.6
			c1.4,0.3,2.3,1.6,2,2.9c-0.3,1.4-1.6,2.3-2.9,2c-0.2,0-12.3-2.1-16.2,4.5v10.4h16.7c1.4,0,2.5,1.1,2.5,2.5
			S485.2,205.4,483.8,205.4z"/>
	</g>
	<g>
		<path d="M341.6,195.3c-1.3,0-2.4-1.1-2.5-2.4c-0.1-1.4,1-2.5,2.4-2.6l19.4-0.8h0.1c1.3,0,2.4,1.1,2.5,2.4c0.1,1.4-1,2.5-2.4,2.6
			l-19.4,0.8H341.6z"/>
	</g>
	<g>
		<path d="M249.3,194.5h-22c-1.4,0-2.5-1.1-2.5-2.5s1.1-2.5,2.5-2.5h22c1.4,0,2.5,1.1,2.5,2.5S250.7,194.5,249.3,194.5z"/>
	</g>
</g>
</svg>
