<?xml version="1.0" encoding="utf-8"?>
<!-- Generator: Adobe Illustrator 22.1.0, SVG Export Plug-In . SVG Version: 6.00 Build 0)  -->
<svg version="1.1" id="Layer_2_1_" xmlns="http://www.w3.org/2000/svg" xmlns:xlink="http://www.w3.org/1999/xlink" x="0px" y="0px"
	 viewBox="0 0 512 512" style="enable-background:new 0 0 512 512;" xml:space="preserve">
<g>
	<g>
		<path d="M69,415c-33.4,0-60.5-27.1-60.5-60.5S35.6,294,69,294s60.5,27.1,60.5,60.5S102.4,415,69,415z M69,299
			c-30.6,0-55.5,24.9-55.5,55.5S38.4,410,69,410s55.5-24.9,55.5-55.5S99.6,299,69,299z"/>
	</g>
	<g>
		<path d="M189.5,376c-1.6,0-3-0.2-4.4-0.4c0,0-0.1,0-0.1,0c-9.8-2.1-17-10.9-17-21c0-11.9,9.6-21.5,21.5-21.5c2.5,0,4.9,0.4,7,1.2
			c8.7,2.9,14.5,11.1,14.5,20.3C211,366.4,201.4,376,189.5,376z M185.9,370.6c1.2,0.2,2.4,0.4,3.6,0.4c9.1,0,16.5-7.4,16.5-16.5
			c0-7.1-4.5-13.4-11.2-15.6c-1.6-0.6-3.4-0.9-5.3-0.9c-9.1,0-16.5,7.4-16.5,16.5C173,362.3,178.4,369,185.9,370.6z"/>
	</g>
	<g>
		<path d="M421,376c-1.5,0-2.9-0.2-4.2-0.4c-0.4,0-0.7-0.1-1-0.2c-9.4-2.3-16.3-11-16.3-20.8c0-10,7-18.8,16.6-20.9
			c1.8-0.4,3.3-0.6,4.9-0.6c2.5,0,4.9,0.4,7,1.2c8.7,2.9,14.5,11.1,14.5,20.3C442.5,366.4,432.9,376,421,376z M417.6,370.7
			c1.2,0.2,2.3,0.3,3.4,0.3c9.1,0,16.5-7.4,16.5-16.5c0-7.1-4.5-13.4-11.2-15.6c-1.6-0.6-3.4-0.9-5.3-0.9c-1.2,0-2.4,0.1-3.8,0.4
			c-7.4,1.7-12.7,8.4-12.7,16.1s5.4,14.4,12.8,16.1C417.4,370.6,417.5,370.6,417.6,370.7z"/>
	</g>
	<g>
		<path d="M421,415c-26.1,0-49.1-16.6-57.4-41.2c-2.1-6.3-3.1-12.8-3.1-19.3c0-6.8,1.1-13.3,3.1-19.3c8.2-24.6,31.3-41.2,57.4-41.2
			c33.4,0,60.5,27.1,60.5,60.5S454.4,415,421,415z M421,299c-23.9,0-45.1,15.2-52.6,37.8c-1.9,5.5-2.9,11.5-2.9,17.7
			c0,5.9,1,11.9,2.9,17.7c7.6,22.6,28.7,37.8,52.6,37.8c30.6,0,55.5-24.9,55.5-55.5S451.6,299,421,299z M421,376
			c-1.5,0-2.9-0.2-4.2-0.4c-0.4,0-0.7-0.1-1-0.2c-9.4-2.3-16.3-11-16.3-20.8c0-10,7-18.8,16.6-20.9c1.8-0.4,3.3-0.6,4.9-0.6
			c2.5,0,4.9,0.4,7,1.2c8.7,2.9,14.5,11.1,14.5,20.3C442.5,366.4,432.9,376,421,376z M418.5,371.2
			C418.5,371.2,418.5,371.2,418.5,371.2C418.5,371.2,418.5,371.2,418.5,371.2z M417.6,370.7c1.2,0.2,2.3,0.3,3.4,0.3
			c9.1,0,16.5-7.4,16.5-16.5c0-7.1-4.5-13.4-11.2-15.6c-1.6-0.6-3.4-0.9-5.3-0.9c-1.2,0-2.4,0.1-3.8,0.4
			c-7.4,1.7-12.7,8.4-12.7,16.1s5.4,14.4,12.8,16.1C417.4,370.6,417.5,370.6,417.6,370.7z"/>
	</g>
	<g>
		<path d="M108.5,260.5c-1.6,0-3.1-0.6-4.3-1.6c-1.4-1.2-2.2-3-2.2-4.9v-0.8c0-3.4,2.6-6.2,6-6.5c0,0,0,0,0,0l18.4-1.4
			c1.9-0.2,3.8,0.6,5.2,2c1.4,1.4,2,3.4,1.8,5.3c-0.3,3-2.7,5.4-5.7,5.7l-18.4,2.2C109,260.5,108.8,260.5,108.5,260.5z M108.4,251.7
			c-0.8,0.1-1.4,0.7-1.4,1.5v0.8c0,0.6,0.3,1,0.5,1.2c0.2,0.2,0.6,0.4,1.2,0.4l18.4-2.2c0.7-0.1,1.2-0.7,1.3-1.3
			c0.1-0.5-0.1-0.9-0.4-1.3c-0.2-0.2-0.6-0.5-1.2-0.5L108.4,251.7z"/>
	</g>
	<g>
		<path d="M88.9,301.7c-0.3,0-0.6-0.1-0.9-0.2c-1.3-0.5-1.9-1.9-1.4-3.2l15.6-40.7c0.5-1.3,1.9-1.9,3.2-1.4c1.3,0.5,1.9,1.9,1.4,3.2
			l-15.6,40.7C90.9,301.1,89.9,301.7,88.9,301.7z"/>
	</g>
	<g>
		<path d="M416.7,375.5H189.5c-1.4,0-2.5-1.1-2.5-2.5s1.1-2.5,2.5-2.5c8.8,0,16-7.4,16-16.5c0-7.1-4.4-13.4-10.9-15.6
			c-1.2-0.4-1.9-1.6-1.7-2.8c0.2-1.2,1.2-2.1,2.5-2.1h221.3c1.3,0,2.3,1,2.5,2.2s-0.7,2.4-1.9,2.7c-7.4,1.7-12.8,8.4-12.8,16.1
			s5.4,14.4,12.8,16.1c1.2,0.3,2.1,1.5,1.9,2.7S418,375.5,416.7,375.5z M202.9,370.5h203.7c-4.4-4-7.2-9.8-7.2-16s2.7-12,7.2-16
			H204.1c4,4,6.4,9.5,6.4,15.5C210.5,360.6,207.6,366.6,202.9,370.5z"/>
	</g>
</g>
</svg>
