<?xml version="1.0" encoding="utf-8"?>
<!-- Generator: Adobe Illustrator 22.1.0, SVG Export Plug-In . SVG Version: 6.00 Build 0)  -->
<svg version="1.1" id="Layer_1" xmlns="http://www.w3.org/2000/svg" xmlns:xlink="http://www.w3.org/1999/xlink" x="0px" y="0px"
	 viewBox="0 0 512 512" style="enable-background:new 0 0 512 512;" xml:space="preserve">
<g>
	<circle cx="154.8" cy="272.2" r="3.5"/>
	<circle cx="208" cy="268.4" r="3.5"/>
	<circle cx="244.3" cy="288.5" r="3.5"/>
	<circle cx="276.4" cy="314.4" r="3.5"/>
	<circle cx="309.5" cy="327.3" r="3.5"/>
	<circle cx="336.6" cy="327.1" r="3.5"/>
	<circle cx="348.2" cy="292.4" r="3.5"/>
	<circle cx="369.7" cy="260.3" r="3.5"/>
	<circle cx="396.6" cy="244.2" r="3.5"/>
	<circle cx="430.8" cy="239" r="3.5"/>
	<circle cx="453.8" cy="179.7" r="3.5"/>
	<circle cx="454.3" cy="132.5" r="3.5"/>
	<circle cx="422.3" cy="98.7" r="3.5"/>
	<circle cx="393.7" cy="95.6" r="3.5"/>
	<circle cx="363.1" cy="94" r="3.5"/>
	<circle cx="339.8" cy="79.2" r="3.5"/>
	<circle cx="318.8" cy="59.6" r="3.5"/>
	<circle cx="348.2" cy="58.5" r="3.5"/>
	<circle cx="388.5" cy="58.5" r="3.5"/>
	<circle cx="428.8" cy="58.5" r="3.5"/>
	<circle cx="457.7" cy="86.2" r="3.5"/>
	<circle cx="486.4" cy="114.4" r="3.5"/>
	<circle cx="488.1" cy="153.8" r="3.5"/>
	<circle cx="487.6" cy="194.1" r="3.5"/>
	<circle cx="474.3" cy="231.4" r="3.5"/>
	<circle cx="457.1" cy="267.7" r="3.5"/>
	<circle cx="435.8" cy="311.1" r="3.5"/>
	<circle cx="422.6" cy="347.5" r="3.5"/>
	<circle cx="394" cy="358.7" r="3.5"/>
	<circle cx="353.7" cy="358.2" r="3.5"/>
	<circle cx="313.5" cy="357.7" r="3.5"/>
	<circle cx="273.2" cy="357.2" r="3.5"/>
	<circle cx="233" cy="356.6" r="3.5"/>
	<circle cx="193.5" cy="354.2" r="3.5"/>
	<circle cx="163.8" cy="327" r="3.5"/>
	<circle cx="134.2" cy="299.7" r="3.5"/>
	<circle cx="104.5" cy="272.5" r="3.5"/>
</g>
</svg>
