<?xml version="1.0" encoding="utf-8"?>
<!-- Generator: Adobe Illustrator 22.1.0, SVG Export Plug-In . SVG Version: 6.00 Build 0)  -->
<svg version="1.1" id="Layer_2_1_" xmlns="http://www.w3.org/2000/svg" xmlns:xlink="http://www.w3.org/1999/xlink" x="0px" y="0px"
	 viewBox="0 0 512 512" style="enable-background:new 0 0 512 512;" xml:space="preserve">
<style type="text/css">
	.st0{fill:#1D1D1D;}
</style>
<g>
	<g>
		<path class="st0" d="M311,210.5c-0.8,0-1.6-0.4-2.1-1.2c-0.7-1.2-0.4-2.7,0.8-3.4l28.3-17.7c1.2-0.7,2.7-0.4,3.4,0.8
			c0.7,1.2,0.4,2.7-0.8,3.4l-28.3,17.7C311.9,210.4,311.5,210.5,311,210.5z"/>
	</g>
	<g>
		<path class="st0" d="M347.9,199.7c-0.6,0-1.3-0.2-1.8-0.7l-19.9-20.2c-1-1-1-2.6,0-3.5c1-1,2.6-1,3.5,0l19.9,20.2c1,1,1,2.6,0,3.5
			C349.2,199.5,348.5,199.7,347.9,199.7z"/>
	</g>
	<g>
		<path class="st0" d="M86.5,425c-35,0-63.5-28.5-63.5-63.5S51.5,298,86.5,298s63.5,28.5,63.5,63.5S121.5,425,86.5,425z M86.5,303
			C54.2,303,28,329.2,28,361.5S54.2,420,86.5,420s58.5-26.2,58.5-58.5S118.8,303,86.5,303z"/>
	</g>
	<g>
		<path class="st0" d="M378.5,412c-53.8,0-97.5-43.7-97.5-97.5s43.7-97.5,97.5-97.5s97.5,43.7,97.5,97.5S432.3,412,378.5,412z
			 M378.5,222c-51,0-92.5,41.5-92.5,92.5s41.5,92.5,92.5,92.5s92.5-41.5,92.5-92.5S429.5,222,378.5,222z"/>
	</g>
	<g>
		<path class="st0" d="M86.5,389C71.3,389,59,376.7,59,361.5S71.3,334,86.5,334s27.5,12.3,27.5,27.5S101.7,389,86.5,389z M86.5,339
			C74.1,339,64,349.1,64,361.5S74.1,384,86.5,384s22.5-10.1,22.5-22.5S98.9,339,86.5,339z"/>
	</g>
	<g>
		<path class="st0" d="M378.5,346c-17.4,0-31.5-14.1-31.5-31.5s14.1-31.5,31.5-31.5s31.5,14.1,31.5,31.5S395.9,346,378.5,346z
			 M378.5,288c-14.6,0-26.5,11.9-26.5,26.5s11.9,26.5,26.5,26.5s26.5-11.9,26.5-26.5S393.1,288,378.5,288z"/>
	</g>
	<g>
		<path class="st0" d="M478.5,69c-0.1,0-0.1,0-0.2,0l-195-13c-1.4-0.1-2.4-1.3-2.3-2.7s1.3-2.4,2.7-2.3l195,13
			c1.4,0.1,2.4,1.3,2.3,2.7C480.9,68,479.8,69,478.5,69z"/>
	</g>
</g>
</svg>
