<?xml version="1.0" encoding="utf-8"?>
<!-- Generator: Adobe Illustrator 22.1.0, SVG Export Plug-In . SVG Version: 6.00 Build 0)  -->
<svg version="1.1" id="Layer_2_1_" xmlns="http://www.w3.org/2000/svg" xmlns:xlink="http://www.w3.org/1999/xlink" x="0px" y="0px"
	 viewBox="0 0 512 512" style="enable-background:new 0 0 512 512;" xml:space="preserve">
<g>
	<g>
		<path d="M44.1,344.6c-9,0-16.3-7.3-16.3-16.3S35.1,312,44.1,312s16.3,7.3,16.3,16.3S53.1,344.6,44.1,344.6z M44.1,317
			c-6.2,0-11.3,5.1-11.3,11.3s5.1,11.3,11.3,11.3s11.3-5.1,11.3-11.3S50.3,317,44.1,317z"/>
	</g>
	<g>
		<path d="M86.8,344.6c-9,0-16.3-7.3-16.3-16.3S77.8,312,86.8,312s16.3,7.3,16.3,16.3S95.8,344.6,86.8,344.6z M86.8,317
			c-6.2,0-11.3,5.1-11.3,11.3s5.1,11.3,11.3,11.3s11.3-5.1,11.3-11.3S93,317,86.8,317z"/>
	</g>
	<g>
		<path d="M147,344.6c-9,0-16.3-7.3-16.3-16.3S138,312,147,312s16.3,7.3,16.3,16.3S156,344.6,147,344.6z M147,317
			c-6.2,0-11.3,5.1-11.3,11.3s5.1,11.3,11.3,11.3s11.3-5.1,11.3-11.3S153.2,317,147,317z"/>
	</g>
	<g>
		<path d="M272.1,344.6c-9,0-16.3-7.3-16.3-16.3s7.3-16.3,16.3-16.3c9,0,16.3,7.3,16.3,16.3S281.1,344.6,272.1,344.6z M272.1,317
			c-6.2,0-11.3,5.1-11.3,11.3s5.1,11.3,11.3,11.3c6.2,0,11.3-5.1,11.3-11.3S278.3,317,272.1,317z"/>
	</g>
	<g>
		<path d="M339.6,344.6c-9,0-16.3-7.3-16.3-16.3s7.3-16.3,16.3-16.3c9,0,16.3,7.3,16.3,16.3S348.6,344.6,339.6,344.6z M339.6,317
			c-6.2,0-11.3,5.1-11.3,11.3s5.1,11.3,11.3,11.3c6.2,0,11.3-5.1,11.3-11.3S345.8,317,339.6,317z"/>
	</g>
	<g>
		<path d="M464.8,344.6c-9,0-16.3-7.3-16.3-16.3s7.3-16.3,16.3-16.3s16.3,7.3,16.3,16.3S473.8,344.6,464.8,344.6z M464.8,317
			c-6.2,0-11.3,5.1-11.3,11.3s5.1,11.3,11.3,11.3s11.3-5.1,11.3-11.3S471,317,464.8,317z"/>
	</g>
	<g>
		<path d="M120.5,324c-1.4,0-2.5-1.1-2.5-2.5c0-1.4,1.1-2.5,2.5-2.5l12.8-0.1c0,0,0,0,0,0c1.4,0,2.5,1.1,2.5,2.5
			c0,1.4-1.1,2.5-2.5,2.5L120.5,324C120.5,324,120.5,324,120.5,324z"/>
	</g>
	<g>
		<path d="M98.5,324c-1.4,0-2.5-1.1-2.5-2.5c0-1.4,1.1-2.5,2.5-2.5l12.8-0.1c0,0,0,0,0,0c1.4,0,2.5,1.1,2.5,2.5
			c0,1.4-1.1,2.5-2.5,2.5L98.5,324C98.5,324,98.5,324,98.5,324z"/>
	</g>
	<g>
		<path d="M19.5,324c-1.4,0-2.5-1.1-2.5-2.5c0-1.4,1.1-2.5,2.5-2.5l12.8-0.1c0,0,0,0,0,0c1.4,0,2.5,1.1,2.5,2.5
			c0,1.4-1.1,2.5-2.5,2.5L19.5,324C19.5,324,19.5,324,19.5,324z"/>
	</g>
	<g>
		<path d="M260.4,323.9h-99.6c-1.4,0-2.5-1.1-2.5-2.5s1.1-2.5,2.5-2.5h99.6c1.4,0,2.5,1.1,2.5,2.5S261.8,323.9,260.4,323.9z"/>
	</g>
	<g>
		<path d="M326.6,323.9h-9.3c-1.4,0-2.5-1.1-2.5-2.5s1.1-2.5,2.5-2.5h9.3c1.4,0,2.5,1.1,2.5,2.5S328,323.9,326.6,323.9z"/>
	</g>
	<g>
		<path d="M293.9,323.9h-9.4c-1.4,0-2.5-1.1-2.5-2.5s1.1-2.5,2.5-2.5h9.4c1.4,0,2.5,1.1,2.5,2.5S295.3,323.9,293.9,323.9z"/>
	</g>
	<g>
		<path d="M453.1,323.9h-99.7c-1.4,0-2.5-1.1-2.5-2.5s1.1-2.5,2.5-2.5h99.7c1.4,0,2.5,1.1,2.5,2.5S454.5,323.9,453.1,323.9z"/>
	</g>
	<g>
		<path d="M488.5,323.6H478c-1.4,0-2.5-1.1-2.5-2.5s1.1-2.5,2.5-2.5h10.5c1.4,0,2.5,1.1,2.5,2.5S489.9,323.6,488.5,323.6z"/>
	</g>
	<g>
		<path d="M302.8,292.3c-1.4,0-2.5-1.1-2.5-2.5v-44c0-1.4,1.1-2.5,2.5-2.5s2.5,1.1,2.5,2.5v44C305.3,291.2,304.2,292.3,302.8,292.3z
			"/>
	</g>
	<g>
		<path d="M118.5,292.3c-1.4,0-2.5-1.1-2.5-2.5v-44c0-1.4,1.1-2.5,2.5-2.5s2.5,1.1,2.5,2.5v44C121,291.2,119.9,292.3,118.5,292.3z"
			/>
	</g>
</g>
</svg>
