<?xml version="1.0" encoding="utf-8"?>
<!-- Generator: Adobe Illustrator 22.1.0, SVG Export Plug-In . SVG Version: 6.00 Build 0)  -->
<svg version="1.1" id="Layer_1" xmlns="http://www.w3.org/2000/svg" xmlns:xlink="http://www.w3.org/1999/xlink" x="0px" y="0px"
	 viewBox="0 0 512 512" style="enable-background:new 0 0 512 512;" xml:space="preserve">
<g>
	<circle cx="90.9" cy="228.5" r="3.5"/>
	<circle cx="134.9" cy="228.5" r="3.5"/>
	<circle cx="178.9" cy="228.5" r="3.5"/>
	<circle cx="222.9" cy="228.5" r="3.5"/>
	<circle cx="266.9" cy="228.5" r="3.5"/>
	<circle cx="311" cy="228.5" r="3.5"/>
	<circle cx="355" cy="228.5" r="3.5"/>
	<circle cx="399" cy="228.5" r="3.5"/>
	<circle cx="443" cy="228.5" r="3.5"/>
	<circle cx="487" cy="228.5" r="3.5"/>
	<circle cx="487" cy="267.9" r="3.5"/>
	<circle cx="487" cy="304.5" r="3.5"/>
	<circle cx="444.5" cy="304.5" r="3.5"/>
	<circle cx="402" cy="304.5" r="3.5"/>
	<circle cx="359.5" cy="304.5" r="3.5"/>
	<circle cx="317" cy="304.5" r="3.5"/>
	<circle cx="274.4" cy="304.5" r="3.5"/>
	<circle cx="231.9" cy="304.5" r="3.5"/>
	<circle cx="189.4" cy="304.5" r="3.5"/>
	<circle cx="146.9" cy="304.5" r="3.5"/>
	<circle cx="104.4" cy="304.5" r="3.5"/>
	<circle cx="61.9" cy="304.5" r="3.5"/>
	<circle cx="19.4" cy="304.5" r="3.5"/>
	<circle cx="19.1" cy="275.5" r="3.5"/>
	<circle cx="46.4" cy="263.5" r="3.5"/>
	<circle cx="46.4" cy="246" r="3.5"/>
	<circle cx="46.4" cy="228.5" r="3.5"/>
</g>
</svg>
