<?xml version="1.0" encoding="utf-8"?>
<!-- Generator: Adobe Illustrator 22.1.0, SVG Export Plug-In . SVG Version: 6.00 Build 0)  -->
<svg version="1.1" id="Layer_1" xmlns="http://www.w3.org/2000/svg" xmlns:xlink="http://www.w3.org/1999/xlink" x="0px" y="0px"
	 viewBox="0 0 512 512" style="enable-background:new 0 0 512 512;" xml:space="preserve">
<g>
	<g>
		<path d="M367.6,432.3c-0.5,0-1-0.2-1.5-0.5l-24.7-18.1c-1.1-0.8-1.4-2.4-0.5-3.5c0.8-1.1,2.4-1.4,3.5-0.5l19.9,14.6l-4.5-33.1
			c-0.1-1.5-3.2-34,7.9-68l-19.9-15.6c-1.1-0.9-1.3-2.4-0.4-3.5s2.4-1.3,3.5-0.4l21.3,16.7c0.8,0.7,1.2,1.8,0.8,2.8
			c-11.5,33.5-8.3,67.1-8.3,67.4l5.3,38.8c0.1,1-0.3,2-1.2,2.5C368.5,432.2,368,432.3,367.6,432.3z"/>
	</g>
	<g>
		<path d="M152.6,428.2c-0.5,0-1-0.1-1.4-0.4c-0.8-0.5-1.2-1.5-1.1-2.4l6-43.5c0-0.1,0-0.2,0.1-0.3c0.2-1.8,2.8-29-6-59.6
			c-0.3-0.9,0-1.8,0.6-2.5l16-16c1-1,2.6-1,3.5,0c1,1,1,2.6,0,3.5l-15,15c4.5,16.1,5.8,31.3,6.2,41.4c0.2,6,0.1,10.8,0,13.7
			c-0.1,3-0.3,4.6-0.5,5.6l-5.2,38l18.2-11.2c1.2-0.7,2.7-0.4,3.4,0.8c0.7,1.2,0.4,2.7-0.8,3.4l-22.7,14
			C153.5,428.1,153.1,428.2,152.6,428.2z"/>
	</g>
	<g>
		<path d="M149,454.1h-31.3c-1.2,0-2.3-0.9-2.5-2.2l-9.5-69.4c-0.2-1.5-3.3-35.3,8.6-70c6.7-19.3,12.3-27.6,19-27.6
			c6.7,0,12.4,8.2,19,27.6l0.3,1c0.8,2.4,1.6,4.7,2.2,7.2c4.8,16.5,6.2,32.3,6.6,42.7c0.2,6,0.1,10.8,0,13.7c-0.1,3-0.3,4.6-0.5,5.6
			l-6,43.3l-3.5,25.9C151.3,453.2,150.3,454.1,149,454.1z M119.9,449.1h26.9l3.2-23.7l6-43.5c0-0.1,0-0.2,0.1-0.4
			c0.6-3.6,2.1-31.1-6-59.4c-0.6-2.3-1.3-4.6-2.1-6.9l-0.3-1c-7.3-21-12.1-24.2-14.3-24.2s-7,3.1-14.3,24.2
			c-11.6,33.6-8.4,67.4-8.4,67.7L119.9,449.1z"/>
	</g>
	<g>
		<path d="M130.9,482.9c-4.4,0-9.1-1.3-13.3-5c-0.5-0.4-0.8-1.1-0.9-1.7l-1.4-24.2c0-0.7,0.2-1.4,0.7-1.9s1.1-0.8,1.8-0.8H149
			c0.8,0,1.5,0.3,1.9,0.9c0.5,0.6,0.7,1.4,0.5,2.1l-5.6,25.6c-0.2,0.8-0.7,1.5-1.5,1.8C140.6,481.3,135.8,482.9,130.9,482.9z
			 M121.6,474.8c5,3.9,11.1,4.1,19.6,0.8l4.7-21.3h-25.4L121.6,474.8z"/>
	</g>
	<g>
		<path d="M403.3,462.8h-31.5c-1.2,0-2.3-0.9-2.5-2.2l-4.2-30.5l-5.3-38.9c-0.2-1.5-3.3-35,8.5-69.5c0-0.2,0.1-0.3,0.1-0.4
			c0,0,0,0,0-0.1c6.7-19.3,12.4-27.6,19-27.6l0,0c6.7,0,12.3,8.2,19,27.6c4.8,13.8,10.2,36.8,8.9,68c0,0.6,0,1,0,1.3
			c0,0.2,0,0.4,0,0.6l-9.5,69.4C405.6,461.9,404.5,462.8,403.3,462.8z M374,457.8h27.1l9.2-67c0-0.4,0-1,0-1.7
			c1.3-30.4-3.9-52.8-8.6-66.2c-7.3-21.1-12.1-24.2-14.3-24.2c-2.2,0-7,3.1-14.2,24c0,0.2-0.1,0.3-0.1,0.4l0,0
			c-11.5,33.5-8.3,67.1-8.3,67.4l5.3,38.8L374,457.8z M412.8,388.4c0.7,0,1.4,0.3,1.9,0.9c0.3,0.3,0.5,0.7,0.6,1.2
			C415.1,389.4,414.1,388.4,412.8,388.4z M412.8,388.4L412.8,388.4L412.8,388.4z"/>
	</g>
	<g>
		<path d="M384.9,491.5c-4.5,0-9.1-1.3-13.4-5.2c-0.5-0.4-0.8-1-0.8-1.7l-1.4-24.2c0-0.7,0.2-1.4,0.7-1.9s1.1-0.8,1.8-0.8h31.5
			c0.8,0,1.5,0.3,1.9,0.9s0.7,1.4,0.5,2.1l-5.6,25.6c-0.2,0.8-0.7,1.5-1.5,1.8C394.8,489.9,389.9,491.5,384.9,491.5z M375.6,483.3
			c4.9,4,11.2,4.3,19.9,0.8l4.7-21.3h-25.7L375.6,483.3z"/>
	</g>
	<g>
		<path d="M266.1,263.3c-31.4,0-57-25.6-57-57s25.6-57,57-57s57,25.6,57,57S297.5,263.3,266.1,263.3z M266.1,154.3
			c-28.7,0-52,23.3-52,52s23.3,52,52,52s52-23.3,52-52S294.8,154.3,266.1,154.3z"/>
	</g>
	<g>
		<path d="M342.9,404.6h-168c-1.4,0-2.5-1.1-2.5-2.5s1.1-2.5,2.5-2.5h168c1.4,0,2.5,1.1,2.5,2.5S344.3,404.6,342.9,404.6z"/>
	</g>
	<g>
		<path d="M261.2,114.7c-24,0-47.5-4.3-70.9-13.1c-1.3-0.5-2-1.9-1.5-3.2c0.5-1.3,1.9-1.9,3.2-1.5c43.5,16.2,87.6,16.9,134.8,2.2
			c1.3-0.4,2.7,0.3,3.1,1.6s-0.3,2.7-1.6,3.1C305.4,111.1,283.1,114.7,261.2,114.7z"/>
	</g>
</g>
</svg>
