<?xml version="1.0" encoding="utf-8"?>
<!-- Generator: Adobe Illustrator 22.1.0, SVG Export Plug-In . SVG Version: 6.00 Build 0)  -->
<svg version="1.1" id="Layer_1" xmlns="http://www.w3.org/2000/svg" xmlns:xlink="http://www.w3.org/1999/xlink" x="0px" y="0px"
	 viewBox="0 0 512 512" style="enable-background:new 0 0 512 512;" xml:space="preserve">
<style type="text/css">
	.st0{opacity:0.9;}
</style>
<g class="st0">
	<circle cx="259.5" cy="17.5" r="3.5"/>
	<circle cx="238" cy="24.5" r="3.5"/>
	<circle cx="220.4" cy="47.5" r="3.5"/>
	<circle cx="202.9" cy="76.5" r="3.5"/>
	<circle cx="187.7" cy="112.1" r="3.5"/>
	<circle cx="175.3" cy="139.2" r="3.5"/>
	<circle cx="167.8" cy="171.8" r="3.5"/>
	<circle cx="163.9" cy="202.8" r="3.5"/>
	<circle cx="160.4" cy="233.7" r="3.5"/>
	<circle cx="163.9" cy="271.5" r="3.5"/>
	<circle cx="167.4" cy="296.2" r="3.5"/>
	<circle cx="170.9" cy="330" r="3.5"/>
	<circle cx="170.9" cy="362" r="3.5"/>
	<circle cx="174.4" cy="388.5" r="3.5"/>
	<circle cx="175.3" cy="425.7" r="3.5"/>
	<circle cx="175.3" cy="444.6" r="3.5"/>
	<circle cx="199.3" cy="448.1" r="3.5"/>
	<circle cx="227.3" cy="448.1" r="3.5"/>
	<circle cx="228.9" cy="463.8" r="3.5"/>
	<circle cx="211.6" cy="484.5" r="3.5"/>
	<circle cx="244" cy="484.5" r="3.5"/>
	<circle cx="276" cy="484.5" r="3.5"/>
	<circle cx="313.2" cy="484.5" r="3.5"/>
	<circle cx="300.7" cy="463.8" r="3.5"/>
	<circle cx="300.7" cy="448.1" r="3.5"/>
	<circle cx="320.5" cy="448.8" r="3.5"/>
	<circle cx="339.4" cy="448.8" r="3.5"/>
	<circle cx="339.4" cy="425.7" r="3.5"/>
	<circle cx="342.9" cy="388.5" r="3.5"/>
	<circle cx="346.4" cy="358.5" r="3.5"/>
	<circle cx="346.4" cy="326.5" r="3.5"/>
	<circle cx="353.6" cy="287.5" r="3.5"/>
	<circle cx="353.6" cy="256" r="3.5"/>
	<circle cx="353.6" cy="224.5" r="3.5"/>
	<circle cx="349.9" cy="190" r="3.5"/>
	<circle cx="346.4" cy="156" r="3.5"/>
	<circle cx="334.7" cy="122.8" r="3.5"/>
	<circle cx="320.5" cy="83.5" r="3.5"/>
	<circle cx="304" cy="54.5" r="3.5"/>
	<circle cx="287.3" cy="34.8" r="3.5"/>
	<circle cx="276" cy="21" r="3.5"/>
</g>
</svg>
