<?xml version="1.0" encoding="utf-8"?>
<!-- Generator: Adobe Illustrator 22.1.0, SVG Export Plug-In . SVG Version: 6.00 Build 0)  -->
<svg version="1.1" id="Layer_1" xmlns="http://www.w3.org/2000/svg" xmlns:xlink="http://www.w3.org/1999/xlink" x="0px" y="0px"
	 viewBox="0 0 512 512" style="enable-background:new 0 0 512 512;" xml:space="preserve">
<g>
	<circle cx="161" cy="180.9" r="3.5"/>
	<circle cx="148.8" cy="207.2" r="3.5"/>
	<circle cx="134.5" cy="228.4" r="3.5"/>
	<circle cx="121.3" cy="252.5" r="3.5"/>
	<circle cx="99.3" cy="250.7" r="3.5"/>
	<circle cx="72.1" cy="257.7" r="3.5"/>
	<circle cx="54.8" cy="269.2" r="3.5"/>
	<circle cx="36.4" cy="288.2" r="3.5"/>
	<circle cx="70.4" cy="288.8" r="3.5"/>
	<circle cx="91.2" cy="292.3" r="3.5"/>
	<circle cx="117.8" cy="302.3" r="3.5"/>
	<circle cx="134.5" cy="315" r="3.5"/>
	<circle cx="158.8" cy="327.9" r="3.5"/>
	<circle cx="177.5" cy="332.6" r="3.5"/>
	<circle cx="174" cy="315" r="3.5"/>
	<circle cx="189.8" cy="324.4" r="3.5"/>
	<circle cx="214.2" cy="336.1" r="3.5"/>
	<circle cx="242.5" cy="343.9" r="3.5"/>
	<circle cx="270.2" cy="346.3" r="3.5"/>
	<circle cx="302.6" cy="343.9" r="3.5"/>
	<circle cx="327.5" cy="340.4" r="3.5"/>
	<circle cx="343.2" cy="336.9" r="3.5"/>
	<circle cx="343.2" cy="318.5" r="3.5"/>
	<circle cx="369.3" cy="318.5" r="3.5"/>
	<circle cx="396.4" cy="317.4" r="3.5"/>
	<circle cx="420.8" cy="318.5" r="3.5"/>
	<circle cx="449.2" cy="322" r="3.5"/>
	<circle cx="482" cy="324.6" r="3.5"/>
	<circle cx="476.6" cy="303.7" r="3.5"/>
	<circle cx="466.3" cy="284.7" r="3.5"/>
	<circle cx="456.2" cy="267" r="3.5"/>
	<circle cx="438.5" cy="249" r="3.5"/>
	<circle cx="424.3" cy="236" r="3.5"/>
	<circle cx="410.6" cy="224.9" r="3.5"/>
	<circle cx="424.3" cy="222.7" r="3.5"/>
	<circle cx="425.4" cy="202.9" r="3.5"/>
	<circle cx="425.4" cy="183.2" r="3.5"/>
	<circle cx="396.4" cy="183.2" r="3.5"/>
	<circle cx="360" cy="183.2" r="3.5"/>
	<circle cx="327.5" cy="183.2" r="3.5"/>
	<circle cx="292" cy="186.7" r="3.5"/>
	<circle cx="263.2" cy="186.7" r="3.5"/>
	<circle cx="251.2" cy="186.7" r="3.5"/>
	<circle cx="251.2" cy="213.3" r="3.5"/>
	<circle cx="263.2" cy="213.3" r="3.5"/>
	<circle cx="270.2" cy="232.5" r="3.5"/>
	<circle cx="282.3" cy="250.7" r="3.5"/>
	<circle cx="288.5" cy="270.5" r="3.5"/>
	<circle cx="285.8" cy="290.3" r="3.5"/>
	<circle cx="273.7" cy="308.3" r="3.5"/>
	<ellipse transform="matrix(0.1602 -0.9871 0.9871 0.1602 -99.3999 517.9694)" cx="254.7" cy="317.4" rx="3.5" ry="3.5"/>
	<circle cx="229.3" cy="318.5" r="3.5"/>
	<circle cx="207.2" cy="308.3" r="3.5"/>
	<circle cx="188.5" cy="295.8" r="3.5"/>
	<circle cx="177.5" cy="275.2" r="3.5"/>
	<circle cx="170.5" cy="254.2" r="3.5"/>
	<circle cx="167.2" cy="231.9" r="3.5"/>
	<circle cx="177.5" cy="209.8" r="3.5"/>
	<circle cx="185.7" cy="186.7" r="3.5"/>
	<circle cx="197.7" cy="167.5" r="3.5"/>
</g>
</svg>
