<?xml version="1.0" encoding="utf-8"?>
<!-- Generator: Adobe Illustrator 22.1.0, SVG Export Plug-In . SVG Version: 6.00 Build 0)  -->
<svg version="1.1" id="Layer_1" xmlns="http://www.w3.org/2000/svg" xmlns:xlink="http://www.w3.org/1999/xlink" x="0px" y="0px"
	 viewBox="0 0 512 512" style="enable-background:new 0 0 512 512;" xml:space="preserve">
<g>
	<g>
		<path d="M471.7,319.9c-1.1,0-2.2-0.8-2.4-1.9c-3.1-13.4-10.1-26.7-20.8-39.3c-27.7-32.3-46.5-34.1-80.1-34.7
			c-19.6-0.3-36.7,6.1-46,17.3c-6.3,7.5-8.5,16.8-6.5,26.7c2.1,10.5,7.5,19.8,15.9,27.7c1,0.9,1.1,2.5,0.1,3.5
			c-0.9,1-2.5,1.1-3.5,0.1c-9.1-8.6-15-18.8-17.3-30.3s0.3-22.2,7.5-30.9c10.3-12.3,28.9-19.5,50-19.1c35.1,0.6,54.8,2.5,83.9,36.5
			c11.2,13.3,18.6,27.3,21.8,41.5c0.3,1.3-0.5,2.7-1.9,3C472.1,319.9,471.9,319.9,471.7,319.9z"/>
	</g>
	<g>
		<path d="M148.7,175.3c-6.4,0-7.9-18.3-7.9-24.7c0-6.9,1.4-24.7,7.9-24.7h11.8c0.4,0,0.7,0.1,1.1,0.2l0.3,0.1
			c7.2,2.9,20,8.8,25.8,16.1c0.3,0.4,0.5,1,0.5,1.6v13.4c0,0.6-0.2,1.2-0.6,1.6c-0.6,0.7-14.3,16.1-30.6,16.4H148.7z M149.3,170.3
			h7.6c12.3-0.2,23.6-11.1,26.3-14v-11.5c-3.9-4.5-12.3-9.5-23.2-13.9l0,0h-10.8c-1.3,1.7-3.5,9.3-3.5,19.7
			C145.8,161.5,148.2,168.7,149.3,170.3z"/>
	</g>
	<g>
		<path d="M407,401.4c-31.5,0-57.1-25.6-57.1-57.1c0-8.1,1.7-16,5.1-23.4c0.6-1.3,2.1-1.8,3.3-1.2c1.3,0.6,1.8,2.1,1.2,3.3
			c-3.1,6.8-4.7,14-4.7,21.4c0,28.7,23.4,52.1,52.1,52.1s52.1-23.4,52.1-52.1c0-6.2-1.1-12.3-3.3-18.1c-0.5-1.3,0.1-2.7,1.4-3.2
			s2.7,0.2,3.2,1.4c2.4,6.3,3.7,13,3.7,19.9C464.1,375.8,438.5,401.4,407,401.4z"/>
	</g>
	<g>
		<path d="M407.1,378.2c-18.7,0-34-15.3-34-34c0-9.5,3.9-18.4,10.9-24.9c1-0.9,2.6-0.9,3.5,0.1s0.9,2.6-0.1,3.5
			c-6,5.6-9.3,13.2-9.3,21.3c0,16,13,29,29,29s29-13,29-29c0-7.2-2.7-14.1-7.5-19.3c-0.9-1-0.9-2.6,0.1-3.5s2.6-0.9,3.5,0.1
			c5.7,6.2,8.9,14.2,8.9,22.7C441.1,362.9,425.8,378.2,407.1,378.2z"/>
	</g>
	<g>
		<path d="M91.3,401.3c-34.3,0-62.2-27.9-62.2-62.2c0-21.4,10.8-41,29-52.4c1.2-0.7,2.7-0.4,3.4,0.8c0.7,1.2,0.4,2.7-0.8,3.4
			c-16.7,10.5-26.6,28.5-26.6,48.2c0,31.5,25.7,57.2,57.2,57.2s57.2-25.7,57.2-57.2c0-4.3-0.5-8.7-1.5-13c-0.3-1.3,0.5-2.7,1.9-3
			c1.3-0.3,2.7,0.5,3,1.9c1.1,4.8,1.7,9.5,1.7,14.2C153.5,373.4,125.6,401.3,91.3,401.3z"/>
	</g>
	<g>
		<path d="M189.9,160.9c-1.7,0-3.6-0.4-5.6-1.7c-0.7-0.5-1.1-1.2-1.1-2.1v-13.4c0-0.5,0.2-1.1,0.5-1.5c1.5-2,5.9-4.7,12-1H222
			c0.3,0,0.5,0,0.7,0.1c2.4,0.7,6.9,3.6,6.9,9.2c0,5.6-4.1,8.3-6.3,9c-0.2,0.1-0.5,0.1-0.7,0.1h-27.5
			C194.1,160.1,192.2,160.9,189.9,160.9z M188.2,155.6c2.5,0.9,4.7-0.5,4.8-0.6c0.4-0.3,0.9-0.4,1.4-0.4h27.7
			c0.7-0.3,2.5-1.4,2.5-4.1c0-2.7-2.2-3.9-3.1-4.3H195c-0.5,0-1-0.1-1.4-0.4c-2.9-1.9-4.6-1.5-5.4-1L188.2,155.6L188.2,155.6z"/>
	</g>
	<g>
		<path d="M407.5,227.4C407.5,227.4,407.4,227.4,407.5,227.4l-139.1-4.5c-1.4,0-2.5-1.2-2.4-2.6c0-1.4,1.2-2.5,2.6-2.4l139,4.5
			c1.4,0,2.5,1.2,2.4,2.6C410,226.3,408.8,227.4,407.5,227.4z"/>
	</g>
	<g>
		<path d="M91,376.1c-20.3,0-36.9-16.6-36.9-36.9s16.6-36.9,36.9-36.9s36.9,16.6,36.9,36.9S111.3,376.1,91,376.1z M91,307.3
			c-17.6,0-31.9,14.3-31.9,31.9s14.3,31.9,31.9,31.9s31.9-14.3,31.9-31.9S108.6,307.3,91,307.3z"/>
	</g>
</g>
</svg>
