<?xml version="1.0" encoding="utf-8"?>
<!-- Generator: Adobe Illustrator 22.1.0, SVG Export Plug-In . SVG Version: 6.00 Build 0)  -->
<svg version="1.1" id="Layer_1" xmlns="http://www.w3.org/2000/svg" xmlns:xlink="http://www.w3.org/1999/xlink" x="0px" y="0px"
	 viewBox="0 0 512 512" style="enable-background:new 0 0 512 512;" xml:space="preserve">
<g>
	<circle cx="154" cy="256.8" r="3.5"/>
	<circle cx="154" cy="270.8" r="3.5"/>
	<circle cx="129.5" cy="270.8" r="3.5"/>
	<circle cx="98" cy="270.8" r="3.5"/>
	<circle cx="69.5" cy="270.8" r="3.5"/>
	<circle cx="31" cy="270.8" r="3.5"/>
	<circle cx="45" cy="299.9" r="3.5"/>
	<circle cx="61" cy="333.5" r="3.5"/>
	<circle cx="76.5" cy="362.9" r="3.5"/>
	<circle cx="115.1" cy="362.9" r="3.5"/>
	<circle cx="168.5" cy="362.9" r="3.5"/>
	<circle cx="227.6" cy="362.9" r="3.5"/>
	<circle cx="284.8" cy="362.9" r="3.5"/>
	<circle cx="350.9" cy="362.9" r="3.5"/>
	<circle cx="396.9" cy="362.9" r="3.5"/>
	<circle cx="437.3" cy="362.9" r="3.5"/>
	<circle cx="451.5" cy="337" r="3.5"/>
	<circle cx="466" cy="305.5" r="3.5"/>
	<circle cx="481" cy="270.8" r="3.5"/>
	<circle cx="437.3" cy="270.8" r="3.5"/>
	<circle cx="396.1" cy="270.8" r="3.5"/>
	<circle cx="396.1" cy="247.5" r="3.5"/>
	<circle cx="396.1" cy="221.3" r="3.5"/>
	<circle cx="396.1" cy="186.2" r="3.5"/>
	<circle cx="357.9" cy="182.9" r="3.5"/>
	<circle cx="337.7" cy="209" r="3.5"/>
	<circle cx="315.5" cy="227.5" r="3.5"/>
	<circle cx="291.8" cy="227.5" r="3.5"/>
	<circle cx="269.5" cy="227.5" r="3.5"/>
	<circle cx="269.5" cy="256" r="3.5"/>
	<circle cx="231.1" cy="256" r="3.5"/>
	<circle cx="185.5" cy="256" r="3.5"/>
</g>
</svg>
