<?xml version="1.0" encoding="utf-8"?>
<!-- Generator: Adobe Illustrator 22.1.0, SVG Export Plug-In . SVG Version: 6.00 Build 0)  -->
<svg version="1.1" id="Layer_1" xmlns="http://www.w3.org/2000/svg" xmlns:xlink="http://www.w3.org/1999/xlink" x="0px" y="0px"
	 viewBox="0 0 512 512" style="enable-background:new 0 0 512 512;" xml:space="preserve">
<g>
	<circle cx="163" cy="172.3" r="3.5"/>
	<circle cx="153" cy="196.8" r="3.5"/>
	<circle cx="146" cy="222.3" r="3.5"/>
	<circle cx="107.3" cy="222.3" r="3.5"/>
	<circle cx="54.9" cy="222.3" r="3.5"/>
	<circle cx="54.9" cy="256" r="3.5"/>
	<circle cx="54.9" cy="273.5" r="3.5"/>
	<circle cx="43.6" cy="288" r="3.5"/>
	<circle cx="43.6" cy="303.7" r="3.5"/>
	<circle cx="58.4" cy="317" r="3.5"/>
	<circle cx="80.5" cy="324" r="3.5"/>
	<circle cx="103.8" cy="333.7" r="3.5"/>
	<circle cx="128.2" cy="342.8" r="3.5"/>
	<circle cx="159.5" cy="342.8" r="3.5"/>
	<circle cx="193" cy="346.3" r="3.5"/>
	<circle cx="225.3" cy="342.8" r="3.5"/>
	<circle cx="261.8" cy="342.8" r="3.5"/>
	<circle cx="291.5" cy="342.8" r="3.5"/>
	<circle cx="319.5" cy="342.8" r="3.5"/>
	<circle cx="344.8" cy="337.2" r="3.5"/>
	<circle cx="373.7" cy="324" r="3.5"/>
	<circle cx="392.4" cy="317" r="3.5"/>
	<circle cx="406.9" cy="307.2" r="3.5"/>
	<circle cx="410.4" cy="290.7" r="3.5"/>
	<circle cx="399.9" cy="277" r="3.5"/>
	<circle cx="399.9" cy="257.2" r="3.5"/>
	<circle cx="377.2" cy="256" r="3.5"/>
	<circle cx="361.1" cy="235.8" r="3.5"/>
	<circle cx="335.6" cy="233.3" r="3.5"/>
	<circle cx="304" cy="232.3" r="3.5"/>
	<circle cx="304" cy="217" r="3.5"/>
	<circle cx="319.5" cy="215.3" r="3.5"/>
	<circle cx="335.6" cy="205.4" r="3.5"/>
	<circle cx="335.6" cy="186.6" r="3.5"/>
	<circle cx="312.8" cy="179.6" r="3.5"/>
	<circle cx="291.5" cy="172.3" r="3.5"/>
	<circle cx="268.8" cy="172.3" r="3.5"/>
	<circle cx="240.7" cy="172.3" r="3.5"/>
	<circle cx="210.6" cy="172.3" r="3.5"/>
	<circle cx="186.8" cy="171.8" r="3.5"/>
</g>
</svg>
