<?xml version="1.0" encoding="utf-8"?>
<!-- Generator: Adobe Illustrator 22.1.0, SVG Export Plug-In . SVG Version: 6.00 Build 0)  -->
<svg version="1.1" id="Layer_1" xmlns="http://www.w3.org/2000/svg" xmlns:xlink="http://www.w3.org/1999/xlink" x="0px" y="0px"
	 viewBox="0 0 512 512" style="enable-background:new 0 0 512 512;" xml:space="preserve">
<g>
	<g>
		<path d="M255.9,174.3c-1.4,0-2.5-1.1-2.5-2.5v-6.1h-55.7v6.1c0,1.4-1.1,2.5-2.5,2.5s-2.5-1.1-2.5-2.5v-8.6c0-1.4,1.1-2.5,2.5-2.5
			h60.7c1.4,0,2.5,1.1,2.5,2.5v8.6C258.4,173.2,257.3,174.3,255.9,174.3z"/>
	</g>
	<g>
		<path d="M487,208h-28.8c-1.4,0-2.5-1.1-2.5-2.5V190c0-1.4,1.1-2.5,2.5-2.5H487c1.4,0,2.5,1.1,2.5,2.5v15.5
			C489.5,206.9,488.4,208,487,208z M460.7,203h23.8v-10.5h-23.8V203z"/>
	</g>
	<g>
		<path d="M67.7,309.1c-6.5,0-11.8-5.3-11.8-11.8s5.3-11.8,11.8-11.8c6.5,0,11.8,5.3,11.8,11.8S74.2,309.1,67.7,309.1z M67.7,290.5
			c-3.7,0-6.8,3.1-6.8,6.8s3.1,6.8,6.8,6.8s6.8-3.1,6.8-6.8S71.4,290.5,67.7,290.5z"/>
	</g>
	<g>
		<path d="M383,309.1c-6.5,0-11.8-5.3-11.8-11.8s5.3-11.8,11.8-11.8s11.8,5.3,11.8,11.8S389.5,309.1,383,309.1z M383,290.5
			c-3.7,0-6.8,3.1-6.8,6.8s3.1,6.8,6.8,6.8s6.8-3.1,6.8-6.8S386.7,290.5,383,290.5z"/>
	</g>
	<g>
		<path d="M119.8,325.2c-10.2,0-18.5-8.3-18.5-18.5s8.3-18.5,18.5-18.5s18.5,8.3,18.5,18.5S130,325.2,119.8,325.2z M119.8,293.2
			c-7.4,0-13.5,6.1-13.5,13.5s6.1,13.5,13.5,13.5s13.5-6.1,13.5-13.5S127.2,293.2,119.8,293.2z"/>
	</g>
	<g>
		<path d="M328.8,325.2c-10.2,0-18.5-8.3-18.5-18.5s8.3-18.5,18.5-18.5s18.5,8.3,18.5,18.5S339,325.2,328.8,325.2z M328.8,293.2
			c-7.4,0-13.5,6.1-13.5,13.5s6.1,13.5,13.5,13.5s13.5-6.1,13.5-13.5S336.2,293.2,328.8,293.2z"/>
	</g>
	<g>
		<path d="M189.5,332.7c-13,0-23.6-10.6-23.6-23.6c0-13,10.6-23.6,23.6-23.6s23.6,10.6,23.6,23.6
			C213.1,322.1,202.5,332.7,189.5,332.7z M189.5,290.5c-10.3,0-18.6,8.3-18.6,18.6c0,10.3,8.3,18.6,18.6,18.6s18.6-8.3,18.6-18.6
			C208.1,298.8,199.8,290.5,189.5,290.5z"/>
	</g>
	<g>
		<path d="M261.8,332.7c-13,0-23.6-10.6-23.6-23.6c0-13,10.6-23.6,23.6-23.6c13,0,23.6,10.6,23.6,23.6
			C285.4,322.1,274.8,332.7,261.8,332.7z M261.8,290.5c-10.3,0-18.6,8.3-18.6,18.6c0,10.3,8.3,18.6,18.6,18.6
			c10.3,0,18.6-8.3,18.6-18.6C280.4,298.8,272.1,290.5,261.8,290.5z"/>
	</g>
	<g>
		<path d="M458.2,200.2C458.2,200.2,458.2,200.2,458.2,200.2l-126.1-0.9c-1.4,0-2.5-1.1-2.5-2.5c0-1.4,1.1-2.5,2.5-2.5c0,0,0,0,0,0
			l126.1,0.9c1.4,0,2.5,1.1,2.5,2.5C460.7,199.1,459.6,200.2,458.2,200.2z"/>
	</g>
	<g>
		<path d="M387.5,246.6h-22.2c-1.4,0-2.5-1.1-2.5-2.5s1.1-2.5,2.5-2.5h22.2c1.4,0,2.5,1.1,2.5,2.5S388.9,246.6,387.5,246.6z"/>
	</g>
	<g>
		<path d="M361.1,259.7H72c-1.4,0-2.5-1.1-2.5-2.5s1.1-2.5,2.5-2.5h289.1c1.4,0,2.5,1.1,2.5,2.5S362.5,259.7,361.1,259.7z"/>
	</g>
</g>
</svg>
