<?xml version="1.0" encoding="utf-8"?>
<!-- Generator: Adobe Illustrator 22.1.0, SVG Export Plug-In . SVG Version: 6.00 Build 0)  -->
<svg version="1.1" id="Layer_2_1_" xmlns="http://www.w3.org/2000/svg" xmlns:xlink="http://www.w3.org/1999/xlink" x="0px" y="0px"
	 viewBox="0 0 512 512" style="enable-background:new 0 0 512 512;" xml:space="preserve">
<g>
	<g>
		<path d="M472.5,268h-68c-1.4,0-2.5-1.1-2.5-2.5v-69c0-1.4,1.1-2.5,2.5-2.5h68c1.4,0,2.5,1.1,2.5,2.5v69
			C475,266.9,473.9,268,472.5,268z M407,263h63v-64h-63V263z"/>
	</g>
	<g>
		<path d="M462.5,199h-48c-1.4,0-2.5-1.1-2.5-2.5v-35c0-1.4,1.1-2.5,2.5-2.5h48c1.4,0,2.5,1.1,2.5,2.5v35
			C465,197.9,463.9,199,462.5,199z M417,194h43v-30h-43V194z"/>
	</g>
	<g>
		<path d="M214.6,269.5h-82.9c-1.2,0-2.2-0.8-2.5-2c-0.5-2.5-0.7-5.2-0.7-8.3c0-24.6,20.1-44.6,44.7-44.6c24.6,0,44.6,20,44.6,44.6
			c0,2.5-0.2,5.1-0.7,8.2C216.9,268.6,215.8,269.5,214.6,269.5z M133.8,264.5h78.6c0.2-1.9,0.4-3.7,0.4-5.3
			c0-21.8-17.8-39.6-39.6-39.6c-21.9,0-39.7,17.8-39.7,39.6C133.5,261.1,133.6,262.9,133.8,264.5z"/>
	</g>
	<g>
		<path d="M302.8,269.5h-82.9c-1.2,0-2.2-0.8-2.5-2c-0.5-2.5-0.7-5.2-0.7-8.3c0-24.6,20-44.6,44.6-44.6c24.6,0,44.7,20,44.7,44.6
			c0,2.5-0.2,5.1-0.7,8.2C305.1,268.6,304,269.5,302.8,269.5z M222,264.5h78.6c0.2-1.9,0.4-3.7,0.4-5.3c0-21.8-17.8-39.6-39.7-39.6
			c-21.8,0-39.6,17.8-39.6,39.6C221.7,261.1,221.8,262.9,222,264.5z"/>
	</g>
	<g>
		<path d="M392.8,269.5h-82.9c-1.2,0-2.2-0.8-2.5-2c-0.5-2.5-0.7-5.2-0.7-8.3c0-24.6,20.1-44.6,44.7-44.6c24.6,0,44.6,20,44.6,44.6
			c0,2.5-0.2,5.1-0.7,8.2C395.1,268.6,394,269.5,392.8,269.5z M312,264.5h78.6c0.2-1.9,0.4-3.7,0.4-5.3c0-21.8-17.8-39.6-39.6-39.6
			c-21.9,0-39.7,17.8-39.7,39.6C311.7,261.1,311.8,262.9,312,264.5z"/>
	</g>
	<g>
		<path d="M455.5,164c-1.4,0-2.5-1.1-2.5-2.5v-37c0-1.4,1.1-2.5,2.5-2.5s2.5,1.1,2.5,2.5v37C458,162.9,456.9,164,455.5,164z"/>
	</g>
	<g>
		<path d="M431.5,164c-1.4,0-2.5-1.1-2.5-2.5v-19c0-1.4,1.1-2.5,2.5-2.5s2.5,1.1,2.5,2.5v19C434,162.9,432.9,164,431.5,164z"/>
	</g>
	<g>
		<path d="M70.5,250.5c-1.4,0-2.5-1.1-2.5-2.5v-30.5c0-1.4,1.1-2.5,2.5-2.5s2.5,1.1,2.5,2.5V248C73,249.4,71.9,250.5,70.5,250.5z"/>
	</g>
</g>
</svg>
