<?xml version="1.0" encoding="utf-8"?>
<!-- Generator: Adobe Illustrator 22.1.0, SVG Export Plug-In . SVG Version: 6.00 Build 0)  -->
<svg version="1.1" id="Layer_1" xmlns="http://www.w3.org/2000/svg" xmlns:xlink="http://www.w3.org/1999/xlink" x="0px" y="0px"
	 viewBox="0 0 512 512" style="enable-background:new 0 0 512 512;" xml:space="preserve">
<g>
	<circle cx="65.5" cy="263" r="3.5"/>
	<circle cx="99.9" cy="263" r="3.5"/>
	<circle cx="103.4" cy="282" r="3.5"/>
	<circle cx="145.4" cy="282" r="3.5"/>
	<circle cx="187.4" cy="282" r="3.5"/>
	<circle cx="229.4" cy="282" r="3.5"/>
	<circle cx="271.4" cy="282" r="3.5"/>
	<circle cx="313.4" cy="282" r="3.5"/>
	<circle cx="355.3" cy="282" r="3.5"/>
	<circle cx="397.3" cy="282" r="3.5"/>
	<circle cx="439.3" cy="282" r="3.5"/>
	<circle cx="481.3" cy="282" r="3.5"/>
	<circle cx="480.9" cy="310.8" r="3.5"/>
	<circle cx="472" cy="335.1" r="3.5"/>
	<circle cx="447.8" cy="351.4" r="3.5"/>
	<circle cx="393.8" cy="351.4" r="3.5"/>
	<circle cx="339.8" cy="351.4" r="3.5"/>
	<circle cx="285.8" cy="351.4" r="3.5"/>
	<circle cx="231.7" cy="351.4" r="3.5"/>
	<circle cx="177.7" cy="351.4" r="3.5"/>
	<circle cx="123.7" cy="351.4" r="3.5"/>
	<circle cx="72.7" cy="351.4" r="3.5"/>
	<circle cx="69.3" cy="324" r="3.5"/>
	<circle cx="60.7" cy="300.7" r="3.5"/>
	<circle cx="42.4" cy="281.9" r="3.5"/>
	<circle cx="26" cy="263" r="3.5"/>
</g>
</svg>
