<?xml version="1.0" encoding="utf-8"?>
<!-- Generator: Adobe Illustrator 22.1.0, SVG Export Plug-In . SVG Version: 6.00 Build 0)  -->
<svg version="1.1" id="Layer_1" xmlns="http://www.w3.org/2000/svg" xmlns:xlink="http://www.w3.org/1999/xlink" x="0px" y="0px"
	 viewBox="0 0 512 512" style="enable-background:new 0 0 512 512;" xml:space="preserve">
<g>
	<g>
		<path d="M45.2,263h-8.6c-0.7,0-1.3-0.3-1.8-0.7c-4.6-4.6-4.9-20.6-4.9-27.2c0-3.6,0.5-21.9,4.7-27.3c0.5-0.6,1.2-1,2-1h5.1
			c1.6-0.2,12.4-1,17.5,7.9c0.7,1.2,0.3,2.7-0.9,3.4s-2.7,0.3-3.4-0.9c-3.7-6.4-12.6-5.4-12.7-5.4c-0.1,0-0.2,0-0.3,0H38
			c-1.5,3.2-2.9,11.8-3,23.3c-0.1,11.9,1.3,20.1,2.9,22.9h7.4c1.4,0,2.5,1.1,2.5,2.5S46.6,263,45.2,263z"/>
	</g>
	<g>
		<path d="M107.9,194.1c-1.4,0-2.5-1.1-2.5-2.5V134c0-6.3,4.3-11.7,10.4-13.3V80.4c0-0.2,0-0.5,0.1-0.7l13.2-45.8
			c0.4-1.3,1.8-2.1,3.1-1.7l11.2,3.2c0.6,0.2,1.2,0.6,1.5,1.2s0.4,1.3,0.2,1.9l-12.7,43.9v38c6.3,1.3,11,6.9,11,13.6v53.7
			c0,1.4-1.1,2.5-2.5,2.5s-2.5-1.1-2.5-2.5V134c0-4.8-3.8-8.7-8.6-8.9c-1.3,0-2.4-1.1-2.4-2.5V82c0-0.2,0-0.5,0.1-0.7l12.1-41.8
			l-6.4-1.8l-12.4,43.1v42c0,1.3-1,2.4-2.2,2.5c-4.6,0.5-8.2,4.3-8.2,8.7v57.6C110.4,193,109.3,194.1,107.9,194.1z"/>
	</g>
	<g>
		<g>
			<path d="M116.8,398.9c-28.1,0-50.9-22.8-50.9-50.9s22.8-50.9,50.9-50.9s50.9,22.8,50.9,50.9S144.9,398.9,116.8,398.9z
				 M116.8,302.1c-25.3,0-45.9,20.6-45.9,45.9s20.6,45.9,45.9,45.9s45.9-20.6,45.9-45.9S142.1,302.1,116.8,302.1z"/>
		</g>
		<g>
			<path d="M116.8,377.5c-16.3,0-29.5-13.2-29.5-29.5s13.2-29.5,29.5-29.5s29.5,13.2,29.5,29.5S133.1,377.5,116.8,377.5z
				 M116.8,323.5c-13.5,0-24.5,11-24.5,24.5s11,24.5,24.5,24.5s24.5-11,24.5-24.5S130.3,323.5,116.8,323.5z"/>
		</g>
	</g>
	<g>
		<g>
			<path d="M388.6,395.8c-43,0-77.9-34.9-77.9-77.9s34.9-77.9,77.9-77.9s77.9,34.9,77.9,77.9S431.6,395.8,388.6,395.8z M388.6,245
				c-40.2,0-72.9,32.7-72.9,72.9s32.7,72.9,72.9,72.9s72.9-32.7,72.9-72.9S428.8,245,388.6,245z"/>
		</g>
		<g>
			<path d="M388.6,362.4c-24.5,0-44.5-20-44.5-44.5s20-44.5,44.5-44.5s44.5,20,44.5,44.5S413.1,362.4,388.6,362.4z M388.6,278.4
				c-21.8,0-39.5,17.7-39.5,39.5s17.7,39.5,39.5,39.5s39.5-17.7,39.5-39.5S410.4,278.4,388.6,278.4z"/>
		</g>
	</g>
	<g>
		<path d="M283.1,245.1h-28.2c-1.4,0-2.5-1.1-2.5-2.5s1.1-2.5,2.5-2.5h26.7c23.6-45.4,64.9-71,126.1-78.2c1.4-0.2,2.6,0.8,2.8,2.2
			c0.2,1.4-0.8,2.6-2.2,2.8c-60.1,7.1-100.3,32.2-123,76.8C284.9,244.6,284,245.1,283.1,245.1z"/>
	</g>
	<g>
		<path d="M337.2,186.2c-1.4,0-2.5-1.1-2.5-2.5V98.2c0-1.4,1.1-2.5,2.5-2.5s2.5,1.1,2.5,2.5v85.5
			C339.7,185.1,338.6,186.2,337.2,186.2z"/>
	</g>
	<g>
		<path d="M244.5,203.9c-0.9,0-1.8-0.5-2.2-1.4c-0.6-1.2-0.1-2.7,1.2-3.3l32.4-15.8c1.2-0.6,2.7-0.1,3.3,1.2
			c0.6,1.2,0.1,2.7-1.2,3.3l-32.4,15.8C245.2,203.8,244.9,203.9,244.5,203.9z"/>
	</g>
	<g>
		<path d="M288.3,208.7c-0.9,0-1.8-0.5-2.3-1.4c-13.6-28.4-20.5-43.8-20.4-46c0.1-1.4,1.2-2.5,2.6-2.4c1.3,0,2.3,1.1,2.4,2.3
			c0.6,2.9,10.7,24.7,20,43.9c0.6,1.2,0.1,2.7-1.2,3.3C289,208.6,288.7,208.7,288.3,208.7z M270.6,161.5L270.6,161.5L270.6,161.5z"
			/>
	</g>
</g>
</svg>
