<?xml version="1.0" encoding="utf-8"?>
<!-- Generator: Adobe Illustrator 22.1.0, SVG Export Plug-In . SVG Version: 6.00 Build 0)  -->
<svg version="1.1" id="Layer_1" xmlns="http://www.w3.org/2000/svg" xmlns:xlink="http://www.w3.org/1999/xlink" x="0px" y="0px"
	 viewBox="0 0 512 512" style="enable-background:new 0 0 512 512;" xml:space="preserve">
<g>
	<circle cx="248" cy="103.3" r="3.5"/>
	<circle cx="244.5" cy="132.7" r="3.5"/>
	<circle cx="241" cy="157.9" r="3.5"/>
	<circle cx="236.3" cy="185.6" r="3.5"/>
	<circle cx="207.8" cy="185.6" r="3.5"/>
	<circle cx="176.8" cy="185.6" r="3.5"/>
	<circle cx="151.3" cy="185.6" r="3.5"/>
	<circle cx="125.3" cy="189.1" r="3.5"/>
	<circle cx="89.7" cy="195" r="3.5"/>
	<circle cx="64.9" cy="206.1" r="3.5"/>
	<circle cx="48.2" cy="228" r="3.5"/>
	<circle cx="44.7" cy="246" r="3.5"/>
	<circle cx="41.2" cy="275.8" r="3.5"/>
	<circle cx="25.2" cy="275.8" r="3.5"/>
	<circle cx="25.2" cy="299.7" r="3.5"/>
	<circle cx="25.2" cy="329.2" r="3.5"/>
	<circle cx="41.2" cy="329.2" r="3.5"/>
	<circle cx="41.2" cy="341.1" r="3.5"/>
	<circle cx="57" cy="341.1" r="3.5"/>
	<circle cx="64.9" cy="321" r="3.5"/>
	<circle cx="77.5" cy="303.2" r="3.5"/>
	<circle cx="99.5" cy="288.9" r="3.5"/>
	<circle cx="125.3" cy="285.4" r="3.5"/>
	<circle cx="151.3" cy="296.2" r="3.5"/>
	<circle cx="166.6" cy="314" r="3.5"/>
	<circle cx="173.3" cy="331" r="3.5"/>
	<circle cx="176.8" cy="344.6" r="3.5"/>
	<circle cx="204.3" cy="344.6" r="3.5"/>
	<circle cx="241" cy="344.6" r="3.5"/>
	<circle cx="264.2" cy="344.6" r="3.5"/>
	<circle cx="290.3" cy="341.1" r="3.5"/>
	<circle cx="286.8" cy="314" r="3.5"/>
	<circle cx="286.8" cy="285.4" r="3.5"/>
	<circle cx="303" cy="256" r="3.5"/>
	<circle cx="322.1" cy="238.4" r="3.5"/>
	<circle cx="346.5" cy="224.5" r="3.5"/>
	<circle cx="380" cy="216.9" r="3.5"/>
	<circle cx="408" cy="216.9" r="3.5"/>
	<circle cx="438" cy="228" r="3.5"/>
	<circle cx="463.9" cy="246" r="3.5"/>
	<circle cx="475.5" cy="264.8" r="3.5"/>
	<circle cx="483.4" cy="285.4" r="3.5"/>
	<circle cx="497" cy="285.4" r="3.5"/>
	<circle cx="494" cy="264.8" r="3.5"/>
	<circle cx="482.5" cy="241.9" r="3.5"/>
	<circle cx="463.9" cy="222.8" r="3.5"/>
	<circle cx="438" cy="208.5" r="3.5"/>
	<circle cx="415" cy="198.5" r="3.5"/>
	<circle cx="411.5" cy="180.1" r="3.5"/>
	<circle cx="404.5" cy="150.9" r="3.5"/>
	<circle cx="401" cy="125.7" r="3.5"/>
	<circle cx="397.8" cy="99.8" r="3.5"/>
	<circle cx="397.5" cy="72.4" r="3.5"/>
	<circle cx="362" cy="72.4" r="3.5"/>
	<circle cx="331.4" cy="72.4" r="3.5"/>
	<circle cx="296" cy="72.4" r="3.5"/>
	<circle cx="256" cy="72.4" r="3.5"/>
	<circle cx="222.5" cy="72.4" r="3.5"/>
	<circle cx="199" cy="72.4" r="3.5"/>
	<circle cx="199" cy="86.8" r="3.5"/>
	<circle cx="222.5" cy="93.8" r="3.5"/>
</g>
</svg>
