<?xml version="1.0" encoding="utf-8"?>
<!-- Generator: Adobe Illustrator 22.1.0, SVG Export Plug-In . SVG Version: 6.00 Build 0)  -->
<svg version="1.1" id="Layer_1" xmlns="http://www.w3.org/2000/svg" xmlns:xlink="http://www.w3.org/1999/xlink" x="0px" y="0px"
	 viewBox="0 0 512 512" style="enable-background:new 0 0 512 512;" xml:space="preserve">
<g>
	<g>
		<g>
			<g>
				<path d="M182.8,394.5c-0.4,0-0.9-0.1-1.3-0.4l-49.2-30c-1.2-0.7-1.6-2.3-0.8-3.4c0.7-1.2,2.3-1.6,3.4-0.8l49.2,30
					c1.2,0.7,1.6,2.3,0.8,3.4C184.5,394.1,183.6,394.5,182.8,394.5z"/>
			</g>
			<g>
				<path d="M132.8,393.2c-0.9,0-1.7-0.5-2.2-1.3c-0.7-1.2-0.2-2.7,1-3.4l49.4-27c1.2-0.7,2.7-0.2,3.4,1s0.2,2.7-1,3.4l-49.4,27
					C133.6,393.1,133.2,393.2,132.8,393.2z"/>
			</g>
			<g>
				<path d="M158.4,407.5c-1.4,0-2.5-1.1-2.5-2.5v-55.6c0-1.4,1.1-2.5,2.5-2.5s2.5,1.1,2.5,2.5V405
					C160.9,406.4,159.8,407.5,158.4,407.5z"/>
			</g>
			<g>
				<path d="M157.6,408.7c-17.6,0-32-14.4-32-32s14.4-32,32-32s32,14.4,32,32S175.2,408.7,157.6,408.7z M157.6,349.7
					c-14.9,0-27,12.1-27,27s12.1,27,27,27s27-12.1,27-27S172.5,349.7,157.6,349.7z"/>
			</g>
			<g>
				<path d="M157.6,420.8c-24.3,0-44.1-19.8-44.1-44.1c0-24.3,19.8-44.1,44.1-44.1s44.1,19.8,44.1,44.1
					C201.7,401,181.9,420.8,157.6,420.8z M157.6,337.6c-21.6,0-39.1,17.5-39.1,39.1s17.5,39.1,39.1,39.1s39.1-17.5,39.1-39.1
					C196.7,355.1,179.2,337.6,157.6,337.6z"/>
			</g>
		</g>
	</g>
	<g>
		<g>
			<g>
				<path d="M331,394.5c-0.4,0-0.9-0.1-1.3-0.4l-49.3-30c-1.2-0.7-1.6-2.3-0.8-3.4c0.7-1.2,2.3-1.6,3.4-0.8l49.3,30
					c1.2,0.7,1.6,2.3,0.8,3.4C332.7,394.1,331.8,394.5,331,394.5z"/>
			</g>
			<g>
				<path d="M280.9,393.2c-0.9,0-1.7-0.5-2.2-1.3c-0.7-1.2-0.2-2.7,1-3.4l49.5-27c1.2-0.7,2.7-0.2,3.4,1c0.7,1.2,0.2,2.7-1,3.4
					l-49.5,27C281.7,393.1,281.3,393.2,280.9,393.2z"/>
			</g>
			<g>
				<path d="M306.6,407.5c-1.4,0-2.5-1.1-2.5-2.5v-55.6c0-1.4,1.1-2.5,2.5-2.5s2.5,1.1,2.5,2.5V405
					C309.1,406.4,308,407.5,306.6,407.5z"/>
			</g>
			<g>
				<path d="M305.8,408.7c-17.6,0-32-14.4-32-32s14.4-32,32-32s32,14.4,32,32S323.4,408.7,305.8,408.7z M305.8,349.7
					c-14.9,0-27,12.1-27,27s12.1,27,27,27s27-12.1,27-27S320.7,349.7,305.8,349.7z"/>
			</g>
			<g>
				<path d="M305.8,420.8c-24.3,0-44.1-19.8-44.1-44.1c0-24.3,19.8-44.1,44.1-44.1c24.3,0,44.1,19.8,44.1,44.1
					S330.1,420.8,305.8,420.8z M305.8,337.6c-21.6,0-39.1,17.5-39.1,39.1s17.5,39.1,39.1,39.1s39.1-17.5,39.1-39.1
					S327.4,337.6,305.8,337.6z"/>
			</g>
		</g>
	</g>
	<g>
		<g>
			<g>
				<path d="M441.9,394.5c-0.4,0-0.9-0.1-1.3-0.4l-49.2-30c-1.2-0.7-1.6-2.3-0.8-3.4c0.7-1.2,2.3-1.6,3.4-0.8l49.2,30
					c1.2,0.7,1.6,2.3,0.8,3.4C443.6,394.1,442.7,394.5,441.9,394.5z"/>
			</g>
			<g>
				<path d="M391.8,393.2c-0.9,0-1.7-0.5-2.2-1.3c-0.7-1.2-0.2-2.7,1-3.4l49.5-27c1.2-0.7,2.7-0.2,3.4,1c0.7,1.2,0.2,2.7-1,3.4
					l-49.5,27C392.6,393.1,392.2,393.2,391.8,393.2z"/>
			</g>
			<g>
				<path d="M417.5,407.5c-1.4,0-2.5-1.1-2.5-2.5v-55.6c0-1.4,1.1-2.5,2.5-2.5s2.5,1.1,2.5,2.5V405
					C420,406.4,418.9,407.5,417.5,407.5z"/>
			</g>
			<g>
				<path d="M416.7,408.7c-17.6,0-32-14.4-32-32s14.4-32,32-32s32,14.4,32,32S434.3,408.7,416.7,408.7z M416.7,349.7
					c-14.9,0-27,12.1-27,27s12.1,27,27,27s27-12.1,27-27S431.6,349.7,416.7,349.7z"/>
			</g>
			<g>
				<path d="M416.7,420.8c-24.3,0-44.1-19.8-44.1-44.1c0-24.3,19.8-44.1,44.1-44.1c24.3,0,44.1,19.8,44.1,44.1
					C460.8,401,441,420.8,416.7,420.8z M416.7,337.6c-21.6,0-39.1,17.5-39.1,39.1s17.5,39.1,39.1,39.1s39.1-17.5,39.1-39.1
					C455.8,355.1,438.3,337.6,416.7,337.6z"/>
			</g>
		</g>
	</g>
	<g>
		<path d="M216.6,183.7c-1.4,0-2.5-1.1-2.5-2.5V84.1c0-0.4,0.1-0.8,0.3-1.1l12.1-24.1h-87l12,24.1c0.2,0.3,0.3,0.7,0.3,1.1v97.1
			c0,1.4-1.1,2.5-2.5,2.5s-2.5-1.1-2.5-2.5V84.7l-13.6-27.2c-0.4-0.8-0.3-1.7,0.1-2.4c0.5-0.7,1.3-1.2,2.1-1.2h95.1
			c0.9,0,1.7,0.4,2.1,1.2c0.5,0.7,0.5,1.7,0.1,2.4l-13.6,27.2v96.5C219.1,182.6,218,183.7,216.6,183.7z"/>
	</g>
	<g>
		<path d="M373.1,185.5h-37.6c-1.4,0-2.5-1.1-2.5-2.5v-69.9c0-1.4,1.1-2.5,2.5-2.5h37.6c1.4,0,2.5,1.1,2.5,2.5V183
			C375.6,184.4,374.5,185.5,373.1,185.5z M338,180.5h32.6v-64.9H338V180.5z M428.6,183.5H391c-1.4,0-2.5-1.1-2.5-2.5v-67.9
			c0-1.4,1.1-2.5,2.5-2.5h37.6c1.4,0,2.5,1.1,2.5,2.5V181C431.1,182.4,430,183.5,428.6,183.5z M393.5,178.5h32.6v-62.9h-32.6V178.5z
			"/>
	</g>
	<g>
		<g>
			<path d="M420.1,282.8h-73.8c-0.8,0-1.6-0.4-2.1-1.1s-0.6-1.5-0.3-2.3c0.4-1.1,0.6-2.2,0.6-3.3c0-6.5-7.5-11.8-16.7-11.8
				c-1.2,0-2,0-3,0.2c-0.7,0.1-1.5-0.1-2-0.6c-0.6-0.5-0.9-1.2-0.9-1.9v-29.1c0-0.7,0.3-1.3,0.7-1.8c0.5-0.5,1.1-0.7,1.8-0.7
				c0.6,0,1.2,0.1,1.8,0.1c0.5,0,1.1,0.1,1.6,0.1c9.2,0,16.7-5.3,16.7-11.8c0-1.1-0.2-2.2-0.6-3.3c-0.3-0.8-0.2-1.6,0.3-2.3
				s1.2-1.1,2.1-1.1h71.4c0.8,0,1.6,0.4,2.1,1.1c0.5,0.7,0.6,1.5,0.3,2.3c-0.4,1.1-0.6,2.2-0.6,3.3c0,6.5,7.5,11.8,16.7,11.8h1.2
				c1.4,0,2.5,1.1,2.5,2.5v28.7c0,1.3-1,2.4-2.4,2.5c-8.7,0.4-15.5,5.6-15.6,11.8c0,1.1,0.2,2.2,0.6,3.3c0.3,0.8,0.2,1.6-0.3,2.3
				S420.9,282.8,420.1,282.8z M349.5,277.8h67.4c-0.1-0.6-0.1-1.1-0.1-1.7c0.1-8.4,7.7-15.2,18-16.6v-23.9
				c-11.4-0.5-20.4-7.8-20.4-16.8c0-0.6,0-1.1,0.1-1.7h-65c0.1,0.6,0.1,1.1,0.1,1.7c0,9.3-9.7,16.8-21.7,16.8c-0.3,0-0.6,0-0.9,0
				v23.7c0.3,0,0.6,0,0.9,0c12,0,21.7,7.5,21.7,16.8C349.6,276.7,349.6,277.2,349.5,277.8z M437.3,261.8L437.3,261.8L437.3,261.8z"
				/>
		</g>
	</g>
</g>
</svg>
