<?xml version="1.0" encoding="utf-8"?>
<!-- Generator: Adobe Illustrator 22.1.0, SVG Export Plug-In . SVG Version: 6.00 Build 0)  -->
<svg version="1.1" id="Layer_1" xmlns="http://www.w3.org/2000/svg" xmlns:xlink="http://www.w3.org/1999/xlink" x="0px" y="0px"
	 viewBox="0 0 512 512" style="enable-background:new 0 0 512 512;" xml:space="preserve">
<g>
	<circle cx="87.9" cy="182" r="3.5"/>
	<circle cx="66.7" cy="202" r="3.5"/>
	<circle cx="54.1" cy="235.6" r="3.5"/>
	<circle cx="52.1" cy="267.7" r="3.5"/>
	<circle cx="57.6" cy="294.6" r="3.5"/>
	<circle cx="66.7" cy="311.1" r="3.5"/>
	<circle cx="66.7" cy="329" r="3.5"/>
	<circle cx="48.6" cy="329" r="3.5"/>
	<circle cx="39.3" cy="357.5" r="3.5"/>
	<circle cx="29.7" cy="382.4" r="3.5"/>
	<circle cx="19.9" cy="407.6" r="3.5"/>
	<circle cx="48.6" cy="409" r="3.5"/>
	<circle cx="76" cy="409" r="3.5"/>
	<circle cx="101.3" cy="409" r="3.5"/>
	<circle cx="101.3" cy="384.2" r="3.5"/>
	<circle cx="101.3" cy="350.5" r="3.5"/>
	<circle cx="103.1" cy="322.1" r="3.5"/>
	<circle cx="144.8" cy="322.1" r="3.5"/>
	<circle cx="184.3" cy="322.1" r="3.5"/>
	<circle cx="220.3" cy="322.1" r="3.5"/>
	<circle cx="256" cy="322.1" r="3.5"/>
	<circle cx="295.4" cy="322.1" r="3.5"/>
	<circle cx="339" cy="322.1" r="3.5"/>
	<circle cx="387.2" cy="322.1" r="3.5"/>
	<circle cx="425.1" cy="322.1" r="3.5"/>
	<circle cx="459.5" cy="322.1" r="3.5"/>
	<circle cx="474.9" cy="322.1" r="3.5"/>
	<circle cx="474.9" cy="298.1" r="3.5"/>
	<circle cx="459.5" cy="298.1" r="3.5"/>
	<circle cx="458.3" cy="252" r="3.5"/>
	<circle cx="458.3" cy="209.7" r="3.5"/>
	<circle cx="458.3" cy="170.9" r="3.5"/>
	<circle cx="458.3" cy="127.9" r="3.5"/>
	<circle cx="459.5" cy="95.5" r="3.5"/>
	<circle cx="474.9" cy="95.5" r="3.5"/>
	<circle cx="474.9" cy="68.5" r="3.5"/>
	<circle cx="441.3" cy="68.5" r="3.5"/>
	<circle cx="406.3" cy="68.5" r="3.5"/>
	<circle cx="366.7" cy="68.5" r="3.5"/>
	<circle cx="330.4" cy="68.5" r="3.5"/>
	<circle cx="295.4" cy="68.5" r="3.5"/>
	<circle cx="291.9" cy="95.5" r="3.5"/>
	<circle cx="305.8" cy="95.5" r="3.5"/>
	<circle cx="309.3" cy="127.8" r="3.5"/>
	<circle cx="306.6" cy="156.7" r="3.5"/>
	<circle cx="305.8" cy="182" r="3.5"/>
	<circle cx="291.9" cy="182" r="3.5"/>
	<circle cx="264.2" cy="182" r="3.5"/>
	<circle cx="230.5" cy="182" r="3.5"/>
	<circle cx="196.8" cy="182" r="3.5"/>
	<circle cx="161.9" cy="182" r="3.5"/>
	<circle cx="133.6" cy="182" r="3.5"/>
	<circle cx="106.6" cy="182" r="3.5"/>
</g>
</svg>
