<?xml version="1.0" encoding="utf-8"?>
<!-- Generator: Adobe Illustrator 22.1.0, SVG Export Plug-In . SVG Version: 6.00 Build 0)  -->
<svg version="1.1" id="Layer_1" xmlns="http://www.w3.org/2000/svg" xmlns:xlink="http://www.w3.org/1999/xlink" x="0px" y="0px"
	 viewBox="0 0 512 512" style="enable-background:new 0 0 512 512;" xml:space="preserve">
<g>
	<g>
		<path d="M141.5,312c-0.7,0-1.5-0.3-1.9-0.9c-0.9-1.1-0.7-2.6,0.4-3.5c0.5-0.4,47.3-38.3,82.7-76.8c36.7-39.7,97.6-73.8,131.4-73.8
			c0.5,0,1,0,1.5,0c1.4,0,2.5,1.2,2.4,2.6s-1.2,2.4-2.6,2.4c-31.8-1-93.3,33.4-129.1,72.2c-35.7,38.7-82.8,76.9-83.3,77.2
			C142.6,311.8,142.1,312,141.5,312z"/>
	</g>
	<g>
		<path d="M355.5,189c-1.4,0-2.5-1.1-2.5-2.5c0-0.3,0-27.4-1-61.9c-1-33.4-68.6-60-78.2-62.7c-1.3-0.4-2.1-1.7-1.8-3.1
			c0.4-1.3,1.7-2.1,3.1-1.8c10.6,2.9,80.8,30.4,81.8,67.3c1,34.6,1,61.8,1,62.1C358,187.9,356.9,189,355.5,189z"/>
	</g>
	<g>
		<path d="M111.5,281c-0.4,0-0.8-0.1-1.2-0.3c-1.2-0.7-1.7-2.2-1-3.4c15.4-28.4,20.6-91.5,23.1-121.8c0.8-9.9,1.2-14.7,1.7-16.6
			c0.3-1.3,1.7-2.2,3-1.8c1.3,0.3,2.2,1.7,1.8,3c-0.4,1.6-0.9,7.8-1.6,15.8c-2.5,30.7-7.8,94.5-23.7,123.8
			C113.2,280.5,112.4,281,111.5,281z"/>
	</g>
	<g>
		<path d="M176.5,143c-0.1,0-0.2,0-0.4,0c-13.7-2-79.1-4.9-79.8-5c-1.4-0.1-2.4-1.2-2.4-2.6c0.1-1.4,1.2-2.4,2.6-2.4
			c2.7,0.1,66.3,3,80.2,5c1.4,0.2,2.3,1.5,2.1,2.8C178.8,142.1,177.7,143,176.5,143z"/>
	</g>
	<g>
		<path d="M90.5,392C58.2,392,32,365.8,32,333.5S58.2,275,90.5,275s58.5,26.2,58.5,58.5S122.8,392,90.5,392z M90.5,280
			C61,280,37,304,37,333.5S61,387,90.5,387s53.5-24,53.5-53.5S120,280,90.5,280z"/>
	</g>
	<g>
		<path d="M260.5,72c-9.1,0-16.5-7.4-16.5-16.5S251.4,39,260.5,39c9.1,0,16.5,7.4,16.5,16.5S269.6,72,260.5,72z M260.5,44
			c-6.3,0-11.5,5.2-11.5,11.5S254.2,67,260.5,67c6.3,0,11.5-5.2,11.5-11.5S266.8,44,260.5,44z"/>
	</g>
	<g>
		<path d="M481.5,263c-0.9,0-1.8-0.5-2.3-1.4c-0.1-0.2-8.9-18.4-26.8-36.4c-16.4-16.5-44.1-36.1-83-36.1
			c-42.5,0-69.2,16.4-84.1,30.2c-16.2,14.9-22.5,30.1-22.6,30.3c-0.5,1.3-2,1.9-3.3,1.4c-1.3-0.5-1.9-2-1.4-3.3
			c0.3-0.7,6.7-16.2,23.6-31.9c15.6-14.4,43.5-31.7,87.7-31.7c40.6,0,69.5,20.5,86.6,37.7c18.5,18.6,27.2,36.9,27.6,37.7
			c0.6,1.2,0.1,2.7-1.2,3.3C482.2,262.9,481.9,263,481.5,263z"/>
	</g>
	<g>
		<path d="M304.5,295c-0.5,0-1.1-0.2-1.5-0.5c-1.1-0.8-1.3-2.4-0.5-3.5c3.1-4.2,29.1-16.2,37-19.8c1.3-0.6,2.7,0,3.3,1.2
			s0,2.7-1.2,3.3c-15.8,7.2-33.2,16-35,18.2C306,294.6,305.3,295,304.5,295z"/>
	</g>
	<g>
		<path d="M367.5,301c-0.3,0-0.5,0-0.8-0.1l-46.9-15.5c-1.3-0.4-2-1.8-1.6-3.2c0.4-1.3,1.8-2,3.2-1.6l46.9,15.5
			c1.3,0.4,2,1.8,1.6,3.2C369.5,300.3,368.5,301,367.5,301z"/>
	</g>
	<g>
		<path d="M90.5,392c-1.4,0-2.5-1.1-2.5-2.5v-112c0-1.4,1.1-2.5,2.5-2.5s2.5,1.1,2.5,2.5v112C93,390.9,91.9,392,90.5,392z"/>
	</g>
	<g>
		<path d="M144.5,336h-110c-1.4,0-2.5-1.1-2.5-2.5s1.1-2.5,2.5-2.5h110c1.4,0,2.5,1.1,2.5,2.5S145.9,336,144.5,336z"/>
	</g>
	<g>
		<path d="M52.5,375c-0.6,0-1.3-0.2-1.8-0.7c-1-1-1-2.6,0-3.5l78-78c1-1,2.6-1,3.5,0c1,1,1,2.6,0,3.5l-78,78
			C53.8,374.8,53.1,375,52.5,375z"/>
	</g>
	<g>
		<path d="M131.5,375c-0.6,0-1.3-0.2-1.8-0.7l-78-78c-1-1-1-2.6,0-3.5c1-1,2.6-1,3.5,0l78,78c1,1,1,2.6,0,3.5
			C132.8,374.8,132.1,375,131.5,375z"/>
	</g>
	<g>
		<path d="M365.3,393.5c-1.4,0-2.5-1.1-2.5-2.5V212c0-1.4,1.1-2.5,2.5-2.5s2.5,1.1,2.5,2.5v179C367.8,392.4,366.7,393.5,365.3,393.5
			z"/>
	</g>
	<g>
		<path d="M451.6,304H275.8c-1.4,0-2.5-1.1-2.5-2.5s1.1-2.5,2.5-2.5h175.8c1.4,0,2.5,1.1,2.5,2.5S453,304,451.6,304z"/>
	</g>
	<g>
		<path d="M304.6,366.3c-0.6,0-1.3-0.2-1.8-0.7c-1-1-1-2.6,0-3.5l124.6-124.6c1-1,2.6-1,3.5,0c1,1,1,2.6,0,3.5L306.4,365.6
			C305.9,366.1,305.2,366.3,304.6,366.3z"/>
	</g>
	<g>
		<path d="M430.8,366.3c-0.6,0-1.3-0.2-1.8-0.7L304.4,241c-1-1-1-2.6,0-3.5c1-1,2.6-1,3.5,0L432.6,362c1,1,1,2.6,0,3.5
			C432.1,366.1,431.4,366.3,430.8,366.3z"/>
	</g>
</g>
</svg>
