<?xml version="1.0" encoding="utf-8"?>
<!-- Generator: Adobe Illustrator 22.1.0, SVG Export Plug-In . SVG Version: 6.00 Build 0)  -->
<svg version="1.1" id="Layer_1" xmlns="http://www.w3.org/2000/svg" xmlns:xlink="http://www.w3.org/1999/xlink" x="0px" y="0px"
	 viewBox="0 0 512 512" style="enable-background:new 0 0 512 512;" xml:space="preserve">
<g>
	<circle cx="43.6" cy="151.5" r="3.5"/>
	<circle cx="33.5" cy="180.8" r="3.5"/>
	<circle cx="30" cy="206.4" r="3.5"/>
	<circle cx="26.5" cy="236.7" r="3.5"/>
	<circle cx="25.7" cy="264.7" r="3.5"/>
	<circle cx="29.2" cy="281.7" r="3.5"/>
	<circle cx="13" cy="285.2" r="3.5"/>
	<circle cx="13" cy="306.7" r="3.5"/>
	<circle cx="16.5" cy="327.3" r="3.5"/>
	<circle cx="43.6" cy="326.7" r="3.5"/>
	<circle cx="67.2" cy="324.4" r="3.5"/>
	<circle cx="67.2" cy="310.8" r="3.5"/>
	<circle cx="72.9" cy="287" r="3.5"/>
	<circle cx="92.3" cy="271.7" r="3.5"/>
	<circle cx="115.7" cy="264.7" r="3.5"/>
	<circle cx="137" cy="268.2" r="3.5"/>
	<circle cx="155.3" cy="281.7" r="3.5"/>
	<circle cx="164.2" cy="299.7" r="3.5"/>
	<circle cx="171.2" cy="320.9" r="3.5"/>
	<circle cx="205.5" cy="323.2" r="3.5"/>
	<circle cx="239.2" cy="320.9" r="3.5"/>
	<circle cx="277.8" cy="319.7" r="3.5"/>
	<circle cx="310.5" cy="319.7" r="3.5"/>
	<circle cx="339.2" cy="319.7" r="3.5"/>
	<circle cx="365" cy="319.7" r="3.5"/>
	<circle cx="365" cy="294.7" r="3.5"/>
	<circle cx="378.8" cy="274.7" r="3.5"/>
	<circle cx="402.6" cy="267.7" r="3.5"/>
	<circle cx="428.3" cy="269.2" r="3.5"/>
	<circle cx="446" cy="281.4" r="3.5"/>
	<circle cx="454.7" cy="299.7" r="3.5"/>
	<circle cx="456.1" cy="320.9" r="3.5"/>
	<circle cx="475.8" cy="320.9" r="3.5"/>
	<circle cx="499" cy="319.7" r="3.5"/>
	<circle cx="499" cy="307.3" r="3.5"/>
	<circle cx="495.5" cy="286.3" r="3.5"/>
	<circle cx="480.6" cy="286.7" r="3.5"/>
	<circle cx="480.6" cy="267.7" r="3.5"/>
	<circle cx="491" cy="249.3" r="3.5"/>
	<circle cx="487.5" cy="226.1" r="3.5"/>
	<circle cx="479" cy="206.9" r="3.5"/>
	<circle cx="472.3" cy="184.3" r="3.5"/>
	<circle cx="459.6" cy="162.2" r="3.5"/>
	<circle cx="445.8" cy="144.5" r="3.5"/>
	<circle cx="413.2" cy="137.3" r="3.5"/>
	<circle cx="377" cy="133.8" r="3.5"/>
	<circle cx="335.7" cy="133.8" r="3.5"/>
	<circle cx="299.7" cy="133.8" r="3.5"/>
	<circle cx="265.3" cy="133.8" r="3.5"/>
	<circle cx="232.2" cy="133.8" r="3.5"/>
	<circle cx="198.5" cy="130.3" r="3.5"/>
	<circle cx="160.7" cy="130.3" r="3.5"/>
	<circle cx="128.5" cy="133.8" r="3.5"/>
	<circle cx="94.3" cy="133.8" r="3.5"/>
	<circle cx="70.7" cy="137.3" r="3.5"/>
</g>
</svg>
