<?xml version="1.0" encoding="utf-8"?>
<!-- Generator: Adobe Illustrator 22.1.0, SVG Export Plug-In . SVG Version: 6.00 Build 0)  -->
<svg version="1.1" id="Layer_1" xmlns="http://www.w3.org/2000/svg" xmlns:xlink="http://www.w3.org/1999/xlink" x="0px" y="0px"
	 viewBox="0 0 512 512" style="enable-background:new 0 0 512 512;" xml:space="preserve">
<g>
	<g>
		<g>
			<path d="M409.7,356.3c-21.3,0-38.7-17.4-38.7-38.7s17.4-38.7,38.7-38.7s38.7,17.4,38.7,38.7S431,356.3,409.7,356.3z M409.7,283.9
				c-18.6,0-33.7,15.1-33.7,33.7s15.1,33.7,33.7,33.7s33.7-15.1,33.7-33.7S428.3,283.9,409.7,283.9z"/>
		</g>
		<g>
			<path d="M409.7,332.2c-8.1,0-14.6-6.5-14.6-14.6c0-8,6.5-14.6,14.6-14.6c8,0,14.6,6.5,14.6,14.6
				C424.3,325.7,417.8,332.2,409.7,332.2z M409.7,308c-5.3,0-9.6,4.3-9.6,9.6c0,5.3,4.3,9.6,9.6,9.6c5.3,0,9.6-4.3,9.6-9.6
				C419.3,312.3,415,308,409.7,308z"/>
		</g>
	</g>
	<g>
		<g>
			<path d="M115.7,356.3c-21.3,0-38.7-17.4-38.7-38.7s17.4-38.7,38.7-38.7s38.7,17.4,38.7,38.7S137,356.3,115.7,356.3z M115.7,283.9
				C97.1,283.9,82,299,82,317.6s15.1,33.7,33.7,33.7s33.7-15.1,33.7-33.7S134.3,283.9,115.7,283.9z"/>
		</g>
		<g>
			<path d="M115.7,332.2c-8.1,0-14.6-6.5-14.6-14.6c0-8,6.5-14.6,14.6-14.6s14.6,6.5,14.6,14.6S123.8,332.2,115.7,332.2z M115.7,308
				c-5.3,0-9.6,4.3-9.6,9.6c0,5.3,4.3,9.6,9.6,9.6s9.6-4.3,9.6-9.6C125.3,312.3,121,308,115.7,308z"/>
		</g>
	</g>
	<g>
		<path d="M192.3,208.9h-37.2c-6.7,0-12.1-5.4-12.1-12.1v-20.9c0-6.7,5.4-12.1,12.1-12.1h37.2c6.7,0,12.1,5.4,12.1,12.1V197
			C204.3,203.7,199,208.9,192.3,208.9z M155.1,168.8c-3.9,0-7.1,3.2-7.1,7.1v20.9c0,3.9,3.2,7.1,7.1,7.1h37.2c3.9,0,7-3.1,7.1-6.9
			v-21.1c0-3.9-3.2-7.1-7.1-7.1H155.1z"/>
	</g>
	<g>
		<path d="M264.6,208.9h-37.2c-6.7,0-12.1-5.4-12.1-12.1v-20.9c0-6.7,5.4-12.1,12.1-12.1h37.2c6.7,0,12.1,5.4,12.1,12.1V197
			C276.6,203.7,271.3,208.9,264.6,208.9z M227.4,168.8c-3.9,0-7.1,3.2-7.1,7.1v20.9c0,3.9,3.2,7.1,7.1,7.1h37.2c3.9,0,7-3.1,7.1-6.9
			v-21.1c0-3.9-3.2-7.1-7.1-7.1H227.4z"/>
	</g>
	<g>
		<path d="M343,208.9h-37.2c-6.7,0-12.1-5.4-12.1-12.1v-20.9c0-6.7,5.4-12.1,12.1-12.1H343c6.7,0,12.1,5.4,12.1,12.1V197
			C354.8,203.7,349.5,208.9,343,208.9z M305.8,168.8c-3.9,0-7.1,3.2-7.1,7.1v20.9c0,3.9,3.2,7.1,7.1,7.1H343c3.8,0,7-3.1,7.1-7v-21
			c0-3.9-3.2-7.1-7.1-7.1H305.8z"/>
	</g>
	<g>
		<path d="M463,208.9h-94.5c-1.4,0-2.5-1.1-2.5-2.5v-29.1c0-9.7,7.9-17.6,17.6-17.6h44.6c6.1,0,11.8,3.2,15.2,8.6l21.7,36.9
			c0.5,0.8,0.5,1.7,0,2.5C464.7,208.4,463.9,208.9,463,208.9z M371,203.9h87.6l-19.5-33c-2.5-3.9-6.5-6.2-10.9-6.2h-44.6
			c-6.8,0-12.6,5.8-12.6,12.6V203.9z"/>
	</g>
	<g>
		<path d="M376.7,268.2c-5.3,0-9.7-4.4-9.7-9.7v-40c0-1.4,1.1-2.5,2.5-2.5s2.5,1.1,2.5,2.5v40c0,2.6,2.1,4.7,4.7,4.7
			c1.4,0,2.5,1.1,2.5,2.5S378.1,268.2,376.7,268.2z"/>
	</g>
	<g>
		<path d="M397.6,228.6H381c-1.4,0-2.5-1.1-2.5-2.5s1.1-2.5,2.5-2.5h16.6c1.4,0,2.5,1.1,2.5,2.5S399,228.6,397.6,228.6z"/>
	</g>
</g>
</svg>
