<?xml version="1.0" encoding="utf-8"?>
<!-- Generator: Adobe Illustrator 22.1.0, SVG Export Plug-In . SVG Version: 6.00 Build 0)  -->
<svg version="1.1" id="Layer_1" xmlns="http://www.w3.org/2000/svg" xmlns:xlink="http://www.w3.org/1999/xlink" x="0px" y="0px"
	 viewBox="0 0 512 512" style="enable-background:new 0 0 512 512;" xml:space="preserve">
<g>
	<circle cx="450.5" cy="202" r="3.5"/>
	<circle cx="435.9" cy="188.4" r="3.5"/>
	<circle cx="396.2" cy="177.3" r="3.5"/>
	<circle cx="337" cy="169.6" r="3.5"/>
	<circle cx="264.3" cy="166.5" r="3.5"/>
	<circle cx="190" cy="168.8" r="3.5"/>
	<circle cx="128.2" cy="175.8" r="3.5"/>
	<circle cx="84.9" cy="186.4" r="3.5"/>
	<circle cx="65.9" cy="199.7" r="3.5"/>
	<circle cx="65.5" cy="243.1" r="3.5"/>
	<circle cx="65.5" cy="292.4" r="3.5"/>
	<circle cx="65.5" cy="341.6" r="3.5"/>
	<circle cx="65.5" cy="395.6" r="3.5"/>
	<circle cx="80.8" cy="425" r="3.5"/>
	<circle cx="120.2" cy="443.8" r="3.5"/>
	<circle cx="171.6" cy="456.9" r="3.5"/>
	<circle cx="230.1" cy="464.1" r="3.5"/>
	<circle cx="290.6" cy="465.2" r="3.5"/>
	<circle cx="348.2" cy="460.1" r="3.5"/>
	<circle cx="397.8" cy="448.5" r="3.5"/>
	<circle cx="434.3" cy="430.3" r="3.5"/>
	<circle cx="450.5" cy="395.6" r="3.5"/>
	<circle cx="450.5" cy="351.1" r="3.5"/>
	<circle cx="450.5" cy="301.8" r="3.5"/>
	<circle cx="450.5" cy="252.6" r="3.5"/>
	<circle cx="450.3" cy="203.5" r="3.5"/>
</g>
</svg>
