<?xml version="1.0" encoding="utf-8"?>
<!-- Generator: Adobe Illustrator 22.1.0, SVG Export Plug-In . SVG Version: 6.00 Build 0)  -->
<svg version="1.1" id="Layer_1" xmlns="http://www.w3.org/2000/svg" xmlns:xlink="http://www.w3.org/1999/xlink" x="0px" y="0px"
	 viewBox="0 0 512 512" style="enable-background:new 0 0 512 512;" xml:space="preserve">
<g>
	<circle cx="268.1" cy="19.2" r="3.5"/>
	<circle cx="287.9" cy="19.2" r="3.5"/>
	<circle cx="284.2" cy="50.8" r="3.5"/>
	<circle cx="281.3" cy="97.2" r="3.5"/>
	<circle cx="281.8" cy="137" r="3.5"/>
	<circle cx="282.4" cy="176.8" r="3.5"/>
	<circle cx="283" cy="216.6" r="3.5"/>
	<circle cx="285.9" cy="254.9" r="3.5"/>
	<circle cx="327.6" cy="267.7" r="3.5"/>
	<circle cx="339.4" cy="298.6" r="3.5"/>
	<circle cx="328.1" cy="336.7" r="3.5"/>
	<circle cx="344.6" cy="373.8" r="3.5"/>
	<circle cx="360.6" cy="410" r="3.5"/>
	<circle cx="361.5" cy="447.5" r="3.5"/>
	<circle cx="343.4" cy="479.1" r="3.5"/>
	<circle cx="309.4" cy="497.4" r="3.5"/>
	<circle cx="266.8" cy="502" r="3.5"/>
	<circle cx="223.9" cy="497.6" r="3.5"/>
	<circle cx="189.7" cy="479.6" r="3.5"/>
	<circle cx="171.3" cy="448.2" r="3.5"/>
	<circle cx="172" cy="410.6" r="3.5"/>
	<circle cx="187.6" cy="374.5" r="3.5"/>
	<circle cx="204.6" cy="337.4" r="3.5"/>
	<circle cx="193.3" cy="299.2" r="3.5"/>
	<circle cx="204.6" cy="268" r="3.5"/>
	<circle cx="245.9" cy="255" r="3.5"/>
	<circle cx="249.6" cy="217.1" r="3.5"/>
	<circle cx="250.2" cy="177.3" r="3.5"/>
	<circle cx="250.7" cy="137.5" r="3.5"/>
	<circle cx="251.3" cy="97.7" r="3.5"/>
	<circle cx="248.4" cy="51.3" r="3.5"/>
	<circle cx="244.3" cy="19.2" r="3.5"/>
</g>
</svg>
