<?xml version="1.0" encoding="utf-8"?>
<!-- Generator: Adobe Illustrator 22.1.0, SVG Export Plug-In . SVG Version: 6.00 Build 0)  -->
<svg version="1.1" id="Layer_1" xmlns="http://www.w3.org/2000/svg" xmlns:xlink="http://www.w3.org/1999/xlink" x="0px" y="0px"
	 viewBox="0 0 512 512" style="enable-background:new 0 0 512 512;" xml:space="preserve">
<g>
	<g>
		<path d="M293.9,56h-3.7c-1.2,0-2.3,1-2.3,2.3v1.2h-8.6c-0.4-0.5-1-0.8-1.7-0.8c-0.6,0-1.2,0.3-1.7,0.8h-6v2.9h5.9
			c0.4,0.5,1,0.8,1.7,0.8s1.3-0.3,1.7-0.8h8.6v1.4c-0.2,1,0.8,2.3,2.3,2.3h3.7c1.2,0,2.3-1,2.3-2.3v-5.6C296.2,57,295.1,56,293.9,56
			z"/>
		<path d="M254.8,58.7c-0.7,0-1.3,0.3-1.7,0.8h-8.4v-1.2c0-1.2-1-2.3-2.3-2.3h-3.7c-1.2,0-2.3,1-2.3,2.3v5.6c0,1.2,1,2.3,2.3,2.3
			h3.7c1.2,0,2.3-1.2,2.3-2.3v-1.4h8.4c0.4,0.5,1,0.8,1.7,0.8s1.3-0.3,1.7-0.8h6.1v-2.9h-6.1C256.1,59,255.5,58.7,254.8,58.7z"/>
	</g>
	<path style="fill:none;stroke:#000000;stroke-width:5;stroke-linecap:round;stroke-linejoin:round;stroke-miterlimit:10;" d="
		M215.1,402.7v23.8h102.5v-23.8H215.1z M291.4,418.9h-50.2v-6.6h12.3h37.9V418.9z"/>
	
		<polyline style="fill:none;stroke:#000000;stroke-width:5;stroke-linecap:round;stroke-linejoin:round;stroke-miterlimit:10;" points="
		254.8,37.2 258.9,72.8 258.6,411.4 	"/>
	
		<polyline style="fill:none;stroke:#000000;stroke-width:5;stroke-linecap:round;stroke-linejoin:round;stroke-miterlimit:10;" points="
		273.8,411.4 273.8,73.3 277.9,36.7 	"/>
	
		<line style="fill:none;stroke:#000000;stroke-width:5;stroke-linecap:round;stroke-linejoin:round;stroke-miterlimit:10;" x1="266.3" y1="411.4" x2="266.3" y2="61.1"/>
	
		<circle style="fill:none;stroke:#000000;stroke-width:5;stroke-linecap:round;stroke-linejoin:round;stroke-miterlimit:10;" cx="266.3" cy="330" r="38.3"/>
</g>
<g style="opacity:0;">
	<circle cx="268.1" cy="19.2" r="3.5"/>
	<circle cx="287.9" cy="19.2" r="3.5"/>
	<circle cx="284.2" cy="50.8" r="3.5"/>
	<circle cx="281.3" cy="97.2" r="3.5"/>
	<circle cx="281.8" cy="137" r="3.5"/>
	<circle cx="282.4" cy="176.8" r="3.5"/>
	<circle cx="283" cy="216.6" r="3.5"/>
	<circle cx="285.9" cy="254.9" r="3.5"/>
	<circle cx="327.6" cy="267.7" r="3.5"/>
	<circle cx="339.4" cy="298.6" r="3.5"/>
	<circle cx="328.1" cy="336.7" r="3.5"/>
	<circle cx="344.6" cy="373.8" r="3.5"/>
	<circle cx="360.6" cy="410" r="3.5"/>
	<circle cx="361.5" cy="447.5" r="3.5"/>
	<circle cx="343.4" cy="479.1" r="3.5"/>
	<circle cx="309.4" cy="497.4" r="3.5"/>
	<circle cx="266.8" cy="502" r="3.5"/>
	<circle cx="223.9" cy="497.6" r="3.5"/>
	<circle cx="189.7" cy="479.6" r="3.5"/>
	<circle cx="171.3" cy="448.2" r="3.5"/>
	<circle cx="172" cy="410.6" r="3.5"/>
	<circle cx="187.6" cy="374.5" r="3.5"/>
	<circle cx="204.6" cy="337.4" r="3.5"/>
	<circle cx="193.3" cy="299.2" r="3.5"/>
	<circle cx="204.6" cy="268" r="3.5"/>
	<circle cx="245.9" cy="255" r="3.5"/>
	<circle cx="249.6" cy="217.1" r="3.5"/>
	<circle cx="250.2" cy="177.3" r="3.5"/>
	<circle cx="250.7" cy="137.5" r="3.5"/>
	<circle cx="251.3" cy="97.7" r="3.5"/>
	<circle cx="248.4" cy="51.3" r="3.5"/>
	<circle cx="244.3" cy="19.2" r="3.5"/>
</g>
</svg>
