<?xml version="1.0" encoding="utf-8"?>
<!-- Generator: Adobe Illustrator 22.1.0, SVG Export Plug-In . SVG Version: 6.00 Build 0)  -->
<svg version="1.1" id="Layer_1" xmlns="http://www.w3.org/2000/svg" xmlns:xlink="http://www.w3.org/1999/xlink" x="0px" y="0px"
	 viewBox="0 0 512 512" style="enable-background:new 0 0 512 512;" xml:space="preserve">
<g>
	<circle cx="91.8" cy="33.6" r="3.5"/>
	<circle cx="108.2" cy="67.8" r="3.5"/>
	<circle cx="124.1" cy="122.3" r="3.5"/>
	<circle cx="127.1" cy="179.5" r="3.5"/>
	<circle cx="127.6" cy="231.1" r="3.5"/>
	<circle cx="132.2" cy="277.1" r="3.5"/>
	<circle cx="142.1" cy="322.2" r="3.5"/>
	<circle cx="159.4" cy="369.4" r="3.5"/>
	<circle cx="186" cy="417.9" r="3.5"/>
	<circle cx="205.3" cy="466.8" r="3.5"/>
	<circle cx="197.5" cy="490.4" r="3.5"/>
	<circle cx="252" cy="480.4" r="3.5"/>
	<circle cx="295.2" cy="484.4" r="3.5"/>
	<circle cx="271.5" cy="459.7" r="3.5"/>
	<circle cx="292.3" cy="407.2" r="3.5"/>
	<circle cx="315.6" cy="348.6" r="3.5"/>
	<circle cx="339.7" cy="288.4" r="3.5"/>
	<circle cx="362.9" cy="230.7" r="3.5"/>
	<circle cx="383.3" cy="180" r="3.5"/>
	<circle cx="399.2" cy="140.5" r="3.5"/>
	<circle cx="408.9" cy="116.5" r="3.5"/>
	<circle cx="406.2" cy="92" r="3.5"/>
	<circle cx="359.4" cy="56.4" r="3.5"/>
	<circle cx="326.8" cy="75.8" r="3.5"/>
	<circle cx="272.6" cy="73.5" r="3.5"/>
	<circle cx="231.6" cy="49.6" r="3.5"/>
	<circle cx="180.7" cy="22.9" r="3.5"/>
	<circle cx="128.7" cy="10.5" r="3.5"/>
</g>
</svg>
