<?xml version="1.0" encoding="utf-8"?>
<!-- Generator: Adobe Illustrator 22.1.0, SVG Export Plug-In . SVG Version: 6.00 Build 0)  -->
<svg version="1.1" id="Layer_1" xmlns="http://www.w3.org/2000/svg" xmlns:xlink="http://www.w3.org/1999/xlink" x="0px" y="0px"
	 viewBox="0 0 512 512" style="enable-background:new 0 0 512 512;" xml:space="preserve">
<g>
	
		<ellipse transform="matrix(0.6796 -0.7335 0.7335 0.6796 -158.06 261.0711)" style="fill:none;stroke:#000000;stroke-width:5;stroke-linecap:round;stroke-miterlimit:10;" cx="219.9" cy="311.5" rx="20.4" ry="31.6"/>
	<path style="fill:none;stroke:#000000;stroke-width:5;stroke-linecap:round;stroke-miterlimit:10;" d="M261.3,362.6
		c4.9-6,7.2-13.5,5.4-21.9c-1.2-6.6-4.6-12.9-9.6-18.9c1.6,8.6,0.1,16.4-4.9,21.7c-11,11.8-34.7,7.7-53.3-9.2
		c-18.5-16.9-24.5-40.5-13.3-52.5c5.1-5.5,12.7-7.4,21.5-6.6c-6.5-4.4-13-7.3-19.5-7.9c-8.7-1-16,1.7-21.5,7.2
		c-9.1-0.5-16.7,1.4-21.7,6.7s-6.3,13-5,22.2c-4.9,6-7.2,13.5-5.4,21.9c1.8,8.4,6.9,16.7,14.3,24.2c2.2,9.4,6.8,17.8,14,24.6
		c7.2,6.7,16,10.7,25.5,12.2c7.9,7,16.7,11.7,25.2,12.6c8.7,1,16-1.7,21.5-7.2c9.1,0.5,16.7-1.4,21.7-6.7
		C261,379.7,262.6,371.5,261.3,362.6z"/>
	<path d="M98.5,470.9c5.2-2.2,8.3-5.1,8.3-8.3c-0.1-3.3-3.5-5.8-8.9-7.7c2.3-5.2,2.3-9.4-0.1-11.6c-2.4-2.2-6.5-1.6-11.7,0.9
		c-2.2-5.2-5.1-8.3-8.3-8.3c-3.3,0.1-5.8,3.5-7.7,8.9c-5.1-2.1-9.4-2.3-11.6,0.1c-0.5,0.5-0.6,1-0.9,1.7
		c4.9,7.1,10.9,14.1,18.2,20.8c7.2,6.7,14.5,12.3,21.8,16.5c0.7-0.4,1.1-0.5,1.6-1.1C101.4,480.2,101,476.1,98.5,470.9z"/>
	<path d="M185.3,431.5l-82.2-76.3c-0.3-0.3-0.5-1.1-0.1-1.7s1.1-0.5,1.7-0.1l82.2,76.3c0.3,0.3,0.5,1.1,0.1,1.7
		C186.3,431.8,185.8,432,185.3,431.5z"/>
	<path d="M455.6,104.2l-9.3-8.7c-1.4-1.3-3.3-1.5-4.3-0.4c-1,1-0.6,2.9,0.7,4.2l9.3,8.7c1.4,1.3,3.3,1.5,4.3,0.4
		C457.4,107.2,456.9,105.5,455.6,104.2z"/>
	<path d="M452.4,110.9c-1-1-1.6-2.1-1.1-2.6l4.5-4.8c0.5-0.5,1.7-0.1,2.7,0.9l0,0c1,1,1.6,2.1,1.1,2.6l-4.5,4.8
		C454.8,112.4,453.6,112,452.4,110.9L452.4,110.9z"/>
	<g>
		<path d="M476.9,86.3c1.1-1.2,0.9-2.7-0.1-3.6l-16.3-15.2c-1-1-2.7-0.9-3.6,0.1c-1,1-0.9,2.7,0.1,3.6l16.3,15.2
			C474.2,87.5,476,87.3,476.9,86.3z"/>
		<path d="M466.4,93.8l-11.3-10.6c-1-1-2.7-0.9-3.6,0.1c-1,1-0.9,2.7,0.1,3.6l11.3,10.6c1,1,2.7,0.9,3.6-0.1
			C467.5,96.4,467.4,94.7,466.4,93.8z"/>
	</g>
	<g>
		<path d="M473,88.7c-1-1-1.6-2.1-1.1-2.6l4.5-4.8c0.5-0.5,1.7-0.1,2.7,0.9l0,0c1,1,1.6,2.1,1.1,2.6l-4.5,4.8
			C475.1,90.3,474.2,89.9,473,88.7L473,88.7z"/>
		<path d="M462.5,100.1c-1-1-1.6-2.1-1.1-2.6l4.6-5c0.5-0.5,1.7-0.1,2.7,0.9l0,0c1,1,1.6,2.1,1.1,2.6l-4.6,5
			C464.8,101.3,463.7,101.2,462.5,100.1L462.5,100.1z"/>
	</g>
	<path d="M445.9,119.6c1.1-1.2,0.9-2.7-0.1-3.6l-11.3-10.6c-1-1-2.7-0.9-3.6,0.1c-1.1,1.2-0.9,2.7,0.1,3.6l11.3,10.6
		C443.1,120.8,444.8,120.8,445.9,119.6"/>
	<path d="M442,122.3c-1-1-1.6-2.1-1.1-2.6l4.6-5c0.5-0.5,1.7-0.1,2.7,0.9l0,0c1,1,1.6,2.1,1.1,2.6l-4.6,5
		C444.2,123.8,443.1,123.3,442,122.3L442,122.3z"/>
	<path d="M408.8,60.6l8.8,8.2c1.3,1.2,1.5,3.1,0.5,4.2c-1.2,1.3-2.9,1-4.2-0.2l-8.8-8.2c-1.3-1.2-1.5-3.1-0.5-4.2
		C405.8,59.1,407.5,59.4,408.8,60.6z"/>
	<path d="M402.3,64.5c1,1,2.2,1.4,2.7,0.9l4.5-4.8c0.5-0.5-0.1-1.7-1.1-2.6l0,0c-1.2-1.1-2.2-1.4-2.7-0.9l-4.5,4.8
		C400.6,62.2,401.1,63.4,402.3,64.5L402.3,64.5z"/>
	<g>
		<path d="M425,38.2c1.1-1.2,2.6-1.1,3.6-0.1l16.3,15.2c1,1,1.1,2.6,0.1,3.6c-1.1,1.2-2.6,1.1-3.6,0.1l-16.3-15.2
			C423.9,41,424.2,39.4,425,38.2z"/>
		<path d="M418.4,49.3l11.3,10.6c1,1,1.1,2.6,0.1,3.6c-1,1-2.6,1.1-3.6,0.1l-11.3-10.6c-1-1-1.1-2.6-0.1-3.6
			C415.7,48.4,417.2,48.2,418.4,49.3z"/>
	</g>
	<g>
		<path d="M422.8,42.2c1,1,2.2,1.4,2.7,0.9l4.5-4.8c0.5-0.5-0.1-1.7-1.1-2.6l0,0c-1.2-1.1-2.2-1.4-2.7-0.9l-4.5,4.8
			C421.1,40.3,421.8,41.3,422.8,42.2L422.8,42.2z"/>
		<path d="M412.4,53.7c1,1,2.2,1.4,2.7,0.9l4.6-5c0.5-0.5-0.1-1.7-1.1-2.6l0,0c-1.2-1.1-2.2-1.4-2.7-0.9l-4.6,5
			C410.8,51.3,411.2,52.6,412.4,53.7L412.4,53.7z"/>
	</g>
	<path d="M394.1,71.6c1.1-1.2,2.6-1.1,3.6-0.1L409.1,82c1,1,1.1,2.6,0.1,3.6c-1.1,1.2-2.6,1.1-3.6,0.1l-11.3-10.6
		C393.1,74.5,393,72.8,394.1,71.6"/>
	<path d="M391.8,75.8c1,1,2.2,1.4,2.7,0.9l4.6-5c0.5-0.5-0.1-1.7-1.1-2.6l0,0c-1.2-1.1-2.2-1.4-2.7-0.9l-4.6,5
		C390.2,73.7,390.6,74.7,391.8,75.8L391.8,75.8z"/>
	<g>
		<polygon points="76.6,451.4 75.1,450 393.5,110.8 420.4,74.7 422.1,75.9 395.2,112.4 		"/>
		<polygon points="81.9,456.4 80.4,454.9 396.6,113.7 439.5,51.8 441.3,53 398.1,115.1 		"/>
		<polygon points="87.4,461.5 85.9,460 402.1,118.8 402.1,118.8 460.8,71.3 462.2,72.9 403.6,120.2 		"/>
		<polygon points="91.4,465.2 405,121.5 439.1,92.1 440.5,93.7 406.6,123.3 92.9,466.6 		"/>
	</g>
	<g>
		<circle cx="438" cy="50" r="4.5"/>
		<circle cx="409.5" cy="85.7" r="4.5"/>
		<circle cx="418.7" cy="73.4" r="4.5"/>
		<circle cx="428.3" cy="61.8" r="4.5"/>
		<ellipse transform="matrix(0.6819 -0.7315 0.7315 0.6819 93.5321 362.9712)" cx="464.1" cy="74" rx="4.5" ry="4.5"/>
		<ellipse transform="matrix(0.6819 -0.7315 0.7315 0.6819 60.0199 348.3362)" cx="430.5" cy="105.2" rx="4.5" ry="4.5"/>
		<ellipse transform="matrix(0.6796 -0.7335 0.7335 0.6796 71.8316 354.7538)" cx="442.1" cy="95.1" rx="4.5" ry="4.5"/>
		<ellipse transform="matrix(0.6796 -0.7335 0.7335 0.6796 82.9133 359.4517)" cx="453" cy="84.8" rx="4.5" ry="4.5"/>
	</g>
</g>
<g style="opacity:0;">
	<circle cx="467" cy="44.7" r="3.5"/>
	<circle cx="437.6" cy="39.3" r="3.5"/>
	<circle cx="396.4" cy="89.9" r="3.5"/>
	<circle cx="368.2" cy="129" r="3.5"/>
	<circle cx="333.6" cy="163.9" r="3.5"/>
	<circle cx="299.1" cy="198.8" r="3.5"/>
	<circle cx="264.6" cy="223.9" r="3.5"/>
	<circle cx="222.4" cy="232.7" r="3.5"/>
	<circle cx="173.5" cy="248.6" r="3.5"/>
	<circle cx="124.6" cy="272.1" r="3.5"/>
	<circle cx="82.2" cy="304.2" r="3.5"/>
	<circle cx="52.2" cy="344.4" r="3.5"/>
	<circle cx="40" cy="388.6" r="3.5"/>
	<circle cx="49.7" cy="433.4" r="3.5"/>
	<circle cx="84.6" cy="474.8" r="3.5"/>
	<circle cx="129.8" cy="496" r="3.5"/>
	<circle cx="174.6" cy="492.9" r="3.5"/>
	<circle cx="216" cy="469.8" r="3.5"/>
	<circle cx="250.6" cy="431.3" r="3.5"/>
	<circle cx="275.6" cy="383.6" r="3.5"/>
	<circle cx="292" cy="332.5" r="3.5"/>
	<circle cx="301.2" cy="284.6" r="3.5"/>
	<circle cx="306.8" cy="246.2" r="3.5"/>
	<circle cx="339" cy="209.1" r="3.5"/>
	<circle cx="371.2" cy="171.9" r="3.5"/>
	<circle cx="403.4" cy="134.8" r="3.5"/>
	<circle cx="477.9" cy="72.1" r="3.5"/>
</g>
</svg>
