<?xml version="1.0" encoding="utf-8"?>
<!-- Generator: Adobe Illustrator 22.1.0, SVG Export Plug-In . SVG Version: 6.00 Build 0)  -->
<svg version="1.1" id="Layer_1" xmlns="http://www.w3.org/2000/svg" xmlns:xlink="http://www.w3.org/1999/xlink" x="0px" y="0px"
	 viewBox="0 0 512 512" style="enable-background:new 0 0 512 512;" xml:space="preserve">
<g>
	<circle cx="467" cy="44.7" r="3.5"/>
	<circle cx="437.6" cy="39.3" r="3.5"/>
	<circle cx="396.4" cy="89.9" r="3.5"/>
	<circle cx="368.2" cy="129" r="3.5"/>
	<circle cx="333.6" cy="163.9" r="3.5"/>
	<circle cx="299.1" cy="198.8" r="3.5"/>
	<circle cx="264.6" cy="223.9" r="3.5"/>
	<circle cx="222.4" cy="232.7" r="3.5"/>
	<circle cx="173.5" cy="248.6" r="3.5"/>
	<circle cx="124.6" cy="272.1" r="3.5"/>
	<circle cx="82.2" cy="304.2" r="3.5"/>
	<circle cx="52.2" cy="344.4" r="3.5"/>
	<circle cx="40" cy="388.6" r="3.5"/>
	<circle cx="49.7" cy="433.4" r="3.5"/>
	<circle cx="84.6" cy="474.8" r="3.5"/>
	<circle cx="129.8" cy="496" r="3.5"/>
	<circle cx="174.6" cy="492.9" r="3.5"/>
	<circle cx="216" cy="469.8" r="3.5"/>
	<circle cx="250.6" cy="431.3" r="3.5"/>
	<circle cx="275.6" cy="383.6" r="3.5"/>
	<circle cx="292" cy="332.5" r="3.5"/>
	<circle cx="301.2" cy="284.6" r="3.5"/>
	<circle cx="306.8" cy="246.2" r="3.5"/>
	<circle cx="339" cy="209.1" r="3.5"/>
	<circle cx="371.2" cy="171.9" r="3.5"/>
	<circle cx="403.4" cy="134.8" r="3.5"/>
	<circle cx="477.9" cy="72.1" r="3.5"/>
</g>
</svg>
