<?xml version="1.0" standalone="no"?>
<!DOCTYPE svg PUBLIC "-//W3C//DTD SVG 20010904//EN"
 "http://www.w3.org/TR/2001/REC-SVG-20010904/DTD/svg10.dtd">
<svg version="1.0" xmlns="http://www.w3.org/2000/svg"
 width="1256.000000pt" height="1280.000000pt" viewBox="0 0 1256.000000 1280.000000"
 preserveAspectRatio="xMidYMid meet">
<g transform="translate(0.000000,1280.000000) scale(0.100000,-0.100000)"
fill="#3f51b5" stroke="none">
<path d="M8940 12791 c-382 -42 -805 -196 -1209 -443 l-74 -46 -146 49 c-574
193 -815 245 -1091 236 -177 -5 -292 -27 -578 -108 -389 -111 -530 -135 -739
-126 -141 6 -205 17 -518 92 -237 56 -372 70 -535 56 -375 -33 -751 -131
-1029 -270 l-77 -38 -129 79 c-747 454 -1542 612 -2150 427 -379 -116 -591
-337 -651 -681 -28 -160 -6 -379 56 -545 47 -127 127 -266 342 -593 210 -320
328 -537 416 -760 44 -114 44 -115 27 -145 -98 -167 -197 -384 -264 -578 -113
-327 -139 -492 -171 -1060 -18 -322 -31 -482 -45 -572 -3 -16 -32 -178 -64
-360 -100 -555 -121 -727 -121 -1000 0 -570 151 -1080 434 -1463 109 -147 325
-363 388 -387 39 -14 51 -15 63 -5 41 34 4 118 -104 236 -232 253 -399 539
-510 871 -110 329 -123 499 -76 1013 35 382 91 758 174 1175 50 249 57 307 76
680 24 455 43 573 131 794 139 349 369 744 670 1149 940 1261 1350 1588 2279
1818 307 77 411 73 821 -26 327 -80 420 -93 609 -87 191 5 252 19 566 133 398
144 515 169 749 161 220 -8 356 -40 805 -189 132 -44 241 -81 242 -82 1 -1
-16 -29 -37 -61 -22 -33 -40 -72 -40 -87 0 -51 70 -89 125 -68 14 5 78 63 143
128 233 235 497 365 834 411 66 9 83 8 132 -9 93 -32 225 -97 311 -155 89 -59
195 -165 195 -195 0 -11 -27 -39 -65 -69 -36 -28 -65 -55 -65 -60 0 -4 9 -16
20 -26 16 -14 45 -19 147 -24 133 -7 153 -13 191 -54 l23 -24 -113 -39 c-228
-78 -448 -203 -610 -346 -112 -99 -241 -266 -307 -395 l-21 -42 67 -47 c205
-146 361 -353 447 -592 63 -175 89 -432 67 -655 l-11 -117 46 -83 c135 -239
174 -260 197 -104 10 68 8 82 -16 174 -31 114 -34 165 -11 208 8 16 94 106
191 200 375 362 587 635 752 966 223 447 250 871 80 1225 -73 153 -169 263
-308 352 -117 75 -284 137 -447 167 -103 19 -375 27 -484 16z m-7160 -282
c280 -55 618 -177 950 -344 l92 -46 -140 -95 c-185 -126 -376 -280 -527 -425
-67 -66 -126 -119 -129 -119 -4 0 -19 15 -34 32 -215 259 -465 439 -743 533
-152 52 -225 146 -169 217 22 29 136 90 257 137 108 43 172 85 186 121 10 27
13 28 61 23 28 -3 116 -18 196 -34z m-910 -514 c246 -38 472 -138 705 -313 91
-67 311 -274 347 -325 l21 -29 -75 -76 c-243 -249 -512 -593 -764 -976 -57
-87 -80 -115 -86 -105 -5 8 -43 77 -85 154 -41 77 -155 275 -253 440 -97 165
-215 370 -263 456 -154 278 -247 517 -247 634 0 61 -4 58 145 100 189 53 381
67 555 40z m9225 -295 c-1 -164 -16 -255 -71 -420 -90 -270 -281 -564 -556
-857 -117 -125 -356 -353 -369 -353 -5 0 -9 45 -9 99 0 337 -139 676 -386 939
-85 91 -86 94 -73 120 8 15 73 86 144 158 174 175 314 268 525 349 193 74 429
114 660 112 l135 -2 0 -145z"/>
<path d="M5934 12095 c-259 -38 -584 -152 -728 -255 -44 -32 -46 -32 -138 -28
-65 3 -132 16 -223 41 -188 52 -242 58 -520 58 -564 0 -946 -97 -1308 -334
-165 -108 -322 -250 -315 -285 7 -32 63 -17 170 48 231 138 521 272 743 343
248 80 407 98 815 93 332 -3 330 -3 409 -65 18 -14 84 -62 145 -106 116 -84
156 -129 156 -176 0 -64 -93 -77 -232 -33 -234 74 -522 73 -908 -5 -80 -16
-174 -32 -210 -36 -87 -9 -160 -30 -239 -69 -36 -19 -129 -57 -206 -86 -214
-80 -278 -113 -340 -171 -85 -80 -92 -141 -22 -193 24 -18 42 -21 108 -20 43
1 79 -2 79 -7 0 -4 -17 -21 -37 -36 -104 -77 -197 -193 -174 -216 19 -19 118
20 170 66 25 23 56 50 68 60 12 11 54 25 93 33 81 15 145 48 185 95 14 18 48
75 75 128 71 142 110 172 257 192 77 11 149 34 317 104 125 52 255 78 396 78
120 0 171 -9 265 -44 112 -42 155 -104 155 -229 0 -137 -28 -158 -228 -171
-209 -13 -351 -41 -571 -114 -108 -35 -234 -71 -281 -79 -47 -8 -104 -21 -128
-30 -62 -22 -170 -95 -264 -179 -46 -40 -120 -103 -164 -140 -89 -73 -122
-123 -104 -157 20 -36 87 -21 170 39 47 34 71 39 89 17 10 -11 3 -33 -33 -104
-75 -149 -82 -222 -21 -222 77 0 134 56 181 178 66 173 91 198 185 182 65 -10
187 4 244 29 22 10 78 48 125 85 108 86 153 109 287 145 59 16 142 43 185 60
42 17 95 31 117 31 35 0 43 -4 51 -26 7 -18 7 -39 -1 -67 -25 -96 -92 -172
-216 -246 -58 -34 -83 -43 -147 -50 -79 -9 -85 -12 -156 -78 -20 -18 -63 -44
-97 -57 -160 -62 -446 -339 -529 -512 -37 -78 -42 -105 -19 -124 22 -18 102
14 139 56 18 21 54 43 97 59 55 21 83 41 149 105 45 43 101 89 126 101 43 20
46 21 64 4 11 -10 20 -28 20 -39 1 -31 52 -99 83 -110 35 -13 68 17 109 99 46
92 85 135 146 163 49 22 64 24 140 19 l86 -5 70 61 c120 105 127 123 76 172
-41 39 -55 85 -40 130 6 19 20 40 30 45 53 28 146 -3 230 -78 53 -46 101 -72
213 -113 93 -34 153 -67 215 -116 49 -40 65 -68 81 -142 8 -37 26 -73 56 -113
45 -59 45 -61 45 -141 1 -47 6 -92 13 -105 15 -27 101 -80 172 -108 67 -25
170 -26 208 0 60 41 44 104 -54 212 -55 60 -69 83 -67 103 5 41 43 53 125 40
53 -8 87 -8 153 3 l85 14 57 -29 c73 -36 117 -34 136 6 11 23 11 34 2 58 -37
89 -239 192 -409 208 -84 8 -88 10 -186 73 -123 81 -194 117 -310 158 -49 17
-109 44 -133 60 -26 17 -78 37 -133 49 -104 24 -149 45 -240 112 -37 27 -71
49 -76 49 -17 0 -43 35 -43 58 0 11 12 34 26 51 22 26 33 31 72 31 26 0 94 -9
152 -20 97 -19 116 -20 237 -9 120 11 139 10 200 -6 112 -30 193 -72 255 -131
51 -49 143 -104 176 -104 25 0 11 35 -31 74 -51 47 -67 74 -67 110 0 33 32 50
86 43 70 -7 126 -48 194 -140 63 -84 297 -347 310 -347 13 0 30 51 30 94 0
180 -220 442 -488 579 -204 105 -490 174 -834 202 -96 8 -123 26 -123 82 0 51
42 122 94 157 89 62 338 124 531 133 158 7 278 -18 415 -86 184 -91 309 -212
532 -509 71 -94 125 -157 141 -163 86 -33 178 67 151 164 -42 152 -389 493
-644 632 -193 106 -363 149 -585 148 -171 0 -281 -18 -450 -73 -105 -34 -151
-37 -199 -12 -51 25 -76 65 -75 117 1 51 24 92 62 107 15 6 54 23 87 39 34 16
125 41 210 59 150 31 185 44 358 136 120 64 219 64 543 -1 97 -19 242 -42 323
-50 166 -17 230 -28 338 -56 92 -23 183 -26 183 -5 0 49 -35 71 -205 126 -71
23 -175 63 -230 87 -149 68 -248 83 -555 82 -147 -1 -281 -6 -336 -14z"/>
<path d="M7120 11527 c-46 -23 -38 -55 43 -173 131 -192 232 -378 336 -621
150 -351 209 -630 266 -1246 38 -419 33 -526 -32 -637 -35 -60 -117 -145 -165
-172 -21 -12 -38 -27 -38 -34 0 -7 20 -37 45 -67 25 -31 45 -66 45 -78 0 -69
-276 -331 -407 -386 -77 -32 -340 -104 -403 -110 -83 -8 -115 -36 -106 -91 9
-60 102 -241 128 -251 35 -13 57 -2 86 43 38 61 63 86 84 86 10 0 51 22 91 49
39 27 104 67 142 89 71 41 84 51 144 116 40 44 97 74 211 111 47 15 120 43
162 61 72 33 79 34 110 21 18 -8 48 -32 66 -53 68 -80 73 -84 108 -84 55 0 68
49 38 150 -13 45 -14 62 -3 116 11 57 10 74 -10 169 -20 93 -22 122 -16 238 6
101 3 153 -9 225 -31 179 -16 241 57 242 35 0 77 -40 77 -73 0 -31 36 -77 60
-77 42 0 48 47 24 197 -57 358 -125 544 -429 1158 -222 449 -337 649 -548 952
-68 98 -108 143 -127 143 -3 0 -16 -6 -30 -13z"/>
<path d="M2644 10736 c-9 -15 -27 -80 -40 -145 -13 -65 -35 -154 -48 -197 -14
-44 -48 -159 -76 -257 -28 -98 -76 -245 -106 -325 -86 -227 -94 -264 -104
-522 -5 -130 -16 -263 -25 -315 -28 -147 -5 -299 70 -475 39 -90 40 -108 23
-209 -10 -56 -9 -77 2 -111 17 -50 39 -66 105 -75 71 -11 81 -18 132 -98 80
-125 118 -164 176 -183 63 -20 82 -37 157 -134 75 -98 100 -120 143 -127 42
-6 59 13 78 92 6 28 18 60 26 73 23 37 29 152 10 188 -23 45 -37 53 -117 70
-92 19 -259 108 -341 182 -33 30 -94 95 -136 145 -42 51 -91 107 -110 126 -37
38 -44 82 -18 131 22 43 53 60 111 60 46 0 58 -5 118 -51 38 -28 82 -72 99
-97 62 -90 128 -151 201 -187 73 -36 175 -58 250 -54 53 3 89 -20 124 -80 30
-50 28 -19 20 -391 l-3 -125 -43 -77 -42 -77 27 -18 c81 -53 218 29 289 172
64 133 46 391 -52 734 -19 69 -47 145 -62 170 -47 81 -152 175 -249 223 l-87
43 -180 0 c-225 0 -236 4 -350 132 -99 112 -161 212 -198 320 -28 80 -30 94
-26 192 6 120 19 170 129 484 121 345 169 548 169 713 0 59 -4 85 -14 93 -12
10 -18 7 -32 -13z m382 -2008 c-31 -100 -6 -180 70 -224 38 -23 54 -26 104
-22 41 3 70 11 90 26 16 12 32 22 35 22 14 0 46 -92 51 -148 l7 -59 -39 -6
c-22 -4 -75 -7 -119 -7 -233 0 -381 118 -409 325 l-7 51 39 22 c44 24 99 39
151 41 30 1 33 -1 27 -21z"/>
<path d="M2173 10595 c-80 -68 -295 -355 -392 -522 -59 -103 -52 -168 15 -133
22 12 308 425 396 573 68 114 60 149 -19 82z"/>
<path d="M8305 10166 c-38 -28 -24 -85 90 -361 119 -288 188 -469 247 -655 22
-69 59 -161 83 -205 49 -91 81 -196 125 -403 93 -441 94 -774 4 -1367 -82
-546 -156 -847 -249 -1020 -29 -54 -54 -121 -75 -205 -49 -188 -67 -220 -250
-436 -87 -103 -103 -118 -219 -197 -47 -33 -106 -78 -131 -101 -25 -24 -58
-51 -75 -61 -91 -55 -349 -326 -397 -416 -31 -57 -36 -127 -15 -189 31 -91
105 -20 228 220 42 83 70 121 129 181 91 93 161 128 322 165 358 82 394 108
447 315 27 108 35 125 119 255 406 632 552 1074 552 1674 1 226 -15 318 -136
815 -159 657 -210 843 -313 1147 -104 306 -278 713 -336 785 -51 64 -111 88
-150 59z"/>
<path d="M5034 10075 c-28 -43 -13 -96 49 -178 91 -121 175 -205 277 -278 91
-64 160 -130 186 -174 17 -30 48 83 41 150 -7 73 -37 125 -134 237 -82 94
-134 138 -165 138 -8 0 -41 23 -74 51 -92 81 -151 99 -180 54z"/>
<path d="M1610 9803 c-42 -42 -51 -60 -74 -138 -44 -146 -52 -164 -137 -295
-106 -163 -136 -228 -155 -333 -8 -48 -40 -167 -70 -264 -72 -230 -93 -329
-104 -482 -11 -155 0 -334 37 -586 21 -149 27 -221 25 -331 -2 -136 -1 -144
25 -200 l28 -59 0 -345 c1 -331 2 -351 28 -490 15 -80 31 -212 37 -295 25
-369 43 -478 103 -647 44 -122 91 -207 169 -304 100 -125 275 -267 416 -338
40 -20 180 -56 220 -56 2 0 28 -25 57 -55 44 -46 58 -55 87 -55 39 0 78 33 78
67 0 11 -11 45 -24 75 -18 41 -24 72 -24 120 2 105 -17 132 -144 198 -192 100
-483 362 -551 495 -19 39 -51 96 -70 128 -38 62 -50 115 -67 287 -6 58 -26
177 -45 265 -73 346 -84 496 -96 1420 -5 385 -12 800 -15 922 -12 411 14 527
185 815 126 213 186 372 179 475 -3 41 -6 48 -26 51 -17 3 -37 -10 -72 -45z"/>
<path d="M4849 9767 c-24 -13 -71 -40 -103 -60 -33 -20 -65 -37 -70 -37 -50 0
-95 -28 -185 -114 -94 -90 -98 -93 -153 -99 -114 -11 -253 -109 -279 -195 -14
-50 -6 -64 77 -128 69 -54 83 -75 84 -129 1 -82 28 -135 70 -135 7 0 44 33 84
73 39 39 104 101 144 136 62 54 79 76 117 154 44 89 44 91 27 115 -52 74 -53
75 -35 94 9 10 59 32 112 48 59 19 119 46 155 70 62 43 95 49 120 24 23 -22
20 -102 -5 -159 l-21 -47 21 -21 c21 -21 34 -23 148 -16 27 2 42 -7 87 -49 30
-29 60 -52 65 -52 6 0 33 -45 61 -100 27 -54 59 -104 69 -110 26 -14 53 21 81
105 12 36 26 67 30 70 11 7 59 -17 111 -55 58 -42 96 -55 114 -40 20 17 36 79
26 99 -5 9 -47 38 -93 66 -45 27 -100 67 -121 88 -29 30 -43 38 -60 33 -65
-19 -75 -18 -94 4 -45 56 -52 60 -105 60 l-53 0 -150 153 c-82 85 -160 159
-172 166 -32 16 -54 14 -104 -12z"/>
<path d="M3053 9365 c-29 -8 -88 -33 -132 -55 -51 -25 -94 -40 -118 -40 -65 0
-112 -18 -128 -50 -15 -28 -14 -29 37 -74 29 -25 84 -63 123 -83 61 -33 79
-38 140 -38 58 0 86 6 165 39 77 31 104 37 143 33 66 -6 137 -57 249 -179 50
-54 97 -98 104 -98 17 0 28 42 21 80 -7 32 -78 162 -158 288 -64 101 -107 139
-168 148 -25 4 -62 13 -82 20 -61 21 -140 25 -196 9z"/>
<path d="M6689 9243 c-130 -135 -203 -232 -280 -368 l-33 -59 63 52 c88 74
152 104 231 110 87 6 254 -22 324 -54 74 -34 106 -28 182 34 33 26 100 65 152
87 115 49 162 85 162 125 0 49 -29 60 -155 60 -61 0 -141 7 -180 16 -130 28
-300 62 -345 68 l-46 7 -75 -78z"/>
<path d="M9157 9193 c-18 -17 3 -45 121 -162 334 -329 467 -575 528 -976 9
-66 133 -169 180 -151 15 6 16 19 11 99 -13 221 -105 457 -265 681 -83 116
-259 294 -406 412 -120 96 -152 115 -169 97z"/>
<path d="M1793 9080 c-47 -28 -64 -62 -91 -174 -21 -91 -24 -131 -29 -394 -8
-423 18 -822 67 -1044 41 -183 99 -324 201 -490 116 -189 147 -283 134 -411
-9 -99 -32 -163 -71 -207 -52 -57 -105 -74 -212 -67 -104 6 -148 -7 -158 -49
-4 -15 -3 -34 3 -42 5 -8 49 -32 99 -52 49 -20 238 -105 420 -188 182 -84 338
-152 346 -152 8 0 27 9 42 21 36 28 36 99 1 169 -46 90 -95 340 -95 481 0 72
25 206 50 263 24 58 76 114 172 188 104 81 208 199 208 238 0 53 -52 81 -113
61 -18 -6 -56 -31 -84 -54 -125 -107 -214 -158 -309 -178 -270 -55 -444 297
-495 1006 -11 157 -6 853 7 992 5 53 3 64 -15 82 -26 26 -37 26 -78 1z"/>
<path d="M5997 9059 c-22 -13 -47 -61 -47 -92 0 -13 -18 -52 -40 -88 -93 -148
-104 -178 -104 -259 0 -87 24 -148 85 -212 29 -31 43 -39 66 -36 l28 3 -4 79
c-5 119 6 179 39 221 17 22 33 59 40 93 7 31 26 83 42 114 l30 57 -17 50 c-23
71 -69 98 -118 70z"/>
<path d="M3871 8989 c-22 -39 -23 -47 -16 -157 4 -65 16 -144 26 -177 22 -70
130 -258 162 -280 41 -29 82 -13 101 40 9 25 -11 214 -29 280 -11 38 -30 66
-79 116 -50 52 -68 79 -80 120 -17 55 -41 99 -54 99 -5 0 -19 -18 -31 -41z"/>
<path d="M8423 8863 c-21 -16 -78 -69 -126 -119 -83 -87 -87 -93 -87 -136 0
-27 10 -68 25 -100 52 -114 67 -199 72 -405 8 -296 -13 -435 -111 -743 -31
-96 -63 -213 -72 -260 -50 -275 -119 -397 -245 -434 -149 -45 -292 12 -404
161 -7 9 -10 -9 -10 -59 -1 -131 -57 -255 -164 -363 -92 -93 -160 -105 -255
-45 l-47 30 7 -37 c16 -92 92 -183 153 -183 14 0 53 18 86 41 108 72 133 82
194 76 111 -12 258 -112 313 -214 51 -94 57 -221 16 -353 -40 -130 -112 -237
-305 -454 -62 -70 -113 -135 -113 -146 0 -11 9 -24 20 -30 34 -18 94 6 174 70
168 136 296 308 375 503 20 51 57 126 82 167 69 114 84 161 83 260 0 47 -6
126 -13 175 -25 190 -27 169 19 219 34 37 43 55 55 117 8 41 32 115 54 165 54
125 80 213 87 298 9 101 18 135 84 281 63 143 89 218 120 345 35 141 74 963
54 1113 -7 50 -34 87 -63 87 -10 0 -36 -12 -58 -27z"/>
<path d="M6725 8771 c-147 -42 -247 -115 -356 -260 -145 -193 -222 -377 -222
-533 -1 -71 3 -84 41 -161 44 -90 133 -187 171 -187 42 0 58 31 65 126 9 105
41 323 56 376 12 41 51 92 83 110 12 6 64 12 117 14 156 4 301 46 434 127 67
40 198 141 238 184 l28 29 -53 39 c-75 57 -208 121 -287 139 -91 21 -238 19
-315 -3z m359 -85 c28 -13 69 -39 91 -58 l39 -35 -18 -27 c-63 -97 -166 -172
-290 -212 -114 -37 -277 -38 -386 -2 l-75 24 3 35 c5 73 34 131 91 191 60 61
81 71 81 38 0 -56 58 -118 126 -135 121 -30 224 44 224 163 l0 55 32 -7 c17
-3 55 -17 82 -30z"/>
<path d="M2104 7946 c-14 -56 31 -129 91 -149 35 -11 44 -21 71 -76 27 -56 38
-68 106 -111 42 -27 87 -63 99 -79 25 -35 92 -71 130 -71 39 0 69 27 69 61 0
72 -75 146 -173 173 -34 9 -94 34 -132 55 -67 35 -72 41 -106 111 -42 85 -68
110 -115 110 -27 0 -35 -5 -40 -24z"/>
<path d="M10207 7963 c-25 -6 -39 -47 -27 -78 5 -14 26 -36 47 -50 21 -14 86
-57 146 -96 493 -326 847 -868 946 -1449 78 -453 0 -893 -257 -1460 l-57 -125
-3 -140 c-5 -215 22 -265 103 -194 43 38 98 118 217 314 47 77 120 194 162
260 190 294 249 471 249 750 1 77 -5 176 -12 220 -13 81 -54 266 -66 298 -12
28 9 20 102 -42 93 -62 301 -266 359 -351 43 -62 79 -158 101 -265 14 -72 18
-138 18 -335 0 -213 -3 -261 -23 -365 -78 -411 -218 -788 -491 -1321 -95 -185
-136 -254 -207 -345 -210 -272 -265 -327 -617 -614 -466 -379 -558 -438 -1257
-790 -448 -226 -562 -288 -800 -438 -496 -312 -654 -437 -844 -667 -138 -166
-186 -218 -257 -275 -94 -78 -142 -161 -118 -206 20 -37 61 -23 196 68 79 53
197 120 308 173 268 129 359 210 553 492 122 178 189 257 270 317 94 71 332
211 567 334 110 57 299 156 420 219 350 183 538 298 705 430 130 103 519 460
665 609 153 157 226 248 279 349 l35 66 64 -6 c54 -4 70 -10 102 -39 35 -30
42 -33 84 -27 98 13 192 105 275 266 157 305 293 722 356 1085 11 66 30 146
42 178 23 64 21 101 -13 241 -23 97 -24 151 -4 271 22 133 19 172 -19 279 -56
156 -141 291 -290 456 -114 128 -347 339 -441 401 -49 33 -121 83 -159 112
-63 48 -73 61 -123 161 -204 406 -540 787 -1048 1190 -169 133 -196 149 -238
139z"/>
<path d="M7973 7850 c-44 -26 -60 -54 -75 -131 -11 -52 -32 -94 -103 -210
-116 -187 -166 -258 -234 -331 l-55 -60 29 -25 c37 -32 77 -28 183 21 42 19
95 40 118 46 22 5 51 21 63 34 13 14 45 82 71 153 26 70 67 178 90 238 52 133
60 185 36 230 -17 31 -52 55 -79 55 -7 0 -26 -9 -44 -20z"/>
<path d="M9867 7612 c-16 -7 -15 -11 9 -46 114 -168 169 -436 145 -715 -28
-341 -100 -595 -257 -910 -130 -261 -289 -504 -525 -797 -159 -199 -169 -224
-144 -365 28 -161 17 -405 -29 -604 -71 -311 -270 -694 -535 -1034 -44 -58
-81 -114 -81 -126 0 -39 28 -117 51 -141 16 -17 34 -24 58 -24 33 0 45 10 141
110 58 61 125 124 149 140 43 28 48 29 127 23 107 -8 157 10 214 74 31 35 47
67 66 132 14 47 43 133 65 191 97 261 139 482 139 734 0 123 -18 314 -32 340
-6 10 -10 44 -11 76 0 63 26 121 84 189 56 64 278 440 364 616 138 280 227
533 299 845 122 534 114 745 -44 1078 -60 125 -97 174 -153 201 -45 22 -69 25
-100 13z"/>
<path d="M3325 7050 c-38 -15 -63 -55 -125 -195 -202 -457 -393 -1006 -599
-1715 -69 -239 -101 -428 -101 -597 0 -420 147 -803 429 -1113 67 -74 82 -85
184 -134 62 -30 121 -64 132 -76 29 -32 25 -123 -11 -230 -25 -74 -29 -100
-28 -200 0 -130 15 -196 70 -300 71 -136 185 -245 359 -345 201 -114 390 -127
850 -55 275 43 350 46 610 22 339 -32 385 -34 497 -22 196 20 303 64 408 170
107 107 160 232 180 424 9 78 9 132 0 213 -29 271 -32 260 82 273 87 10 157
27 282 69 342 117 607 435 692 833 33 159 33 481 -1 665 -39 211 -87 368 -255
838 -119 333 -138 396 -239 771 -116 432 -152 524 -203 524 -26 0 -51 -44 -45
-82 9 -68 371 -1308 426 -1463 128 -359 210 -730 211 -945 0 -180 -57 -400
-148 -573 -56 -106 -216 -323 -271 -366 -110 -87 -281 -140 -523 -161 -217
-18 -361 14 -695 159 -191 82 -232 103 -303 151 -127 87 -175 165 -210 340
-11 58 -32 147 -45 198 -50 187 -27 256 123 369 40 30 84 67 98 81 25 26 104
175 104 196 0 7 38 11 103 12 89 1 115 6 211 38 140 47 315 138 380 197 28 26
75 57 104 69 57 24 64 40 30 64 -31 22 -50 20 -164 -14 -129 -39 -175 -39
-223 -1 -74 59 -311 162 -403 176 -63 10 -135 -6 -294 -65 -243 -91 -287 -90
-526 7 -139 56 -146 58 -238 58 -88 0 -103 -3 -195 -40 -95 -38 -101 -42 -123
-85 -12 -25 -30 -51 -39 -57 -26 -19 -92 -16 -128 7 -52 32 -60 65 -60 245 1
205 16 287 104 558 51 158 76 252 95 367 14 85 24 155 22 157 -7 8 -70 -135
-110 -253 -24 -71 -71 -188 -104 -259 -68 -150 -106 -261 -123 -359 -23 -135
13 -356 65 -397 57 -45 21 -119 -59 -119 -39 0 -52 6 -89 40 -101 93 -214 86
-173 -12 23 -54 69 -89 164 -124 48 -17 134 -53 190 -79 140 -64 188 -68 282
-25 66 31 76 32 143 27 111 -9 149 -50 166 -174 7 -50 16 -71 47 -109 45 -54
150 -125 238 -161 155 -62 162 -78 162 -358 l0 -200 -33 -67 c-35 -72 -88
-125 -162 -163 -103 -52 -740 -328 -824 -356 -82 -28 -198 -27 -291 2 -150 46
-309 148 -391 250 -247 309 -374 617 -374 902 0 317 107 716 442 1647 298 827
319 895 286 928 -14 14 -16 14 -43 2z m2179 -1853 c33 -18 68 -44 79 -59 19
-26 19 -28 3 -53 -20 -30 -88 -63 -197 -96 -96 -28 -157 -87 -218 -211 -34
-71 -56 -100 -117 -157 -45 -42 -102 -84 -142 -103 -57 -28 -77 -33 -142 -33
-104 0 -170 33 -271 135 -63 63 -81 89 -100 141 -20 55 -37 78 -119 160 -102
102 -92 97 -252 139 -86 23 -112 81 -55 124 26 19 41 21 175 20 164 -1 231
-11 362 -55 160 -52 231 -50 495 17 179 46 271 62 365 63 66 0 82 -3 134 -32z
m-1134 -1935 c25 -11 64 -15 134 -14 104 2 394 -34 551 -68 119 -26 214 -25
365 5 150 30 255 31 401 6 121 -21 146 -34 189 -100 48 -76 64 -141 64 -266
-2 -306 -146 -504 -423 -577 -110 -29 -308 -34 -491 -14 -213 24 -419 31 -525
17 -49 -7 -171 -28 -270 -48 -233 -46 -388 -51 -505 -14 -250 78 -436 258
-496 481 -24 90 -24 277 1 388 22 99 13 93 223 146 307 77 676 104 782 58z"/>
<path d="M5635 6410 c-4 -6 12 -61 35 -121 97 -261 135 -485 166 -992 7 -119
28 -152 70 -110 15 15 16 32 10 148 -14 277 -62 584 -124 785 -41 130 -91 261
-110 283 -17 19 -38 22 -47 7z"/>
<path d="M3019 4911 c-16 -16 -29 -36 -29 -44 0 -8 37 -53 83 -99 70 -72 98
-92 192 -140 110 -56 198 -83 355 -109 41 -7 102 -25 135 -41 170 -79 330 33
193 135 -21 16 -51 22 -130 28 -60 4 -153 20 -222 38 -65 17 -140 31 -168 31
-55 0 -91 16 -128 55 -14 15 -52 45 -85 68 -33 22 -77 55 -98 74 -46 41 -60
41 -98 4z"/>
<path d="M6442 4704 c-156 -52 -209 -56 -349 -25 -57 13 -128 21 -183 21 -83
0 -93 -2 -115 -25 -31 -30 -31 -49 -1 -80 27 -27 44 -30 271 -44 169 -11 218
-8 389 28 54 12 123 21 152 21 87 0 135 27 149 82 5 19 1 32 -14 47 -17 17
-33 21 -93 21 -60 0 -97 -9 -206 -46z"/>
<path d="M2850 4630 c-27 -27 -27 -60 1 -60 53 0 80 48 39 70 -15 8 -24 6 -40
-10z"/>
<path d="M3094 4425 c-51 -51 -1 -111 68 -82 64 27 74 72 22 95 -38 18 -62 14
-90 -13z"/>
<path d="M5668 4430 c-21 -13 -24 -50 -6 -68 16 -16 100 -15 123 2 35 25 0 59
-75 72 -14 2 -33 -1 -42 -6z"/>
<path d="M6860 4358 c-33 -55 -22 -108 23 -108 34 0 62 101 35 128 -20 20 -37
14 -58 -20z"/>
<path d="M6090 4360 c-37 -37 -19 -100 28 -100 16 0 33 5 40 12 18 18 14 73
-6 91 -24 22 -38 21 -62 -3z"/>
<path d="M6428 4360 c-22 -18 -22 -20 -8 -47 19 -34 53 -40 104 -19 24 10 36
21 36 35 0 40 -95 62 -132 31z"/>
<path d="M3532 4310 c-45 -19 -36 -67 18 -95 36 -19 45 -19 64 1 22 21 20 60
-4 84 -22 22 -42 24 -78 10z"/>
<path d="M1275 4240 c-8 -26 10 -58 95 -170 218 -286 425 -485 823 -795 268
-208 311 -230 565 -289 140 -33 157 -28 150 44 -7 68 -59 175 -98 199 -18 10
-87 38 -153 62 -251 88 -566 268 -807 462 -142 114 -347 304 -449 415 -84 92
-114 109 -126 72z"/>
<path d="M2966 4218 c-41 -58 4 -120 62 -87 15 8 31 27 37 43 8 24 6 31 -14
47 -31 25 -66 24 -85 -3z"/>
<path d="M5464 4209 c-21 -23 -14 -41 27 -71 36 -27 59 -15 59 31 0 20 -5 42
-12 49 -18 18 -53 14 -74 -9z"/>
<path d="M4043 4209 c-24 -24 16 -79 57 -79 32 0 50 17 50 47 0 36 -80 59
-107 32z"/>
<path d="M6030 4110 c-11 -11 -20 -24 -20 -30 0 -16 48 -42 72 -38 33 4 37 51
6 72 -29 20 -34 20 -58 -4z"/>
<path d="M990 4111 c0 -28 32 -222 46 -276 36 -142 95 -299 219 -580 73 -165
149 -347 170 -405 20 -58 44 -114 54 -125 34 -37 41 -63 41 -152 0 -185 67
-488 148 -674 20 -46 58 -110 206 -348 82 -133 238 -309 305 -346 49 -27 240
-28 354 -2 118 28 118 29 -131 276 -114 113 -231 238 -260 276 -29 39 -92 149
-141 246 -122 242 -170 394 -186 584 -3 44 -13 103 -21 132 -19 68 -102 191
-264 388 -158 193 -238 308 -250 361 -5 21 -10 70 -10 107 0 74 -14 118 -56
172 -21 28 -28 53 -38 134 -13 106 -43 174 -96 212 -31 23 -90 36 -90 20z"/>
<path d="M5756 4103 c-3 -3 -6 -23 -6 -43 0 -63 57 -92 95 -50 18 20 18 21 -3
43 -27 29 -77 58 -86 50z"/>
<path d="M6555 4070 c-9 -10 -15 -26 -11 -35 7 -20 55 -38 84 -30 31 8 38 30
18 60 -20 31 -65 33 -91 5z"/>
<path d="M3353 4048 c-11 -13 -30 -39 -43 -58 -13 -19 -43 -56 -67 -81 -46
-48 -49 -72 -11 -85 29 -9 57 1 125 45 89 57 120 134 73 181 -26 26 -52 25
-77 -2z"/>
<path d="M4413 4001 c-43 -27 -51 -56 -22 -87 29 -30 83 -33 99 -5 14 28 12
63 -6 89 -19 27 -30 27 -71 3z"/>
<path d="M5221 3994 c-35 -29 -39 -54 -13 -76 21 -20 59 -31 65 -21 2 4 8 34
11 66 7 53 6 57 -13 57 -10 0 -33 -12 -50 -26z"/>
<path d="M3952 3989 c-18 -7 -23 -15 -20 -36 7 -59 128 -86 128 -30 0 45 -64
84 -108 66z"/>
<path d="M8398 3900 c-69 -21 -233 -153 -299 -240 -71 -94 -119 -198 -200
-435 -105 -308 -175 -434 -296 -530 -113 -89 -203 -131 -499 -230 -267 -90
-443 -184 -697 -374 -127 -95 -326 -270 -416 -367 -113 -121 -114 -125 -121
-409 -6 -226 -8 -245 -33 -318 -34 -99 -35 -140 -2 -173 23 -23 26 -24 53 -10
49 25 117 127 282 420 51 90 159 214 349 399 289 281 344 322 686 518 303 173
409 246 543 373 106 101 167 182 181 241 22 92 73 239 126 365 125 293 196
427 299 562 33 45 73 97 88 117 31 40 36 86 12 95 -18 7 -20 7 -56 -4z"/>
<path d="M5540 3872 c0 -49 85 -131 253 -244 100 -67 149 -91 171 -82 42 16 2
60 -175 196 -67 51 -139 105 -162 121 -48 32 -87 36 -87 9z"/>
<path d="M6134 3807 c-35 -30 -27 -57 16 -57 22 0 30 5 30 18 0 9 3 27 6 40 8
30 -16 29 -52 -1z"/>
<path d="M3550 3787 c-33 -16 -36 -37 -10 -70 26 -33 54 -35 74 -5 24 34 20
67 -10 78 -30 12 -24 12 -54 -3z"/>
<path d="M6597 3769 c-9 -5 -24 -23 -32 -38 -13 -26 -13 -30 4 -45 18 -16 66
-21 95 -10 22 9 20 46 -5 78 -22 28 -34 31 -62 15z"/>
<path d="M10157 3702 c-30 -52 -70 -102 -121 -149 -67 -63 -87 -75 -158 -99
-90 -30 -77 -20 -328 -254 -260 -243 -510 -456 -630 -537 -25 -17 -118 -67
-206 -112 -89 -44 -206 -113 -260 -153 -55 -39 -169 -117 -254 -174 -85 -56
-209 -149 -275 -206 -306 -264 -794 -798 -875 -958 -25 -49 -73 -115 -139
-190 -120 -136 -204 -287 -223 -401 -29 -171 59 -286 163 -216 33 22 56 51
184 227 37 51 100 119 163 174 106 93 177 174 423 481 352 441 545 628 1088
1055 683 538 868 696 1182 1009 219 219 288 304 335 405 39 86 34 176 -11 176
-7 0 -33 -35 -58 -78z"/>
<path d="M4113 3730 c-25 -10 -30 -39 -11 -58 19 -19 56 -14 73 11 15 21 14
23 -6 40 -24 19 -25 19 -56 7z"/>
<path d="M6250 3562 c0 -30 26 -62 51 -62 20 0 59 37 59 55 0 18 -6 21 -62 29
-48 7 -48 7 -48 -22z"/>
<path d="M2490 2479 c-1 -252 117 -533 340 -814 35 -44 240 -258 455 -475 216
-217 427 -439 470 -494 90 -113 136 -143 209 -132 92 14 151 80 192 215 142
467 502 732 1074 789 l74 7 -59 48 c-81 65 -223 134 -315 153 -91 19 -253 14
-350 -11 -99 -26 -236 -97 -320 -168 -151 -127 -264 -286 -417 -585 -2 -6
-118 74 -227 157 -451 339 -802 749 -1042 1214 l-84 162 0 -66z"/>
<path d="M4770 997 c-44 -15 -52 -48 -18 -84 33 -35 82 -58 167 -77 180 -40
432 -219 621 -440 102 -120 206 -211 301 -262 52 -28 127 -70 167 -94 62 -37
77 -42 100 -34 35 12 46 55 37 138 -8 75 -23 101 -133 230 -113 131 -313 295
-442 361 -25 12 -106 44 -180 70 -74 25 -188 71 -252 102 -103 48 -274 103
-318 102 -8 0 -31 -5 -50 -12z"/>
</g>
</svg>
