<?xml version="1.0" standalone="no"?>
<!DOCTYPE svg PUBLIC "-//W3C//DTD SVG 20010904//EN"
 "http://www.w3.org/TR/2001/REC-SVG-20010904/DTD/svg10.dtd">
<svg version="1.0" xmlns="http://www.w3.org/2000/svg"
 width="1151.000000pt" height="1280.000000pt" viewBox="0 0 1151.000000 1280.000000"
 preserveAspectRatio="xMidYMid meet">
<g transform="translate(0.000000,1280.000000) scale(0.100000,-0.100000)"
fill="#000000" stroke="none">
<path d="M2660 12793 c-192 -32 -432 -202 -516 -365 -42 -81 -28 -133 61 -228
18 -19 46 -54 63 -77 l30 -43 17 28 c43 66 132 165 195 217 209 171 429 226
609 152 35 -15 66 -26 67 -24 7 6 -24 104 -45 145 -48 94 -156 170 -270 192
-53 10 -161 11 -211 3z"/>
<path d="M3055 12070 c-199 -21 -216 -29 -352 -166 -56 -56 -123 -117 -149
-134 -68 -47 -85 -100 -104 -315 -5 -61 -16 -132 -24 -158 l-14 -47 26 20 c87
68 114 85 174 116 131 66 271 117 456 165 98 25 300 36 361 19 53 -14 109 -66
117 -109 4 -17 13 -31 20 -31 17 0 18 89 4 230 -31 293 -111 400 -315 423 -22
2 -112 -4 -200 -13z"/>
<path d="M7644 12071 c-62 -28 -108 -75 -139 -140 l-28 -58 -44 33 c-111 84
-333 140 -603 150 -198 8 -297 -12 -453 -92 -62 -31 -141 -77 -177 -102 -98
-70 -231 -202 -345 -345 -89 -111 -118 -157 -203 -325 -113 -221 -155 -333
-178 -466 -9 -50 -18 -94 -21 -98 -2 -5 -2 -8 1 -8 3 0 20 28 37 63 140 279
466 618 754 784 199 115 253 134 435 153 58 5 142 19 188 30 46 11 113 20 150
20 86 0 312 -44 369 -71 63 -30 154 -142 177 -217 7 -22 7 -22 -31 4 -73 50
-189 95 -348 135 -104 27 -366 37 -469 19 -101 -18 -235 -63 -325 -110 -220
-115 -386 -290 -648 -685 -245 -370 -362 -653 -363 -882 0 -56 26 -60 36 -5
16 87 65 168 178 296 132 147 196 227 218 269 12 25 112 133 247 267 266 265
296 286 443 301 51 5 142 21 203 35 294 68 383 69 520 9 36 -16 96 -30 176
-40 142 -17 188 -35 281 -111 83 -69 168 -168 168 -198 0 -3 -33 12 -72 34
-146 78 -318 113 -543 113 -264 0 -456 -49 -615 -156 -125 -85 -238 -207 -315
-343 -51 -89 -67 -139 -89 -279 -33 -201 -59 -272 -117 -318 -53 -42 -27 -48
68 -15 135 46 201 81 289 155 95 80 121 110 193 221 29 45 56 82 60 82 3 0 28
18 54 39 26 22 86 60 134 86 49 26 100 58 115 70 78 65 435 53 585 -20 28 -14
90 -62 137 -105 79 -73 84 -80 58 -80 -15 -1 -106 0 -202 0 -181 1 -326 -15
-418 -47 -69 -23 -277 -129 -352 -178 -36 -24 -93 -72 -127 -107 -81 -85 -89
-121 -77 -346 8 -153 6 -189 -12 -161 -12 20 -137 95 -194 117 -392 149 -477
175 -615 188 -38 3 -117 15 -175 26 -59 11 -171 22 -255 25 l-151 6 -86 -38
c-83 -35 -87 -38 -108 -87 -34 -80 -30 -168 15 -307 66 -202 178 -450 237
-528 70 -91 188 -202 243 -230 52 -27 94 -60 199 -154 42 -38 97 -73 167 -106
57 -28 118 -62 135 -76 l31 -27 61 74 c33 40 63 82 66 94 8 25 -12 67 -46 99
-32 30 -139 78 -240 107 -99 28 -132 46 -258 140 -241 180 -349 323 -415 552
-18 63 -25 110 -25 174 0 124 0 125 159 116 199 -10 338 -46 520 -132 181 -85
321 -196 370 -292 21 -42 29 -136 13 -146 -5 -3 -25 15 -45 39 -80 95 -293
230 -452 286 -35 12 -96 23 -145 26 -73 4 -89 2 -117 -16 -51 -32 -66 -72 -61
-161 5 -88 35 -152 88 -190 42 -30 256 -110 294 -110 16 0 79 5 138 12 127 14
127 14 144 -70 7 -31 36 -105 64 -164 61 -125 40 -132 170 57 146 211 179 253
243 299 34 24 80 63 102 86 49 51 113 97 148 106 37 9 33 25 -11 51 -22 12
-71 48 -111 79 l-72 57 76 73 c95 89 146 117 355 189 183 63 328 99 468 116
114 14 175 1 322 -68 82 -38 108 -57 190 -137 102 -100 159 -136 214 -136 37
0 45 8 85 80 9 16 43 69 76 119 33 50 85 134 115 187 89 156 189 229 388 281
119 31 327 42 437 23 92 -16 202 -59 295 -114 41 -25 76 -44 77 -43 1 2 -4 34
-12 72 -29 135 -109 271 -223 377 -118 109 -225 139 -497 142 -111 0 -191 -4
-230 -12 -89 -20 -196 -75 -239 -122 -43 -47 -44 -41 -20 78 22 112 82 229
153 302 101 103 223 142 373 120 154 -22 297 -89 426 -197 34 -30 62 -52 62
-49 0 2 -12 30 -27 62 -125 277 -379 454 -673 470 -83 5 -106 2 -185 -21 -235
-69 -427 -201 -490 -336 l-23 -51 -6 39 c-7 44 13 132 45 196 117 230 195 304
377 357 151 43 291 64 371 56 36 -4 73 -7 81 -7 72 -3 140 -54 140 -105 0 -16
6 -24 16 -24 14 0 16 8 11 54 -9 85 -42 149 -111 214 -91 84 -189 128 -352
156 -342 60 -707 -61 -805 -267 l-27 -58 -7 67 c-9 82 -1 195 16 226 7 13 16
43 19 68 5 40 10 47 64 85 l60 40 135 -1 c137 -2 177 -8 433 -62 75 -17 139
-27 142 -24 14 13 3 21 -46 38 -29 9 -114 46 -188 82 -401 191 -553 242 -718
242 -63 0 -98 -6 -128 -19z m-2064 -1111 c-37 -78 -52 -90 -19 -14 11 27 25
60 30 73 5 13 12 21 15 18 4 -3 -9 -38 -26 -77z"/>
<path d="M2280 10896 c-129 -29 -233 -113 -415 -336 -56 -69 -109 -131 -119
-139 -9 -8 -26 -26 -36 -41 l-20 -28 73 28 c197 77 502 53 717 -55 85 -43 163
-102 211 -160 34 -41 39 -54 39 -96 0 -27 4 -49 8 -49 5 0 88 80 183 178 138
140 182 191 207 241 48 96 46 102 -61 207 -139 138 -254 205 -412 240 -94 21
-304 27 -375 10z"/>
<path d="M5155 10548 c-62 -32 -192 -171 -275 -293 -40 -60 -90 -131 -110
-156 -116 -148 -287 -534 -338 -764 -43 -193 -47 -223 -47 -375 0 -183 14
-248 125 -585 38 -115 78 -246 90 -290 26 -95 43 -130 80 -170 33 -35 55 -88
69 -167 6 -32 17 -68 25 -80 17 -26 70 -222 86 -319 11 -63 11 -67 -14 -104
-91 -134 -140 -523 -102 -810 26 -196 67 -337 150 -511 178 -371 472 -641 820
-753 37 -12 70 -20 72 -19 9 10 -183 277 -264 368 -127 143 -174 217 -306 485
-142 286 -159 327 -198 473 -29 107 -32 130 -32 272 0 177 4 196 94 485 76
244 94 334 88 443 -4 83 -6 88 -91 256 -58 116 -88 187 -92 221 -10 74 -47
178 -121 336 -84 181 -96 241 -98 494 -1 239 8 289 119 620 46 138 100 315
120 394 20 79 47 171 61 203 14 33 43 109 64 170 22 61 51 126 65 145 15 18
23 38 20 43 -8 13 -14 12 -60 -12z m-197 -2378 c0 -9 -3 -7 -8 5 -5 11 -8 29
-8 40 0 16 2 15 8 -5 4 -14 8 -32 8 -40z"/>
<path d="M10800 10273 c-87 -10 -261 -44 -320 -63 -36 -12 -87 -36 -115 -54
-155 -101 -302 -176 -347 -176 -15 0 -209 -117 -298 -179 -110 -76 -280 -219
-280 -234 0 -3 47 -30 105 -61 126 -66 326 -191 410 -254 172 -131 385 -378
385 -448 1 -46 15 -48 76 -9 218 137 467 506 554 820 14 53 40 347 39 460 0
50 -6 115 -13 145 l-12 55 -75 1 c-41 1 -90 -1 -109 -3z m-90 -280 c62 -42 89
-105 90 -204 0 -64 -6 -90 -40 -178 -89 -228 -224 -425 -307 -446 -57 -14
-107 60 -108 160 0 115 40 157 189 195 95 24 139 50 174 102 50 77 28 196 -47
245 -70 47 -182 18 -273 -70 -23 -23 -94 -97 -155 -164 -116 -125 -181 -171
-223 -158 -23 7 -35 44 -26 79 16 66 155 233 259 313 137 106 395 175 467 126z
m106 -69 c8 -18 14 -48 13 -66 -1 -30 -2 -29 -10 11 -5 24 -15 54 -24 67 -18
27 -19 38 -4 28 6 -3 17 -21 25 -40z"/>
<path d="M1383 9955 c-69 -22 -108 -55 -312 -267 -141 -147 -205 -221 -228
-265 -18 -33 -33 -64 -33 -68 0 -10 50 1 109 24 90 36 189 53 321 55 210 2
294 -25 460 -149 187 -140 216 -149 292 -90 25 19 81 78 124 132 42 54 97 122
121 152 24 29 43 56 43 60 0 4 -14 20 -31 37 -17 16 -60 68 -95 115 -82 111
-125 149 -225 199 -123 63 -206 80 -368 79 -82 -1 -153 -6 -178 -14z"/>
<path d="M8915 9575 c-227 -18 -258 -29 -394 -142 -46 -37 -116 -133 -156
-213 -39 -78 -98 -258 -116 -355 l-13 -70 -17 90 c-10 50 -37 169 -61 265
l-42 176 -57 27 c-291 140 -609 146 -742 13 -17 -18 -44 -51 -59 -74 -31 -47
-62 -65 -233 -133 -127 -51 -117 -44 -238 -183 -27 -30 -101 -95 -165 -143
-64 -48 -151 -121 -192 -161 -80 -78 -79 -79 15 -21 33 20 114 56 180 79 65
23 158 62 207 86 90 46 160 74 185 74 8 0 -15 -35 -51 -80 -36 -44 -73 -94
-82 -112 -24 -47 -54 -162 -54 -210 0 -53 37 -133 79 -173 30 -28 38 -30 117
-32 47 -1 84 2 82 5 -56 105 -75 194 -58 270 14 62 56 116 103 130 34 11 127
24 127 18 0 -2 -22 -45 -49 -97 -103 -194 -125 -383 -61 -510 45 -87 154 -151
261 -153 56 -1 72 3 107 27 23 15 48 27 57 27 8 0 69 -51 134 -114 65 -63 128
-119 139 -125 19 -10 19 -13 5 -58 -10 -34 -17 -125 -23 -305 -4 -141 -11
-261 -14 -267 -11 -17 1 -13 42 13 102 64 212 80 515 74 130 -3 237 -3 237 -2
0 2 -11 29 -25 60 -56 126 -81 251 -90 449 -6 130 -6 130 24 190 17 33 43 75
58 94 l29 33 47 -21 c53 -24 62 -22 132 34 22 17 69 49 104 70 181 108 294
269 277 393 -14 105 -91 214 -187 266 -44 25 -59 28 -115 24 -35 -2 -64 -1
-64 3 0 23 57 70 101 83 43 13 55 13 102 -1 127 -37 345 -179 368 -240 15 -41
10 -121 -10 -161 -30 -59 -97 -128 -161 -167 -33 -20 -60 -38 -60 -40 0 -2 60
-4 133 -4 273 -3 383 31 527 163 25 23 59 48 77 55 29 12 36 11 65 -6 20 -11
43 -38 58 -68 23 -47 25 -59 24 -200 -1 -215 -49 -439 -107 -504 -34 -36 -61
-43 -217 -51 -350 -20 -585 -82 -687 -182 -24 -23 -48 -57 -54 -76 -11 -33
-11 -33 -26 -13 -7 12 -59 53 -114 92 -55 39 -116 91 -136 115 -20 25 -38 43
-40 41 -2 -2 40 -109 92 -237 93 -226 145 -384 145 -445 1 -88 34 -103 43 -19
11 106 79 204 194 281 89 60 143 70 623 114 223 20 358 63 434 136 47 46 66
81 85 160 l16 62 24 -35 c16 -23 26 -54 29 -89 11 -135 -138 -310 -349 -409
-147 -70 -263 -88 -559 -90 -201 -1 -230 -3 -272 -21 -27 -11 -48 -22 -48 -25
0 -3 19 -13 43 -22 23 -10 78 -43 122 -75 168 -118 269 -138 570 -112 223 19
364 72 502 188 311 261 369 673 174 1241 l-29 85 -20 -47 c-27 -61 -57 -165
-72 -250 l-12 -68 -48 80 c-26 43 -62 97 -80 120 l-32 41 21 65 c36 111 23
263 -37 418 -54 137 -99 200 -259 356 -174 171 -248 234 -362 308 -46 29 -116
80 -157 112 -102 81 -158 100 -331 114 -27 2 -116 -2 -198 -9z m-133 -1171 c5
-8 -24 -23 -88 -45 -162 -56 -164 -57 -285 -280 -59 -107 -117 -222 -130 -256
l-23 -62 -27 73 c-47 130 -130 242 -249 338 -108 88 -177 118 -267 118 l-73 0
0 40 c0 45 -30 133 -56 161 -16 18 -16 19 12 19 51 0 176 -39 269 -85 227
-111 365 -244 365 -352 0 -67 16 -69 29 -4 20 103 82 210 179 312 97 103 110
110 236 148 l91 26 5 -70 c3 -38 8 -75 12 -81z"/>
<path d="M813 9035 c-307 -41 -441 -120 -592 -344 -100 -151 -199 -373 -217
-491 l-7 -45 51 47 c87 81 228 161 377 214 72 26 93 29 205 29 140 -1 214 -16
316 -66 76 -38 170 -120 214 -189 18 -27 36 -50 40 -50 4 0 13 14 19 30 5 17
58 102 115 189 153 229 180 300 150 400 -11 37 -31 69 -76 116 -130 139 -336
195 -595 160z"/>
<path d="M10592 8720 c-42 -26 -77 -99 -68 -144 12 -56 54 -105 140 -160 135
-88 271 -234 361 -390 16 -28 23 -46 15 -41 -8 5 -33 20 -55 34 -68 45 -117
63 -182 69 -35 2 -63 3 -63 0 0 -3 27 -22 59 -42 131 -81 239 -251 346 -547
l24 -67 -87 54 c-99 63 -198 97 -266 92 l-47 -3 64 -42 c78 -51 152 -130 191
-204 16 -30 39 -65 52 -79 42 -46 77 -138 82 -217 3 -40 1 -73 -4 -73 -5 0
-35 40 -66 88 -71 107 -145 192 -206 234 -48 33 -47 27 4 -37 75 -95 117 -229
117 -380 0 -55 -3 -111 -7 -124 -8 -22 -9 -22 -26 15 -10 22 -34 55 -54 73
l-36 35 0 -92 c0 -240 -49 -465 -121 -552 l-21 -25 7 30 c17 73 24 171 24 315
l1 155 -35 -65 c-44 -80 -121 -160 -245 -253 -52 -39 -124 -94 -160 -122 -36
-29 -73 -55 -83 -58 -9 -4 -16 -11 -15 -16 2 -6 -31 -35 -72 -65 -73 -54 -75
-55 -78 -31 -3 25 -4 25 -116 25 -100 0 -204 11 -361 39 -338 59 -582 90 -605
76 -9 -6 -393 -55 -420 -54 -8 0 -1 6 15 13 17 8 75 16 130 20 56 3 124 13
152 21 69 21 171 90 207 142 43 62 39 99 -26 239 -32 69 -61 149 -69 189 l-14
70 -7 -40 c-4 -22 -7 -63 -7 -91 -1 -67 -35 -131 -83 -156 -63 -33 -120 -33
-271 1 -76 17 -163 31 -193 31 -68 0 -220 -48 -431 -136 -172 -72 -231 -81
-312 -44 -24 11 -47 20 -51 20 -14 0 -50 -98 -50 -135 0 -71 75 -114 226 -131
38 -4 65 -8 59 -10 -5 -1 -73 -17 -150 -34 -77 -18 -227 -54 -333 -81 -107
-27 -239 -58 -295 -70 -56 -11 -103 -22 -105 -24 -2 -1 0 -19 3 -39 7 -35 8
-35 49 -30 139 19 396 49 396 48 0 -5 -298 -214 -305 -214 -14 0 -105 83 -129
119 -29 41 -35 109 -13 148 23 41 80 95 172 164 123 90 232 201 331 334 75 99
82 114 103 198 13 51 30 114 38 140 23 73 4 78 -42 10 -21 -32 -195 -213 -386
-403 -328 -327 -348 -349 -385 -423 -32 -67 -38 -90 -41 -160 -3 -51 1 -102
10 -134 16 -61 19 -60 -75 -38 -241 56 -506 182 -735 351 -12 9 -27 13 -32 9
-18 -11 177 -233 228 -259 52 -27 178 -153 228 -229 42 -64 96 -177 88 -185
-8 -9 -248 151 -370 247 -204 161 -478 427 -684 664 -51 59 -95 107 -96 107
-6 0 8 -88 26 -168 57 -249 237 -480 669 -859 192 -168 255 -217 430 -333 85
-56 175 -116 200 -133 25 -17 88 -61 140 -97 113 -77 222 -161 216 -167 -2 -3
-25 3 -51 11 -104 36 -292 69 -790 141 -298 43 -465 86 -546 140 -44 29 -71
25 -42 -7 31 -34 135 -86 299 -149 87 -33 179 -73 204 -89 25 -16 90 -45 145
-65 55 -20 147 -57 205 -82 371 -163 558 -230 685 -248 154 -21 272 -81 311
-157 9 -16 40 -114 69 -216 48 -165 78 -259 100 -313 16 -42 -133 7 -665 218
-229 91 -286 122 -394 213 -82 69 -185 140 -202 140 -4 0 8 -16 25 -35 44 -50
57 -81 69 -157 16 -100 69 -206 129 -256 35 -30 54 -56 67 -92 12 -33 31 -61
53 -78 19 -15 69 -56 111 -90 152 -126 186 -142 404 -188 68 -14 155 -39 193
-55 39 -15 95 -35 125 -43 100 -26 127 -43 144 -91 4 -11 12 -96 17 -190 5
-93 13 -227 18 -297 6 -77 6 -155 0 -200 -21 -164 -28 -297 -21 -363 l7 -70
18 69 c22 83 59 158 146 296 94 147 115 186 142 260 23 65 46 109 111 210 92
144 193 373 218 496 22 113 71 212 151 307 56 66 139 187 322 471 99 154 172
241 357 427 238 239 358 324 617 439 29 13 103 63 165 112 182 143 323 249
473 353 155 109 321 237 465 360 52 44 125 104 161 132 91 72 136 123 199 228
87 145 143 275 231 533 86 253 78 448 -35 930 -55 232 -91 343 -155 478 -80
168 -144 252 -414 548 -112 122 -181 151 -255 106z m836 -1305 c0 -16 -2 -15
-8 5 -4 14 -8 36 -8 50 0 22 1 22 8 -5 4 -16 8 -39 8 -50z m-3378 -1277 l55
-25 -35 -6 c-34 -6 -151 -21 -275 -33 l-60 -7 70 52 c69 52 71 52 130 48 33
-3 85 -16 115 -29z m1289 -23 c47 -8 87 -17 89 -20 3 -3 -53 -5 -125 -5 -249
0 -702 -13 -698 -20 3 -4 26 -11 52 -14 27 -4 68 -11 93 -16 25 -5 97 -18 160
-30 201 -37 518 -116 507 -126 -2 -2 -30 1 -63 6 -211 35 -508 79 -511 76 -2
-2 -6 -19 -9 -37 -6 -34 -5 -34 60 -63 80 -34 99 -55 24 -25 -29 12 -109 43
-178 69 -69 26 -159 61 -200 77 -41 17 -84 33 -95 37 -17 6 -14 10 21 31 34
20 79 29 270 54 256 34 444 36 603 6z m-1069 -79 l45 -13 3 -178 2 -178 -32
25 c-174 130 -298 198 -360 198 -54 0 -130 -20 -203 -54 l-56 -25 20 27 c11
15 47 56 79 92 l59 65 199 26 c110 15 199 27 199 28 0 0 20 -5 45 -13z m1712
-54 c-26 -27 -60 -63 -77 -82 -16 -18 -50 -45 -74 -61 l-43 -28 -47 23 c-105
53 -349 148 -436 169 -11 2 0 6 25 7 87 5 447 16 572 18 l128 2 -48 -48z
m-1307 -133 c401 -155 570 -221 595 -234 24 -13 24 -13 -20 -25 -75 -21 -192
-39 -246 -40 -38 0 -77 11 -148 40 -84 35 -106 40 -174 40 -43 0 -103 -4 -133
-9 -30 -5 -75 -11 -101 -14 l-48 -5 0 179 0 179 33 -15 c17 -8 127 -51 242
-96z m-1041 49 c-11 -13 -69 -79 -129 -148 -60 -69 -118 -136 -131 -149 l-22
-24 -64 38 c-112 68 -110 56 -16 118 106 69 241 142 310 167 69 25 76 25 52
-2z m1628 -73 c165 -26 324 -51 388 -61 l35 -6 -38 -20 c-36 -18 -256 -108
-265 -108 -2 0 -2 6 1 14 4 9 -12 20 -51 35 -65 25 -274 170 -245 171 6 0 85
-11 175 -25z m-1301 -26 c19 -7 97 -53 173 -103 l140 -91 -40 -7 c-21 -4 -69
-7 -105 -7 -90 -1 -210 -23 -354 -66 -134 -39 -219 -45 -285 -19 -22 9 -40 19
-40 23 1 9 142 119 218 171 55 37 216 108 248 110 6 0 26 -5 45 -11z m672
-431 c69 0 87 -3 87 -14 0 -8 22 -72 49 -142 27 -70 52 -144 56 -164 9 -49 21
-41 30 19 4 27 20 83 36 125 17 42 33 93 36 113 3 19 8 35 12 35 7 -1 58 -69
86 -116 l20 -34 -24 -45 c-31 -59 -146 -177 -190 -195 -67 -27 -89 22 -90 199
-1 63 -4 111 -7 108 -4 -3 -15 -55 -24 -114 -30 -177 -51 -237 -103 -291 -47
-48 -105 -61 -289 -64 -146 -3 -159 -2 -177 17 -25 26 -94 184 -129 292 l-27
87 -5 -177 -5 -177 -85 57 c-109 72 -194 157 -225 225 -14 29 -25 59 -25 66 0
17 80 132 91 132 5 0 20 -21 33 -47 33 -65 81 -130 144 -197 29 -31 55 -56 57
-56 2 0 -7 30 -20 67 -35 100 -41 181 -19 243 l18 51 51 -6 c89 -12 197 -11
275 2 44 7 116 9 175 6 55 -3 139 -5 188 -5z m-213 -878 c140 -6 259 -12 263
-13 5 -2 -69 -77 -165 -167 -95 -90 -206 -201 -247 -245 -71 -77 -170 -215
-172 -239 -2 -30 -18 35 -18 76 -1 74 -47 321 -86 462 -19 70 -35 133 -35 138
0 7 34 9 103 5 56 -4 217 -11 357 -17z m-1359 -165 l44 -14 -40 6 c-22 3 -58
12 -80 19 l-40 14 36 -5 c19 -3 55 -12 80 -20z m1628 -347 c-22 -42 -210 -317
-221 -324 -13 -8 -13 -9 50 91 52 82 173 255 179 255 2 0 -2 -10 -8 -22z
m-515 -972 c-31 -64 -59 -115 -62 -112 -2 3 21 57 53 121 32 64 59 114 62 112
2 -2 -22 -57 -53 -121z"/>
<path d="M6499 8513 c-40 -37 -89 -118 -89 -149 0 -11 -5 -14 -17 -9 -43 16
-76 16 -118 0 -25 -9 -45 -21 -45 -25 0 -5 -17 -29 -39 -54 -51 -59 -104 -147
-133 -221 -19 -49 -23 -79 -23 -160 0 -111 7 -129 108 -301 43 -72 50 -94 71
-210 25 -137 76 -280 132 -369 70 -114 207 -197 332 -204 67 -3 79 0 137 29
35 18 105 69 155 114 51 44 120 102 153 128 116 89 227 90 342 3 34 -27 34
-28 37 -113 l3 -87 18 52 c10 29 43 86 73 127 84 115 97 152 102 281 7 174
-29 441 -71 525 -17 35 -27 45 -47 45 -20 0 -31 -10 -51 -48 -22 -41 -28 -46
-38 -33 -21 25 -116 68 -184 82 -92 20 -221 17 -312 -6 -91 -23 -128 -24 -170
-5 l-30 13 45 1 c25 1 91 12 148 26 57 14 128 25 158 25 30 0 54 4 54 9 0 5
-21 27 -46 49 -50 45 -106 62 -204 62 -32 0 -66 3 -75 6 -23 9 -51 69 -65 139
-30 152 -51 207 -99 258 -37 41 -73 57 -125 57 -39 0 -52 -6 -87 -37z m-19
-435 c57 -24 96 -62 110 -104 13 -39 8 -52 -27 -65 -39 -15 -87 6 -133 58 -22
25 -40 49 -40 53 0 4 -7 24 -16 45 l-15 37 -40 -57 c-77 -110 -97 -182 -68
-238 21 -38 198 -245 232 -270 48 -37 101 -62 94 -46 -18 40 -76 187 -82 207
-6 21 -4 22 59 22 l64 0 13 -37 c35 -108 126 -199 265 -264 161 -76 325 -90
434 -37 64 30 123 48 164 48 l29 0 -6 -127 c-4 -71 -10 -145 -13 -166 l-7 -38
-22 56 c-28 69 -37 80 -94 113 -44 26 -51 27 -196 27 -143 0 -153 -1 -210 -28
-33 -15 -73 -41 -90 -56 -76 -71 -206 -67 -287 9 -26 25 -59 81 -107 181 -55
115 -79 155 -123 199 -67 68 -99 111 -131 175 -25 49 -25 51 -13 152 13 114
24 133 91 164 46 22 94 18 165 -13z m495 -414 c112 -90 162 -96 281 -34 76 39
124 45 124 15 0 -19 -104 -116 -158 -147 -27 -16 -62 -28 -82 -28 -43 0 -122
44 -172 97 -38 40 -88 125 -88 151 0 17 26 2 95 -54z m95 -401 c-8 -3 -44 -17
-80 -30 -36 -13 -60 -19 -53 -12 13 13 111 49 133 48 13 -1 13 -1 0 -6z"/>
<path d="M4015 8298 l-26 -23 47 -55 c148 -172 262 -412 316 -664 17 -82 22
-135 22 -286 0 -172 -2 -193 -28 -290 -15 -58 -30 -114 -33 -126 -4 -16 2 -22
32 -31 27 -9 37 -9 40 0 57 174 79 330 72 502 -15 352 -146 695 -361 947 -23
27 -44 48 -48 48 -4 0 -19 -10 -33 -22z"/>
<path d="M5307 8281 c-79 -70 -84 -164 -20 -364 41 -129 51 -234 34 -354 -6
-43 -13 -114 -17 -158 l-7 -80 37 47 c23 30 77 73 148 121 62 40 130 93 151
116 l37 41 -1 90 c-1 106 10 130 88 189 53 40 119 69 218 97 l59 17 -69 27
c-39 15 -137 64 -220 109 -189 102 -243 123 -331 129 -68 4 -72 3 -107 -27z
m288 -196 c61 -24 108 -44 105 -45 -6 0 -188 -64 -212 -75 -16 -6 -18 1 -18
79 0 47 4 86 8 86 4 0 57 -20 117 -45z"/>
<path d="M9776 8221 l-69 -36 -266 0 c-298 0 -284 3 -418 -81 -85 -53 -148
-120 -186 -197 -29 -59 -80 -236 -69 -238 4 0 30 0 57 1 28 0 118 -8 200 -20
225 -30 296 -25 405 30 90 45 138 107 226 286 66 136 87 169 142 227 36 37 61
67 56 66 -5 -1 -40 -18 -78 -38z m-328 -167 c51 -36 5 -167 -94 -265 -46 -45
-61 -54 -114 -65 -103 -21 -231 6 -285 60 -27 27 -33 72 -15 107 10 17 15 14
68 -40 77 -78 129 -105 199 -99 65 6 116 42 150 109 19 36 23 58 22 119 -1 41
-1 78 0 83 2 13 46 8 69 -9z"/>
<path d="M3574 7882 c-277 -165 -391 -259 -437 -360 -18 -39 -22 -66 -22 -157
0 -130 20 -208 92 -350 126 -249 302 -451 461 -527 56 -27 71 -30 123 -25 76
7 139 42 292 163 65 52 138 105 162 120 l45 26 -33 37 c-17 21 -81 91 -140
156 -144 156 -195 231 -284 412 -67 137 -77 162 -94 265 -25 148 -24 240 1
297 11 24 19 46 17 47 -2 2 -84 -44 -183 -104z"/>
<path d="M564 7876 c-115 -19 -211 -73 -322 -180 -163 -157 -227 -268 -220
-381 3 -52 19 -91 111 -284 107 -224 163 -324 243 -433 l41 -57 6 197 c4 169
8 208 28 272 22 71 29 81 124 177 80 81 115 109 170 135 65 30 77 33 165 32
79 0 110 -6 185 -31 50 -17 92 -29 94 -27 2 2 -4 19 -13 37 -8 19 -34 103 -57
188 -83 314 -140 370 -373 368 -61 -1 -143 -6 -182 -13z"/>
<path d="M5780 7665 c0 -626 141 -968 465 -1128 161 -80 290 -106 530 -108
l167 -1 71 35 c126 63 310 240 388 375 15 24 42 54 60 66 l34 21 -34 3 c-26 3
-39 -2 -50 -17 -41 -53 -427 -200 -582 -221 -224 -31 -400 30 -555 193 -144
151 -201 250 -259 448 -37 126 -66 187 -139 294 -22 33 -53 83 -68 110 l-28
50 0 -120z"/>
<path d="M5590 7436 c-56 -16 -128 -52 -159 -80 -43 -39 -224 -334 -240 -391
-15 -55 -13 -177 4 -257 25 -119 24 -119 113 63 123 253 235 410 341 478 35
23 54 44 65 72 26 65 21 96 -21 118 -26 13 -45 13 -103 -3z"/>
<path d="M2770 7306 c-306 -106 -545 -304 -634 -526 -28 -70 -32 -202 -8 -270
11 -30 47 -133 79 -228 62 -179 89 -226 153 -269 46 -32 85 -29 198 17 55 22
175 58 268 80 176 43 334 87 334 95 0 3 -33 37 -73 77 -84 84 -152 184 -213
313 -57 120 -80 211 -98 385 -21 202 -9 255 73 327 20 18 32 32 26 32 -5 0
-53 -14 -105 -33z"/>
<path d="M10657 7223 c-4 -3 -7 -18 -7 -33 0 -53 -49 -128 -137 -208 -46 -42
-106 -106 -132 -142 -56 -76 -125 -121 -221 -146 -55 -14 -98 -16 -280 -11
-383 11 -589 67 -802 220 -43 31 -78 54 -78 52 0 -9 67 -126 109 -189 64 -96
190 -227 270 -281 171 -113 386 -175 610 -175 187 0 313 49 431 169 44 45 92
107 117 151 79 140 143 379 143 533 0 62 -6 78 -23 60z"/>
<path d="M1210 7118 c-50 -17 -139 -112 -177 -188 -56 -114 -135 -303 -149
-355 -19 -69 -18 -238 2 -304 8 -29 30 -69 49 -89 62 -69 308 -177 495 -217
100 -21 305 -32 314 -16 5 7 -16 37 -53 76 -103 111 -161 269 -161 441 0 78 5
107 31 181 68 195 123 277 231 349 37 25 68 46 68 47 0 1 -62 2 -137 2 -134 0
-141 1 -248 39 -119 42 -207 53 -265 34z"/>
<path d="M5647 7044 c-109 -57 -174 -159 -184 -287 -9 -122 19 -247 110 -481
61 -160 68 -154 78 69 3 88 10 169 14 180 5 11 32 58 61 105 51 81 84 172 84
230 0 69 -69 211 -103 210 -6 -1 -34 -12 -60 -26z"/>
<path d="M5816 6472 c-31 -93 -35 -190 -8 -242 45 -90 147 -126 402 -140 329
-19 388 -36 410 -122 7 -23 15 -37 20 -32 20 21 58 112 64 154 5 38 2 53 -23
95 -57 100 -150 137 -376 154 -200 15 -280 29 -337 57 -49 25 -91 76 -103 127
-4 15 -11 27 -15 27 -5 0 -20 -35 -34 -78z"/>
<path d="M11357 5853 c-10 -228 -47 -378 -115 -461 -22 -26 -50 -66 -63 -90
-23 -42 -85 -91 -160 -127 -20 -10 -44 -32 -54 -51 -23 -43 -49 -59 -211 -132
-71 -32 -146 -70 -167 -84 -109 -75 -290 -124 -637 -172 -199 -27 -305 -61
-395 -128 -22 -16 -81 -55 -131 -88 -173 -112 -336 -289 -448 -485 -50 -88
-48 -120 4 -61 70 79 223 140 597 236 106 28 290 68 410 90 275 51 382 77 581
145 88 29 224 70 303 91 79 20 163 45 187 55 124 53 168 126 212 351 23 119
47 175 100 235 117 133 135 314 62 608 -17 66 -33 139 -37 163 -4 24 -12 42
-19 42 -10 0 -15 -36 -19 -137z"/>
<path d="M11389 4759 c-46 -45 -78 -92 -189 -275 -77 -127 -223 -282 -340
-361 -101 -69 -243 -143 -370 -194 -97 -39 -441 -130 -620 -165 -84 -16 -462
-68 -615 -84 -162 -17 -241 -38 -410 -108 -157 -66 -160 -68 -235 -144 -42
-43 -82 -78 -88 -78 -7 0 -27 -24 -46 -52 -50 -81 -190 -358 -182 -365 3 -3
32 18 63 48 105 100 222 166 400 225 202 68 312 84 683 100 419 18 498 30 636
102 l72 39 -23 -64 c-12 -35 -47 -100 -76 -144 -30 -45 -76 -124 -104 -177
-77 -146 -38 -135 -472 -134 -380 1 -433 -3 -508 -41 -61 -30 -269 -171 -370
-251 -49 -39 -110 -85 -135 -101 -59 -39 -239 -213 -300 -291 -27 -33 -70 -96
-96 -140 l-47 -79 82 78 c170 162 379 268 685 347 122 31 421 93 531 109 161
24 365 39 365 27 0 -18 -142 -238 -191 -297 -34 -41 -100 -132 -147 -204 -47
-71 -116 -165 -154 -208 -38 -43 -117 -151 -177 -240 -60 -89 -146 -205 -191
-257 -77 -88 -140 -175 -140 -191 0 -3 69 -9 153 -12 165 -5 213 -16 258 -58
l29 -27 36 41 c19 23 75 105 124 182 49 77 117 172 152 210 119 133 373 461
588 760 51 72 184 252 295 400 178 238 370 517 573 833 34 53 103 142 152 197
166 183 271 363 305 520 10 44 28 112 41 150 40 124 73 350 56 395 l-9 24 -44
-45z m-1731 -1866 c-16 -2 -40 -2 -55 0 -16 2 -3 4 27 4 30 0 43 -2 28 -4z"/>
<path d="M5960 3675 c-201 -40 -404 -147 -565 -298 l-80 -75 30 -6 c35 -7 122
-29 250 -62 110 -29 187 -30 308 -4 166 35 280 50 422 56 77 3 150 7 163 10
31 6 28 38 -8 77 -17 18 -45 52 -63 77 -18 26 -65 66 -108 95 -42 28 -91 63
-110 79 -65 56 -138 71 -239 51z"/>
<path d="M6560 2227 c-136 -49 -277 -138 -303 -192 -14 -29 -22 -35 -47 -35
-37 0 -117 -39 -162 -79 -18 -16 -69 -47 -113 -69 -115 -57 -155 -108 -155
-193 0 -26 1 -27 83 -32 45 -2 160 -13 255 -23 186 -19 294 -13 376 21 55 23
114 82 147 147 33 65 48 76 116 84 96 12 115 43 136 220 l14 117 -56 26 c-80
37 -200 40 -291 8z"/>
<path d="M7145 1939 c-83 -19 -133 -46 -249 -132 -65 -49 -178 -121 -250 -161
-73 -40 -157 -89 -188 -109 -73 -49 -144 -126 -170 -184 -21 -47 -37 -173 -23
-173 4 0 22 9 39 19 86 53 288 109 426 117 80 5 112 2 208 -20 197 -45 300
-44 322 4 8 17 11 23 131 240 100 179 135 234 187 292 22 24 32 45 30 60 -3
21 -12 24 -118 40 -126 18 -282 21 -345 7z"/>
<path d="M8606 1046 c-65 -32 -70 -39 -62 -80 10 -51 29 -66 86 -66 27 0 61
-5 75 -10 15 -6 84 -19 154 -30 209 -34 279 -84 302 -219 10 -52 9 -84 -5
-175 -9 -61 -19 -119 -21 -130 -6 -27 36 -63 96 -81 30 -8 115 -29 189 -46
281 -62 387 -101 434 -161 14 -18 26 -29 26 -24 0 23 -89 255 -142 366 -126
268 -316 499 -469 572 -95 46 -203 75 -349 93 -171 22 -255 19 -314 -9z m4
-116 c13 -8 13 -10 -2 -10 -9 0 -20 5 -23 10 -8 13 5 13 25 0z m837 -696 c-3
-3 -12 -4 -19 -1 -8 3 -5 6 6 6 11 1 17 -2 13 -5z m73 -14 c20 -6 21 -8 5 -8
-11 0 -31 4 -45 8 -20 6 -21 8 -5 8 11 0 31 -4 45 -8z m57 -16 c-3 -3 -12 -4
-19 -1 -8 3 -5 6 6 6 11 1 17 -2 13 -5z"/>
<path d="M8036 953 c-11 -11 -6 -63 9 -93 15 -30 39 -47 150 -105 86 -45 111
-68 126 -113 28 -86 1 -178 -110 -367 -23 -38 -41 -72 -41 -75 0 -3 60 -6 133
-7 282 -5 533 -68 639 -161 19 -18 38 -32 42 -32 12 0 6 125 -10 189 -34 136
-142 325 -278 484 -108 125 -205 191 -347 236 -99 31 -298 59 -313 44z"/>
</g>
</svg>
