<svg xmlns="http://www.w3.org/2000/svg" viewBox="0 0 256.18 242.33"><defs><style>.cls-1{fill:#fff;}.cls-2{fill:#2e4d66;}.cls-3{fill:#5e98d3;}</style></defs><title>computer</title><g id="Layer_2" data-name="Layer 2"><g id="Layer_1-2" data-name="Layer 1"><rect class="cls-1" x="7.87" y="7.87" width="240.43" height="167.99" rx="9.14" ry="9.14"/><path class="cls-2" d="M233.91,183.74H22.27A22.3,22.3,0,0,1,0,161.47V22.27A22.29,22.29,0,0,1,22.27,0H233.91a22.29,22.29,0,0,1,22.27,22.27v139.2A22.3,22.3,0,0,1,233.91,183.74ZM22.27,15.75a6.52,6.52,0,0,0-6.52,6.52v139.2A6.53,6.53,0,0,0,22.27,168H233.91a6.53,6.53,0,0,0,6.52-6.52V22.27a6.53,6.53,0,0,0-6.52-6.52Z"/><rect class="cls-2" x="114.96" y="175.34" width="26.25" height="26.25"/><path class="cls-2" d="M210.9,242.33H42.42a10.71,10.71,0,0,1-5.08-20.13l41.45-22.29a10.73,10.73,0,0,1,5.08-1.28h85.58a10.69,10.69,0,0,1,5.07,1.28L216,222.2a10.7,10.7,0,0,1-5.07,20.13ZM62.45,226.58H190.87l-22.69-12.2h-83Z"/><path class="cls-3" d="M22,168,240.51,26.64V160.89c.05,4-1.69,6.54-5.91,7.09Z"/></g></g></svg>