<svg xmlns="http://www.w3.org/2000/svg" viewBox="0 0 256 189.35"><defs><style>.cls-1{fill:#d6ad63;}.cls-2{fill:#896a32;}.cls-3{fill:#fff;}</style></defs><title>elephant</title><g id="Layer_2" data-name="Layer 2"><g id="Layer_1-2" data-name="Layer 1"><polygon class="cls-1" points="215.35 48.4 153.02 137.78 179.34 141.51 193.23 155.27 203.13 176.97 209.51 182.97 236.96 182.97 249.62 180.8 249.62 74.72 235.36 53.13 215.93 44.41 215.35 48.4"/><path class="cls-2" d="M256,189.35H198.65V183c0-22.54-19.32-40.87-43.06-40.87H138.65c-23.74,0-43.06,18.33-43.06,40.87v6.38H40.29V98.87H71.86A26.18,26.18,0,0,0,98,72.74l0-37h103.5c30,0,54.46,25.64,54.46,57.15Zm-45-12.76h32.21V92.86c0-24.47-18.7-44.39-41.69-44.39H110.8l0,24.28a39,39,0,0,1-38.92,38.89H53.05v65H83.22c3.3-26.58,26.9-47.26,55.43-47.26h16.94C184.13,129.33,207.73,150,211,176.59Z"/><path class="cls-3" d="M41.55,6.38H81.28a23.5,23.5,0,0,1,23.5,23.5V78.95a25.83,25.83,0,0,1-25.83,25.83H6.38a0,0,0,0,1,0,0V41.55A35.17,35.17,0,0,1,41.55,6.38Z"/><path class="cls-2" d="M71.8,111.17H0V51.28A51.33,51.33,0,0,1,51.28,0h23.5a36.43,36.43,0,0,1,36.39,36.38V71.8A39.41,39.41,0,0,1,71.8,111.17Zm-59-12.77h59A26.63,26.63,0,0,0,98.4,71.8V36.38A23.64,23.64,0,0,0,74.78,12.77H51.28A38.55,38.55,0,0,0,12.77,51.28Z"/><path class="cls-2" d="M6.42,171.55A6.39,6.39,0,0,1,0,165.16V94A6.39,6.39,0,0,1,12.8,94v71.18A6.39,6.39,0,0,1,6.42,171.55Z"/><circle class="cls-1" cx="55.58" cy="58.01" r="11.32"/></g></g></svg>