<svg xmlns="http://www.w3.org/2000/svg" viewBox="0 0 256 215.62"><defs><style>.cls-1{fill:#fff;}.cls-2{fill:#b28d31;}.cls-3{fill:#ffd15f;}</style></defs><title>burger</title><g id="Layer_2" data-name="Layer 2"><g id="Layer_1-2" data-name="Layer 1"><path class="cls-1" d="M237.37,127.06a12,12,0,0,0,11.94-13.21,120.46,120.46,0,0,0-239.46,0,12,12,0,0,0,12,13.21Z"/><path class="cls-2" d="M237.37,133.68H21.8A18.61,18.61,0,0,1,3.27,113.14a127.08,127.08,0,0,1,252.62,0,18.58,18.58,0,0,1-18.52,20.54ZM129.58,13.23A113.6,113.6,0,0,0,16.43,114.57a5.21,5.21,0,0,0,1.32,4.07,5.36,5.36,0,0,0,4.05,1.81H237.37a5.34,5.34,0,0,0,4-1.81,5.21,5.21,0,0,0,1.33-4.07A113.6,113.6,0,0,0,129.58,13.23Z"/><path class="cls-2" d="M237.21,215.62H18.79a18.8,18.8,0,0,1,0-37.59H237.21a18.8,18.8,0,0,1,0,37.59ZM18.79,191.27a5.56,5.56,0,1,0,0,11.11H237.21a5.56,5.56,0,1,0,0-11.11Z"/><path class="cls-3" d="M22.55,120.37,193,32.49c24.19,15.89,45.05,43,49.25,78.83,2.19,9.51-3.43,9.85-13.28,9.05Z"/><rect class="cls-2" x="6.62" y="143.21" width="242.77" height="24.35" rx="9.2" ry="9.2"/></g></g></svg>