<svg xmlns="http://www.w3.org/2000/svg" viewBox="0 0 234.32 256"><defs><style>.cls-1{fill:#c7dd6c;}.cls-2{fill:#7f9038;}.cls-3{fill:#fff;}</style></defs><title>bird</title><g id="Layer_2" data-name="Layer 2"><g id="Layer_1-2" data-name="Layer 1"><path class="cls-1" d="M136.75,210.48l87.13-81.28s23.16,91.41-21.43,85.33S136.75,210.48,136.75,210.48Z"/><path class="cls-2" d="M234.3,224.29H157.11a78.11,78.11,0,0,1-78-78V69.07h77.2a78.11,78.11,0,0,1,78,78Zm-139-139v61a61.88,61.88,0,0,0,61.81,61.81h61v-61a61.88,61.88,0,0,0-61.81-61.81Z"/><path class="cls-2" d="M169.05,155.2H133a50.13,50.13,0,0,1-50.07-50.08V69.07H119a50.13,50.13,0,0,1,50.08,50.07ZM99.13,85.28v19.84A33.9,33.9,0,0,0,133,139h19.85V119.14A33.9,33.9,0,0,0,119,85.28Z"/><path class="cls-3" d="M158,77.18H17.47L75.84,8.11H100A58.06,58.06,0,0,1,158,66.17Z"/><path class="cls-2" d="M166.14,85.28H0L72.08,0H100a66.25,66.25,0,0,1,66.17,66.17ZM34.93,69.07h115v-2.9a50,50,0,0,0-49.95-50H79.6Z"/><circle class="cls-2" cx="91.03" cy="44.38" r="10.09"/><rect class="cls-2" x="218.82" y="216.18" width="15.5" height="39.82" rx="4.78" ry="4.78"/><rect class="cls-2" x="153.19" y="216.18" width="15.5" height="39.82" rx="4.78" ry="4.78"/></g></g></svg>