<svg xmlns="http://www.w3.org/2000/svg" viewBox="0 0 256 244.86"><defs><style>.cls-1{fill:#662b3c;}.cls-2{fill:#fff;}.cls-3{fill:#902f3b;}.cls-4{fill:#dd5e6d;}</style></defs><title>apple</title><g id="Layer_2" data-name="Layer 2"><g id="Layer_1-2" data-name="Layer 1"><path class="cls-1" d="M126.2,57.22a4.88,4.88,0,0,1-4.88-4.88V4.88a4.88,4.88,0,0,1,9.76,0V52.34A4.88,4.88,0,0,1,126.2,57.22Z"/><path class="cls-2" d="M126,55S68.88,3.4,21.26,65.31s35.15,179.83,73,172.26c27.78-5.56,27.17-12.47,65.09-.8C211,252.65,274.48,116.12,238.76,65.31,217.61,35.23,186.37,18.48,126,55Z"/><path class="cls-3" d="M167.72,244.86a35.11,35.11,0,0,1-10.36-1.55c-26.86-8.27-32.22-6.76-45.16-3.13-4.29,1.2-9.63,2.7-16.57,4.09a25.61,25.61,0,0,1-5,.49c-21.76,0-47.66-25.88-64.7-53.27C2.06,153.14-13.1,98.76,15.84,61.14c15.37-20,33.4-31,53.58-32.88,26.35-2.38,48.48,11.81,57.22,18.43,27.82-16.1,51.32-22.07,71.71-18.23,17.72,3.33,32.77,14.1,46,32.92,24.58,34.95,7.3,105-24.26,148.4C203.53,232.57,185,244.86,167.72,244.86ZM128.2,223.58c7.89,0,17.5,1.83,33.19,6.65,14,4.32,31.35-6.08,47.63-28.49,14.1-19.41,25.49-45.76,30.48-70.48,5.36-26.55,3.11-48.58-6.34-62-11.23-16-23.1-24.67-37.34-27.35-17.68-3.33-40,3.05-66.24,19l-4.35,2.63-3.77-3.41c-.47-.41-23.63-20.7-50.9-18.17C54.37,43.4,39.61,52.68,26.68,69.48,2,101.56,16.1,149.81,37.52,184.27c20,32.11,43.86,48.92,55.42,46.59,6.44-1.29,11.28-2.65,15.56-3.85C115.69,225,121.28,223.58,128.2,223.58Z"/><path class="cls-4" d="M80.23,228,214.06,50.11s65.32,28,9.58,127.29c-32.31,57.53-53,57.21-69.48,51-12.5-4.71-14.77-4.63-34-3.86C107.77,225,99.6,230.2,93,231.18,88,232,83.76,229.92,80.23,228Z"/></g></g></svg>