<svg xmlns="http://www.w3.org/2000/svg" viewBox="0 0 256 197.98"><defs><style>.cls-1{fill:#fff;}.cls-2{fill:#4e2e66;}.cls-3{fill:#ab61db;}</style></defs><title>table</title><g id="Layer_2" data-name="Layer 2"><g id="Layer_1-2" data-name="Layer 1"><path class="cls-1" d="M238.5,35H17.5a10.64,10.64,0,0,1-8-17.69l6.07-6.87a10.65,10.65,0,0,1,8-3.59H232.42a10.65,10.65,0,0,1,8,3.59l6.07,6.87A10.64,10.64,0,0,1,238.5,35Z"/><path class="cls-2" d="M238.5,41.81h-221A17.47,17.47,0,0,1,4.42,12.76l6.07-6.87A17.52,17.52,0,0,1,23.58,0H232.42a17.52,17.52,0,0,1,13.09,5.89l6.07,6.87A17.47,17.47,0,0,1,238.5,41.81ZM23.58,13.66A3.79,3.79,0,0,0,20.73,15l-6.08,6.87a3.81,3.81,0,0,0,2.86,6.33h221a3.81,3.81,0,0,0,2.85-6.33L235.27,15a3.79,3.79,0,0,0-2.85-1.29Z"/><polygon class="cls-3" points="158.6 43.75 104.31 107.53 116.13 164.17 136.34 164.17 158.6 43.75"/><path class="cls-2" d="M141.89,171H110.57L80.78,28.15h90.9Zm-20.21-13.67h9.1l24.1-115.52H97.59Z"/><path class="cls-2" d="M126.47,198c-5.54,0-54.11-.57-54.11-20.15s48.57-20.15,54.11-20.15,54.11.57,54.11,20.15S132,198,126.47,198ZM87.4,177.83c4.82,2.74,18.35,6.48,39.07,6.48s34.25-3.74,39.06-6.48c-4.81-2.74-18.35-6.48-39.06-6.48S92.22,175.09,87.4,177.83Z"/></g></g></svg>