<svg xmlns="http://www.w3.org/2000/svg" viewBox="0 0 229.6 256"><defs><style>.cls-1{fill:#2e4266;}.cls-2{fill:#fff;}.cls-3{fill:#719dff;}</style></defs><title>tea</title><g id="Layer_2" data-name="Layer 2"><g id="Layer_1-2" data-name="Layer 1"><path class="cls-1" d="M195.67,203.61H156.35L168.84,106l46.29,0A14.45,14.45,0,0,1,229,124.42l-19.45,68.66A14.53,14.53,0,0,1,195.67,203.61Zm-22.34-15h22L214.49,121H182Z"/><path class="cls-2" d="M148.9,248.53H38.67a10.49,10.49,0,0,1-10.4-9.16L7.56,77.64A10.49,10.49,0,0,1,18,65.82H169.61A10.49,10.49,0,0,1,180,77.64L159.3,239.37A10.49,10.49,0,0,1,148.9,248.53Z"/><path class="cls-1" d="M148.9,256H38.67a18,18,0,0,1-17.82-15.68L.15,78.59A18,18,0,0,1,18,58.35H169.61a18,18,0,0,1,17.81,20.24L166.71,240.32A18,18,0,0,1,148.9,256ZM18,73.3a3,3,0,0,0-2.26,1A3,3,0,0,0,15,76.69L35.68,238.42a3,3,0,0,0,3,2.63H148.9a3,3,0,0,0,3-2.63l20.7-161.73a3,3,0,0,0-3-3.39Z"/><path class="cls-3" d="M172.21,78.38,38.9,241l109.86,0c2.16-.18,3-1.13,3.23-3.51Z"/><path class="cls-1" d="M95.94,73.3a7.48,7.48,0,0,1-4.58-13.39c2.15-1.79,6.58-7.13-.79-16.39C76.75,26.15,87.47,8.7,95.07,1.9a7.47,7.47,0,0,1,10,11.12c-1.91,1.76-10.92,11-2.79,21.19,5.61,7,8,14.28,7.15,21.47a25.17,25.17,0,0,1-8.9,16.05A7.45,7.45,0,0,1,95.94,73.3Z"/></g></g></svg>