<?xml version="1.0"?>
<svg xmlns:rdf="http://www.w3.org/1999/02/22-rdf-syntax-ns#" xmlns="http://www.w3.org/2000/svg" xmlns:cc="http://creativecommons.org/ns#" xmlns:dc="http://purl.org/dc/elements/1.1/" xmlns:svg="http://www.w3.org/2000/svg" id="svg2" viewBox="0 0 362.37 296.1" version="1.0">
  <g id="layer2" transform="translate(-8.3351 -167.79)">
    <path id="path2679" stroke-linejoin="round" d="m56.974 375.64c-0.794-6.18-0.839-14.6-1.034-16.29-0.93-8.06-22.159-59.97-24.944-71.64-2.855 8.48-2.884 14.26-2.174 24.07 1.55 21.38 4.74 52.8 4.12 63.96s-1.271 43.93-15.283 39.69c-7.506-2.26-4.633-17.03-0.748-27.44 3.916-10.49-5.723-55.65-4.461-92.93 1.269-37.49 23.227-58.71 39.306-66.65 26.25-12.97 49.994-11.77 88.234-5.3 28.81 4.87 39.07 8.27 63.32 9.33 35.64 1.55 56.09-18.6 67.25-28.51 6.39-5.68 10.54-6.51 15.49-10.23-4.65-4.34-9.91-10.54-1.86-18.29 8.06-7.74 18.29-1.55 20.46 4.34 5.89-1.24 12.63-1.63 19.14-1.01 6.5 0.62 11.85 2.48 15.88 4.11 3.72-3.1 14.57-9.3 17.97-6.82 3.41 2.48 15.11 8.45-0.69 20.54 2.52 2.2 9.25 12.02 9.72 23.04 0.5 11.99-3.76 19.03-5.62 24.29-1.75 4.97-8.98 12.4-11.77 13.64s-2.64 5.42-5.12 8.83c-1.46 2.01-11.14 7.25-22.93 3.41-6.66-2.17-19.76 30.86-18.91 41.07 1.09 13.01-2.32 30.37-8.83 38.43-6.51 8.05-5.58 67.25-4.96 77.79 0.62 10.53 10.5 12.21 12.17 16.5 3.78 7.1-2.37 14.21-8.76 11.7-1.01 1.26-3.72 5.27-14.56 2.79-6.89-1.58-15.89-16.99-17.98-24.8-1.85-6.9-6.23-54.96-11.47-68.49-4.72-12.2-37.65-10.95-43.13-9.4s-30.42 6.64-38.91 5.57c-12.37-1.57-16.59-2.8-31.65-14.16-7.88-5.94-15.5-11.98-21.74-17.96-3.41 8.37-11.16 27.89-14.876 37.5-3.719 9.61-19.835 29.44-19.835 35.33s-1.412 32.55 4.339 37.97c4.17 3.93 13.011 8.63 7.511 11.39-1.051 0.52-2.809 6.43-6.336 4.89-2.822 3.92-6.184 3.76-7.059 3.86-13.842 1.48-20.583-10.75-22.938-17.82-2.403-7.21-3.719-38.74-2.789-46.49 0.929-7.74 10.227-24.17 10.227-33.78 0-9.6 1.239-21.07-4.029-31.92-5.269-10.85-5.269-15.18-5.269-15.18m196.48 50.2c-6.5 1.86-10.51 11.63-19.81 40.14s-4.65 30.99-2.79 33.78 1.55 5.89-1.55 7.13-5.58 5.58-9.92 4.03c-4.33-1.55-10.22 2.48-13.63-1.55s-11.16-19.21-10.23-27.58 7.13-10.85 7.75-17.05 5.5-38.09 5.5-45.52m-114.52 84.88c7.484 2.82 9.594-1.93 10.03-5.74 0.62-5.42-5.979-10.61-5.979-16.5s-3.454-33.25 1.596-46.27" stroke="#000" stroke-linecap="round" stroke-miterlimit="2" stroke-width="8" fill="none"/>
    <g id="g3255" stroke="#000" stroke-width="4" stroke-linecap="round" fill="none">
      <path id="path2393" stroke-linejoin="bevel" stroke-miterlimit="2" d="m48.919 260.94c-10.169 5.63-15.417 19.78-15.234 28.07"/>
      <path id="path2397" d="m305.25 210.41c5.13-0.63 8.4 0.21 10.38 1.93 2.08 1.8 2.03 6.11 1.44 10.2"/>
      <path id="path2399" d="m347.97 207.97c-4.3 1.3-5.86 3.34-6.82 5.67-1.05 2.54-0.16 5.73 0.96 9.67"/>
      <path id="path3187" d="m314.25 257.48c2.76 1.63 12.19 0.06 14.19-0.55 4.34-1.33 3.45-3.95 3.68-6.9 0.15 0.87 0.04 5.78 0.58 5.96 4.05 1.29 14.94 1.22 17.35-0.21"/>
      <path id="path3190" stroke-linejoin="round" d="m304.42 266.36l-8.77 1.75 0.51-10.62-8.75 1.85 0.11-9.09-8.18 2.04 2.01-10.56-7.75-0.14 2.27-6.84-3.36-6.57 5.45-13.45"/>
    </g>
    <g id="g3280">
      <path id="path3171" d="m316.12 216.59a3.4091 2.673 0 1 1 -6.82 0 3.4091 2.673 0 1 1 6.82 0z" transform="matrix(.7458 .71155 -.69006 .76902 227.28 -172.39)"/>
      <path id="path3173" d="m316.12 216.59a3.4091 2.673 0 1 1 -6.82 0 3.4091 2.673 0 1 1 6.82 0z" transform="matrix(-.70889 .65592 .65592 .70889 425.54 -143.37)"/>
      <path id="path3262" d="m320.75 242.52c-1.1 2.9 7.62 6.85 11.56 8.54 2.85-1.76 10.85-6.06 10.61-8.88-0.18-2.15-7.96-0.74-10.47-0.54-3.54 0.29-10.35-2.68-11.7 0.88z" fill-rule="evenodd"/>
      <path id="path3228" d="m296.97 191.65l3.47-3.53c-1.19-4.66-3.88-7.84-5.7-8.11-2.84-0.43-6.02 2.79-4.8 5.9 1.23 3.11 7.03 5.74 7.03 5.74z" fill-rule="evenodd"/>
      <path id="path3230" d="m348.36 193.51l-3.96-3.83c0.94-4.05 6.14-5.1 7.57-5.34 2.22-0.37 3.79 1.81 2.83 4.5s-6.44 4.67-6.44 4.67z" fill-rule="evenodd"/>
    </g>
  </g>
  <g id="layer3" transform="translate(-8.3351 -167.79)">
    <path id="path3004" stroke="#000" stroke-width="2" d="m19.847 389.79c0.675 7.43 8.711 2.46 10.381 2.27 7.297-0.83-5.332 20.53-10.286 21.87-5.534 1.49-8.039-26.55-0.095-24.14z"/>
    <path id="path3002" stroke="#000" stroke-width="2" d="m281.12 376.2c-10.3-11.71-25.11-31.66-21.33-41.37 1.6-4.13 9.95 21.93 18.78 26.64 3.8 2.02 10.36 23.6 2.55 14.73z"/>
    <path id="path3000" stroke="#000" stroke-width="2" d="m222.77 373.32c-5.3 0.05-12.48-4.7-7.64-3.9 14.01 2.33 28.86-9.48 29.51-6.02 1.21 6.51-17.04 9.88-21.87 9.92z"/>
    <path id="path2998" stroke="#000" stroke-width="2" d="m20.492 366.76c3.938-2.31 10.268-1.76 1.037-7.24-3.425-2.04-6.153-6.88-3.096-7.59 0.909-0.21 3.795 4.98 10.65-0.4 3.679-2.89 5.651 17.77 2.36 21.41-1.391 1.54-4.01 3.25-10.335 2.18l-0.616-8.36z"/>
    <path id="path2996" stroke="#000" stroke-width="2" d="m94.05 365.87c-4.394-6.85-8.338-15.55-14.047-22.89-3.974-5.1-18.103-12.2-13.568-12.77 4.899-0.62 11.986 2.17 17.455 8.25 5.311 5.91 8.999 14.93 13.183 19.56 0.608 0.67-1.879 9.64-3.023 7.85z"/>
    <path id="path2994" stroke="#000" stroke-width="2" d="m248.49 355.96c-4.46 0.26-1.14-35.45-6.67-14.52-1.6 6.06-10.06 13.87-6.56 1.89 5.63-19.25 14.45-38.48 14.62-58.74 0.05-6.77 1.77-27.12 2.94-24.89 1.8 3.44 3.61 26.53 2.97 27.56-1.12 1.82-5.35 25.01-5.71 36.37-0.3 9.67 3.07 32.06-1.59 32.33z"/>
    <path id="path2992" stroke="#000" stroke-width="2" d="m158.57 353.35c-5.27-8.51 2.24-25.77 4.69-36.77 2.06-9.26 8.84-37.79 12.1-30.93 4.78 10.08-7.78 30.5-8.24 46.08-0.14 4.62 1.74 22.72-5.79 21.92 0 0-1.93-0.25-2.76-0.3z"/>
    <path id="path2990" stroke="#000" stroke-width="2" d="m198.34 349.2c0.13-13.78-1.75-29.22 3.82-42.26 2.76-6.45 10.28-19.25 8.33-3.26-1.72 14.19 0.63 29.38-5.86 41.96-1.24 2.39-6.32 7.07-6.29 3.56z"/>
    <path id="path2988" stroke="#000" stroke-width="2" d="m206.24 316.65c0.64-21.73-5.55 15.8-3.03 15.19 2.33-0.57 2.93-11.96 3.03-15.19z"/>
    <path id="path2986" stroke="#000" stroke-width="2" d="m226.35 308.76c-0.7-14.65-1.17-30.85 4.49-42.26 3.64-7.34 1.91 12.86 1.39 14.04-2.33 5.2 0.41 26.11-0.89 36.78-1.25 10.38-1.26 30.93-13.56 31.06-0.93 2.19 9.52-25.47 8.57-39.62z"/>
    <path id="path2984" stroke="#000" stroke-width="2" d="m93.294 335.69c-6.163-15.73 0.832-29.5 1.334-42.85 0.455-11.82-1.697-40.64-2.252-39.37-3.396 7.8-2.563 35.55-4.257 42.14-0.899 3.5 0.189 15-5.06 4-2.714-24.03 5.793-48.53 4.059-72.86-2.568-12.53 10.933-13.98 9.619-3.48-1.811 14.47 1.841 40.67 2.974 52.14 1.089 10.99 2.249 23.71-1.123 32.86-3.049 8.26-2.943 23.75-0.811 29.19 2.513 6.4-2.319 3.76-4.483-1.77z"/>
    <path id="path2982" stroke="#000" stroke-width="2" d="m287.94 341.49c-5.79-9.88-9.67-19.95-13.26-31.2-3.68-11.54 2.75-15.82 4.55-2.84 1.79 12.85 17.71 47.36 10.73 37.47 0 0-0.51-0.7-0.71-1.01-0.43-0.7-1.31-2.42-1.31-2.42z"/>
    <path id="path2980" stroke="#000" stroke-width="2" d="m16.603 335.58c2.43-3.69 6.416-4.97 10.332-2.64 4.703 2.81 5.437-7.33-2.043-7.83 0 0-6.785-0.44-8.377 1.32-0.399 0.44 0.088 9.15 0.088 9.15z"/>
    <path id="path2978" stroke="#000" stroke-width="2" d="m127.02 334.53c-6.67-3.77 1.91-13.23 3.35-20.02 2.35-11.04 4.57-23.57 6.61-33.62 2.36-11.67 0.24-25.72 3.86-35.02 0.98-2.53 3.22 21.15 2.01 28.6-3.2 19.77-4.92 40.46-13.8 58.53-0.44 0.91-0.2 2.56-2.03 1.53z"/>
    <path id="path2976" stroke="#000" stroke-width="2" d="m145.22 334.89c-9.34-12.66 10.72-38.26 11.02-58.58 0.23-15.12-9.47-40.76-4.84-51l7.12 1.88c-4.17 7.5 0.39 28.69 0.96 33.07 1.91 14.7 6.31-21.26 6.31-32.99 12-7.7 4.3 28.94 0.75 37.58-5.84 14.19-6.84 30.34-12.84 44.57-3.17 7.53-5.22 29.9-8.48 25.47z"/>
    <path id="path2974" stroke="#000" stroke-width="2" d="m268.43 334.86c-5.67-9.66-6.25-24.4-7.42-36.81-0.68-7.32 0.03-28.3 2.05-9.81 1.52 14.01 3.53 28.04 7.3 41.73 0.36 1.31-0.18 7.88-1.93 4.89z"/>
    <path id="path2972" stroke="#000" stroke-width="2" d="m46.292 300.13c0.112-1.16 9.906-5.14 14.761-30.22 2.628-13.57-1.011-29.76 1.91-41.99 3.006-12.59 4.9 12.54 5.039 19.83 0.376 19.64-5.562 39.42-10.259 46.9-0.936 1.49-12.232 13.54-11.451 5.48z"/>
    <path id="path2970" stroke="#000" stroke-width="2" d="m109.95 307.35c-2.24-10.72 1.33-19.41 2.29-30.24 0.79-8.93 4.43-22.82 7.24-26.47 5.45-7.09 15.38-38.16 18.41-27.45 3.36 11.87-17.79 32.65-19.69 49-0.73 6.27 0.15 10.11-1.07 18.3-0.38 2.53-5.24 26.1-7.18 16.86z"/>
    <path id="path2968" stroke="#000" stroke-width="2" d="m180.46 307.26c4.08-18.83 7.2-38.25 4.44-57.41-1.42-9.78 11.01-24.34 12.42-17.36 0.58 2.88-4.11 6.84-5.12 13.69-1.45 9.74 0.28 23.3-1.36 30.54-1.99 8.82-2.31 20.77-7.49 30.29-0.64 1.18-3.52 3.19-2.89 0.25z"/>
    <path id="path2966" stroke="#000" stroke-width="2" d="m296.75 302.94c-14.05-12.02-17.54-21.02-0.28-10.36 6.06 3.74 8.9 18.96 0.28 10.36z"/>
    <path id="path2964" stroke="#000" stroke-width="2" d="m199.92 297.53c0.35-13.32 5.4-28.38 2.38-42.8-1.5-7.15-4.27-26.2 7.24-21.41 0.38 4.89-1.66 21.36 0.2 21.99 1.85 0.63 4.59-20.3 9.46-20.99 4.04-0.57 6.11-3.1 4.16 0.99-5.58 11.68-12.06 29.45-14.15 42.41-0.77 4.76-9.48 27.19-9.29 19.81z"/>
    <path id="path2962" stroke="#000" stroke-width="2" d="m235.79 288.17c-3.21-9.87 4.01-34.84 0.23-48.15-2.7-9.51 1.91-23.18 3.85-6.89 1.63 13.7 4.43 34.78-0.89 47.17-0.95 2.24-2.32 10.53-3.19 7.87z"/>
    <path id="path2960" stroke="#000" stroke-width="2" d="m276.66 283.62c-9.57-3.54-12.55-20.27-14.74-31.83-1.81-9.56-15.13-39.49-6.63-36.04 8.54 3.48 10.87 31.52 14.87 44.34 2.11 6.76 11.17 25.27 6.5 23.53z"/>
    <path id="path2950" stroke="#000" stroke-width="2" d="m16.552 278.59c6.234-2.59 10.824 0.69 15.296 4.4l-3.105 9.28c-6.749-3.83-11.021-9.88-15.065-0.93l2.874-12.75z"/>
    <path id="path2948" stroke="#000" stroke-width="2" d="m26.144 257.9c4.899 1.41 11.361 10 12.39 13.62 0.838 2.94-1.983 4.41-3.607 6.06-3.046-7.9-9.846-14.58-14.538-11.6l5.755-8.08z"/>
    <path id="path2669" stroke="#000" stroke-width="2" d="m14.232 302.58c5.473-1.22 10.394 1.36 15.276 4.22l-1.356 5.96c-7.065-3.13-12.159-7.54-14.464-1.88l0.544-8.3z"/>
    <path id="path3006" stroke="#000" stroke-width="2" d="m303.03 236.71c-3.4-2.22-9.58-8.54-10.46-11.88-0.63-2.36 0.72-0.73 1.69 0.83 0.96 1.55 1.53 3.02 3.04 4.79 1.76 2.08 7.81 7.63 5.73 6.26z"/>
    <path id="path3008" d="m293.22 237.53c1.06-1.34 7.13 5.82 10.86 6.9 3.65 1.05 5.4-2.16 6.3-1.98-1.53 2.12-4.14 3.56-7.84 1.79-2.62-1.26-9.98-5.87-9.32-6.71z" fill-rule="evenodd" stroke="#000" stroke-linecap="round" stroke-width="2"/>
    <path id="path3010" d="m304.15 250.53c2.73 1.59 5.47-1.13 6.33-1.06-1.65 1.73-5.66 4.31-7.78 1.95-0.21-0.1 0.73-1.25 1.45-0.89z" fill-rule="evenodd" stroke="#000" stroke-linecap="round" stroke-width="2"/>
    <path id="path3012" stroke="#000" stroke-width="2" d="m353.63 233.9c-0.6-0.34 6.07-10.15 6.27-13.59 0.14-2.43-0.65-0.58-1.17 1.12-0.51 1.7-0.74 3.25-1.63 5.27-1.05 2.37-2.53 7.74-3.47 7.2z"/>
    <path id="path3014" d="m363.16 232.48c-0.99-1.12-4.59 7.02-7.27 8.76-2.63 1.7-4.49-1.64-5.06-0.8-0.98 1.44 3.64 2.75 6.2 0.33 1.81-1.71 6.75-7.58 6.13-8.29z" fill-rule="evenodd" stroke="#000" stroke-linecap="round" stroke-width="2"/>
    <path id="path3016" d="m355.7 248.45c-1.87 2.04-5.16-0.29-4.95 0.11 0.64 1.23 4.9 3.22 6.18 0.51 0.15-0.14-0.76-1.13-1.23-0.62z" fill-rule="evenodd" stroke="#000" stroke-linecap="round" stroke-width="2"/>
    <path id="path3026" stroke="#000" stroke-width="2" d="m326.34 197.06c1.3 0.12 1.56 1.3 2.69 2.13 0.72 0.53 6.75 1.77 5.94 2.65-1.17 1.24-4.56-1.34-9.02-1.31-4.33 0.03-11.01 3.81-11.96 2.43-0.36-0.53 5.83-2.45 8.16-3.51 1.63-0.74 3-2.5 4.19-2.39z"/>
    <path id="path3028" stroke="#000" stroke-width="2" d="m325.37 186.69c3.98-0.1 4.02 3.08 7.23 4.28 4.62 1.73 9.79 2.33 9.05 3.29-1.11 1.44-10.7-2.96-18.06-2.68-6.92 0.26-18.42 5.89-19.31 4.2-0.53-1 6.19-1.12 11.65-4.49 3.14-1.94 5.45-4.51 9.44-4.6z"/>
    <path id="path3265" d="m55.582 429.83c4.241-1.32 5.878 2.57 7.847 11.46 1.878 8.47 11.435 8.85 8.946 13.6-5.174 9.87-12.147-4.18-14.956-9.38-5.488-10.16-4.43-14.87-1.837-15.68z" fill-rule="evenodd"/>
    <path id="path3267" d="m200 430.65c4.44-1.17 4.36 2.56 5.86 5.82 2.89 6.24 6.19 5.74 3.84 9.73l-8.11 1.7c-0.79-0.58-3.97-8.32-5.05-12.06s2.32-4.89 3.46-5.19z" fill-rule="evenodd"/>
    <path id="path3084" d="m289.38 445.39c4.05 2.7 7.53 9.01 7.47 11.17" stroke="#000" stroke-linecap="round" stroke-width="4" fill="none"/>
    <path id="path3086" d="m273.35 283.54a5.4236 6.6632 0 1 1 -10.85 0 5.4236 6.6632 0 1 1 10.85 0z" transform="matrix(.78779 -.61595 .61595 .78779 -110.7 394.22)"/>
  </g>
  <metadata>
    <rdf:RDF>
      <cc:Work>
        <dc:format>image/svg+xml</dc:format>
        <dc:type rdf:resource="http://purl.org/dc/dcmitype/StillImage"/>
        <cc:license rdf:resource="http://creativecommons.org/licenses/publicdomain/"/>
        <dc:publisher>
          <cc:Agent rdf:about="http://openclipart.org/">
            <dc:title>Openclipart</dc:title>
          </cc:Agent>
        </dc:publisher>
        <dc:title>tiger</dc:title>
        <dc:date>2008-04-27T17:25:51</dc:date>
        <dc:description>four different picture of a tiger, always view from side\n  * standing tiger, watching towards you\n  * running tiger \n  * jumping tiger\n  * sleeping tiger\n</dc:description>
        <dc:source>http://openclipart.org/detail/16551/tiger-by-telemachos</dc:source>
        <dc:creator>
          <cc:Agent>
            <dc:title>Telemachos</dc:title>
          </cc:Agent>
        </dc:creator>
        <dc:subject>
          <rdf:Bag>
            <rdf:li>animal</rdf:li>
            <rdf:li>cartoon</rdf:li>
            <rdf:li>cat</rdf:li>
            <rdf:li>clip art</rdf:li>
            <rdf:li>clipart</rdf:li>
            <rdf:li>image</rdf:li>
            <rdf:li>media</rdf:li>
            <rdf:li>nature</rdf:li>
            <rdf:li>png</rdf:li>
            <rdf:li>public domain</rdf:li>
            <rdf:li>svg</rdf:li>
            <rdf:li>tiger</rdf:li>
            <rdf:li>vector</rdf:li>
          </rdf:Bag>
        </dc:subject>
      </cc:Work>
      <cc:License rdf:about="http://creativecommons.org/licenses/publicdomain/">
        <cc:permits rdf:resource="http://creativecommons.org/ns#Reproduction"/>
        <cc:permits rdf:resource="http://creativecommons.org/ns#Distribution"/>
        <cc:permits rdf:resource="http://creativecommons.org/ns#DerivativeWorks"/>
      </cc:License>
    </rdf:RDF>
  </metadata>
</svg>
