<svg xmlns="http://www.w3.org/2000/svg" viewBox="0 0 256 199.39"><defs><style>.cls-1{fill:#fff;}.cls-2{fill:#a04b25;}.cls-3{fill:#ed7f4f;}.cls-4{fill:#f4c1b0;}</style></defs><title>tshirt</title><g id="Layer_2" data-name="Layer 2"><g id="Layer_1-2" data-name="Layer 1"><path class="cls-1" d="M57.78,19.39,10.23,39A5.75,5.75,0,0,0,6.67,44.3V68.46a5.76,5.76,0,0,0,5.76,5.76H57.78"/><path class="cls-2" d="M57.78,80.89H12.43A12.45,12.45,0,0,1,0,68.46V44.3A12.39,12.39,0,0,1,7.7,32.81L55.24,13.23l5.08,12.32-47,19.36V67.56H57.78Z"/><path class="cls-1" d="M198.22,19.39,245.72,39a5.82,5.82,0,0,1,3.61,5.39v24a5.83,5.83,0,0,1-5.84,5.84H198.22"/><path class="cls-2" d="M243.49,80.89H198.22V67.56h44.45V44.91l-47-19.36,5.08-12.32,47.5,19.56A12.47,12.47,0,0,1,256,44.35v24A12.52,12.52,0,0,1,243.49,80.89Z"/><path class="cls-1" d="M194,192.72H62a9.59,9.59,0,0,1-9.59-9.58V27.8a9.6,9.6,0,0,1,6.78-9.16l39-12h60l38.59,12a9.59,9.59,0,0,1,6.75,9.15V183.14A9.58,9.58,0,0,1,194,192.72Z"/><path class="cls-2" d="M194,199.39H62a16.27,16.27,0,0,1-16.25-16.25V27.8A16.16,16.16,0,0,1,57.26,12.27L97.22,0h62l39.55,12.26a16.17,16.17,0,0,1,11.44,15.52V183.14A16.27,16.27,0,0,1,194,199.39ZM99.22,13.33,61.17,25a2.9,2.9,0,0,0-2.06,2.78V183.14A2.92,2.92,0,0,0,62,186.06H194a2.92,2.92,0,0,0,2.92-2.92V27.78A2.9,2.9,0,0,0,194.83,25L157.21,13.33Z"/><path class="cls-3" d="M196.86,30,62.61,186.11H194c2.24-.33,3.19-1.74,2.91-4.17Z"/><path class="cls-4" d="M157.74,13.3a29.07,29.07,0,0,1-58.14,0"/><path class="cls-2" d="M128.67,49A35.77,35.77,0,0,1,92.93,13.3h13.33a22.41,22.41,0,0,0,44.81,0H164.4A35.77,35.77,0,0,1,128.67,49Z"/></g></g></svg>