<svg xmlns="http://www.w3.org/2000/svg" viewBox="0 0 256 146.49"><defs><style>.cls-1{fill:#db664f;}.cls-2{fill:#fff;}.cls-3{fill:#8e3625;}</style></defs><title>bus</title><g id="Layer_2" data-name="Layer 2"><g id="Layer_1-2" data-name="Layer 1"><polygon class="cls-1" points="128.28 114.03 241.02 10.29 249.86 43.93 249.86 106.98 241.85 117.72 128.28 114.03"/><rect class="cls-2" x="93.15" y="35.44" width="128.95" height="31.88" rx="2.74" ry="2.74"/><path class="cls-3" d="M218.73,73.46H96.52A9.53,9.53,0,0,1,87,64V38.81a9.53,9.53,0,0,1,9.51-9.51H218.73a9.53,9.53,0,0,1,9.51,9.51V64A9.53,9.53,0,0,1,218.73,73.46ZM99.29,61.18H216V41.58H99.29Z"/><path class="cls-3" d="M241,122H21A15,15,0,0,1,6,107V27.69A27.72,27.72,0,0,1,33.71,0h194.6A27.72,27.72,0,0,1,256,27.69V107A15,15,0,0,1,241,122ZM33.71,12.28A15.42,15.42,0,0,0,18.3,27.69V107a2.7,2.7,0,0,0,2.7,2.7H241a2.7,2.7,0,0,0,2.7-2.7V27.69a15.42,15.42,0,0,0-15.41-15.41Z"/><path class="cls-2" d="M94.76,119.28a21.07,21.07,0,1,1-42.13,0"/><path class="cls-3" d="M73.69,146.49a27.24,27.24,0,0,1-27.2-27.21,6.14,6.14,0,0,1,12.28,0,14.93,14.93,0,1,0,29.85,0,6.14,6.14,0,0,1,12.28,0A27.25,27.25,0,0,1,73.69,146.49Z"/><path class="cls-2" d="M210.92,119.28a21.07,21.07,0,1,1-42.13,0"/><path class="cls-3" d="M189.85,146.49a27.24,27.24,0,0,1-27.2-27.21,6.14,6.14,0,0,1,12.28,0,14.93,14.93,0,1,0,29.85,0,6.14,6.14,0,0,1,12.27,0A27.24,27.24,0,0,1,189.85,146.49Z"/><path class="cls-3" d="M41.76,73.46H14a6.14,6.14,0,1,1,0-12.28H41.58v-55a6.14,6.14,0,0,1,12.28,0V61.35A12.12,12.12,0,0,1,41.76,73.46Z"/><circle class="cls-3" cx="7" cy="90.37" r="7"/></g></g></svg>