<?xml version="1.0" encoding="utf-8"?>
<!-- Generator: Adobe Illustrator 22.1.0, SVG Export Plug-In . SVG Version: 6.00 Build 0)  -->
<svg version="1.1" id="Layer_1" xmlns="http://www.w3.org/2000/svg" xmlns:xlink="http://www.w3.org/1999/xlink" x="0px" y="0px"
	 viewBox="0 0 196 164" style="enable-background:new 0 0 196 164;" xml:space="preserve">
<g>
	<g style="opacity:0.3;">
		<polygon style="fill:#1F0044;" points="80.1,109.6 80.6,112.5 54.4,98.7 28.1,112.5 33.2,83.3 11.9,62.6 18.2,61.7 35.1,59.2 
			39.7,58.5 41.3,58.3 44.1,52.6 54.4,31.7 67.5,58.3 96.9,62.6 80,79 75.6,83.3 75.9,85.2 76.8,89.8 		"/>
	</g>
	<g style="opacity:0.3;">
		<polygon style="fill:#1F0044;" points="168.2,78.1 163,83.3 163,83.5 163,83.5 163.8,88.1 167.3,108.4 168,112.5 141.7,98.7 
			115.5,112.5 120.5,83.3 99.3,62.6 104.3,61.8 124.1,59 128.6,58.3 128.7,58.2 132,51.5 141.7,31.7 154.9,58.3 184.2,62.6 		"/>
	</g>
	<g style="opacity:0.2;">
		<polygon style="fill:#FCFCFC;" points="80.1,109.6 79.6,110.3 16.5,63.9 18.2,61.7 35.1,59.2 76.8,89.8 		"/>
	</g>
	<g style="opacity:0.2;">
		<polygon style="fill:#FCFCFC;" points="75.6,83.3 75.9,85.2 39.7,58.5 41.3,58.3 44.1,52.6 80,79 		"/>
	</g>
	<g style="opacity:0.2;">
		<polygon style="fill:#FCFCFC;" points="167.3,108.4 167,108.9 103.9,62.4 104.3,61.8 124.1,59 163.8,88.1 		"/>
	</g>
	<g style="opacity:0.2;">
		<polygon style="fill:#FCFCFC;" points="163,83.3 163,83.5 128.7,58.2 132,51.5 168.2,78.1 		"/>
	</g>
	<g>
		<path style="fill:#FFDE1A;" d="M28.2,116c-0.7,0-1.5-0.2-2.1-0.7c-1.1-0.8-1.6-2.1-1.4-3.4l4.7-27.4L9.5,65.1
			c-1-0.9-1.3-2.3-0.9-3.6c0.4-1.3,1.5-2.2,2.8-2.4l27.5-4l12.3-24.9c0.6-1.2,1.8-2,3.1-2s2.6,0.8,3.1,2l12.3,24.9l27.5,4
			c1.3,0.2,2.4,1.1,2.8,2.4c0.4,1.3,0.1,2.7-0.9,3.6L79.4,84.5l4.7,27.4c0.2,1.3-0.3,2.6-1.4,3.4c-1.1,0.8-2.5,0.9-3.7,0.3
			l-24.6-12.9l-24.6,12.9C29.3,115.9,28.7,116,28.2,116z M19.5,65l16.1,15.7c0.8,0.8,1.2,2,1,3.1l-3.8,22.2l20-10.5
			c1-0.5,2.2-0.5,3.3,0l20,10.5l-3.8-22.2c-0.2-1.1,0.2-2.3,1-3.1L89.3,65L67,61.8c-1.1-0.2-2.1-0.9-2.6-1.9l-10-20.2l-10,20.2
			c-0.5,1-1.5,1.8-2.6,1.9L19.5,65z"/>
	</g>
	<g>
		<path style="fill:#FFDE1A;" d="M115.5,116c-0.7,0-1.5-0.2-2.1-0.7c-1.1-0.8-1.6-2.1-1.4-3.4l4.7-27.4L96.8,65.1
			c-1-0.9-1.3-2.3-0.9-3.6c0.4-1.3,1.5-2.2,2.8-2.4l27.5-4l12.3-24.9c0.6-1.2,1.8-2,3.1-2l0,0c1.3,0,2.6,0.8,3.1,2l12.3,24.9l27.5,4
			c1.3,0.2,2.4,1.1,2.8,2.4c0.4,1.3,0.1,2.7-0.9,3.6l-19.9,19.4l4.7,27.4c0.2,1.3-0.3,2.6-1.4,3.4c-1.1,0.8-2.5,0.9-3.7,0.3
			l-24.6-12.9l-24.6,12.9C116.6,115.9,116.1,116,115.5,116z M106.8,65L123,80.8c0.8,0.8,1.2,2,1,3.1l-3.8,22.2l20-10.5
			c1-0.5,2.2-0.5,3.3,0l20,10.5l-3.8-22.2c-0.2-1.1,0.2-2.3,1-3.1L176.7,65l-22.3-3.2c-1.1-0.2-2.1-0.9-2.6-1.9l-10-20.2l-10,20.2
			c-0.5,1-1.5,1.8-2.6,1.9L106.8,65z"/>
	</g>
</g>
</svg>
