<?xml version="1.0" encoding="utf-8"?>
<!-- Generator: Adobe Illustrator 22.1.0, SVG Export Plug-In . SVG Version: 6.00 Build 0)  -->
<svg version="1.1" id="Layer_1" xmlns="http://www.w3.org/2000/svg" xmlns:xlink="http://www.w3.org/1999/xlink" x="0px" y="0px"
	 viewBox="0 0 196 164" style="enable-background:new 0 0 196 164;" xml:space="preserve">
<g>
	<g style="opacity:0.3;">
		<circle cx="146.1" cy="76.7" r="37.1"/>
	</g>
	<g style="opacity:0.3;">
		<circle cx="50.8" cy="76.7" r="37.1"/>
	</g>
	<g>
		<path style="fill:#FFFFFF;" d="M109,79.9H89.3c-1.7,0-3.1-1.4-3.1-3.1s1.4-3.1,3.1-3.1H109c1.7,0,3.1,1.4,3.1,3.1
			S110.7,79.9,109,79.9z"/>
	</g>
	<g>
		<path style="fill:#FFFFFF;" d="M146.1,117c-22.2,0-40.3-18.1-40.3-40.3s18.1-40.3,40.3-40.3c22.2,0,40.2,18.1,40.2,40.3
			S168.3,117,146.1,117z M146.1,42.8c-18.7,0-34,15.2-34,34s15.2,34,34,34s34-15.2,34-34S164.8,42.8,146.1,42.8z"/>
	</g>
	<g>
		<path style="fill:#FFFFFF;" d="M50.8,117c-22.2,0-40.3-18.1-40.3-40.3s18.1-40.3,40.3-40.3s40.3,18.1,40.3,40.3S73,117,50.8,117z
			 M50.8,42.8c-18.7,0-34,15.2-34,34s15.2,34,34,34s34-15.2,34-34S69.5,42.8,50.8,42.8z"/>
	</g>
	<g style="opacity:0.4;">
		
			<rect x="44.9" y="39" transform="matrix(0.866 -0.5 0.5 0.866 -31.2446 35.9257)" style="fill:#FFFFFF;" width="13.1" height="74.5"/>
	</g>
	<g style="opacity:0.4;">
		<polygon style="fill:#FFFFFF;" points="59.2,112.3 49.6,111.4 19.3,59 23.3,50.1 		"/>
	</g>
	<g style="opacity:0.4;">
		
			<rect x="140" y="39.2" transform="matrix(0.866 -0.5 0.5 0.866 -18.6076 83.5056)" style="fill:#FFFFFF;" width="13.1" height="74.5"/>
	</g>
	<g style="opacity:0.4;">
		<polygon style="fill:#FFFFFF;" points="154.3,112.5 144.7,111.6 114.4,59.2 118.4,50.3 		"/>
	</g>
</g>
</svg>
