<?xml version="1.0" encoding="utf-8"?>
<!-- Generator: Adobe Illustrator 22.1.0, SVG Export Plug-In . SVG Version: 6.00 Build 0)  -->
<svg version="1.1" id="Layer_1" xmlns="http://www.w3.org/2000/svg" xmlns:xlink="http://www.w3.org/1999/xlink" x="0px" y="0px"
	 viewBox="0 0 196 164" style="enable-background:new 0 0 196 164;" xml:space="preserve">
<g>
	
		<line style="fill:none;stroke:#FFB0DF;stroke-width:5;stroke-linecap:round;stroke-linejoin:round;stroke-miterlimit:10;" x1="85.2" y1="79" x2="112.8" y2="79"/>
	<g>
		<linearGradient id="SVGID_1_" gradientUnits="userSpaceOnUse" x1="47.6932" y1="51.9897" x2="47.6932" y2="113.8272">
			<stop  offset="0" style="stop-color:#F73786"/>
			<stop  offset="1" style="stop-color:#F77D7A"/>
		</linearGradient>
		<path style="opacity:0.8;fill:url(#SVGID_1_);" d="M85.7,71.4v0.5c0,0.1,0,0.3,0,0.4c-0.6,17.5-19.7,38-37.1,41.5
			c-17.3-3.5-38.1-25.7-38.8-41.5c0-0.1,0-0.3,0-0.4v-0.5C10.2,60.6,19.1,52,30,52c7.6,0,14.2,4.2,17.7,10.3
			C51.2,56.1,57.8,52,65.4,52C76.3,52,85.2,60.6,85.7,71.4z"/>
		<path style="opacity:0.2;fill:#FFFFFF;" d="M21.2,93.4c0,0,36.8-16.6,64-22.1c5.5-1.1-6.6-16.6-6.6-16.6l-17.7-2.2l-13.3,9.9
			l-9.9-11l-21.2,3.9L9,72.4L21.2,93.4z"/>
		<g>
			<g>
				<path style="fill:#FFB0DF;" d="M48.6,115.9c-0.1,0-0.3,0-0.4,0C30.1,112.2,8.5,89.1,7.7,72.5c0-0.2,0-0.4,0-0.6v-0.5
					c0,0,0-0.1,0-0.1C8.2,59.3,18,49.9,30,49.9c6.6,0,12.5,2.7,17.7,8.1c5.1-5.4,11.1-8.1,17.7-8.1c12,0,21.9,9.4,22.4,21.4
					c0,0,0,0.1,0,0.1v0.5c0,0.2,0,0.4,0,0.6C87,90.6,67.9,112.1,49,115.9C48.8,115.9,48.7,115.9,48.6,115.9z M11.8,71.5v0.4
					c0,0.1,0,0.1,0,0.2c0,0,0,0.1,0,0.2c0.7,14.7,20.5,36,36.8,39.5c16.8-3.6,34.4-23.4,35-39.5c0-0.1,0-0.1,0-0.2c0,0,0-0.1,0-0.1
					v-0.4c-0.4-9.8-8.4-17.4-18.2-17.4c-6.1,0-11.4,2.8-16.1,8.4c-0.8,0.9-2.4,0.9-3.2,0c-4.7-5.7-10-8.4-16.1-8.4
					C20.2,54.1,12.2,61.7,11.8,71.5z"/>
			</g>
		</g>
	</g>
	<g>
		<linearGradient id="SVGID_2_" gradientUnits="userSpaceOnUse" x1="147.9659" y1="52.1026" x2="147.9659" y2="113.9402">
			<stop  offset="0" style="stop-color:#F73786"/>
			<stop  offset="1" style="stop-color:#F77D7A"/>
		</linearGradient>
		<path style="opacity:0.8;fill:url(#SVGID_2_);" d="M185.9,71.5V72c0,0.1,0,0.3,0,0.4c-0.6,17.5-19.7,38-37.1,41.5
			c-17.3-3.5-38.1-25.7-38.8-41.5c0-0.1,0-0.3,0-0.4v-0.5c0.5-10.8,9.4-19.4,20.3-19.4c7.6,0,14.2,4.2,17.7,10.3
			c3.5-6.1,10.1-10.3,17.7-10.3C176.6,52.1,185.5,60.7,185.9,71.5z"/>
		<path style="opacity:0.2;fill:#FFFFFF;" d="M121.5,93.5c0,0,36.8-16.6,64-22.1c5.5-1.1-6.6-16.6-6.6-16.6l-17.7-2.2L148,62.6
			l-9.9-11l-21.2,3.9l-7.5,17.1L121.5,93.5z"/>
		<g>
			<g>
				<path style="fill:#FFB0DF;" d="M148.8,116c-0.1,0-0.3,0-0.4,0c-18.1-3.6-39.7-26.7-40.5-43.4c0-0.2,0-0.4,0-0.6v-0.5
					c0,0,0-0.1,0-0.1c0.5-12,10.3-21.4,22.4-21.4c6.6,0,12.5,2.7,17.7,8.1c5.1-5.4,11.1-8.1,17.7-8.1c12,0,21.9,9.4,22.4,21.4
					c0,0,0,0.1,0,0.1V72c0,0.2,0,0.4,0,0.6c-0.7,18.1-19.8,39.6-38.7,43.4C149.1,116,149,116,148.8,116z M112.1,71.6V72
					c0,0.1,0,0.1,0,0.2c0,0,0,0.1,0,0.2c0.7,14.7,20.5,36,36.8,39.5c16.8-3.6,34.4-23.4,35-39.5c0-0.1,0-0.1,0-0.2c0,0,0-0.1,0-0.1
					v-0.4c-0.4-9.8-8.4-17.4-18.2-17.4c-6.1,0-11.4,2.8-16.1,8.4c-0.8,0.9-2.4,0.9-3.2,0c-4.7-5.7-10-8.4-16.1-8.4
					C120.5,54.2,112.5,61.8,112.1,71.6z"/>
			</g>
		</g>
	</g>
</g>
</svg>
