<?xml version="1.0" encoding="utf-8"?>
<!-- Generator: Adobe Illustrator 22.1.0, SVG Export Plug-In . SVG Version: 6.00 Build 0)  -->
<svg version="1.1" id="Layer_1" xmlns="http://www.w3.org/2000/svg" xmlns:xlink="http://www.w3.org/1999/xlink" x="0px" y="0px"
	 viewBox="0 0 196 164" style="enable-background:new 0 0 196 164;" xml:space="preserve">
<g>
	<g>
		<path style="opacity:0.6;fill:#001477;" d="M83.4,85.8c-0.4,0.8-0.8,1.6-1.3,2.5c0,0,0,0,0,0c-0.5,1-1,2-1.6,3
			c-0.2,0.4-0.5,0.8-0.7,1.2c0,0,0,0,0,0c0,0.1-0.1,0.1-0.1,0.2c0,0,0,0,0,0c-0.3,0.5-0.7,1.1-1,1.6c-4,6-9,10.6-14.6,13.9
			c-0.5,0.3-1.1,0.6-1.6,0.9c-0.6,0.3-1.3,0.7-1.9,1c-0.7,0.3-1.3,0.6-2,0.9c-0.5,0.2-0.9,0.4-1.4,0.5c-0.4,0.2-0.9,0.3-1.3,0.5
			c-14.2,5-29.5,1.9-36.9-9.4c-4.6-7-7.1-15-7.4-22.8c0-0.9,0-1.7,0-2.6c0-0.5,0-0.9,0-1.4c0-0.5,0.1-0.9,0.1-1.4
			c1-11.3,6.8-21.5,18-26.9c17.2-8.2,40.2-6.6,51.7-2.5C92,49.1,94.9,62.8,83.4,85.8z"/>
		<path style="fill:#F4E25D;" d="M66.6,97.8c-0.3,5-2.1,8.7-4.1,11.4c-1.3,0.7-2.6,1.3-3.9,1.9c-0.5,0.2-0.9,0.4-1.4,0.5
			c-0.4,0.2-0.9,0.3-1.3,0.5c-14.2,5-29.5,1.9-36.9-9.4c-4.6-7-7.1-15-7.4-22.8c-0.1-1.3-0.1-2.6,0-3.9c1.3-1.6,3.4-3.9,5.8-5.3
			c0,0-2.5,9,0.8,9s5.7-0.8,4.1-4.9c0.2,0.2,4.8,3.4,2.5,8.2c-2.5,4.9-4.9,9-1.6,10.7s1.6-2.5,4.1-4.9c0,0-1.6,9,1.6,9
			s6.6-2.5,4.1-5.7c-2.5-3.3,0-6.6,0-6.6s0.8,4.9,2.5,5.7c1.6,0.8,5.7-4.9-0.8-9.8s-2.5-12.3-2.5-12.3s-0.8,7.4,3.3,7.4
			c4,0,5.7-9.4,2.7-12.1c1,0.9,5.2,5.1,3.1,13.8c-2.5,9.8,7.4,4.1,5.7-1.6c0,0,2.5,3.3,1.6,8.2c-0.4,2.5,2.7,3.5,5.4,2.9
			C54,87.6,67.1,90.8,66.6,97.8z"/>
		<path style="fill:#F73F14;" d="M54.2,86.8c-0.1,0-0.3,0-0.4,0c-1.6,0.4-3.3,0.1-4-0.6c-0.4-0.3-0.5-0.8-0.4-1.3
			c0.9-5.2-1.7-8.7-1.8-8.8c-0.2-0.3-0.7-0.4-1-0.2c-0.4,0.2-0.5,0.6-0.4,1c0.6,2.1-0.6,4.2-2.1,5.3c-0.8,0.5-1.5,0.7-1.9,0.5
			c-0.5-0.3-0.8-1.6-0.1-4.2c2.3-9.2-2.4-13.8-3.3-14.6c-0.3-0.3-0.9-0.2-1.1,0.1c-0.3,0.3-0.3,0.8,0.1,1.1c1.4,1.3,1.7,5,0.5,8
			c-0.3,0.8-1.2,2.7-2.7,2.7c-0.6,0-1-0.2-1.4-0.6c-1.2-1.4-1.2-4.7-1-5.9c0-0.4-0.2-0.8-0.6-0.9c-0.4-0.1-0.8,0-1,0.4
			c0,0.1-4.4,8.1,2.7,13.4c4.1,3.1,3.3,6.1,3,6.9c-0.4,1.1-1.1,1.6-1.3,1.5c-0.8-0.4-1.7-3-2-5.1c0-0.3-0.3-0.6-0.6-0.7
			c-0.3-0.1-0.7,0-0.9,0.3c-1,1.3-2.2,4.6,0,7.5c0.7,0.9,0.9,1.8,0.5,2.6c-0.5,1.1-2.2,1.9-3.9,1.9c-0.2,0-0.4-0.1-0.5-0.3
			c-1-1.2-0.7-5.4-0.3-7.8c0.1-0.4-0.1-0.7-0.4-0.9c-0.3-0.2-0.7-0.1-1,0.1c-1.2,1.2-1.6,2.7-1.8,3.8c-0.1,0.5-0.3,1.2-0.4,1.3
			c0,0-0.2,0.1-0.9-0.3c-0.5-0.3-0.9-0.6-1-1.1c-0.5-1.5,0.9-4.3,2.4-7.3l0.6-1.2c2.7-5.4-2.5-9.1-2.7-9.2c-0.3-0.2-0.7-0.2-1,0
			c-0.3,0.2-0.4,0.6-0.2,0.9c0.4,0.9,0.7,2.1,0.2,2.8c-0.4,0.6-1.6,1-3.6,1c-0.2,0-0.3-0.1-0.5-0.2c-0.9-1.1-0.3-5.2,0.4-7.8
			c0.1-0.3,0-0.7-0.3-0.9c-0.3-0.2-0.6-0.2-0.9,0c-2.1,1.2-3.9,3.1-5.3,4.6c0,0.5-0.1,0.9-0.1,1.4c0,0.5,0,0.9,0,1.4
			c0.9-1.2,2.6-3.2,4.6-4.8c-0.4,2.3-0.8,5.6,0.3,7.1c0.4,0.6,1,0.9,1.8,0.9c1.8,0,3.9-0.2,4.9-1.7c0.3-0.4,0.5-1,0.5-1.5
			c0.9,1.3,1.5,3.1,0.4,5.3l-0.6,1.2c-1.7,3.4-3.2,6.3-2.5,8.5c0.3,0.9,0.9,1.6,1.8,2c0.6,0.3,1.5,0.7,2.3,0.3
			c0.4-0.2,0.7-0.5,0.9-1c0,1.6,0.3,3.1,1.1,4c0.5,0.6,1.1,0.9,1.8,0.9c2.4,0,4.6-1.1,5.4-2.8c0.7-1.3,0.4-2.8-0.7-4.3
			c-0.9-1.2-1-2.4-0.9-3.4c0.5,1.5,1.2,3.3,2.3,3.8c1,0.5,2.3-0.1,3.1-1.5c1.6-2.5,1.2-6.5-3.1-9.7c-2.7-2.1-3.5-4.6-3.4-6.7
			c0.2,0.8,0.6,1.5,1.1,2.1c0.7,0.8,1.6,1.2,2.6,1.2c1.7,0,3.3-1.4,4.2-3.7c0.5-1.2,0.7-2.5,0.8-3.9c0.6,2,0.8,4.8-0.1,8.3
			c-1,3.8-0.1,5.4,0.8,6c1,0.7,2.4,0.5,3.8-0.5c1.1-0.8,2.1-2,2.6-3.4c0.3,1.2,0.5,2.8,0.2,4.6c-0.2,1.1,0.1,2,0.9,2.7
			c1.1,1.1,3.2,1.5,5.3,1.1c1.5,0.4,12.2,3.5,11.8,9.4c-0.4,5.9-2.7,9.8-5.2,12.4c0.6-0.3,1.3-0.6,1.9-1c0.5-0.3,1.1-0.6,1.6-0.9
			c1.7-2.6,3-6,3.3-10.4C67.9,90.3,54.8,86.9,54.2,86.8z"/>
		<path style="fill:#F4E25D;" d="M81.4,83c-3.3,3.3-4.9,0.8-4.1-3.3s-4.9-6.6-4.9-6.6c2.5,2.5,1.6,12.3-3.3,8.2
			c-4.9-4.1-1.6-12.3-1.6-12.3s-7.4,2.5-4.1,10.7c1.6,4.1-0.8,6.4-3.6,7c0,0-3-1.2-3.8-4.5c0,0-6.6,5.7-1.6,13.9s-5.7,6.6-5.7,0.8
			c0,0-3.6,11.6,8.7,14.6c0.5-0.2,0.9-0.4,1.4-0.5c7.6-3.2,14.8-8.8,20.1-16.8c0.3-0.5,0.7-1,1-1.6c0,0,0,0,0,0
			c0.2-0.4,0.5-0.9,0.9-1.5c0.8-1.1,1.3-2.1,1.6-3c0,0,0,0,0,0C83.5,84.6,81.4,83,81.4,83z"/>
		<path style="fill:#F73F14;" d="M81.9,82.4c-0.3-0.2-0.8-0.2-1.1,0.1c-1.2,1.2-2,1.4-2.3,1.2c-0.5-0.3-0.8-1.7-0.4-3.8
			c0.9-4.7-5.1-7.4-5.4-7.5c-0.4-0.2-0.8,0-1,0.3c-0.2,0.3-0.2,0.8,0.1,1c1.4,1.4,1.5,6,0.2,7.4c-0.2,0.2-0.8,0.9-2.3-0.4
			c-4.4-3.7-1.4-11.3-1.4-11.4c0.1-0.3,0-0.6-0.2-0.9c-0.2-0.2-0.5-0.3-0.9-0.2c-0.1,0-3.4,1.1-4.8,4.3c-1,2.1-0.9,4.6,0.2,7.5
			c0.6,1.5,0.6,2.8,0.1,3.8c-0.5,1-1.5,1.7-2.8,2c-0.6-0.3-2.5-1.5-3.1-3.8c-0.1-0.3-0.3-0.5-0.5-0.6c-0.3-0.1-0.6,0-0.8,0.2
			c-0.1,0.1-7,6.3-1.8,15c1.1,1.9,1.5,3.4,0.9,4c-0.4,0.5-1.3,0.5-2.3,0.2c-1.4-0.5-2.9-1.9-2.9-3.8c0-0.4-0.3-0.8-0.7-0.8
			c-0.4-0.1-0.8,0.2-0.9,0.6c-0.1,0.2-1.7,5.8,1.2,10.4c1,1.5,2.3,2.8,4,3.7c0.9,0.5,1.8,0.9,2.9,1.2c0.4-0.2,0.9-0.3,1.3-0.5
			c0.5-0.2,0.9-0.4,1.4-0.5c-3.9-0.7-6.6-2.3-8.2-4.8c-1.3-2-1.5-4.2-1.5-6c0.7,1,1.8,1.6,2.8,2c1.7,0.6,3.3,0.3,4.1-0.7
			c0.7-0.9,1.2-2.6-0.8-5.9c-3.5-5.8-0.9-10.2,0.6-12c1.2,2.6,3.7,3.7,3.8,3.7c0.2,0.1,0.3,0.1,0.5,0c1.9-0.4,3.4-1.5,4.2-2.9
			c0.5-1,1-2.7,0-5.2c-1-2.4-1-4.4-0.3-6.1c0.5-1.2,1.4-2,2.2-2.6c-0.7,2.8-1.3,8.1,2.5,11.3c2.5,2.1,4.1,0.9,4.6,0.3
			c1.3-1.4,1.7-4.6,1.1-7c1.3,1,2.6,2.5,2.2,4.3c-0.5,2.8-0.1,4.8,1.2,5.5c0.7,0.4,1.9,0.5,3.6-0.9c0.6,0.9,1.2,3-1.4,6.6
			c-1.2,1.7-1.4,2.8-1.2,3.5c0.3-0.5,0.7-1,1-1.6c0,0,0,0,0,0c0-0.1,0.1-0.1,0.1-0.2c0,0,0,0,0,0c0.2-0.4,0.5-0.8,0.7-1.2
			c0.6-1,1.1-2,1.6-3c0,0,0,0,0,0c0.4-0.8,0.9-1.7,1.3-2.5C83.4,83.6,82,82.5,81.9,82.4z"/>
		<g>
			<linearGradient id="SVGID_1_" gradientUnits="userSpaceOnUse" x1="51.1836" y1="41.0292" x2="51.1836" y2="115.2993">
				<stop  offset="0" style="stop-color:#FFFFAB"/>
				<stop  offset="1" style="stop-color:#AA4B00"/>
			</linearGradient>
			<path style="fill:url(#SVGID_1_);" d="M58.7,41.5c9.1,0,17.4,1.4,23,3.4c11.5,4.1,14.1,19.9-0.8,46.4c-0.2,0.4-0.5,0.8-0.7,1.3
				c0,0,0,0,0,0c-8.9,14.7-24,22.1-37.5,22.1c-9.8,0-18.8-3.9-23.9-11.8c-4.6-7.1-7.2-15.1-7.5-23c-0.6-13.4,5.2-26.3,18.3-32.5
				C38.5,43.2,49,41.5,58.7,41.5 M58.7,41L58.7,41c-7.7,0-19.1,1-29.5,6C16.9,52.9,10,65.2,10.7,80c0.4,8.2,3,16.2,7.6,23.3
				c5,7.6,13.9,12,24.4,12c15.1,0,29.6-8.6,37.9-22.3l0,0l0-0.1c0.3-0.4,0.5-0.8,0.7-1.3C93,70.8,92.8,59.1,90.5,53
				c-1.5-4.1-4.5-7-8.6-8.5C75.7,42.3,67.3,41,58.7,41L58.7,41z"/>
		</g>
		<path style="opacity:0.6;fill:none;stroke:#FF9D31;stroke-miterlimit:10;" d="M83.4,85.8c-0.4,0.8-0.8,1.6-1.3,2.5c0,0,0,0,0,0
			c-0.5,1-1,2-1.6,3c-0.2,0.4-0.5,0.8-0.7,1.2c0,0,0,0,0,0c0,0.1-0.1,0.1-0.1,0.2c0,0,0,0,0,0c-0.3,0.5-0.7,1.1-1,1.6
			c-4,6-9,10.6-14.6,13.9c-0.5,0.3-1.1,0.6-1.6,0.9c-0.6,0.3-1.3,0.7-1.9,1c-0.7,0.3-1.3,0.6-2,0.9c-0.5,0.2-0.9,0.4-1.4,0.5
			c-0.4,0.2-0.9,0.3-1.3,0.5c-14.2,5-29.5,1.9-36.9-9.4c-4.6-7-7.1-15-7.4-22.8c0-0.9,0-1.7,0-2.6c0-0.5,0-0.9,0-1.4
			c0-0.5,0.1-0.9,0.1-1.4c1-11.3,6.8-21.5,18-26.9c17.2-8.2,40.2-6.6,51.7-2.5C92,49.1,94.9,62.8,83.4,85.8z"/>
	</g>
	<g>
		<path style="opacity:0.6;fill:#001477;" d="M119,85.8c0.4,0.8,0.8,1.6,1.3,2.5c0,0,0,0,0,0c0.5,1,1,2,1.6,3
			c0.2,0.4,0.5,0.8,0.7,1.2c0,0,0,0,0,0c0,0.1,0.1,0.1,0.1,0.2c0,0,0,0,0,0c0.3,0.5,0.7,1.1,1,1.6c4,6,9,10.6,14.6,13.9
			c0.5,0.3,1.1,0.6,1.6,0.9c0.6,0.3,1.3,0.7,1.9,1c0.7,0.3,1.3,0.6,2,0.9c0.5,0.2,0.9,0.4,1.4,0.5c0.4,0.2,0.9,0.3,1.3,0.5
			c14.2,5,29.5,1.9,36.9-9.4c4.6-7,7.1-15,7.4-22.8c0-0.9,0-1.7,0-2.6c0-0.5,0-0.9,0-1.4c0-0.5-0.1-0.9-0.1-1.4
			c-1-11.3-6.8-21.5-18-26.9c-17.2-8.2-40.2-6.6-51.7-2.5C110.4,49.1,107.5,62.8,119,85.8z"/>
		<path style="fill:#F4E25D;" d="M135.8,97.8c0.3,5,2.1,8.7,4.1,11.4c1.3,0.7,2.6,1.3,3.9,1.9c0.5,0.2,0.9,0.4,1.4,0.5
			c0.4,0.2,0.9,0.3,1.3,0.5c14.2,5,29.5,1.9,36.9-9.4c4.6-7,7.1-15,7.4-22.8c0.1-1.3,0.1-2.6,0-3.9c-1.3-1.6-3.4-3.9-5.8-5.3
			c0,0,2.5,9-0.8,9s-5.7-0.8-4.1-4.9c-0.2,0.2-4.8,3.4-2.5,8.2c2.5,4.9,4.9,9,1.6,10.7c-3.3,1.6-1.6-2.5-4.1-4.9c0,0,1.6,9-1.6,9
			c-3.3,0-6.6-2.5-4.1-5.7c2.5-3.3,0-6.6,0-6.6s-0.8,4.9-2.5,5.7s-5.7-4.9,0.8-9.8c6.6-4.9,2.5-12.3,2.5-12.3s0.8,7.4-3.3,7.4
			c-4,0-5.7-9.4-2.7-12.1c-1,0.9-5.2,5.1-3.1,13.8c2.5,9.8-7.4,4.1-5.7-1.6c0,0-2.5,3.3-1.6,8.2c0.4,2.5-2.7,3.5-5.4,2.9
			C148.4,87.6,135.4,90.8,135.8,97.8z"/>
		<path style="fill:#F73F14;" d="M135,97.9c0.3,4.4,1.6,7.8,3.3,10.4c0.5,0.3,1.1,0.6,1.6,0.9c0.6,0.3,1.3,0.7,1.9,1
			c-2.5-2.6-4.8-6.6-5.2-12.4c-0.4-5.8,10.3-8.9,11.8-9.4c2.1,0.4,4.2,0,5.3-1.1c0.8-0.7,1.1-1.7,0.9-2.7c-0.3-1.8-0.1-3.4,0.2-4.6
			c0.5,1.4,1.5,2.7,2.6,3.4c1.4,1,2.8,1.2,3.8,0.5c0.9-0.6,1.8-2.1,0.8-6c-0.9-3.5-0.7-6.2-0.1-8.3c0.1,1.4,0.3,2.7,0.8,3.9
			c0.9,2.4,2.5,3.7,4.2,3.7c1,0,2-0.4,2.6-1.2c0.5-0.6,0.9-1.3,1.1-2.1c0,2.1-0.7,4.6-3.4,6.7c-4.3,3.2-4.6,7.2-3.1,9.7
			c0.9,1.4,2.1,2,3.1,1.5c1.1-0.5,1.8-2.3,2.3-3.8c0.1,1,0,2.2-0.9,3.4c-1.1,1.4-1.3,3-0.7,4.3c0.8,1.7,3,2.8,5.4,2.8
			c0.7,0,1.3-0.3,1.8-0.9c0.7-0.9,1-2.4,1.1-4c0.2,0.4,0.5,0.8,0.9,1c0.8,0.4,1.7,0,2.3-0.3c0.9-0.5,1.6-1.1,1.8-2
			c0.7-2.2-0.8-5.1-2.5-8.5l-0.6-1.2c-1.1-2.2-0.5-4.1,0.4-5.3c0,0.6,0.2,1.1,0.5,1.5c1,1.5,3.2,1.7,4.9,1.7c0.7,0,1.3-0.3,1.8-0.9
			c1.2-1.5,0.8-4.8,0.3-7.1c2,1.6,3.6,3.5,4.6,4.8c0-0.5,0-0.9,0-1.4c0-0.5-0.1-0.9-0.1-1.4c-1.4-1.5-3.2-3.4-5.3-4.6
			c-0.3-0.2-0.7-0.2-0.9,0c-0.3,0.2-0.4,0.5-0.3,0.9c0.7,2.6,1.3,6.6,0.4,7.8c-0.1,0.2-0.2,0.2-0.5,0.2c-2,0-3.1-0.3-3.6-1
			c-0.5-0.7-0.1-1.9,0.2-2.8c0.1-0.3,0-0.7-0.2-0.9c-0.3-0.2-0.7-0.2-1,0c-0.2,0.2-5.4,3.8-2.7,9.2l0.6,1.2c1.5,3,2.9,5.7,2.4,7.3
			c-0.1,0.5-0.5,0.8-1,1.1c-0.7,0.4-0.9,0.3-0.9,0.3c-0.1-0.1-0.3-0.8-0.4-1.3c-0.3-1.1-0.6-2.6-1.8-3.8c-0.3-0.3-0.6-0.3-1-0.1
			c-0.3,0.2-0.5,0.5-0.4,0.9c0.4,2.4,0.7,6.6-0.3,7.8c-0.2,0.2-0.3,0.3-0.5,0.3c-1.7,0-3.4-0.8-3.9-1.9c-0.4-0.8-0.2-1.6,0.5-2.6
			c2.2-3,1-6.2,0-7.5c-0.2-0.3-0.5-0.4-0.9-0.3c-0.3,0.1-0.6,0.3-0.6,0.7c-0.4,2.2-1.2,4.8-2,5.1c-0.1,0-0.9-0.4-1.3-1.5
			c-0.3-0.9-1.1-3.9,3-6.9c7.1-5.3,2.7-13.3,2.7-13.4c-0.2-0.3-0.6-0.5-1-0.4c-0.4,0.1-0.6,0.5-0.6,0.9c0.1,1.2,0.2,4.5-1,5.9
			c-0.4,0.4-0.8,0.6-1.4,0.6c-1.5,0-2.4-1.9-2.7-2.7c-1.1-2.9-0.9-6.7,0.5-8c0.3-0.3,0.4-0.8,0.1-1.1c-0.3-0.3-0.8-0.4-1.1-0.1
			c-1,0.8-5.6,5.4-3.3,14.6c0.6,2.6,0.4,3.9-0.1,4.2c-0.4,0.3-1.1,0.1-1.9-0.5c-1.5-1.1-2.7-3.3-2.1-5.3c0.1-0.4-0.1-0.8-0.4-1
			c-0.4-0.2-0.8-0.1-1,0.2c-0.1,0.1-2.7,3.6-1.8,8.8c0.1,0.5,0,0.9-0.4,1.3c-0.8,0.7-2.4,1-4,0.6c-0.1,0-0.3,0-0.4,0
			C147.7,86.9,134.5,90.3,135,97.9z"/>
		<path style="fill:#F4E25D;" d="M120.2,88.3C120.2,88.3,120.2,88.3,120.2,88.3c0.3,0.9,0.8,1.9,1.6,3c0.4,0.6,0.7,1,0.9,1.5
			c0,0,0,0,0,0c0.3,0.5,0.7,1.1,1,1.6c5.3,7.9,12.4,13.5,20.1,16.8c0.5,0.2,0.9,0.4,1.4,0.5c12.2-3,8.7-14.6,8.7-14.6
			c0,5.7-10.7,7.4-5.7-0.8s-1.6-13.9-1.6-13.9c-0.8,3.3-3.8,4.5-3.8,4.5c-2.8-0.6-5.2-2.9-3.6-7c3.3-8.2-4.1-10.7-4.1-10.7
			s3.3,8.2-1.6,12.3c-4.9,4.1-5.7-5.7-3.3-8.2c0,0-5.7,2.5-4.9,6.6s-0.8,6.6-4.1,3.3C121,83,118.9,84.6,120.2,88.3z"/>
		<path style="fill:#F73F14;" d="M119,85.8c0.4,0.8,0.8,1.6,1.3,2.5c0,0,0,0,0,0c0.5,1,1,2,1.6,3c0.2,0.4,0.5,0.8,0.7,1.2
			c0,0,0,0,0,0c0,0.1,0.1,0.1,0.1,0.2c0,0,0,0,0,0c0.3,0.5,0.7,1.1,1,1.6c0.2-0.7,0-1.8-1.2-3.5c-2.6-3.6-2-5.7-1.4-6.6
			c1.7,1.4,2.9,1.3,3.6,0.9c1.3-0.7,1.8-2.8,1.2-5.5c-0.4-1.8,0.9-3.3,2.2-4.3c-0.6,2.5-0.2,5.6,1.1,7c0.5,0.6,2.1,1.8,4.6-0.3
			c3.8-3.2,3.2-8.4,2.5-11.3c0.8,0.5,1.7,1.4,2.2,2.6c0.8,1.7,0.7,3.8-0.3,6.1c-1,2.4-0.5,4.1,0,5.2c0.8,1.4,2.3,2.5,4.2,2.9
			c0.2,0,0.3,0,0.5,0c0.1,0,2.6-1.1,3.8-3.7c1.5,1.8,4.1,6.2,0.6,12c-2,3.3-1.5,5-0.8,5.9c0.8,1,2.4,1.3,4.1,0.7
			c1-0.4,2.1-1.1,2.8-2c0.1,1.8-0.2,4-1.5,6c-1.6,2.5-4.3,4.1-8.2,4.8c0.5,0.2,0.9,0.4,1.4,0.5c0.4,0.2,0.9,0.3,1.3,0.5
			c1.1-0.3,2-0.7,2.9-1.2c1.7-1,3-2.2,4-3.7c2.9-4.7,1.3-10.2,1.2-10.4c-0.1-0.4-0.5-0.6-0.9-0.6c-0.4,0.1-0.7,0.4-0.7,0.8
			c0,1.9-1.5,3.3-2.9,3.8c-1,0.4-1.9,0.3-2.3-0.2c-0.5-0.6-0.2-2.1,0.9-4c5.2-8.7-1.7-14.9-1.8-15c-0.2-0.2-0.5-0.2-0.8-0.2
			c-0.3,0.1-0.5,0.3-0.5,0.6c-0.6,2.4-2.4,3.5-3.1,3.8c-1.3-0.4-2.3-1.1-2.8-2c-0.5-1-0.5-2.3,0.1-3.8c1.1-2.8,1.2-5.3,0.2-7.5
			c-1.5-3.1-4.7-4.2-4.8-4.3c-0.3-0.1-0.6,0-0.9,0.2c-0.2,0.2-0.3,0.6-0.2,0.9c0,0.1,3,7.7-1.4,11.4c-1.6,1.3-2.1,0.7-2.3,0.4
			c-1.3-1.5-1.2-6,0.2-7.4c0.3-0.3,0.3-0.7,0.1-1c-0.2-0.3-0.6-0.5-1-0.3c-0.3,0.1-6.3,2.8-5.4,7.5c0.4,2.1,0.1,3.5-0.4,3.8
			c-0.3,0.2-1.1,0-2.3-1.2c-0.3-0.3-0.7-0.3-1.1-0.1C120.4,82.5,119,83.6,119,85.8z"/>
		<g>
			<linearGradient id="SVGID_2_" gradientUnits="userSpaceOnUse" x1="151.233" y1="41.0292" x2="151.233" y2="115.2993">
				<stop  offset="0" style="stop-color:#FFFFAB"/>
				<stop  offset="1" style="stop-color:#AA4B00"/>
			</linearGradient>
			<path style="fill:url(#SVGID_2_);" d="M143.7,41.5c9.7,0,20.2,1.6,29.2,5.9c13.1,6.2,18.9,19.1,18.3,32.5c-0.3,7.9-2.9,16-7.5,23
				c-5.1,7.9-14.1,11.8-23.9,11.8c-13.5,0-28.6-7.4-37.5-22.1c0,0,0,0,0,0c-0.2-0.4-0.5-0.8-0.7-1.3c-14.9-26.5-12.4-42.3-0.8-46.4
				C126.3,43,134.6,41.5,143.7,41.5 M143.7,41c-8.6,0-17,1.3-23.2,3.5c-4.1,1.5-7.1,4.4-8.6,8.5c-2.3,6.1-2.6,17.8,9.2,38.7
				c0.2,0.4,0.5,0.9,0.7,1.3l0,0.1l0,0c8.3,13.8,22.8,22.3,37.9,22.3c10.5,0,19.4-4.4,24.4-12c4.6-7.1,7.2-15.1,7.6-23.3
				c0.7-14.8-6.3-27.1-18.6-33C162.8,42.1,151.4,41,143.7,41L143.7,41z"/>
		</g>
		<path style="opacity:0.6;fill:none;stroke:#FF9D31;stroke-miterlimit:10;" d="M119,85.8c0.4,0.8,0.8,1.6,1.3,2.5c0,0,0,0,0,0
			c0.5,1,1,2,1.6,3c0.2,0.4,0.5,0.8,0.7,1.2c0,0,0,0,0,0c0,0.1,0.1,0.1,0.1,0.2c0,0,0,0,0,0c0.3,0.5,0.7,1.1,1,1.6
			c4,6,9,10.6,14.6,13.9c0.5,0.3,1.1,0.6,1.6,0.9c0.6,0.3,1.3,0.7,1.9,1c0.7,0.3,1.3,0.6,2,0.9c0.5,0.2,0.9,0.4,1.4,0.5
			c0.4,0.2,0.9,0.3,1.3,0.5c14.2,5,29.5,1.9,36.9-9.4c4.6-7,7.1-15,7.4-22.8c0-0.9,0-1.7,0-2.6c0-0.5,0-0.9,0-1.4
			c0-0.5-0.1-0.9-0.1-1.4c-1-11.3-6.8-21.5-18-26.9c-17.2-8.2-40.2-6.6-51.7-2.5C110.4,49.1,107.5,62.8,119,85.8z"/>
	</g>
	<g>
		<linearGradient id="SVGID_3_" gradientUnits="userSpaceOnUse" x1="101.1939" y1="58.5733" x2="101.1939" y2="64.4435">
			<stop  offset="0" style="stop-color:#FFFFAB"/>
			<stop  offset="1" style="stop-color:#AA4B00"/>
		</linearGradient>
		<path style="fill:url(#SVGID_3_);" d="M91.6,64.4c-0.2,0-0.4,0-0.4,0l0.1-0.4c0.1,0,3,0.4,5.1-3c0.8-1.3,3-2.4,5.1-2.4
			c2.1-0.1,4,0.9,5.1,2.4c1.6,2.4,4.6,3,4.6,3l-0.1,0.4c-0.1,0-3.2-0.7-4.9-3.2c-1-1.4-2.8-2.3-4.7-2.2c-1.9,0.1-4,1-4.8,2.2
			C94.9,64.1,92.5,64.4,91.6,64.4z"/>
	</g>
	<g>
		<linearGradient id="SVGID_4_" gradientUnits="userSpaceOnUse" x1="101.2231" y1="59" x2="101.2231" y2="65.311">
			<stop  offset="0" style="stop-color:#FFE064"/>
			<stop  offset="1" style="stop-color:#FF982D"/>
		</linearGradient>
		<path style="fill:url(#SVGID_4_);" d="M111.1,65.3c-0.2,0-3.8-0.9-5.3-3.5c-0.7-1.2-2.2-2-4-2c-2,0-3.8,0.9-4.7,2.3
			c-2.1,3.3-5.7,3.2-5.9,3.2l0-0.8c0.1,0,3.3,0.1,5.2-2.8c1.1-1.7,3.1-2.7,5.3-2.7c0,0,0.1,0,0.1,0c2,0,3.8,0.9,4.6,2.4
			c1.4,2.3,4.7,3.1,4.8,3.1L111.1,65.3z"/>
	</g>
</g>
</svg>
