<?xml version="1.0" encoding="utf-8"?>
<!-- Generator: Adobe Illustrator 22.1.0, SVG Export Plug-In . SVG Version: 6.00 Build 0)  -->
<svg version="1.1" id="Layer_1" xmlns="http://www.w3.org/2000/svg" xmlns:xlink="http://www.w3.org/1999/xlink" x="0px" y="0px"
	 viewBox="0 0 196 164" style="enable-background:new 0 0 196 164;" xml:space="preserve">
<g>
	<rect x="85.9" y="80.4" style="fill:#FAFF3E;" width="24.3" height="5"/>
	<rect x="86" y="77.9" style="fill:#FFFFFF;" width="24.3" height="2.5"/>
	<g>
		<path style="fill:#FAFF3E;" d="M59,46.9c0,0.2,0,0.4,0,0.6c0,0.6-0.2,1.1-0.3,1.6c0,0.1-0.1,0.2-0.1,0.3c0-0.1,0-0.2,0-0.3
			c-2.3-0.5-4.6-0.7-7-0.7c-2.1,0-4.2,0.2-6.2,0.6c-0.3,0.1-0.6,0.1-0.9,0.2c-0.2-0.7-0.3-1.5-0.3-2.2c0-0.4,0-0.9,0.1-1.3
			c0.6-3.5,3.6-6.2,7.3-6.2C55.7,39.5,59,42.8,59,46.9z"/>
		<path style="fill:#FAFF3E;" d="M72.7,53.1c-0.1,0.2-0.2,0.5-0.4,0.7c0,0,0,0,0,0c-0.2,0.4-0.5,0.8-0.8,1.2c0,0-0.1,0.1-0.1,0.1
			c0,0,0-0.1,0.1-0.1c-3.7-2.8-8.1-4.8-12.8-5.8c0,0.1-0.1,0.2-0.1,0.3c0-0.1,0-0.2,0-0.3c0.1-0.6,0.2-1.1,0.4-1.6
			c0.1-0.2,0.1-0.4,0.2-0.5c1.7-3.7,6.1-5.4,9.8-3.7C72.8,45,74.4,49.4,72.7,53.1z"/>
		<path style="fill:#FAFF3E;" d="M82.7,64.4c-0.1,0.1-0.3,0.3-0.5,0.4c-0.4,0.3-0.9,0.6-1.4,0.8c-0.1,0-0.2,0.1-0.3,0.1
			c0.1-0.1,0.2-0.1,0.3-0.2c-2.3-4.2-5.4-7.8-9.2-10.6c0,0-0.1,0.1-0.1,0.1c0,0,0-0.1,0.1-0.1c0.2-0.4,0.5-0.8,0.9-1.1c0,0,0,0,0,0
			c0.2-0.2,0.4-0.4,0.6-0.6c3.1-2.7,7.8-2.4,10.5,0.7C86.1,57.1,85.8,61.8,82.7,64.4z"/>
		<path style="fill:#FAFF3E;" d="M87,78.8c-0.1,0-0.2,0-0.2,0.1c-0.7,0.2-1.3,0.3-2,0.2c-0.2,0-0.5,0-0.7,0c0.2-0.1,0.4-0.1,0.7-0.1
			c-0.4-4.8-1.8-9.3-4-13.3c-0.1,0-0.2,0.1-0.3,0.1c0.1-0.1,0.2-0.1,0.3-0.2c0.4-0.3,0.9-0.6,1.5-0.8c0.2-0.1,0.4-0.1,0.6-0.2
			c3.9-1.2,8.1,1.1,9.2,5C93.1,73.5,90.9,77.7,87,78.8z"/>
		<path style="fill:#FAFF3E;" d="M93.4,87.3c-0.5,4.1-4.3,6.9-8.3,6.4c-0.2,0-0.4-0.1-0.6-0.1c-0.5-0.1-1.1-0.3-1.6-0.5
			c-0.1,0-0.2-0.1-0.3-0.2c0.1,0,0.2,0.1,0.4,0.1c1.3-3.5,2-7.3,2-11.3c0-0.8,0-1.7-0.1-2.5c-0.2,0-0.5,0-0.7,0
			c0.2-0.1,0.4-0.1,0.7-0.1c0.6-0.1,1.3-0.1,2-0.1c0.1,0,0.2,0,0.3,0C91.1,79.5,93.9,83.2,93.4,87.3z"/>
		<path style="fill:#FAFF3E;" d="M87.3,104c-2.2,3.5-6.8,4.5-10.2,2.3c-0.2-0.1-0.5-0.3-0.7-0.5c-0.4-0.3-0.7-0.6-1-1
			c0,0-0.1-0.1-0.1-0.1c0,0,0.1,0.1,0.1,0.1c3.3-3.4,5.9-7.4,7.5-11.9c-0.1,0-0.2-0.1-0.3-0.2c0.1,0,0.2,0.1,0.4,0.1
			c0.5,0.1,1,0.3,1.5,0.6c0.2,0.1,0.3,0.2,0.5,0.3C88.4,96,89.5,100.5,87.3,104z"/>
		<path style="fill:#FAFF3E;" d="M74.8,116.8c-3,2-6.9,1.5-9.4-1c-0.3-0.3-0.6-0.7-0.9-1.1c-0.4-0.6-0.7-1.3-0.9-2
			c0.3-0.1,0.7-0.3,1-0.4c4.1-1.7,7.8-4.2,10.8-7.4c0,0-0.1-0.1-0.1-0.1c0,0,0.1,0.1,0.1,0.1c0.4,0.3,0.7,0.6,1,1
			c0.2,0.2,0.3,0.4,0.5,0.7C79.1,109.9,78.2,114.6,74.8,116.8z"/>
		<path style="fill:#FAFF3E;" d="M65.4,115.8c0,3.5-2.5,6.6-6.1,7.2c-4,0.8-7.9-1.9-8.6-5.9c0-0.2-0.1-0.4-0.1-0.6
			c-0.1-0.6-0.1-1.1,0-1.6c0-0.1,0-0.2,0-0.3c0,0.1,0,0.2,0,0.3c0.3,0,0.6,0,1,0c4.2,0,8.2-0.8,11.9-2.2c0.3-0.1,0.7-0.3,1-0.4
			c0.3,0.6,0.6,1.3,0.7,2.1C65.4,114.8,65.4,115.3,65.4,115.8z"/>
		<path style="fill:#FAFF3E;" d="M50.6,116.5c0,0.2-0.1,0.4-0.1,0.6c-1,4-5,6.4-9,5.4c-4-1-6.4-5-5.4-9c0-0.2,0.1-0.4,0.2-0.6
			c0.2-0.5,0.4-1,0.7-1.5c0.1-0.1,0.1-0.2,0.2-0.3c0,0.1-0.1,0.2-0.1,0.3c4.1,2,8.7,3.2,13.6,3.4c0-0.1,0-0.2,0-0.3
			c0,0.1,0,0.2,0,0.3C50.7,115.4,50.7,115.9,50.6,116.5z"/>
		<path style="fill:#FAFF3E;" d="M37.1,111.2c0,0.1-0.1,0.2-0.1,0.3c-0.2,0.5-0.4,1-0.7,1.4c-0.1,0.2-0.2,0.3-0.3,0.5
			c-2.5,3.2-7.2,3.8-10.4,1.2c-2.9-2.3-3.6-6.2-1.9-9.3c0.2-0.4,0.4-0.8,0.7-1.1c0.5-0.6,1-1.1,1.6-1.5c0.2,0.2,0.4,0.5,0.6,0.7
			c2.9,3.3,6.4,6.1,10.4,8C37,111.4,37.1,111.3,37.1,111.2z"/>
		<path style="fill:#FAFF3E;" d="M26.5,103.4c-0.5,0.5-1.1,1-1.8,1.4c-0.4,0.2-0.8,0.4-1.2,0.5c-3.3,1.1-7.1-0.3-8.9-3.5
			c-2-3.6-0.7-8.1,2.9-10.1c0.2-0.1,0.3-0.2,0.5-0.3c0.5-0.2,1-0.4,1.6-0.5c0.1,0,0.2,0,0.3-0.1c-0.1,0-0.2,0.1-0.3,0.1
			c1.3,4.3,3.4,8.2,6.1,11.6C26.1,102.9,26.3,103.2,26.5,103.4z"/>
		<path style="fill:#FAFF3E;" d="M20.1,91c-0.1,0-0.2,0.1-0.3,0.1c-0.5,0.2-1,0.3-1.6,0.4c-0.2,0-0.4,0.1-0.6,0.1
			c-4.1,0.3-7.6-2.8-8-6.8c-0.3-4.1,2.8-7.6,6.8-8c0.3,0,0.5,0,0.8,0c0.5,0,1,0.1,1.4,0.2c0,0,0.1,0,0.1,0h-0.1
			c-0.2,1.5-0.3,3-0.3,4.6c0,3.3,0.5,6.4,1.3,9.4C19.9,91,20,91,20.1,91z"/>
		<path style="fill:#FAFF3E;" d="M23.6,63.8c-2.5,3.9-4.2,8.4-4.9,13.2c0,0,0.1,0,0.1,0h-0.1c-0.5,0-1-0.1-1.4-0.2
			c-0.3-0.1-0.5-0.1-0.8-0.2c-3.8-1.4-5.8-5.7-4.4-9.5c1.4-3.8,5.7-5.8,9.5-4.4c0.2,0.1,0.4,0.1,0.5,0.2l0,0
			C22.7,63.1,23.2,63.4,23.6,63.8c0.1,0,0.2,0.1,0.3,0.1C23.8,63.9,23.7,63.9,23.6,63.8z"/>
		<path style="fill:#FAFF3E;" d="M33.5,53.8c-0.4,0.2-0.7,0.5-1.1,0.7c-3.5,2.5-6.5,5.6-8.8,9.3c0.1,0.1,0.2,0.1,0.2,0.2
			c-0.1,0-0.2-0.1-0.3-0.1c-0.5-0.2-1-0.6-1.4-0.9l0,0c-0.1-0.1-0.3-0.2-0.4-0.4c-2.9-2.9-2.9-7.6-0.1-10.5c2.5-2.5,6.2-2.9,9.1-1.1
			c0.5,0.3,1,0.7,1.4,1.1C32.7,52.5,33.2,53.1,33.5,53.8z"/>
		<path style="fill:#FAFF3E;" d="M45.5,49c-0.3,0.1-0.6,0.1-0.9,0.2c-4,0.9-7.7,2.4-11,4.6c-0.4,0.2-0.7,0.5-1.1,0.7
			c-0.5-0.6-0.9-1.2-1.2-1.9c-0.2-0.6-0.4-1.1-0.5-1.7c-0.5-3.3,1.2-6.7,4.4-8c3.4-1.4,7.2-0.2,9.1,2.8c0.2,0.3,0.4,0.7,0.6,1.1
			C45.2,47.5,45.4,48.2,45.5,49z"/>
		<path style="opacity:0.4;fill:#60DB00;" d="M82.9,92.9c-0.1,0-0.2-0.1-0.4-0.1C82.7,92.9,82.8,92.9,82.9,92.9
			c-1.7,4.6-4.2,8.6-7.5,12c0,0-0.1-0.1-0.1-0.1c0,0,0.1,0.1,0.1,0.1c-3.1,3.1-6.7,5.7-10.8,7.4c-0.3,0.1-0.7,0.3-1,0.4
			c-3.7,1.4-7.7,2.2-11.9,2.2c-0.3,0-0.6,0-1,0c0-0.1,0-0.2,0-0.3c0,0.1,0,0.2,0,0.3c-4.9-0.1-9.5-1.3-13.6-3.4
			c0-0.1,0.1-0.2,0.1-0.3c-0.1,0.1-0.1,0.2-0.2,0.3c-4-2-7.5-4.7-10.4-8c-0.2-0.2-0.4-0.5-0.6-0.7c-2.8-3.4-4.9-7.3-6.1-11.6
			c0.1,0,0.2-0.1,0.3-0.1c-0.1,0-0.2,0-0.3,0.1c-0.9-3-1.3-6.1-1.3-9.4c0-1.6,0.1-3.1,0.3-4.6h0.1c0,0-0.1,0-0.1,0
			c0.7-4.8,2.4-9.3,4.9-13.2c0.1,0,0.2,0.1,0.3,0.1c-0.1-0.1-0.2-0.1-0.2-0.2c2.3-3.6,5.3-6.8,8.8-9.3c0.4-0.3,0.7-0.5,1.1-0.7
			c3.3-2.2,7-3.7,11-4.6c0.3-0.1,0.6-0.1,0.9-0.2c2-0.4,4.1-0.6,6.2-0.6c2.4,0,4.7,0.3,7,0.7c0,0.1,0,0.2,0,0.3
			c0-0.1,0.1-0.2,0.1-0.3c4.7,1,9.1,3,12.8,5.8c0,0,0,0.1-0.1,0.1c0,0,0.1-0.1,0.1-0.1c3.8,2.8,6.9,6.4,9.2,10.6
			c-0.1,0.1-0.2,0.1-0.3,0.2c0.1,0,0.2-0.1,0.3-0.1c2.2,4,3.6,8.5,4,13.3c-0.2,0-0.4,0.1-0.7,0.1c0.2,0,0.4,0,0.7,0
			c0.1,0.8,0.1,1.7,0.1,2.5C84.9,85.6,84.2,89.4,82.9,92.9z"/>
		<g>
			<path style="fill:#FFFFFF;" d="M51.6,114.9c-18.4,0-33.3-14.9-33.3-33.3s14.9-33.3,33.3-33.3s33.3,14.9,33.3,33.3
				S70,114.9,51.6,114.9z M51.6,51.5C35,51.5,21.5,65,21.5,81.6s13.5,30.1,30.1,30.1s30.1-13.5,30.1-30.1S68.3,51.5,51.6,51.5z"/>
		</g>
		<path style="fill:#FF8F15;" d="M18.8,77h-0.1c0,0,0,0,0,0C18.8,77,18.8,77,18.8,77z"/>
		<path style="fill:#FF8F15;" d="M20.1,91c-0.1,0-0.2,0.1-0.3,0.1c0,0,0,0,0-0.1C19.9,91,20,91,20.1,91z"/>
		<path style="fill:#FF8F15;" d="M23.8,64c-0.1,0-0.2-0.1-0.3-0.1c0,0,0,0,0-0.1C23.7,63.8,23.8,63.9,23.8,64z"/>
		<path style="fill:#FF8F15;" d="M37.1,111.2c0,0.1-0.1,0.2-0.1,0.3c0,0,0,0-0.1,0C37,111.4,37.1,111.3,37.1,111.2z"/>
		<path style="fill:#FF8F15;" d="M50.7,114.9C50.7,114.9,50.6,114.9,50.7,114.9c-0.1-0.1,0-0.2,0-0.3
			C50.7,114.6,50.7,114.7,50.7,114.9z"/>
		<path style="fill:#FF8F15;" d="M58.7,49.1c0,0.1-0.1,0.2-0.1,0.3C58.6,49.3,58.6,49.2,58.7,49.1C58.7,49.1,58.7,49.1,58.7,49.1z"
			/>
		<path style="fill:#FF8F15;" d="M71.5,55C71.5,55,71.5,55,71.5,55C71.4,55,71.5,55,71.5,55C71.5,55,71.5,55,71.5,55z"/>
		<path style="fill:#FF8F15;" d="M75.4,104.9C75.4,104.9,75.4,104.9,75.4,104.9c-0.1,0-0.1-0.1-0.1-0.1
			C75.3,104.8,75.4,104.8,75.4,104.9z"/>
		<path style="fill:#FF8F15;" d="M80.8,65.6c-0.1,0-0.2,0.1-0.3,0.1C80.5,65.7,80.6,65.6,80.8,65.6C80.8,65.6,80.8,65.6,80.8,65.6z"
			/>
		<path style="fill:#FF8F15;" d="M82.9,92.9C82.9,92.9,82.9,93,82.9,92.9c-0.1,0-0.3,0-0.4-0.1C82.7,92.8,82.8,92.9,82.9,92.9z"/>
		<path style="fill:#FF8F15;" d="M84.8,79.1c-0.2,0-0.5,0-0.7,0c0.2-0.1,0.4-0.1,0.7-0.1C84.8,79,84.8,79.1,84.8,79.1z"/>
	</g>
	<g>
		<path style="fill:#FAFF3E;" d="M152.2,47.8c0,0.2,0,0.4,0,0.6c0,0.6-0.2,1.1-0.3,1.6c0,0.1-0.1,0.2-0.1,0.3c0-0.1,0-0.2,0-0.3
			c-2.3-0.5-4.6-0.7-7-0.7c-2.1,0-4.2,0.2-6.2,0.6c-0.3,0.1-0.6,0.1-0.9,0.2c-0.2-0.7-0.3-1.5-0.3-2.2c0-0.4,0-0.9,0.1-1.3
			c0.6-3.5,3.6-6.2,7.3-6.2C148.9,40.4,152.2,43.7,152.2,47.8z"/>
		<path style="fill:#FAFF3E;" d="M165.9,54c-0.1,0.2-0.2,0.5-0.4,0.7c0,0,0,0,0,0c-0.2,0.4-0.5,0.8-0.8,1.2c0,0-0.1,0.1-0.1,0.1
			c0,0,0-0.1,0.1-0.1c-3.7-2.8-8.1-4.8-12.8-5.8c0,0.1-0.1,0.2-0.1,0.3c0-0.1,0-0.2,0-0.3c0.1-0.6,0.2-1.1,0.4-1.6
			c0.1-0.2,0.1-0.4,0.2-0.5c1.7-3.7,6.1-5.4,9.8-3.7C165.9,45.8,167.6,50.2,165.9,54z"/>
		<path style="fill:#FAFF3E;" d="M175.8,65.3c-0.1,0.1-0.3,0.3-0.5,0.4c-0.4,0.3-0.9,0.6-1.4,0.8c-0.1,0-0.2,0.1-0.3,0.1
			c0.1-0.1,0.2-0.1,0.3-0.2c-2.3-4.2-5.4-7.8-9.2-10.6c0,0-0.1,0.1-0.1,0.1c0,0,0-0.1,0.1-0.1c0.2-0.4,0.5-0.8,0.9-1.1c0,0,0,0,0,0
			c0.2-0.2,0.4-0.4,0.6-0.6c3.1-2.7,7.8-2.4,10.5,0.7C179.3,57.9,178.9,62.6,175.8,65.3z"/>
		<path style="fill:#FAFF3E;" d="M180.2,79.7c-0.1,0-0.2,0-0.2,0.1c-0.7,0.2-1.3,0.3-2,0.2c-0.2,0-0.5,0-0.7,0
			c0.2-0.1,0.4-0.1,0.7-0.1c-0.4-4.8-1.8-9.3-4-13.3c-0.1,0-0.2,0.1-0.3,0.1c0.1-0.1,0.2-0.1,0.3-0.2c0.4-0.3,0.9-0.6,1.5-0.8
			c0.2-0.1,0.4-0.1,0.6-0.2c3.9-1.2,8.1,1.1,9.2,5C186.3,74.4,184.1,78.5,180.2,79.7z"/>
		<path style="fill:#FAFF3E;" d="M186.5,88.1c-0.5,4.1-4.3,6.9-8.3,6.4c-0.2,0-0.4-0.1-0.6-0.1c-0.5-0.1-1.1-0.3-1.6-0.5
			c-0.1,0-0.2-0.1-0.3-0.2c0.1,0,0.2,0.1,0.4,0.1c1.3-3.5,2-7.3,2-11.3c0-0.8,0-1.7-0.1-2.5c-0.2,0-0.5,0-0.7,0
			c0.2-0.1,0.4-0.1,0.7-0.1c0.6-0.1,1.3-0.1,2-0.1c0.1,0,0.2,0,0.3,0C184.2,80.3,187.1,84.1,186.5,88.1z"/>
		<path style="fill:#FAFF3E;" d="M180.4,104.9c-2.2,3.5-6.8,4.5-10.2,2.3c-0.2-0.1-0.5-0.3-0.7-0.5c-0.4-0.3-0.7-0.6-1-1
			c0,0-0.1-0.1-0.1-0.1c0,0,0.1,0.1,0.1,0.1c3.3-3.4,5.9-7.4,7.5-11.9c-0.1,0-0.2-0.1-0.3-0.2c0.1,0,0.2,0.1,0.4,0.1
			c0.5,0.1,1,0.3,1.5,0.6c0.2,0.1,0.3,0.2,0.5,0.3C181.6,96.8,182.6,101.4,180.4,104.9z"/>
		<path style="fill:#FAFF3E;" d="M167.9,117.7c-3,2-6.9,1.5-9.4-1c-0.3-0.3-0.6-0.7-0.9-1.1c-0.4-0.6-0.7-1.3-0.9-2
			c0.3-0.1,0.7-0.3,1-0.4c4.1-1.7,7.8-4.2,10.8-7.4c0,0-0.1-0.1-0.1-0.1c0,0,0.1,0.1,0.1,0.1c0.4,0.3,0.7,0.6,1,1
			c0.2,0.2,0.3,0.4,0.5,0.7C172.3,110.8,171.3,115.4,167.9,117.7z"/>
		<path style="fill:#FAFF3E;" d="M158.6,116.7c0,3.5-2.5,6.6-6.1,7.2c-4,0.8-7.9-1.9-8.6-5.9c0-0.2-0.1-0.4-0.1-0.6
			c-0.1-0.6-0.1-1.1,0-1.6c0-0.1,0-0.2,0-0.3c0,0.1,0,0.2,0,0.3c0.3,0,0.6,0,1,0c4.2,0,8.2-0.8,11.9-2.2c0.3-0.1,0.7-0.3,1-0.4
			c0.3,0.6,0.6,1.3,0.7,2.1C158.5,115.7,158.6,116.2,158.6,116.7z"/>
		<path style="fill:#FAFF3E;" d="M143.8,117.3c0,0.2-0.1,0.4-0.1,0.6c-1,4-5,6.4-9,5.4c-4-1-6.4-5-5.4-9c0-0.2,0.1-0.4,0.2-0.6
			c0.2-0.5,0.4-1,0.7-1.5c0.1-0.1,0.1-0.2,0.2-0.3c0,0.1-0.1,0.2-0.1,0.3c4.1,2,8.7,3.2,13.6,3.4c0-0.1,0-0.2,0-0.3
			c0,0.1,0,0.2,0,0.3C143.9,116.3,143.9,116.8,143.8,117.3z"/>
		<path style="fill:#FAFF3E;" d="M130.3,112c0,0.1-0.1,0.2-0.1,0.3c-0.2,0.5-0.4,1-0.7,1.4c-0.1,0.2-0.2,0.3-0.3,0.5
			c-2.5,3.2-7.2,3.8-10.4,1.2c-2.9-2.3-3.6-6.2-1.9-9.3c0.2-0.4,0.4-0.8,0.7-1.1c0.5-0.6,1-1.1,1.6-1.5c0.2,0.2,0.4,0.5,0.6,0.7
			c2.9,3.3,6.4,6.1,10.4,8C130.2,112.2,130.2,112.1,130.3,112z"/>
		<path style="fill:#FAFF3E;" d="M119.7,104.3c-0.5,0.5-1.1,1-1.8,1.4c-0.4,0.2-0.8,0.4-1.2,0.5c-3.3,1.1-7.1-0.3-8.9-3.5
			c-2-3.6-0.7-8.1,2.9-10.1c0.2-0.1,0.3-0.2,0.5-0.3c0.5-0.2,1-0.4,1.6-0.5c0.1,0,0.2,0,0.3-0.1c-0.1,0-0.2,0.1-0.3,0.1
			c1.3,4.3,3.4,8.2,6.1,11.6C119.3,103.8,119.5,104.1,119.7,104.3z"/>
		<path style="fill:#FAFF3E;" d="M113.2,91.8c-0.1,0-0.2,0.1-0.3,0.1c-0.5,0.2-1,0.3-1.6,0.4c-0.2,0-0.4,0.1-0.6,0.1
			c-4.1,0.3-7.6-2.8-8-6.8c-0.3-4.1,2.8-7.6,6.8-8c0.3,0,0.5,0,0.8,0c0.5,0,1,0.1,1.4,0.2c0,0,0.1,0,0.1,0h-0.1
			c-0.2,1.5-0.3,3-0.3,4.6c0,3.3,0.5,6.4,1.3,9.4C113,91.9,113.1,91.9,113.2,91.8z"/>
		<path style="fill:#FAFF3E;" d="M116.7,64.7c-2.5,3.9-4.2,8.4-4.9,13.2c0,0,0.1,0,0.1,0h-0.1c-0.5,0-1-0.1-1.4-0.2
			c-0.3-0.1-0.5-0.1-0.8-0.2c-3.8-1.4-5.8-5.7-4.4-9.5c1.4-3.8,5.7-5.8,9.5-4.4c0.2,0.1,0.4,0.1,0.5,0.2l0,0
			C115.9,64,116.3,64.3,116.7,64.7c0.1,0,0.2,0.1,0.3,0.1C116.9,64.8,116.8,64.7,116.7,64.7z"/>
		<path style="fill:#FAFF3E;" d="M126.7,54.6c-0.4,0.2-0.7,0.5-1.1,0.7c-3.5,2.5-6.5,5.6-8.8,9.3c0.1,0.1,0.2,0.1,0.2,0.2
			c-0.1,0-0.2-0.1-0.3-0.1c-0.5-0.2-1-0.6-1.4-0.9l0,0c-0.1-0.1-0.3-0.2-0.4-0.4c-2.9-2.9-2.9-7.6-0.1-10.5c2.5-2.5,6.2-2.9,9.1-1.1
			c0.5,0.3,1,0.7,1.4,1.1C125.9,53.4,126.3,54,126.7,54.6z"/>
		<path style="fill:#FAFF3E;" d="M138.6,49.8c-0.3,0.1-0.6,0.1-0.9,0.2c-4,0.9-7.7,2.4-11,4.6c-0.4,0.2-0.7,0.5-1.1,0.7
			c-0.5-0.6-0.9-1.2-1.2-1.9c-0.2-0.6-0.4-1.1-0.5-1.7c-0.5-3.3,1.2-6.7,4.4-8c3.4-1.4,7.2-0.2,9.1,2.8c0.2,0.3,0.4,0.7,0.6,1.1
			C138.4,48.4,138.6,49.1,138.6,49.8z"/>
		<path style="opacity:0.4;fill:#60DB00;" d="M176.1,93.8c-0.1,0-0.2-0.1-0.4-0.1C175.8,93.7,175.9,93.8,176.1,93.8
			c-1.7,4.6-4.2,8.6-7.5,12c0,0-0.1-0.1-0.1-0.1c0,0,0.1,0.1,0.1,0.1c-3.1,3.1-6.7,5.7-10.8,7.4c-0.3,0.1-0.7,0.3-1,0.4
			c-3.7,1.4-7.7,2.2-11.9,2.2c-0.3,0-0.6,0-1,0c0-0.1,0-0.2,0-0.3c0,0.1,0,0.2,0,0.3c-4.9-0.1-9.5-1.3-13.6-3.4
			c0-0.1,0.1-0.2,0.1-0.3c-0.1,0.1-0.1,0.2-0.2,0.3c-4-2-7.5-4.7-10.4-8c-0.2-0.2-0.4-0.5-0.6-0.7c-2.8-3.4-4.9-7.3-6.1-11.6
			c0.1,0,0.2-0.1,0.3-0.1c-0.1,0-0.2,0-0.3,0.1c-0.9-3-1.3-6.1-1.3-9.4c0-1.6,0.1-3.1,0.3-4.6h0.1c0,0-0.1,0-0.1,0
			c0.7-4.8,2.4-9.3,4.9-13.2c0.1,0,0.2,0.1,0.3,0.1c-0.1-0.1-0.2-0.1-0.2-0.2c2.3-3.6,5.3-6.8,8.8-9.3c0.4-0.3,0.7-0.5,1.1-0.7
			c3.3-2.2,7-3.7,11-4.6c0.3-0.1,0.6-0.1,0.9-0.2c2-0.4,4.1-0.6,6.2-0.6c2.4,0,4.7,0.3,7,0.7c0,0.1,0,0.2,0,0.3
			c0-0.1,0.1-0.2,0.1-0.3c4.7,1,9.1,3,12.8,5.8c0,0,0,0.1-0.1,0.1c0,0,0.1-0.1,0.1-0.1c3.8,2.8,6.9,6.4,9.2,10.6
			c-0.1,0.1-0.2,0.1-0.3,0.2c0.1,0,0.2-0.1,0.3-0.1c2.2,4,3.6,8.5,4,13.3c-0.2,0-0.4,0.1-0.7,0.1c0.2,0,0.4,0,0.7,0
			c0.1,0.8,0.1,1.7,0.1,2.5C178,86.5,177.4,90.3,176.1,93.8z"/>
		<g>
			<path style="fill:#FFFFFF;" d="M144.8,115.8c-18.4,0-33.3-14.9-33.3-33.3s14.9-33.3,33.3-33.3s33.3,14.9,33.3,33.3
				S163.2,115.8,144.8,115.8z M144.8,52.4c-16.6,0-30.1,13.5-30.1,30.1s13.5,30.1,30.1,30.1s30.1-13.5,30.1-30.1
				S161.4,52.4,144.8,52.4z"/>
		</g>
		<path style="fill:#FF8F15;" d="M112,77.9h-0.1c0,0,0,0,0,0C111.9,77.9,112,77.9,112,77.9z"/>
		<path style="fill:#FF8F15;" d="M113.2,91.8c-0.1,0-0.2,0.1-0.3,0.1c0,0,0,0,0-0.1C113,91.9,113.1,91.9,113.2,91.8z"/>
		<path style="fill:#FF8F15;" d="M117,64.8c-0.1,0-0.2-0.1-0.3-0.1c0,0,0,0,0-0.1C116.9,64.7,116.9,64.7,117,64.8z"/>
		<path style="fill:#FF8F15;" d="M130.3,112c0,0.1-0.1,0.2-0.1,0.3c0,0,0,0-0.1,0C130.2,112.2,130.2,112.1,130.3,112z"/>
		<path style="fill:#FF8F15;" d="M143.9,115.7C143.8,115.7,143.8,115.7,143.9,115.7c-0.1-0.1,0-0.2,0-0.3
			C143.8,115.5,143.9,115.6,143.9,115.7z"/>
		<path style="fill:#FF8F15;" d="M151.9,50c0,0.1-0.1,0.2-0.1,0.3C151.8,50.2,151.8,50.1,151.9,50C151.8,50,151.8,50,151.9,50z"/>
		<path style="fill:#FF8F15;" d="M164.7,55.8C164.6,55.9,164.6,55.9,164.7,55.8C164.6,55.9,164.6,55.9,164.7,55.8
			C164.7,55.8,164.7,55.8,164.7,55.8z"/>
		<path style="fill:#FF8F15;" d="M168.6,105.7C168.6,105.7,168.6,105.8,168.6,105.7c-0.1,0-0.1-0.1-0.1-0.1
			C168.5,105.7,168.5,105.7,168.6,105.7z"/>
		<path style="fill:#FF8F15;" d="M174,66.5c-0.1,0-0.2,0.1-0.3,0.1C173.7,66.6,173.8,66.5,174,66.5C173.9,66.5,173.9,66.5,174,66.5z
			"/>
		<path style="fill:#FF8F15;" d="M176.1,93.8C176.1,93.8,176.1,93.8,176.1,93.8c-0.1,0-0.3,0-0.4-0.1
			C175.8,93.7,176,93.7,176.1,93.8z"/>
		<path style="fill:#FF8F15;" d="M178,80c-0.2,0-0.5,0-0.7,0c0.2-0.1,0.4-0.1,0.7-0.1C177.9,79.9,178,79.9,178,80z"/>
	</g>
</g>
</svg>
