<?xml version="1.0" encoding="utf-8"?>
<!-- Generator: Adobe Illustrator 22.1.0, SVG Export Plug-In . SVG Version: 6.00 Build 0)  -->
<svg version="1.1" id="Layer_1" xmlns="http://www.w3.org/2000/svg" xmlns:xlink="http://www.w3.org/1999/xlink" x="0px" y="0px"
	 viewBox="0 0 196 164" style="enable-background:new 0 0 196 164;" xml:space="preserve">
<g>
	<g style="display:none;">
		<path style="display:inline;fill:#F91E39;" d="M89.8,72c-6.6-4.5-17.8-9.2-34.9-12.3c-10.8-1.9-25.2-4.3-39-5.2
			c-7.4-0.5-7.6,4.3-4.7,10.9C14,72,22.5,95.6,36.8,105.3c14.3,9.8,40.6,9.3,51.8-11C97.6,78,91.8,73.4,89.8,72z M77.7,99.4
			c-15.6,14.4-38.4,3.6-46-9.2c-7.6-12.8-11.8-28,10-26c25.6,2.3,41.6,14.4,41.6,14.4C87,82,93.3,85,77.7,99.4z"/>
	</g>
	<g>
		<path style="fill:#F91E39;" d="M187.8,58.3c0-0.4-0.1-0.7-0.2-1c-0.3-0.9-0.9-1.6-1.7-2.1c-0.3-0.1-0.6-0.3-0.9-0.4h0
			c-0.9-0.3-2.1-0.4-3.5-0.3c-1.5,0.1-3.1,0.2-4.6,0.4c-0.3,0-0.6,0.1-1,0.1c-1.2,0.1-2.3,0.2-3.4,0.3c-0.3,0-0.7,0.1-1,0.1
			c-4.9,0.5-9.8,1.2-14.5,1.9c-0.3,0-0.6,0.1-0.9,0.1c-1.2,0.2-2.4,0.4-3.5,0.6c-0.3,0-0.5,0.1-0.8,0.1c-3.3,0.5-6.5,1.1-9.3,1.6
			c-0.7,0.1-1.4,0.3-2.1,0.4c-0.3,0.1-0.7,0.1-1,0.2c-3.6,0.7-6.9,1.5-10,2.3c-0.2,0.1-0.5,0.1-0.7,0.2c-8.4,2.4-14.7,5.2-19.3,7.9
			c-0.2,0.1-0.4,0.3-0.7,0.4c-0.4,0.3-0.8,0.5-1.2,0.8c0,0,0,0,0,0c-1.6,1.1-5.7,4.4-2.4,14.3c0,0,0,0,0,0c0.1,0.3,0.2,0.6,0.3,0.9
			c0.1,0.3,0.2,0.6,0.4,0.9c0.7,1.9,1.7,4,3,6.3c3.7,6.7,9.1,11.3,15.1,14c0.3,0.1,0.6,0.3,0.9,0.4c3.4,1.4,6.9,2.2,10.5,2.6
			c0.4,0,0.7,0.1,1.1,0.1c1.1,0.1,2.3,0.1,3.4,0.1c0.4,0,0.7,0,1.1,0c1.2,0,2.3-0.1,3.4-0.3c0.3,0,0.6-0.1,0.9-0.1
			c5.7-0.8,11-2.9,15.3-5.8c3.9-2.7,7.4-6.4,10.5-10.5c0,0,0,0,0,0c0.1-0.1,0.2-0.3,0.3-0.4c0,0,0,0,0,0c0.5-0.7,1-1.4,1.5-2.1
			c0.1-0.2,0.3-0.4,0.4-0.6c3.3-4.9,6-10.2,8.1-14.8c0.1-0.2,0.1-0.3,0.2-0.4v0c1.9-4.2,3.4-7.9,4.4-10.2c0.1-0.3,0.2-0.5,0.3-0.8
			c0-0.1,0.1-0.1,0.1-0.2C187.3,62.5,188,60.1,187.8,58.3z M165.6,90.2c-0.3,0.5-0.6,1-1,1.5c-0.2,0.3-0.4,0.6-0.6,0.9
			c-0.4,0.6-0.9,1.2-1.4,1.8c-0.2,0.2-0.4,0.4-0.6,0.6c-2.9,3.1-6.7,5.9-11,8c0,0,0,0,0,0c-0.1,0-0.2,0.1-0.3,0.1
			c-3.1,1.5-6.5,2.5-10,2.9c-0.4,0.1-0.7,0.1-1.1,0.1c-1.1,0.1-2.3,0.1-3.4,0.1c-0.3,0-0.7,0-1,0c-1.2-0.1-2.4-0.2-3.5-0.5h0
			c-0.2,0-0.5-0.1-0.7-0.2c-3.1-0.8-6.2-2.1-9.1-4.3c-0.3-0.2-0.6-0.4-0.9-0.7c-0.5-0.4-0.9-0.8-1.4-1.2c-5.4-5-8.2-8.6-9.4-11.4v0
			c-0.1-0.3-0.2-0.5-0.3-0.8c-0.7-2.1-0.4-3.7,0.4-4.9l0,0c0-0.1,0.1-0.1,0.1-0.2c0,0,0,0,0,0c0.9-1.4,2.3-2.4,3.5-3.5
			c0,0,2.4-1.8,6.8-4.2c0,0,0,0,0,0c0.1-0.1,0.2-0.1,0.4-0.2c1.6-0.8,3.4-1.7,5.5-2.6c0.3-0.1,0.7-0.3,1-0.4
			c1.8-0.8,3.7-1.5,5.7-2.2c0.2-0.1,0.4-0.1,0.6-0.2c0,0,0,0,0,0c3.2-1.1,6.7-2.1,10.5-2.9c0.4-0.1,0.7-0.1,1.1-0.2
			c3.1-0.6,6.5-1.1,10-1.5c5.6-0.5,9.4,0.1,12,1.5v0c0.3,0.1,0.5,0.3,0.8,0.5c1.7,1.2,2.7,2.8,3.1,4.7c0,0,0,0,0,0
			c0.1,0.2,0.1,0.5,0.1,0.7c0.2,1.4,0.1,2.9-0.1,4.6c0,0.1,0,0.2-0.1,0.4v0C170.5,80.8,168.3,85.6,165.6,90.2z"/>
	</g>
	<g style="display:none;">
		<circle style="display:inline;fill:#FFFFFF;" cx="9.4" cy="57.7" r="0.5"/>
		<circle style="display:inline;fill:#FFFFFF;" cx="13.8" cy="57.7" r="0.5"/>
		<circle style="display:inline;fill:#FFFFFF;" cx="18.3" cy="57.7" r="0.5"/>
		<circle style="display:inline;fill:#FFFFFF;" cx="22.8" cy="57.7" r="0.5"/>
		<circle style="display:inline;fill:#FFFFFF;" cx="27.3" cy="57.7" r="0.5"/>
		<circle style="display:inline;fill:#FFFFFF;" cx="31.8" cy="57.7" r="0.5"/>
		<circle style="display:inline;fill:#FFFFFF;" cx="36.2" cy="57.7" r="0.5"/>
		<circle style="display:inline;fill:#FFFFFF;" cx="40.7" cy="57.7" r="0.5"/>
		<circle style="display:inline;fill:#FFFFFF;" cx="45.2" cy="57.7" r="0.5"/>
		<circle style="display:inline;fill:#FFFFFF;" cx="11.9" cy="55.2" r="0.5"/>
		<circle style="display:inline;fill:#FFFFFF;" cx="16.4" cy="55.2" r="0.5"/>
		<circle style="display:inline;fill:#FFFFFF;" cx="20.9" cy="55.2" r="0.5"/>
		<circle style="display:inline;fill:#FFFFFF;" cx="25.3" cy="55.2" r="0.5"/>
		<circle style="display:inline;fill:#FFFFFF;" cx="11.9" cy="60.4" r="0.5"/>
		<circle style="display:inline;fill:#FFFFFF;" cx="16.4" cy="60.4" r="0.5"/>
		<circle style="display:inline;fill:#FFFFFF;" cx="20.9" cy="60.4" r="0.5"/>
		<circle style="display:inline;fill:#FFFFFF;" cx="25.3" cy="60.4" r="0.5"/>
		<circle style="display:inline;fill:#FFFFFF;" cx="29.8" cy="60.4" r="0.5"/>
		<circle style="display:inline;fill:#FFFFFF;" cx="34.3" cy="60.4" r="0.5"/>
		<circle style="display:inline;fill:#FFFFFF;" cx="38.8" cy="60.4" r="0.5"/>
		<circle style="display:inline;fill:#FFFFFF;" cx="43.3" cy="60.4" r="0.5"/>
		<circle style="display:inline;fill:#FFFFFF;" cx="47.7" cy="60.4" r="0.5"/>
		<circle style="display:inline;fill:#FFFFFF;" cx="11.2" cy="65.7" r="0.5"/>
		<circle style="display:inline;fill:#FFFFFF;" cx="15.7" cy="65.7" r="0.5"/>
		<circle style="display:inline;fill:#FFFFFF;" cx="20.1" cy="65.7" r="0.5"/>
		<circle style="display:inline;fill:#FFFFFF;" cx="24.6" cy="65.7" r="0.5"/>
		<circle style="display:inline;fill:#FFFFFF;" cx="29.1" cy="65.7" r="0.5"/>
		<circle style="display:inline;fill:#FFFFFF;" cx="13.7" cy="63.2" r="0.5"/>
		<circle style="display:inline;fill:#FFFFFF;" cx="18.2" cy="63.2" r="0.5"/>
		<circle style="display:inline;fill:#FFFFFF;" cx="22.7" cy="63.2" r="0.5"/>
		<circle style="display:inline;fill:#FFFFFF;" cx="27.2" cy="63.2" r="0.5"/>
		<circle style="display:inline;fill:#FFFFFF;" cx="31.6" cy="63.2" r="0.5"/>
		<circle style="display:inline;fill:#FFFFFF;" cx="36.1" cy="63.2" r="0.5"/>
		<circle style="display:inline;fill:#FFFFFF;" cx="40.6" cy="63.2" r="0.5"/>
		<circle style="display:inline;fill:#FFFFFF;" cx="45.1" cy="63.2" r="0.5"/>
		<circle style="display:inline;fill:#FFFFFF;" cx="13.7" cy="68.4" r="0.5"/>
		<circle style="display:inline;fill:#FFFFFF;" cx="18.2" cy="68.4" r="0.5"/>
		<circle style="display:inline;fill:#FFFFFF;" cx="22.7" cy="68.4" r="0.5"/>
		<circle style="display:inline;fill:#FFFFFF;" cx="52.9" cy="60.4" r="0.5"/>
		<circle style="display:inline;fill:#FFFFFF;" cx="57.4" cy="60.4" r="0.5"/>
		<circle style="display:inline;fill:#FFFFFF;" cx="52.2" cy="65.7" r="0.5"/>
		<circle style="display:inline;fill:#FFFFFF;" cx="56.7" cy="65.7" r="0.5"/>
		<circle style="display:inline;fill:#FFFFFF;" cx="61.2" cy="65.7" r="0.5"/>
		<circle style="display:inline;fill:#FFFFFF;" cx="65.6" cy="65.7" r="0.5"/>
		<circle style="display:inline;fill:#FFFFFF;" cx="70.1" cy="65.7" r="0.5"/>
		<circle style="display:inline;fill:#FFFFFF;" cx="74.6" cy="65.7" r="0.5"/>
		<circle style="display:inline;fill:#FFFFFF;" cx="50.3" cy="63.2" r="0.5"/>
		<circle style="display:inline;fill:#FFFFFF;" cx="54.8" cy="63.2" r="0.5"/>
		<circle style="display:inline;fill:#FFFFFF;" cx="59.2" cy="63.2" r="0.5"/>
		<circle style="display:inline;fill:#FFFFFF;" cx="63.7" cy="63.2" r="0.5"/>
		<circle style="display:inline;fill:#FFFFFF;" cx="68.2" cy="63.2" r="0.5"/>
		<circle style="display:inline;fill:#FFFFFF;" cx="63.7" cy="68.4" r="0.5"/>
		<circle style="display:inline;fill:#FFFFFF;" cx="68.2" cy="68.4" r="0.5"/>
		<circle style="display:inline;fill:#FFFFFF;" cx="72.7" cy="68.4" r="0.5"/>
		<circle style="display:inline;fill:#FFFFFF;" cx="77.1" cy="68.4" r="0.5"/>
		<circle style="display:inline;fill:#FFFFFF;" cx="81.6" cy="68.4" r="0.5"/>
		<circle style="display:inline;fill:#FFFFFF;" cx="76.5" cy="73.9" r="0.5"/>
		<circle style="display:inline;fill:#FFFFFF;" cx="81" cy="73.9" r="0.5"/>
		<circle style="display:inline;fill:#FFFFFF;" cx="85.5" cy="73.9" r="0.5"/>
		<circle style="display:inline;fill:#FFFFFF;" cx="90" cy="73.9" r="0.5"/>
		<circle style="display:inline;fill:#FFFFFF;" cx="70.1" cy="71.3" r="0.5"/>
		<circle style="display:inline;fill:#FFFFFF;" cx="74.6" cy="71.3" r="0.5"/>
		<circle style="display:inline;fill:#FFFFFF;" cx="79.1" cy="71.3" r="0.5"/>
		<circle style="display:inline;fill:#FFFFFF;" cx="83.6" cy="71.3" r="0.5"/>
		<circle style="display:inline;fill:#FFFFFF;" cx="88" cy="71.3" r="0.5"/>
		<circle style="display:inline;fill:#FFFFFF;" cx="83.6" cy="76.6" r="0.5"/>
		<circle style="display:inline;fill:#FFFFFF;" cx="88" cy="76.6" r="0.5"/>
		<circle style="display:inline;fill:#FFFFFF;" cx="92.5" cy="76.6" r="0.5"/>
		<circle style="display:inline;fill:#FFFFFF;" cx="87.3" cy="81.9" r="0.5"/>
		<circle style="display:inline;fill:#FFFFFF;" cx="91.8" cy="81.9" r="0.5"/>
		<circle style="display:inline;fill:#FFFFFF;" cx="85.4" cy="79.3" r="0.5"/>
		<circle style="display:inline;fill:#FFFFFF;" cx="89.9" cy="79.3" r="0.5"/>
		<circle style="display:inline;fill:#FFFFFF;" cx="89.9" cy="84.6" r="0.5"/>
		<circle style="display:inline;fill:#FFFFFF;" cx="89.4" cy="90.3" r="0.5"/>
		<circle style="display:inline;fill:#FFFFFF;" cx="87.5" cy="87.7" r="0.5"/>
		<circle style="display:inline;fill:#FFFFFF;" cx="92" cy="87.7" r="0.5"/>
		<circle style="display:inline;fill:#FFFFFF;" cx="87.5" cy="93" r="0.5"/>
		<circle style="display:inline;fill:#FFFFFF;" cx="82.3" cy="98.2" r="0.5"/>
		<circle style="display:inline;fill:#FFFFFF;" cx="84.8" cy="95.7" r="0.5"/>
		<circle style="display:inline;fill:#FFFFFF;" cx="75.9" cy="101" r="0.5"/>
		<circle style="display:inline;fill:#FFFFFF;" cx="80.3" cy="101" r="0.5"/>
		<circle style="display:inline;fill:#FFFFFF;" cx="39.2" cy="106" r="0.5"/>
		<circle style="display:inline;fill:#FFFFFF;" cx="43.7" cy="106" r="0.5"/>
		<circle style="display:inline;fill:#FFFFFF;" cx="48.1" cy="106" r="0.5"/>
		<circle style="display:inline;fill:#FFFFFF;" cx="52.6" cy="106" r="0.5"/>
		<circle style="display:inline;fill:#FFFFFF;" cx="57.1" cy="106" r="0.5"/>
		<circle style="display:inline;fill:#FFFFFF;" cx="61.6" cy="106" r="0.5"/>
		<circle style="display:inline;fill:#FFFFFF;" cx="66" cy="106" r="0.5"/>
		<circle style="display:inline;fill:#FFFFFF;" cx="70.5" cy="106" r="0.5"/>
		<circle style="display:inline;fill:#FFFFFF;" cx="75" cy="106" r="0.5"/>
		<circle style="display:inline;fill:#FFFFFF;" cx="41.7" cy="103.5" r="0.5"/>
		<circle style="display:inline;fill:#FFFFFF;" cx="46.2" cy="103.5" r="0.5"/>
		<circle style="display:inline;fill:#FFFFFF;" cx="73.1" cy="103.5" r="0.5"/>
		<circle style="display:inline;fill:#FFFFFF;" cx="77.6" cy="103.5" r="0.5"/>
		<circle style="display:inline;fill:#FFFFFF;" cx="46.2" cy="108.7" r="0.5"/>
		<circle style="display:inline;fill:#FFFFFF;" cx="50.7" cy="108.7" r="0.5"/>
		<circle style="display:inline;fill:#FFFFFF;" cx="55.2" cy="108.7" r="0.5"/>
		<circle style="display:inline;fill:#FFFFFF;" cx="59.6" cy="108.7" r="0.5"/>
		<circle style="display:inline;fill:#FFFFFF;" cx="64.1" cy="108.7" r="0.5"/>
		<circle style="display:inline;fill:#FFFFFF;" cx="68.6" cy="108.7" r="0.5"/>
		<circle style="display:inline;fill:#FFFFFF;" cx="73.1" cy="108.7" r="0.5"/>
		<circle style="display:inline;fill:#FFFFFF;" cx="36.6" cy="103.6" r="0.5"/>
		<circle style="display:inline;fill:#FFFFFF;" cx="52.5" cy="111.5" r="0.5"/>
		<circle style="display:inline;fill:#FFFFFF;" cx="57" cy="111.5" r="0.5"/>
		<circle style="display:inline;fill:#FFFFFF;" cx="61.5" cy="111.5" r="0.5"/>
		<circle style="display:inline;fill:#FFFFFF;" cx="25.9" cy="89.4" r="0.5"/>
		<circle style="display:inline;fill:#FFFFFF;" cx="30.4" cy="89.4" r="0.5"/>
		<circle style="display:inline;fill:#FFFFFF;" cx="24" cy="86.9" r="0.5"/>
		<circle style="display:inline;fill:#FFFFFF;" cx="28.4" cy="86.9" r="0.5"/>
		<circle style="display:inline;fill:#FFFFFF;" cx="24" cy="92.2" r="0.5"/>
		<circle style="display:inline;fill:#FFFFFF;" cx="28.4" cy="92.2" r="0.5"/>
		<circle style="display:inline;fill:#FFFFFF;" cx="32.9" cy="92.2" r="0.5"/>
		<circle style="display:inline;fill:#FFFFFF;" cx="32.2" cy="97.4" r="0.5"/>
		<circle style="display:inline;fill:#FFFFFF;" cx="36.7" cy="97.4" r="0.5"/>
		<circle style="display:inline;fill:#FFFFFF;" cx="25.8" cy="94.9" r="0.5"/>
		<circle style="display:inline;fill:#FFFFFF;" cx="30.3" cy="94.9" r="0.5"/>
		<circle style="display:inline;fill:#FFFFFF;" cx="34.7" cy="94.9" r="0.5"/>
		<circle style="display:inline;fill:#FFFFFF;" cx="34.7" cy="100.1" r="0.5"/>
		<circle style="display:inline;fill:#FFFFFF;" cx="39.2" cy="100.1" r="0.5"/>
		<circle style="display:inline;fill:#FFFFFF;" cx="18.3" cy="73.7" r="0.5"/>
		<circle style="display:inline;fill:#FFFFFF;" cx="22.7" cy="73.7" r="0.5"/>
		<circle style="display:inline;fill:#FFFFFF;" cx="16.3" cy="71.1" r="0.5"/>
		<circle style="display:inline;fill:#FFFFFF;" cx="20.8" cy="71.1" r="0.5"/>
		<circle style="display:inline;fill:#FFFFFF;" cx="25.3" cy="71.1" r="0.5"/>
		<circle style="display:inline;fill:#FFFFFF;" cx="16.3" cy="76.4" r="0.5"/>
		<circle style="display:inline;fill:#FFFFFF;" cx="20.8" cy="76.4" r="0.5"/>
		<circle style="display:inline;fill:#FFFFFF;" cx="25.3" cy="76.4" r="0.5"/>
		<circle style="display:inline;fill:#FFFFFF;" cx="20.1" cy="81.7" r="0.5"/>
		<circle style="display:inline;fill:#FFFFFF;" cx="24.6" cy="81.7" r="0.5"/>
		<circle style="display:inline;fill:#FFFFFF;" cx="18.2" cy="79.1" r="0.5"/>
		<circle style="display:inline;fill:#FFFFFF;" cx="22.6" cy="79.1" r="0.5"/>
		<circle style="display:inline;fill:#FFFFFF;" cx="22.6" cy="84.4" r="0.5"/>
		<circle style="display:inline;fill:#FFFFFF;" cx="27.1" cy="84.4" r="0.5"/>
	</g>
	<g>
		<path style="fill:#FFFFFF;" d="M187.8,58.3c-0.3,0-0.5-0.3-0.5-0.5c0-0.2,0.1-0.4,0.3-0.5C187.7,57.6,187.7,57.9,187.8,58.3z"/>
		<circle style="fill:#FFFFFF;" cx="183.4" cy="57.7" r="0.5"/>
		<circle style="fill:#FFFFFF;" cx="178.9" cy="57.7" r="0.5"/>
		<circle style="fill:#FFFFFF;" cx="174.4" cy="57.7" r="0.5"/>
		<circle style="fill:#FFFFFF;" cx="169.9" cy="57.7" r="0.5"/>
		<circle style="fill:#FFFFFF;" cx="165.5" cy="57.7" r="0.5"/>
		<circle style="fill:#FFFFFF;" cx="161" cy="57.7" r="0.5"/>
		<path style="fill:#FFFFFF;" d="M156.9,58.1c-0.2,0.2-0.6,0.2-0.8,0c-0.2-0.2-0.2-0.4-0.1-0.6c0.3,0,0.6-0.1,0.9-0.1
			C157.1,57.6,157.1,57.9,156.9,58.1z"/>
		<path style="fill:#FFFFFF;" d="M152.5,58C152.5,58.1,152.4,58.1,152.5,58c-0.3,0.3-0.6,0.3-0.8,0.1
			C151.9,58.1,152.2,58.1,152.5,58z"/>
		<path style="fill:#FFFFFF;" d="M185.8,55.2c0,0.3-0.3,0.5-0.5,0.5c-0.3,0-0.5-0.2-0.5-0.5c0-0.1,0.1-0.3,0.1-0.4h0
			C185.2,54.9,185.6,55.1,185.8,55.2z"/>
		<circle style="fill:#FFFFFF;" cx="180.8" cy="55.2" r="0.5"/>
		<path style="fill:#FFFFFF;" d="M176.9,55.2c0,0.3-0.2,0.5-0.5,0.5c-0.3,0-0.5-0.2-0.5-0.5c0-0.1,0-0.1,0-0.2c0.3,0,0.6-0.1,1-0.1
			C176.9,55,176.9,55.1,176.9,55.2z"/>
		<path style="fill:#FFFFFF;" d="M172.4,55.3c-0.1,0.2-0.3,0.4-0.5,0.4c-0.2,0-0.4-0.1-0.5-0.3C171.7,55.4,172.1,55.4,172.4,55.3z"
			/>
		<circle style="fill:#FFFFFF;" cx="185.3" cy="60.4" r="0.5"/>
		<circle style="fill:#FFFFFF;" cx="180.8" cy="60.4" r="0.5"/>
		<circle style="fill:#FFFFFF;" cx="176.3" cy="60.4" r="0.5"/>
		<circle style="fill:#FFFFFF;" cx="171.9" cy="60.4" r="0.5"/>
		<circle style="fill:#FFFFFF;" cx="167.4" cy="60.4" r="0.5"/>
		<circle style="fill:#FFFFFF;" cx="162.9" cy="60.4" r="0.5"/>
		<circle style="fill:#FFFFFF;" cx="158.4" cy="60.4" r="0.5"/>
		<circle style="fill:#FFFFFF;" cx="153.9" cy="60.4" r="0.5"/>
		<circle style="fill:#FFFFFF;" cx="149.5" cy="60.4" r="0.5"/>
		<path style="fill:#FFFFFF;" d="M186.2,65.2c0,0.1-0.1,0.1-0.1,0.2c-0.1,0.2-0.2,0.5-0.3,0.8c-0.2-0.1-0.3-0.3-0.3-0.5
			c0-0.3,0.2-0.5,0.5-0.5C186.1,65.2,186.1,65.2,186.2,65.2z"/>
		<circle style="fill:#FFFFFF;" cx="181.5" cy="65.7" r="0.5"/>
		<circle style="fill:#FFFFFF;" cx="177.1" cy="65.7" r="0.5"/>
		<circle style="fill:#FFFFFF;" cx="172.6" cy="65.7" r="0.5"/>
		<path style="fill:#FFFFFF;" d="M168.5,66.1c0,0-0.1,0.1-0.1,0.1c-0.3-0.2-0.5-0.3-0.8-0.5v0c0-0.1,0.1-0.3,0.2-0.4
			c0.2-0.2,0.6-0.2,0.8,0C168.7,65.5,168.7,65.9,168.5,66.1z"/>
		<circle style="fill:#FFFFFF;" cx="183.5" cy="63.2" r="0.5"/>
		<circle style="fill:#FFFFFF;" cx="179" cy="63.2" r="0.5"/>
		<circle style="fill:#FFFFFF;" cx="174.5" cy="63.2" r="0.5"/>
		<circle style="fill:#FFFFFF;" cx="170" cy="63.2" r="0.5"/>
		<circle style="fill:#FFFFFF;" cx="165.6" cy="63.2" r="0.5"/>
		<circle style="fill:#FFFFFF;" cx="161.1" cy="63.2" r="0.5"/>
		<circle style="fill:#FFFFFF;" cx="156.6" cy="63.2" r="0.5"/>
		<circle style="fill:#FFFFFF;" cx="152.1" cy="63.2" r="0.5"/>
		<circle style="fill:#FFFFFF;" cx="183.5" cy="68.4" r="0.5"/>
		<circle style="fill:#FFFFFF;" cx="179" cy="68.4" r="0.5"/>
		<circle style="fill:#FFFFFF;" cx="174.5" cy="68.4" r="0.5"/>
		<circle style="fill:#FFFFFF;" cx="144.3" cy="60.4" r="0.5"/>
		<path style="fill:#FFFFFF;" d="M140.3,60.4c0,0.3-0.2,0.5-0.5,0.5c-0.3,0-0.5-0.3-0.5-0.5c0,0,0-0.1,0-0.1c0.3-0.1,0.7-0.1,1-0.2
			C140.3,60.2,140.3,60.3,140.3,60.4z"/>
		<path style="fill:#FFFFFF;" d="M145.5,65.6c-0.4,0.1-0.7,0.1-1.1,0.2c0,0,0-0.1,0-0.1c0-0.3,0.2-0.5,0.5-0.5
			C145.3,65.2,145.5,65.3,145.5,65.6z"/>
		<circle style="fill:#FFFFFF;" cx="140.5" cy="65.7" r="0.5"/>
		<circle style="fill:#FFFFFF;" cx="136" cy="65.7" r="0.5"/>
		<circle style="fill:#FFFFFF;" cx="131.6" cy="65.7" r="0.5"/>
		<circle style="fill:#FFFFFF;" cx="127.1" cy="65.7" r="0.5"/>
		<circle style="fill:#FFFFFF;" cx="122.6" cy="65.7" r="0.5"/>
		<circle style="fill:#FFFFFF;" cx="146.9" cy="63.2" r="0.5"/>
		<circle style="fill:#FFFFFF;" cx="142.5" cy="63.2" r="0.5"/>
		<circle style="fill:#FFFFFF;" cx="138" cy="63.2" r="0.5"/>
		<circle style="fill:#FFFFFF;" cx="133.5" cy="63.2" r="0.5"/>
		<path style="fill:#FFFFFF;" d="M129.6,63.2c0,0.3-0.2,0.5-0.5,0.5c-0.3,0-0.5-0.2-0.5-0.5c0-0.1,0-0.2,0.1-0.3
			c0.2-0.1,0.5-0.1,0.7-0.2C129.4,62.8,129.6,63,129.6,63.2z"/>
		<circle style="fill:#FFFFFF;" cx="133.5" cy="68.4" r="0.5"/>
		<circle style="fill:#FFFFFF;" cx="129" cy="68.4" r="0.5"/>
		<circle style="fill:#FFFFFF;" cx="124.5" cy="68.4" r="0.5"/>
		<circle style="fill:#FFFFFF;" cx="120.1" cy="68.4" r="0.5"/>
		<circle style="fill:#FFFFFF;" cx="115.6" cy="68.4" r="0.5"/>
		<circle style="fill:#FFFFFF;" cx="120.7" cy="73.9" r="0.5"/>
		<circle style="fill:#FFFFFF;" cx="116.2" cy="73.9" r="0.5"/>
		<circle style="fill:#FFFFFF;" cx="111.7" cy="73.9" r="0.5"/>
		<circle style="fill:#FFFFFF;" cx="107.2" cy="73.9" r="0.5"/>
		<path style="fill:#FFFFFF;" d="M127.6,71.1c-0.3,0.1-0.7,0.3-1,0.4c0-0.1-0.1-0.1-0.1-0.2c0-0.3,0.2-0.5,0.5-0.5
			C127.3,70.8,127.5,70.9,127.6,71.1z"/>
		<circle style="fill:#FFFFFF;" cx="122.6" cy="71.3" r="0.5"/>
		<circle style="fill:#FFFFFF;" cx="118.1" cy="71.3" r="0.5"/>
		<circle style="fill:#FFFFFF;" cx="113.7" cy="71.3" r="0.5"/>
		<path style="fill:#FFFFFF;" d="M109.6,71.7c-0.2,0.2-0.6,0.2-0.8,0c-0.1-0.1-0.2-0.3-0.1-0.5c0.2-0.1,0.4-0.3,0.7-0.4
			c0.1,0,0.2,0.1,0.3,0.1C109.8,71.2,109.8,71.5,109.6,71.7z"/>
		<circle style="fill:#FFFFFF;" cx="113.7" cy="76.6" r="0.5"/>
		<circle style="fill:#FFFFFF;" cx="109.2" cy="76.6" r="0.5"/>
		<circle style="fill:#FFFFFF;" cx="104.7" cy="76.6" r="0.5"/>
		<circle style="fill:#FFFFFF;" cx="109.9" cy="81.9" r="0.5"/>
		<circle style="fill:#FFFFFF;" cx="105.4" cy="81.9" r="0.5"/>
		<circle style="fill:#FFFFFF;" cx="111.8" cy="79.3" r="0.5"/>
		<circle style="fill:#FFFFFF;" cx="107.4" cy="79.3" r="0.5"/>
		<circle style="fill:#FFFFFF;" cx="107.4" cy="84.6" r="0.5"/>
		<circle style="fill:#FFFFFF;" cx="107.8" cy="90.3" r="0.5"/>
		<path style="fill:#FFFFFF;" d="M110.2,88C110.2,88,110.2,88,110.2,88c0,0,0,0.1-0.1,0.1c-0.2,0.2-0.6,0.2-0.8,0
			c-0.2-0.2-0.2-0.6,0-0.8c0.1-0.1,0.4-0.2,0.5-0.1C109.9,87.5,110.1,87.7,110.2,88z"/>
		<path style="fill:#FFFFFF;" d="M105.6,88.1c-0.1-0.3-0.3-0.6-0.4-0.9c0.1,0,0.3,0.1,0.3,0.2C105.8,87.5,105.8,87.9,105.6,88.1z"/>
		<circle style="fill:#FFFFFF;" cx="109.7" cy="93" r="0.5"/>
		<circle style="fill:#FFFFFF;" cx="114.9" cy="98.2" r="0.5"/>
		<circle style="fill:#FFFFFF;" cx="112.4" cy="95.7" r="0.5"/>
		<path style="fill:#FFFFFF;" d="M121.8,101.2c-0.1,0.1-0.3,0.3-0.5,0.3c-0.3,0-0.5-0.2-0.5-0.5c0-0.1,0.1-0.3,0.1-0.4
			C121.2,100.8,121.5,101,121.8,101.2z"/>
		<circle style="fill:#FFFFFF;" cx="116.9" cy="101" r="0.5"/>
		<circle style="fill:#FFFFFF;" cx="158" cy="106" r="0.5"/>
		<circle style="fill:#FFFFFF;" cx="153.5" cy="106" r="0.5"/>
		<circle style="fill:#FFFFFF;" cx="149.1" cy="106" r="0.5"/>
		<circle style="fill:#FFFFFF;" cx="144.6" cy="106" r="0.5"/>
		<path style="fill:#FFFFFF;" d="M140.7,106L140.7,106c0,0.3-0.2,0.5-0.5,0.5c-0.3,0-0.5-0.2-0.5-0.4
			C139.9,106.1,140.3,106.1,140.7,106z"/>
		<path style="fill:#FFFFFF;" d="M136.1,106.2c0,0.1-0.1,0.1-0.1,0.2c-0.2,0.2-0.6,0.2-0.8,0c-0.1-0.1-0.1-0.1-0.1-0.2
			C135.5,106.2,135.8,106.2,136.1,106.2z"/>
		<path style="fill:#F91E39;" d="M131.6,105.7c-0.2,0-0.5-0.1-0.7-0.2C131.1,105.4,131.4,105.5,131.6,105.7
			C131.6,105.6,131.6,105.7,131.6,105.7z"/>
		<path style="fill:#FFFFFF;" d="M131.5,106.4c-0.2,0.2-0.6,0.2-0.8,0c-0.2-0.2-0.2-0.6,0-0.8c0,0,0.1-0.1,0.1-0.1
			c0.2,0.1,0.5,0.1,0.7,0.2h0C131.8,105.9,131.7,106.2,131.5,106.4z"/>
		<circle style="fill:#FFFFFF;" cx="126.7" cy="106" r="0.5"/>
		<circle style="fill:#FFFFFF;" cx="122.2" cy="106" r="0.5"/>
		<circle style="fill:#FFFFFF;" cx="155.5" cy="103.5" r="0.5"/>
		<circle style="fill:#FFFFFF;" cx="151" cy="103.5" r="0.5"/>
		<circle style="fill:#FFFFFF;" cx="124.1" cy="103.5" r="0.5"/>
		<circle style="fill:#FFFFFF;" cx="119.7" cy="103.5" r="0.5"/>
		<circle style="fill:#FFFFFF;" cx="151" cy="108.7" r="0.5"/>
		<circle style="fill:#FFFFFF;" cx="146.5" cy="108.7" r="0.5"/>
		<circle style="fill:#FFFFFF;" cx="142" cy="108.7" r="0.5"/>
		<circle style="fill:#FFFFFF;" cx="137.6" cy="108.7" r="0.5"/>
		<circle style="fill:#FFFFFF;" cx="133.1" cy="108.7" r="0.5"/>
		<circle style="fill:#FFFFFF;" cx="128.6" cy="108.7" r="0.5"/>
		<path style="fill:#FFFFFF;" d="M124.7,108.8c-0.3-0.1-0.6-0.3-0.9-0.4l0,0c0.2-0.2,0.6-0.2,0.8,0
			C124.6,108.5,124.7,108.6,124.7,108.8z"/>
		<circle style="fill:#FFFFFF;" cx="160.7" cy="103.6" r="0.5"/>
		<path style="fill:#FFFFFF;" d="M145.1,111.1c-0.3,0-0.6,0.1-0.9,0.1c0.1-0.2,0.3-0.3,0.5-0.3C144.9,110.9,145,111,145.1,111.1z"/>
		<path style="fill:#FFFFFF;" d="M140.8,111.5C140.8,111.5,140.8,111.5,140.8,111.5c-0.4,0.1-0.7,0.1-1.1,0.1c0,0,0-0.1,0-0.1
			c0-0.3,0.3-0.5,0.5-0.5S140.8,111.2,140.8,111.5z"/>
		<path style="fill:#FFFFFF;" d="M136.3,111.4c-0.4,0-0.7-0.1-1.1-0.1c0-0.1,0.1-0.2,0.1-0.3c0.2-0.2,0.6-0.2,0.8,0
			C136.2,111.2,136.3,111.3,136.3,111.4z"/>
		<circle style="fill:#FFFFFF;" cx="171.3" cy="89.4" r="0.5"/>
		<circle style="fill:#FFFFFF;" cx="166.8" cy="89.4" r="0.5"/>
		<circle style="fill:#FFFFFF;" cx="173.2" cy="86.9" r="0.5"/>
		<circle style="fill:#FFFFFF;" cx="168.8" cy="86.9" r="0.5"/>
		<path style="fill:#FFFFFF;" d="M173.1,91.6c-0.1,0.2-0.3,0.4-0.4,0.6c0,0,0,0,0-0.1C172.7,91.9,172.9,91.7,173.1,91.6z"/>
		<circle style="fill:#FFFFFF;" cx="168.8" cy="92.2" r="0.5"/>
		<path style="fill:#FFFFFF;" d="M164.8,92.2c0,0.3-0.2,0.5-0.5,0.5c-0.1,0-0.2,0-0.3-0.1c0.2-0.3,0.4-0.6,0.6-0.9
			C164.7,91.8,164.8,92,164.8,92.2z"/>
		<circle style="fill:#FFFFFF;" cx="165" cy="97.4" r="0.5"/>
		<circle style="fill:#FFFFFF;" cx="160.5" cy="97.4" r="0.5"/>
		<path style="fill:#FFFFFF;" d="M171.2,94.4c-0.1,0.1-0.2,0.3-0.3,0.4C170.9,94.6,171,94.5,171.2,94.4z"/>
		<circle style="fill:#FFFFFF;" cx="167" cy="94.9" r="0.5"/>
		<path style="fill:#FFFFFF;" d="M161.9,94.9c0,0.3,0.2,0.5,0.5,0.5c0.3,0,0.5-0.2,0.5-0.5c0-0.3-0.2-0.5-0.5-0.5"/>
		<circle style="fill:#FFFFFF;" cx="162.5" cy="100.1" r="0.5"/>
		<circle style="fill:#FFFFFF;" cx="158" cy="100.1" r="0.5"/>
		<circle style="fill:#FFFFFF;" cx="178.9" cy="73.7" r="0.5"/>
		<circle style="fill:#FFFFFF;" cx="174.5" cy="73.7" r="0.5"/>
		<circle style="fill:#FFFFFF;" cx="180.9" cy="71.1" r="0.5"/>
		<circle style="fill:#FFFFFF;" cx="176.4" cy="71.1" r="0.5"/>
		<path style="fill:#FFFFFF;" d="M172.5,71.2c0,0.3-0.2,0.5-0.5,0.5c-0.1,0-0.2,0-0.3-0.1c0-0.2-0.1-0.5-0.1-0.7c0,0,0,0,0,0
			c0.1-0.2,0.3-0.3,0.5-0.3C172.2,70.6,172.5,70.8,172.5,71.2z"/>
		<circle style="fill:#FFFFFF;" cx="180.9" cy="76.4" r="0.5"/>
		<circle style="fill:#FFFFFF;" cx="176.4" cy="76.4" r="0.5"/>
		<circle style="fill:#FFFFFF;" cx="171.9" cy="76.4" r="0.5"/>
		<circle style="fill:#FFFFFF;" cx="177.1" cy="81.7" r="0.5"/>
		<circle style="fill:#FFFFFF;" cx="172.6" cy="81.7" r="0.5"/>
		<circle style="fill:#FFFFFF;" cx="179.1" cy="79.1" r="0.5"/>
		<circle style="fill:#FFFFFF;" cx="174.6" cy="79.1" r="0.5"/>
		<circle style="fill:#FFFFFF;" cx="174.6" cy="84.4" r="0.5"/>
		<circle style="fill:#FFFFFF;" cx="170.1" cy="84.4" r="0.5"/>
	</g>
	<g>
		<path style="fill:#F91E39;" d="M11,65.2c0,0.1,0.1,0.1,0.1,0.2c0.1,0.2,0.2,0.5,0.3,0.8c1,2.3,2.4,5.9,4.4,10.2v0
			c0.1,0.1,0.1,0.3,0.2,0.4c2.1,4.6,4.8,9.9,8.1,14.8c0.1,0.2,0.3,0.4,0.4,0.6c0.5,0.7,1,1.4,1.5,2.1c0,0,0,0,0,0
			c0.1,0.1,0.2,0.3,0.3,0.4c0,0,0,0,0,0c3.1,4.1,6.5,7.8,10.5,10.5c4.3,2.9,9.6,4.9,15.3,5.8c0.3,0,0.6,0.1,0.9,0.1
			c1.1,0.1,2.3,0.2,3.4,0.3c0.4,0,0.7,0,1.1,0c1.1,0,2.3,0,3.4-0.1c0.4,0,0.7-0.1,1.1-0.1c3.6-0.3,7.2-1.2,10.5-2.6
			c0.3-0.1,0.6-0.3,0.9-0.4c6-2.7,11.4-7.3,15.1-14c1.3-2.3,2.3-4.4,3-6.3c0.1-0.3,0.3-0.6,0.4-0.9c0.1-0.3,0.2-0.6,0.3-0.9
			c0,0,0,0,0,0c3.3-9.9-0.8-13.2-2.4-14.3c0,0,0,0,0,0c-0.4-0.3-0.8-0.5-1.2-0.8c-0.2-0.1-0.4-0.3-0.7-0.4
			c-4.6-2.8-10.9-5.6-19.3-7.9c-0.2-0.1-0.5-0.1-0.7-0.2c-3.1-0.8-6.4-1.6-10-2.3c-0.3-0.1-0.7-0.1-1-0.2c-0.7-0.1-1.4-0.3-2.1-0.4
			c-2.9-0.5-6-1-9.3-1.6c-0.3,0-0.5-0.1-0.8-0.1c-1.2-0.2-2.3-0.4-3.5-0.6c-0.3,0-0.6-0.1-0.9-0.1c-4.7-0.7-9.5-1.4-14.5-1.9
			c-0.3,0-0.7-0.1-1-0.1c-1.1-0.1-2.3-0.2-3.4-0.3c-0.3,0-0.6-0.1-1-0.1c-1.5-0.1-3.1-0.3-4.6-0.4c-1.4-0.1-2.6,0-3.5,0.3h0
			c-0.3,0.1-0.7,0.2-0.9,0.4c-0.9,0.5-1.4,1.2-1.7,2.1c-0.1,0.3-0.2,0.6-0.2,1C9.2,60.1,9.9,62.5,11,65.2z M25.8,76.5L25.8,76.5
			c0-0.1,0-0.3-0.1-0.4c-0.3-1.6-0.4-3.2-0.1-4.6c0-0.2,0.1-0.5,0.1-0.7c0,0,0,0,0,0c0.4-1.9,1.4-3.5,3.1-4.7
			c0.3-0.2,0.5-0.3,0.8-0.5v0c2.6-1.4,6.4-2,12-1.5c3.5,0.3,6.9,0.8,10,1.5c0.4,0.1,0.7,0.1,1.1,0.2c3.8,0.8,7.3,1.8,10.5,2.9
			c0,0,0,0,0,0c0.2,0.1,0.4,0.1,0.6,0.2c2.1,0.7,4,1.5,5.7,2.2c0.3,0.1,0.7,0.3,1,0.4c2.1,0.9,3.9,1.8,5.5,2.6
			c0.1,0.1,0.3,0.1,0.4,0.2c0,0,0,0,0,0c4.4,2.3,6.8,4.2,6.8,4.2c1.2,1.1,2.6,2.1,3.5,3.5c0,0,0,0,0,0c0,0.1,0.1,0.1,0.1,0.2l0,0
			c0.8,1.3,1.1,2.8,0.4,4.9c-0.1,0.3-0.2,0.5-0.3,0.8v0c-1.2,2.7-3.9,6.4-9.4,11.4c-0.5,0.4-0.9,0.8-1.4,1.2
			c-0.3,0.2-0.6,0.4-0.9,0.7c-2.9,2.2-6,3.5-9.1,4.3c-0.2,0.1-0.5,0.1-0.7,0.2h0c-1.2,0.3-2.3,0.4-3.5,0.5c-0.3,0-0.7,0-1,0
			c-1.2,0-2.3,0-3.4-0.1c-0.4,0-0.7-0.1-1.1-0.1c-3.4-0.4-6.8-1.5-10-2.9c-0.1,0-0.2-0.1-0.3-0.1c0,0,0,0,0,0c-4.3-2-8.1-4.8-11-8
			c-0.2-0.2-0.4-0.4-0.6-0.6c-0.5-0.6-1-1.2-1.4-1.8c-0.2-0.3-0.4-0.6-0.6-0.9c-0.3-0.5-0.7-1-1-1.5C28.9,85.6,26.7,80.8,25.8,76.5z
			"/>
	</g>
	<g>
		<path style="fill:#FFFFFF;" d="M9.4,58.3c0.3,0,0.5-0.3,0.5-0.5c0-0.2-0.1-0.4-0.3-0.5C9.5,57.6,9.5,57.9,9.4,58.3z"/>
		<circle style="fill:#FFFFFF;" cx="13.8" cy="57.7" r="0.5"/>
		<circle style="fill:#FFFFFF;" cx="18.3" cy="57.7" r="0.5"/>
		<circle style="fill:#FFFFFF;" cx="22.8" cy="57.7" r="0.5"/>
		<circle style="fill:#FFFFFF;" cx="27.3" cy="57.7" r="0.5"/>
		<circle style="fill:#FFFFFF;" cx="31.8" cy="57.7" r="0.5"/>
		<circle style="fill:#FFFFFF;" cx="36.2" cy="57.7" r="0.5"/>
		<path style="fill:#FFFFFF;" d="M40.3,58.1c0.2,0.2,0.6,0.2,0.8,0c0.2-0.2,0.2-0.4,0.1-0.6c-0.3,0-0.6-0.1-0.9-0.1
			C40.1,57.6,40.1,57.9,40.3,58.1z"/>
		<path style="fill:#FFFFFF;" d="M44.7,58C44.8,58.1,44.8,58.1,44.7,58c0.3,0.3,0.6,0.3,0.8,0.1C45.3,58.1,45,58.1,44.7,58z"/>
		<path style="fill:#FFFFFF;" d="M11.4,55.2c0,0.3,0.3,0.5,0.5,0.5c0.3,0,0.5-0.2,0.5-0.5c0-0.1-0.1-0.3-0.1-0.4h0
			C12,54.9,11.7,55.1,11.4,55.2z"/>
		<circle style="fill:#FFFFFF;" cx="16.4" cy="55.2" r="0.5"/>
		<path style="fill:#FFFFFF;" d="M20.3,55.2c0,0.3,0.2,0.5,0.5,0.5c0.3,0,0.5-0.2,0.5-0.5c0-0.1,0-0.1,0-0.2c-0.3,0-0.6-0.1-1-0.1
			C20.4,55,20.3,55.1,20.3,55.2z"/>
		<path style="fill:#FFFFFF;" d="M24.8,55.3c0.1,0.2,0.3,0.4,0.5,0.4c0.2,0,0.4-0.1,0.5-0.3C25.5,55.4,25.2,55.4,24.8,55.3z"/>
		<circle style="fill:#FFFFFF;" cx="11.9" cy="60.4" r="0.5"/>
		<circle style="fill:#FFFFFF;" cx="16.4" cy="60.4" r="0.5"/>
		<circle style="fill:#FFFFFF;" cx="20.9" cy="60.4" r="0.5"/>
		<circle style="fill:#FFFFFF;" cx="25.3" cy="60.4" r="0.5"/>
		<circle style="fill:#FFFFFF;" cx="29.8" cy="60.4" r="0.5"/>
		<circle style="fill:#FFFFFF;" cx="34.3" cy="60.4" r="0.5"/>
		<circle style="fill:#FFFFFF;" cx="38.8" cy="60.4" r="0.5"/>
		<circle style="fill:#FFFFFF;" cx="43.3" cy="60.4" r="0.5"/>
		<circle style="fill:#FFFFFF;" cx="47.7" cy="60.4" r="0.5"/>
		<path style="fill:#FFFFFF;" d="M11,65.2c0,0.1,0.1,0.1,0.1,0.2c0.1,0.2,0.2,0.5,0.3,0.8c0.2-0.1,0.3-0.3,0.3-0.5
			c0-0.3-0.2-0.5-0.5-0.5C11.1,65.2,11.1,65.2,11,65.2z"/>
		<circle style="fill:#FFFFFF;" cx="15.7" cy="65.7" r="0.5"/>
		<circle style="fill:#FFFFFF;" cx="20.1" cy="65.7" r="0.5"/>
		<circle style="fill:#FFFFFF;" cx="24.6" cy="65.7" r="0.5"/>
		<path style="fill:#FFFFFF;" d="M28.7,66.1c0,0,0.1,0.1,0.1,0.1c0.3-0.2,0.5-0.3,0.8-0.5v0c0-0.1-0.1-0.3-0.2-0.4
			c-0.2-0.2-0.6-0.2-0.8,0C28.5,65.5,28.5,65.9,28.7,66.1z"/>
		<circle style="fill:#FFFFFF;" cx="13.7" cy="63.2" r="0.5"/>
		<circle style="fill:#FFFFFF;" cx="18.2" cy="63.2" r="0.5"/>
		<circle style="fill:#FFFFFF;" cx="22.7" cy="63.2" r="0.5"/>
		<circle style="fill:#FFFFFF;" cx="27.2" cy="63.2" r="0.5"/>
		<circle style="fill:#FFFFFF;" cx="31.6" cy="63.2" r="0.5"/>
		<circle style="fill:#FFFFFF;" cx="36.1" cy="63.2" r="0.5"/>
		<circle style="fill:#FFFFFF;" cx="40.6" cy="63.2" r="0.5"/>
		<circle style="fill:#FFFFFF;" cx="45.1" cy="63.2" r="0.5"/>
		<circle style="fill:#FFFFFF;" cx="13.7" cy="68.4" r="0.5"/>
		<circle style="fill:#FFFFFF;" cx="18.2" cy="68.4" r="0.5"/>
		<circle style="fill:#FFFFFF;" cx="22.7" cy="68.4" r="0.5"/>
		<circle style="fill:#FFFFFF;" cx="52.9" cy="60.4" r="0.5"/>
		<path style="fill:#FFFFFF;" d="M56.9,60.4c0,0.3,0.2,0.5,0.5,0.5c0.3,0,0.5-0.3,0.5-0.5c0,0,0-0.1,0-0.1c-0.3-0.1-0.7-0.1-1-0.2
			C56.9,60.2,56.9,60.3,56.9,60.4z"/>
		<path style="fill:#FFFFFF;" d="M51.7,65.6c0.4,0.1,0.7,0.1,1.1,0.2c0,0,0-0.1,0-0.1c0-0.3-0.2-0.5-0.5-0.5
			C51.9,65.2,51.7,65.3,51.7,65.6z"/>
		<circle style="fill:#FFFFFF;" cx="56.7" cy="65.7" r="0.5"/>
		<circle style="fill:#FFFFFF;" cx="61.2" cy="65.7" r="0.5"/>
		<circle style="fill:#FFFFFF;" cx="65.6" cy="65.7" r="0.5"/>
		<circle style="fill:#FFFFFF;" cx="70.1" cy="65.7" r="0.5"/>
		<circle style="fill:#FFFFFF;" cx="74.6" cy="65.7" r="0.5"/>
		<circle style="fill:#FFFFFF;" cx="50.3" cy="63.2" r="0.5"/>
		<circle style="fill:#FFFFFF;" cx="54.8" cy="63.2" r="0.5"/>
		<circle style="fill:#FFFFFF;" cx="59.2" cy="63.2" r="0.5"/>
		<circle style="fill:#FFFFFF;" cx="63.7" cy="63.2" r="0.5"/>
		<path style="fill:#FFFFFF;" d="M67.6,63.2c0,0.3,0.2,0.5,0.5,0.5c0.3,0,0.5-0.2,0.5-0.5c0-0.1,0-0.2-0.1-0.3
			c-0.2-0.1-0.5-0.1-0.7-0.2C67.8,62.8,67.6,63,67.6,63.2z"/>
		<circle style="fill:#FFFFFF;" cx="63.7" cy="68.4" r="0.5"/>
		<circle style="fill:#FFFFFF;" cx="68.2" cy="68.4" r="0.5"/>
		<circle style="fill:#FFFFFF;" cx="72.7" cy="68.4" r="0.5"/>
		<circle style="fill:#FFFFFF;" cx="77.1" cy="68.4" r="0.5"/>
		<circle style="fill:#FFFFFF;" cx="81.6" cy="68.4" r="0.5"/>
		<circle style="fill:#FFFFFF;" cx="76.5" cy="73.9" r="0.5"/>
		<circle style="fill:#FFFFFF;" cx="81" cy="73.9" r="0.5"/>
		<circle style="fill:#FFFFFF;" cx="85.5" cy="73.9" r="0.5"/>
		<circle style="fill:#FFFFFF;" cx="90" cy="73.9" r="0.5"/>
		<path style="fill:#FFFFFF;" d="M69.6,71.1c0.3,0.1,0.7,0.3,1,0.4c0-0.1,0.1-0.1,0.1-0.2c0-0.3-0.2-0.5-0.5-0.5
			C69.9,70.8,69.7,70.9,69.6,71.1z"/>
		<circle style="fill:#FFFFFF;" cx="74.6" cy="71.3" r="0.5"/>
		<circle style="fill:#FFFFFF;" cx="79.1" cy="71.3" r="0.5"/>
		<circle style="fill:#FFFFFF;" cx="83.6" cy="71.3" r="0.5"/>
		<path style="fill:#FFFFFF;" d="M87.7,71.7c0.2,0.2,0.6,0.2,0.8,0c0.1-0.1,0.2-0.3,0.1-0.5c-0.2-0.1-0.4-0.3-0.7-0.4
			c-0.1,0-0.2,0.1-0.3,0.1C87.4,71.2,87.4,71.5,87.7,71.7z"/>
		<circle style="fill:#FFFFFF;" cx="83.6" cy="76.6" r="0.5"/>
		<circle style="fill:#FFFFFF;" cx="88" cy="76.6" r="0.5"/>
		<circle style="fill:#FFFFFF;" cx="92.5" cy="76.6" r="0.5"/>
		<circle style="fill:#FFFFFF;" cx="87.3" cy="81.9" r="0.5"/>
		<circle style="fill:#FFFFFF;" cx="91.8" cy="81.9" r="0.5"/>
		<circle style="fill:#FFFFFF;" cx="85.4" cy="79.3" r="0.5"/>
		<circle style="fill:#FFFFFF;" cx="89.9" cy="79.3" r="0.5"/>
		<circle style="fill:#FFFFFF;" cx="89.9" cy="84.6" r="0.5"/>
		<circle style="fill:#FFFFFF;" cx="89.4" cy="90.3" r="0.5"/>
		<path style="fill:#FFFFFF;" d="M87,88C87,88,87,88,87,88c0,0,0,0.1,0.1,0.1c0.2,0.2,0.6,0.2,0.8,0c0.2-0.2,0.2-0.6,0-0.8
			c-0.1-0.1-0.4-0.2-0.5-0.1C87.3,87.5,87.1,87.7,87,88z"/>
		<path style="fill:#FFFFFF;" d="M91.6,88.1c0.1-0.3,0.3-0.6,0.4-0.9c-0.1,0-0.3,0.1-0.3,0.2C91.4,87.5,91.4,87.9,91.6,88.1z"/>
		<circle style="fill:#FFFFFF;" cx="87.5" cy="93" r="0.5"/>
		<circle style="fill:#FFFFFF;" cx="82.3" cy="98.2" r="0.5"/>
		<circle style="fill:#FFFFFF;" cx="84.8" cy="95.7" r="0.5"/>
		<path style="fill:#FFFFFF;" d="M75.4,101.2c0.1,0.1,0.3,0.3,0.5,0.3c0.3,0,0.5-0.2,0.5-0.5c0-0.1-0.1-0.3-0.1-0.4
			C76,100.8,75.7,101,75.4,101.2z"/>
		<circle style="fill:#FFFFFF;" cx="80.4" cy="101" r="0.5"/>
		<circle style="fill:#FFFFFF;" cx="39.2" cy="106" r="0.5"/>
		<circle style="fill:#FFFFFF;" cx="43.7" cy="106" r="0.5"/>
		<circle style="fill:#FFFFFF;" cx="48.1" cy="106" r="0.5"/>
		<circle style="fill:#FFFFFF;" cx="52.6" cy="106" r="0.5"/>
		<path style="fill:#FFFFFF;" d="M56.6,106L56.6,106c0,0.3,0.2,0.5,0.5,0.5c0.3,0,0.5-0.2,0.5-0.4C57.3,106.1,56.9,106.1,56.6,106z"
			/>
		<path style="fill:#FFFFFF;" d="M61.1,106.2c0,0.1,0.1,0.1,0.1,0.2c0.2,0.2,0.6,0.2,0.8,0c0.1-0.1,0.1-0.1,0.1-0.2
			C61.7,106.2,61.4,106.2,61.1,106.2z"/>
		<path style="fill:#F91E39;" d="M65.6,105.7c0.2,0,0.5-0.1,0.7-0.2C66.1,105.4,65.8,105.5,65.6,105.7
			C65.6,105.6,65.6,105.7,65.6,105.7z"/>
		<path style="fill:#FFFFFF;" d="M65.7,106.4c0.2,0.2,0.6,0.2,0.8,0c0.2-0.2,0.2-0.6,0-0.8c0,0-0.1-0.1-0.1-0.1
			c-0.2,0.1-0.5,0.1-0.7,0.2h0C65.5,105.9,65.5,106.2,65.7,106.4z"/>
		<circle style="fill:#FFFFFF;" cx="70.5" cy="106" r="0.5"/>
		<circle style="fill:#FFFFFF;" cx="75" cy="106" r="0.5"/>
		<circle style="fill:#FFFFFF;" cx="41.7" cy="103.5" r="0.5"/>
		<circle style="fill:#FFFFFF;" cx="46.2" cy="103.5" r="0.5"/>
		<circle style="fill:#FFFFFF;" cx="73.1" cy="103.5" r="0.5"/>
		<circle style="fill:#FFFFFF;" cx="77.6" cy="103.5" r="0.5"/>
		<circle style="fill:#FFFFFF;" cx="46.2" cy="108.7" r="0.5"/>
		<circle style="fill:#FFFFFF;" cx="50.7" cy="108.7" r="0.5"/>
		<circle style="fill:#FFFFFF;" cx="55.2" cy="108.7" r="0.5"/>
		<circle style="fill:#FFFFFF;" cx="59.6" cy="108.7" r="0.5"/>
		<circle style="fill:#FFFFFF;" cx="64.1" cy="108.7" r="0.5"/>
		<circle style="fill:#FFFFFF;" cx="68.6" cy="108.7" r="0.5"/>
		<path style="fill:#FFFFFF;" d="M72.5,108.8c0.3-0.1,0.6-0.3,0.9-0.4l0,0c-0.2-0.2-0.6-0.2-0.8,0C72.6,108.5,72.5,108.6,72.5,108.8
			z"/>
		<circle style="fill:#FFFFFF;" cx="36.6" cy="103.6" r="0.5"/>
		<path style="fill:#FFFFFF;" d="M52.1,111.1c0.3,0,0.6,0.1,0.9,0.1c-0.1-0.2-0.3-0.3-0.5-0.3C52.3,110.9,52.2,111,52.1,111.1z"/>
		<path style="fill:#FFFFFF;" d="M56.4,111.5C56.4,111.5,56.4,111.5,56.4,111.5c0.4,0.1,0.7,0.1,1.1,0.1c0,0,0-0.1,0-0.1
			c0-0.3-0.3-0.5-0.5-0.5C56.7,110.9,56.4,111.2,56.4,111.5z"/>
		<path style="fill:#FFFFFF;" d="M60.9,111.4c0.4,0,0.7-0.1,1.1-0.1c0-0.1-0.1-0.2-0.1-0.3c-0.2-0.2-0.6-0.2-0.8,0
			C61,111.2,60.9,111.3,60.9,111.4z"/>
		<circle style="fill:#FFFFFF;" cx="25.9" cy="89.4" r="0.5"/>
		<circle style="fill:#FFFFFF;" cx="30.4" cy="89.4" r="0.5"/>
		<circle style="fill:#FFFFFF;" cx="24" cy="86.9" r="0.5"/>
		<circle style="fill:#FFFFFF;" cx="28.4" cy="86.9" r="0.5"/>
		<path style="fill:#FFFFFF;" d="M24.1,91.6c0.1,0.2,0.3,0.4,0.4,0.6c0,0,0,0,0-0.1C24.5,91.9,24.3,91.7,24.1,91.6z"/>
		<circle style="fill:#FFFFFF;" cx="28.4" cy="92.2" r="0.5"/>
		<path style="fill:#FFFFFF;" d="M32.4,92.2c0,0.3,0.2,0.5,0.5,0.5c0.1,0,0.2,0,0.3-0.1c-0.2-0.3-0.4-0.6-0.6-0.9
			C32.5,91.8,32.4,92,32.4,92.2z"/>
		<circle style="fill:#FFFFFF;" cx="32.2" cy="97.4" r="0.5"/>
		<circle style="fill:#FFFFFF;" cx="36.7" cy="97.4" r="0.5"/>
		<path style="fill:#FFFFFF;" d="M26,94.4c0.1,0.1,0.2,0.3,0.3,0.4C26.3,94.6,26.2,94.5,26,94.4z"/>
		<circle style="fill:#FFFFFF;" cx="30.3" cy="94.9" r="0.5"/>
		<path style="fill:#FFFFFF;" d="M35.3,94.9c0,0.3-0.2,0.5-0.5,0.5s-0.5-0.2-0.5-0.5c0-0.3,0.2-0.5,0.5-0.5"/>
		<circle style="fill:#FFFFFF;" cx="34.7" cy="100.1" r="0.5"/>
		<circle style="fill:#FFFFFF;" cx="39.2" cy="100.1" r="0.5"/>
		<circle style="fill:#FFFFFF;" cx="18.3" cy="73.7" r="0.5"/>
		<circle style="fill:#FFFFFF;" cx="22.7" cy="73.7" r="0.5"/>
		<circle style="fill:#FFFFFF;" cx="16.3" cy="71.1" r="0.5"/>
		<circle style="fill:#FFFFFF;" cx="20.8" cy="71.1" r="0.5"/>
		<path style="fill:#FFFFFF;" d="M24.7,71.2c0,0.3,0.2,0.5,0.5,0.5c0.1,0,0.2,0,0.3-0.1c0-0.2,0.1-0.5,0.1-0.7c0,0,0,0,0,0
			c-0.1-0.2-0.3-0.3-0.5-0.3C25,70.6,24.7,70.8,24.7,71.2z"/>
		<circle style="fill:#FFFFFF;" cx="16.3" cy="76.4" r="0.5"/>
		<circle style="fill:#FFFFFF;" cx="20.8" cy="76.4" r="0.5"/>
		<circle style="fill:#FFFFFF;" cx="25.3" cy="76.4" r="0.5"/>
		<circle style="fill:#FFFFFF;" cx="20.1" cy="81.7" r="0.5"/>
		<circle style="fill:#FFFFFF;" cx="24.6" cy="81.7" r="0.5"/>
		<circle style="fill:#FFFFFF;" cx="18.2" cy="79.1" r="0.5"/>
		<circle style="fill:#FFFFFF;" cx="22.6" cy="79.1" r="0.5"/>
		<circle style="fill:#FFFFFF;" cx="22.6" cy="84.4" r="0.5"/>
		<circle style="fill:#FFFFFF;" cx="27.1" cy="84.4" r="0.5"/>
	</g>
	<path style="fill:#F91E39;" d="M107.4,72L105,86.3c0,0-4.5-7-10.4-2.5c-0.3,0.2-0.5,0.4-0.8,0.7c-0.5,0.5-1,1.1-1.6,1.7L89.8,72
		c0,0,1.2,0.7,3.3,1.4c0.3,0.1,0.6,0.2,0.9,0.3c1.1,0.3,2.3,0.5,3.7,0.6c0.2,0,0.3,0,0.5,0c1.3,0,2.6-0.1,4-0.3
		c0.3-0.1,0.7-0.1,1-0.2C104.6,73.3,106,72.8,107.4,72z"/>
	<circle style="fill:#FFFFFF;" cx="100.5" cy="76.3" r="0.5"/>
	<circle style="fill:#FFFFFF;" cx="96" cy="76.3" r="0.5"/>
	<circle style="fill:#FFFFFF;" cx="91.5" cy="76.3" r="0.5"/>
	<path style="fill:#FFFFFF;" d="M98.2,74.2c-0.1,0-0.1,0-0.2,0c-0.1,0-0.2,0-0.3-0.1C97.8,74.2,98,74.2,98.2,74.2z"/>
	<path style="fill:#FFFFFF;" d="M94,73.6c0,0.2,0,0.3-0.1,0.5c-0.2,0.2-0.6,0.2-0.8,0c-0.2-0.2-0.2-0.5,0-0.7
		C93.4,73.5,93.7,73.6,94,73.6z"/>
	<circle style="fill:#FFFFFF;" cx="90" cy="73.9" r="0.5"/>
	<circle style="fill:#FFFFFF;" cx="98" cy="79" r="0.5"/>
	<circle style="fill:#FFFFFF;" cx="93.5" cy="79" r="0.5"/>
	<path style="fill:#FFFFFF;" d="M94.6,83.9c-0.3,0.2-0.5,0.4-0.8,0.7c-0.2-0.2-0.2-0.5,0-0.7C94,83.6,94.4,83.6,94.6,83.9
		C94.6,83.9,94.6,83.9,94.6,83.9z"/>
	<circle style="fill:#FFFFFF;" cx="96.1" cy="81.7" r="0.5"/>
	<circle style="fill:#FFFFFF;" cx="107.2" cy="73.9" r="0.5"/>
	<path style="fill:#FFFFFF;" d="M103.2,74.3c-0.2,0.2-0.6,0.2-0.8,0c-0.1-0.1-0.2-0.2-0.2-0.4c0.3-0.1,0.7-0.1,1-0.2
		C103.4,73.8,103.3,74.1,103.2,74.3z"/>
	<circle style="fill:#FFFFFF;" cx="104.7" cy="76.6" r="0.5"/>
	<circle style="fill:#FFFFFF;" cx="102.9" cy="79.3" r="0.5"/>
	<circle style="fill:#FFFFFF;" cx="100.2" cy="81.3" r="0.5"/>
	<circle style="fill:#FFFFFF;" cx="105.4" cy="81.8" r="0.5"/>
	<circle style="fill:#FFFFFF;" cx="103.1" cy="83.3" r="0.5"/>
	<circle style="fill:#FFFFFF;" cx="91.7" cy="81.7" r="0.5"/>
</g>
</svg>
