<?xml version="1.0" encoding="utf-8"?>
<!-- Generator: Adobe Illustrator 22.1.0, SVG Export Plug-In . SVG Version: 6.00 Build 0)  -->
<svg version="1.1" id="Layer_1" xmlns="http://www.w3.org/2000/svg" xmlns:xlink="http://www.w3.org/1999/xlink" x="0px" y="0px"
	 viewBox="0 0 196 164" style="enable-background:new 0 0 196 164;" xml:space="preserve">
<g>
	<g>
		<g>
			<path style="fill:#42F4D6;" d="M47.4,103h-2.1C30.2,103,18,90.8,18,75.8s12.2-27.2,27.2-27.2h39.7c2,0,3.8,1,4.9,2.6
				c1.1,1.6,1.3,3.7,0.5,5.5L80.2,81.1C74.6,94.4,61.8,103,47.4,103z M45.2,52.8c-12.7,0-23,10.3-23,23s10.3,23,23,23h2.1
				c12.7,0,24-7.6,28.9-19.3l10.2-24.4c0.3-0.8,0-1.4-0.2-1.6c-0.2-0.2-0.6-0.8-1.4-0.8H45.2z"/>
		</g>
		<g>
			<path style="fill:#42F4D6;" d="M87.1,59.7H29.2c-1.2,0-2.1-0.9-2.1-2.1s0.9-2.1,2.1-2.1h57.9c1.2,0,2.1,0.9,2.1,2.1
				S88.3,59.7,87.1,59.7z"/>
		</g>
		<g>
			<path style="fill:#42F4D6;" d="M82.9,67.3H24.3c-1.2,0-2.1-0.9-2.1-2.1c0-1.2,0.9-2.1,2.1-2.1h58.6c1.2,0,2.1,0.9,2.1,2.1
				C85,66.3,84.1,67.3,82.9,67.3z"/>
		</g>
		<g>
			<path style="fill:#42F4D6;" d="M81.5,74.8H22.2c-1.2,0-2.1-0.9-2.1-2.1c0-1.2,0.9-2.1,2.1-2.1h59.3c1.2,0,2.1,0.9,2.1,2.1
				C83.6,73.9,82.7,74.8,81.5,74.8z"/>
		</g>
		<g>
			<path style="fill:#42F4D6;" d="M76.6,82.3H20.8c-1.2,0-2.1-0.9-2.1-2.1c0-1.2,0.9-2.1,2.1-2.1h55.8c1.2,0,2.1,0.9,2.1,2.1
				C78.7,81.4,77.8,82.3,76.6,82.3z"/>
		</g>
		<g>
			<path style="fill:#42F4D6;" d="M73.1,89.9H24.3c-1.2,0-2.1-0.9-2.1-2.1c0-1.2,0.9-2.1,2.1-2.1h48.8c1.2,0,2.1,0.9,2.1,2.1
				C75.2,88.9,74.3,89.9,73.1,89.9z"/>
		</g>
		<g>
			<path style="fill:#42F4D6;" d="M65.5,97.4H29.9c-1.2,0-2.1-0.9-2.1-2.1c0-1.2,0.9-2.1,2.1-2.1h35.6c1.2,0,2.1,0.9,2.1,2.1
				C67.6,96.5,66.6,97.4,65.5,97.4z"/>
		</g>
	</g>
	<g>
		<g>
			<path style="fill:#42F4D6;" d="M152.7,103h-2.1c-14.4,0-27.2-8.6-32.8-21.9l-10.2-24.4c-0.8-1.8-0.6-3.9,0.5-5.5
				c1.1-1.6,2.9-2.6,4.9-2.6h39.7c15,0,27.2,12.2,27.2,27.2S167.7,103,152.7,103z M113,52.8c-0.8,0-1.3,0.5-1.4,0.8
				c-0.2,0.2-0.5,0.8-0.2,1.6l10.2,24.4c4.9,11.7,16.2,19.3,28.9,19.3h2.1c12.7,0,23-10.3,23-23s-10.3-23-23-23H113z"/>
		</g>
		<g>
			<path style="fill:#42F4D6;" d="M168.7,59.7h-57.9c-1.2,0-2.1-0.9-2.1-2.1s0.9-2.1,2.1-2.1h57.9c1.2,0,2.1,0.9,2.1,2.1
				S169.9,59.7,168.7,59.7z"/>
		</g>
		<g>
			<path style="fill:#42F4D6;" d="M173.6,67.3H115c-1.2,0-2.1-0.9-2.1-2.1c0-1.2,0.9-2.1,2.1-2.1h58.6c1.2,0,2.1,0.9,2.1,2.1
				C175.7,66.3,174.8,67.3,173.6,67.3z"/>
		</g>
		<g>
			<path style="fill:#42F4D6;" d="M175.7,74.8h-59.3c-1.2,0-2.1-0.9-2.1-2.1c0-1.2,0.9-2.1,2.1-2.1h59.3c1.2,0,2.1,0.9,2.1,2.1
				C177.8,73.9,176.9,74.8,175.7,74.8z"/>
		</g>
		<g>
			<path style="fill:#42F4D6;" d="M177.1,82.3h-55.8c-1.2,0-2.1-0.9-2.1-2.1c0-1.2,0.9-2.1,2.1-2.1h55.8c1.2,0,2.1,0.9,2.1,2.1
				C179.2,81.4,178.3,82.3,177.1,82.3z"/>
		</g>
		<g>
			<path style="fill:#42F4D6;" d="M173.6,89.9h-48.8c-1.2,0-2.1-0.9-2.1-2.1c0-1.2,0.9-2.1,2.1-2.1h48.8c1.2,0,2.1,0.9,2.1,2.1
				C175.7,88.9,174.8,89.9,173.6,89.9z"/>
		</g>
		<g>
			<path style="fill:#42F4D6;" d="M168,97.4h-35.6c-1.2,0-2.1-0.9-2.1-2.1c0-1.2,0.9-2.1,2.1-2.1H168c1.2,0,2.1,0.9,2.1,2.1
				C170.1,96.5,169.2,97.4,168,97.4z"/>
		</g>
	</g>
	<polygon style="fill:#42F4D6;" points="84.3,48.6 88.3,57.6 108.9,57.6 112.9,48.6 	"/>
	<polygon style="fill:#FFC33E;" points="32,41 34.7,51.2 45.2,54.3 34.7,57.4 32,67.5 29.2,57.4 18.7,54.3 29.2,51.2 	"/>
	<polygon style="fill:#FFC33E;" points="163.9,41 166.6,51.2 177.1,54.3 166.6,57.4 163.9,67.5 161.1,57.4 150.6,54.3 161.1,51.2 	
		"/>
</g>
</svg>
