<?xml version="1.0" encoding="utf-8"?>
<!-- Generator: Adobe Illustrator 22.1.0, SVG Export Plug-In . SVG Version: 6.00 Build 0)  -->
<svg version="1.1" id="Layer_1" xmlns="http://www.w3.org/2000/svg" xmlns:xlink="http://www.w3.org/1999/xlink" x="0px" y="0px"
	 viewBox="0 0 196 164" style="enable-background:new 0 0 196 164;" xml:space="preserve">
<g>
	<path style="fill:#1E1E1E;" d="M47.1,46.9H11.1v36.1c0,19.9,16.1,36,36.1,36c9.9,0,19-4,25.5-10.6c6.5-6.5,10.6-15.5,10.6-25.5
		C83.2,63,67,46.9,47.1,46.9z M47.1,112.2c-16.2,0-29.3-13.1-29.3-29.3c0-16.2,13.1-29.3,29.3-29.3c16.2,0,29.3,13.1,29.3,29.3
		C76.4,99.1,63.3,112.2,47.1,112.2z"/>
	<circle style="opacity:0.5;fill:#EF4C0C;" cx="47.1" cy="82.9" r="29.3"/>
	<path style="fill:#1E1E1E;" d="M113.4,83c0,9.9,4,19,10.6,25.5c6.5,6.5,15.5,10.6,25.5,10.6c19.9,0,36.1-16.1,36.1-36V46.9h-36.1
		C129.6,46.9,113.4,63,113.4,83z M120.2,83c0-16.2,13.1-29.3,29.3-29.3c16.2,0,29.3,13.1,29.3,29.3c0,16.2-13.1,29.3-29.3,29.3
		C133.3,112.3,120.2,99.1,120.2,83z"/>
	<circle style="opacity:0.5;fill:#EF4C0C;" cx="149.5" cy="83" r="29.3"/>
	<rect x="78.8" y="77.1" style="fill:#1E1E1E;" width="37.8" height="4.8"/>
</g>
</svg>
