<?xml version="1.0" encoding="utf-8"?>
<!-- Generator: Adobe Illustrator 22.1.0, SVG Export Plug-In . SVG Version: 6.00 Build 0)  -->
<svg version="1.1" id="Layer_1" xmlns="http://www.w3.org/2000/svg" xmlns:xlink="http://www.w3.org/1999/xlink" x="0px" y="0px"
	 viewBox="0 0 196 164" style="enable-background:new 0 0 196 164;" xml:space="preserve">
<g>
	<g>
		<path style="fill:#FF9100;" d="M104.6,72.7H91.7c-1.4,0-2.5-1.1-2.5-2.5c0-1.4,1.1-2.5,2.5-2.5h12.9c1.4,0,2.5,1.1,2.5,2.5
			C107.1,71.6,106,72.7,104.6,72.7z"/>
	</g>
	<g>
		<g style="opacity:0.4;">
			<path style="fill:#3B0A6B;" d="M118,49.8c0,0,43.3-8.9,54.8,5.1s9.2,48.4-14,53.5c-29,6.4-58.3-20.4-50.7-44.6
				C110.8,55.3,118,49.8,118,49.8z"/>
		</g>
		<path style="opacity:0.2;fill:#FFFFFF;" d="M106.9,77.4c0,0,44.6-10.7,72.6-7.2c0,0,1.9-23.1-36.7-23.2
			C92.7,46.9,106.9,77.4,106.9,77.4z"/>
		<g>
			<path style="fill:#FF9100;" d="M153.4,111.6c-18.2,0-36.6-10.8-46.2-27.4c-5.9-10-4-24.1,1.5-30.9c8.2-10.3,25.4-10,27.4-9.9
				c11.6-0.9,39.8,1.2,41,1.3c1.2,0.1,2.2,1,2.3,2.2l1.3,8.9c0.2,1.2-0.5,2.3-1.5,2.7l-1,0.4c1.5,3.6,3.9,10.6,3.9,19.1
				c0,18.4-14.5,33.1-27,33.5C154.5,111.6,153.9,111.6,153.4,111.6z M135,48.5c-3.7,0-16.4,0.6-22.3,8c-4.3,5.4-5.8,17-1.1,25.1
				c9,15.4,26.4,25.4,43.2,24.8c8.8-0.3,22.1-11.8,22.1-28.4c0-10.9-4.4-19.1-4.4-19.2c-0.3-0.6-0.4-1.4-0.2-2.1
				c0.2-0.7,0.8-1.2,1.4-1.5l1.6-0.7l-0.7-4.9c-6.8-0.5-29-1.9-38.3-1.1c-0.1,0-0.2,0-0.3,0C136,48.5,135.6,48.5,135,48.5z"/>
		</g>
		<g>
			<path style="fill:#FF9100;" d="M156.5,48.5l19.1-1.3l2.5,7.6l-5.1,5.1C173.1,60,169.3,49.8,156.5,48.5z"/>
		</g>
		<g>
			<circle style="fill:#FFFFFF;" cx="174.4" cy="49.8" r="2.5"/>
		</g>
	</g>
	<g>
		<g style="opacity:0.4;">
			<path style="fill:#3B0A6B;" d="M78.5,51.1c0,0-43.3-8.9-54.8,5.1s-9.2,48.4,14,53.5c29,6.4,58.3-20.4,50.7-44.6
				C85.7,56.6,78.5,51.1,78.5,51.1z"/>
		</g>
		<path style="opacity:0.2;fill:#FFFFFF;" d="M21.4,96.8c0,0,36.6-18.4,67.7-19.4c0,0,8-28.7-25-30.5s-43.7,2.6-44.6,25.8
			S21.4,96.8,21.4,96.8z"/>
		<g>
			<path style="fill:#FF9100;" d="M43.1,112.8c-0.5,0-1,0-1.6,0c-12.5-0.4-27-15.2-27-33.5c0-8.5,2.4-15.5,3.9-19.1l-1-0.4
				c-1.1-0.4-1.7-1.6-1.5-2.7l1.3-8.9c0.2-1.2,1.1-2.1,2.3-2.2c1.2-0.1,29.4-2.2,41-1.3c2.1-0.1,19.2-0.4,27.4,9.9
				c5.4,6.8,7.3,20.8,1.5,30.9C79.7,102,61.3,112.8,43.1,112.8z M21.1,55.8l1.6,0.7c0.7,0.3,1.2,0.8,1.4,1.5
				c0.2,0.7,0.2,1.4-0.2,2.1c0,0.1-4.4,8.4-4.4,19.2c0,16.6,13.3,28.1,22.1,28.4c16.9,0.6,34.2-9.4,43.2-24.8
				c4.7-8.1,3.2-19.8-1.1-25.1c-7-8.7-23.2-8-23.3-8c-0.1,0-0.2,0-0.3,0c-9.4-0.8-31.5,0.7-38.3,1.1L21.1,55.8z"/>
		</g>
		<g>
			<path style="fill:#FF9100;" d="M40,49.8l-19.1-1.3l-2.5,7.6l5.1,5.1C23.4,61.2,27.3,51.1,40,49.8z"/>
		</g>
		<g>
			<circle style="fill:#FFFFFF;" cx="22.8" cy="51.1" r="2.5"/>
		</g>
	</g>
</g>
</svg>
