<?xml version="1.0" encoding="utf-8"?>
<!-- Generator: Adobe Illustrator 22.1.0, SVG Export Plug-In . SVG Version: 6.00 Build 0)  -->
<svg version="1.1" id="Layer_1" xmlns="http://www.w3.org/2000/svg" xmlns:xlink="http://www.w3.org/1999/xlink" x="0px" y="0px"
	 viewBox="0 0 196 164" style="enable-background:new 0 0 196 164;" xml:space="preserve">
<g>
	<g>
		<linearGradient id="SVGID_1_" gradientUnits="userSpaceOnUse" x1="88.7961" y1="80.3339" x2="108.0048" y2="80.3339">
			<stop  offset="0" style="stop-color:#FFE064"/>
			<stop  offset="1" style="stop-color:#FF982D"/>
		</linearGradient>
		<rect x="88.8" y="79.5" style="fill:url(#SVGID_1_);" width="19.2" height="1.7"/>
	</g>
	<linearGradient id="SVGID_2_" gradientUnits="userSpaceOnUse" x1="49.6819" y1="122.2752" x2="49.6819" y2="42.5637">
		<stop  offset="0" style="stop-color:#FFE064"/>
		<stop  offset="1" style="stop-color:#FF982D"/>
	</linearGradient>
	<path style="fill:url(#SVGID_2_);" d="M49.7,122.3c-22,0-39.9-17.9-39.9-39.9s17.9-39.9,39.9-39.9s39.9,17.9,39.9,39.9
		S71.7,122.3,49.7,122.3z M49.7,44.2c-21.1,0-38.2,17.1-38.2,38.2s17.1,38.2,38.2,38.2s38.2-17.1,38.2-38.2S70.7,44.2,49.7,44.2z"/>
	
		<linearGradient id="SVGID_3_" gradientUnits="userSpaceOnUse" x1="351.0254" y1="122.4447" x2="351.0254" y2="42.3939" gradientTransform="matrix(-1 0 0 1 498 0)">
		<stop  offset="0" style="stop-color:#FFE064"/>
		<stop  offset="1" style="stop-color:#FF982D"/>
	</linearGradient>
	<circle style="fill:none;stroke:url(#SVGID_3_);stroke-width:2;stroke-miterlimit:10;" cx="147" cy="82.4" r="39"/>
	<linearGradient id="SVGID_4_" gradientUnits="userSpaceOnUse" x1="49.6819" y1="44.2244" x2="49.6819" y2="120.6145">
		<stop  offset="0" style="stop-color:#D300FF"/>
		<stop  offset="1" style="stop-color:#6814F0"/>
	</linearGradient>
	<circle style="opacity:0.6;fill:url(#SVGID_4_);" cx="49.7" cy="82.4" r="38.2"/>
	<linearGradient id="SVGID_5_" gradientUnits="userSpaceOnUse" x1="146.7075" y1="44.2242" x2="146.7075" y2="120.6144">
		<stop  offset="0" style="stop-color:#D300FF"/>
		<stop  offset="1" style="stop-color:#6814F0"/>
	</linearGradient>
	<circle style="opacity:0.6;fill:url(#SVGID_5_);" cx="146.7" cy="82.4" r="38.2"/>
</g>
</svg>
