<?xml version="1.0" encoding="utf-8"?>
<!-- Generator: Adobe Illustrator 22.1.0, SVG Export Plug-In . SVG Version: 6.00 Build 0)  -->
<svg version="1.1" id="Layer_1" xmlns="http://www.w3.org/2000/svg" xmlns:xlink="http://www.w3.org/1999/xlink" x="0px" y="0px"
	 viewBox="0 0 196 164" style="enable-background:new 0 0 196 164;" xml:space="preserve">
<g>
	<path style="fill:#EA1BA0;" d="M133.5,75.1c0,0,11.1,5.3,15.9,8.8c4.7,3.5,7.8,20.1,9.6,23.4s-11.7,1.7-14.2,0
		c-2.5-1.7-18.7-32.2-18.7-32.2H133.5z"/>
	<path style="fill:#F721AA;" d="M113.2,76.2c0,0-0.1,5-2.6,10s-1.4,22.4,16.4,36.3s20.6,9.1,20.6,9.1s3.2-40.8-4.7-46.1
		c-8-5.4-14.2-9.3-14.2-9.3H113.2z"/>
	<path style="fill:#F721AA;" d="M38,51.2c0,0,40.1,23.4,80.3,18.6c40.1-4.8,44.2-25.9,44.2-25.9s23.2-2.1,19,15s-59,17.8-59,17.8
		s-66.2,15.8-92.4-6.9S38,51.2,38,51.2z"/>
	<path style="opacity:0.1;" d="M117.9,78.4c0,0-2.7,8.9,0,10.5c3.8,2.1,1-8.5,3.5-9.1s4.3,13.4,8.1,13.6c3.8,0.1-2.2-13-6.7-14.9
		C118.3,76.4,117.9,78.4,117.9,78.4z"/>
	<path style="fill:#F938B0;" d="M130.3,67.6c0,0-12.2-3.2-17.1,0.7s-1.8,8.7,0,10.2s11.7,1.6,14,0S130.3,67.6,130.3,67.6z"/>
</g>
</svg>
