<?xml version="1.0" encoding="utf-8"?>
<!-- Generator: Adobe Illustrator 22.1.0, SVG Export Plug-In . SVG Version: 6.00 Build 0)  -->
<svg version="1.1" id="Layer_1" xmlns="http://www.w3.org/2000/svg" xmlns:xlink="http://www.w3.org/1999/xlink" x="0px" y="0px"
	 viewBox="0 0 196 164" style="enable-background:new 0 0 196 164;" xml:space="preserve">
<g>
	<path style="fill:#F9DD35;" d="M89.2,74.4c0,0-59.5-51.2-63.2-30.2s-10.2,73.5,10.7,69.5s52.5-18.4,52.5-18.4V74.4z"/>
	<path style="fill:#F9DD35;" d="M109.8,74.4c0,0,59.5-51.2,63.2-30.2c3.7,21,10.2,73.5-10.7,69.5s-52.5-18.4-52.5-18.4V74.4z"/>
	<path style="fill:#F4CE2F;" d="M111,80c0,0,39.1-21.2,32.5-12.8C136.8,75.6,111,80,111,80z"/>
	<path style="fill:#F4CE2F;" d="M109.8,87.9c0,0,42.1,5.9,30.3,7.9C128.4,97.7,109.8,87.9,109.8,87.9z"/>
	<path style="fill:#F4CE2F;" d="M90.2,79.4c0,0-39.1-21.2-32.5-12.8S90.2,79.4,90.2,79.4z"/>
	<path style="fill:#F4CE2F;" d="M91.3,87.3c0,0-42.1,5.9-30.3,7.9C72.7,97.1,91.3,87.3,91.3,87.3z"/>
	<path style="fill:#FCE24C;" d="M112.6,99.4H89.9c-1,0-1.8-0.8-1.8-1.8V73.2c0-1,0.8-1.8,1.8-1.8h22.6c1,0,1.8,0.8,1.8,1.8v24.3
		C114.4,98.6,113.6,99.4,112.6,99.4z"/>
</g>
</svg>
