<?xml version="1.0" encoding="utf-8"?>
<!-- Generator: Adobe Illustrator 22.1.0, SVG Export Plug-In . SVG Version: 6.00 Build 0)  -->
<svg version="1.1" id="Layer_1" xmlns="http://www.w3.org/2000/svg" xmlns:xlink="http://www.w3.org/1999/xlink" x="0px" y="0px"
	 viewBox="0 0 196 164" style="enable-background:new 0 0 196 164;" xml:space="preserve">
<g>
	<g>
		<path style="fill:#FFE1AB;" d="M100.2,89l-0.2,0c-53.5-7.5-79.9-44.2-80.2-44.6l1.5-1c0.3,0.4,26.2,36.4,78.8,43.8
			c3.2-0.7,56.7-12.3,73.4-37l1.5,1c-17.5,25.9-72.3,37.3-74.6,37.8L100.2,89z"/>
	</g>
	<g>
		<g>
			<circle style="fill:#1F70B2;" cx="101.4" cy="92.7" r="10.9"/>
		</g>
		<g>
			<path style="fill:#FFE1AB;" d="M101.4,105.4c-7,0-12.7-5.7-12.7-12.7c0-7,5.7-12.7,12.7-12.7c7,0,12.7,5.7,12.7,12.7
				C114.1,99.7,108.4,105.4,101.4,105.4z M101.4,83.6c-5,0-9.1,4.1-9.1,9.1c0,5,4.1,9.1,9.1,9.1c5,0,9.1-4.1,9.1-9.1
				C110.5,87.7,106.4,83.6,101.4,83.6z"/>
		</g>
	</g>
	<g>
		<g>
			<circle style="fill:#FF6675;" cx="101.4" cy="111.6" r="7.9"/>
		</g>
		<g>
			<path style="fill:#FFE1AB;" d="M101.4,121.2c-5.3,0-9.7-4.3-9.7-9.7c0-5.3,4.3-9.7,9.7-9.7c5.3,0,9.7,4.3,9.7,9.7
				C111.1,116.9,106.7,121.2,101.4,121.2z M101.4,105.4c-3.4,0-6.1,2.7-6.1,6.1c0,3.4,2.7,6.1,6.1,6.1c3.4,0,6.1-2.7,6.1-6.1
				C107.5,108.2,104.8,105.4,101.4,105.4z"/>
		</g>
	</g>
	<g style="opacity:0.2;">
		<circle style="fill:#FFFFFF;" cx="99.9" cy="90" r="5.3"/>
	</g>
	<g style="opacity:0.2;">
		<circle style="fill:#FFFFFF;" cx="99.7" cy="109" r="2.9"/>
	</g>
	<g>
		<g>
			<circle style="fill:#FF6675;" cx="116" cy="85.6" r="4.3"/>
		</g>
		<g>
			<path style="fill:#FFE1AB;" d="M116,91.7c-3.4,0-6.1-2.7-6.1-6.1c0-3.4,2.7-6.1,6.1-6.1c3.4,0,6.1,2.7,6.1,6.1
				C122.1,89,119.4,91.7,116,91.7z M116,83.1c-1.4,0-2.6,1.1-2.6,2.6c0,1.4,1.1,2.6,2.6,2.6c1.4,0,2.6-1.1,2.6-2.6
				C118.6,84.2,117.4,83.1,116,83.1z"/>
		</g>
	</g>
	<g>
		<g>
			<circle style="fill:#1F70B2;" cx="125.7" cy="82.3" r="4.3"/>
		</g>
		<g>
			<path style="fill:#FFE1AB;" d="M125.7,88.4c-3.4,0-6.1-2.7-6.1-6.1c0-3.4,2.7-6.1,6.1-6.1s6.1,2.7,6.1,6.1
				C131.8,85.7,129,88.4,125.7,88.4z M125.7,79.7c-1.4,0-2.6,1.1-2.6,2.6c0,1.4,1.1,2.6,2.6,2.6c1.4,0,2.6-1.1,2.6-2.6
				C128.2,80.9,127.1,79.7,125.7,79.7z"/>
		</g>
	</g>
	<g>
		<g>
			<circle style="fill:#1F70B2;" cx="75.4" cy="83.6" r="4.3"/>
		</g>
		<g>
			<path style="fill:#FFE1AB;" d="M75.4,89.7c-3.4,0-6.1-2.7-6.1-6.1c0-3.4,2.7-6.1,6.1-6.1c3.4,0,6.1,2.7,6.1,6.1
				C81.5,87,78.8,89.7,75.4,89.7z M75.4,81.1c-1.4,0-2.6,1.1-2.6,2.6c0,1.4,1.1,2.6,2.6,2.6c1.4,0,2.6-1.1,2.6-2.6
				C77.9,82.2,76.8,81.1,75.4,81.1z"/>
		</g>
	</g>
	<g>
		<g>
			<circle style="fill:#FF6675;" cx="86.1" cy="86.2" r="4.3"/>
		</g>
		<g>
			<path style="fill:#FFE1AB;" d="M86.1,92.3c-3.4,0-6.1-2.7-6.1-6.1c0-3.4,2.7-6.1,6.1-6.1s6.1,2.7,6.1,6.1
				C92.3,89.5,89.5,92.3,86.1,92.3z M86.1,83.6c-1.4,0-2.6,1.1-2.6,2.6c0,1.4,1.1,2.6,2.6,2.6c1.4,0,2.6-1.1,2.6-2.6
				C88.7,84.7,87.6,83.6,86.1,83.6z"/>
		</g>
	</g>
</g>
</svg>
