<?xml version="1.0" encoding="utf-8"?>
<!-- Generator: Adobe Illustrator 22.1.0, SVG Export Plug-In . SVG Version: 6.00 Build 0)  -->
<svg version="1.1" id="Layer_1" xmlns="http://www.w3.org/2000/svg" xmlns:xlink="http://www.w3.org/1999/xlink" x="0px" y="0px"
	 viewBox="0 0 196 164" style="enable-background:new 0 0 196 164;" xml:space="preserve">
<g>
	<path style="fill:#8EF225;" d="M167.9,80c-9.2,11.9-12.6,15.3-14.6,17.8c-0.4,0.5-0.7,0.9-1,1.3c-4.9,6.9-6.1,20.9-20.1,26.1
		c-7.7,2.9-25.9,20.5-30.4,19.4c-4.4-1.1-36.4-18.2-41.9-24.6c-3.3-3.8-12.4-16.8-20.4-29c-0.2-0.2-0.3-0.5-0.4-0.7
		c-0.2-0.3-0.3-0.5-0.5-0.8c-0.3-0.5-0.5-0.8-0.5-0.8c-4.7-7.3-8.8-14.1-11-18.3c-5.9-11.7,14.4-50.2,14.4-50.2l11-0.2
		c-0.9,2.1-1.6,5.8-2,9.9c-0.8,9.1-0.3,20.8,2.5,24.8c4.6,6.7,20.9,9.7,31.8,18.1s14.8,9.6,27.3,3.8s10.9-7.7,19.2-16
		c8.4-8.4,10.6-10.5,9.7-19.2c-0.1-1.1-0.3-2.3-0.5-3.6c-1.1-5.8-3.3-13-4.2-17.9l19.2-0.7c0,0,11.1,21.6,17.3,30.8
		C179.1,59.2,178.8,66,167.9,80z"/>
	<path style="opacity:5.000000e-02;" d="M140.3,58.1c-0.8,3.1-7,12.3-12.8,13.1s-10.9,5.9-13.4,8.8c-2.5,2.9-10.6,6.8-15.9,7.3
		c-5.3,0.5-15-13.1-19-15c-3.9-2-12.8-0.8-15.6-3.9c-2.8-3.1-15.6-9.2-18.9-14.2c-3.1-4.7-0.2-19.3,0.2-21.1c-1,6.2,2,11.6,1.2,8.9
		c-0.5-1.6,2.2-7.3,4.5-11.9c-0.8,9.1-0.3,20.8,2.5,24.8c4.6,6.7,20.9,9.7,31.8,18.1s14.8,9.6,27.3,3.8s10.9-7.7,19.2-16
		c8.4-8.4,10.6-10.5,9.7-19.2c-0.1-1.1-0.3-2.3-0.5-3.6c2.3,4.5,5.2,10.5,5.8,12.5C147.6,53.7,141.2,55,140.3,58.1z"/>
	<path style="opacity:5.000000e-02;" d="M36.9,52.5c0,0-5,6.7,3.9,12S60.4,80.7,62,84.6c1.7,3.9,23.4,11.1,31.5,10.3
		s25.2-5.6,25.2-5.6s-26.4,10.6-30.3,9.8s-9.5,0-16.4,1.7S52,98.8,52,89.9s0.3-16.4-6.4-19.2C38.9,67.9,32.2,64,36.9,52.5z"/>
	<path style="opacity:5.000000e-02;" d="M148.4,32.4c0,0,8.9,17.4,11.7,20.2c2.8,2.8,3.3,15.9-5.9,19.2
		c-9.2,3.3-16.2,20.1-21.2,21.5c-5,1.4-12.5,8.8-5.9,8.7c6.7-0.1,21.7-11.8,22.6-17.4c0.8-5.6,4.2-10.3,8.4-12.5s16.4-9.8,6.1-19.5
		C154,42.8,148.4,32.4,148.4,32.4z"/>
	<path style="opacity:0.2;fill:#FFFFFF;" d="M153.3,97.8c-0.4,0.5-0.7,0.9-1,1.3c-4.9,6.9-6.1,20.9-20.1,26.1
		c-7.7,2.9-25.9,20.5-30.4,19.4c-4.4-1.1-36.4-18.2-41.9-24.6c-3.3-3.8-12.4-16.8-20.4-29c3.3,4.9,11.6,16.6,18.8,19.8
		c9.2,4.2,26.8,3.8,30.4,9.1c3.6,5.3,9.7,10.6,16.7,6.7c7-3.9,23.4-13.1,23.4-13.1s13.2-4.6,16.5-8.9
		C147.1,102.6,150.4,99.9,153.3,97.8z"/>
	<path style="opacity:0.2;fill:#FFFFFF;" d="M123.1,95.7c0,0-26.8,7.7-35.3,7.9c-8.6,0.2-25.5-2.6-28.6-4.5
		c-3.1-1.9-8.8-7-11.5-14.6c-2.7-7.5-6.7,2.5-3.3,7.7s14.7,15.3,26.1,16s23.5-0.1,27,0C100.9,108.4,133.3,96.5,123.1,95.7z"/>
	<path style="opacity:0.1;fill:#FFFFFF;" d="M43,38.2c0,0-8.4,16.3-3.4,22.6c5.1,6.3,15.3,9.2,17,12.5c1.7,3.3,2.7-0.7,3.4-4.2
		c0.5-2.7-14.5-10.6-17-16.6C41.4,48.8,45.1,33.5,43,38.2z"/>
</g>
</svg>
