<?xml version="1.0" encoding="utf-8"?>
<!-- Generator: Adobe Illustrator 22.1.0, SVG Export Plug-In . SVG Version: 6.00 Build 0)  -->
<svg version="1.1" id="Layer_1" xmlns="http://www.w3.org/2000/svg" xmlns:xlink="http://www.w3.org/1999/xlink" x="0px" y="0px"
	 viewBox="0 0 196 164" style="enable-background:new 0 0 196 164;" xml:space="preserve">
<g>
	<path style="fill:#4EEACF;" d="M174.4,74.7C145,93.2,38.2,89.7,22.4,81.2c-9.3-5,1.3-5.9,3.1-15.4c0.2-0.9,0.3-2,0.2-3.2
		c0-1.8-1.2-2.7-2.2-3.5l0,0c-0.4-0.4-0.8-0.8-1.1-1.2C16.4,48.4,32.9,38.3,44,40.2c42.3,7,118-7.8,128.3-6.4
		c10.9,1.6,8.4,3.4,2.6,9.2c0,0,0,0-0.1,0.1c-0.3,0.3-0.6,0.6-1,1c-1.9,2-0.1,3.8,2.7,6C183.2,55.1,195.1,61.6,174.4,74.7z"/>
	<path style="fill:#45DDC7;" d="M40.9,65.2c0,0-24.1,31.7-19.4,49.2s11.6,3.9,19.4,6.9c7.8,3.1,11.2,4.2,17.2,3.5
		c5.9-0.7,12.1-0.4,11.2-2.7S59,112.6,58,102.6s-6.7-37.4-6.7-37.4H40.9z"/>
	<path style="fill:#45DDC7;" d="M176.6,50.1c-15.5,7.8-69.5,12.2-42.3,8.2c26.8-4,39.1-13.9,40.6-15.1c-0.3,0.3-0.6,0.6-1,1
		C171.9,46.1,173.8,48,176.6,50.1z"/>
	<path style="fill:#45DDC7;" d="M69.3,62.2c0,0-31.4,3.9-43.9,3.6c0.2-0.9,0.3-2,0.2-3.2c0-1.8-1.2-2.7-2.2-3.5
		C29.3,61.3,41.9,63.4,69.3,62.2z"/>
	<path style="fill:#45DDC7;" d="M108.3,73.9c0,0,24.5-2.2,32.7-8.7C141,65.2,128.5,77.8,108.3,73.9z"/>
	<path style="fill:#64F4D8;" d="M41.7,39.3c0,0-20.1,54-12.1,62.5c2,2.1,7.2-1.2,10.8,0c4.6,1.5,8.4,5.5,13,6.1
		c6.5,0.8,13.2,0,13.2,0s0-68.6-8.5-68.6S41.7,39.3,41.7,39.3z"/>
</g>
</svg>
