<?xml version="1.0" encoding="utf-8"?>
<!-- Generator: Adobe Illustrator 22.1.0, SVG Export Plug-In . SVG Version: 6.00 Build 0)  -->
<svg version="1.1" id="Layer_1" xmlns="http://www.w3.org/2000/svg" xmlns:xlink="http://www.w3.org/1999/xlink" x="0px" y="0px"
	 viewBox="0 0 196 164" style="enable-background:new 0 0 196 164;" xml:space="preserve">
<g>
	<g>
		<circle style="fill:#E1FFFC;" cx="169.4" cy="64.5" r="8.6"/>
		<circle style="opacity:0.7;fill:#FFFFFF;" cx="167.9" cy="62.6" r="5.5"/>
	</g>
	<g>
		<circle style="fill:#E1FFFC;" cx="26.9" cy="64.5" r="8.6"/>
		<circle style="opacity:0.7;fill:#FFFFFF;" cx="25.4" cy="62.6" r="5.5"/>
	</g>
	<g>
		<circle style="fill:#C5E8FF;" cx="157" cy="75.5" r="9.7"/>
		<circle style="opacity:0.5;fill:#FFFFFF;" cx="154" cy="73.2" r="5.1"/>
	</g>
	<g>
		<circle style="fill:#C5E8FF;" cx="37.8" cy="75.5" r="9.7"/>
		<circle style="opacity:0.5;fill:#FFFFFF;" cx="34.9" cy="73.2" r="5.1"/>
	</g>
	<g>
		<circle style="fill:#E1FFFC;" cx="143.2" cy="85.3" r="10.8"/>
		<circle style="opacity:0.7;fill:#FFFFFF;" cx="141" cy="81.9" r="5.8"/>
	</g>
	<g>
		<circle style="fill:#E1FFFC;" cx="52.9" cy="85.3" r="10.8"/>
		<circle style="opacity:0.7;fill:#FFFFFF;" cx="50.7" cy="81.9" r="5.8"/>
	</g>
	<g>
		<circle style="fill:#C5E8FF;" cx="124" cy="95.8" r="12.8"/>
		<circle style="opacity:0.5;fill:#FFFFFF;" cx="120.6" cy="92.6" r="6.4"/>
	</g>
	<g>
		<circle style="fill:#C5E8FF;" cx="71.8" cy="95.8" r="12.8"/>
		<circle style="opacity:0.5;fill:#FFFFFF;" cx="68.3" cy="92.6" r="6.4"/>
	</g>
	<g>
		<circle style="fill:#E1FFFC;" cx="98.2" cy="96.9" r="16.2"/>
		<circle style="opacity:0.7;fill:#FFFFFF;" cx="93.6" cy="92.2" r="8.4"/>
	</g>
	<polygon style="fill:#FFFFFF;" points="90.4,77.8 91.9,86.6 101,88.3 91.9,90 90.4,98.9 88.9,90 79.9,88.3 88.9,86.6 	"/>
</g>
</svg>
