<?xml version="1.0" encoding="utf-8"?>
<!-- Generator: Adobe Illustrator 22.1.0, SVG Export Plug-In . SVG Version: 6.00 Build 0)  -->
<svg version="1.1" id="Layer_1" xmlns="http://www.w3.org/2000/svg" xmlns:xlink="http://www.w3.org/1999/xlink" x="0px" y="0px"
	 viewBox="0 0 196 164" style="enable-background:new 0 0 196 164;" xml:space="preserve">
<g>
	<g>
		<path d="M108.9,124.8l-12.4,1.7c-1.4,0.2-2.8-0.8-2.9-2.2l-3.4-25c-0.2-1.4,0.8-2.8,2.2-2.9l12.4-1.7c1.4-0.2,2.8,0.8,2.9,2.2
			l3.4,25C111.3,123.3,110.3,124.6,108.9,124.8z"/>
	</g>
	<g>
		<g>
			<path style="fill:#232323;" d="M95.1,100c-1.5,0-3-0.1-4.5-0.2c-0.5,0-0.8-0.5-0.8-0.9c0-0.5,0.5-0.8,0.9-0.8
				c1.8,0.2,3.6,0.3,5.3,0.2c43.8-1.1,61-24.5,85.3-62.6c0.3-0.4,0.8-0.5,1.2-0.3c0.4,0.3,0.5,0.8,0.3,1.2
				c-24.7,38.6-42,62.3-86.7,63.4C95.8,100,95.4,100,95.1,100z"/>
		</g>
	</g>
	<g>
		<circle style="fill:#264951;" cx="97.9" cy="99.1" r="1.7"/>
	</g>
	<g>
		<circle style="fill:#232323;" cx="105.1" cy="98.5" r="1.7"/>
	</g>
	<g>
		<circle style="fill:#232323;" cx="111.8" cy="97.5" r="1.7"/>
	</g>
	<g>
		<circle style="fill:#232323;" cx="118.9" cy="96" r="1.7"/>
	</g>
	<g>
		<circle style="fill:#232323;" cx="19.4" cy="42.5" r="1.7"/>
	</g>
	<g>
		<circle style="fill:#232323;" cx="22.8" cy="47.4" r="1.7"/>
	</g>
	<g>
		<circle style="fill:#232323;" cx="26.1" cy="52.2" r="1.7"/>
	</g>
	<g>
		<circle style="fill:#232323;" cx="30.2" cy="57.1" r="1.7"/>
	</g>
	<g>
		<circle style="fill:#232323;" cx="34.1" cy="61.7" r="1.7"/>
	</g>
	<g>
		<circle style="fill:#232323;" cx="38.9" cy="66.8" r="1.7"/>
	</g>
	<g>
		<circle style="fill:#232323;" cx="43.3" cy="71.8" r="1.7"/>
	</g>
	<g>
		<circle style="fill:#232323;" cx="47.4" cy="76" r="1.7"/>
	</g>
	<g>
		<circle style="fill:#232323;" cx="52.7" cy="80.3" r="1.7"/>
	</g>
	<g>
		<circle style="fill:#232323;" cx="57" cy="83.7" r="1.7"/>
	</g>
	<g>
		<circle style="fill:#264951;" cx="90.5" cy="98.9" r="1.7"/>
	</g>
	<g>
		<circle style="fill:#232323;" cx="125.6" cy="93.5" r="1.7"/>
	</g>
	<g>
		<circle style="fill:#232323;" cx="132.2" cy="91" r="1.7"/>
	</g>
	<g>
		<circle style="fill:#232323;" cx="138" cy="87.7" r="1.7"/>
	</g>
	<g>
		<circle style="fill:#232323;" cx="143.4" cy="83.8" r="1.7"/>
	</g>
	<g>
		<circle style="fill:#232323;" cx="148.7" cy="79.6" r="1.7"/>
	</g>
	<g>
		<circle style="fill:#232323;" cx="153.6" cy="74.8" r="1.7"/>
	</g>
	<g>
		<circle style="fill:#232323;" cx="158.5" cy="70" r="1.7"/>
	</g>
	<g>
		<circle style="fill:#232323;" cx="162.8" cy="65" r="1.7"/>
	</g>
	<g>
		<circle style="fill:#232323;" cx="166.6" cy="59.6" r="1.7"/>
	</g>
	<g>
		<circle style="fill:#232323;" cx="170.5" cy="54.6" r="1.7"/>
	</g>
	<g>
		<circle style="fill:#232323;" cx="173.4" cy="49.3" r="1.7"/>
	</g>
	<g>
		<circle style="fill:#232323;" cx="177.4" cy="43.4" r="1.7"/>
	</g>
	<g>
		<path style="fill:#2D2D2D;" d="M91.9,128.4l-13.7-3.2c-1.4-0.3-2.3-1.7-1.9-3.1l6.4-27.2c0.3-1.4,1.7-2.3,3.1-1.9L99.5,96
			c1.4,0.3,2.3,1.7,1.9,3.1L95,126.4C94.7,127.8,93.3,128.7,91.9,128.4z"/>
		<path d="M91.1,128.9c-0.4,0-0.8,0-1.2-0.1l-10.1-2.4c-1.4-0.3-2.6-1.2-3.3-2.4c-0.7-1.2-1-2.6-0.7-4l5.6-23.6
			c0.3-1.4,1.2-2.6,2.4-3.3c1.2-0.7,2.6-1,4-0.7l10.1,2.4c1.4,0.3,2.6,1.2,3.3,2.4c0.7,1.2,1,2.6,0.7,4l-5.6,23.6
			c-0.3,1.4-1.2,2.6-2.4,3.3C93,128.6,92.1,128.9,91.1,128.9z M86.5,94c-0.7,0-1.3,0.2-1.9,0.5c-0.8,0.5-1.4,1.3-1.6,2.2l-5.6,23.6
			c-0.2,0.9-0.1,1.9,0.4,2.7c0.5,0.8,1.3,1.4,2.2,1.6l10.1,2.4c0.9,0.2,1.9,0.1,2.7-0.4c0.8-0.5,1.4-1.3,1.6-2.2l5.6-23.6
			c0.5-1.9-0.8-3.9-2.7-4.3l-10.1-2.4C87.1,94,86.8,94,86.5,94z"/>
	</g>
	<g>
		<circle style="fill:#232323;" cx="61.5" cy="87" r="1.7"/>
	</g>
	<g>
		<circle style="fill:#232323;" cx="67.2" cy="90.9" r="1.7"/>
	</g>
	<g>
		<circle style="fill:#232323;" cx="72.5" cy="93.7" r="1.7"/>
	</g>
	<g>
		<circle style="fill:#232323;" cx="77.9" cy="96" r="1.7"/>
	</g>
	<g>
		<circle style="fill:#232323;" cx="84.1" cy="97.7" r="1.7"/>
	</g>
	<g>
		<circle style="fill:#232E30;" cx="90.7" cy="98.9" r="1.7"/>
	</g>
	<g>
		<g>
			<path style="fill:#232323;" d="M90.7,99.8C90.6,99.8,90.6,99.8,90.7,99.8c-39.1-4-74.1-59.6-74.5-60.2c-0.2-0.4-0.1-0.9,0.3-1.2
				c0.4-0.2,0.9-0.1,1.2,0.3c0.3,0.6,35,55.5,73.1,59.4c0.5,0,0.8,0.5,0.8,0.9C91.5,99.5,91.1,99.8,90.7,99.8z"/>
		</g>
	</g>
</g>
</svg>
