<?xml version="1.0" encoding="utf-8"?>
<!-- Generator: Adobe Illustrator 22.1.0, SVG Export Plug-In . SVG Version: 6.00 Build 0)  -->
<svg version="1.1" id="Layer_1" xmlns="http://www.w3.org/2000/svg" xmlns:xlink="http://www.w3.org/1999/xlink" x="0px" y="0px"
	 viewBox="0 0 196 164" style="enable-background:new 0 0 196 164;" xml:space="preserve">
<g>
	<g>
		<g>
			<path style="fill:#EA3B69;" d="M98.4,81.3c0,0-7,3.2-10.2,9.6c-3.2,6.4-3.2,16-5.8,24.9s-9.6,17.3-9.6,21.7s2.6,16.6,2.6,16.6
				s25.6-3.8,28.8-20.5c3.2-16.6,6.4-24.3,6.4-32.6S98.6,81.3,98.6,81.3"/>
		</g>
		<g>
			<defs>
				<path id="SVGID_1_" d="M98.4,81.3c0,0-7,3.2-10.2,9.6c-3.2,6.4-3.2,16-5.8,24.9s-9.6,17.3-9.6,21.7s2.6,16.6,2.6,16.6
					s25.6-3.8,28.8-20.5c3.2-16.6,6.4-24.3,6.4-32.6S98.6,81.3,98.6,81.3"/>
			</defs>
			<clipPath id="SVGID_2_">
				<use xlink:href="#SVGID_1_"  style="overflow:visible;"/>
			</clipPath>
			<g style="clip-path:url(#SVGID_2_);">
				<g>
					<path style="fill:#F9628A;" d="M97.6,98.4c2.1-0.2,13.8,6,13.8,6v8.9l-15.3-6.1L97.6,98.4z"/>
				</g>
				<g>
					<path style="fill:#FFC5D3;" d="M95.5,148.7l-7.7-13.4c0,0,5.9-14.1,7.1-20.1l17.2,10.5l-7.7,14.1L95.5,148.7z"/>
				</g>
				<g>
					<polygon style="fill:#F9628A;" points="70.6,136.6 87.8,134.7 95.8,147.8 76,157.4 					"/>
				</g>
				<g>
					<path style="fill:#FFC5D3;" d="M77.6,122.5l15.5-0.5c0,0,4.1-14.4,3.9-19.1l-14.9,1.7L77.6,122.5z"/>
				</g>
				<g>
					<path style="fill:#FFC5D3;" d="M82.7,99.5h14.7c0,0,1.6-16.1,1.3-19.2l-7,3.2C91.7,83.5,85.3,91.2,82.7,99.5z"/>
				</g>
				<g>
					<path style="fill:#FFC5D3;" d="M73.8,132.1l16.1-1.2c0,0-0.1,0.5-2,3.7l-18.5,3.2L73.8,132.1z"/>
				</g>
				<g>
					<polygon style="fill:#FFC5D3;" points="111.5,98.2 98.4,90.8 98.3,87.7 98.6,79.4 110.5,90.3 					"/>
				</g>
				<g>
					<polygon style="fill:#3A043A;" points="110.1,101.9 100.2,95.5 100.4,95.2 111,100.4 					"/>
				</g>
				<g>
					<polygon style="fill:#3A043A;" points="107.5,121.7 97.7,115.3 97.8,115.1 108.4,120.2 					"/>
				</g>
				<g>
					<polygon style="fill:#3A043A;" points="110.1,127.5 100.2,121.1 100.4,120.8 111,125.9 					"/>
				</g>
				<g>
					<polygon style="fill:#3A043A;" points="72.1,132.8 88.8,132.3 88.8,132.6 72.2,134.6 					"/>
				</g>
				<g>
					<polygon style="fill:#3A043A;" points="98.4,93.1 85.6,93 85.6,92.7 98.3,91.3 					"/>
				</g>
				<g>
					<polygon style="fill:#3A043A;" points="89,86.8 99,89.5 99,89.8 88.6,88.6 					"/>
				</g>
				<g>
					<polygon style="fill:#3A043A;" points="102.3,140.2 90.6,130.6 90.8,130.4 103.4,138.8 					"/>
				</g>
				<g>
					<polygon style="fill:#3A043A;" points="97,145 89.9,131.9 90.2,131.7 98.5,144.1 					"/>
				</g>
				<g>
					<polygon style="fill:#3A043A;" points="83,112.9 95.1,114.5 88.5,113.5 89,111.8 95.1,114.5 95.1,114.5 82.9,114.7 					"/>
				</g>
			</g>
		</g>
		<g>
			<path style="fill:#3A043A;" d="M87.5,135c2.8-4.5,4.5-9.5,5.9-14.6c1.4-5.1,2.3-10.3,3-15.5c0.7-5.2,1.1-10.5,1.4-15.7
				c0.3-5.3,0.4-10.5,0.2-15.8l1.3,0c0,5.3-0.2,10.6-0.6,15.9c-0.4,5.3-0.9,10.5-1.7,15.8c-0.8,5.2-1.8,10.4-3.3,15.5
				C92.3,125.5,90.4,130.6,87.5,135z"/>
		</g>
		<g>
			<path style="fill:#EA3B69;" d="M108.6,78.6c0,0-0.5,4.4,0.7,10.1c1.2,5.7,5.6,12.5,8.5,19.5c2.9,7,3.3,15.7,5.5,18.5
				s7.6,9.9,7.6,9.9s10.3-15.8,3.9-27.9c-6.4-12.2-7.2-17-11.4-22.2s-14.7-7.9-14.7-7.9"/>
		</g>
		<g>
			<defs>
				<path id="SVGID_3_" d="M108.6,78.6c0,0-0.5,4.4,0.7,10.1c1.2,5.7,5.6,12.5,8.5,19.5c2.9,7,3.3,15.7,5.5,18.5s7.6,9.9,7.6,9.9
					s10.3-15.8,3.9-27.9c-6.4-12.2-7.2-17-11.4-22.2s-14.7-7.9-14.7-7.9"/>
			</defs>
			<clipPath id="SVGID_4_">
				<use xlink:href="#SVGID_3_"  style="overflow:visible;"/>
			</clipPath>
			<g style="clip-path:url(#SVGID_4_);">
				<g>
					<path style="fill:#F9628A;" d="M122.6,100.8c1.2-1.2,11.8-3.2,11.8-3.2l4.5,5.7l-12.8,3.9L122.6,100.8z"/>
				</g>
				<g>
					<path style="fill:#FFC5D3;" d="M142.3,125.8l-11.7-4.6c0,0-3.4-11.9-5.7-16.4l16.3-2l2.3,12.8L142.3,125.8z"/>
				</g>
				<g>
					<path style="fill:#FFC5D3;" d="M119.2,115.6l8.6-2.7c0,0-5.1-15.9-9.1-20l-5.8,6.7L119.2,115.6z"/>
				</g>
				<g>
					<path style="fill:#FFC5D3;" d="M111.7,97.7l6.6-5.5c0,0-8.2-12.6-10-14.4l-2.8,5.6C107.8,86.8,111,92.5,111.7,97.7z"/>
				</g>
				<g>
					<path style="fill:#FFC5D3;" d="M118.7,123.3l9.6-8.9c0,0,0.2,0.4,3.1,2.8l-10.2,11.4L118.7,123.3z"/>
				</g>
				<g>
					<polygon style="fill:#FFC5D3;" points="130.7,90.7 118.6,92.5 111.8,82.7 107.8,77.2 120.8,78.1 					"/>
				</g>
				<g>
					<polygon style="fill:#3A043A;" points="123.4,87.2 116.9,86.7 116.9,86.4 123.4,85.5 					"/>
				</g>
				<g>
					<polygon style="fill:#3A043A;" points="134.9,99.7 125.4,100.5 125.3,100.3 134.6,98 					"/>
				</g>
				<g>
					<polygon style="fill:#3A043A;" points="139.4,102.1 129.9,102.9 129.9,102.6 139.2,100.4 					"/>
				</g>
				<g>
					<polygon style="fill:#3A043A;" points="117.9,124.5 128.3,115.8 128.5,116 119.1,125.8 					"/>
				</g>
				<g>
					<polygon style="fill:#3A043A;" points="114.7,86.1 106.4,92.5 106.2,92.2 113.5,84.8 					"/>
				</g>
				<g>
					<polygon style="fill:#3A043A;" points="105.3,86.7 113.1,83.4 113.3,83.6 106.1,88.3 					"/>
				</g>
				<g>
					<polygon style="fill:#3A043A;" points="140.9,114.1 128.7,113.9 128.6,113.6 140.9,112.4 					"/>
				</g>
				<g>
					<polygon style="fill:#3A043A;" points="139.9,119.9 128.8,115 128.9,114.7 140.6,118.3 					"/>
				</g>
				<g>
					<polygon style="fill:#3A043A;" points="114.7,106.3 123.3,101.3 118.7,104.1 118,102.5 123.3,101.3 123.3,101.3 115.7,107.8 
											"/>
				</g>
				<g>
					<polygon style="fill:#F9628A;" points="119.7,94 128.8,92.4 127.1,90.8 118.3,92.2 					"/>
				</g>
				<g>
					<path style="fill:#F9628A;" d="M118,115.9l9.6-3.5c0,0,1.2,2.2,0.8,3c-0.5,0.8-8.2,7.2-8.2,7.2L118,115.9z"/>
				</g>
				<g>
					<path style="fill:#FFC5D3;" d="M126.6,132.9c0,0,3.8-8.8,3.9-11.4l7.3,11.4l-6.8,7.5L126.6,132.9z"/>
				</g>
			</g>
		</g>
		<g>
			<path style="fill:#3A043A;" d="M128.9,118.2c-0.5-4.3-2-8.4-3.7-12.3c-1.7-3.9-3.8-7.7-6-11.3c-2.2-3.7-4.6-7.2-7.1-10.7
				c-2.5-3.5-5.1-6.9-7.9-10.1l1-0.8c2.7,3.4,5.2,6.9,7.7,10.4c2.4,3.5,4.7,7.2,6.9,10.9c2.1,3.7,4.1,7.6,5.7,11.5
				C127.1,109.8,128.5,113.9,128.9,118.2z"/>
		</g>
	</g>
	<g>
		<path style="fill:#EA3B69;" d="M102.5,72.9c-1.8,0-3.7-0.1-5.6-0.2c-59.5-3.5-76.1-47-76.3-47.4l1.7-0.6
			c0.2,0.4,16.4,42.8,74.7,46.3c58.3,3.4,78.1-49.3,78.3-49.8l1.7,0.6C176.8,22.3,157.9,72.9,102.5,72.9z"/>
	</g>
	<g>
		<path style="fill:#EA3B69;" d="M104.5,77.7h-5.1c-1.8,0-3.3-1.5-3.3-3.3v-2.6h11.7v2.6C107.8,76.2,106.4,77.7,104.5,77.7z"/>
	</g>
</g>
</svg>
