<?xml version="1.0" encoding="utf-8"?>
<!-- Generator: Adobe Illustrator 22.1.0, SVG Export Plug-In . SVG Version: 6.00 Build 0)  -->
<svg version="1.1" id="Layer_1" xmlns="http://www.w3.org/2000/svg" xmlns:xlink="http://www.w3.org/1999/xlink" x="0px" y="0px"
	 viewBox="0 0 196 164" style="enable-background:new 0 0 196 164;" xml:space="preserve">
<g>
	<path style="fill:#36DDEA;" d="M89.6,71.3v16.1c-13.8,17.4-33.5,24.2-44.7,26.8c-5.4,1.2-8.9,1.5-8.9,1.5c-32.1-36.5,0-66.7,0-66.7
		c2.8,0.6,5.5,1.3,8.1,2C70.2,58.3,89.6,71.3,89.6,71.3z"/>
	<path style="fill:#36DDEA;" d="M106.1,71.3c0,0,23.6-15.7,53.6-22.4c0,0,32.1,30.2,0,66.7c0,0-33.3-2.4-53.6-28.2V71.3z"/>
	<path style="fill:#30C5D8;" d="M44.9,114.1c-5.4,1.2-8.9,1.5-8.9,1.5c-32.1-36.5,0-66.7,0-66.7c2.8,0.6,5.5,1.3,8.1,2
		c-2.9,3.5-12.9,16.6-12.2,32.8C32.6,96.9,41.6,109.8,44.9,114.1z"/>
	<path style="fill:#30C5D8;" d="M150.8,114.1c5.4,1.2,8.9,1.5,8.9,1.5c32.1-36.5,0-66.7,0-66.7c-2.8,0.6-5.5,1.3-8.1,2
		c2.9,3.5,12.9,16.6,12.2,32.8C163.1,96.9,154.1,109.8,150.8,114.1z"/>
	<circle style="fill:#FFFFFF;" cx="44.9" cy="61.7" r="4.8"/>
	<circle style="fill:#FFFFFF;" cx="40.1" cy="93" r="4.8"/>
	<circle style="fill:#FFFFFF;" cx="73" cy="84.3" r="4.8"/>
	<circle style="fill:#FFFFFF;" cx="59.1" cy="95.1" r="3.7"/>
	<circle style="fill:#FFFFFF;" cx="64.6" cy="68.1" r="3.7"/>
	<circle style="fill:#FFFFFF;" cx="127.1" cy="90.9" r="4.8"/>
	<circle style="fill:#FFFFFF;" cx="138.4" cy="63.4" r="3.2"/>
	<circle style="fill:#FFFFFF;" cx="152.7" cy="89.1" r="4.8"/>
	<g>
		<path style="opacity:5.000000e-02;" d="M89.9,74.5c0,0-3.8-3.1-7.1-1.6c-1.2,0.6,0.8,0.5,2.8,1.1c1.9,0.6,3.7,1.9,3.7,1.9
			L89.9,74.5z"/>
		<path style="opacity:5.000000e-02;" d="M89.7,78.7c0,0-5.2,0.9-6.2,3.5C82.5,84.9,89.7,78.7,89.7,78.7z"/>
		<path style="opacity:5.000000e-02;" d="M89,83.7c0,0-2.9,4.9-7.1,5.4c0,0,6.7-0.9,8.4-3C92.1,84.1,89,83.7,89,83.7z"/>
	</g>
	<g>
		<path style="opacity:5.000000e-02;" d="M109,79.1c0,0,3.8-3.1,7.1-1.6c1.2,0.6-0.8,0.5-2.8,1.1c-1.9,0.6-3.7,1.9-3.7,1.9L109,79.1
			z"/>
		<path style="opacity:5.000000e-02;" d="M108.4,74c0,0,3.4-4.1,6.2-3.5C117.5,71,108.4,74,108.4,74z"/>
		<path style="opacity:5.000000e-02;" d="M108.9,84.2c0,0,2.9,4.9,7.1,5.4c0,0-6.7-0.9-8.4-3C105.9,84.5,108.9,84.2,108.9,84.2z"/>
	</g>
	<path style="fill:#FFF98F;" d="M106.5,91.4H91.7c-2.6,0-4.6-2.1-4.6-4.6V72c0-2.6,2.1-4.6,4.6-4.6h14.8c2.6,0,4.6,2.1,4.6,4.6v14.8
		C111.1,89.3,109.1,91.4,106.5,91.4z"/>
</g>
</svg>
