<?xml version="1.0" encoding="utf-8"?>
<!-- Generator: Adobe Illustrator 22.1.0, SVG Export Plug-In . SVG Version: 6.00 Build 0)  -->
<svg version="1.1" id="Layer_1" xmlns="http://www.w3.org/2000/svg" xmlns:xlink="http://www.w3.org/1999/xlink" x="0px" y="0px"
	 viewBox="0 0 196 164" style="enable-background:new 0 0 196 164;" xml:space="preserve">
<g>
	<polygon style="fill:#D7EAF7;" points="141.9,150 46.2,150 54.3,101.3 133.8,101.3 	"/>
	<path style="fill:#EDF5F9;" d="M128.7,107.1l-66.8,4.1c-23.9,4.1-60.7-16.7-42.9-53.6c8.6-17.9,26.9-18.8,35-16.7
		c1.9,0.5,3.2,1.1,3.7,1.7l0.1,0.1c0,0-3.3-29.7,39.6-29.7c34.7,0,38,28.1,38,28.1s19.8-6.6,31.4,14.9
		C183.3,86.9,150.2,111.2,128.7,107.1z"/>
	<path style="fill:#D7EAF7;" d="M55.2,112c0,0,19-3.3,19.8-15.7c0,0,0,7.4,12.4,11.6c12.4,4.1,30.5-0.8,31.4-11.6
		c0,0,5.8,10.7,14.9,13.2l-42.9,8.3L55.2,112z"/>
	<path style="fill:#D7EAF7;" d="M62.7,59.2c0,0-7.1-5.7-8.8-18.3c1.9,0.5,3.2,1.1,3.7,1.7l0.1,0.1C57.7,42.7,57.7,50.1,62.7,59.2z"
		/>
	
		<line style="fill:none;stroke:#EDF5F9;stroke-width:5;stroke-linecap:round;stroke-linejoin:round;stroke-miterlimit:10;" x1="71.7" y1="114.5" x2="68.9" y2="141.3"/>
	
		<line style="fill:none;stroke:#EDF5F9;stroke-width:5;stroke-linecap:round;stroke-linejoin:round;stroke-miterlimit:10;" x1="115.1" y1="114.5" x2="117.9" y2="141.3"/>
	
		<line style="fill:none;stroke:#EDF5F9;stroke-width:5;stroke-linecap:round;stroke-linejoin:round;stroke-miterlimit:10;" x1="94" y1="115.3" x2="93.6" y2="142.2"/>
</g>
</svg>
