<?xml version="1.0" encoding="utf-8"?>
<!-- Generator: Adobe Illustrator 22.1.0, SVG Export Plug-In . SVG Version: 6.00 Build 0)  -->
<svg version="1.1" id="Layer_1" xmlns="http://www.w3.org/2000/svg" xmlns:xlink="http://www.w3.org/1999/xlink" x="0px" y="0px"
	 viewBox="0 0 196 164" style="enable-background:new 0 0 196 164;" xml:space="preserve">
<g id="hat1">
	
		<ellipse transform="matrix(0.9536 -0.3011 0.3011 0.9536 -23.0759 34.9479)" style="fill:#020202;" cx="101.8" cy="92.3" rx="57.6" ry="27.5"/>
	<path style="fill:#1E1E1E;" d="M144.6,77.4c-25.9,18.3-54.8,27.4-86.5,27.3L55.4,96l-3.4-10.7c-7.5-23.9,5.7-49.3,29.6-56.9
		c11.9-3.8,24.3-2.3,34.6,3c10.3,5.4,18.6,14.6,22.3,26.6l3.5,11L144.6,77.4z"/>
	<path style="fill:#3F3F3F;" d="M144.6,77.4c-25.9,18.3-54.8,27.4-86.5,27.3L55.4,96c31-2.1,59.9-11.1,86.6-27L144.6,77.4z"/>
</g>
</svg>
