<?xml version="1.0" encoding="utf-8"?>
<!-- Generator: Adobe Illustrator 22.1.0, SVG Export Plug-In . SVG Version: 6.00 Build 0)  -->
<svg version="1.1" id="Layer_1" xmlns="http://www.w3.org/2000/svg" xmlns:xlink="http://www.w3.org/1999/xlink" x="0px" y="0px"
	 viewBox="0 0 196 164" style="enable-background:new 0 0 196 164;" xml:space="preserve">
<g>
	<path style="fill:#316DB5;" d="M167.7,137.7H25.2l4.5-30.4l0.4-2.6c0.1-1.3,0.2-2.6,0.4-3.9c0.1-0.7,0.2-1.5,0.3-2.2
		c0.1-0.7,0.3-1.5,0.4-2.2c0.1-0.7,0.3-1.5,0.5-2.2c0.6-2.6,1.4-5.1,2.3-7.6c1.7-4.6,3.9-9,6.5-13.1c2.3-3.5,4.8-6.8,7.7-9.8
		c1.1-1.1,2.2-2.2,3.3-3.3c0.8-0.7,1.6-1.5,2.5-2.2c1.4-1.1,2.8-2.2,4.3-3.3c6.3-4.4,13.5-7.8,21.1-9.8c5.4-1.4,11.1-2.2,16.9-2.2
		s11.5,0.8,16.9,2.2c7.7,2,14.8,5.4,21.1,9.8c1.5,1,2.9,2.1,4.3,3.3c0.9,0.7,1.7,1.4,2.5,2.2c0.1,0.1,0.3,0.2,0.4,0.3
		c1,0.9,2,1.9,3,2.9c2.9,3,5.4,6.3,7.7,9.8c2.6,4.1,4.8,8.4,6.5,13.1c0.9,2.5,1.7,5,2.3,7.6c0.2,0.7,0.3,1.4,0.5,2.2
		c0.2,0.7,0.3,1.4,0.4,2.2c0.1,0.7,0.2,1.4,0.3,2.2c0.2,1.3,0.3,2.6,0.4,3.9l0.4,2.6L167.7,137.7z"/>
	<g>
		<path style="fill:#B6E7EF;" d="M162.1,98.6H30.9c0.1-0.7,0.3-1.5,0.4-2.2h130.4C161.8,97.1,161.9,97.8,162.1,98.6z"/>
		<path style="fill:#B6E7EF;" d="M141.3,60.5H51.6c0.8-0.7,1.6-1.5,2.5-2.2h84.7C139.7,59,140.5,59.8,141.3,60.5z"/>
		<path style="fill:#53A0E5;" d="M163.2,107.3H29.7l0.4-2.6c0.1-1.3,0.2-2.6,0.4-3.9h131.9c0.2,1.3,0.3,2.6,0.4,3.9L163.2,107.3z"/>
		<path style="fill:#53A0E5;" d="M161.2,94.2H31.7c0.6-2.6,1.4-5.1,2.3-7.6h124.8C159.8,89.1,160.6,91.6,161.2,94.2z"/>
		<path style="fill:#53A0E5;" d="M152.4,73.6H40.6c2.3-3.5,4.8-6.8,7.7-9.8h96.4C147.5,66.8,150.1,70.1,152.4,73.6z"/>
		<path style="fill:#53A0E5;" d="M134.5,55.1H58.4c6.3-4.4,13.5-7.8,21.1-9.8h33.8C121,47.3,128.2,50.6,134.5,55.1z"/>
		<g>
			<circle style="fill:#53A0E5;" cx="47" cy="80.1" r="2.2"/>
			<circle style="fill:#53A0E5;" cx="56.8" cy="80.1" r="2.2"/>
			<circle style="fill:#53A0E5;" cx="67.6" cy="80.1" r="2.2"/>
			<circle style="fill:#53A0E5;" cx="77.4" cy="80.1" r="2.2"/>
			<circle style="fill:#53A0E5;" cx="88.3" cy="80.1" r="2.2"/>
			<circle style="fill:#53A0E5;" cx="98.1" cy="80.1" r="2.2"/>
			<circle style="fill:#53A0E5;" cx="109" cy="80.1" r="2.2"/>
			<circle style="fill:#53A0E5;" cx="118.8" cy="80.1" r="2.2"/>
			<circle style="fill:#53A0E5;" cx="128.5" cy="80.1" r="2.2"/>
			<circle style="fill:#53A0E5;" cx="138.3" cy="80.1" r="2.2"/>
			<circle style="fill:#53A0E5;" cx="149.2" cy="80.1" r="2.2"/>
		</g>
		<g>
			<circle style="fill:#53A0E5;" cx="35" cy="111.6" r="2.2"/>
			<circle style="fill:#53A0E5;" cx="44.8" cy="111.6" r="2.2"/>
			<circle style="fill:#53A0E5;" cx="55.7" cy="111.6" r="2.2"/>
			<circle style="fill:#53A0E5;" cx="65.5" cy="111.6" r="2.2"/>
			<circle style="fill:#53A0E5;" cx="76.3" cy="111.6" r="2.2"/>
			<circle style="fill:#53A0E5;" cx="86.1" cy="111.6" r="2.2"/>
			<circle style="fill:#53A0E5;" cx="97" cy="111.6" r="2.2"/>
			<circle style="fill:#53A0E5;" cx="106.8" cy="111.6" r="2.2"/>
			<circle style="fill:#53A0E5;" cx="116.6" cy="111.6" r="2.2"/>
			<circle style="fill:#53A0E5;" cx="126.4" cy="111.6" r="2.2"/>
			<circle style="fill:#53A0E5;" cx="137.2" cy="111.6" r="2.2"/>
			<circle style="fill:#53A0E5;" cx="147" cy="111.6" r="2.2"/>
			<circle style="fill:#53A0E5;" cx="156.8" cy="111.6" r="2.2"/>
		</g>
	</g>
	<path style="fill:#7FCDF4;" d="M98.8,49.5c1-0.3,0.5,0.9-0.6-0.6c-0.6-1.7-1.3-2.1-2.1-1.8c-0.8,1-1.6,0.8-2.5,2.1
		c0-1.7-2.4,2.4-4.7-1.6c-1.3,0.8-2.6,5.1-3.6-0.3c-0.9,3.4-1.4-5.7-0.9-2.3c-0.5-1.6,0.1,0.4-2.9-3.7c-1.8,1.8-3.9-4.7-2.4-4.4
		c-1.1-5.8,1.4-2.3-0.9-5c0.6-5.9-3.7-3-1.4-5c-2.2-2.2-2.2-2-0.6-2.3c0.1-0.5-0.9,0.2,4-2.5c0-4,1.7-0.5,3.2-2.3
		c0.7-1.4-1.9-2.4-0.7-1.8c1.8,1,0.3,0.7,3.8-3.3c4.6-1.1,3.7-6.6,4.3-2.2c1.1,1-0.7-1.3,5.1-1c-0.7,1.8,0.9,0.5,2.6,1.5
		c1.7-0.1,3.5-1.7,3.4-1.3c1.1-2.2-1.2-2.8,3.8,1.7c0.9,1.5-0.3-0.3,1.8,1.8c-0.5-0.8,3.8,2.7,3.5,2.1c-1.4,1.3,4,0.9,1.6,2.6
		c-1-4.4,5.2,2.1,2.1,2.8c-1.4-1.8,3.4,1.4,1.1,3.2c2.9,0.3-2,2.2-2.6,1.9c1.1,1.5,1,1.5,3.2,1.5c1.2,0.3,0.3-1.5-0.5,2.6
		c-0.7-0.6-0.6-2,0.6,2.5c-1.4-1.2-1.5,2.8-2,4.7c-1.8,2.6,0.5,5.6-2.7,4.1c-0.7-1.5-3.4,1.1-3.7,1.9c-1.6,2-1.7,3.8,0.1,1.4
		c-5.9,0.4-4,1.4-4.4,2.2c-1.6-1.6-2-2.6-2.4-2.3C100.9,45.4,100.5,47.8,98.8,49.5z"/>
	<path style="fill:#7FCDF4;" d="M161.5,145c0,2.5-1.1,5.2-3,0c-1,2.3-2.2,1.2-3.5,0.1c-1.4,1.2-3-0.9-4.7-0.1
		c-1.7,3.3-3.7-0.3-5.7,0c-1,1.6-2.1,2-3.2,1.7c-1.1-0.2-2.2-1.7-3.4-1.7c-1.8-1.7-3.7-1.8-5.6-1c-1.9-0.2-4,0.5-6,1
		c-2.1,0.2-4.2,0.4-6.3-1.1c-2.1-0.4-4.3-2.7-6.5,1.1c-2.2,1-4.5,2.4-6.7,0c-1.1,0.6-2.3,0.7-3.4,0.7c-1.1,0-2.3-0.3-3.4-0.7
		c-2.3-0.3-4.6-2.6-6.8-0.5c-2.3,1.6-4.5-3-6.8,0.5c-2.3-0.6-4.5,2.6-6.7,0c-2.2,1.1-4.4,0-6.5,0c-2.1,0.6-4.2-0.8-6.3-0.4
		c-2,1.6-4,0.7-6,0.4c-1.9,1.1-3.8,0-5.6,0.2c-1.8,0.6-3.5-3.1-5.1-0.2c-1.6-0.8-3.2,0.7-4.6,1c-1.4-4.6-2.8-2.7-4-1
		c-1.2,2.4-2.4-3.6-3.4,1.4c-1-1.5-1.9,3.8-2.6-1.4c-1.9-1.6-3-0.7-3,0c-1.8-0.8-3.5,2.8-5.2,0.4c-1.6-0.6-3.2,1.9-4.6-3
		c-1.4-5.3-2.8,0.2-3.9-2.1c-1.2-5.6-2.2-5.3-3-4.8c-0.8-0.6-1.5,1.1-2-4c-0.5-0.6-0.7-4.8-0.7-5.8c0-4.1,0-6.4,0,0
		c0-3.8,0.2-0.8,0.7-2.1c0.2,1.4,0.5,1,0.8-2c0.3-2.3,0.7-1.6,1.1-5.7c0.8,0,1.9-3.5,3-3.9c1.2-3.2,2.5,3.1,3.9-3
		c0.7,2.3,1.5,5.3,2.2,2.9c0.8-2.1,1.6-0.7,2.4-3c1.6-1.7,3.4-2.2,5.2-2.6c0,3,1.1,1.6,3,0c1-4.3,2.2-0.8,3.5,0.6
		c1.4,0.2,3-2.7,4.7-0.6c1.7,2.6,3.7-7.2,5.7,0.1c1-1.8,2.1-1.7,3.2-1.2c1.1-3,2.2,4.1,3.4,1.2c1-0.9,2.1,0,3.2-0.5
		c1.1-1.1,2.2-0.9,3.3-1.4c1.1,2.4,2.3,0.9,3.4,0.5c1.2-0.9,2.3-1.2,3.5,1.4c1.2,1.3,2.4,2.3,3.6,1.6c1.2-0.3,2.5-1.3,3.7-1.6
		c1.2-0.2,2.5-0.1,3.8-0.6c1.3,0.3,2.5-0.3,3.8,0.6c1.3-2,2.6-2.5,3.9-1.3c1.3,0.9,2.6,1.1,3.9,0.1c1.3-0.6,2.6,0.1,3.9-0.1
		c1.3-1.4,2.6-1.4,3.9,1.3c1.3,0.6,2.6,1.7,3.9,1.2c1.3-0.4,2.6,0,3.9-1.7c2.6,6.6,5.1-2,7.6,0.5c1.6-0.5,3.1-0.9,4.7-1.4
		c1.5-1.8,3-0.4,4.5-1.8c1.5-2.5,3-0.9,4.4-0.3c1.4,2.5,2.8,0.8,4.2,3.6c1.4-2.5,2.7-2.2,4-1.3c1.3-1.1,2.6-0.7,3.8,0
		c1.2,0.8,2.4,0.4,3.6-1.2c1.1-1.1,2.2-1.4,3.3,2.5c1.1,0.2,2.1,2.1,3-1.4c0.9,1.2,1.8-4.3,2.7,1c1.7-0.2,3.1-0.6,4.3,0.4
		c1.2,0,2.1-3.7,2.7-3.1c0.6,1.1,1-2.7,1,3.1c0.9-1.5,1.8-1.5,2.6-0.7c0.9,2.3,1.7,3,2.5,2.7c1.6,2.1,3.2,1.2,4.6,0.6
		c0.7-4,1.4-1.4,2.1-3.2c0.7,3.5,1.3,3.4,1.9,6.3c0.6,2,1.1-1.7,1.6,0.3c0.5-3.8,1-3.6,1.4,3.7c0.8,0.4,1.5,6.5,2,4.6
		c0.2,7.9,0.4,8.6,0.5,5.1c0.1,2,0.2-5.6,0.2,0.1c0-0.7,0-1.6,0,0c0,4.2-0.2,1.9-0.7,3.8c-0.5,2.4-1.1,9.5-2,6
		c-0.4,0.9-0.9-4.2-1.4-2c-0.5,0.4-1.1,4.9-1.6,5.9c-1.2,8.3-2.5,5.6-3.9,3c-0.7-2.4-1.5-0.9-2.2,0.7c-0.8,1.6-1.6,3.3-2.4,1.3
		c-0.8,1.1-1.7,2.1-2.5,3.5C163.3,148.5,162.4,143.8,161.5,145z"/>
</g>
</svg>
