<?xml version="1.0" encoding="utf-8"?>
<!-- Generator: Adobe Illustrator 22.1.0, SVG Export Plug-In . SVG Version: 6.00 Build 0)  -->
<svg version="1.1" id="Layer_1" xmlns="http://www.w3.org/2000/svg" xmlns:xlink="http://www.w3.org/1999/xlink" x="0px" y="0px"
	 viewBox="0 0 196 164" style="enable-background:new 0 0 196 164;" xml:space="preserve">
<g>
	<ellipse style="fill:#C99E75;" cx="101" cy="97.2" rx="88.8" ry="21.8"/>
	<path style="fill:#BC8F5E;" d="M151.5,96.7c-33.9,8.7-67.8,8.7-101.7,0c-2.1-0.5-3.4-2.6-3-4.7l1.1-6.1l7-38.7
		c0.5-2.9,2.1-5.5,4.3-7.3c1.3-1,2.7-1.8,4.4-2.2c2.4-0.6,4.8-1.2,7.2-1.8c0,0,0,0,0.1,0c7.7-1.2,18.7-2,30.8-2
		c17.6,0,32.8,1.6,39.2,3.9c1.2,0.7,2.3,1.7,3.2,2.8c1.2,1.5,2.1,3.4,2.5,5.5l7,40l1,5.8C154.9,94.1,153.6,96.1,151.5,96.7z"/>
	<g>
		<path style="fill:#563112;" d="M151.5,96.7c-33.9,8.7-67.8,8.7-101.7,0c-2.1-0.5-3.4-2.6-3-4.7l1.1-6.1
			c15.4,3.9,59.1,12.5,105.6,0.2l1,5.8C154.9,94.1,153.6,96.1,151.5,96.7z"/>
	</g>
	<path style="fill:#C99E75;" d="M144.1,40.4c0,0.1,0,0.2-0.1,0.3c-1.2,3.4-19.7,6-42.5,6c-23.5,0-42.5-2.9-42.5-6.4
		c0-0.1,0-0.3,0.1-0.4c0.7-1.5,5-2.9,11.6-4c0,0,0,0,0.1,0c7.7-1.2,18.7-2,30.8-2c17.6,0,32.8,1.6,39.2,3.9
		C142.9,38.7,144.1,39.5,144.1,40.4z"/>
</g>
</svg>
