<?xml version="1.0" encoding="utf-8"?>
<!-- Generator: Adobe Illustrator 22.1.0, SVG Export Plug-In . SVG Version: 6.00 Build 0)  -->
<svg version="1.1" id="Layer_1" xmlns="http://www.w3.org/2000/svg" xmlns:xlink="http://www.w3.org/1999/xlink" x="0px" y="0px"
	 viewBox="0 0 196 164" style="enable-background:new 0 0 196 164;" xml:space="preserve">
<g>
	<path style="fill:#34EA9C;" d="M138.6,69.6v21.2H60.4V69.6c0-21.6,17.5-39.1,39.1-39.1c10.8,0,20.6,4.4,27.7,11.5
		C134.2,49.1,138.6,58.8,138.6,69.6z"/>
	<g>
		<path style="fill:#F2E353;" d="M138.6,69.2v13.1c-5.2,1.2-10.4,2.1-15.4,2.8c-7.2,0.9-14.2,1.3-20.7,1.3c-7.8,0-15.1-0.5-21.5-1.3
			c-8.6-1-15.7-2.5-20.6-3.6V68.2C71.6,71.1,104.4,77.8,138.6,69.2z"/>
	</g>
	<path style="fill:#4BF9AA;" d="M60.4,79.5c0,0-47,8-48.9,17.5s16.4-3,36.6,6.1c18.9,8.5,41.9,8.7,74.5-0.9
		c25.4-7.5,44.8,2.1,59.7-4.1c16-6.6-43.7-18.5-43.7-18.5C98.1,89,60.4,79.5,60.4,79.5z"/>
	<g>
		<path style="fill:#A01C32;" d="M123.9,67.8c0,0-10.8-1.1-13,9.7s3.8,11.9,6.5,12.4c2.7,0.5,17.1-2,15.7-9.7
			C131.7,72.6,123.9,67.8,123.9,67.8z"/>
		<path style="fill:#DD5075;" d="M118,83.5c0,0-4.9-0.5-4.9-4.9c0-2.7,3.8-8.1,7.6-4.3c0,0-2.6,0.4-4.3,3.2
			C115.5,78.9,116.3,81.3,118,83.5z"/>
		<path style="fill:#DD5075;" d="M118.5,79.7c0,0,1.2,2.4,2.7,1.6c1.1-0.5,1.1-2.2,1.1-2.2s2.2-0.5,1.1,2.2
			C122.1,84.6,117.4,84,118.5,79.7z"/>
		<path style="fill:#DD5075;" d="M120.1,79.7c0,0,1.6-3.2,4.3-1.1c0,0-0.5-2.7-3.2-2.7C119,75.9,118,78.1,120.1,79.7z"/>
		<path style="fill:#DD5075;" d="M120.7,72.7c0,0,6.5,4.3,4.3,8.6c-2.2,4.3-8.1,2.7-8.1,2.7s4.3,3.8,9.2-0.5
			C130.9,79.2,127.7,70.5,120.7,72.7z"/>
		<path style="fill:#DD5075;" d="M118,68.9c0,0-5.4,3.8-5.9,8.1c-0.3,2.1,0.1,4.9,2.2,6.5c6,4.7,9.2,3.8,9.2,3.8s-9.2,4.9-13.5-2.2
			C105.5,78.1,109.8,67.3,118,68.9z"/>
		<path style="fill:#DD5075;" d="M114.2,74.3c0,0,4.8-5.9,12.4-2.7c6.5,2.7,6.5,10.8,6.5,10.8s4.5-7.2-2.2-13
			c-4.2-3.7-9.4-2.3-12.4,0C115.7,71.5,114.2,74.3,114.2,74.3z"/>
		<path style="fill:#DD5075;" d="M114.7,89.4c0,0,8,1.1,12.4-3.2c2-2,3.2-5.9,1.6-10.3c0,0,8.1,7.6,1.6,14.1
			C125.2,95.1,114.7,89.4,114.7,89.4z"/>
	</g>
</g>
</svg>
