<?xml version="1.0" encoding="utf-8"?>
<!-- Generator: Adobe Illustrator 22.1.0, SVG Export Plug-In . SVG Version: 6.00 Build 0)  -->
<svg version="1.1" id="Layer_1" xmlns="http://www.w3.org/2000/svg" xmlns:xlink="http://www.w3.org/1999/xlink" x="0px" y="0px"
	 viewBox="0 0 196 164" style="enable-background:new 0 0 196 164;" xml:space="preserve">
<g>
	<g>
		<path style="fill:#FCA129;" d="M145.3,135c0,0-4.5,1.4-12,3c-2.2,0.5-4.6,1-7.3,1.4c-7.4,1.3-16.4,2.5-26.2,2.8
			c-15.6,0.6-33.1-1-49.3-7.3l34.1-83.6l5-12.2l8.3-20.2c0,0,0,0,0,0c0,0,0,0,0,0l31.2,76.4l9.1,22.4L145.3,135z"/>
	</g>
	<g>
		<polygon style="fill:#F4E956;" points="82.9,119.2 77.7,111.5 68.4,111.5 74.1,104.2 71.2,95.3 79.9,98.4 87.5,93 87.2,102.3 
			94.7,107.7 85.8,110.4 		"/>
	</g>
	<g>
		<polygon style="fill:#F4E956;" points="70.5,128.3 67.6,128 65.6,130.3 65,127.3 62.2,126.2 64.8,124.7 65,121.7 67.3,123.7 
			70.2,123 69,125.7 		"/>
	</g>
	<g>
		<polygon style="fill:#F4E956;" points="104.2,48.9 96.1,50.9 93.1,58.6 88.8,51.5 84.7,51.3 89.6,39.2 91.4,39.9 98.4,35.4 
			97.8,43.7 		"/>
	</g>
	<g style="opacity:0.2;">
		<path style="fill:#A3310D;" d="M99.9,142.2c-15.6,0.6-33.1-1-49.3-7.3l34.1-83.6l5-12.2l8.3-20.2c-0.8,2.2-29.9,84-19.7,109.7
			C81.8,137.8,90.3,141.4,99.9,142.2z"/>
	</g>
	<g>
		<polygon style="fill:#F4E956;" points="138.2,126.7 128,118.9 115.7,122.9 120,110.7 112.3,100.4 125.2,100.6 129.1,95.2 
			138.2,117.6 		"/>
	</g>
	<g>
		<circle style="fill:#E51F4E;" cx="97.9" cy="18.9" r="7.9"/>
	</g>
	<g>
		<path d="M138.1,135.8c-0.3,0.2-2,1-4.8,2.2c-2.2,0.5-4.6,1-7.3,1.4C132.8,137.8,137.6,136,138.1,135.8z"/>
	</g>
	<g>
		<path style="fill:#E51F4E;" d="M97.4,148.8c-30.2,0-50.4-9.8-51.7-10.5c-2.7-1.4-3.8-4.7-2.5-7.4c1.4-2.7,4.7-3.8,7.4-2.5
			c0.5,0.2,42.9,20.7,95.8-0.2c2.8-1.1,6,0.3,7.2,3.1c1.1,2.8-0.3,6-3.1,7.2C131,146.2,112.9,148.8,97.4,148.8z"/>
	</g>
	<g>
		<polygon style="fill:#F4E956;" points="105.7,82.8 103,79 98.4,79 101.2,75.3 99.8,70.9 104.2,72.4 108,69.7 107.8,74.4 
			111.6,77.1 107.1,78.4 		"/>
	</g>
	<g>
		<polygon style="fill:#F4E956;" points="102.7,131.5 99.6,130.1 96.6,131.8 97,128.4 94.4,126.1 97.8,125.4 99.2,122.2 
			100.9,125.3 104.3,125.6 102,128.1 		"/>
	</g>
</g>
</svg>
