<?xml version="1.0" encoding="utf-8"?>
<!-- Generator: Adobe Illustrator 22.1.0, SVG Export Plug-In . SVG Version: 6.00 Build 0)  -->
<svg version="1.1" id="Layer_1" xmlns="http://www.w3.org/2000/svg" xmlns:xlink="http://www.w3.org/1999/xlink" x="0px" y="0px"
	 viewBox="0 0 196 164" style="enable-background:new 0 0 196 164;" xml:space="preserve">
<g>
	<path style="fill:#130E54;" d="M173.2,141.1c-46.7,21.4-118.4,8.2-145,2.1c-3.5-0.8-4-5.5-0.7-7l35.3-16.5L64,119l4.4-11.2
		l22.6-57.2l-6.3-19l-20.1,4.6L47.9,12l16.7,16.7l27.6-13.2l25.9,29.9l-1.2,19l13.9,43.5l2.8,8.9l3.9,2.9l35.5,14.8
		C176,135.6,176.2,139.8,173.2,141.1z"/>
	<g>
		<path style="fill:#A83AD6;" d="M137.5,119.6c-14.4,4.9-27.5,6.6-38.7,6.6c-17.1,0-29.8-3.9-36-6.4L64,119l4.4-11.2
			c3.4,1.3,9.1,3,16.6,4.1c10.5,1.5,26.7,1.9,45.8-4.1l2.8,8.9L137.5,119.6z"/>
	</g>
	<polygon style="fill:none;stroke:#F7E666;stroke-width:5;stroke-miterlimit:10;" points="92.8,112.9 107.2,111.5 108.9,127 
		92.2,126.6 	"/>
</g>
</svg>
