<?xml version="1.0" encoding="utf-8"?>
<!-- Generator: Adobe Illustrator 22.1.0, SVG Export Plug-In . SVG Version: 6.00 Build 0)  -->
<svg version="1.1" id="Layer_1" xmlns="http://www.w3.org/2000/svg" xmlns:xlink="http://www.w3.org/1999/xlink" x="0px" y="0px"
	 viewBox="0 0 196 164" style="enable-background:new 0 0 196 164;" xml:space="preserve">
<g>
	<path style="fill:#4EF2CB;" d="M144.1,144.7c0,0-2.3,0.7-6.2,1.7h0c-7.4,1.9-20.8,4.6-36.5,5.3c-6.1,0.3-12.5,0.2-19.1-0.4
		c-9.9-0.9-20.1-2.8-29.7-6.6l5.8-14.2l3.9-9.6l5.7-14.1l4.1-10l5.5-13.6l3.9-9.6l5.9-14.4l3.7-9.1l7.2-17.7l14,34.2v0l5.6,13.7v0
		l9.3,22.9l4.5,11.1l9.5,23.3v0L144.1,144.7z"/>
	<g>
		<path style="fill:#EA478A;" d="M101.4,151.7c-6.1,0.3-12.5,0.2-19.1-0.4c-10.4-7-18.4-14.6-24-20.8l3.9-9.6
			C69.2,129.2,82.3,142.4,101.4,151.7z"/>
	</g>
	<g>
		<path style="fill:#EA478A;" d="M144.1,144.7c0,0-2.3,0.7-6.2,1.7h0c-41.4-10.7-61.2-28.6-69.9-39.5l4.1-10
			c2.1,3.3,6.5,9.1,14.5,15.6c9.8,7.9,26.9,18.3,54.7,25.3v0L144.1,144.7z"/>
	</g>
	<g>
		<path style="fill:#EA478A;" d="M131.8,114.5c-29.9-8.8-46.2-22.5-54.2-31.2l3.9-9.6c4.7,6,18,19.9,45.7,29.6L131.8,114.5z"/>
	</g>
	<g>
		<path style="fill:#EA478A;" d="M117.9,80.5c-10.4-5.4-18.7-11.2-25-16.4c-1.9-1.6-3.8-3.2-5.4-4.7l3.7-9.1c2.3,2.2,4.9,4.6,7.9,7
			c3.7,3,8.1,6.3,13.3,9.5v0L117.9,80.5z"/>
	</g>
	<path style="fill:#FCA129;" d="M84.5,25.9l2.8-4.7c0,0,8.5,3.8,11.4,11.4C98.8,32.5,92.1,25.9,84.5,25.9z"/>
	<path style="fill:#FCA129;" d="M92,16.8l5.8-1.8c0,0,4.2,9.3,0.9,17.5C98.8,32.5,98.2,22.3,92,16.8z"/>
	<path style="fill:#FCA129;" d="M105.2,19l4.5,2.8c0,0-3.7,8.1-10.9,10.8C98.8,32.5,105.1,26.3,105.2,19z"/>
	<path style="opacity:0.3;fill:#25AFA8;" d="M100.2,151.7c-15,0.5-32-0.9-47.7-7l33-80.8l4.8-11.7l8-19.5
		c-0.7,2.1-28.8,81.2-19.1,106C82.8,147.5,91,151,100.2,151.7z"/>
</g>
</svg>
