<?xml version="1.0" encoding="utf-8"?>
<!-- Generator: Adobe Illustrator 22.1.0, SVG Export Plug-In . SVG Version: 6.00 Build 0)  -->
<svg version="1.1" id="Layer_1" xmlns="http://www.w3.org/2000/svg" xmlns:xlink="http://www.w3.org/1999/xlink" x="0px" y="0px"
	 viewBox="0 0 196 164" style="enable-background:new 0 0 196 164;" xml:space="preserve">
<g>
	<path style="fill:#701652;" d="M160.9,137.1c0.3,2,0.1,0.3,0.5,2.3H33.8c0.5-2-0.3-0.3,0.1-2.3c2.9-13.5,5.2-27,6.3-40.5
		C41.9,75.4,41.9,49,37.6,16h119.2c-4,34.3-2.7,58.1-0.7,81.5C157.2,110.7,158.7,123.9,160.9,137.1z"/>
	<g>
		<path style="fill:#32E0AA;" d="M160.9,137.1l-63.3,5.7l-63.7-5.7c2.9-13.5,3.7-16.5,5-30c20,4.5,66.2,10.6,118.3,0
			C158.2,120.2,158.7,123.9,160.9,137.1z"/>
	</g>
	<g>
		<path style="fill:#4C0C3A;" d="M96.7,148.7c-45.8,0-78.9-8.8-81-9.3l5.1-9.6c0,0,0,0,0,0l0,0c1.1,0.3,75.9,19.9,154.4-1.3l5.1,9.6
			C150.6,146.1,121.8,148.7,96.7,148.7z"/>
	</g>
	<circle style="fill:#F4E956;" cx="99.3" cy="124.9" r="11.9"/>
</g>
</svg>
