<?xml version="1.0" encoding="utf-8"?>
<!-- Generator: Adobe Illustrator 22.1.0, SVG Export Plug-In . SVG Version: 6.00 Build 0)  -->
<svg version="1.1" id="Layer_1" xmlns="http://www.w3.org/2000/svg" xmlns:xlink="http://www.w3.org/1999/xlink" x="0px" y="0px"
	 viewBox="0 0 196 164" style="enable-background:new 0 0 196 164;" xml:space="preserve">
<g>
	<ellipse style="fill:#DDB143;" cx="97.5" cy="100.8" rx="88.8" ry="23.2"/>
	<path style="fill:#E5CF4C;" d="M144.2,104.5c2.5,27.5-1.9,19.5-47,21.3c-41.4,1.7-47,3.7-44.5-21.3C55.4,77.2,66.3,17,98.4,17
		S141.8,77.1,144.2,104.5z"/>
	<path style="fill:#EFE267;" d="M170.6,125.5c-31.3,16.5-129,14-146.1,0c-2.1-1.8-4.8-4.6-6.1-7l-9.6-16.1
		c27.8,24.1,138.6,27.2,177.5,0l-9.6,16.1C175.4,120.9,173,124.2,170.6,125.5z"/>
	<g>
		<g>
			<path style="fill:#DB943E;" d="M98.8,137c-0.3,0-0.5-0.1-0.7-0.3l-9.1-10.8L82.2,136c-0.2,0.2-0.4,0.4-0.7,0.4
				c-0.3,0-0.6-0.1-0.8-0.3l-9.7-11.4c-2.5,4.1-7.9,9.9-8.1,10.2c-0.2,0.2-0.4,0.3-0.7,0.3c-0.2,0-0.5-0.1-0.7-0.3
				c-2.1-2.1-9-9.8-11.1-12.3c-1.2,1.6-3,5.9-4,8.8c-0.1,0.3-0.3,0.5-0.6,0.6c-0.3,0.1-0.6,0-0.8-0.2c-3.1-2.6-8.7-9.8-10.6-12.3
				c-2.7,2.9-5.3,6.5-5.3,6.5c-0.2,0.2-0.5,0.4-0.8,0.4c-0.3,0-0.6-0.2-0.8-0.4c-3-4.3-9.8-14.8-9.9-14.9c-0.3-0.4-0.2-1,0.3-1.3
				c0.4-0.3,1-0.2,1.3,0.3c0.1,0.1,5.9,9,9.2,13.8c1.1-1.5,3.3-4.3,5.5-6.5c0.2-0.2,0.4-0.3,0.7-0.3c0.3,0,0.5,0.2,0.7,0.4
				c0.1,0.1,6.2,8.3,10,11.9c1-2.7,3.2-8,4.8-9.1c0.4-0.3,0.9-0.2,1.2,0.2c0.1,0.1,7.9,9,11,12.2c1.7-1.9,6.3-7.2,7.9-10.2
				c0.1-0.3,0.4-0.5,0.7-0.5c0.3,0,0.6,0.1,0.8,0.3l9.7,11.4l6.7-10.1c0.2-0.2,0.4-0.4,0.7-0.4c0.3,0,0.6,0.1,0.8,0.3l9.1,10.8
				l7.4-10.7c0.2-0.2,0.4-0.4,0.7-0.4c0.3,0,0.6,0.1,0.8,0.4l7.9,10.2l8.5-11.4c0.2-0.3,0.5-0.4,0.8-0.4c0.3,0,0.6,0.2,0.7,0.5
				c1.6,3.1,6.6,7.9,8.4,9.6c3.1-3.2,11-12.2,11.1-12.3c0.2-0.2,0.4-0.3,0.7-0.3c2.4,0.1,4.4,5.6,5.4,9.1c3.8-3.7,9.8-11.7,9.9-11.8
				c0.2-0.2,0.4-0.3,0.7-0.4c0.3,0,0.5,0.1,0.7,0.3c2.2,2.2,4.8,5.1,6.1,6.6c3.1-4.6,8.5-13.1,8.6-13.2c0.3-0.4,0.8-0.6,1.3-0.3
				c0.4,0.3,0.6,0.8,0.3,1.3c-0.1,0.1-6.3,10-9.3,14.3c-0.2,0.2-0.4,0.4-0.7,0.4c-0.3,0-0.6-0.1-0.8-0.3c0,0-3.2-3.7-6-6.6
				c-1.9,2.5-7.5,9.7-10.6,12.3c-0.2,0.2-0.6,0.3-0.9,0.2c-0.3-0.1-0.5-0.3-0.6-0.7c-1.2-4.6-2.8-8.3-3.8-9
				c-1.9,2.1-9.2,10.4-11.4,12.6c-0.4,0.4-0.9,0.4-1.3,0c-0.3-0.2-6.1-5.6-8.7-9.5l-8.5,11.3c-0.2,0.2-0.4,0.4-0.7,0.4
				c-0.3,0-0.6-0.1-0.7-0.4l-7.9-10.1l-7.3,10.7C99.4,136.8,99.1,137,98.8,137C98.8,137,98.8,137,98.8,137z"/>
		</g>
	</g>
	<g>
		<path style="fill:#FFF988;" d="M97.2,122.8c-44.6,0-89.7-7.7-89.7-22.3c0-9.1,18.2-17,48.6-21l0.3,2.5C28.2,85.7,10,92.9,10,100.5
			c0,5.2,9.1,10.3,24.9,13.9c16.3,3.8,38.4,5.9,62.3,5.9c23.1,0,45.4-2.3,62.6-6.5c18.6-4.5,25.2-9.8,25.2-13.3
			c0-7.3-17.5-14.5-44.5-18.3l0.3-2.5c29.2,4.1,46.6,11.8,46.6,20.7c0,7.9-17,13.2-27.1,15.7C143,120.4,120.5,122.8,97.2,122.8z"/>
	</g>
</g>
</svg>
