<?xml version="1.0" encoding="utf-8"?>
<!-- Generator: Adobe Illustrator 22.1.0, SVG Export Plug-In . SVG Version: 6.00 Build 0)  -->
<svg version="1.1" id="Layer_1" xmlns="http://www.w3.org/2000/svg" xmlns:xlink="http://www.w3.org/1999/xlink" x="0px" y="0px"
	 viewBox="0 0 196 164" style="enable-background:new 0 0 196 164;" xml:space="preserve">
<g>
	<g>
		<path style="fill:#9B3D19;" d="M99.4,149.9c-0.4,0-0.9-0.2-1.2-0.5c-0.7-0.7-0.7-1.8,0-2.5c0.1-0.1,13.9-14.2,13.2-26.7
			c-0.1-2.4-0.8-4.5-1.9-6.5c-3.8,3.3-8.4,5.5-13.1,5.6c-5.1,0.1-8.8-1.9-10-5.6c-1.2-3.6,0.5-7.8,3.9-10.1c4.7-3.2,11.4-2,17.8,3.2
			c0.6,0.5,1.2,1,1.7,1.6c2.3-2.8,3.9-6.1,4.5-9.6c0.5-3.1,0.3-8.1-4.2-12c-2.7,4-6.4,7.1-10.9,8.2c-7.9,2-11-1.2-12-2.7
			c-1.7-2.6-1.3-6.4,1-9.2c2.7-3.4,8.5-6.1,16.7-3.1c1.5,0.5,2.8,1.1,4.1,1.8c1.4-2.8,2.2-6,2.4-9.2c0.1-1.9-0.1-4.7-1.2-7.2
			c-2.3,2.4-6.2,4.6-12.5,5.5c-8.4,1.1-11.3-1.6-12.2-3.3c-1.2-2.2-0.7-5,1.4-7.5c3.3-3.9,10.1-6.5,18-3.7c1.9,0.7,3.5,1.6,4.9,2.8
			c2-7.1-3.4-17.4-9.6-23.6c-0.7-0.7-0.7-1.8,0-2.5c0.7-0.7,1.8-0.7,2.5,0c5.9,5.9,13.5,18.2,10.3,27.7c-0.2,0.5-0.3,0.9-0.6,1.4
			c1.8,2.8,2.7,6.5,2.5,10.6c-0.2,3.6-1.2,7.5-3,11c4.8,3.8,6.9,9.3,5.9,15.6c-0.7,4.4-2.8,8.5-5.6,11.9c1.8,2.6,2.7,5.6,2.9,8.9
			c0.7,14-13.6,28.7-14.2,29.4C100.3,149.7,99.8,149.9,99.4,149.9z M96.2,105.3c-1.5,0-2.8,0.4-4,1.2c-2.1,1.4-3.2,4-2.5,6.1
			c0.7,2.1,3.1,3.3,6.5,3.2c3.9-0.1,7.8-2,11-4.9c-0.5-0.5-1-0.9-1.5-1.4C102.3,106.7,99,105.3,96.2,105.3z M97.9,82.1
			c-3.4,0-5.9,1.4-7.2,3.1c-1.3,1.7-1.7,3.8-0.8,5.1c1.2,1.8,4.2,2.2,8.2,1.2c3.3-0.8,6.5-3.4,8.8-6.8c-1-0.6-2.2-1.1-3.5-1.6
			C101.4,82.4,99.6,82.1,97.9,82.1z M98.1,58.5c-3.9,0-7,1.6-8.8,3.6c-1.1,1.3-1.5,2.7-1,3.5c0.7,1.2,3.3,2.3,8.6,1.5
			c5.2-0.7,8.8-2.4,10.9-5c-1.1-1.1-2.5-2.1-4.4-2.8C101.6,58.8,99.8,58.5,98.1,58.5z"/>
	</g>
	<g>
		<circle style="fill:#FF791F;" cx="97.8" cy="29.8" r="9.8"/>
	</g>
</g>
</svg>
