<?xml version="1.0" encoding="utf-8"?>
<!-- Generator: Adobe Illustrator 22.1.0, SVG Export Plug-In . SVG Version: 6.00 Build 0)  -->
<svg version="1.1" id="Layer_1" xmlns="http://www.w3.org/2000/svg" xmlns:xlink="http://www.w3.org/1999/xlink" x="0px" y="0px"
	 viewBox="0 0 196 164" style="enable-background:new 0 0 196 164;" xml:space="preserve">
<g>
	<g>
		<path style="fill:#9B3D19;" d="M107.9,151.8c-2.2,0-4-1.8-4-4V26c0-2.2,1.8-4,4-4s4,1.8,4,4v121.8
			C112,150,110.2,151.8,107.9,151.8z"/>
	</g>
	<g>
		<path style="fill:#9B3D19;" d="M93.3,151.1c-1.9,0-3.4-1.5-3.4-3.4V56.1c0-1.9,1.5-3.4,3.4-3.4s3.4,1.5,3.4,3.4v91.7
			C96.7,149.6,95.1,151.1,93.3,151.1z"/>
	</g>
	<g>
		<circle style="fill:#FF791F;" cx="93.3" cy="58.8" r="7.6"/>
	</g>
	<g>
		<circle style="fill:#FF791F;" cx="107.9" cy="22.4" r="9.4"/>
	</g>
</g>
</svg>
