<?xml version="1.0" encoding="utf-8"?>
<!-- Generator: Adobe Illustrator 22.1.0, SVG Export Plug-In . SVG Version: 6.00 Build 0)  -->
<svg version="1.1" id="Layer_1" xmlns="http://www.w3.org/2000/svg" xmlns:xlink="http://www.w3.org/1999/xlink" x="0px" y="0px"
	 viewBox="0 0 196 164" style="enable-background:new 0 0 196 164;" xml:space="preserve">
<g>
	<g>
		<path style="fill:#9B3D19;" d="M98.6,154.6c-2.2,0-4-1.8-4-4L94,40.7c0-2.2,1.8-4,4-4c0,0,0,0,0,0c2.2,0,4,1.8,4,4l0.6,110
			C102.5,152.8,100.8,154.6,98.6,154.6C98.6,154.6,98.6,154.6,98.6,154.6z"/>
	</g>
	<g>
		<path style="fill:#FF791F;" d="M109,44.6c-1,0-2-0.4-2.8-1.2c-1.6-1.6-1.6-4.1,0-5.6c2.2-2.2,3.4-5.1,3.4-8.2
			c0-6.4-5.2-11.6-11.6-11.6s-11.6,5.2-11.6,11.6c0,3.1,1.2,6,3.4,8.2c1.6,1.6,1.6,4.1,0,5.6c-1.6,1.6-4.1,1.6-5.6,0
			c-3.7-3.7-5.7-8.6-5.7-13.9C78.4,18.8,87.2,10,98,10s19.6,8.8,19.6,19.6c0,5.2-2,10.2-5.7,13.9C111.1,44.2,110.1,44.6,109,44.6z"
			/>
	</g>
</g>
</svg>
