<?xml version="1.0" encoding="utf-8"?>
<!-- Generator: Adobe Illustrator 22.1.0, SVG Export Plug-In . SVG Version: 6.00 Build 0)  -->
<svg version="1.1" id="Layer_1" xmlns="http://www.w3.org/2000/svg" xmlns:xlink="http://www.w3.org/1999/xlink" x="0px" y="0px"
	 viewBox="0 0 196 164" style="enable-background:new 0 0 196 164;" xml:space="preserve">
<g>
	<g>
		<path style="fill:#9B3D19;" d="M100,147.8c-0.1,0-0.2,0-0.4,0c-1.4-0.2-2.4-1.5-2.2-3l6.3-45.7L92.6,82.5
			c-0.6-0.9-0.6-2.2,0.1-3.1L103.2,66L92.7,51.7c-0.5-0.7-0.6-1.6-0.4-2.4l8.7-24.4c0.5-1.4,2-2.1,3.3-1.6c1.4,0.5,2.1,2,1.6,3.3
			l-8.3,23l10.8,14.7c0.7,0.9,0.7,2.2,0,3.2L98,81.2l10.6,16c0.4,0.5,0.5,1.2,0.4,1.8l-6.4,46.7C102.4,146.9,101.3,147.8,100,147.8z
			"/>
	</g>
	<g>
		<circle style="fill:#FF791F;" cx="104" cy="23.3" r="6.3"/>
	</g>
</g>
</svg>
