<?xml version="1.0" encoding="utf-8"?>
<!-- Generator: Adobe Illustrator 22.1.0, SVG Export Plug-In . SVG Version: 6.00 Build 0)  -->
<svg version="1.1" id="Layer_1" xmlns="http://www.w3.org/2000/svg" xmlns:xlink="http://www.w3.org/1999/xlink" x="0px" y="0px"
	 viewBox="0 0 196 164" style="enable-background:new 0 0 196 164;" xml:space="preserve">
<g>
	<g>
		<path style="fill:#9B3D19;" d="M98.5,150.5c-1.9,0-3.4-1.5-3.4-3.4v-102c0-1.9,1.5-3.4,3.4-3.4s3.4,1.5,3.4,3.4v102
			C101.9,149,100.4,150.5,98.5,150.5z"/>
	</g>
	<g>
		<path style="fill:#FF791F;" d="M98.3,48.5c-0.7,0-1.3-0.2-1.9-0.6l-12.8-8.7c-0.8-0.6-1.4-1.4-1.5-2.4c-0.1-1,0.2-2,0.9-2.7
			l12.8-14c0.7-0.7,1.6-1.1,2.6-1.1c1,0,1.9,0.4,2.5,1.2l12.1,14c0.6,0.7,0.9,1.7,0.8,2.6c-0.1,1-0.6,1.8-1.4,2.4l-12.1,8.7
			C99.7,48.3,99,48.5,98.3,48.5z M90.7,35.8l7.6,5.1l7.1-5.1l-7.2-8.2L90.7,35.8z"/>
	</g>
</g>
</svg>
