<?xml version="1.0" encoding="utf-8"?>
<!-- Generator: Adobe Illustrator 22.1.0, SVG Export Plug-In . SVG Version: 6.00 Build 0)  -->
<svg version="1.1" id="Layer_1" xmlns="http://www.w3.org/2000/svg" xmlns:xlink="http://www.w3.org/1999/xlink" x="0px" y="0px"
	 viewBox="0 0 196 164" style="enable-background:new 0 0 196 164;" xml:space="preserve">
<g>
	<g>
		<path style="fill:#9B3D19;" d="M98.2,150.4c-2,0-3.7-1.7-3.7-3.7V36.6c0-2,1.7-3.7,3.7-3.7c2,0,3.7,1.7,3.7,3.7v110.1
			C101.9,148.8,100.2,150.4,98.2,150.4z"/>
	</g>
	<g>
		<ellipse style="fill:#FF791F;" cx="98.2" cy="47.7" rx="11.6" ry="3.9"/>
	</g>
	<g>
		<path style="fill:#FF791F;" d="M112.2,36.6H83.4c-1.5,0-2.8-0.9-3.4-2.2c-0.6-1.3-0.3-2.9,0.6-4l14.8-16.2
			c0.7-0.8,1.7-1.2,2.8-1.2c1.1,0,2.1,0.5,2.7,1.3l14,16.2c0.9,1.1,1.2,2.6,0.6,3.9C114.9,35.8,113.6,36.6,112.2,36.6z M91.7,29.2
			h12.4l-6-7L91.7,29.2z"/>
	</g>
</g>
</svg>
