<?xml version="1.0" encoding="utf-8"?>
<!-- Generator: Adobe Illustrator 22.1.0, SVG Export Plug-In . SVG Version: 6.00 Build 0)  -->
<svg version="1.1" id="Layer_1" xmlns="http://www.w3.org/2000/svg" xmlns:xlink="http://www.w3.org/1999/xlink" x="0px" y="0px"
	 viewBox="0 0 196 164" style="enable-background:new 0 0 196 164;" xml:space="preserve">
<g>
	<g>
		<path style="fill:#9B3D19;" d="M98.7,147.6c-0.9,0-1.8-0.4-2.4-1.2c-1-1.3-0.8-3.3,0.6-4.3c0.2-0.1,7.7-6,11.9-13.6
			c2.2-3.9,2.3-11.8-3.1-15.9c-7.4-5.5-14.3-11.7-14.3-19c0-4.7,2.8-8.9,8.5-12.9c6.7-4.8,10.7-10.6,10.7-15.7
			c0-3.9-2.2-7.5-6.6-10.8c-8.9-6.5-10.8-12.8-10.8-16.9c-0.1-4.6,2.2-8.9,6.4-12.1c1.3-1,3.3-0.8,4.3,0.6c1,1.3,0.8,3.3-0.6,4.3
			c-1.9,1.4-4.1,3.8-4,7.2c0,3.8,3,8,8.3,12c7.6,5.6,9.2,11.7,9.1,15.7c-0.1,7.1-4.9,14.7-13.3,20.7c-3.9,2.8-5.9,5.5-5.9,8
			c0,4.6,6.3,9.9,11.8,14c7.9,5.9,8.6,16.9,4.8,23.8c-4.8,8.7-13.2,15.2-13.6,15.5C100.1,147.4,99.4,147.6,98.7,147.6z"/>
	</g>
	<g>
		<circle style="fill:#FF791F;" cx="104.1" cy="23.5" r="6.4"/>
	</g>
	<g>
		<path style="fill:#FF791F;" d="M104.1,33c-5.2,0-9.5-4.3-9.5-9.5s4.3-9.5,9.5-9.5c5.2,0,9.5,4.3,9.5,9.5S109.3,33,104.1,33z
			 M104.1,15.8c-4.3,0-7.8,3.5-7.8,7.8s3.5,7.8,7.8,7.8c4.3,0,7.8-3.5,7.8-7.8S108.4,15.8,104.1,15.8z"/>
	</g>
</g>
</svg>
