<?xml version="1.0" encoding="utf-8"?>
<!-- Generator: Adobe Illustrator 22.1.0, SVG Export Plug-In . SVG Version: 6.00 Build 0)  -->
<svg version="1.1" id="Layer_1" xmlns="http://www.w3.org/2000/svg" xmlns:xlink="http://www.w3.org/1999/xlink" x="0px" y="0px"
	 viewBox="0 0 196 164" style="enable-background:new 0 0 196 164;" xml:space="preserve">
<g>
	<g>
		<path style="fill:#9B3D19;" d="M108.9,146.4H87.6c-0.8,0-1.4-0.6-1.4-1.4s0.6-1.4,1.4-1.4h14.6L87,136.7c-0.6-0.3-0.9-0.9-0.8-1.6
			c0.1-0.7,0.7-1.1,1.4-1.1l14.7-0.4L87,127.1c-0.6-0.3-1-0.9-0.9-1.6c0.1-0.7,0.7-1.1,1.3-1.2l14.7-0.8l-15.2-6
			c-0.6-0.2-1-0.9-0.9-1.5c0.1-0.7,0.6-1.2,1.3-1.2l14.8-1.2L87.1,108c-0.6-0.2-1-0.9-0.9-1.5c0.1-0.7,0.6-1.2,1.3-1.2l14.9-1.6
			l-15.2-5.2c-0.6-0.2-1-0.8-1-1.5c0.1-0.7,0.6-1.2,1.2-1.3l14.9-2l-15.2-4.8c-0.6-0.2-1-0.8-1-1.5c0-0.7,0.5-1.2,1.2-1.3l15-2.4
			l-15.1-4.4c-0.6-0.2-1.1-0.8-1-1.4c0-0.7,0.5-1.2,1.2-1.3l15-2.8l-15.1-4c-0.6-0.2-1.1-0.8-1.1-1.4c0-0.7,0.5-1.2,1.1-1.4
			l15.1-3.2l-15.1-3.6c-0.6-0.2-1.1-0.7-1.1-1.4c0-0.7,0.5-1.2,1.1-1.4l15.1-3.6l-15.1-3.2c-0.6-0.1-1.1-0.7-1.1-1.4
			c0-0.7,0.4-1.3,1.1-1.4l15.1-4l-15-2.8c-0.7-0.1-1.1-0.7-1.2-1.3c0-0.7,0.4-1.3,1-1.4l21.3-6.2c0.8-0.2,1.6,0.2,1.8,1
			c0.2,0.8-0.2,1.6-1,1.8l-15.5,4.5l15.4,2.8c0.7,0.1,1.1,0.7,1.2,1.4c0,0.7-0.4,1.3-1.1,1.4L93.8,49l15.4,3.3
			c0.7,0.1,1.1,0.7,1.1,1.4c0,0.7-0.4,1.3-1.1,1.4l-15.4,3.7l15.4,3.7c0.7,0.2,1.1,0.7,1.1,1.4c0,0.7-0.5,1.2-1.1,1.4l-15.4,3.3
			l15.5,4.1c0.6,0.2,1.1,0.8,1.1,1.4c0,0.7-0.5,1.2-1.2,1.4l-15.4,2.8l15.5,4.5c0.6,0.2,1.1,0.8,1,1.5c0,0.7-0.5,1.2-1.2,1.3
			l-15.3,2.4l15.5,4.9c0.6,0.2,1.1,0.8,1,1.5c-0.1,0.7-0.6,1.2-1.2,1.3l-15.3,2l15.5,5.3c0.6,0.2,1,0.8,1,1.5
			c-0.1,0.7-0.6,1.2-1.3,1.3l-15.2,1.6l15.6,5.8c0.6,0.2,1,0.9,0.9,1.5c-0.1,0.7-0.6,1.2-1.3,1.2l-15.1,1.2l15.6,6.2
			c0.6,0.2,1,0.9,0.9,1.6c-0.1,0.7-0.7,1.2-1.3,1.2l-15.1,0.8l15.6,6.6c0.6,0.3,1,0.9,0.8,1.6c-0.1,0.7-0.7,1.1-1.4,1.2l-15,0.4
			l15.6,7c0.6,0.3,1,0.9,0.8,1.6C110.1,145.9,109.5,146.4,108.9,146.4z"/>
	</g>
	<g>
		<path style="fill:#FF791F;" d="M110.4,33.4H86c-3.2,0-5.7-2.6-5.7-5.7v-4.9c0-3.2,2.6-5.7,5.7-5.7h24.4c3.2,0,5.7,2.6,5.7,5.7v4.9
			C116.1,30.8,113.6,33.4,110.4,33.4z"/>
	</g>
</g>
</svg>
