<?xml version="1.0" encoding="utf-8"?>
<!-- Generator: Adobe Illustrator 22.1.0, SVG Export Plug-In . SVG Version: 6.00 Build 0)  -->
<svg version="1.1" id="Layer_1" xmlns="http://www.w3.org/2000/svg" xmlns:xlink="http://www.w3.org/1999/xlink" x="0px" y="0px"
	 viewBox="0 0 512 512" style="enable-background:new 0 0 512 512;" xml:space="preserve">
<g>
	<g>
		<path d="M282.3,107.5h-5V35.1c0-3.7-1.4-7-4-9.9c-2.6-2.6-6.1-4.1-9.8-4.1c-7.7,0-14,6.3-14,14v51.5h-5V35.1c0-10.5,8.5-19,19-19
			c5,0,9.7,2,13.4,5.6c3.6,3.8,5.4,8.4,5.4,13.4V107.5z"/>
	</g>
	<g>
		<path d="M254.6,118.7h-5c0-1.8-0.3-44.9-26.7-67.4c-23.2-20-59.9-17.4-69.2-16.4c0.3,6,1.7,23.4,8.7,40.2l-4.6,1.9
			c-9.1-21.6-9.2-43.5-9.2-44.4v-2.1l2.1-0.3c1.9-0.3,47.1-7.2,75.4,17.3C254.3,71.5,254.6,116.8,254.6,118.7z"/>
	</g>
</g>
</svg>
