<?xml version="1.0" encoding="utf-8"?>
<!-- Generator: Adobe Illustrator 22.1.0, SVG Export Plug-In . SVG Version: 6.00 Build 0)  -->
<svg version="1.1" id="Layer_1" xmlns="http://www.w3.org/2000/svg" xmlns:xlink="http://www.w3.org/1999/xlink" x="0px" y="0px"
	 viewBox="0 0 512 512" style="enable-background:new 0 0 512 512;" xml:space="preserve">
<g>
	<g>
		<path d="M238.6,82.8c-13,0-31.6-2.4-45.7-13.9c-23.6-19.3-24.2-56.1-24.2-57.6c0-1.2,0.9-2.3,2.1-2.5c1.5-0.3,37.7-6.6,61.3,12.7
			s24.2,56.1,24.2,57.6c0,1.2-0.9,2.3-2.1,2.5C253.6,81.7,247.4,82.8,238.6,82.8z M173.8,13.3c0.5,8,3.6,36.4,22.3,51.6
			c18.7,15.3,47.1,13,55.1,12c-0.5-8-3.6-36.4-22.3-51.6C210.2,10,181.8,12.3,173.8,13.3z"/>
	</g>
	<g>
		<g>
			<path d="M270.3,78.4L270.3,78.4c-1.4,0-2.5-1.1-2.5-2.5l0.1-28.5c0.1-3.5-2.9-6.4-6.5-6.5c-1.7,0-3.3,0.6-4.5,1.8
				c-1.2,1.2-2,2.9-2,4.6l-0.1,28.3c0,1.4-1.1,2.5-2.5,2.5l0,0c-1.4,0-2.5-1.1-2.5-2.5l0.1-28.3c0-3,1.3-6,3.5-8.1
				c2.2-2.2,5.1-3.3,8.1-3.2c6.4,0.1,11.5,5.3,11.3,11.6l-0.1,28.5C272.8,77.3,271.7,78.4,270.3,78.4z"/>
		</g>
	</g>
	<g>
		<path d="M262.3,414.7c-40,0-72.6-32.6-72.6-72.6s32.6-72.6,72.6-72.6s72.6,32.6,72.6,72.6S302.3,414.7,262.3,414.7z M262.3,274.5
			c-37.3,0-67.6,30.3-67.6,67.6s30.3,67.6,67.6,67.6s67.6-30.3,67.6-67.6S299.6,274.5,262.3,274.5z"/>
	</g>
</g>
</svg>
