<?xml version="1.0" encoding="utf-8"?>
<!-- Generator: Adobe Illustrator 22.1.0, SVG Export Plug-In . SVG Version: 6.00 Build 0)  -->
<svg version="1.1" id="Layer_1" xmlns="http://www.w3.org/2000/svg" xmlns:xlink="http://www.w3.org/1999/xlink" x="0px" y="0px"
	 viewBox="0 0 512 512" style="enable-background:new 0 0 512 512;" xml:space="preserve">
<g>
	<circle cx="280" cy="93" r="3.5"/>
	<circle cx="315.1" cy="113.3" r="3.5"/>
	<circle cx="338.5" cy="148.8" r="3.5"/>
	<circle cx="361.4" cy="196.8" r="3.5"/>
	<circle cx="382" cy="249.8" r="3.5"/>
	<circle cx="398.6" cy="300.4" r="3.5"/>
	<circle cx="413" cy="341.7" r="3.5"/>
	<circle cx="406.2" cy="389.5" r="3.5"/>
	<circle cx="387.2" cy="425.7" r="3.5"/>
	<circle cx="355.2" cy="462" r="3.5"/>
	<circle cx="309.3" cy="487" r="3.5"/>
	<circle cx="250.5" cy="490.6" r="3.5"/>
	<circle cx="200.3" cy="477.2" r="3.5"/>
	<circle cx="163.4" cy="453.1" r="3.5"/>
	<circle cx="137.3" cy="421.9" r="3.5"/>
	<circle cx="119.7" cy="387.4" r="3.5"/>
	<circle cx="111.6" cy="353.9" r="3.5"/>
	<circle cx="116.7" cy="312.1" r="3.5"/>
	<circle cx="130.8" cy="264.1" r="3.5"/>
	<circle cx="149.9" cy="215.4" r="3.5"/>
	<circle cx="169.9" cy="171.2" r="3.5"/>
	<circle cx="187" cy="137" r="3.5"/>
	<circle cx="212.6" cy="110.2" r="3.5"/>
	<circle cx="247" cy="93" r="3.5"/>
</g>
</svg>
