<?xml version="1.0" encoding="utf-8"?>
<!-- Generator: Adobe Illustrator 22.1.0, SVG Export Plug-In . SVG Version: 6.00 Build 0)  -->
<svg version="1.1" id="Layer_1" xmlns="http://www.w3.org/2000/svg" xmlns:xlink="http://www.w3.org/1999/xlink" x="0px" y="0px"
	 viewBox="0 0 512 512" style="enable-background:new 0 0 512 512;" xml:space="preserve">
<g>
	<g>
		<path d="M56.5,374.2c-0.3,0-0.6,0-0.8-0.1l-40.6-14.2c-9.6-3.4-14.5-13.5-11.1-23.1l3.7-10.7c3.4-9.6,13.5-14.5,23.1-11.1
			l40.6,14.2c1.3,0.5,2,1.9,1.5,3.2c-0.5,1.3-1.9,2-3.2,1.5l-40.6-14.2c-6.9-2.4-14.3,1.1-16.7,8.1l-3.7,10.7
			c-2.4,6.9,1.1,14.3,8.1,16.7l40.6,14.2c1.3,0.5,2,1.9,1.5,3.2C58.5,373.6,57.5,374.2,56.5,374.2z"/>
	</g>
	<g>
		<path d="M401.2,120.8c-1.4,0-2.5-1.1-2.5-2.5V79.4c0-13.7,11.2-24.9,24.9-24.9H440c13.7,0,24.9,11.2,24.9,24.9v38.8
			c0,1.4-1.1,2.5-2.5,2.5s-2.5-1.1-2.5-2.5V79.4c0-11.2-8.7-19.9-19.9-19.9h-16.4c-11.2,0-19.9,8.7-19.9,19.9v38.9
			C403.7,119.7,402.6,120.8,401.2,120.8z"/>
	</g>
</g>
</svg>
