<?xml version="1.0" encoding="utf-8"?>
<!-- Generator: Adobe Illustrator 22.1.0, SVG Export Plug-In . SVG Version: 6.00 Build 0)  -->
<svg version="1.1" id="Layer_1" xmlns="http://www.w3.org/2000/svg" xmlns:xlink="http://www.w3.org/1999/xlink" x="0px" y="0px"
	 viewBox="0 0 512 512" style="enable-background:new 0 0 512 512;" xml:space="preserve">
<g>
	<circle cx="400" cy="130" r="3.5"/>
	<circle cx="388" cy="168.9" r="3.5"/>
	<circle cx="371.4" cy="211.1" r="3.5"/>
	<circle cx="344" cy="256.4" r="3.5"/>
	<circle cx="307.1" cy="294.7" r="3.5"/>
	<circle cx="259.9" cy="323.2" r="3.5"/>
	<circle cx="205.9" cy="338.7" r="3.5"/>
	<circle cx="141.4" cy="345.3" r="3.5"/>
	<circle cx="83.6" cy="342" r="3.5"/>
	<circle cx="64.1" cy="376.7" r="3.5"/>
	<circle cx="117" cy="404.6" r="3.5"/>
	<circle cx="172.9" cy="424.2" r="3.5"/>
	<circle cx="223.1" cy="433.3" r="3.5"/>
	<circle cx="271.2" cy="437.7" r="3.5"/>
	<circle cx="337.3" cy="422.8" r="3.5"/>
	<circle cx="379.4" cy="401.4" r="3.5"/>
	<circle cx="420.3" cy="368" r="3.5"/>
	<circle cx="445.1" cy="326.3" r="3.5"/>
	<circle cx="462.9" cy="273.8" r="3.5"/>
	<circle cx="467.5" cy="223.3" r="3.5"/>
	<circle cx="471.1" cy="171.6" r="3.5"/>
	<circle cx="462.9" cy="134" r="3.5"/>
	<circle cx="432" cy="134" r="3.5"/>
</g>
</svg>
