<?xml version="1.0" encoding="utf-8"?>
<!-- Generator: Adobe Illustrator 22.1.0, SVG Export Plug-In . SVG Version: 6.00 Build 0)  -->
<svg version="1.1" id="Layer_1" xmlns="http://www.w3.org/2000/svg" xmlns:xlink="http://www.w3.org/1999/xlink" x="0px" y="0px"
	 viewBox="0 0 512 512" style="enable-background:new 0 0 512 512;" xml:space="preserve">
<g>
	<g>
		<path d="M236,87.4c-37.3,0-67.3-34.1-68.6-35.6c-0.8-0.9-0.8-2.3,0-3.2c1.2-1.5,30.8-36.5,68.4-36.9c0.2,0,0.4,0,0.7,0
			c37.3,0,67.3,34.1,68.6,35.6c0.8,0.9,0.8,2.3,0,3.2c-1.2,1.5-30.8,36.5-68.4,36.9C236.4,87.4,236.2,87.4,236,87.4z M172.7,50.2
			c6.4,6.7,32.7,32.2,63.3,32.2c0.2,0,0.4,0,0.6,0c30.8-0.3,56.9-26.6,63.2-33.5c-6.4-6.7-32.7-32.2-63.3-32.2c-0.2,0-0.4,0-0.6,0
			C205,17,179,43.3,172.7,50.2z"/>
	</g>
	<g>
		<path d="M328.6,363.9c-0.3,0-0.5,0-0.8-0.1c-1.3-0.4-2-1.8-1.6-3.2c14.1-42.8,15.1-110.9,2.6-197.1c-7.3-50.7-17.3-94-21.4-111.1
			c-46.8,122.4-135.1,229.6-136,230.7c-0.9,1.1-2.5,1.2-3.5,0.3c-1.1-0.9-1.2-2.5-0.3-3.5c0.9-1.1,92.3-112.1,138-236.8
			c0.4-1,1.4-1.7,2.5-1.6c1.1,0.1,2,0.8,2.3,1.9c0.1,0.5,14,53.9,23.5,119.4c8.7,60.6,15.3,144.4-2.8,199.4
			C330.6,363.2,329.6,363.9,328.6,363.9z"/>
	</g>
	<g>
		<path d="M324,487.5c-35.6,0-64.5-28.9-64.5-64.5s28.9-64.5,64.5-64.5s64.5,28.9,64.5,64.5S359.6,487.5,324,487.5z M324,363.5
			c-32.8,0-59.5,26.7-59.5,59.5s26.7,59.5,59.5,59.5s59.5-26.7,59.5-59.5S356.8,363.5,324,363.5z"/>
	</g>
</g>
</svg>
