<?xml version="1.0" encoding="utf-8"?>
<!-- Generator: Adobe Illustrator 22.1.0, SVG Export Plug-In . SVG Version: 6.00 Build 0)  -->
<svg version="1.1" id="Layer_1" xmlns="http://www.w3.org/2000/svg" xmlns:xlink="http://www.w3.org/1999/xlink" x="0px" y="0px"
	 viewBox="0 0 512 512" style="enable-background:new 0 0 512 512;" xml:space="preserve">
<g>
	<g>
		<path d="M124.1,55.2c-0.3,0-0.7-0.1-1-0.2c-1.3-0.6-1.8-2-1.3-3.3c10.7-24.2,56.8-11.4,66.4-8.4c5.5-6.6,29.8-33.8,61.3-33.8
			c1.4,0,2.5,1.1,2.5,2.5s-1.1,2.5-2.5,2.5c-32.6,0-58.2,32.9-58.4,33.2c-0.6,0.8-1.8,1.2-2.8,0.8c-0.5-0.2-52.1-17.2-61.9,5.1
			C126,54.6,125.1,55.2,124.1,55.2z"/>
	</g>
	<g>
		<path d="M175.2,110.7c-0.9,0-1.7-0.4-2.2-1.2c-0.5-0.9-12.3-21-6.7-40.8c3-10.4,10.2-18.7,21.6-24.7c3.7-2,5.6-4.1,5.5-6.3
			c-0.4-7.7-20.5-18.4-33.1-23.3c-1.3-0.5-1.9-2-1.4-3.2c0.5-1.3,2-1.9,3.2-1.4c3.6,1.4,35.6,14.3,36.3,27.7c0.2,4.3-2.5,8-8.1,11
			c-10.1,5.3-16.5,12.5-19.1,21.6c-5,17.7,6.1,36.7,6.2,36.9c0.7,1.2,0.3,2.7-0.9,3.4C176.1,110.6,175.6,110.7,175.2,110.7z"/>
	</g>
	<g>
		<path d="M189.1,48.6c-0.7,0-1.4-0.3-1.9-0.8c-0.9-1-0.8-2.6,0.2-3.5c17.7-15.7,82.4-4.1,85.1-3.6c1.4,0.2,2.3,1.6,2,2.9
			c-0.2,1.4-1.6,2.3-2.9,2c-18-3.3-67.7-9.3-80.9,2.4C190.3,48.4,189.7,48.6,189.1,48.6z"/>
	</g>
</g>
</svg>
