<?xml version="1.0" encoding="utf-8"?>
<!-- Generator: Adobe Illustrator 22.1.0, SVG Export Plug-In . SVG Version: 6.00 Build 0)  -->
<svg version="1.1" id="Layer_1" xmlns="http://www.w3.org/2000/svg" xmlns:xlink="http://www.w3.org/1999/xlink" x="0px" y="0px"
	 viewBox="0 0 512 512" style="enable-background:new 0 0 512 512;" xml:space="preserve">
<g>
	<g>
		<path d="M159.8,410.6c-2.4,0-4.7-0.1-7.1-0.2C78.6,406.8,18.7,346,16.5,272c-1.5-49.6,22.4-95.8,63.8-123.5
			c19.8-13,35.5-30.6,45.4-50.7c13.9-28.3,22-53,26.4-68.8c0.9-3.1,3.7-5.2,6.9-5.2c0,0,0,0,0,0c3.3,0,6.1,2.2,7,5.4
			c3.8,14.7,9.6,32.8,16.8,52.5c9.6,26.6,27.8,49.3,51.5,63.8c23.3,14.2,41.9,34.5,53.6,58.9c0.6,1.2,0.1,2.7-1.2,3.3
			c-1.2,0.6-2.7,0.1-3.3-1.2c-11.4-23.5-29.3-43.2-51.7-56.9c-24.6-15.1-43.6-38.7-53.6-66.4c-7.3-19.8-13.1-38.2-17-52.9
			c-0.4-1.5-1.8-1.7-2.2-1.7c0,0,0,0,0,0c-0.4,0-1.7,0.1-2.1,1.5c-4.4,15.9-12.7,41-26.8,69.6c-10.4,21-26.7,39.2-47.2,52.7
			c-40,26.7-63,71.3-61.6,119.1c2.2,71.5,59.9,130.1,131.4,133.6c20.6,1,40.4-2.4,58.8-10c1.3-0.5,2.7,0.1,3.3,1.4
			c0.5,1.3-0.1,2.7-1.4,3.3C196.7,407,178.6,410.6,159.8,410.6z"/>
	</g>
	<g>
		<path d="M341.1,458.1c-63.4,0-114.9-51.5-114.9-114.9c0-63.4,51.5-114.9,114.9-114.9c63.4,0,114.9,51.5,114.9,114.9
			C456,406.6,404.5,458.1,341.1,458.1z M341.1,233.3c-60.6,0-109.9,49.3-109.9,109.9c0,60.6,49.3,109.9,109.9,109.9
			c60.6,0,109.9-49.3,109.9-109.9C451,282.6,401.7,233.3,341.1,233.3z"/>
	</g>
	<g>
		<g>
			<path d="M298.7,294.7c-0.6,0-1.2-0.2-1.7-0.7l-9.9-9.5c-1-1-1-2.5-0.1-3.5s2.5-1,3.5-0.1l9.9,9.5c1,1,1,2.5,0.1,3.5
				C300,294.4,299.4,294.7,298.7,294.7z"/>
		</g>
		<g>
			<path d="M336.6,279.6c-1.2,0-2.3-0.9-2.5-2.2l-1.8-13.6c-0.2-1.4,0.8-2.6,2.2-2.8c1.4-0.2,2.6,0.8,2.8,2.2l1.8,13.6
				c0.2,1.4-0.8,2.6-2.2,2.8C336.8,279.6,336.7,279.6,336.6,279.6z"/>
		</g>
		<g>
			<path d="M369.8,286.1c-0.5,0-0.9-0.1-1.4-0.4c-1.2-0.7-1.5-2.3-0.8-3.5l7.4-11.5c0.7-1.2,2.3-1.5,3.5-0.8
				c1.2,0.7,1.5,2.3,0.8,3.5l-7.4,11.5C371.4,285.7,370.6,286.1,369.8,286.1z"/>
		</g>
		<g>
			<path d="M401,317.2c-1,0-2-0.7-2.4-1.7c-0.4-1.3,0.3-2.7,1.6-3.2l12.9-4.3c1.3-0.4,2.7,0.3,3.2,1.6c0.4,1.3-0.3,2.7-1.6,3.2
				l-12.9,4.3C401.5,317.2,401.3,317.2,401,317.2z"/>
		</g>
		<g>
			<path d="M418.9,363.7c-0.3,0-0.5,0-0.8-0.1l-13-4.3c-1.3-0.4-2-1.8-1.6-3.2c0.4-1.3,1.8-2,3.2-1.6l13,4.3c1.3,0.4,2,1.8,1.6,3.2
				C420.9,363,419.9,363.7,418.9,363.7z"/>
		</g>
		<g>
			<path d="M390.6,408.4c-0.8,0-1.6-0.4-2.1-1.1l-7.6-11.4c-0.8-1.1-0.5-2.7,0.7-3.5c1.1-0.8,2.7-0.5,3.5,0.7l7.6,11.4
				c0.8,1.1,0.5,2.7-0.7,3.5C391.6,408.3,391.1,408.4,390.6,408.4z"/>
		</g>
		<g>
			<path d="M345,425.5c0,0-0.1,0-0.1,0c-1.4-0.1-2.4-1.2-2.4-2.6l0.6-13.6c0.1-1.4,1.2-2.4,2.6-2.4c1.4,0.1,2.4,1.2,2.4,2.6
				l-0.6,13.6C347.4,424.5,346.3,425.5,345,425.5z"/>
		</g>
		<g>
			<path d="M294.2,410.4c-0.6,0-1.2-0.2-1.7-0.6c-1-0.9-1.1-2.5-0.2-3.5l9.1-10.2c0.9-1,2.5-1.1,3.5-0.2c1,0.9,1.1,2.5,0.2,3.5
				l-9.1,10.2C295.6,410.1,294.9,410.4,294.2,410.4z"/>
		</g>
		<g>
			<path d="M264.6,368.9c-1.2,0-2.2-0.8-2.4-2c-0.3-1.4,0.6-2.7,1.9-3l13.4-2.8c1.4-0.3,2.7,0.6,3,1.9c0.3,1.4-0.6,2.7-1.9,3
				l-13.4,2.8C264.9,368.9,264.8,368.9,264.6,368.9z"/>
		</g>
		<g>
			<path d="M277.6,319.6c-0.1,0-0.1,0-0.2,0l-13.9-1.1c-1.4-0.1-2.4-1.3-2.3-2.7c0.1-1.4,1.3-2.4,2.7-2.3l13.9,1.1
				c1.4,0.1,2.4,1.3,2.3,2.7C280,318.6,278.9,319.6,277.6,319.6z"/>
		</g>
	</g>
</g>
</svg>
