<?xml version="1.0" encoding="utf-8"?>
<!-- Generator: Adobe Illustrator 22.1.0, SVG Export Plug-In . SVG Version: 6.00 Build 0)  -->
<svg version="1.1" id="Layer_1" xmlns="http://www.w3.org/2000/svg" xmlns:xlink="http://www.w3.org/1999/xlink" x="0px" y="0px"
	 viewBox="0 0 512 512" style="enable-background:new 0 0 512 512;" xml:space="preserve">
<g>
	<circle cx="337" cy="121" r="3.5"/>
	<circle cx="355.1" cy="157.3" r="3.5"/>
	<circle cx="366.9" cy="185.8" r="3.5"/>
	<circle cx="390.8" cy="209.6" r="3.5"/>
	<circle cx="428.6" cy="234" r="3.5"/>
	<circle cx="460.5" cy="270" r="3.5"/>
	<circle cx="476.6" cy="313.5" r="3.5"/>
	<circle cx="477.1" cy="364.7" r="3.5"/>
	<circle cx="464" cy="407.8" r="3.5"/>
	<circle cx="432.5" cy="455.5" r="3.5"/>
	<circle cx="392.6" cy="478.4" r="3.5"/>
	<circle cx="331.8" cy="487.4" r="3.5"/>
	<circle cx="274.5" cy="471.2" r="3.5"/>
	<circle cx="228.8" cy="433.7" r="3.5"/>
	<circle cx="207.9" cy="387.1" r="3.5"/>
	<circle cx="203.1" cy="343.3" r="3.5"/>
	<circle cx="208.1" cy="291.8" r="3.5"/>
	<circle cx="238.2" cy="248.6" r="3.5"/>
	<circle cx="270.9" cy="217.4" r="3.5"/>
	<circle cx="303.1" cy="193.1" r="3.5"/>
	<circle cx="321" cy="157" r="3.5"/>
</g>
</svg>
