<?xml version="1.0" encoding="utf-8"?>
<!-- Generator: Adobe Illustrator 22.1.0, SVG Export Plug-In . SVG Version: 6.00 Build 0)  -->
<svg version="1.1" id="Layer_1" xmlns="http://www.w3.org/2000/svg" xmlns:xlink="http://www.w3.org/1999/xlink" x="0px" y="0px"
	 viewBox="0 0 512 512" style="enable-background:new 0 0 512 512;" xml:space="preserve">
<g>
	<g>
		<g>
			<path d="M190.8,93.3c-1.1,0-2-0.7-2.4-1.7l-14.7-46.2c-1.3-3.9-0.9-8.1,1-11.9c1.9-3.7,5.1-6.5,9-7.8c3.9-1.3,8.1-0.9,11.9,1
				c3.7,1.9,6.5,5.1,7.8,9L219.3,86c0.4,1.3-0.3,2.7-1.6,3.1c-1.3,0.4-2.7-0.3-3.1-1.6l-15.9-50.3c-1.8-5.4-7.9-8.5-13.3-6.8
				c-2.6,0.9-4.8,2.7-6.1,5.3c-1.3,2.5-1.5,5.4-0.7,8.1L193.2,90c0.4,1.3-0.3,2.7-1.6,3.1C191.3,93.3,191.1,93.3,190.8,93.3z"/>
		</g>
	</g>
	<g>
		<path d="M96.8,180c-6.1,0-9.9-0.4-10.1-0.5c-1.2-0.1-2.1-1.1-2.2-2.3c-0.1-2.2-3.1-55.4,28.3-85.6C134.4,71,166.2,67,183.2,66.4
			c1.4-0.1,2.5,1,2.6,2.4c0,1.4-1,2.5-2.4,2.6c-16.3,0.5-46.7,4.4-67.2,23.9c-26.3,25.3-27,69.3-26.8,79.5c2.2,0.1,5.9,0.3,10.6,0.2
			c1.4,0,2.5,1.1,2.6,2.4c0,1.4-1.1,2.5-2.4,2.6C99,180,97.9,180,96.8,180z"/>
	</g>
</g>
</svg>
