<?xml version="1.0" encoding="utf-8"?>
<!-- Generator: Adobe Illustrator 22.1.0, SVG Export Plug-In . SVG Version: 6.00 Build 0)  -->
<svg version="1.1" id="Layer_1" xmlns="http://www.w3.org/2000/svg" xmlns:xlink="http://www.w3.org/1999/xlink" x="0px" y="0px"
	 viewBox="0 0 512 512" style="enable-background:new 0 0 512 512;" xml:space="preserve">
<g>
	<g>
		<path d="M270.3,115.8C270.3,115.8,270.3,115.8,270.3,115.8c-1.4,0-2.5-1.2-2.5-2.5l1.3-67.4c0-4.6-1.6-8.7-4.6-12.1
			c-3.1-3.3-7.4-5.2-11.8-5.2c-4.6-0.1-8.9,1.5-12.2,4.7c-3.3,3.2-5.2,7.4-5.3,12l-1.1,61c0,1.4-1.1,2.5-2.5,2.5c0,0,0,0,0,0
			c-1.4,0-2.5-1.2-2.5-2.5l1.1-61c0.1-5.9,2.5-11.4,6.8-15.5c4.3-4.1,9.9-6.2,15.8-6.1c0,0,0,0,0,0c5.7,0,11.3,2.5,15.3,6.8
			c4,4.3,6,9.6,6,15.5l-1.3,67.4C272.8,114.7,271.7,115.8,270.3,115.8z"/>
	</g>
	<g>
		<path d="M131.7,146.5c-0.6,0-1.2-0.2-1.7-0.7c-13.5-13-21.3-25.3-21.6-25.8c-0.7-1-0.5-2.4,0.5-3.2c1.7-1.5,42.8-36.5,86.3-29.8
			c13.3,2,26.5,7.9,39.2,17.4c1.1,0.8,1.3,2.4,0.5,3.5c-0.8,1.1-2.4,1.3-3.5,0.5c-12-9-24.5-14.5-37-16.4
			c-36.5-5.6-72.4,20.8-80.6,27.2c2.7,3.9,9.6,13.3,19.6,23c1,1,1,2.5,0.1,3.5C133,146.2,132.4,146.5,131.7,146.5z"/>
	</g>
</g>
</svg>
