<?xml version="1.0" encoding="utf-8"?>
<!-- Generator: Adobe Illustrator 22.1.0, SVG Export Plug-In . SVG Version: 6.00 Build 0)  -->
<svg version="1.1" id="Layer_1" xmlns="http://www.w3.org/2000/svg" xmlns:xlink="http://www.w3.org/1999/xlink" x="0px" y="0px"
	 viewBox="0 0 512 512" style="enable-background:new 0 0 512 512;" xml:space="preserve">
<g>
	<g>
		<path d="M244.5,88.2C244.5,88.2,244.5,88.2,244.5,88.2c-1.4,0-2.5-1.2-2.5-2.5l1.2-63.9c0.2-8.2,7-14.9,15.1-14.9h0.2
			c8.4,0.2,14.9,7,14.9,15.3l-1,52.1c0,1.4-1.1,2.5-2.5,2.5c-1.4,0-2.5-1.2-2.5-2.5l1-52.1c0-5.6-4.4-10.1-10-10.3l-0.1,0
			c-5.4,0-9.9,4.5-10.1,10L247,85.7C247,87.1,245.9,88.2,244.5,88.2z"/>
	</g>
	<g>
		<path d="M149.5,162.2c-35.8,0-67-14.5-68.7-15.3c-1.1-0.5-1.7-1.8-1.3-3c0.8-2.7,19.5-65.8,68.7-88.3c34.4-15.7,74.6-6.4,95.4,0.5
			c1.3,0.4,2,1.8,1.6,3.2c-0.4,1.3-1.8,2-3.2,1.6c-20.2-6.7-58.9-15.7-91.8-0.7c-42.2,19.3-61.6,71.9-65.3,83
			c9.9,4.2,54.4,21.5,94.1,10c1.3-0.4,2.7,0.4,3.1,1.7c0.4,1.3-0.4,2.7-1.7,3.1C170.2,161,159.7,162.2,149.5,162.2z"/>
	</g>
</g>
</svg>
