<?xml version="1.0" encoding="utf-8"?>
<!-- Generator: Adobe Illustrator 22.1.0, SVG Export Plug-In . SVG Version: 6.00 Build 0)  -->
<svg version="1.1" id="Layer_1" xmlns="http://www.w3.org/2000/svg" xmlns:xlink="http://www.w3.org/1999/xlink" x="0px" y="0px"
	 viewBox="0 0 512 512" style="enable-background:new 0 0 512 512;" xml:space="preserve">
<g>
	<circle cx="301.9" cy="40.4" r="3.5"/>
	<circle cx="344" cy="60.1" r="3.5"/>
	<circle cx="380.5" cy="90.6" r="3.5"/>
	<circle cx="410" cy="130.3" r="3.5"/>
	<circle cx="431.1" cy="177.3" r="3.5"/>
	<circle cx="442.4" cy="230.2" r="3.5"/>
	<circle cx="442.6" cy="286.8" r="3.5"/>
	<circle cx="431.5" cy="340.4" r="3.5"/>
	<circle cx="410.3" cy="388.1" r="3.5"/>
	<circle cx="380.6" cy="428.2" r="3.5"/>
	<circle cx="343.7" cy="459.1" r="3.5"/>
	<circle cx="301.1" cy="478.9" r="3.5"/>
	<ellipse transform="matrix(0.1602 -0.9871 0.9871 0.1602 -266.2428 659.0692)" cx="254.2" cy="486" rx="3.5" ry="3.5"/>
	<circle cx="207.2" cy="479.3" r="3.5"/>
	<circle cx="164.4" cy="459.8" r="3.5"/>
	<circle cx="127.3" cy="429.2" r="3.5"/>
	<circle cx="97.4" cy="389.3" r="3.5"/>
	<circle cx="76" cy="341.8" r="3.5"/>
	<circle cx="64.5" cy="288.3" r="3.5"/>
	<circle cx="64.4" cy="231.4" r="3.5"/>
	<circle cx="75.7" cy="177.9" r="3.5"/>
	<circle cx="97" cy="130.3" r="3.5"/>
	<circle cx="126.9" cy="90.3" r="3.5"/>
	<circle cx="163.9" cy="59.6" r="3.5"/>
	<circle cx="206.5" cy="39.9" r="3.5"/>
	<circle cx="253.5" cy="33" r="3.5"/>
</g>
</svg>
