<?xml version="1.0" encoding="utf-8"?>
<!-- Generator: Adobe Illustrator 22.1.0, SVG Export Plug-In . SVG Version: 6.00 Build 0)  -->
<svg version="1.1" id="Layer_1" xmlns="http://www.w3.org/2000/svg" xmlns:xlink="http://www.w3.org/1999/xlink" x="0px" y="0px"
	 viewBox="0 0 512 512" style="enable-background:new 0 0 512 512;" xml:space="preserve">
<g>
	<g>
		<path d="M96.5,86.9c-0.8,0-1.5-0.4-2-1L55,30.6c-4.4-5.8-3.2-14.2,2.9-19c0,0,0.1-0.1,0.1-0.1c6.1-4.1,14.4-2.8,19,2.9
			c0,0,0,0.1,0.1,0.1l40,55.7c0.8,1.1,0.5,2.7-0.6,3.5c-1.1,0.8-2.7,0.5-3.5-0.6L73,17.4c-2.9-3.7-8.2-4.5-12.1-1.9
			c-3.9,3.1-4.7,8.4-1.9,12.1l39.5,55.4c0.8,1.1,0.5,2.7-0.6,3.5C97.5,86.7,97,86.9,96.5,86.9z"/>
	</g>
</g>
</svg>
