<?xml version="1.0" encoding="utf-8"?>
<!-- Generator: Adobe Illustrator 22.1.0, SVG Export Plug-In . SVG Version: 6.00 Build 0)  -->
<svg version="1.1" id="Layer_1" xmlns="http://www.w3.org/2000/svg" xmlns:xlink="http://www.w3.org/1999/xlink" x="0px" y="0px"
	 viewBox="0 0 512 512" style="enable-background:new 0 0 512 512;" xml:space="preserve">
<g>
	<path d="M263.4,55.2c-1.3,0-2.4-1-2.5-2.4l-1.1-20.1c-0.2-4.3-2-8.2-5.1-11c-3.1-2.9-7.2-4.4-11.4-4.2c-4.2,0.2-8.1,2-11,5.1
		s-4.4,7.2-4.2,11.4l0.8,17.4c0.1,1.4-1,2.5-2.4,2.6s-2.5-1-2.6-2.4l-0.8-17.4c-0.5-11.5,8.5-21.3,20-21.7c5.6-0.2,10.9,1.7,15,5.5
		c4.1,3.8,6.5,8.9,6.7,14.5l1.1,20.1c0.1,1.4-1,2.6-2.4,2.6C263.5,55.2,263.4,55.2,263.4,55.2z"/>
</g>
</svg>
