<?xml version="1.0" encoding="utf-8"?>
<!-- Generator: Adobe Illustrator 22.1.0, SVG Export Plug-In . SVG Version: 6.00 Build 0)  -->
<svg version="1.1" id="Layer_1" xmlns="http://www.w3.org/2000/svg" xmlns:xlink="http://www.w3.org/1999/xlink" x="0px" y="0px"
	 viewBox="0 0 512 512" style="enable-background:new 0 0 512 512;" xml:space="preserve">
<g>
	<circle cx="291" cy="66" r="3.5"/>
	<circle cx="328.1" cy="78.7" r="3.5"/>
	<circle cx="363.5" cy="111.3" r="3.5"/>
	<circle cx="384.2" cy="150.4" r="3.5"/>
	<circle cx="397.1" cy="190.9" r="3.5"/>
	<circle cx="402.2" cy="234.4" r="3.5"/>
	<circle cx="404.7" cy="278.4" r="3.5"/>
	<circle cx="408.7" cy="325.6" r="3.5"/>
	<circle cx="405.7" cy="375.5" r="3.5"/>
	<circle cx="389.6" cy="425.6" r="3.5"/>
	<circle cx="353.7" cy="465.5" r="3.5"/>
	<circle cx="290.9" cy="484.9" r="3.5"/>
	<circle cx="232.9" cy="488.1" r="3.5"/>
	<circle cx="186.4" cy="477.9" r="3.5"/>
	<circle cx="150.8" cy="462" r="3.5"/>
	<circle cx="123.1" cy="437.3" r="3.5"/>
	<circle cx="110.3" cy="397.9" r="3.5"/>
	<circle cx="105.2" cy="352.6" r="3.5"/>
	<circle cx="102.9" cy="295.8" r="3.5"/>
	<circle cx="104.6" cy="234.3" r="3.5"/>
	<circle cx="111.1" cy="174.7" r="3.5"/>
	<circle cx="130.9" cy="112.8" r="3.5"/>
	<circle cx="179.2" cy="73.1" r="3.5"/>
	<circle cx="229" cy="61.9" r="3.5"/>
	<circle cx="252" cy="62" r="3.5"/>
</g>
</svg>
