<?xml version="1.0" encoding="utf-8"?>
<!-- Generator: Adobe Illustrator 22.1.0, SVG Export Plug-In . SVG Version: 6.00 Build 0)  -->
<svg version="1.1" id="Layer_1" xmlns="http://www.w3.org/2000/svg" xmlns:xlink="http://www.w3.org/1999/xlink" x="0px" y="0px"
	 viewBox="0 0 512 512" style="enable-background:new 0 0 512 512;" xml:space="preserve">
<g>
	<g>
		<g>
			<path d="M216.7,60.8c-1.2,0-2.3-0.9-2.5-2.1l-4.8-31.6c-1-7.3,3.9-13.9,11.3-15.4c0.1,0,0.1,0,0.2,0c7.3-1,13.9,3.9,15.4,11.3
				c0,0,0,0.1,0,0.1l4.8,31.8c0.2,1.4-0.7,2.6-2.1,2.8c-1.4,0.2-2.6-0.7-2.8-2.1l-4.8-31.7c-1-4.7-5.1-7.8-9.7-7.3
				c-4.7,1-7.8,5.2-7.2,9.8l4.8,31.6c0.2,1.4-0.7,2.6-2.1,2.8C216.9,60.8,216.8,60.8,216.7,60.8z"/>
		</g>
	</g>
	<g>
		<path d="M40.4,203.5c-0.1,0-0.2,0-0.3,0c-15.9-2.1-26.1-5-26.6-5.1c-1.2-0.3-1.9-1.5-1.8-2.7c0.1-0.9,2.6-22.9,12.4-50.2
			c9.1-25.2,26.5-59.7,57.6-80.7C125.5,35.5,183,40.1,213.4,45.5c1.4,0.2,2.3,1.5,2,2.9s-1.5,2.3-2.9,2
			c-29.7-5.3-85.8-9.9-128.1,18.6C32,104.4,18.9,180.4,17,194.1c3.8,0.9,12.3,2.9,23.8,4.4c1.4,0.2,2.3,1.4,2.2,2.8
			C42.7,202.6,41.6,203.5,40.4,203.5z"/>
	</g>
</g>
</svg>
