<?xml version="1.0" encoding="utf-8"?>
<!-- Generator: Adobe Illustrator 22.1.0, SVG Export Plug-In . SVG Version: 6.00 Build 0)  -->
<svg version="1.1" id="Layer_1" xmlns="http://www.w3.org/2000/svg" xmlns:xlink="http://www.w3.org/1999/xlink" x="0px" y="0px"
	 viewBox="0 0 512 512" style="enable-background:new 0 0 512 512;" xml:space="preserve">
<g>
	<path d="M207.4,91.7c-40.6,0-73-36.8-74.4-38.4c-0.8-0.9-0.8-2.3,0-3.2c1.3-1.6,33.4-39.4,74-40.1c40.6-0.6,73.4,36.8,74.7,38.4
		c0.8,0.9,0.8,2.3,0,3.2c-1.3,1.6-33.4,39.4-74,40.1C207.6,91.7,207.5,91.7,207.4,91.7z M138.3,51.7c6.8,7.1,35.7,35.2,69.4,35
		c33.6-0.6,62.1-29.4,68.7-36.7c-6.7-7.1-35.3-35-68.5-35c-0.3,0-0.6,0-0.9,0C173.4,15.6,144.9,44.4,138.3,51.7z"/>
</g>
</svg>
