<?xml version="1.0" encoding="utf-8"?>
<!-- Generator: Adobe Illustrator 22.1.0, SVG Export Plug-In . SVG Version: 6.00 Build 0)  -->
<svg version="1.1" id="Layer_1" xmlns="http://www.w3.org/2000/svg" xmlns:xlink="http://www.w3.org/1999/xlink" x="0px" y="0px"
	 viewBox="0 0 512 512" style="enable-background:new 0 0 512 512;" xml:space="preserve">
<g>
	<g>
		<path d="M118.1,123.5c-49.7,0-89.5-45.2-91.1-47.2c-0.8-0.9-0.8-2.3,0-3.2c1.6-2,40.8-48.6,90.6-49.2c40.2-0.6,74.2,29.2,86.9,42
			c1,1,1,2.6,0,3.5s-2.6,1-3.5,0c-12.2-12.3-44.3-40.6-82.1-40.6c-0.4,0-0.8,0-1.1,0c-42.3,0.5-77.9,37.5-85.4,45.8
			c7.6,8.1,44,44.2,86.5,43.8c3.2,0,6.5-0.4,9.9-0.8c1.4-0.2,2.6,0.8,2.8,2.2c0.2,1.4-0.8,2.6-2.2,2.8c-3.6,0.4-7,0.8-10.5,0.8
			C118.6,123.5,118.4,123.5,118.1,123.5z"/>
	</g>
	<g>
		<path d="M202.9,68.3c-1,0-1.9-0.6-2.3-1.5c-6.3-14.9-12.2-31.8-17.5-50.1c-0.4-1.3,0.4-2.7,1.7-3.1c1.3-0.4,2.7,0.4,3.1,1.7
			c5.3,18.1,11.1,34.8,17.3,49.5c0.5,1.3-0.1,2.7-1.3,3.3C203.6,68.2,203.2,68.3,202.9,68.3z"/>
	</g>
</g>
</svg>
