<?xml version="1.0" encoding="utf-8"?>
<!-- Generator: Adobe Illustrator 22.1.0, SVG Export Plug-In . SVG Version: 6.00 Build 0)  -->
<svg version="1.1" id="Layer_1" xmlns="http://www.w3.org/2000/svg" xmlns:xlink="http://www.w3.org/1999/xlink" x="0px" y="0px"
	 viewBox="0 0 512 512" style="enable-background:new 0 0 512 512;" xml:space="preserve">
<g>
	<circle cx="267" cy="74" r="3.5"/>
	<circle cx="314.8" cy="80.4" r="3.5"/>
	<circle cx="356" cy="98.1" r="3.5"/>
	<circle cx="388" cy="120.5" r="3.5"/>
	<circle cx="412" cy="158.8" r="3.5"/>
	<circle cx="432.1" cy="209.3" r="3.5"/>
	<circle cx="440.1" cy="258.1" r="3.5"/>
	<circle cx="436.9" cy="304.6" r="3.5"/>
	<circle cx="423.6" cy="348.1" r="3.5"/>
	<circle cx="401.3" cy="388.2" r="3.5"/>
	<circle cx="370.9" cy="424.2" r="3.5"/>
	<circle cx="328.9" cy="459" r="3.5"/>
	<circle cx="263.5" cy="489.9" r="3.5"/>
	<circle cx="209.2" cy="494.8" r="3.5"/>
	<circle cx="171.3" cy="483.5" r="3.5"/>
	<circle cx="155.1" cy="465.5" r="3.5"/>
	<circle cx="156" cy="425.4" r="3.5"/>
	<circle cx="154.3" cy="371.9" r="3.5"/>
	<circle cx="133.9" cy="325.1" r="3.5"/>
	<circle cx="117.9" cy="284.4" r="3.5"/>
	<circle cx="110.6" cy="236.6" r="3.5"/>
	<circle cx="111.2" cy="177" r="3.5"/>
	<circle cx="142.4" cy="124.2" r="3.5"/>
	<circle cx="188.4" cy="91.3" r="3.5"/>
	<circle cx="219" cy="77" r="3.5"/>
</g>
</svg>
