<?xml version="1.0" encoding="utf-8"?>
<!-- Generator: Adobe Illustrator 22.1.0, SVG Export Plug-In . SVG Version: 6.00 Build 0)  -->
<svg version="1.1" id="Layer_1" xmlns="http://www.w3.org/2000/svg" xmlns:xlink="http://www.w3.org/1999/xlink" x="0px" y="0px"
	 viewBox="0 0 512 512" style="enable-background:new 0 0 512 512;" xml:space="preserve">
<g>
	<path d="M296,185.3c-0.4,0-0.9-0.1-1.3-0.4c-1.2-0.7-1.5-2.3-0.8-3.4C325.5,130,322.3,79.3,319.5,60c-0.1-0.9,0.2-1.7,0.9-2.3
		c0.7-0.6,1.6-0.7,2.4-0.4c22.5,8.1,44.2,18.3,64.4,30.4c1,0.6,1.9,0.8,3,0.8c2.2,0,4.2-1,5.4-2.7c1.7-2.9,0.8-6.7-2.1-8.3
		c-90.1-54.3-182-55-182.9-55h-0.2c-3.2,0-5.9,2.7-5.9,5.9c0,3.4,2.6,6.1,5.9,6.1c0.4,0,41.1,0.7,93.7,16.6c0.9,0.3,1.6,1.1,1.7,2
		l0,0c0.1,0.2,0.2,0.5,0.2,0.8c1.6,7.1,13.1,65-24.2,123.9c-0.7,1.2-2.3,1.5-3.4,0.8c-1.2-0.7-1.5-2.3-0.8-3.4
		c35.6-56.3,25-113,23.6-119.7c-50.8-15.1-90.5-16-90.9-16c-6,0-10.9-5-10.9-11.1c0-6,4.9-10.9,10.9-10.9h0.2
		c0.9,0,94.3,0.6,185.5,55.7c5.2,3,6.9,9.9,3.8,15.2c0,0.1-0.1,0.1-0.1,0.2c-2.2,3.1-5.7,5-9.6,5c-2,0-3.7-0.5-5.5-1.5
		c-18.8-11.3-38.9-20.9-59.7-28.6c2.6,22.3,3.6,71.2-26.9,120.7C297.7,184.9,296.8,185.3,296,185.3z M306,53.5L306,53.5L306,53.5z"
		/>
</g>
</svg>
