<?xml version="1.0" encoding="utf-8"?>
<!-- Generator: Adobe Illustrator 22.1.0, SVG Export Plug-In . SVG Version: 6.00 Build 0)  -->
<svg version="1.1" id="Layer_1" xmlns="http://www.w3.org/2000/svg" xmlns:xlink="http://www.w3.org/1999/xlink" x="0px" y="0px"
	 viewBox="0 0 512 512" style="enable-background:new 0 0 512 512;" xml:space="preserve">
<g>
	<circle cx="296.4" cy="61.9" r="3.5"/>
	<circle cx="314.1" cy="91.8" r="3.5"/>
	<circle cx="320.1" cy="126.8" r="3.5"/>
	<circle cx="347.7" cy="158.1" r="3.5"/>
	<circle cx="370.9" cy="194.3" r="3.5"/>
	<circle cx="391.9" cy="238.6" r="3.5"/>
	<circle cx="405" cy="297.1" r="3.5"/>
	<circle cx="404.6" cy="339" r="3.5"/>
	<circle cx="395" cy="385.4" r="3.5"/>
	<circle cx="369.9" cy="424.5" r="3.5"/>
	<circle cx="339.3" cy="454.7" r="3.5"/>
	<circle cx="302.2" cy="479.2" r="3.5"/>
	<circle cx="264.1" cy="488.1" r="3.5"/>
	<circle cx="226.5" cy="483.8" r="3.5"/>
	<circle cx="191.1" cy="469" r="3.5"/>
	<circle cx="159.7" cy="446.2" r="3.5"/>
	<circle cx="134.2" cy="418" r="3.5"/>
	<circle cx="117" cy="382.1" r="3.5"/>
	<circle cx="107.4" cy="339.4" r="3.5"/>
	<circle cx="105.1" cy="290.1" r="3.5"/>
	<circle cx="113.5" cy="242.2" r="3.5"/>
	<circle cx="130.5" cy="197.7" r="3.5"/>
	<circle cx="156.4" cy="164.8" r="3.5"/>
	<circle cx="173.3" cy="133.3" r="3.5"/>
	<circle cx="177" cy="95" r="3.5"/>
	<circle cx="194.5" cy="65.8" r="3.5"/>
	<circle cx="228" cy="48.7" r="3.5"/>
	<circle cx="271" cy="47" r="3.5"/>
</g>
</svg>
