<?xml version="1.0" encoding="utf-8"?>
<!-- Generator: Adobe Illustrator 22.1.0, SVG Export Plug-In . SVG Version: 6.00 Build 0)  -->
<svg version="1.1" id="Layer_1" xmlns="http://www.w3.org/2000/svg" xmlns:xlink="http://www.w3.org/1999/xlink" x="0px" y="0px"
	 viewBox="0 0 512 512" style="enable-background:new 0 0 512 512;" xml:space="preserve">
<g>
	<g>
		<g>
			<path d="M246.8,49.1c-1.4,0-2.5-1.1-2.5-2.5V17.2c0-5.2,4-9.2,9.2-9.2c5.1,0,9.2,4.1,9.2,9.2v28.5c0,1.4-1.1,2.5-2.5,2.5
				s-2.5-1.1-2.5-2.5V17.2c0-2.3-1.9-4.2-4.2-4.2c-2.4,0-4.2,1.8-4.2,4.2v29.4C249.3,48,248.2,49.1,246.8,49.1z"/>
		</g>
	</g>
	<g>
		<g>
			<path d="M202.4,395.4c-0.8,0-1.5-0.3-2-1c-0.1-0.1-12.2-21.6-18.1-58.7c-5.2-32.9-6.4-84.8,17.9-145.6c0-0.3,0.1-0.5,0.2-0.8
				c1-2.3,13.2-43.2,10.7-64.2c-2.4-17.1,4.5-40.3,7.6-49.5c0.1-0.2,0.1-0.3,0.1-0.4c0.3-1.1,1.3-1.9,2.4-1.9c1.4,0,2.5,1.1,2.5,2.5
				c0,0.4-0.1,0.6-0.3,1.3c-3,8.8-9.7,31.1-7.4,47.2c2.5,20.8-8.6,60.2-10.9,66.4c0,0.2-0.1,0.4-0.2,0.6
				c-46,114.8-1.3,198.4-0.4,200c0.7,1.1,0.5,2.6-0.6,3.4C203.4,395.2,202.9,395.4,202.4,395.4z M200.4,189.2
				C200.4,189.2,200.4,189.2,200.4,189.2C200.4,189.2,200.4,189.2,200.4,189.2z"/>
		</g>
	</g>
	<g>
		<g>
			<path d="M331.6,320.5C331.6,320.5,331.5,320.5,331.6,320.5c-1.5,0-2.5-1.2-2.5-2.6c2.4-69.8-33.8-125.9-34.8-127.4
				c-0.8-1-0.7-2.4,0.2-3.3c1-1,2.6-1,3.5,0c0.4,0.4,38.5,59,36,130.9C334.1,319.4,332.9,320.5,331.6,320.5z"/>
		</g>
	</g>
</g>
</svg>
