<?xml version="1.0" encoding="utf-8"?>
<!-- Generator: Adobe Illustrator 22.1.0, SVG Export Plug-In . SVG Version: 6.00 Build 0)  -->
<svg version="1.1" id="Layer_1" xmlns="http://www.w3.org/2000/svg" xmlns:xlink="http://www.w3.org/1999/xlink" x="0px" y="0px"
	 viewBox="0 0 512 512" style="enable-background:new 0 0 512 512;" xml:space="preserve">
<g>
	<g>
		<path d="M341.6,336c-0.7,0-1.4-0.3-1.9-0.9l-73.1-83.8c-0.9-1-0.8-2.6,0.2-3.5c1-0.9,2.6-0.8,3.5,0.2l73.1,83.8
			c0.9,1,0.8,2.6-0.2,3.5C342.8,335.8,342.2,336,341.6,336z"/>
	</g>
	<g>
		<path d="M343.1,402.7c-0.7,0-1.4-0.3-1.9-0.9L202.5,243c-0.9-1-0.8-2.6,0.2-3.5c1-0.9,2.6-0.8,3.5,0.2L345,398.6
			c0.9,1,0.8,2.6-0.2,3.5C344.3,402.5,343.7,402.7,343.1,402.7z"/>
	</g>
	<g>
		<path d="M325.8,451.6c-0.7,0-1.4-0.3-1.9-0.9L167.1,270c-0.9-1-0.8-2.6,0.2-3.5c1-0.9,2.6-0.8,3.5,0.3l156.8,180.7
			c0.9,1,0.8,2.6-0.3,3.5C327,451.4,326.4,451.6,325.8,451.6z"/>
	</g>
	<g>
		<path d="M291.2,479c-0.7,0-1.4-0.3-1.9-0.9L150,318.8c-0.9-1-0.8-2.6,0.2-3.5s2.6-0.8,3.5,0.2l139.3,159.3c0.9,1,0.8,2.6-0.2,3.5
			C292.4,478.8,291.8,479,291.2,479z"/>
	</g>
	<g>
		<path d="M241.5,491.7c-0.7,0-1.4-0.3-1.9-0.9l-94.5-110.4c-0.9-1-0.8-2.6,0.3-3.5s2.6-0.8,3.5,0.3l94.5,110.4
			c0.9,1,0.8,2.6-0.3,3.5C242.7,491.5,242.1,491.7,241.5,491.7z"/>
	</g>
	<g>
		<path d="M268.5,489c-0.6,0-1.2-0.2-1.6-0.6c-1-0.9-1.2-2.5-0.3-3.5l74.6-86.3c0.9-1,2.5-1.2,3.5-0.3c1,0.9,1.2,2.5,0.3,3.5
			l-74.6,86.3C269.9,488.7,269.2,489,268.5,489z"/>
	</g>
	<g>
		<path d="M219.1,485.8c-0.6,0-1.2-0.2-1.7-0.6c-1-0.9-1.1-2.5-0.2-3.5l124-138.7c0.9-1,2.5-1.1,3.5-0.2c1,0.9,1.1,2.5,0.2,3.5
			L221,485C220.5,485.5,219.8,485.8,219.1,485.8z"/>
	</g>
	<g>
		<path d="M186.3,468.9c-0.6,0-1.1-0.2-1.6-0.6c-1.1-0.9-1.2-2.5-0.3-3.5l148.7-174.9c0.9-1.1,2.5-1.2,3.5-0.3
			c1.1,0.9,1.2,2.5,0.3,3.5L188.2,468C187.7,468.6,187,468.9,186.3,468.9z"/>
	</g>
	<g>
		<path d="M159.7,439c-0.6,0-1.2-0.2-1.6-0.6c-1-0.9-1.2-2.5-0.3-3.5l155.6-179.4c0.9-1,2.5-1.2,3.5-0.3c1,0.9,1.2,2.5,0.3,3.5
			L161.6,438.1C161.1,438.7,160.4,439,159.7,439z"/>
	</g>
	<g>
		<path d="M147,393.7c-0.6,0-1.2-0.2-1.6-0.6c-1-0.9-1.2-2.5-0.3-3.5l121.5-141.5c0.9-1,2.5-1.2,3.5-0.3c1,0.9,1.2,2.5,0.3,3.5
			L148.9,392.8C148.4,393.4,147.7,393.7,147,393.7z"/>
	</g>
	<g>
		<path d="M150.3,327.1c-0.6,0-1.2-0.2-1.7-0.6c-1-0.9-1.1-2.5-0.2-3.5l65.5-74.1c0.9-1,2.5-1.1,3.5-0.2c1,0.9,1.1,2.5,0.2,3.5
			l-65.5,74.1C151.7,326.8,151,327.1,150.3,327.1z"/>
	</g>
</g>
</svg>
