<?xml version="1.0" encoding="utf-8"?>
<!-- Generator: Adobe Illustrator 22.1.0, SVG Export Plug-In . SVG Version: 6.00 Build 0)  -->
<svg version="1.1" id="Layer_1" xmlns="http://www.w3.org/2000/svg" xmlns:xlink="http://www.w3.org/1999/xlink" x="0px" y="0px"
	 viewBox="0 0 512 512" style="enable-background:new 0 0 512 512;" xml:space="preserve">
<g>
	<circle cx="203" cy="232" r="3.5"/>
	<circle cx="172.1" cy="250.8" r="3.5"/>
	<circle cx="148.7" cy="286.2" r="3.5"/>
	<circle cx="137.1" cy="327.2" r="3.5"/>
	<circle cx="136.1" cy="360.5" r="3.5"/>
	<circle cx="141" cy="393.4" r="3.5"/>
	<circle cx="150.4" cy="424.3" r="3.5"/>
	<circle cx="163" cy="451.7" r="3.5"/>
	<circle cx="177.5" cy="473.8" r="3.5"/>
	<circle cx="193.4" cy="489.6" r="3.5"/>
	<circle cx="218.9" cy="500.3" r="3.5"/>
	<circle cx="250" cy="502.9" r="3.5"/>
	<circle cx="281.9" cy="497.5" r="3.5"/>
	<circle cx="309.9" cy="484.6" r="3.5"/>
	<circle cx="329.7" cy="463.6" r="3.5"/>
	<circle cx="344.8" cy="435.4" r="3.5"/>
	<circle cx="354.9" cy="406" r="3.5"/>
	<circle cx="359.7" cy="377" r="3.5"/>
	<circle cx="359" cy="349.8" r="3.5"/>
	<circle cx="355.6" cy="323.4" r="3.5"/>
	<circle cx="349.8" cy="294.3" r="3.5"/>
	<circle cx="338.7" cy="266" r="3.5"/>
	<circle cx="324.9" cy="245.6" r="3.5"/>
	<circle cx="307.7" cy="228.6" r="3.5"/>
	<circle cx="325.3" cy="205.7" r="3.5"/>
	<circle cx="351.5" cy="171.4" r="3.5"/>
	<circle cx="377" cy="137.3" r="3.5"/>
	<circle cx="392.7" cy="115" r="3.5"/>
	<circle cx="358.9" cy="131.5" r="3.5"/>
	<circle cx="321.1" cy="153.5" r="3.5"/>
	<circle cx="291.6" cy="169.7" r="3.5"/>
	<circle cx="279.8" cy="153.7" r="3.5"/>
	<circle cx="268.1" cy="127.5" r="3.5"/>
	<circle cx="256.8" cy="103.2" r="3.5"/>
	<circle cx="245.1" cy="74.7" r="3.5"/>
	<circle cx="232.4" cy="44.8" r="3.5"/>
	<circle cx="229" cy="67.2" r="3.5"/>
	<circle cx="225" cy="97" r="3.5"/>
	<circle cx="221.1" cy="126.9" r="3.5"/>
	<circle cx="217.2" cy="156.7" r="3.5"/>
	<circle cx="213.2" cy="180.7" r="3.5"/>
	<circle cx="187.1" cy="172.4" r="3.5"/>
	<circle cx="144.6" cy="158.9" r="3.5"/>
	<circle cx="113.2" cy="149.5" r="3.5"/>
	<circle cx="137.2" cy="172.1" r="3.5"/>
	<circle cx="159.3" cy="198.8" r="3.5"/>
	<circle cx="183" cy="216" r="3.5"/>
</g>
</svg>
