<?xml version="1.0" encoding="utf-8"?>
<!-- Generator: Adobe Illustrator 22.1.0, SVG Export Plug-In . SVG Version: 6.00 Build 0)  -->
<svg version="1.1" id="Layer_1" xmlns="http://www.w3.org/2000/svg" xmlns:xlink="http://www.w3.org/1999/xlink" x="0px" y="0px"
	 viewBox="0 0 512 512" style="enable-background:new 0 0 512 512;" xml:space="preserve">
<g>
	<path d="M259.3,124.8c-0.1,0-0.2,0-0.3,0c-1.4-0.2-2.4-1.4-2.2-2.8c0.3-2.5,0.7-5.1,1.3-7.6c-17.9,1.2-47.9-0.1-69.5-17.6
		c-31-25.2-31.9-73.9-31.9-75.9c0-1.2,0.8-2.3,2-2.5c2-0.4,49.7-8.8,80.6,16.3C256,48.2,264.1,68.9,268,86
		c8.6-16.4,21.6-28.3,38.5-35.6c4.6-2,9.9,0.1,12.1,4.7c0,0,0,0.1,0,0.1c2,4.6-0.1,9.9-4.7,12.1c0,0-0.1,0-0.1,0.1
		c-25.2,10.7-34.4,33.8-37.7,51.2c-0.3,1.4-1.6,2.3-2.9,2c-1.4-0.3-2.2-1.6-2-2.9c3.5-18.6,13.4-43.2,40.6-54.8
		c2.2-1.1,3.1-3.5,2.3-5.6c-1.1-2.2-3.5-3.2-5.6-2.2c-18,7.8-31.2,21.2-39.2,39.9c-0.4,1-1.5,1.6-2.6,1.5c-1.1-0.1-2-1-2.2-2.1
		c-3-17.4-10.4-41.2-28.4-55.7c-25.6-20.8-64.9-16.9-74.4-15.6c0.6,9.6,4.4,49.2,30,69.9c22.5,18.2,56,17.4,69.3,16.3
		c0.8-0.1,1.6,0.2,2.1,0.8s0.7,1.4,0.6,2.2c-0.7,3.4-1.5,7-1.9,10.4C261.6,123.9,260.6,124.8,259.3,124.8z"/>
</g>
</svg>
