<?xml version="1.0" encoding="utf-8"?>
<!-- Generator: Adobe Illustrator 22.1.0, SVG Export Plug-In . SVG Version: 6.00 Build 0)  -->
<svg version="1.1" id="Layer_1" xmlns="http://www.w3.org/2000/svg" xmlns:xlink="http://www.w3.org/1999/xlink" x="0px" y="0px"
	 viewBox="0 0 512 512" style="enable-background:new 0 0 512 512;" xml:space="preserve">
<g>
	<circle cx="295.5" cy="129.5" r="3.5"/>
	<circle cx="331.1" cy="129" r="3.5"/>
	<circle cx="353" cy="166.6" r="3.5"/>
	<circle cx="368.9" cy="194.4" r="3.5"/>
	<circle cx="386.9" cy="224.5" r="3.5"/>
	<circle cx="400.6" cy="252.7" r="3.5"/>
	<circle cx="419.5" cy="295.6" r="3.5"/>
	<circle cx="421.6" cy="342.7" r="3.5"/>
	<circle cx="400.2" cy="384.1" r="3.5"/>
	<circle cx="365.5" cy="422.4" r="3.5"/>
	<circle cx="338.8" cy="447.4" r="3.5"/>
	<circle cx="313.7" cy="465" r="3.5"/>
	<circle cx="306" cy="492.4" r="3.5"/>
	<circle cx="267.1" cy="483.3" r="3.5"/>
	<circle cx="229.8" cy="495.8" r="3.5"/>
	<circle cx="212.6" cy="469.8" r="3.5"/>
	<circle cx="186.5" cy="450.9" r="3.5"/>
	<circle cx="155.2" cy="426.4" r="3.5"/>
	<circle cx="123.3" cy="389.4" r="3.5"/>
	<circle cx="107.2" cy="351.5" r="3.5"/>
	<circle cx="104.3" cy="315.8" r="3.5"/>
	<circle cx="112.8" cy="284.5" r="3.5"/>
	<circle cx="130.9" cy="239.5" r="3.5"/>
	<circle cx="151.1" cy="194.2" r="3.5"/>
	<circle cx="165.6" cy="163.3" r="3.5"/>
	<circle cx="186.6" cy="134.3" r="3.5"/>
	<circle cx="226.4" cy="136.5" r="3.5"/>
	<circle cx="263.5" cy="139.5" r="3.5"/>
</g>
</svg>
