<?xml version="1.0" encoding="utf-8"?>
<!-- Generator: Adobe Illustrator 22.1.0, SVG Export Plug-In . SVG Version: 6.00 Build 0)  -->
<svg version="1.1" id="Layer_1" xmlns="http://www.w3.org/2000/svg" xmlns:xlink="http://www.w3.org/1999/xlink" x="0px" y="0px"
	 viewBox="0 0 512 512" style="enable-background:new 0 0 512 512;" xml:space="preserve">
<style type="text/css">
	.st0{fill:#FFFFFF;}
</style>
<g>
	<path class="st0" d="M241.1,111V35.3c0-11.8,9.6-21.3,21.3-21.3c5.9,0,11.2,2.4,15,6.3c4.1,3.9,6.3,9.1,6.3,15v77.3"/>
	<path d="M283.7,115.1c-1.4,0-2.5-1.1-2.5-2.5V35.3c0-5.2-1.9-9.8-5.5-13.2c-3.6-3.6-8.2-5.6-13.3-5.6c-10.4,0-18.8,8.4-18.8,18.8
		V111c0,1.4-1.1,2.5-2.5,2.5s-2.5-1.1-2.5-2.5V35.3c0-13.1,10.7-23.8,23.8-23.8c6.4,0,12.4,2.5,16.8,7.1c4.6,4.3,7,10.2,7,16.7v77.3
		C286.2,114,285.1,115.1,283.7,115.1z"/>
</g>
</svg>
