<?xml version="1.0" encoding="utf-8"?>
<!-- Generator: Adobe Illustrator 22.1.0, SVG Export Plug-In . SVG Version: 6.00 Build 0)  -->
<svg version="1.1" id="Layer_1" xmlns="http://www.w3.org/2000/svg" xmlns:xlink="http://www.w3.org/1999/xlink" x="0px" y="0px"
	 viewBox="0 0 512 512" style="enable-background:new 0 0 512 512;" xml:space="preserve">
<g>
	<g>
		<path d="M228,119.9h-1.4c-0.1,0-0.2,0-0.2,0c-4.6-0.5-8.8-2.7-11.8-6.3c-3-3.6-4.3-8.2-3.9-12.8l1.6-16.6l-9.2,11.4
			c-3.3,4.2-8.3,6.5-13.8,6.5c-4,0-7.9-1.3-10.9-3.7c-3.7-2.9-6-7.1-6.6-11.8c-0.5-4.6,0.8-9.2,3.8-12.8l11.9-15.1l-21.2,4.1
			c-1.2,0.2-2.4,0.2-3.3,0.2c-8.4,0-15.7-6.1-17.1-14.3c-1.8-9.4,4.3-18.6,13.8-20.5l69.1-13.4c0,0,0.1,0,0.1,0
			c1.5-0.2,3.1-0.4,4.8-0.2c1.5-0.2,2.9,0,4.4,0.2l0.3,0c0.1,0,0.1,0,0.2,0l68.8,13.4c9.6,2.1,15.8,11.2,14.1,20.7c0,0,0,0,0,0
			c-1.6,8.4-8.7,14.2-17.3,14.2c-1.1,0-2.3,0-3.3-0.3l-14.1-2.7L300.3,77c2.9,3.6,4.3,8.4,3.7,13c-0.6,4.6-2.9,8.7-6.6,11.5
			c-3.1,2.5-6.8,3.7-10.9,3.7c-5.2,0-10.3-2.4-13.7-6.5L248.9,69l-3.4,35.1C244.6,113.1,237,119.9,228,119.9z M226.7,114.9h1.3
			c6.5,0,11.8-4.9,12.5-11.4l4-41.2c0.1-1,0.8-1.9,1.8-2.2c1-0.3,2,0,2.7,0.8l27.7,34.6c2.4,2.9,6.1,4.7,9.8,4.7
			c3,0,5.6-0.9,7.9-2.7c2.6-2,4.3-4.9,4.7-8.2c0.4-3.3-0.6-6.7-2.7-9.3l-17.6-22c-0.7-0.8-0.7-2-0.2-2.9s1.6-1.4,2.6-1.2l20.8,4
			c0,0,0.1,0,0.1,0c0.5,0.1,1.4,0.1,2.2,0.1c6.1,0,11.2-4.2,12.3-10.2c1.2-6.9-3.3-13.4-10.2-14.9l-68.9-13.4
			c-1.4-0.2-2.5-0.3-3.4-0.2c-0.2,0-0.5,0-0.7,0c-1-0.1-2.4,0-3.6,0.2l-69,13.4c-6.7,1.3-11.1,7.9-9.8,14.7
			c1,5.8,6.2,10.2,12.1,10.2c0.7,0,1.6,0,2.3-0.2l27.8-5.4c1-0.2,2.1,0.3,2.6,1.2s0.5,2-0.2,2.8l-16.1,20.4
			c-2.1,2.6-3.1,5.8-2.7,9.1c0.4,3.3,2,6.3,4.7,8.4c2.2,1.7,5,2.7,7.9,2.7c3.9,0,7.5-1.7,9.8-4.6l14.4-18c0.7-0.9,1.9-1.2,2.9-0.8
			c1,0.4,1.7,1.5,1.5,2.6l-2.4,25c-0.3,3.3,0.7,6.6,2.8,9.2C220.6,113,223.5,114.6,226.7,114.9z M319.1,48.6L319.1,48.6L319.1,48.6z
			"/>
	</g>
</g>
</svg>
