<?xml version="1.0" encoding="utf-8"?>
<!-- Generator: Adobe Illustrator 22.1.0, SVG Export Plug-In . SVG Version: 6.00 Build 0)  -->
<svg version="1.1" id="Layer_1" xmlns="http://www.w3.org/2000/svg" xmlns:xlink="http://www.w3.org/1999/xlink" x="0px" y="0px"
	 viewBox="0 0 512 512" style="enable-background:new 0 0 512 512;" xml:space="preserve">
<g>
	<circle cx="163.2" cy="51.2" r="3.5"/>
	<circle cx="200" cy="40.1" r="3.5"/>
	<circle cx="250.6" cy="32.8" r="3.5"/>
	<circle cx="305.8" cy="38.5" r="3.5"/>
	<circle cx="349" cy="55.6" r="3.5"/>
	<circle cx="381.4" cy="79.3" r="3.5"/>
	<circle cx="404.2" cy="108.7" r="3.5"/>
	<circle cx="418.3" cy="142.5" r="3.5"/>
	<circle cx="424.8" cy="179.6" r="3.5"/>
	<circle cx="424.8" cy="218.8" r="3.5"/>
	<circle cx="419.3" cy="259" r="3.5"/>
	<circle cx="409.5" cy="299" r="3.5"/>
	<circle cx="396.2" cy="338.2" r="3.5"/>
	<circle cx="374.6" cy="385.6" r="3.5"/>
	<circle cx="349.4" cy="426.3" r="3.5"/>
	<circle cx="321.4" cy="459.1" r="3.5"/>
	<circle cx="291.5" cy="482.4" r="3.5"/>
	<circle cx="260.8" cy="494.9" r="3.5"/>
	<circle cx="230.1" cy="495.3" r="3.5"/>
	<circle cx="202" cy="483.3" r="3.5"/>
	<circle cx="177.6" cy="463" r="3.5"/>
	<circle cx="153.6" cy="435.3" r="3.5"/>
	<circle cx="130.7" cy="401.6" r="3.5"/>
	<circle cx="109.7" cy="363.6" r="3.5"/>
	<circle cx="91.4" cy="322.9" r="3.5"/>
	<circle cx="76.4" cy="281.1" r="3.5"/>
	<circle cx="65.5" cy="239.8" r="3.5"/>
	<circle cx="59" cy="194.6" r="3.5"/>
	<circle cx="68.2" cy="134.8" r="3.5"/>
	<circle cx="92.8" cy="95.4" r="3.5"/>
	<circle cx="130" cy="67" r="3.5"/>
</g>
</svg>
