<?xml version="1.0" encoding="utf-8"?>
<!-- Generator: Adobe Illustrator 22.1.0, SVG Export Plug-In . SVG Version: 6.00 Build 0)  -->
<svg version="1.1" id="Layer_1" xmlns="http://www.w3.org/2000/svg" xmlns:xlink="http://www.w3.org/1999/xlink" x="0px" y="0px"
	 viewBox="0 0 512 512" style="enable-background:new 0 0 512 512;" xml:space="preserve">
<g>
	<g>
		<path d="M256.4,120.9c-29.9,0-60.1-6.2-60.1-18c0-8.3,14.5-12.8,26.7-15.2c8.2-1.6,15.3-6.3,19.9-13.2c4.7-7,6.3-15.4,4.6-23.6
			c-2-9.7-6.5-22-16.3-25.1c-1.8-0.6-3.4-1.9-4.2-3.6c-0.9-1.7-1.1-3.7-0.5-5.5c1.2-3.8,5.3-5.9,9.1-4.7
			c15.7,4.9,25.2,21.2,28.2,48.5c1.4,13.6,11.7,24.8,25.2,27.3c12.5,2.1,27.4,6.5,27.4,15.2C316.5,114.7,286.3,120.9,256.4,120.9z
			 M233.5,16.6c-1,0-1.9,0.6-2.2,1.6c-0.2,0.6-0.1,1.2,0.2,1.7c0.3,0.5,0.8,0.9,1.3,1.1c9.6,3.1,16.4,13,19.7,28.9
			c2,9.6,0.1,19.3-5.3,27.4c-5.4,8.1-13.6,13.5-23.1,15.4c-15.6,3-22.7,7.4-22.7,10.2c0,5.3,21.5,13,55.1,13
			c33.6,0,55.1-7.7,55.1-13c0-3-7.3-7.5-23.3-10.2c-15.7-2.9-27.7-16-29.3-31.7c-2.8-25.1-11.1-40-24.8-44.3
			C233.9,16.6,233.7,16.6,233.5,16.6z"/>
	</g>
</g>
</svg>
