<?xml version="1.0" encoding="utf-8"?>
<!-- Generator: Adobe Illustrator 22.1.0, SVG Export Plug-In . SVG Version: 6.00 Build 0)  -->
<svg version="1.1" id="Layer_1" xmlns="http://www.w3.org/2000/svg" xmlns:xlink="http://www.w3.org/1999/xlink" x="0px" y="0px"
	 viewBox="0 0 512 512" style="enable-background:new 0 0 512 512;" xml:space="preserve">
<g>
	<g>
		<path d="M261.5,223.6c-24.3,0-44-19.7-44-44s19.7-44,44-44s44,19.7,44,44S285.8,223.6,261.5,223.6z M261.5,140.6
			c-21.5,0-39,17.5-39,39s17.5,39,39,39s39-17.5,39-39S283,140.6,261.5,140.6z"/>
	</g>
	<g>
		<path d="M367.5,336.2c-28.9,0-52.5-23.6-52.5-52.5c0-28.9,23.6-52.5,52.5-52.5s52.5,23.6,52.5,52.5
			C420,312.6,396.4,336.2,367.5,336.2z M367.5,236.2c-26.2,0-47.5,21.3-47.5,47.5s21.3,47.5,47.5,47.5s47.5-21.3,47.5-47.5
			S393.7,236.2,367.5,236.2z"/>
	</g>
	<g>
		<path d="M153.8,327.9c-29.6,0-53.7-24.1-53.7-53.7s24.1-53.7,53.7-53.7s53.7,24.1,53.7,53.7S183.4,327.9,153.8,327.9z
			 M153.8,225.5c-26.9,0-48.7,21.8-48.7,48.7s21.8,48.7,48.7,48.7c26.9,0,48.7-21.8,48.7-48.7S180.7,225.5,153.8,225.5z"/>
	</g>
	<g>
		<path d="M276,450.1c-32.5,0-59-26.5-59-59s26.5-59,59-59c32.5,0,59,26.5,59,59S308.5,450.1,276,450.1z M276,337.1
			c-29.8,0-54,24.2-54,54s24.2,54,54,54c29.8,0,54-24.2,54-54S305.8,337.1,276,337.1z"/>
	</g>
	<g>
		<path d="M326.4,182.2c-7.7,0-16-1.7-24.7-5.1c-0.9-0.3-1.5-1.1-1.6-2.1c-2.1-19.8-18.8-34.8-38.8-34.8c-3,0-6.3,0.4-10,1.3
			c-0.8,0.2-1.7,0-2.4-0.7l-3.3-3.3c-0.6-0.6-0.9-1.5-0.7-2.4s0.9-1.5,1.7-1.8c14.2-4,25.6-8.1,30.9-10.2
			C246.1,87.2,267.1,19.6,268,16.6c0.4-1.2,1.5-1.9,2.7-1.7c34.9,4.6,58.6,19.5,72.3,31.3c11.2,9.6,17.7,18.5,20.4,22.5
			c15.2-10.8,23-23.6,23.1-23.7c0.5-0.8,1.4-1.3,2.3-1.2c0.9,0.1,1.8,0.6,2.1,1.5c16.2,36.8,18.8,66.7,7.9,89
			c-10.6,21.6-30.3,28.4-34.6,29.7C353.9,176.1,341.1,182.2,326.4,182.2z M304.9,173c23,8.5,41.9,4.2,56-12.8
			c0.3-0.4,0.8-0.7,1.3-0.8l0,0c0.2-0.1,21.6-5.6,32.2-27.3c9.8-20.1,7.7-47.2-6.2-80.6c-3.8,5.2-11.8,14.7-24.1,22.9
			c-0.6,0.4-1.3,0.5-2,0.4c-0.7-0.2-1.3-0.6-1.6-1.2c-0.3-0.4-25.7-44.2-88.3-53.4c-3.3,11.8-18.4,72.4,11.6,102.4
			c0.6,0.6,0.8,1.4,0.7,2.3c-0.2,0.8-0.7,1.5-1.5,1.8c-0.1,0-10.2,4.2-25.3,8.9c1.2-0.1,2.4-0.2,3.6-0.2
			C283.4,135.3,301.9,151.4,304.9,173z"/>
	</g>
	<g>
		<g>
			<path d="M183.5,359c-0.7,0-1.4-0.3-1.9-0.9c-0.9-1.1-0.7-2.6,0.3-3.5c30.6-25.5,70.9-65.1,109.9-103.3c38-37.3,74-72.6,92.2-85.8
				c1.1-0.8,2.7-0.6,3.5,0.6c0.8,1.1,0.6,2.7-0.6,3.5c-17.9,13-53.7,48.1-91.6,85.3c-39.1,38.3-79.5,78-110.2,103.6
				C184.6,358.8,184.1,359,183.5,359z"/>
		</g>
		<g>
			<path d="M345.5,239c-1.1,0-2.2-0.8-2.4-2c-0.1-0.5-2.9-12-18.1-12c-1.4,0-2.5-1.1-2.5-2.5s1.1-2.5,2.5-2.5
				c19.3,0,22.9,15.8,22.9,16c0.3,1.4-0.6,2.7-1.9,3C345.8,239,345.7,239,345.5,239z"/>
		</g>
		<g>
			<path d="M276.5,337c-1.4,0-2.5-1.1-2.5-2.5c0-22.5,0-32.8-14.2-44.1c-1.1-0.9-1.3-2.4-0.4-3.5c0.9-1.1,2.4-1.3,3.5-0.4
				c16,12.9,16,24.6,16,48.1C279,335.9,277.9,337,276.5,337z"/>
		</g>
		<g>
			<path d="M204.5,277c-0.8,0-1.6-0.4-2.1-1.2c-0.7-1.2-0.4-2.7,0.8-3.5c1.1-0.7,27.9-17.2,73.9-7.3c1.3,0.3,2.2,1.6,1.9,3
				c-0.3,1.3-1.6,2.2-3,1.9c-44-9.5-69.9,6.5-70.1,6.7C205.4,276.9,205,277,204.5,277z"/>
		</g>
		<g>
			<path d="M341.9,204.7c-0.6,0-1.3-0.2-1.8-0.7c-10.7-10.5-37.8-15-38-15c-1.4-0.2-2.3-1.5-2.1-2.9c0.2-1.4,1.5-2.3,2.9-2.1
				c1.2,0.2,28.9,4.8,40.8,16.4c1,1,1,2.6,0,3.5C343.2,204.5,342.5,204.7,341.9,204.7z"/>
		</g>
		<g>
			<path d="M363,184c0,0-0.1,0-0.1,0c-1.4-0.1-2.4-1.2-2.4-2.6c0.3-5.6-0.1-21-5-25.8c-1-1-1-2.6,0-3.5c1-1,2.6-1,3.5,0
				c7.3,7.2,6.5,27.3,6.4,29.6C365.4,183,364.3,184,363,184z"/>
		</g>
	</g>
</g>
</svg>
