<?xml version="1.0" encoding="utf-8"?>
<!-- Generator: Adobe Illustrator 22.1.0, SVG Export Plug-In . SVG Version: 6.00 Build 0)  -->
<svg version="1.1" id="Layer_1" xmlns="http://www.w3.org/2000/svg" xmlns:xlink="http://www.w3.org/1999/xlink" x="0px" y="0px"
	 viewBox="0 0 512 512" style="enable-background:new 0 0 512 512;" xml:space="preserve">
<g style="opacity:0;">
	<circle cx="230.5" cy="25.5" r="3.5"/>
	<circle cx="266.5" cy="25.5" r="3.5"/>
	<circle cx="302.5" cy="25.5" r="3.5"/>
	<circle cx="313.5" cy="60.5" r="3.5"/>
	<circle cx="328.5" cy="103.5" r="3.5"/>
	<circle cx="343.5" cy="144.5" r="3.5"/>
	<circle cx="357.5" cy="188.5" r="3.5"/>
	<circle cx="374.5" cy="232.5" r="3.5"/>
	<circle cx="388.5" cy="277.5" r="3.5"/>
	<circle cx="406.5" cy="329.5" r="3.5"/>
	<circle cx="420.5" cy="369.5" r="3.5"/>
	<circle cx="435.5" cy="413.5" r="3.5"/>
	<circle cx="449.5" cy="455.5" r="3.5"/>
	<circle cx="463.5" cy="494.5" r="3.5"/>
	<circle cx="398.5" cy="494.5" r="3.5"/>
	<circle cx="385.5" cy="458.5" r="3.5"/>
	<circle cx="371.5" cy="413.5" r="3.5"/>
	<circle cx="357.5" cy="372.5" r="3.5"/>
	<circle cx="347.5" cy="346.5" r="3.5"/>
	<circle cx="300.5" cy="346.5" r="3.5"/>
	<circle cx="240.5" cy="346.5" r="3.5"/>
	<circle cx="181.5" cy="346.5" r="3.5"/>
	<circle cx="170.5" cy="379.5" r="3.5"/>
	<circle cx="159.5" cy="413.5" r="3.5"/>
	<circle cx="145.5" cy="454.5" r="3.5"/>
	<circle cx="132.5" cy="494.5" r="3.5"/>
	<circle cx="69.5" cy="494.5" r="3.5"/>
	<circle cx="85.5" cy="447.5" r="3.5"/>
	<circle cx="101.5" cy="403.5" r="3.5"/>
	<circle cx="114.5" cy="363.5" r="3.5"/>
	<circle cx="132.5" cy="310.5" r="3.5"/>
	<circle cx="151.5" cy="254.5" r="3.5"/>
	<circle cx="169.5" cy="205.5" r="3.5"/>
	<circle cx="185.5" cy="152.5" r="3.5"/>
	<circle cx="203.5" cy="101.5" r="3.5"/>
	<circle cx="218.5" cy="59.5" r="3.5"/>
</g>
<g>
	<polygon style="fill:none;stroke:#000000;stroke-width:5;stroke-miterlimit:10;" points="263,80 332,298 194,298 	"/>
</g>
</svg>
