<?xml version="1.0" encoding="utf-8"?>
<!-- Generator: Adobe Illustrator 22.1.0, SVG Export Plug-In . SVG Version: 6.00 Build 0)  -->
<svg version="1.1" id="Layer_1" xmlns="http://www.w3.org/2000/svg" xmlns:xlink="http://www.w3.org/1999/xlink" x="0px" y="0px"
	 viewBox="0 0 512 512" style="enable-background:new 0 0 512 512;" xml:space="preserve">
<g>
	<path style="fill:none;stroke:#000000;stroke-width:5;" d="M166.8,223.6h54.9c64,0,101.5-33.4,101.5-78.6
		c0-54.9-41.7-76.5-102.9-76.5c-27.8,0-43.8,2.1-53.5,4.2L166.8,223.6L166.8,223.6z M166.8,448.2c11.8,2.1,29.2,2.8,50.8,2.8
		c62.6,0,120.3-22.9,120.3-91.1c0-64-54.9-90.4-121-90.4h-50.1L166.8,448.2L166.8,448.2z"/>
</g>
<g style="opacity:0;">
	<circle cx="106.5" cy="31.5" r="3.5"/>
	<circle cx="146.5" cy="25.5" r="3.5"/>
	<circle cx="182.5" cy="23.5" r="3.5"/>
	<circle cx="214.5" cy="21.5" r="3.5"/>
	<circle cx="241.5" cy="22.5" r="3.5"/>
	<circle cx="266.5" cy="25.5" r="3.5"/>
	<circle cx="291.5" cy="30.5" r="3.5"/>
	<circle cx="315.5" cy="38.5" r="3.5"/>
	<circle cx="337.5" cy="49.5" r="3.5"/>
	<circle cx="355.5" cy="65.5" r="3.5"/>
	<circle cx="371.5" cy="84.5" r="3.5"/>
	<circle cx="380.5" cy="108.5" r="3.5"/>
	<circle cx="384.5" cy="132.5" r="3.5"/>
	<circle cx="382.5" cy="157.5" r="3.5"/>
	<circle cx="373.5" cy="184.5" r="3.5"/>
	<circle cx="360.5" cy="203.5" r="3.5"/>
	<circle cx="344.5" cy="219.5" r="3.5"/>
	<circle cx="322.5" cy="233.5" r="3.5"/>
	<circle cx="305.5" cy="242.5" r="3.5"/>
	<circle cx="322.5" cy="248.5" r="3.5"/>
	<circle cx="342.5" cy="258.5" r="3.5"/>
	<circle cx="362.5" cy="272.5" r="3.5"/>
	<circle cx="377.5" cy="289.5" r="3.5"/>
	<circle cx="390.5" cy="309.5" r="3.5"/>
	<circle cx="398.5" cy="331.5" r="3.5"/>
	<circle cx="402.5" cy="353.5" r="3.5"/>
	<circle cx="400.5" cy="374.5" r="3.5"/>
	<circle cx="397.5" cy="394.5" r="3.5"/>
	<circle cx="391.5" cy="413.5" r="3.5"/>
	<circle cx="381.5" cy="430.5" r="3.5"/>
	<circle cx="366.5" cy="449.5" r="3.5"/>
	<circle cx="349.5" cy="464.5" r="3.5"/>
	<circle cx="332.5" cy="474.5" r="3.5"/>
	<circle cx="316.5" cy="481.5" r="3.5"/>
	<circle cx="296.5" cy="487.5" r="3.5"/>
	<circle cx="274.5" cy="492.5" r="3.5"/>
	<circle cx="250.5" cy="495.5" r="3.5"/>
	<circle cx="225.5" cy="497.5" r="3.5"/>
	<circle cx="202.5" cy="498.5" r="3.5"/>
	<circle cx="174.5" cy="497.5" r="3.5"/>
	<circle cx="139.5" cy="496.5" r="3.5"/>
	<circle cx="107.5" cy="492.5" r="3.5"/>
	<circle cx="107.5" cy="449.5" r="3.5"/>
	<circle cx="107.5" cy="406.5" r="3.5"/>
	<circle cx="107.5" cy="363.5" r="3.5"/>
	<circle cx="107.5" cy="320.5" r="3.5"/>
	<circle cx="107.5" cy="277.5" r="3.5"/>
	<circle cx="107.5" cy="234.5" r="3.5"/>
	<circle cx="107.5" cy="191.5" r="3.5"/>
	<circle cx="107.5" cy="148.5" r="3.5"/>
	<circle cx="107.5" cy="105.5" r="3.5"/>
	<circle cx="107.5" cy="62.5" r="3.5"/>
</g>
</svg>
