<?xml version="1.0" encoding="utf-8"?>
<!-- Generator: Adobe Illustrator 22.1.0, SVG Export Plug-In . SVG Version: 6.00 Build 0)  -->
<svg version="1.1" id="Layer_1" xmlns="http://www.w3.org/2000/svg" xmlns:xlink="http://www.w3.org/1999/xlink" x="0px" y="0px"
	 viewBox="0 0 512 512" style="enable-background:new 0 0 512 512;" xml:space="preserve">
<g>
	<path style="fill:none;stroke:#000000;stroke-width:4;" d="M128.8,446.1c15.3,2.8,37.5,3.5,61.2,3.5
		c129.3,0,199.6-72.3,199.6-198.9c0.7-110.6-61.9-180.8-189.8-180.8c-31.3,0-54.9,2.8-70.9,6.3V446.1z"/>
</g>
<g style="opacity:0;">
	<circle cx="68.5" cy="32.5" r="3.5"/>
	<circle cx="90.5" cy="28.5" r="3.5"/>
	<circle cx="113.5" cy="26.5" r="3.5"/>
	<circle cx="135.5" cy="24.5" r="3.5"/>
	<circle cx="157.5" cy="22.5" r="3.5"/>
	<circle cx="178.5" cy="22.5" r="3.5"/>
	<circle cx="199.5" cy="22.5" r="3.5"/>
	<circle cx="220.5" cy="23.5" r="3.5"/>
	<circle cx="241.5" cy="24.5" r="3.5"/>
	<circle cx="263.5" cy="27.5" r="3.5"/>
	<circle cx="285.5" cy="31.5" r="3.5"/>
	<circle cx="306.5" cy="36.5" r="3.5"/>
	<circle cx="325.5" cy="42.5" r="3.5"/>
	<circle cx="345.5" cy="51.5" r="3.5"/>
	<circle cx="363.5" cy="62.5" r="3.5"/>
	<circle cx="380.5" cy="75.5" r="3.5"/>
	<circle cx="395.5" cy="89.5" r="3.5"/>
	<circle cx="409.5" cy="105.5" r="3.5"/>
	<circle cx="421.5" cy="123.5" r="3.5"/>
	<circle cx="431.5" cy="142.5" r="3.5"/>
	<circle cx="439.5" cy="161.5" r="3.5"/>
	<circle cx="445.5" cy="182.5" r="3.5"/>
	<circle cx="449.5" cy="201.5" r="3.5"/>
	<circle cx="451.5" cy="219.5" r="3.5"/>
	<circle cx="452.5" cy="236.5" r="3.5"/>
	<circle cx="452.5" cy="254.5" r="3.5"/>
	<circle cx="451.5" cy="272.5" r="3.5"/>
	<circle cx="450.5" cy="288.5" r="3.5"/>
	<circle cx="446.5" cy="309.5" r="3.5"/>
	<circle cx="442.5" cy="329.5" r="3.5"/>
	<circle cx="437.5" cy="346.5" r="3.5"/>
	<circle cx="430.5" cy="364.5" r="3.5"/>
	<circle cx="421.5" cy="381.5" r="3.5"/>
	<circle cx="411.5" cy="398.5" r="3.5"/>
	<circle cx="400.5" cy="414.5" r="3.5"/>
	<circle cx="387.5" cy="428.5" r="3.5"/>
	<circle cx="372.5" cy="442.5" r="3.5"/>
	<circle cx="356.5" cy="453.5" r="3.5"/>
	<circle cx="339.5" cy="464.5" r="3.5"/>
	<circle cx="319.5" cy="473.5" r="3.5"/>
	<circle cx="300.5" cy="480.5" r="3.5"/>
	<circle cx="279.5" cy="486.5" r="3.5"/>
	<circle cx="257.5" cy="491.5" r="3.5"/>
	<circle cx="236.5" cy="495.5" r="3.5"/>
	<circle cx="212.5" cy="496.5" r="3.5"/>
	<circle cx="186.5" cy="498.5" r="3.5"/>
	<circle cx="158.5" cy="498.5" r="3.5"/>
	<circle cx="130.5" cy="497.5" r="3.5"/>
	<circle cx="100.5" cy="495.5" r="3.5"/>
	<circle cx="67.5" cy="493.5" r="3.5"/>
	<circle cx="67.5" cy="462.5" r="3.5"/>
	<circle cx="67.5" cy="431.5" r="3.5"/>
	<circle cx="67.5" cy="400.5" r="3.5"/>
	<circle cx="67.5" cy="369.5" r="3.5"/>
	<circle cx="67.5" cy="338.5" r="3.5"/>
	<circle cx="67.5" cy="307.5" r="3.5"/>
	<circle cx="67.5" cy="276.5" r="3.5"/>
	<circle cx="67.5" cy="245.5" r="3.5"/>
	<circle cx="67.5" cy="214.5" r="3.5"/>
	<circle cx="67.5" cy="183.5" r="3.5"/>
	<circle cx="67.5" cy="152.5" r="3.5"/>
	<circle cx="67.5" cy="121.5" r="3.5"/>
	<circle cx="67.5" cy="90.5" r="3.5"/>
	<circle cx="67.5" cy="59.5" r="3.5"/>
</g>
</svg>
