<?xml version="1.0" encoding="utf-8"?>
<!-- Generator: Adobe Illustrator 22.1.0, SVG Export Plug-In . SVG Version: 6.00 Build 0)  -->
<svg version="1.1" id="Layer_1" xmlns="http://www.w3.org/2000/svg" xmlns:xlink="http://www.w3.org/1999/xlink" x="0px" y="0px"
	 viewBox="0 0 512 512" style="enable-background:new 0 0 512 512;" xml:space="preserve">
<g>
	<circle cx="128.5" cy="26.5" r="3.5"/>
	<circle cx="189.5" cy="26.5" r="3.5"/>
	<circle cx="254.5" cy="26.5" r="3.5"/>
	<circle cx="316.5" cy="26.5" r="3.5"/>
	<circle cx="381.5" cy="26.5" r="3.5"/>
	<circle cx="381.5" cy="75.5" r="3.5"/>
	<circle cx="316.5" cy="75.5" r="3.5"/>
	<circle cx="255.5" cy="75.5" r="3.5"/>
	<circle cx="189.5" cy="75.5" r="3.5"/>
	<circle cx="189.5" cy="115.5" r="3.5"/>
	<circle cx="189.5" cy="166.5" r="3.5"/>
	<circle cx="189.5" cy="223.5" r="3.5"/>
	<circle cx="255.5" cy="223.5" r="3.5"/>
	<circle cx="316.5" cy="223.5" r="3.5"/>
	<circle cx="369.5" cy="223.5" r="3.5"/>
	<circle cx="369.5" cy="274.5" r="3.5"/>
	<circle cx="316.5" cy="274.5" r="3.5"/>
	<circle cx="255.5" cy="274.5" r="3.5"/>
	<circle cx="189.5" cy="274.5" r="3.5"/>
	<circle cx="189.5" cy="319.5" r="3.5"/>
	<circle cx="189.5" cy="375.5" r="3.5"/>
	<circle cx="189.5" cy="443.5" r="3.5"/>
	<circle cx="254.5" cy="443.5" r="3.5"/>
	<circle cx="320.5" cy="443.5" r="3.5"/>
	<circle cx="391.5" cy="443.5" r="3.5"/>
	<circle cx="391.5" cy="494.5" r="3.5"/>
	<circle cx="321.5" cy="494.5" r="3.5"/>
	<circle cx="255.5" cy="494.5" r="3.5"/>
	<circle cx="190.5" cy="494.5" r="3.5"/>
	<circle cx="128.5" cy="494.5" r="3.5"/>
	<circle cx="128.5" cy="443.5" r="3.5"/>
	<circle cx="128.5" cy="382.5" r="3.5"/>
	<circle cx="128.5" cy="319.5" r="3.5"/>
	<circle cx="128.5" cy="256.5" r="3.5"/>
	<circle cx="128.5" cy="193.5" r="3.5"/>
	<circle cx="128.5" cy="130.5" r="3.5"/>
	<circle cx="128.5" cy="67.5" r="3.5"/>
</g>
</svg>
