<?xml version="1.0" encoding="utf-8"?>
<!-- Generator: Adobe Illustrator 22.1.0, SVG Export Plug-In . SVG Version: 6.00 Build 0)  -->
<svg version="1.1" id="Layer_1" xmlns="http://www.w3.org/2000/svg" xmlns:xlink="http://www.w3.org/1999/xlink" x="0px" y="0px"
	 viewBox="0 0 512 512" style="enable-background:new 0 0 512 512;" xml:space="preserve">
<g>
	<circle cx="128.5" cy="26.5" r="3.5"/>
	<circle cx="186.5" cy="26.5" r="3.5"/>
	<circle cx="252.5" cy="26.5" r="3.5"/>
	<circle cx="312.5" cy="26.5" r="3.5"/>
	<circle cx="380.5" cy="26.5" r="3.5"/>
	<circle cx="380.5" cy="76.5" r="3.5"/>
	<circle cx="314.5" cy="76.5" r="3.5"/>
	<circle cx="250.5" cy="76.5" r="3.5"/>
	<circle cx="189.5" cy="76.5" r="3.5"/>
	<circle cx="189.5" cy="119.5" r="3.5"/>
	<circle cx="189.5" cy="175.5" r="3.5"/>
	<circle cx="189.5" cy="231.5" r="3.5"/>
	<circle cx="250.5" cy="231.5" r="3.5"/>
	<circle cx="309.5" cy="231.5" r="3.5"/>
	<circle cx="366.5" cy="231.5" r="3.5"/>
	<circle cx="366.5" cy="281.5" r="3.5"/>
	<circle cx="309.5" cy="281.5" r="3.5"/>
	<circle cx="252.5" cy="281.5" r="3.5"/>
	<circle cx="189.5" cy="281.5" r="3.5"/>
	<circle cx="189.5" cy="333.5" r="3.5"/>
	<circle cx="189.5" cy="386.5" r="3.5"/>
	<circle cx="189.5" cy="438.5" r="3.5"/>
	<circle cx="189.5" cy="492.5" r="3.5"/>
	<circle cx="128.5" cy="492.5" r="3.5"/>
	<circle cx="128.5" cy="438.5" r="3.5"/>
	<circle cx="128.5" cy="384.5" r="3.5"/>
	<circle cx="128.5" cy="330.5" r="3.5"/>
	<circle cx="128.5" cy="276.5" r="3.5"/>
	<circle cx="128.5" cy="222.5" r="3.5"/>
	<circle cx="128.5" cy="168.5" r="3.5"/>
	<circle cx="128.5" cy="114.5" r="3.5"/>
	<circle cx="128.5" cy="60.5" r="3.5"/>
</g>
</svg>
