<?xml version="1.0" encoding="utf-8"?>
<!-- Generator: Adobe Illustrator 22.1.0, SVG Export Plug-In . SVG Version: 6.00 Build 0)  -->
<svg version="1.1" id="Layer_1" xmlns="http://www.w3.org/2000/svg" xmlns:xlink="http://www.w3.org/1999/xlink" x="0px" y="0px"
	 viewBox="0 0 512 512" style="enable-background:new 0 0 512 512;" xml:space="preserve">
<g>
	<circle cx="424.5" cy="43.5" r="3.5"/>
	<circle cx="395.5" cy="32.5" r="3.5"/>
	<circle cx="363.5" cy="25.5" r="3.5"/>
	<circle cx="337.5" cy="21.5" r="3.5"/>
	<circle cx="311.5" cy="20.5" r="3.5"/>
	<circle cx="288.5" cy="21.5" r="3.5"/>
	<circle cx="259.5" cy="23.5" r="3.5"/>
	<circle cx="230.5" cy="29.5" r="3.5"/>
	<circle cx="202.5" cy="37.5" r="3.5"/>
	<circle cx="150.5" cy="64.5" r="3.5"/>
	<circle cx="110.5" cy="100.5" r="3.5"/>
	<circle cx="80.5" cy="143.5" r="3.5"/>
	<circle cx="63.5" cy="191.5" r="3.5"/>
	<circle cx="54.5" cy="233.5" r="3.5"/>
	<circle cx="53.5" cy="284.5" r="3.5"/>
	<circle cx="60.5" cy="329.5" r="3.5"/>
	<circle cx="77.5" cy="380.5" r="3.5"/>
	<circle cx="104.5" cy="421.5" r="3.5"/>
	<circle cx="138.5" cy="454.5" r="3.5"/>
	<circle cx="172.5" cy="474.5" r="3.5"/>
	<circle cx="209.5" cy="488.5" r="3.5"/>
	<circle cx="252.5" cy="497.5" r="3.5"/>
	<circle cx="299.5" cy="498.5" r="3.5"/>
	<circle cx="348.5" cy="494.5" r="3.5"/>
	<circle cx="392.5" cy="486.5" r="3.5"/>
	<circle cx="437.5" cy="472.5" r="3.5"/>
	<circle cx="437.5" cy="433.5" r="3.5"/>
	<circle cx="437.5" cy="394.5" r="3.5"/>
	<circle cx="437.5" cy="355.5" r="3.5"/>
	<circle cx="437.5" cy="316.5" r="3.5"/>
	<circle cx="437.5" cy="277.5" r="3.5"/>
	<circle cx="437.5" cy="248.5" r="3.5"/>
	<circle cx="384.5" cy="248.5" r="3.5"/>
	<circle cx="331.5" cy="248.5" r="3.5"/>
	<circle cx="283.5" cy="248.5" r="3.5"/>
	<circle cx="283.5" cy="296.5" r="3.5"/>
	<circle cx="331.5" cy="296.5" r="3.5"/>
	<circle cx="379.5" cy="296.5" r="3.5"/>
	<circle cx="379.5" cy="341.5" r="3.5"/>
	<circle cx="379.5" cy="386.5" r="3.5"/>
	<circle cx="379.5" cy="435.5" r="3.5"/>
	<circle cx="341.5" cy="445.5" r="3.5"/>
	<circle cx="293.5" cy="448.5" r="3.5"/>
	<circle cx="251.5" cy="444.5" r="3.5"/>
	<circle cx="212.5" cy="431.5" r="3.5"/>
	<circle cx="179.5" cy="411.5" r="3.5"/>
	<circle cx="153.5" cy="384.5" r="3.5"/>
	<circle cx="133.5" cy="348.5" r="3.5"/>
	<circle cx="121.5" cy="307.5" r="3.5"/>
	<circle cx="117.5" cy="261.5" r="3.5"/>
	<circle cx="120.5" cy="215.5" r="3.5"/>
	<circle cx="133.5" cy="172.5" r="3.5"/>
	<circle cx="157.5" cy="132.5" r="3.5"/>
	<circle cx="191.5" cy="101.5" r="3.5"/>
	<circle cx="232.5" cy="82.5" r="3.5"/>
	<circle cx="272.5" cy="73.5" r="3.5"/>
	<circle cx="315.5" cy="72.5" r="3.5"/>
	<circle cx="356.5" cy="76.5" r="3.5"/>
	<circle cx="394.5" cy="85.5" r="3.5"/>
	<circle cx="409.5" cy="90.5" r="3.5"/>
</g>
</svg>
