<?xml version="1.0" encoding="utf-8"?>
<!-- Generator: Adobe Illustrator 22.1.0, SVG Export Plug-In . SVG Version: 6.00 Build 0)  -->
<svg version="1.1" id="Layer_1" xmlns="http://www.w3.org/2000/svg" xmlns:xlink="http://www.w3.org/1999/xlink" x="0px" y="0px"
	 viewBox="0 0 512 512" style="enable-background:new 0 0 512 512;" xml:space="preserve">
<g>
	<circle cx="25.5" cy="494.5" r="3.5"/>
	<circle cx="31.5" cy="403.5" r="3.5"/>
	<circle cx="39.5" cy="280.5" r="3.5"/>
	<circle cx="50.5" cy="154.5" r="3.5"/>
	<circle cx="57.5" cy="39.5" r="3.5"/>
	<circle cx="131.5" cy="39.5" r="3.5"/>
	<circle cx="172.5" cy="151.5" r="3.5"/>
	<circle cx="217.5" cy="277.5" r="3.5"/>
	<circle cx="256.5" cy="410.5" r="3.5"/>
	<circle cx="300.5" cy="277.5" r="3.5"/>
	<circle cx="346.5" cy="150.5" r="3.5"/>
	<circle cx="387.5" cy="39.5" r="3.5"/>
	<circle cx="461.5" cy="39.5" r="3.5"/>
	<circle cx="469.5" cy="148.5" r="3.5"/>
	<circle cx="476.5" cy="277.5" r="3.5"/>
	<circle cx="486.5" cy="407.5" r="3.5"/>
	<circle cx="490.5" cy="494.5" r="3.5"/>
	<circle cx="434.5" cy="494.5" r="3.5"/>
	<circle cx="427.5" cy="410.5" r="3.5"/>
	<circle cx="421.5" cy="279.5" r="3.5"/>
	<circle cx="414.5" cy="151.5" r="3.5"/>
	<circle cx="414.5" cy="96.5" r="3.5"/>
	<circle cx="396.5" cy="151.5" r="3.5"/>
	<circle cx="353.5" cy="279.5" r="3.5"/>
	<circle cx="303.5" cy="411.5" r="3.5"/>
	<circle cx="274.5" cy="491.5" r="3.5"/>
	<circle cx="229.5" cy="491.5" r="3.5"/>
	<circle cx="202.5" cy="413.5" r="3.5"/>
	<circle cx="162.5" cy="283.5" r="3.5"/>
	<circle cx="118.5" cy="154.5" r="3.5"/>
	<circle cx="101.5" cy="99.5" r="3.5"/>
	<circle cx="101.5" cy="155.5" r="3.5"/>
	<circle cx="94.5" cy="281.5" r="3.5"/>
	<circle cx="85.5" cy="404.5" r="3.5"/>
	<circle cx="81.5" cy="494.5" r="3.5"/>
</g>
</svg>
