<?xml version="1.0" encoding="utf-8"?>
<!-- Generator: Adobe Illustrator 22.1.0, SVG Export Plug-In . SVG Version: 6.00 Build 0)  -->
<svg version="1.1" id="Layer_1" xmlns="http://www.w3.org/2000/svg" xmlns:xlink="http://www.w3.org/1999/xlink" x="0px" y="0px"
	 viewBox="0 0 512 512" style="enable-background:new 0 0 512 512;" xml:space="preserve">
<g>
	<circle cx="429.5" cy="39.5" r="3.5"/>
	<circle cx="429.5" cy="141.5" r="3.5"/>
	<circle cx="429.5" cy="273.5" r="3.5"/>
	<circle cx="429.5" cy="415.5" r="3.5"/>
	<circle cx="429.5" cy="492.5" r="3.5"/>
	<circle cx="371.5" cy="492.5" r="3.5"/>
	<circle cx="329.5" cy="426.5" r="3.5"/>
	<circle cx="234.5" cy="276.5" r="3.5"/>
	<circle cx="159.5" cy="144.5" r="3.5"/>
	<circle cx="139.5" cy="110.5" r="3.5"/>
	<circle cx="143.5" cy="148.5" r="3.5"/>
	<circle cx="143.5" cy="276.5" r="3.5"/>
	<circle cx="143.5" cy="423.5" r="3.5"/>
	<circle cx="143.5" cy="492.5" r="3.5"/>
	<circle cx="86.5" cy="492.5" r="3.5"/>
	<circle cx="86.5" cy="423.5" r="3.5"/>
	<circle cx="86.5" cy="276.5" r="3.5"/>
	<circle cx="86.5" cy="147.5" r="3.5"/>
	<circle cx="86.5" cy="39.5" r="3.5"/>
	<circle cx="156.5" cy="39.5" r="3.5"/>
	<circle cx="216.5" cy="141.5" r="3.5"/>
	<circle cx="296.5" cy="270.5" r="3.5"/>
	<circle cx="378.5" cy="412.5" r="3.5"/>
	<circle cx="374.5" cy="272.5" r="3.5"/>
	<circle cx="374.5" cy="137.5" r="3.5"/>
	<circle cx="374.5" cy="39.5" r="3.5"/>
</g>
</svg>
