<?xml version="1.0" encoding="utf-8"?>
<!-- Generator: Adobe Illustrator 22.1.0, SVG Export Plug-In . SVG Version: 6.00 Build 0)  -->
<svg version="1.1" id="Layer_1" xmlns="http://www.w3.org/2000/svg" xmlns:xlink="http://www.w3.org/1999/xlink" x="0px" y="0px"
	 viewBox="0 0 512 512" style="enable-background:new 0 0 512 512;" xml:space="preserve">
<g style="opacity:0;">
	<circle cx="138.5" cy="44.5" r="3.5"/>
	<circle cx="170.5" cy="40.5" r="3.5"/>
	<circle cx="200.5" cy="36.5" r="3.5"/>
	<circle cx="229.5" cy="35.5" r="3.5"/>
	<circle cx="253.5" cy="35.5" r="3.5"/>
	<circle cx="280.5" cy="37.5" r="3.5"/>
	<circle cx="307.5" cy="40.5" r="3.5"/>
	<circle cx="334.5" cy="47.5" r="3.5"/>
	<circle cx="357.5" cy="58.5" r="3.5"/>
	<circle cx="378.5" cy="73.5" r="3.5"/>
	<circle cx="396.5" cy="93.5" r="3.5"/>
	<circle cx="409.5" cy="116.5" r="3.5"/>
	<circle cx="416.5" cy="142.5" r="3.5"/>
	<circle cx="418.5" cy="166.5" r="3.5"/>
	<circle cx="416.5" cy="190.5" r="3.5"/>
	<circle cx="411.5" cy="218.5" r="3.5"/>
	<circle cx="399.5" cy="244.5" r="3.5"/>
	<circle cx="382.5" cy="265.5" r="3.5"/>
	<circle cx="363.5" cy="281.5" r="3.5"/>
	<circle cx="340.5" cy="294.5" r="3.5"/>
	<circle cx="319.5" cy="302.5" r="3.5"/>
	<circle cx="292.5" cy="309.5" r="3.5"/>
	<circle cx="260.5" cy="313.5" r="3.5"/>
	<circle cx="232.5" cy="313.5" r="3.5"/>
	<circle cx="197.5" cy="311.5" r="3.5"/>
	<circle cx="197.5" cy="368.5" r="3.5"/>
	<circle cx="197.5" cy="429.5" r="3.5"/>
	<circle cx="197.5" cy="494.5" r="3.5"/>
	<circle cx="137.5" cy="494.5" r="3.5"/>
	<circle cx="137.5" cy="429.5" r="3.5"/>
	<circle cx="137.5" cy="368.5" r="3.5"/>
	<circle cx="137.5" cy="305.5" r="3.5"/>
	<circle cx="137.5" cy="239.5" r="3.5"/>
	<circle cx="137.5" cy="174.5" r="3.5"/>
	<circle cx="137.5" cy="109.5" r="3.5"/>
</g>
<g>
	<path style="fill:none;stroke:#000000;stroke-width:4;" d="M197.3,261.3c12.9,3.4,29.1,4.7,48.7,4.7c71,0,114.3-34.5,114.3-97.4
		c0-60.2-42.6-89.3-107.5-89.3c-25.7,0-45.3,2-55.5,4.7V261.3z"/>
</g>
</svg>
