<?xml version="1.0" encoding="utf-8"?>
<!-- Generator: Adobe Illustrator 22.1.0, SVG Export Plug-In . SVG Version: 6.00 Build 0)  -->
<svg version="1.1" id="Layer_1" xmlns="http://www.w3.org/2000/svg" xmlns:xlink="http://www.w3.org/1999/xlink" x="0px" y="0px"
	 viewBox="0 0 512 512" style="enable-background:new 0 0 512 512;" xml:space="preserve">
<circle cx="390.5" cy="48.5" r="3.5"/>
<circle cx="364.5" cy="37.5" r="3.5"/>
<circle cx="336.5" cy="30.5" r="3.5"/>
<circle cx="310.5" cy="27.5" r="3.5"/>
<circle cx="283.5" cy="26.5" r="3.5"/>
<circle cx="250.5" cy="30.5" r="3.5"/>
<circle cx="216.5" cy="41.5" r="3.5"/>
<circle cx="193.5" cy="53.5" r="3.5"/>
<circle cx="173.5" cy="69.5" r="3.5"/>
<circle cx="160.5" cy="85.5" r="3.5"/>
<circle cx="150.5" cy="102.5" r="3.5"/>
<circle cx="145.5" cy="119.5" r="3.5"/>
<circle cx="141.5" cy="140.5" r="3.5"/>
<circle cx="141.5" cy="162.5" r="3.5"/>
<circle cx="146.5" cy="185.5" r="3.5"/>
<circle cx="155.5" cy="207.5" r="3.5"/>
<circle cx="168.5" cy="225.5" r="3.5"/>
<circle cx="182.5" cy="239.5" r="3.5"/>
<circle cx="198.5" cy="251.5" r="3.5"/>
<circle cx="215.5" cy="261.5" r="3.5"/>
<circle cx="233.5" cy="271.5" r="3.5"/>
<circle cx="253.5" cy="279.5" r="3.5"/>
<circle cx="270.5" cy="286.5" r="3.5"/>
<circle cx="290.5" cy="295.5" r="3.5"/>
<circle cx="304.5" cy="303.5" r="3.5"/>
<circle cx="320.5" cy="315.5" r="3.5"/>
<circle cx="333.5" cy="329.5" r="3.5"/>
<circle cx="341.5" cy="344.5" r="3.5"/>
<circle cx="345.5" cy="361.5" r="3.5"/>
<circle cx="345.5" cy="378.5" r="3.5"/>
<circle cx="341.5" cy="396.5" r="3.5"/>
<circle cx="334.5" cy="411.5" r="3.5"/>
<circle cx="325.5" cy="423.5" r="3.5"/>
<circle cx="310.5" cy="434.5" r="3.5"/>
<circle cx="296.5" cy="440.5" r="3.5"/>
<circle cx="280.5" cy="444.5" r="3.5"/>
<circle cx="263.5" cy="446.5" r="3.5"/>
<circle cx="248.5" cy="446.5" r="3.5"/>
<circle cx="229.5" cy="445.5" r="3.5"/>
<circle cx="212.5" cy="443.5" r="3.5"/>
<circle cx="187.5" cy="436.5" r="3.5"/>
<circle cx="163.5" cy="425.5" r="3.5"/>
<circle cx="147.5" cy="417.5" r="3.5"/>
<circle cx="131.5" cy="469.5" r="3.5"/>
<circle cx="150.5" cy="480.5" r="3.5"/>
<circle cx="168.5" cy="487.5" r="3.5"/>
<circle cx="186.5" cy="492.5" r="3.5"/>
<circle cx="204.5" cy="496.5" r="3.5"/>
<circle cx="222.5" cy="498.5" r="3.5"/>
<circle cx="239.5" cy="499.5" r="3.5"/>
<circle cx="255.5" cy="500.5" r="3.5"/>
<circle cx="273.5" cy="499.5" r="3.5"/>
<circle cx="290.5" cy="497.5" r="3.5"/>
<circle cx="306.5" cy="494.5" r="3.5"/>
<circle cx="322.5" cy="489.5" r="3.5"/>
<circle cx="338.5" cy="483.5" r="3.5"/>
<circle cx="352.5" cy="476.5" r="3.5"/>
<circle cx="366.5" cy="466.5" r="3.5"/>
<circle cx="380.5" cy="453.5" r="3.5"/>
<circle cx="391.5" cy="439.5" r="3.5"/>
<circle cx="400.5" cy="423.5" r="3.5"/>
<circle cx="407.5" cy="405.5" r="3.5"/>
<circle cx="411.5" cy="387.5" r="3.5"/>
<circle cx="412.5" cy="367.5" r="3.5"/>
<circle cx="411.5" cy="348.5" r="3.5"/>
<circle cx="407.5" cy="328.5" r="3.5"/>
<circle cx="398.5" cy="306.5" r="3.5"/>
<circle cx="386.5" cy="288.5" r="3.5"/>
<circle cx="374.5" cy="275.5" r="3.5"/>
<circle cx="357.5" cy="262.5" r="3.5"/>
<circle cx="343.5" cy="253.5" r="3.5"/>
<circle cx="327.5" cy="244.5" r="3.5"/>
<circle cx="307.5" cy="235.5" r="3.5"/>
<circle cx="288.5" cy="227.5" r="3.5"/>
<circle cx="271.5" cy="220.5" r="3.5"/>
<circle cx="252.5" cy="211.5" r="3.5"/>
<circle cx="235.5" cy="201.5" r="3.5"/>
<circle cx="223.5" cy="191.5" r="3.5"/>
<circle cx="213.5" cy="179.5" r="3.5"/>
<circle cx="207.5" cy="166.5" r="3.5"/>
<circle cx="204.5" cy="151.5" r="3.5"/>
<circle cx="204.5" cy="136.5" r="3.5"/>
<circle cx="208.5" cy="121.5" r="3.5"/>
<circle cx="215.5" cy="109.5" r="3.5"/>
<circle cx="224.5" cy="99.5" r="3.5"/>
<circle cx="232.5" cy="92.5" r="3.5"/>
<circle cx="243.5" cy="87.5" r="3.5"/>
<circle cx="254.5" cy="83.5" r="3.5"/>
<circle cx="273.5" cy="79.5" r="3.5"/>
<circle cx="296.5" cy="79.5" r="3.5"/>
<circle cx="312.5" cy="80.5" r="3.5"/>
<circle cx="336.5" cy="85.5" r="3.5"/>
<circle cx="356.5" cy="92.5" r="3.5"/>
<circle cx="371.5" cy="98.5" r="3.5"/>
</svg>
