<?xml version="1.0" encoding="utf-8"?>
<!-- Generator: Adobe Illustrator 22.1.0, SVG Export Plug-In . SVG Version: 6.00 Build 0)  -->
<svg version="1.1" id="Layer_1" xmlns="http://www.w3.org/2000/svg" xmlns:xlink="http://www.w3.org/1999/xlink" x="0px" y="0px"
	 viewBox="0 0 512 512" style="enable-background:new 0 0 512 512;" xml:space="preserve">
<g>
	<circle cx="55.5" cy="34.5" r="3.5"/>
	<circle cx="72.5" cy="84.5" r="3.5"/>
	<circle cx="92.5" cy="145.5" r="3.5"/>
	<circle cx="112.5" cy="206.5" r="3.5"/>
	<circle cx="133.5" cy="273.5" r="3.5"/>
	<circle cx="158.5" cy="348.5" r="3.5"/>
	<circle cx="186.5" cy="433.5" r="3.5"/>
	<circle cx="204.5" cy="491.5" r="3.5"/>
	<circle cx="269.5" cy="491.5" r="3.5"/>
	<circle cx="289.5" cy="436.5" r="3.5"/>
	<circle cx="315.5" cy="366.5" r="3.5"/>
	<circle cx="341.5" cy="296.5" r="3.5"/>
	<circle cx="366.5" cy="226.5" r="3.5"/>
	<circle cx="391.5" cy="156.5" r="3.5"/>
	<circle cx="416.5" cy="86.5" r="3.5"/>
	<circle cx="434.5" cy="34.5" r="3.5"/>
	<circle cx="369.5" cy="34.5" r="3.5"/>
	<circle cx="354.5" cy="81.5" r="3.5"/>
	<circle cx="331.5" cy="149.5" r="3.5"/>
	<circle cx="308.5" cy="217.5" r="3.5"/>
	<circle cx="285.5" cy="285.5" r="3.5"/>
	<circle cx="262.5" cy="353.5" r="3.5"/>
	<circle cx="240.5" cy="430.5" r="3.5"/>
	<circle cx="218.5" cy="353.5" r="3.5"/>
	<circle cx="196.5" cy="273.5" r="3.5"/>
	<circle cx="170.5" cy="193.5" r="3.5"/>
	<circle cx="146.5" cy="113.5" r="3.5"/>
	<circle cx="118.5" cy="33.5" r="3.5"/>
</g>
</svg>
