<?xml version="1.0" encoding="utf-8"?>
<!-- Generator: Adobe Illustrator 22.1.0, SVG Export Plug-In . SVG Version: 6.00 Build 0)  -->
<svg version="1.1" id="Layer_1" xmlns="http://www.w3.org/2000/svg" xmlns:xlink="http://www.w3.org/1999/xlink" x="0px" y="0px"
	 viewBox="0 0 512 512" style="enable-background:new 0 0 512 512;" xml:space="preserve">
<g>
	<circle cx="11.5" cy="67.5" r="3.5"/>
	<circle cx="29.5" cy="138.5" r="3.5"/>
	<circle cx="51.5" cy="221.5" r="3.5"/>
	<circle cx="69.5" cy="296.5" r="3.5"/>
	<circle cx="96.5" cy="405.5" r="3.5"/>
	<circle cx="113.5" cy="465.5" r="3.5"/>
	<circle cx="165.5" cy="465.5" r="3.5"/>
	<circle cx="183.5" cy="405.5" r="3.5"/>
	<circle cx="210.5" cy="307.5" r="3.5"/>
	<circle cx="233.5" cy="221.5" r="3.5"/>
	<circle cx="253.5" cy="128.5" r="3.5"/>
	<circle cx="273.5" cy="221.5" r="3.5"/>
	<circle cx="292.5" cy="306.5" r="3.5"/>
	<circle cx="318.5" cy="407.5" r="3.5"/>
	<circle cx="331.5" cy="465.5" r="3.5"/>
	<circle cx="385.5" cy="465.5" r="3.5"/>
	<circle cx="401.5" cy="408.5" r="3.5"/>
	<circle cx="427.5" cy="316.5" r="3.5"/>
	<circle cx="455.5" cy="221.5" r="3.5"/>
	<circle cx="480.5" cy="128.5" r="3.5"/>
	<circle cx="497.5" cy="67.5" r="3.5"/>
	<circle cx="444.5" cy="67.5" r="3.5"/>
	<circle cx="430.5" cy="123.5" r="3.5"/>
	<circle cx="404.5" cy="214.5" r="3.5"/>
	<circle cx="381.5" cy="316.5" r="3.5"/>
	<circle cx="359.5" cy="404.5" r="3.5"/>
	<circle cx="341.5" cy="306.5" r="3.5"/>
	<circle cx="318.5" cy="217.5" r="3.5"/>
	<circle cx="296.5" cy="124.5" r="3.5"/>
	<circle cx="283.5" cy="67.5" r="3.5"/>
	<circle cx="227.5" cy="67.5" r="3.5"/>
	<circle cx="213.5" cy="125.5" r="3.5"/>
	<circle cx="190.5" cy="221.5" r="3.5"/>
	<circle cx="165.5" cy="304.5" r="3.5"/>
	<circle cx="142.5" cy="404.5" r="3.5"/>
	<circle cx="120.5" cy="306.5" r="3.5"/>
	<circle cx="101.5" cy="220.5" r="3.5"/>
	<circle cx="82.5" cy="134.5" r="3.5"/>
	<circle cx="65.5" cy="67.5" r="3.5"/>
</g>
</svg>
