<?xml version="1.0" encoding="utf-8"?>
<!-- Generator: Adobe Illustrator 22.1.0, SVG Export Plug-In . SVG Version: 6.00 Build 0)  -->
<svg version="1.1" id="Layer_1" xmlns="http://www.w3.org/2000/svg" xmlns:xlink="http://www.w3.org/1999/xlink" x="0px" y="0px"
	 viewBox="0 0 512 512" style="enable-background:new 0 0 512 512;" xml:space="preserve">
<g>
	<circle cx="116.5" cy="34.5" r="3.5"/>
	<circle cx="234.5" cy="34.5" r="3.5"/>
	<circle cx="347.5" cy="34.5" r="3.5"/>
	<circle cx="423.5" cy="34.5" r="3.5"/>
	<circle cx="423.5" cy="68.5" r="3.5"/>
	<circle cx="376.5" cy="139.5" r="3.5"/>
	<circle cx="329.5" cy="210.5" r="3.5"/>
	<circle cx="279.5" cy="281.5" r="3.5"/>
	<circle cx="229.5" cy="357.5" r="3.5"/>
	<circle cx="174.5" cy="439.5" r="3.5"/>
	<circle cx="279.5" cy="439.5" r="3.5"/>
	<circle cx="359.5" cy="439.5" r="3.5"/>
	<circle cx="427.5" cy="439.5" r="3.5"/>
	<circle cx="427.5" cy="490.5" r="3.5"/>
	<circle cx="359.5" cy="490.5" r="3.5"/>
	<circle cx="279.5" cy="490.5" r="3.5"/>
	<circle cx="170.5" cy="490.5" r="3.5"/>
	<circle cx="94.5" cy="490.5" r="3.5"/>
	<circle cx="94.5" cy="456.5" r="3.5"/>
	<circle cx="166.5" cy="350.5" r="3.5"/>
	<circle cx="226.5" cy="263.5" r="3.5"/>
	<circle cx="286.5" cy="175.5" r="3.5"/>
	<circle cx="347.5" cy="85.5" r="3.5"/>
	<circle cx="234.5" cy="85.5" r="3.5"/>
	<circle cx="116.5" cy="85.5" r="3.5"/>
</g>
</svg>
