<?xml version="1.0" encoding="utf-8"?>
<!-- Generator: Adobe Illustrator 22.1.0, SVG Export Plug-In . SVG Version: 6.00 Build 0)  -->
<svg version="1.1" id="Layer_1" xmlns="http://www.w3.org/2000/svg" xmlns:xlink="http://www.w3.org/1999/xlink" x="0px" y="0px"
	 viewBox="0 0 512 512" style="enable-background:new 0 0 512 512;" xml:space="preserve">
<g transform="translate(686.32 -393.91)">
	<path style="fill:none;stroke:#000000;stroke-width:5;stroke-miterlimit:10;" d="M-604.7,809.1c4.8-4.8,12.5-4.9,17.4,0.1
		c4.8,4.8,4.9,12.5,0.1,17.2c-4.8,4.8-12.5,4.9-17.4-0.1C-609.6,821.7-609.5,813.9-604.7,809.1z"/>
	<path style="fill:none;stroke:#000000;stroke-width:5;stroke-miterlimit:10;" d="M-487.1,696.3c3.2-3.2,8.2-3.2,11.5-0.1
		c3.2,3.2,3.3,8.4,0.1,11.5s-8.2,3.2-11.5,0.1C-490.1,704.6-490.3,699.4-487.1,696.3z"/>
	<path style="fill:none;stroke:#000000;stroke-width:5;stroke-miterlimit:10;" d="M-416.9,619.7c4.8-4.8,12.5-4.9,17.4,0.1
		c4.8,4.8,4.9,12.5,0.1,17.2c-4.8,4.8-12.5,4.9-17.4-0.1S-421.7,624.5-416.9,619.7z"/>
	<path style="fill:none;stroke:#000000;stroke-width:5;stroke-miterlimit:10;" d="M-453.5,656.6c4.8-4.8,12.5-4.9,17.4,0.1
		c4.8,4.8,4.9,12.5,0.1,17.2c-4.8,4.8-12.5,4.9-17.4-0.1S-458.1,661.2-453.5,656.6z"/>
	<path style="fill:none;stroke:#000000;stroke-width:5;stroke-miterlimit:10;" d="M-377.6,585.8c3.2-3.2,8.2-3.2,11.5-0.1
		c3.4,3,3.3,8.4,0.1,11.5c-3.2,3.2-8.2,3.2-11.5,0.1C-380.7,594.2-380.5,589-377.6,585.8z"/>
	<path style="fill:none;stroke:#000000;stroke-width:5;stroke-miterlimit:10;" d="M-343.8,546c4.8-4.8,12.5-4.9,17.4,0.1
		c4.8,4.8,4.9,12.5,0.1,17.2c-4.8,4.8-12.5,4.9-17.4-0.1C-348.4,558.6-348.7,550.8-343.8,546z"/>
	<path style="fill:none;stroke:#000000;stroke-width:5;stroke-miterlimit:10;" d="M-307.4,509.3c4.8-4.8,12.5-4.9,17.4,0.1
		c4.8,4.8,4.9,12.5,0.1,17.2c-4.8,4.8-12.5,4.9-17.4-0.1C-311.9,521.9-312.1,513.9-307.4,509.3z"/>
	<path style="fill:none;stroke:#000000;stroke-width:5;stroke-miterlimit:10;" d="M-251.7,489.9c3.6-3.5,7.8-4.9,9.8-3
		c1.9,2,0.5,6.2-3.1,9.8c-3.6,3.5-7.8,4.9-9.8,3C-256.7,497.6-255.3,493.4-251.7,489.9z"/>
	<path style="fill:none;stroke:#000000;stroke-width:5;stroke-miterlimit:10;" d="M-207.7,458.6c-4.8,4.8-15.8,1.5-24.8-7.6
		c-9-9.1-12.5-20.1-7.7-24.9"/>
	<path style="fill:none;stroke:#000000;stroke-width:5;stroke-miterlimit:10;" d="M-573.9,762.8c-2.7,3,1.2,13.3,10.4,22.3l0,0
		c9,9.1,18.6,13.8,22.3,10.1"/>
	<path style="fill:none;stroke:#000000;stroke-width:5;stroke-miterlimit:10;" d="M-292.9,479.3c-2.5,2.8,1.4,13.2,10.4,22.3l0,0
		c9,9.1,18.6,13.8,22.3,10.1"/>
	<g transform="matrix(.003584 .3901 -.3847 .003634 -108.36 470.08)">
		<path style="fill:none;stroke:#000000;stroke-width:5;stroke-miterlimit:10;" d="M913.7,1395.2c9.7,10,32.6-3.7,56-27.2l0,0
			c23.4-23.5,36.4-47.3,26.5-57.5"/>
	</g>
	<g transform="matrix(.003584 .3901 -.3847 .003634 -584.69 474.58)">
		<path style="fill:none;stroke:#000000;stroke-width:5;stroke-miterlimit:10;" d="M-65.2-845.6c9.7,10,32.6-3.7,56-27.2l0,0
			c23.4-23.5,36.4-47.3,26.5-57.5"/>
	</g>
</g>
<g style="opacity:0;">
	<circle cx="469.2" cy="38.2" r="3.5"/>
	<circle cx="449" cy="30.4" r="3.5"/>
	<circle cx="403.5" cy="75.2" r="3.5"/>
	<circle cx="346.1" cy="133.2" r="3.5"/>
	<circle cx="275.7" cy="204.3" r="3.5"/>
	<circle cx="201" cy="279.7" r="3.5"/>
	<circle cx="131.1" cy="350.5" r="3.5"/>
	<circle cx="74.6" cy="407.5" r="3.5"/>
	<circle cx="31.5" cy="449.9" r="3.5"/>
	<circle cx="42.6" cy="472.1" r="3.5"/>
	<circle cx="63.6" cy="482.2" r="3.5"/>
	<circle cx="106.8" cy="439.6" r="3.5"/>
	<circle cx="163.4" cy="382.5" r="3.5"/>
	<circle cx="233.6" cy="311.8" r="3.5"/>
	<circle cx="308.3" cy="236.4" r="3.5"/>
	<circle cx="378.8" cy="165.3" r="3.5"/>
	<circle cx="436.2" cy="107.5" r="3.5"/>
	<circle cx="481.6" cy="62.8" r="3.5"/>
</g>
</svg>
