<?xml version="1.0" encoding="utf-8"?>
<!-- Generator: Adobe Illustrator 22.1.0, SVG Export Plug-In . SVG Version: 6.00 Build 0)  -->
<svg version="1.1" id="Layer_1" xmlns="http://www.w3.org/2000/svg" xmlns:xlink="http://www.w3.org/1999/xlink" x="0px" y="0px"
	 viewBox="0 0 512 512" style="enable-background:new 0 0 512 512;" xml:space="preserve">
<g style="opacity:0;">
	<circle cx="91.8" cy="33.6" r="3.5"/>
	<circle cx="108.2" cy="67.8" r="3.5"/>
	<circle cx="124.1" cy="122.3" r="3.5"/>
	<circle cx="127.1" cy="179.5" r="3.5"/>
	<circle cx="127.6" cy="231.1" r="3.5"/>
	<circle cx="132.2" cy="277.1" r="3.5"/>
	<circle cx="142.1" cy="322.2" r="3.5"/>
	<circle cx="159.4" cy="369.4" r="3.5"/>
	<circle cx="186" cy="417.9" r="3.5"/>
	<circle cx="205.3" cy="466.8" r="3.5"/>
	<circle cx="197.5" cy="490.4" r="3.5"/>
	<circle cx="252" cy="480.4" r="3.5"/>
	<circle cx="295.2" cy="484.4" r="3.5"/>
	<circle cx="271.5" cy="459.7" r="3.5"/>
	<circle cx="292.3" cy="407.2" r="3.5"/>
	<circle cx="315.6" cy="348.6" r="3.5"/>
	<circle cx="339.7" cy="288.4" r="3.5"/>
	<circle cx="362.9" cy="230.7" r="3.5"/>
	<circle cx="383.3" cy="180" r="3.5"/>
	<circle cx="399.2" cy="140.5" r="3.5"/>
	<circle cx="408.9" cy="116.5" r="3.5"/>
	<circle cx="406.2" cy="92" r="3.5"/>
	<circle cx="359.4" cy="56.4" r="3.5"/>
	<circle cx="326.8" cy="75.8" r="3.5"/>
	<circle cx="272.6" cy="73.5" r="3.5"/>
	<circle cx="231.6" cy="49.6" r="3.5"/>
	<circle cx="180.7" cy="22.9" r="3.5"/>
	<circle cx="128.7" cy="10.5" r="3.5"/>
</g>
<g>
	<path style="fill:none;stroke:#000000;stroke-width:4;stroke-linecap:round;stroke-linejoin:round;stroke-miterlimit:10;" d="
		M218.7,463.6L385.9,127c0,0,2.5-0.2,5.8-1c0-0.2-6.9-23.1-7.1-22.7c-5.8-12.3-15.4-24.1-30.8-17.9c-28.9,11.7-69.9,31.8-113,7.3
		c-42-24.1-87.2-63.7-134.4-33.5"/>
	<path style="fill:none;stroke:#000000;stroke-width:4;stroke-linecap:round;stroke-linejoin:round;stroke-miterlimit:10;" d="
		M112.2,82.9c0,0,41.6-19.1,91.2,14.2c49.7,33.3,89.7,31.4,114.9,22.7c25.2-8.7,49.3-28.1,57.9-7.7c0.4,1,0.8,2.1,1.2,3.1
		c-90.7,156.3-172.7,306.8-172.7,306.8l0.3,22.4"/>
	<path style="fill:none;stroke:#000000;stroke-width:4;stroke-linecap:round;stroke-linejoin:round;stroke-miterlimit:10;" d="
		M122,66L223,403.8 M146.8,64.6l92.8,310.5 M172.8,67.3l83.5,278.9 M202.8,83.1l69.9,234.1 M233.8,102.4l55.8,186.3 M262.1,112.4
		l44.1,147.3 M288.1,115.3l34.5,115.7 M312.2,111l27.3,90.9 M334.7,102.4l21.2,71 M358.4,96.8l14.4,47.7"/>
	<path style="fill:none;stroke:#000000;stroke-width:4;stroke-linecap:round;stroke-linejoin:round;stroke-miterlimit:10;" d="
		M205.3,466.8c0,0,35-10.5,66.2-7.2"/>
</g>
</svg>
