<?xml version="1.0" encoding="utf-8"?>
<!-- Generator: Adobe Illustrator 22.1.0, SVG Export Plug-In . SVG Version: 6.00 Build 0)  -->
<svg version="1.1" id="Layer_1" xmlns="http://www.w3.org/2000/svg" xmlns:xlink="http://www.w3.org/1999/xlink" x="0px" y="0px"
	 viewBox="0 0 512 512" style="enable-background:new 0 0 512 512;" xml:space="preserve">
<g style="opacity:0;">
	<circle cx="256.5" cy="25.5" r="3.5"/>
	<circle cx="282.5" cy="26.5" r="3.5"/>
	<circle cx="313.5" cy="32.5" r="3.5"/>
	<circle cx="339.5" cy="44.5" r="3.5"/>
	<circle cx="363.5" cy="62.5" r="3.5"/>
	<circle cx="379.5" cy="84.5" r="3.5"/>
	<circle cx="390.5" cy="116.5" r="3.5"/>
	<circle cx="391.5" cy="146.5" r="3.5"/>
	<circle cx="384.5" cy="173.5" r="3.5"/>
	<circle cx="373.5" cy="193.5" r="3.5"/>
	<circle cx="357.5" cy="212.5" r="3.5"/>
	<circle cx="320.5" cy="237.5" r="3.5"/>
	<circle cx="339.5" cy="248.5" r="3.5"/>
	<circle cx="357.5" cy="259.5" r="3.5"/>
	<circle cx="375.5" cy="273.5" r="3.5"/>
	<circle cx="391.5" cy="292.5" r="3.5"/>
	<circle cx="403.5" cy="315.5" r="3.5"/>
	<circle cx="408.5" cy="340.5" r="3.5"/>
	<circle cx="408.5" cy="367.5" r="3.5"/>
	<circle cx="402.5" cy="391.5" r="3.5"/>
	<circle cx="393.5" cy="412.5" r="3.5"/>
	<circle cx="379.5" cy="432.5" r="3.5"/>
	<circle cx="359.5" cy="451.5" r="3.5"/>
	<circle cx="338.5" cy="463.5" r="3.5"/>
	<circle cx="316.5" cy="473.5" r="3.5"/>
	<circle cx="293.5" cy="479.5" r="3.5"/>
	<circle cx="267.5" cy="482.5" r="3.5"/>
	<circle cx="240.5" cy="481.5" r="3.5"/>
	<circle cx="211.5" cy="477.5" r="3.5"/>
	<circle cx="185.5" cy="468.5" r="3.5"/>
	<circle cx="162.5" cy="455.5" r="3.5"/>
	<circle cx="140.5" cy="437.5" r="3.5"/>
	<circle cx="123.5" cy="413.5" r="3.5"/>
	<circle cx="113.5" cy="385.5" r="3.5"/>
	<circle cx="111.5" cy="353.5" r="3.5"/>
	<circle cx="117.5" cy="320.5" r="3.5"/>
	<circle cx="128.5" cy="298.5" r="3.5"/>
	<circle cx="144.5" cy="278.5" r="3.5"/>
	<circle cx="162.5" cy="263.5" r="3.5"/>
	<circle cx="180.5" cy="252.5" r="3.5"/>
	<circle cx="198.5" cy="243.5" r="3.5"/>
	<circle cx="181.5" cy="233.5" r="3.5"/>
	<circle cx="163.5" cy="220.5" r="3.5"/>
	<circle cx="144.5" cy="198.5" r="3.5"/>
	<circle cx="132.5" cy="174.5" r="3.5"/>
	<circle cx="127.5" cy="148.5" r="3.5"/>
	<circle cx="128.5" cy="122.5" r="3.5"/>
	<circle cx="135.5" cy="98.5" r="3.5"/>
	<circle cx="148.5" cy="75.5" r="3.5"/>
	<circle cx="167.5" cy="56.5" r="3.5"/>
	<circle cx="188.5" cy="42.5" r="3.5"/>
	<circle cx="211.5" cy="33.5" r="3.5"/>
	<circle cx="233.5" cy="28.5" r="3.5"/>
	<circle cx="340.5" cy="226.5" r="3.5"/>
</g>
<g>
	<circle style="fill:none;stroke:#000000;stroke-width:5;" cx="259.5" cy="141.5" r="74"/>
	<circle style="fill:none;stroke:#000000;stroke-width:5;" cx="259.5" cy="353.5" r="74"/>
</g>
</svg>
