<?xml version="1.0" encoding="utf-8"?>
<!-- Generator: Adobe Illustrator 22.1.0, SVG Export Plug-In . SVG Version: 6.00 Build 0)  -->
<svg version="1.1" id="Layer_1" xmlns="http://www.w3.org/2000/svg" xmlns:xlink="http://www.w3.org/1999/xlink" x="0px" y="0px"
	 viewBox="0 0 512 512" style="enable-background:new 0 0 512 512;" xml:space="preserve">
<g>
	<path style="fill:none;stroke:#000000;stroke-width:5;stroke-linecap:round;stroke-linejoin:round;" d="M301,307.8V160.3
		c0-23.1,0.7-46.2,2-69.3h-2c-13.6,25.8-144.8,215.5-144.8,215.5v1.4H301z"/>
</g>
<g style="opacity:0;">
	<circle cx="294" cy="34" r="5"/>
	<circle cx="324" cy="34" r="5"/>
	<circle cx="354" cy="34" r="5"/>
	<circle cx="354" cy="74" r="5"/>
	<circle cx="354" cy="114" r="5"/>
	<circle cx="354" cy="154" r="5"/>
	<circle cx="354" cy="194" r="5"/>
	<circle cx="354" cy="234" r="5"/>
	<circle cx="354" cy="274" r="5"/>
	<circle cx="354" cy="307" r="5"/>
	<circle cx="384" cy="307" r="5"/>
	<circle cx="414" cy="307" r="5"/>
	<circle cx="414" cy="351" r="5"/>
	<circle cx="384" cy="351" r="5"/>
	<circle cx="354" cy="351" r="5"/>
	<circle cx="354" cy="393" r="5"/>
	<circle cx="354" cy="435" r="5"/>
	<circle cx="354" cy="477" r="5"/>
	<circle cx="302" cy="477" r="5"/>
	<circle cx="302" cy="435" r="5"/>
	<circle cx="302" cy="393" r="5"/>
	<circle cx="302" cy="353" r="5"/>
	<circle cx="250" cy="353" r="5"/>
	<circle cx="198" cy="353" r="5"/>
	<circle cx="146" cy="353" r="5"/>
	<circle cx="94" cy="353" r="5"/>
	<circle cx="94" cy="317" r="5"/>
	<circle cx="120" cy="279" r="5"/>
	<circle cx="146" cy="244" r="5"/>
	<circle cx="171" cy="207" r="5"/>
	<circle cx="197" cy="168" r="5"/>
	<circle cx="229" cy="122" r="5"/>
	<circle cx="265" cy="73" r="5"/>
</g>
</svg>
