<?xml version="1.0" encoding="utf-8"?>
<!-- Generator: Adobe Illustrator 22.1.0, SVG Export Plug-In . SVG Version: 6.00 Build 0)  -->
<svg version="1.1" id="Layer_1" xmlns="http://www.w3.org/2000/svg" xmlns:xlink="http://www.w3.org/1999/xlink" x="0px" y="0px"
	 viewBox="0 0 512 512" style="enable-background:new 0 0 512 512;" xml:space="preserve">
<g style="opacity:0;">
	<circle cx="349.5" cy="269.5" r="3.5"/>
	<circle cx="329.5" cy="288.5" r="3.5"/>
	<circle cx="300.5" cy="306.5" r="3.5"/>
	<circle cx="263.5" cy="316.5" r="3.5"/>
	<circle cx="228.5" cy="317.5" r="3.5"/>
	<circle cx="195.5" cy="309.5" r="3.5"/>
	<circle cx="167.5" cy="295.5" r="3.5"/>
	<circle cx="143.5" cy="272.5" r="3.5"/>
	<circle cx="126.5" cy="245.5" r="3.5"/>
	<circle cx="117.5" cy="220.5" r="3.5"/>
	<circle cx="113.5" cy="190.5" r="3.5"/>
	<circle cx="113.5" cy="162.5" r="3.5"/>
	<circle cx="120.5" cy="131.5" r="3.5"/>
	<circle cx="132.5" cy="101.5" r="3.5"/>
	<circle cx="149.5" cy="76.5" r="3.5"/>
	<circle cx="172.5" cy="54.5" r="3.5"/>
	<circle cx="200.5" cy="37.5" r="3.5"/>
	<circle cx="229.5" cy="28.5" r="3.5"/>
	<circle cx="259.5" cy="24.5" r="3.5"/>
	<circle cx="291.5" cy="26.5" r="3.5"/>
	<circle cx="322.5" cy="36.5" r="3.5"/>
	<circle cx="348.5" cy="52.5" r="3.5"/>
	<circle cx="370.5" cy="74.5" r="3.5"/>
	<circle cx="388.5" cy="101.5" r="3.5"/>
	<circle cx="399.5" cy="131.5" r="3.5"/>
	<circle cx="406.5" cy="163.5" r="3.5"/>
	<circle cx="410.5" cy="194.5" r="3.5"/>
	<circle cx="410.5" cy="223.5" r="3.5"/>
	<circle cx="408.5" cy="253.5" r="3.5"/>
	<circle cx="403.5" cy="282.5" r="3.5"/>
	<circle cx="396.5" cy="313.5" r="3.5"/>
	<circle cx="386.5" cy="338.5" r="3.5"/>
	<circle cx="372.5" cy="366.5" r="3.5"/>
	<circle cx="352.5" cy="397.5" r="3.5"/>
	<circle cx="332.5" cy="419.5" r="3.5"/>
	<circle cx="308.5" cy="438.5" r="3.5"/>
	<circle cx="278.5" cy="456.5" r="3.5"/>
	<circle cx="238.5" cy="471.5" r="3.5"/>
	<circle cx="195.5" cy="478.5" r="3.5"/>
	<circle cx="151.5" cy="480.5" r="3.5"/>
	<circle cx="151.5" cy="433.5" r="3.5"/>
	<circle cx="195.5" cy="431.5" r="3.5"/>
	<circle cx="235.5" cy="422.5" r="3.5"/>
	<circle cx="273.5" cy="404.5" r="3.5"/>
	<circle cx="300.5" cy="380.5" r="3.5"/>
	<circle cx="320.5" cy="352.5" r="3.5"/>
	<circle cx="336.5" cy="322.5" r="3.5"/>
	<circle cx="343.5" cy="295.5" r="3.5"/>
</g>
<g>
	<circle style="fill:none;stroke:#000000;stroke-width:5;stroke-miterlimit:10;" cx="258" cy="172" r="96"/>
</g>
</svg>
