<?xml version="1.0" encoding="utf-8"?>
<!-- Generator: Adobe Illustrator 22.1.0, SVG Export Plug-In . SVG Version: 6.00 Build 0)  -->
<svg version="1.1" id="Layer_1" xmlns="http://www.w3.org/2000/svg" xmlns:xlink="http://www.w3.org/1999/xlink" x="0px" y="0px"
	 viewBox="0 0 512 512" style="enable-background:new 0 0 512 512;" xml:space="preserve">
<g>
	<circle cx="132" cy="60" r="5"/>
	<circle cx="166" cy="41" r="5"/>
	<circle cx="206" cy="29" r="5"/>
	<circle cx="248" cy="25" r="5"/>
	<circle cx="289" cy="30" r="5"/>
	<circle cx="327" cy="46" r="5"/>
	<circle cx="354" cy="72" r="5"/>
	<circle cx="371" cy="110" r="5"/>
	<circle cx="371" cy="150" r="5"/>
	<circle cx="361" cy="179" r="5"/>
	<circle cx="341" cy="206" r="5"/>
	<circle cx="318" cy="222" r="5"/>
	<circle cx="292" cy="235" r="5"/>
	<circle cx="319" cy="246" r="5"/>
	<circle cx="347" cy="262" r="5"/>
	<circle cx="372" cy="290" r="5"/>
	<circle cx="386" cy="322" r="5"/>
	<circle cx="389" cy="354" r="5"/>
	<circle cx="384" cy="386" r="5"/>
	<circle cx="372" cy="413" r="5"/>
	<circle cx="351" cy="440" r="5"/>
	<circle cx="327" cy="458" r="5"/>
	<circle cx="296" cy="472" r="5"/>
	<circle cx="265" cy="480" r="5"/>
	<circle cx="232" cy="482" r="5"/>
	<circle cx="198" cy="480" r="5"/>
	<circle cx="157" cy="472" r="5"/>
	<circle cx="115" cy="453" r="5"/>
	<circle cx="130" cy="407" r="5"/>
	<circle cx="163" cy="423" r="5"/>
	<circle cx="198" cy="432" r="5"/>
	<circle cx="230" cy="434" r="5"/>
	<circle cx="259" cy="431" r="5"/>
	<circle cx="284" cy="423" r="5"/>
	<circle cx="304" cy="408" r="5"/>
	<circle cx="320" cy="386" r="5"/>
	<circle cx="327" cy="360" r="5"/>
	<circle cx="327" cy="336" r="5"/>
	<circle cx="320" cy="313" r="5"/>
	<circle cx="308" cy="295" r="5"/>
	<circle cx="288" cy="278" r="5"/>
	<circle cx="264" cy="267" r="5"/>
	<circle cx="236" cy="262" r="5"/>
	<circle cx="181" cy="261" r="5"/>
	<circle cx="181" cy="215" r="5"/>
	<circle cx="228" cy="215" r="5"/>
	<circle cx="260" cy="206" r="5"/>
	<circle cx="291" cy="188" r="5"/>
	<circle cx="309" cy="158" r="5"/>
	<circle cx="311" cy="136" r="5"/>
	<circle cx="305" cy="113" r="5"/>
	<circle cx="288" cy="91" r="5"/>
	<circle cx="262" cy="78" r="5"/>
	<circle cx="238" cy="75" r="5"/>
	<circle cx="209" cy="78" r="5"/>
	<circle cx="177" cy="87" r="5"/>
	<circle cx="146" cy="103" r="5"/>
</g>
</svg>
