<?xml version="1.0" encoding="utf-8"?>
<!-- Generator: Adobe Illustrator 22.1.0, SVG Export Plug-In . SVG Version: 6.00 Build 0)  -->
<svg version="1.1" id="Layer_1" xmlns="http://www.w3.org/2000/svg" xmlns:xlink="http://www.w3.org/1999/xlink" x="0px" y="0px"
	 viewBox="0 0 512 512" style="enable-background:new 0 0 512 512;" xml:space="preserve">
<g>
	<circle cx="127" cy="71" r="5"/>
	<circle cx="158" cy="49" r="5"/>
	<circle cx="191" cy="35" r="5"/>
	<circle cx="227" cy="27" r="5"/>
	<circle cx="267" cy="27" r="5"/>
	<circle cx="306" cy="35" r="5"/>
	<circle cx="341" cy="53" r="5"/>
	<circle cx="370" cy="85" r="5"/>
	<circle cx="384" cy="122" r="5"/>
	<circle cx="387" cy="164" r="5"/>
	<circle cx="379" cy="204" r="5"/>
	<circle cx="363" cy="243" r="5"/>
	<circle cx="342" cy="276" r="5"/>
	<circle cx="314" cy="310" r="5"/>
	<circle cx="285" cy="342" r="5"/>
	<circle cx="257" cy="370" r="5"/>
	<circle cx="224" cy="401" r="5"/>
	<circle cx="200" cy="424" r="5"/>
	<circle cx="238" cy="424" r="5"/>
	<circle cx="276" cy="424" r="5"/>
	<circle cx="315" cy="424" r="5"/>
	<circle cx="354" cy="424" r="5"/>
	<circle cx="397" cy="424" r="5"/>
	<circle cx="397" cy="475" r="5"/>
	<circle cx="354" cy="475" r="5"/>
	<circle cx="303" cy="475" r="5"/>
	<circle cx="258" cy="475" r="5"/>
	<circle cx="215" cy="475" r="5"/>
	<circle cx="167" cy="475" r="5"/>
	<circle cx="116" cy="475" r="5"/>
	<circle cx="116" cy="438" r="5"/>
	<circle cx="144" cy="410" r="5"/>
	<circle cx="173.5" cy="380.5" r="5"/>
	<circle cx="200" cy="355" r="5"/>
	<circle cx="229.5" cy="325.5" r="5"/>
	<circle cx="255" cy="298" r="5"/>
	<circle cx="278" cy="270" r="5"/>
	<circle cx="300" cy="238" r="5"/>
	<circle cx="319" cy="204" r="5"/>
	<circle cx="326" cy="164" r="5"/>
	<circle cx="324" cy="136" r="5"/>
	<circle cx="314" cy="110" r="5"/>
	<circle cx="296" cy="90" r="5"/>
	<circle cx="270" cy="78" r="5"/>
	<circle cx="244" cy="76" r="5"/>
	<circle cx="208" cy="78" r="5"/>
	<circle cx="180" cy="90" r="5"/>
	<circle cx="145" cy="112" r="5"/>
</g>
</svg>
