<?xml version="1.0" encoding="utf-8"?>
<!-- Generator: Adobe Illustrator 22.1.0, SVG Export Plug-In . SVG Version: 6.00 Build 0)  -->
<svg version="1.1" id="Layer_1" xmlns="http://www.w3.org/2000/svg" xmlns:xlink="http://www.w3.org/1999/xlink" x="0px" y="0px"
	 viewBox="0 0 512 512" style="enable-background:new 0 0 512 512;" xml:space="preserve">
<g>
	<circle cx="167.5" cy="32.5" r="3.5"/>
	<circle cx="215.5" cy="32.5" r="3.5"/>
	<circle cx="271.5" cy="32.5" r="3.5"/>
	<circle cx="321.5" cy="32.5" r="3.5"/>
	<circle cx="379.5" cy="32.5" r="3.5"/>
	<circle cx="379.5" cy="83.5" r="3.5"/>
	<circle cx="324.5" cy="83.5" r="3.5"/>
	<circle cx="271.5" cy="83.5" r="3.5"/>
	<circle cx="211.5" cy="83.5" r="3.5"/>
	<circle cx="202.5" cy="138.5" r="3.5"/>
	<circle cx="193.5" cy="196.5" r="3.5"/>
	<circle cx="232.5" cy="192.5" r="3.5"/>
	<circle cx="271.5" cy="198.5" r="3.5"/>
	<circle cx="305.5" cy="208.5" r="3.5"/>
	<circle cx="332.5" cy="221.5" r="3.5"/>
	<circle cx="354.5" cy="240.5" r="3.5"/>
	<circle cx="370.5" cy="261.5" r="3.5"/>
	<circle cx="381.5" cy="285.5" r="3.5"/>
	<circle cx="387.5" cy="310.5" r="3.5"/>
	<circle cx="388.5" cy="335.5" r="3.5"/>
	<circle cx="384.5" cy="365.5" r="3.5"/>
	<circle cx="375.5" cy="394.5" r="3.5"/>
	<circle cx="359.5" cy="418.5" r="3.5"/>
	<circle cx="338.5" cy="442.5" r="3.5"/>
	<circle cx="313.5" cy="459.5" r="3.5"/>
	<circle cx="282.5" cy="473.5" r="3.5"/>
	<circle cx="249.5" cy="480.5" r="3.5"/>
	<circle cx="222.5" cy="481.5" r="3.5"/>
	<circle cx="195.5" cy="480.5" r="3.5"/>
	<circle cx="166.5" cy="475.5" r="3.5"/>
	<circle cx="140.5" cy="468.5" r="3.5"/>
	<circle cx="114.5" cy="455.5" r="3.5"/>
	<circle cx="128.5" cy="409.5" r="3.5"/>
	<circle cx="153.5" cy="420.5" r="3.5"/>
	<circle cx="181.5" cy="429.5" r="3.5"/>
	<circle cx="206.5" cy="433.5" r="3.5"/>
	<circle cx="234.5" cy="433.5" r="3.5"/>
	<circle cx="263.5" cy="427.5" r="3.5"/>
	<circle cx="289.5" cy="412.5" r="3.5"/>
	<circle cx="310.5" cy="392.5" r="3.5"/>
	<circle cx="323.5" cy="367.5" r="3.5"/>
	<circle cx="327.5" cy="337.5" r="3.5"/>
	<circle cx="323.5" cy="306.5" r="3.5"/>
	<circle cx="310.5" cy="281.5" r="3.5"/>
	<circle cx="290.5" cy="262.5" r="3.5"/>
	<circle cx="267.5" cy="252.5" r="3.5"/>
	<circle cx="235.5" cy="242.5" r="3.5"/>
	<circle cx="208.5" cy="240.5" r="3.5"/>
	<circle cx="184.5" cy="240.5" r="3.5"/>
	<circle cx="157.5" cy="242.5" r="3.5"/>
	<circle cx="139.5" cy="246.5" r="3.5"/>
	<circle cx="143.5" cy="215.5" r="3.5"/>
	<circle cx="147.5" cy="184.5" r="3.5"/>
	<circle cx="151.5" cy="153.5" r="3.5"/>
	<circle cx="155.5" cy="125.5" r="3.5"/>
	<circle cx="159.5" cy="97.5" r="3.5"/>
	<circle cx="162.5" cy="64.5" r="3.5"/>
</g>
</svg>
