<?xml version="1.0" encoding="utf-8"?>
<!-- Generator: Adobe Illustrator 22.1.0, SVG Export Plug-In . SVG Version: 6.00 Build 0)  -->
<svg version="1.1" id="Layer_1" xmlns="http://www.w3.org/2000/svg" xmlns:xlink="http://www.w3.org/1999/xlink" x="0px" y="0px"
	 viewBox="0 0 512 512" style="enable-background:new 0 0 512 512;" xml:space="preserve">
<g>
	<circle cx="156" cy="85" r="5"/>
	<circle cx="202" cy="59" r="5"/>
	<circle cx="253" cy="33" r="5"/>
	<circle cx="303" cy="33" r="5"/>
	<circle cx="303" cy="90" r="5"/>
	<circle cx="303" cy="147" r="5"/>
	<circle cx="303" cy="204" r="5"/>
	<circle cx="303" cy="261" r="5"/>
	<circle cx="303" cy="318" r="5"/>
	<circle cx="303" cy="375" r="5"/>
	<circle cx="303" cy="432" r="5"/>
	<circle cx="303" cy="489" r="5"/>
	<circle cx="246" cy="489" r="5"/>
	<circle cx="246" cy="434" r="5"/>
	<circle cx="246" cy="375" r="5"/>
	<circle cx="247" cy="318" r="5"/>
	<circle cx="246" cy="263" r="5"/>
	<circle cx="246" cy="206" r="5"/>
	<circle cx="246" cy="149" r="5"/>
	<circle cx="246" cy="90" r="5"/>
	<circle cx="205" cy="110" r="5"/>
	<circle cx="166" cy="130" r="5"/>
</g>
</svg>
