<?xml version="1.0" encoding="utf-8"?>
<!-- Generator: Adobe Illustrator 22.1.0, SVG Export Plug-In . SVG Version: 6.00 Build 0)  -->
<svg version="1.1" id="Layer_1" xmlns="http://www.w3.org/2000/svg" xmlns:xlink="http://www.w3.org/1999/xlink" x="0px" y="0px"
	 viewBox="0 0 512 512" style="enable-background:new 0 0 512 512;" xml:space="preserve">
<g>
	<circle cx="124.5" cy="33.5" r="3.5"/>
	<circle cx="207.5" cy="33.5" r="3.5"/>
	<circle cx="290.5" cy="33.5" r="3.5"/>
	<circle cx="373.5" cy="33.5" r="3.5"/>
	<circle cx="402.5" cy="33.5" r="3.5"/>
	<circle cx="402.5" cy="72.5" r="3.5"/>
	<circle cx="376.5" cy="126.5" r="3.5"/>
	<circle cx="349.5" cy="185.5" r="3.5"/>
	<circle cx="314.5" cy="256.5" r="3.5"/>
	<circle cx="287.5" cy="313.5" r="3.5"/>
	<circle cx="257.5" cy="377.5" r="3.5"/>
	<circle cx="231.5" cy="429.5" r="3.5"/>
	<circle cx="210.5" cy="475.5" r="3.5"/>
	<circle cx="147.5" cy="475.5" r="3.5"/>
	<circle cx="171.5" cy="429.5" r="3.5"/>
	<circle cx="195.5" cy="377.5" r="3.5"/>
	<circle cx="225.5" cy="316.5" r="3.5"/>
	<circle cx="254.5" cy="259.5" r="3.5"/>
	<circle cx="287.5" cy="192.5" r="3.5"/>
	<circle cx="318.5" cy="129.5" r="3.5"/>
	<circle cx="339.5" cy="82.5" r="3.5"/>
	<circle cx="287.5" cy="82.5" r="3.5"/>
	<circle cx="207.5" cy="82.5" r="3.5"/>
	<circle cx="124.5" cy="82.5" r="3.5"/>
</g>
</svg>
