<?xml version="1.0" encoding="utf-8"?>
<!-- Generator: Adobe Illustrator 22.1.0, SVG Export Plug-In . SVG Version: 6.00 Build 0)  -->
<svg version="1.1" id="Layer_1" xmlns="http://www.w3.org/2000/svg" xmlns:xlink="http://www.w3.org/1999/xlink" x="0px" y="0px"
	 viewBox="0 0 512 512" style="enable-background:new 0 0 512 512;" xml:space="preserve">
<g style="opacity:0;">
	<circle cx="368.5" cy="26.5" r="3.5"/>
	<circle cx="323.5" cy="29.5" r="3.5"/>
	<circle cx="294.5" cy="35.5" r="3.5"/>
	<circle cx="265.5" cy="43.5" r="3.5"/>
	<circle cx="236.5" cy="55.5" r="3.5"/>
	<circle cx="208.5" cy="73.5" r="3.5"/>
	<circle cx="181.5" cy="97.5" r="3.5"/>
	<circle cx="157.5" cy="126.5" r="3.5"/>
	<circle cx="137.5" cy="159.5" r="3.5"/>
	<circle cx="123.5" cy="192.5" r="3.5"/>
	<circle cx="114.5" cy="227.5" r="3.5"/>
	<circle cx="109.5" cy="262.5" r="3.5"/>
	<circle cx="108.5" cy="299.5" r="3.5"/>
	<circle cx="110.5" cy="329.5" r="3.5"/>
	<circle cx="116.5" cy="359.5" r="3.5"/>
	<circle cx="124.5" cy="387.5" r="3.5"/>
	<circle cx="138.5" cy="414.5" r="3.5"/>
	<circle cx="157.5" cy="438.5" r="3.5"/>
	<circle cx="181.5" cy="457.5" r="3.5"/>
	<circle cx="206.5" cy="471.5" r="3.5"/>
	<circle cx="236.5" cy="480.5" r="3.5"/>
	<circle cx="269.5" cy="482.5" r="3.5"/>
	<circle cx="299.5" cy="478.5" r="3.5"/>
	<circle cx="328.5" cy="467.5" r="3.5"/>
	<circle cx="377.5" cy="429.5" r="3.5"/>
	<circle cx="396.5" cy="397.5" r="3.5"/>
	<circle cx="407.5" cy="362.5" r="3.5"/>
	<circle cx="411.5" cy="326.5" r="3.5"/>
	<circle cx="407.5" cy="289.5" r="3.5"/>
	<circle cx="396.5" cy="253.5" r="3.5"/>
	<circle cx="369.5" cy="218.5" r="3.5"/>
	<circle cx="336.5" cy="195.5" r="3.5"/>
	<circle cx="301.5" cy="185.5" r="3.5"/>
	<circle cx="277.5" cy="184.5" r="3.5"/>
	<circle cx="249.5" cy="186.5" r="3.5"/>
	<circle cx="226.5" cy="193.5" r="3.5"/>
	<circle cx="204.5" cy="204.5" r="3.5"/>
	<circle cx="187.5" cy="217.5" r="3.5"/>
	<circle cx="169.5" cy="235.5" r="3.5"/>
	<circle cx="174.5" cy="207.5" r="3.5"/>
	<circle cx="183.5" cy="186.5" r="3.5"/>
	<circle cx="194.5" cy="163.5" r="3.5"/>
	<circle cx="210.5" cy="140.5" r="3.5"/>
	<circle cx="226.5" cy="124.5" r="3.5"/>
	<circle cx="244.5" cy="109.5" r="3.5"/>
	<circle cx="265.5" cy="97.5" r="3.5"/>
	<circle cx="289.5" cy="86.5" r="3.5"/>
	<circle cx="314.5" cy="80.5" r="3.5"/>
	<circle cx="338.5" cy="75.5" r="3.5"/>
	<circle cx="366.5" cy="75.5" r="3.5"/>
	<circle cx="368.5" cy="50.5" r="3.5"/>
</g>
<g>
	<circle style="fill:none;stroke:#000000;stroke-width:5;" cx="265.5" cy="330.5" r="93"/>
</g>
</svg>
