<?xml version="1.0" encoding="utf-8"?>
<!-- Generator: Adobe Illustrator 22.1.0, SVG Export Plug-In . SVG Version: 6.00 Build 0)  -->
<svg version="1.1" id="Layer_1" xmlns="http://www.w3.org/2000/svg" xmlns:xlink="http://www.w3.org/1999/xlink" x="0px" y="0px"
	 viewBox="0 0 512 512" style="enable-background:new 0 0 512 512;" xml:space="preserve">
<g>
	<circle cx="264.5" cy="25.5" r="3.5"/>
	<circle cx="294.5" cy="29.5" r="3.5"/>
	<circle cx="321.5" cy="38.5" r="3.5"/>
	<circle cx="345.5" cy="54.5" r="3.5"/>
	<circle cx="365.5" cy="75.5" r="3.5"/>
	<circle cx="381.5" cy="101.5" r="3.5"/>
	<circle cx="393.5" cy="131.5" r="3.5"/>
	<circle cx="401.5" cy="162.5" r="3.5"/>
	<circle cx="407.5" cy="193.5" r="3.5"/>
	<circle cx="410.5" cy="246.5" r="3.5"/>
	<circle cx="408.5" cy="294.5" r="3.5"/>
	<circle cx="401.5" cy="343.5" r="3.5"/>
	<circle cx="388.5" cy="387.5" r="3.5"/>
	<circle cx="368.5" cy="425.5" r="3.5"/>
	<circle cx="336.5" cy="458.5" r="3.5"/>
	<circle cx="294.5" cy="478.5" r="3.5"/>
	<circle cx="248.5" cy="482.5" r="3.5"/>
	<circle cx="204.5" cy="471.5" r="3.5"/>
	<circle cx="168.5" cy="444.5" r="3.5"/>
	<circle cx="140.5" cy="404.5" r="3.5"/>
	<circle cx="122.5" cy="359.5" r="3.5"/>
	<circle cx="113.5" cy="315.5" r="3.5"/>
	<circle cx="110.5" cy="269.5" r="3.5"/>
	<circle cx="111.5" cy="219.5" r="3.5"/>
	<circle cx="118.5" cy="169.5" r="3.5"/>
	<circle cx="133.5" cy="122.5" r="3.5"/>
	<circle cx="157.5" cy="80.5" r="3.5"/>
	<circle cx="191.5" cy="47.5" r="3.5"/>
	<circle cx="234.5" cy="28.5" r="3.5"/>
</g>
</svg>
