<?xml version="1.0" encoding="utf-8"?>
<!-- Generator: Adobe Illustrator 17.1.0, SVG Export Plug-In . SVG Version: 6.00 Build 0)  -->
<!DOCTYPE svg PUBLIC "-//W3C//DTD SVG 1.1//EN" "http://www.w3.org/Graphics/SVG/1.1/DTD/svg11.dtd" [
	<!ENTITY ns_flows "http://ns.adobe.com/Flows/1.0/">
	<!ENTITY ns_extend "http://ns.adobe.com/Extensibility/1.0/">
	<!ENTITY ns_ai "http://ns.adobe.com/AdobeIllustrator/10.0/">
	<!ENTITY ns_graphs "http://ns.adobe.com/Graphs/1.0/">
]>
<svg version="1.1" id="Layer_1" xmlns:x="&ns_extend;" xmlns:i="&ns_ai;" xmlns:graph="&ns_graphs;"
	 xmlns="http://www.w3.org/2000/svg" xmlns:xlink="http://www.w3.org/1999/xlink" xmlns:a="http://ns.adobe.com/AdobeSVGViewerExtensions/3.0/"
	 x="0px" y="0px" viewBox="0 0 177 177" style="enable-background:new 0 0 177 177;" xml:space="preserve">
<g>
	<g>
		<circle style="fill:#C6325C;" cx="89.4" cy="88" r="78.4"/>
		<path style="fill:#FFFFFF;" d="M89.4,171.4C43.4,171.4,6,134,6,88S43.4,4.6,89.4,4.6c46,0,83.4,37.4,83.4,83.4
			S135.4,171.4,89.4,171.4z M89.4,14.6C49,14.6,16,47.5,16,88c0,40.5,32.9,73.4,73.4,73.4c40.5,0,73.4-32.9,73.4-73.4
			C162.9,47.5,129.9,14.6,89.4,14.6z"/>
	</g>
	<path style="opacity:0.3;" d="M54.6,117.4l6.2,6.6l51.2,33.8c0,0,22.9-5.9,37.9-28.4c0.5,0,13.5-17.7,12.9-40.4l-44.3-35l-32.7-9.3
		l-13.4,4.2L54.1,65.2l-2.9,3.9c-2.8,4.1-5.4,7-4.5,17.7L54.6,117.4z"/>
	<g>
		<path style="fill:#18928F;" d="M136,97.6c-0.2,6.1-2.2,11.3-6.7,15.4c-5.9,5.3-11.8,10.6-17.7,15.9c-5.4,4.7-9.5,3.4-11-3.6
			c-1.7-7.5-3.2-15.1-4.8-22.6c-1.7-8.3,0.7-15.2,7-20.8c5.8-5.2,11.6-10.5,17.5-15.7c4.5-4,9-2.7,10.3,3.1
			c1.8,8.1,3.5,16.1,5.1,24.2C136,94.8,135.9,96.3,136,97.6z M105.4,119.1c0.2,1.7,0.4,3.5,2.3,4.1c1.8,0.6,3.1-0.6,4.1-2
			c1.2-1.8,1.9-3.8,1.7-5.9c-0.1-1.4-0.4-2.9-2.1-3.4c-1.7-0.5-2.7,0.4-3.7,1.5C106.1,115,105.7,117,105.4,119.1z M126.3,74.5
			c-0.1-1,0-2.8-2-3.4c-1.9-0.6-3.1,0.7-4.1,2.1c-1.4,1.9-1.9,4.2-1.6,6.6c0.2,1.3,0.7,2.4,2,2.7c1.2,0.3,2.4,0,3.3-1
			C125.4,79.6,126.4,77.5,126.3,74.5z"/>
		<path style="fill:#FFFFFF;" d="M86.8,44c0.5,0.1,1.9,0,3.1,0.4c8.8,2.8,17.6,5.5,26.3,8.6c5,1.8,5.9,5.9,2,9.5
			c-6.7,6.4-13.5,12.7-20.7,18.5c-5.1,4.1-11.5,5-17.9,3c-7.8-2.4-15.5-5-23.2-7.6c-6.6-2.2-7.6-6.5-2.5-11.2
			c6-5.5,12.1-10.9,18.2-16.3C76,45.6,80.6,44,86.8,44z M81.8,56c1.8-0.1,3.6-0.6,5.2-1.7c1.2-0.8,2.2-1.9,1.9-3.5
			c-0.4-1.6-1.8-2.1-3.3-2.3c-1.8-0.3-3.5-0.1-5.1,0.7c-1.8,0.8-3.8,1.8-3.4,4.2C77.5,55.8,79.8,55.7,81.8,56z M87.1,79.9
			c2.6-0.1,5-0.8,6.5-3.1c0.6-1,0.6-2.2-0.3-3c-2.2-1.9-4.7-1.6-7.1-0.7c-2,0.8-4.4,1.8-3.9,4.5C82.7,80.2,85.1,79.7,87.1,79.9z
			 M85.1,67.9c-0.2,0,0.2,0,0.7,0c2.5-0.1,4.5-1.1,5.8-3.2c0.7-1.1,0.3-2.2-0.6-3c-1.9-1.6-4.1-1.4-6.2-0.8
			c-0.6,0.2-1.3,0.4-1.8,0.7c-1.6,0.9-3.2,1.9-2.7,4C80.7,67.8,82.6,68,85.1,67.9z"/>
		<path style="fill:#F79725;" d="M46.6,86.8c-0.1-6.3,2.6-8.5,7.1-7.2c8.6,2.6,17.3,5.2,25.7,8.4c6.6,2.5,10.7,7.6,12.3,14.5
			c1.8,7.6,3.3,15.3,4.9,22.9c0.3,1.3,0.4,2.6,0.4,3.9c-0.2,3.6-1.9,5.2-5.5,5.1c-1.2,0-2.4-0.3-3.5-0.7c-6.7-2.1-13.3-4.5-20.1-6.5
			c-9.3-2.8-14.9-8.7-16.7-18.4C49.8,101,48,93.2,46.6,86.8z M61.7,93c0-3.2-3.5-7.4-6.4-7.8c-2.2-0.3-3.4,0.7-3.4,2.9
			c0,2.8,3.5,6.8,6.3,7.4C60.4,96,61.4,94.8,61.7,93z M57.3,112.5c0,3,3.7,7.2,6.5,7.6c2.1,0.3,3.2-0.8,3.3-2.7c0.2-3-3.3-7-6.3-7.6
			C58.5,109.4,57.6,110.6,57.3,112.5z M90.8,125c0-2.8-3.3-6.8-6.2-7.4c-2.2-0.5-3.9,1-3.6,3.3c0.3,2.8,3.3,6.1,6,6.9
			C89.3,128.3,90.9,127.1,90.8,125z M85.4,100.7c-0.1-3.2-3.4-7.1-6.3-7.7c-2.2-0.5-3.6,0.9-3.5,3.1c0.2,2.9,3.5,6.6,6.4,7.2
			C84.5,103.7,85.2,102.4,85.4,100.7z"/>
	</g>
</g>
</svg>
