<?xml version="1.0" encoding="utf-8"?>
<!-- Generator: Adobe Illustrator 17.1.0, SVG Export Plug-In . SVG Version: 6.00 Build 0)  -->
<!DOCTYPE svg PUBLIC "-//W3C//DTD SVG 1.1//EN" "http://www.w3.org/Graphics/SVG/1.1/DTD/svg11.dtd" [
	<!ENTITY ns_flows "http://ns.adobe.com/Flows/1.0/">
	<!ENTITY ns_extend "http://ns.adobe.com/Extensibility/1.0/">
	<!ENTITY ns_ai "http://ns.adobe.com/AdobeIllustrator/10.0/">
	<!ENTITY ns_graphs "http://ns.adobe.com/Graphs/1.0/">
]>
<svg version="1.1" id="Layer_1" xmlns:x="&ns_extend;" xmlns:i="&ns_ai;" xmlns:graph="&ns_graphs;"
	 xmlns="http://www.w3.org/2000/svg" xmlns:xlink="http://www.w3.org/1999/xlink" xmlns:a="http://ns.adobe.com/AdobeSVGViewerExtensions/3.0/"
	 x="0px" y="0px" viewBox="0 0 177 177" style="enable-background:new 0 0 177 177;" xml:space="preserve">
<g>
	<g>
		<circle style="fill:#18928F;" cx="89" cy="88.2" r="78.4"/>
		<path style="fill:#FFFFFF;" d="M89,171.6c-46,0-83.4-37.4-83.4-83.4C5.6,42.2,43,4.8,89,4.8s83.4,37.4,83.4,83.4
			C172.4,134.2,135,171.6,89,171.6z M89,14.8c-40.5,0-73.4,32.9-73.4,73.4c0,40.5,32.9,73.4,73.4,73.4s73.4-32.9,73.4-73.4
			C162.4,47.7,129.5,14.8,89,14.8z"/>
	</g>
	<path style="opacity:0.3;" d="M44.4,120.6l66.9,37.5c0,0,22.9-5.9,37.9-28.4c0.5,0,13.5-17.7,12.9-40.4l-28.7-41.5l-20.9,7.5
		l-26.8,9.6L46.6,50.9L44.4,120.6z"/>
	<g>
		<path style="fill:#FFFFFF;" d="M134.9,84c0,10.4,0,20.8,0,31.2c0,4-0.9,5.3-4.5,6.7c-12.8,5.1-25.7,10.2-38.5,15.4
			c-2.2,0.9-4.1,0.9-6.3,0c-12.9-5.2-25.9-10.4-38.9-15.6c-3.2-1.3-4.2-2.8-4.2-6.3c0-21.1,0.1-42.2-0.1-63.4c0-4.3,3.5-7.5,8.2-5.5
			c11.9,5,24,9.7,36,14.5c1.5,0.6,2.7,0.6,4.2,0c12-4.9,24.1-9.5,36-14.5c4.2-1.8,8.1,0.8,8,5.5C134.8,62.7,134.9,73.3,134.9,84z
			 M48.1,85.1c0,9.9,0,19.9,0,29.8c0,1.5,0.4,2.2,1.8,2.8c11.3,4.4,22.5,8.8,33.7,13.3c1.8,0.7,2.1,0.4,2.1-1.5
			c-0.1-19.8-0.1-39.6,0-59.3c0-1.6-0.4-2.5-2-3.1c-11.2-4.3-22.4-8.8-33.5-13.3c-1.9-0.8-2.2-0.4-2.1,1.5
			C48.2,65.2,48.1,75.1,48.1,85.1z M92.6,131.2c0.7-0.2,1.2-0.3,1.6-0.5c11.5-4.5,22.9-9.1,34.4-13.6c1.4-0.5,1.3-1.4,1.3-2.5
			c0-19.9,0-39.7,0-59.6c0-1.8-0.2-2.3-2.1-1.5c-10.9,4.4-21.9,8.8-32.8,13.1c-1.8,0.7-2.4,1.6-2.4,3.5c0.1,19.6,0,39.1,0,58.7
			C92.6,129.5,92.6,130.3,92.6,131.2z"/>
		<path style="fill:#F1B22D;" d="M54.6,75.4c5.5,2.2,10.6,4.2,15.8,6.3c0.4,0.2,0.8,0.4,1.3,0.5c2.9,0.5,3.6,2.2,3.3,5
			c-0.2,1.7-0.6,1.6-1.9,1.1c-5.3-2.2-10.6-4.4-16-6.3c-2-0.7-2.8-1.8-2.5-3.9C54.7,77.3,54.6,76.5,54.6,75.4z"/>
		<path style="fill:#F1B22D;" d="M74.9,110.3c-5.5-2.2-10.8-4.3-16.1-6.4c-0.1,0-0.1-0.1-0.2-0.1c-4.2-1.7-4.2-1.7-3.8-6.5
			c0.9-0.1,1.6,0.4,2.3,0.7c4.9,1.9,9.8,4.1,14.8,5.8c2.5,0.9,3.6,2.1,3.1,4.7C74.9,108.9,74.9,109.4,74.9,110.3z"/>
		<path style="fill:#F1B22D;" d="M122.6,95.6c0.1,0.3,0.2,0.3,0.2,0.4c0.4,4.9,0.4,4.9-4.1,6.7c-5.2,2.1-10.4,4.1-15.6,6.2
			c-0.1,0.1-0.3,0-0.7,0.1c0-1.4,0-2.7,0-4.1c0-0.7,0.2-1.2,0.9-1.4C109.6,100.8,116.1,98.2,122.6,95.6z"/>
		<path style="fill:#F1B22D;" d="M102.4,87.4c-0.5-4.8-0.5-4.8,3.8-6.6c4.9-1.9,9.7-3.9,14.5-5.9c1.5-0.6,2.1-0.7,2.2,1.3
			c0.1,2.5-0.6,3.6-3.1,4.5c-5.2,1.8-10.3,4-15.4,6.1C103.7,87.1,103.2,87.5,102.4,87.4z"/>
	</g>
</g>
</svg>
