<?xml version="1.0" encoding="utf-8"?>
<!-- Generator: Adobe Illustrator 22.1.0, SVG Export Plug-In . SVG Version: 6.00 Build 0)  -->
<svg version="1.1" id="Layer_1" xmlns="http://www.w3.org/2000/svg" xmlns:xlink="http://www.w3.org/1999/xlink" x="0px" y="0px"
	 viewBox="0 0 256 256" style="enable-background:new 0 0 256 256;" xml:space="preserve">
<title>Lion</title>
<rect style="fill:none;" width="256" height="256"/>
<g id="Layer_2_1_">
	<g id="Layer_1-2">
		<path style="fill:#FCC427;" d="M56.3,90c0,0-16.4-1.5-10.5,12.9s15.4,19.9,15.4,19.9h23.2c0,0,27.1-35,1.2-32.8L56.3,90z"/>
		<rect x="64.5" y="84.1" style="fill:#FCC427;" width="13.7" height="39.4"/>
		<path style="fill:#FCC427;" d="M84.4,121.6h1.5c0.3,0,0.6,0.1,0.8,0.3l0,0c0.6,0.6,0.1,1.4-0.8,1.4h-7.3v-1.8L84.4,121.6z"/>
		<path style="fill:#FCC427;" d="M60,121.6h-1.5c-0.3,0-0.6,0.1-0.9,0.3l0,0c-0.6,0.6-0.1,1.4,0.9,1.4H66v-1.8L60,121.6z"/>
		<path style="fill:#FFE131;" d="M66.8,123.5H63c-0.7,0-1.3-0.5-1.5-1.2l-5.9-38.4h14.4v36.4C70.1,122,68.7,123.5,66.8,123.5
			C66.9,123.5,66.9,123.5,66.8,123.5z"/>
		<path style="fill:#FFE131;" d="M76.6,123.5h3.8c0.7,0,1.3-0.5,1.5-1.2l5.9-38.4H73.4v36.4C73.4,122,74.8,123.5,76.6,123.5z"/>
		<circle style="fill:#FF9433;" cx="69.6" cy="20.9" r="6.5"/>
		<circle style="fill:#FF9433;" cx="81.3" cy="22.7" r="6.5"/>
		<circle style="fill:#FF9433;" cx="92.1" cy="29.7" r="6.4"/>
		<circle style="fill:#FF9433;" cx="99.3" cy="39.1" r="6.4"/>
		<circle style="fill:#FF9433;" cx="102.9" cy="49.2" r="6.4"/>
		<circle style="fill:#FF9433;" cx="102.5" cy="61" r="6.4"/>
		<circle style="fill:#FF9433;" cx="97.8" cy="72" r="6.4"/>
		<circle style="fill:#FF9433;" cx="89.3" cy="80.2" r="6.4"/>
		<circle style="fill:#FF9433;" cx="77.2" cy="85.5" r="6.5"/>
		<circle style="fill:#FF9433;" cx="65.3" cy="85.7" r="6.5"/>
		<circle style="fill:#FF9433;" cx="53.4" cy="80.8" r="6.4"/>
		<circle style="fill:#FF9433;" cx="44.7" cy="72.8" r="6.4"/>
		<circle style="fill:#FF9433;" cx="38.9" cy="61.8" r="6.4"/>
		<circle style="fill:#FF9433;" cx="37.8" cy="50.1" r="6.4"/>
		<circle style="fill:#FF9433;" cx="41.1" cy="38.5" r="6.4"/>
		<circle style="fill:#FF9433;" cx="48.5" cy="29.3" r="6.4"/>
		<circle style="fill:#FF9433;" cx="58.5" cy="23.1" r="6.4"/>
		<circle style="fill:#FF9433;" cx="70.5" cy="53.5" r="33.1"/>
		<circle style="fill:#FFE131;" cx="70.6" cy="57.9" r="21.4"/>
		<circle style="fill:#FFFFFF;" cx="61.6" cy="56.5" r="4.4"/>
		<circle cx="62.2" cy="56.8" r="2.2"/>
		<circle style="fill:#FFFFFF;" cx="79.8" cy="56.5" r="4.4"/>
		<circle cx="79.2" cy="56.8" r="2.2"/>
		<path style="fill:#FCC427;" d="M66.2,54.6c0,0-0.4,12,1.9,12.8c2.4,0.7,3.8,0.8,5.6,0c2.1-0.9,1.6-12.8,1.6-12.8"/>
		<path d="M67.5,67l3.2,3.7L74,67C74,67,70.3,68.2,67.5,67z"/>
		<path d="M65.8,74.1c0.4-0.3,0.8-0.7,1.2-1c0.4-0.3,0.8-0.6,1.2-0.9c0.4-0.3,0.8-0.6,1.3-0.9l1.3-0.9l0.2-0.1l0.2,0.1
			c0.4,0.3,0.8,0.6,1.2,0.9c0.4,0.3,0.8,0.6,1.1,1s0.7,0.7,1.1,1c0.4,0.3,0.7,0.7,1.1,1c-0.4-0.2-0.9-0.5-1.3-0.8s-0.8-0.6-1.2-0.8
			c-0.4-0.3-0.8-0.6-1.2-0.9s-0.8-0.6-1.2-0.9l0.4,0l-1.3,0.8c-0.4,0.3-0.9,0.5-1.3,0.8s-0.9,0.5-1.3,0.8
			C66.7,73.7,66.3,73.9,65.8,74.1z"/>
		<path style="fill:#FFE131;" d="M55,37.9l-5.5,4.9c-1.3-1.5-1.2-3.8,0.3-5.2C51.3,36.2,53.6,36.4,55,37.9z"/>
		<path style="fill:#FFE131;" d="M85.3,38.2l5.5,4.9c1.3-1.5,1.2-3.8-0.3-5.2C89,36.5,86.7,36.7,85.3,38.2L85.3,38.2z"/>
	</g>
</g>
<g>
	<path style="fill:#EB3A58;" d="M218.1,123.6C218.1,123.6,218.1,123.6,218.1,123.6c-2.7,0-4.9-2.2-4.9-4.9
		c0.1-12.4-2.3-20.6-4.3-25.2c-2.1-5-4.3-7.1-4.3-7.1c0,0,0.1,0.1,0.1,0.1l6.5-7.3c0.3,0.3,3.5,3.2,6.4,9.6
		c3.7,8.2,5.6,18.3,5.5,30.1C223,121.4,220.8,123.6,218.1,123.6z"/>
	<path style="fill:#EB3A58;" d="M163.1,123.6c-2.7,0-4.9-2.2-4.9-4.9c-0.1-11.8,1.9-22,5.9-30.2c3.1-6.4,6.4-9.3,6.8-9.6l6.3,7.5
		c0,0,0,0,0.1,0c0,0-2.3,2.1-4.6,7.1c-2.1,4.6-4.7,12.8-4.6,25.2C168.1,121.4,165.9,123.6,163.1,123.6
		C163.1,123.6,163.1,123.6,163.1,123.6z"/>
	<path style="fill:#EB3A58;" d="M191.8,113.4h-2.9c-10.4,0-18.9-8.5-18.9-18.9v0c0-10.4,8.5-18.9,18.9-18.9h2.9
		c10.4,0,18.9,8.5,18.9,18.9v0C210.7,105,202.2,113.4,191.8,113.4z"/>
	<path style="fill:#E2D2C3;" d="M191.6,110.8h-2.5c-9,0-16.2-7.3-16.2-16.2v0c0-9,7.3-16.2,16.2-16.2h2.5c9,0,16.2,7.3,16.2,16.2v0
		C207.9,103.5,200.6,110.8,191.6,110.8z"/>
	<circle style="fill:#EB3A58;" cx="223.4" cy="48.3" r="19.2"/>
	<circle style="fill:#EB3A58;" cx="156.2" cy="48.3" r="19.2"/>
	<circle style="fill:#FCAD1F;" cx="156.2" cy="48.3" r="12.7"/>
	<circle style="fill:#FCAD1F;" cx="223.4" cy="48.3" r="12.7"/>
	<circle style="fill:#EB3A58;" cx="190.2" cy="53.8" r="34.8"/>
	<path style="fill:#EFE2D5;" d="M205.5,75.6h-30.2c-8.9,0-16.1-7.2-16.1-16.1v0c0-8.9,7.2-16.1,16.1-16.1h30.2
		c8.9,0,16.1,7.2,16.1,16.1v0C221.5,68.4,214.3,75.6,205.5,75.6z"/>
	<path style="fill:#C116A0;" d="M150.7,67.4c0.5,0.1,1.1,0.1,1.7,0.1L150.7,67.4L150.7,67.4z"/>
	<path style="fill:#C116A0;" d="M191.5,67.4L191.5,67.4l-1.3,0C190.6,67.5,191.1,67.4,191.5,67.4z"/>
	<path style="fill:#EFE2D5;" d="M190.3,92.8L190.3,92.8c-8.1,0-14.7-6.6-14.7-14.7v-2.4c0-8.1,6.6-14.7,14.7-14.7h0
		c8.1,0,14.7,6.6,14.7,14.7v2.4C205,86.2,198.4,92.8,190.3,92.8z"/>
	<g>
		<g>
			<g>
				<path d="M191.9,71.8c3.9,0,3.9-6,0-6C188.1,65.8,188.1,71.8,191.9,71.8L191.9,71.8z"/>
			</g>
		</g>
		<g>
			<g>
				<path d="M189.1,71.9c3.9,0,3.9-6,0-6C185.3,65.9,185.2,71.9,189.1,71.9L189.1,71.9z"/>
			</g>
		</g>
	</g>
	<path style="fill:none;stroke:#000000;stroke-width:2;stroke-linecap:round;stroke-miterlimit:10;" d="M180,76.1c0,0,1,8,10.1,8
		c9.3,0,9.6-8,9.6-8"/>
	<path style="fill:#EB3A58;" d="M210,130h-10.3v-5H210c1.4,0,2.5,1.1,2.5,2.5l0,0C212.5,128.8,211.4,130,210,130z"/>
	<path style="fill:#EB3A58;" d="M173.5,130h9.8v-5h-9.8c-1.4,0-2.5,1.1-2.5,2.5l0,0C171,128.8,172.2,130,173.5,130z"/>
	<path style="fill:#EB3A58;" d="M193.6,113.4c0,0,2.6,11-0.9,16.5h14.4c0,0,3.2-15.2-0.9-22.7L193.6,113.4z"/>
	<path style="fill:#EB3A58;" d="M190.2,113.4c0,0-2.6,11,0.9,16.5h-14.4c0,0-3.2-15.2,0.9-22.7L190.2,113.4z"/>
	<g>
		<circle style="fill:#FFFFFF;" cx="178" cy="62" r="5"/>
		<circle cx="178.7" cy="62.3" r="2.5"/>
	</g>
	<g>
		<circle style="fill:#FFFFFF;" cx="202.2" cy="62" r="5"/>
		<circle cx="201.5" cy="62.3" r="2.5"/>
	</g>
</g>
<g>
	<polygon style="fill:#F2593B;" points="146.7,207.2 131.9,248.1 116,207.2 	"/>
	<polygon style="fill:#FFC533;" points="130.5,174.9 110,191.7 91,142.7 	"/>
	<polygon style="fill:#FF8A3B;" points="152,192.5 146.7,207.2 116,207.2 110,191.7 130.5,174.9 	"/>
	<polygon style="fill:#FFC533;" points="170,142.7 152,192.5 130.5,174.9 	"/>
	<polygon style="fill:#F92121;" points="170,207.2 131.9,248.1 146.7,207.2 	"/>
	<polygon style="fill:#FF542C;" points="170,207.2 146.7,207.2 152,192.5 	"/>
	<polygon style="fill:#FF9343;" points="170,142.7 170,207.2 152,192.5 	"/>
	<polygon style="fill:#F92121;" points="131.9,248.1 91,207.2 116,207.2 	"/>
	<polygon style="fill:#FF542C;" points="116,207.2 91,207.2 110,191.7 	"/>
	<polygon style="fill:#FF9343;" points="110,191.7 91,207.2 91,142.7 	"/>
	<circle cx="114.3" cy="208.6" r="3.1"/>
	<circle cx="146.7" cy="208.6" r="3.1"/>
</g>
</svg>
