<?xml version="1.0" encoding="utf-8"?>
<!-- Generator: Adobe Illustrator 22.1.0, SVG Export Plug-In . SVG Version: 6.00 Build 0)  -->
<svg version="1.1" id="Layer_1" xmlns="http://www.w3.org/2000/svg" xmlns:xlink="http://www.w3.org/1999/xlink" x="0px" y="0px"
	 viewBox="0 0 256 256" style="enable-background:new 0 0 256 256;" xml:space="preserve">
<title>Lion</title>
<rect style="fill:none;" width="256" height="256"/>
<g>
	<path d="M127.8,63.2c-1.4,0-2.4-1.1-2.4-2.4v-49c0-1.4,1.1-2.4,2.4-2.4c1.4,0,2.4,1.1,2.4,2.4v49C130.3,62.1,129.2,63.2,127.8,63.2
		z"/>
	<path d="M148.5,72.2c-4.9,0-9.9-1.9-14.8-5.5l0,0c-7.5-5.6-10.2-13.7-7.7-22.8c2.4-8.5,9-17.1,18.8-24
		c10.5-7.4,23.1-12.1,36.6-13.5l2.9-0.3l-0.2,2.9c-1.2,14.9-4.3,28.5-9,39.3c-4.9,11.2-11.3,18.9-18.5,22.1
		C154,71.6,151.2,72.2,148.5,72.2z M136.6,62.8c6.2,4.7,12.3,5.8,18,3.2c6.1-2.7,11.6-9.5,16.1-19.6c4.2-9.6,7.1-21.5,8.4-34.7
		c-25.5,3.7-44.5,19.7-48.3,33.5C129.4,50.2,129.3,57.2,136.6,62.8L136.6,62.8z"/>
	<path style="fill:#FCAD1F;" d="M125.5,60.9c0,0-59-53.3-108.2,10.7s36.3,185.6,75.4,177.8c28.7-5.7,28.1-12.9,67.2-0.8
		c53.3,16.4,118.8-124.6,81.9-177C220.1,40.5,187.8,23.2,125.5,60.9z"/>
</g>
</svg>
