<?xml version="1.0" encoding="utf-8"?>
<!-- Generator: Adobe Illustrator 22.1.0, SVG Export Plug-In . SVG Version: 6.00 Build 0)  -->
<svg version="1.1" id="Layer_1" xmlns="http://www.w3.org/2000/svg" xmlns:xlink="http://www.w3.org/1999/xlink" x="0px" y="0px"
	 viewBox="0 0 256 256" style="enable-background:new 0 0 256 256;" xml:space="preserve">
<title>Lion</title>
<rect style="fill:none;" width="256" height="256"/>
<g>
	<polygon style="fill:#F2593B;" points="166.3,156.7 130.4,256 91.9,156.7 	"/>
	<polygon style="fill:#FFC533;" points="127.2,78.4 77.4,119.1 31.3,0 	"/>
	<polygon style="fill:#FF8A3B;" points="179.3,121 166.3,156.7 91.9,156.7 77.4,119.1 127.2,78.4 	"/>
	<polygon style="fill:#FFC533;" points="223,0 179.3,121 127.2,78.4 	"/>
	<polygon style="fill:#F92121;" points="223,156.7 130.4,256 166.3,156.7 	"/>
	<polygon style="fill:#FF542C;" points="223,156.7 166.3,156.7 179.3,121 	"/>
	<polygon style="fill:#FF9343;" points="223,0 223,156.7 179.3,121 	"/>
	<polygon style="fill:#F92121;" points="130.4,256 31.3,156.7 91.9,156.7 	"/>
	<polygon style="fill:#FF542C;" points="91.9,156.7 31.3,156.7 77.4,119.1 	"/>
	<polygon style="fill:#FF9343;" points="77.4,119.1 31.3,156.7 31.3,0 	"/>
	<circle cx="87.8" cy="160.1" r="7.5"/>
	<circle cx="166.5" cy="160.1" r="7.5"/>
</g>
</svg>
