<?xml version="1.0" encoding="utf-8"?>
<!-- Generator: Adobe Illustrator 22.1.0, SVG Export Plug-In . SVG Version: 6.00 Build 0)  -->
<svg version="1.1" id="Layer_1" xmlns="http://www.w3.org/2000/svg" xmlns:xlink="http://www.w3.org/1999/xlink" x="0px" y="0px"
	 viewBox="0 0 256 256" style="enable-background:new 0 0 256 256;" xml:space="preserve">
<title>Lion</title>
<rect style="fill:none;" width="256" height="256"/>
<g>
	<path style="opacity:0.7;" d="M167,115.8c0,0-5,2.7,0,3c5,0.3,17.2-3.9,16.7-0.8c-0.5,3,23.3,0.8,23.3,0.8s-22.6,1.4-22-1.9
		c0.6-3.4-12,0.5-14.6-0.3S168,115.1,167,115.8z"/>
	<path style="fill:#841753;" d="M192.4,80.6c-2.1,2.6-5.3,8.5-5.3,8.5c-0.2,0.2-0.3,0.4-0.5,0.6c-1-1.7-3.4-2.8-4.8-3.5
		c-1.4-0.7-2.6-1.9-4.7-2.2c2.9-4.5,4.7-8.4,4.7-8.4C190.1,72.6,192.4,80.6,192.4,80.6z"/>
	<polygon style="fill:#961E5C;" points="185.1,74.5 177.8,87.1 180,88.2 187.1,75.1 	"/>
	<path style="fill:#EFE2D5;" d="M229,21.6c-1.2,2.2-2.3,3.8-2.3,3.8l-0.5,0.8l-33.9,54.4c0,0-3.7-5.9-10.6-5l0.2-0.5L211.8,20
		l2.8-5.1l0.8-1.1c0.3-0.6,1.5-2.5,2-3c1.6-1.8,4.8-4.2,10.2-2.1c0.2,0.1,0.4,0.2,0.7,0.3C233.3,11.2,231.1,17.5,229,21.6z"/>
	<path style="fill:#FCAD1F;" d="M184.5,102.1c-3.4-0.4-7.4,2.8-10.4,6c-3,3.2-5.1,6.4-5.1,6.4s0,0.2,0.1,0.5c0.1,0.9-1,2.9-2.3,1.9
		c-1.8-1.4,0.5-2.9,0.5-2.9c0-0.1,0-0.2,0.1-0.3c0.8-3.6,1-19.4,1-19.4c3.4-2.6,6.5-6.6,8.8-10.2c1.5,0,3.6,0.7,5,1.4
		c0.7,0.4,1.6,1,2.4,1.8c0.8,0.8,1.6,1.7,2.1,2.5C183.5,94.4,184.5,102.1,184.5,102.1z"/>
	<path style="fill:#F79E28;" d="M168.4,113.7c-0.3,0.9,0,1,0.5,0.8c0.2,0.6,0.1,1.3-0.2,1.9c-0.3,0.8-1.4,1-2.1,0.5
		c-1.8-1.4,0.5-2.9,0.5-2.9c0.5,1,6.8-16,6.9-16.2l-1.4,4.6C172.6,102.5,169.1,111.9,168.4,113.7z"/>
	<path style="fill:#F79E28;" d="M184.5,102.1c-3.4-0.4-7.4,2.8-10.4,6c3.4-5.4,8.3-7.6,8.3-7.6c-1.3-8,1.4-12.3,2.1-13.3
		c0.8,0.8,1.6,1.7,2.1,2.5C183.5,94.4,184.5,102.1,184.5,102.1z"/>
	<path style="fill:#E2D2C3;" d="M223.2,23.9c1.2,0.8,2.2,1.5,3,2.3l-33.9,54.4c0,0-3.7-5.9-10.6-5l0.2-0.5c2-0.6,5.3-1.3,7.8-0.2
		C192.7,76.4,213.7,42.5,223.2,23.9z"/>
	<path style="fill:#E2D2C3;" d="M229,21.6c-1.1-1.2-2.2-2.2-3.3-3c1-2.3,1.7-4.1,1.9-5.2c0.4-2.2,0.3-3.7,0-4.8
		c0.2,0.1,0.4,0.2,0.7,0.3C233.3,11.2,231.1,17.5,229,21.6z"/>
	<path style="fill:#961E5C;" d="M219.5,13.7c0,0-13.2,22.5-14.8,25.4s1.3,1.9,1.9,0.5c0.6-1.4,15-25.4,15-25.4
		S221.2,12.9,219.5,13.7z"/>
	<path style="fill:#841753;" d="M229,21.6c-1.2,2.2-2.3,3.8-2.3,3.8l-0.5,0.8c-0.8-0.7-1.8-1.5-3-2.3c1-2,1.9-3.8,2.6-5.3
		C226.8,19.4,227.9,20.4,229,21.6z"/>
	<path style="fill:#961E5C;" d="M225.7,18.6c-0.7,1.6-1.6,3.4-2.6,5.3c-2.8-1.8-6.5-3.4-11.3-4l2.8-5.1
		C217.5,14.9,221.7,15.6,225.7,18.6z"/>
</g>
<g>
	<path d="M72.5,37c-0.6,0-1.1-0.5-1.1-1.1V13.7c0-0.6,0.5-1.1,1.1-1.1c0.6,0,1.1,0.5,1.1,1.1v22.2C73.6,36.5,73.1,37,72.5,37z"/>
	<path d="M81.8,41.1c-2.2,0-4.5-0.8-6.7-2.5l0,0c-3.4-2.5-4.6-6.2-3.5-10.3c1.1-3.9,4.1-7.7,8.5-10.8c4.7-3.3,10.5-5.5,16.6-6.1
		l1.3-0.1L98,12.5c-0.5,6.7-1.9,12.9-4.1,17.8c-2.2,5.1-5.1,8.5-8.4,10C84.3,40.8,83.1,41.1,81.8,41.1z M76.5,36.8
		c2.8,2.1,5.6,2.6,8.1,1.4c2.8-1.2,5.3-4.3,7.3-8.9c1.9-4.3,3.2-9.7,3.8-15.7c-11.6,1.7-20.1,8.9-21.8,15.2
		C73.2,31.1,73.1,34.3,76.5,36.8L76.5,36.8z"/>
	<path style="fill:#FCAD1F;" d="M71.4,35.9c0,0-26.7-24.1-49,4.8s16.4,84,34.1,80.5c13-2.6,12.7-5.8,30.4-0.4
		c24.1,7.4,53.8-56.4,37.1-80.1C114.2,26.7,99.6,18.9,71.4,35.9z"/>
</g>
<g>
	<path style="fill:#839322;" d="M151,247.4h-33.2c-0.7,0-1.2-0.5-1.2-1.2c0-0.7,0.5-1.2,1.2-1.2H151c0.7,0,1.2,0.5,1.2,1.2
		C152.2,246.9,151.7,247.4,151,247.4z"/>
	<path d="M123.9,155.9c-0.1,0-0.2,0-0.3,0c-0.7-0.1-1.1-0.8-0.9-1.4l10.1-47.5c0.1-0.7,0.8-1.1,1.4-0.9l6.5,1.4
		c0.7,0.1,1.1,0.8,0.9,1.4c-0.1,0.7-0.8,1.1-1.4,0.9l-5.3-1.1l-9.8,46.3C124.9,155.5,124.4,155.9,123.9,155.9z"/>
	<path style="fill:#FCAD1F;" d="M151.5,110.9l-9.6-2c-0.9-0.2-1.4-1-1.2-1.9l1.2-5.6c0.2-0.9,1-1.4,1.9-1.2l9.6,2
		c0.9,0.2,1.4,1,1.2,1.9l-1.2,5.6C153.2,110.5,152.4,111,151.5,110.9z"/>
	<path d="M117.9,247.4c-0.1,0-0.2,0-0.3,0c-0.7-0.1-1.1-0.8-0.9-1.4l2.6-12.4c0.1-0.7,0.8-1.1,1.4-0.9c0.7,0.1,1.1,0.8,0.9,1.4
		l-2.6,12.4C119,247,118.5,247.4,117.9,247.4z"/>
	<path style="fill:#339CC1;" d="M155.9,107.2l-20.6,97c-1.1,5.4-2.7,10.6-4.8,15.7l-9.2,20.7l-4.5-1l0-22.7c0.2-5.5,0.9-10.9,2-16.3
		l20.6-97c0.2-0.9,1-1.4,1.9-1.2l13.4,2.8C155.6,105.5,156.1,106.3,155.9,107.2z"/>
	<path style="fill:#FCAD1F;" d="M139.2,184.3c-0.1,0-0.3,0-0.4-0.1c-8-4.8-14.8-3.4-14.9-3.4c-0.5,0.1-0.9-0.2-1-0.7
		c-0.1-0.5,0.2-0.9,0.7-1c0.3-0.1,7.5-1.5,16.1,3.6c0.4,0.2,0.5,0.8,0.3,1.2C139.8,184.1,139.5,184.3,139.2,184.3z"/>
	<g>
		<g>
			<path style="fill:#839322;" d="M154.4,247.7c1.9,0,1.9-3,0-3C152.5,244.7,152.5,247.7,154.4,247.7L154.4,247.7z"/>
		</g>
	</g>
	<g>
		<g>
			<path style="fill:#839322;" d="M158.1,247.7c1.9,0,1.9-3,0-3C156.2,244.7,156.2,247.7,158.1,247.7L158.1,247.7z"/>
		</g>
	</g>
</g>
</svg>
