<?xml version="1.0" encoding="utf-8"?>
<!-- Generator: Adobe Illustrator 22.1.0, SVG Export Plug-In . SVG Version: 6.00 Build 0)  -->
<svg version="1.1" id="Layer_1" xmlns="http://www.w3.org/2000/svg" xmlns:xlink="http://www.w3.org/1999/xlink" x="0px" y="0px"
	 viewBox="0 0 256 256" style="enable-background:new 0 0 256 256;" xml:space="preserve">
<title>Lion</title>
<rect style="fill:none;" width="256" height="256"/>
<g>
	<path style="fill:#EB3A58;" d="M191.8,129.6c-17.1,1.1-3.7-3.7-6.4,3.7s-14.9,7.5-28.8-3.7c-10.8-8.7-14.5,3.7-26.1,8.5
		c-15.5,6.4-27.2,0.5-32.5-8c-10.1-16.2-24.5,8-40-3.7s4.8-23.5,4.8-23.5c2.4-0.9,5.1-1.7,8.1-2.5c-4.7-3.2-10.3-9.2-8.1-18.9
		c3.7-16,19.7-12.8,19.7-12.8s-14.9-21.3,9.6-30.4S104.4,3.2,98,0c0,0,36.3,7.5,53.9,20.8s34.7,29.9,21.3,45.3c0,0,22.9-1.1,25.1,16
		c0.6,4.9,0.1,8.8-0.9,11.8C210.8,97.7,207.3,128.7,191.8,129.6z"/>
	<path d="M128.9,254.4c-1,0-2-0.6-2.4-1.5L65.7,128.1c-0.6-1.3-0.1-2.9,1.2-3.6c1.3-0.6,2.9-0.1,3.6,1.2l58.4,119.8l55.8-119.7
		c0.6-1.3,2.2-1.9,3.5-1.3c1.3,0.6,1.9,2.2,1.3,3.5l-58.1,124.8C130.9,253.8,130,254.4,128.9,254.4
		C128.9,254.4,128.9,254.4,128.9,254.4z"/>
</g>
</svg>
