<?xml version="1.0" encoding="utf-8"?>
<!-- Generator: Adobe Illustrator 22.1.0, SVG Export Plug-In . SVG Version: 6.00 Build 0)  -->
<svg version="1.1" id="Layer_1" xmlns="http://www.w3.org/2000/svg" xmlns:xlink="http://www.w3.org/1999/xlink" x="0px" y="0px"
	 viewBox="0 0 256 256" style="enable-background:new 0 0 256 256;" xml:space="preserve">
<title>Lion</title>
<rect style="fill:none;" width="256" height="256"/>
<g id="Layer_2_1_">
	<g id="Layer_1-2">
		<path style="fill:#FCC427;" d="M95.5,177.6c0,0-38.3-3.6-24.6,30.2s36.2,46.5,36.2,46.5h54.4c0,0,63.4-81.9,2.8-76.8L95.5,177.6z"
			/>
		<rect x="114.7" y="163.8" style="fill:#FCC427;" width="32" height="92.2"/>
		<path style="fill:#FCC427;" d="M161.3,251.5h3.5c0.7,0,1.4,0.3,2,0.7l0,0c1.4,1.3,0.2,3.4-2,3.4h-17.1v-4.1L161.3,251.5z"/>
		<path style="fill:#FCC427;" d="M104.1,251.5h-3.6c-0.7,0-1.5,0.2-2,0.7l0,0c-1.4,1.3-0.2,3.4,2,3.4h17.6v-4.1L104.1,251.5z"/>
		<path style="fill:#FFE131;" d="M120.1,256h-8.9c-1.7,0-3.1-1.2-3.4-2.9l-13.7-89.9h33.7v85.2C127.8,252.6,124.4,256,120.1,256
			C120.1,256,120.1,256,120.1,256z"/>
		<path style="fill:#FFE131;" d="M143,256h8.9c1.7,0,3.1-1.2,3.4-2.9l13.7-89.9h-33.7v85.2C135.3,252.6,138.8,256,143,256z"/>
		<circle style="fill:#FF9433;" cx="126.4" cy="15.8" r="15.1"/>
		<circle style="fill:#FF9433;" cx="154" cy="20.2" r="15.1"/>
		<circle style="fill:#FF9433;" cx="179.3" cy="36.4" r="14.9"/>
		<circle style="fill:#FF9433;" cx="196" cy="58.4" r="14.9"/>
		<circle style="fill:#FF9433;" cx="204.4" cy="82" r="14.9"/>
		<circle style="fill:#FF9433;" cx="203.5" cy="109.6" r="14.9"/>
		<circle style="fill:#FF9433;" cx="192.4" cy="135.5" r="14.9"/>
		<circle style="fill:#FF9433;" cx="172.6" cy="154.7" r="14.9"/>
		<circle style="fill:#FF9433;" cx="144.4" cy="166.9" r="15.1"/>
		<circle style="fill:#FF9433;" cx="116.4" cy="167.6" r="15.1"/>
		<circle style="fill:#FF9433;" cx="88.6" cy="156.1" r="14.9"/>
		<circle style="fill:#FF9433;" cx="68.3" cy="137.4" r="14.9"/>
		<circle style="fill:#FF9433;" cx="54.7" cy="111.7" r="14.9"/>
		<circle style="fill:#FF9433;" cx="52.2" cy="84.2" r="14.9"/>
		<circle style="fill:#FF9433;" cx="59.9" cy="57" r="14.9"/>
		<circle style="fill:#FF9433;" cx="77.3" cy="35.5" r="14.9"/>
		<circle style="fill:#FF9433;" cx="100.7" cy="21" r="14.9"/>
		<circle style="fill:#FF9433;" cx="128.6" cy="92.2" r="77.4"/>
		<circle style="fill:#FFE131;" cx="129" cy="102.5" r="50"/>
		<circle style="fill:#FFFFFF;" cx="107.8" cy="99.2" r="10.3"/>
		<circle cx="109.2" cy="99.9" r="5.2"/>
		<circle style="fill:#FFFFFF;" cx="150.5" cy="99.2" r="10.3"/>
		<circle cx="149.1" cy="99.9" r="5.2"/>
		<path style="fill:#FCC427;" d="M118.5,94.8c0,0-1,28.2,4.5,29.9c5.5,1.7,8.8,1.8,13.1,0c4.8-2.1,3.8-29.9,3.8-29.9"/>
		<path d="M121.6,123.8l7.6,8.6l7.6-8.6C136.7,123.8,128.1,126.5,121.6,123.8z"/>
		<path d="M117.6,140.5c0.9-0.8,1.9-1.6,2.8-2.3c0.9-0.7,1.9-1.5,2.9-2.2s2-1.4,2.9-2.1l3-2l0.5-0.3l0.4,0.3
			c0.9,0.7,1.8,1.4,2.7,2.2c0.9,0.7,1.8,1.5,2.7,2.3s1.7,1.6,2.6,2.3c0.8,0.8,1.7,1.6,2.5,2.4c-1-0.6-2-1.2-3-1.9
			c-1-0.6-1.9-1.3-2.9-2c-0.9-0.7-1.9-1.4-2.8-2c-0.9-0.7-1.9-1.4-2.8-2.1l0.9,0l-3,1.9c-1,0.6-2,1.3-3.1,1.9s-2.1,1.2-3.1,1.8
			C119.8,139.4,118.7,140,117.6,140.5z"/>
		<path style="fill:#FFE131;" d="M92.4,55.6L79.5,67c-3.2-3.5-2.8-9,0.7-12.1C83.8,51.7,89.2,52.1,92.4,55.6z"/>
		<path style="fill:#FFE131;" d="M163.3,56.3l12.8,11.4c3.2-3.5,2.8-9-0.7-12.1C171.9,52.4,166.5,52.8,163.3,56.3L163.3,56.3z"/>
	</g>
</g>
<g>
	<path style="fill:#EB3A58;" d="M477.6,8.1C477.5,8.1,477.5,8.1,477.6,8.1c-2.7,0-4.9-2.2-4.9-4.9c0.1-12.4-2.3-20.6-4.3-25.2
		c-2.1-5-4.3-7.1-4.3-7.1c0,0,0.1,0.1,0.1,0.1l6.5-7.3c0.3,0.3,3.5,3.2,6.4,9.6c3.7,8.2,5.6,18.3,5.5,30.1
		C482.4,5.9,480.3,8.1,477.6,8.1z"/>
	<path style="fill:#EB3A58;" d="M422.6,8.1c-2.7,0-4.9-2.2-4.9-4.9c-0.1-11.8,1.9-22,5.9-30.2c3.1-6.4,6.4-9.3,6.8-9.6l6.3,7.5
		c0,0,0,0,0.1,0c0,0-2.3,2.1-4.6,7.1c-2.1,4.6-4.7,12.8-4.6,25.2C427.5,5.8,425.3,8.1,422.6,8.1C422.6,8.1,422.6,8.1,422.6,8.1z"/>
	<path style="fill:#EB3A58;" d="M451.3-2.1h-2.9c-10.4,0-18.9-8.5-18.9-18.9v0c0-10.4,8.5-18.9,18.9-18.9h2.9
		c10.4,0,18.9,8.5,18.9,18.9v0C470.1-10.6,461.7-2.1,451.3-2.1z"/>
	<path style="fill:#E2D2C3;" d="M451.1-4.8h-2.5c-9,0-16.2-7.3-16.2-16.2v0c0-9,7.3-16.2,16.2-16.2h2.5c9,0,16.2,7.3,16.2,16.2v0
		C467.3-12,460-4.8,451.1-4.8z"/>
	<circle style="fill:#EB3A58;" cx="482.8" cy="-67.3" r="19.2"/>
	<circle style="fill:#EB3A58;" cx="415.6" cy="-67.3" r="19.2"/>
	<circle style="fill:#FCAD1F;" cx="415.6" cy="-67.3" r="12.7"/>
	<circle style="fill:#FCAD1F;" cx="482.8" cy="-67.3" r="12.7"/>
	<circle style="fill:#EB3A58;" cx="449.6" cy="-61.8" r="34.8"/>
	<path style="fill:#EFE2D5;" d="M464.9-40h-30.2c-8.9,0-16.1-7.2-16.1-16.1v0c0-8.9,7.2-16.1,16.1-16.1h30.2
		c8.9,0,16.1,7.2,16.1,16.1v0C481-47.2,473.8-40,464.9-40z"/>
	<path style="fill:#C116A0;" d="M410.1-48.2c0.5,0.1,1.1,0.1,1.7,0.1L410.1-48.2L410.1-48.2z"/>
	<path style="fill:#C116A0;" d="M451-48.1L451-48.1l-1.3,0C450.1-48.1,450.5-48.1,451-48.1z"/>
	<path style="fill:#EFE2D5;" d="M449.8-22.8L449.8-22.8c-8.1,0-14.7-6.6-14.7-14.7v-2.4c0-8.1,6.6-14.7,14.7-14.7h0
		c8.1,0,14.7,6.6,14.7,14.7v2.4C464.5-29.3,457.9-22.8,449.8-22.8z"/>
	<g>
		<g>
			<g>
				<path d="M451.4-43.8c3.9,0,3.9-6,0-6C447.5-49.8,447.5-43.8,451.4-43.8L451.4-43.8z"/>
			</g>
		</g>
		<g>
			<g>
				<path d="M448.6-43.7c3.9,0,3.9-6,0-6C444.7-49.7,444.7-43.7,448.6-43.7L448.6-43.7z"/>
			</g>
		</g>
	</g>
	<path style="fill:none;stroke:#000000;stroke-width:2;stroke-linecap:round;stroke-miterlimit:10;" d="M439.5-39.5c0,0,1,8,10.1,8
		c9.3,0,9.6-8,9.6-8"/>
	<path style="fill:#EB3A58;" d="M469.5,14.4h-10.3v-5h10.3c1.4,0,2.5,1.1,2.5,2.5v0C472,13.3,470.8,14.4,469.5,14.4z"/>
	<path style="fill:#EB3A58;" d="M433,14.4h9.8v-5H433c-1.4,0-2.5,1.1-2.5,2.5v0C430.5,13.3,431.6,14.4,433,14.4z"/>
	<path style="fill:#EB3A58;" d="M453.1-2.1c0,0,2.6,11-0.9,16.5h14.4c0,0,3.2-15.2-0.9-22.7L453.1-2.1z"/>
	<path style="fill:#EB3A58;" d="M449.7-2.1c0,0-2.6,11,0.9,16.5h-14.4c0,0-3.2-15.2,0.9-22.7L449.7-2.1z"/>
	<g>
		<circle style="fill:#FFFFFF;" cx="437.5" cy="-53.6" r="5"/>
		<circle cx="438.1" cy="-53.3" r="2.5"/>
	</g>
	<g>
		<circle style="fill:#FFFFFF;" cx="461.6" cy="-53.6" r="5"/>
		<circle cx="461" cy="-53.3" r="2.5"/>
	</g>
</g>
<g>
	<polygon style="fill:#F2593B;" points="584,161.7 569.2,202.6 553.4,161.7 	"/>
	<polygon style="fill:#FFC533;" points="567.9,129.4 547.4,146.2 528.4,97.1 	"/>
	<polygon style="fill:#FF8A3B;" points="589.4,147 584,161.7 553.4,161.7 547.4,146.2 567.9,129.4 	"/>
	<polygon style="fill:#FFC533;" points="607.4,97.1 589.4,147 567.9,129.4 	"/>
	<polygon style="fill:#F92121;" points="607.4,161.7 569.2,202.6 584,161.7 	"/>
	<polygon style="fill:#FF542C;" points="607.4,161.7 584,161.7 589.4,147 	"/>
	<polygon style="fill:#FF9343;" points="607.4,97.1 607.4,161.7 589.4,147 	"/>
	<polygon style="fill:#F92121;" points="569.2,202.6 528.4,161.7 553.4,161.7 	"/>
	<polygon style="fill:#FF542C;" points="553.4,161.7 528.4,161.7 547.4,146.2 	"/>
	<polygon style="fill:#FF9343;" points="547.4,146.2 528.4,161.7 528.4,97.1 	"/>
	<circle cx="551.7" cy="163.1" r="3.1"/>
	<circle cx="584.1" cy="163.1" r="3.1"/>
</g>
</svg>
