<?xml version="1.0" encoding="utf-8"?>
<!-- Generator: Adobe Illustrator 22.1.0, SVG Export Plug-In . SVG Version: 6.00 Build 0)  -->
<svg version="1.1" id="Layer_1" xmlns="http://www.w3.org/2000/svg" xmlns:xlink="http://www.w3.org/1999/xlink" x="0px" y="0px"
	 viewBox="0 0 256 256" style="enable-background:new 0 0 256 256;" xml:space="preserve">
<title>Lion</title>
<rect style="fill:none;" width="256" height="256"/>
<g>
	<path style="fill:#EB3A58;" d="M193.3,241.4C193.3,241.4,193.3,241.4,193.3,241.4c-6.3,0-11.4-5.1-11.3-11.4
		c0.2-28.7-5.3-47.5-10-58.2c-4.9-11.4-10-16.3-10-16.3c0.1,0.1,0.1,0.1,0.1,0.1l15.1-16.9c0.8,0.7,8,7.4,14.7,22.2
		c8.6,18.8,12.9,42.2,12.7,69.3C204.6,236.4,199.6,241.4,193.3,241.4z"/>
	<path style="fill:#EB3A58;" d="M66.5,241.4c-6.2,0-11.3-5-11.3-11.3c-0.2-27.3,4.4-50.7,13.6-69.6c7.2-14.8,14.8-21.4,15.6-22.1
		L99,155.8c0,0,0,0,0.1-0.1c-0.1,0-5.4,4.9-10.7,16.3c-4.9,10.7-10.8,29.4-10.6,58C77.9,236.2,72.8,241.4,66.5,241.4
		C66.5,241.4,66.5,241.4,66.5,241.4z"/>
	<path style="fill:#EB3A58;" d="M132.7,217.9H126c-24,0-43.5-19.5-43.5-43.5v0c0-24,19.5-43.5,43.5-43.5h6.7
		c24,0,43.5,19.5,43.5,43.5v0C176.2,198.4,156.7,217.9,132.7,217.9z"/>
	<path style="fill:#E2D2C3;" d="M132.2,211.8h-5.8c-20.7,0-37.5-16.8-37.5-37.5v0c0-20.7,16.8-37.5,37.5-37.5h5.8
		c20.7,0,37.5,16.8,37.5,37.5v0C169.7,195,152.9,211.8,132.2,211.8z"/>
	<circle style="fill:#EB3A58;" cx="205.5" cy="67.7" r="44.2"/>
	<circle style="fill:#EB3A58;" cx="50.5" cy="67.7" r="44.2"/>
	<circle style="fill:#FCAD1F;" cx="50.5" cy="67.7" r="29.2"/>
	<circle style="fill:#FCAD1F;" cx="205.5" cy="67.7" r="29.2"/>
	<circle style="fill:#EB3A58;" cx="129" cy="80.3" r="80.3"/>
	<path style="fill:#EFE2D5;" d="M164.2,130.6H94.5c-20.5,0-37-16.6-37-37v0c0-20.5,16.6-37,37-37h69.7c20.5,0,37,16.6,37,37v0
		C201.2,114,184.6,130.6,164.2,130.6z"/>
	<path style="fill:#C116A0;" d="M37.9,111.7c1.3,0.1,2.5,0.2,3.8,0.2h-3.8V111.7z"/>
	<path style="fill:#C116A0;" d="M132,111.7v0.1H129C130,111.9,131,111.8,132,111.7z"/>
	<path style="fill:#EFE2D5;" d="M129.2,170.3L129.2,170.3c-18.7,0-33.9-15.2-33.9-33.9v-5.6c0-18.7,15.2-33.9,33.9-33.9h0
		c18.7,0,33.9,15.2,33.9,33.9v5.6C163.2,155.1,148,170.3,129.2,170.3z"/>
	<g>
		<g>
			<g>
				<path d="M133,117.9c3.9,0,3.9-6,0-6C129.1,111.9,129.1,117.9,133,117.9L133,117.9z"/>
			</g>
		</g>
		<g>
			<g>
				<path d="M126.5,118.1c3.9,0,3.9-6,0-6C122.6,112.1,122.6,118.1,126.5,118.1L126.5,118.1z"/>
			</g>
		</g>
	</g>
	<path style="fill:none;stroke:#000000;stroke-width:2;stroke-linecap:round;stroke-miterlimit:10;" d="M105.5,131.7
		c0,0,2.4,18.5,23.3,18.5c21.5,0,22.1-18.5,22.1-18.5"/>
	<path style="fill:#EB3A58;" d="M174.7,256h-23.8v-11.5h23.8c3.2,0,5.8,2.6,5.8,5.8v0C180.5,253.4,177.9,256,174.7,256z"/>
	<path style="fill:#EB3A58;" d="M90.5,256h22.7v-11.5H90.5c-3.2,0-5.8,2.6-5.8,5.8v0C84.8,253.4,87.3,256,90.5,256z"/>
	<path style="fill:#EB3A58;" d="M136.8,217.9c0,0,6,25.5-2.1,38.1H168c0,0,7.4-35-2.2-52.3L136.8,217.9z"/>
	<path style="fill:#EB3A58;" d="M129.1,217.9c0,0-6,25.5,2.1,38.1H97.9c0,0-7.4-35,2.2-52.3L129.1,217.9z"/>
	<g>
		<circle style="fill:#FFFFFF;" cx="100.9" cy="99.2" r="11.5"/>
		<circle cx="102.4" cy="99.9" r="5.8"/>
	</g>
	<g>
		<circle style="fill:#FFFFFF;" cx="156.6" cy="99.2" r="11.5"/>
		<circle cx="155.1" cy="99.9" r="5.8"/>
	</g>
</g>
<g>
	<polygon style="fill:#F2593B;" points="584,161.7 569.2,202.6 553.4,161.7 	"/>
	<polygon style="fill:#FFC533;" points="567.9,129.4 547.4,146.2 528.4,97.1 	"/>
	<polygon style="fill:#FF8A3B;" points="589.4,147 584,161.7 553.4,161.7 547.4,146.2 567.9,129.4 	"/>
	<polygon style="fill:#FFC533;" points="607.4,97.1 589.4,147 567.9,129.4 	"/>
	<polygon style="fill:#F92121;" points="607.4,161.7 569.2,202.6 584,161.7 	"/>
	<polygon style="fill:#FF542C;" points="607.4,161.7 584,161.7 589.4,147 	"/>
	<polygon style="fill:#FF9343;" points="607.4,97.1 607.4,161.7 589.4,147 	"/>
	<polygon style="fill:#F92121;" points="569.2,202.6 528.4,161.7 553.4,161.7 	"/>
	<polygon style="fill:#FF542C;" points="553.4,161.7 528.4,161.7 547.4,146.2 	"/>
	<polygon style="fill:#FF9343;" points="547.4,146.2 528.4,161.7 528.4,97.1 	"/>
	<circle cx="551.7" cy="163.1" r="3.1"/>
	<circle cx="584.1" cy="163.1" r="3.1"/>
</g>
</svg>
