<?xml version="1.0" encoding="utf-8"?>
<!-- Generator: Adobe Illustrator 22.1.0, SVG Export Plug-In . SVG Version: 6.00 Build 0)  -->
<svg version="1.1" id="Layer_1" xmlns="http://www.w3.org/2000/svg" xmlns:xlink="http://www.w3.org/1999/xlink" x="0px" y="0px"
	 viewBox="0 0 256 256" style="enable-background:new 0 0 256 256;" xml:space="preserve">
<title>Lion</title>
<rect style="fill:none;" width="256" height="256"/>
<g>
	<path style="fill:#839322;" d="M150.1,251.9H93.3c-1.2,0-2.1-0.9-2.1-2.1c0-1.2,0.9-2.1,2.1-2.1h56.8c1.2,0,2.1,0.9,2.1,2.1
		C152.2,250.9,151.2,251.9,150.1,251.9z"/>
	<path d="M103.7,95.5c-0.1,0-0.3,0-0.4,0c-1.1-0.2-1.8-1.3-1.6-2.5l17.3-81.3c0.1-0.5,0.4-1,0.9-1.3c0.5-0.3,1-0.4,1.6-0.3l11,2.3
		c1.1,0.2,1.8,1.3,1.6,2.5c-0.2,1.1-1.3,1.8-2.5,1.6l-9-1.9l-16.8,79.2C105.5,94.8,104.6,95.5,103.7,95.5z"/>
	<path style="fill:#FCAD1F;" d="M150.9,18.5L134.6,15c-1.5-0.3-2.4-1.8-2.1-3.2l2-9.6c0.3-1.5,1.8-2.4,3.2-2.1l16.3,3.5
		c1.5,0.3,2.4,1.8,2.1,3.2l-2,9.6C153.9,17.8,152.4,18.8,150.9,18.5z"/>
	<path d="M93.5,251.9c-0.1,0-0.3,0-0.4,0c-1.1-0.2-1.8-1.3-1.6-2.5l4.5-21.2c0.2-1.1,1.3-1.8,2.5-1.6c1.1,0.2,1.8,1.3,1.6,2.5
		l-4.5,21.2C95.3,251.2,94.4,251.9,93.5,251.9z"/>
	<path style="fill:#339CC1;" d="M158.5,12.2l-35.2,165.7c-1.9,9.2-4.7,18.1-8.2,26.8l-15.7,35.4l-7.8-1.6l0.1-38.8
		c0.3-9.4,1.5-18.7,3.4-27.8L130.3,6.2c0.3-1.5,1.8-2.4,3.2-2.1L156.4,9C157.8,9.3,158.8,10.7,158.5,12.2z"/>
	<path style="fill:#FCAD1F;" d="M130,143.9c-0.3,0-0.5-0.1-0.7-0.2c-13.7-8.2-25.3-5.9-25.4-5.9c-0.8,0.2-1.6-0.3-1.7-1.1
		c-0.2-0.8,0.3-1.6,1.1-1.7c0.5-0.1,12.8-2.6,27.5,6.2c0.7,0.4,0.9,1.3,0.5,2C130.9,143.7,130.5,143.9,130,143.9z"/>
	<g>
		<g>
			<path style="fill:#839322;" d="M155.9,255.8c7.7,0,7.7-12,0-12C148.2,243.8,148.2,255.8,155.9,255.8L155.9,255.8z"/>
		</g>
	</g>
	<g>
		<g>
			<path style="fill:#839322;" d="M162.2,255.8c7.7,0,7.7-12,0-12C154.5,243.8,154.5,255.8,162.2,255.8L162.2,255.8z"/>
		</g>
	</g>
</g>
</svg>
