<?xml version="1.0" encoding="utf-8"?>
<!-- Generator: Adobe Illustrator 22.1.0, SVG Export Plug-In . SVG Version: 6.00 Build 0)  -->
<svg version="1.1" id="Layer_1" xmlns="http://www.w3.org/2000/svg" xmlns:xlink="http://www.w3.org/1999/xlink" x="0px" y="0px"
	 viewBox="0 0 256 256" style="enable-background:new 0 0 256 256;" xml:space="preserve">
<title>Lion</title>
<rect style="fill:none;" width="256" height="256"/>
<g>
	<path style="opacity:0.7;" d="M62.5,245.2c0,0-11.2,6.1,0,6.9s38.6-8.7,37.5-1.8c-1.1,6.9,52.3,1.8,52.3,1.8s-50.9,3.2-49.4-4.3
		c1.4-7.6-27.1,1.1-32.8-0.7S64.7,243.7,62.5,245.2z"/>
	<path style="fill:#841753;" d="M119.5,166.1c-4.7,5.8-11.9,19.1-11.9,19.1c-0.4,0.5-0.7,0.9-1.1,1.4c-2.3-3.9-7.6-6.2-10.8-7.9
		c-3.1-1.6-5.9-4.4-10.5-5c6.5-10.1,10.5-18.9,10.5-18.9C114.5,148.1,119.5,166.1,119.5,166.1z"/>
	<polygon style="fill:#961E5C;" points="103.3,152.4 86.7,180.5 91.7,183.1 107.6,153.7 	"/>
	<path style="fill:#EFE2D5;" d="M202,33.3c-2.6,5-5.2,8.6-5.2,8.6l-1.1,1.7l-76.2,122.5c0,0-8.3-13.4-23.8-11.2l0.6-1l67.1-124.3
		l6.3-11.5l1.8-2.5c0.8-1.4,3.5-5.6,4.5-6.8c3.7-4.1,10.8-9.6,22.9-4.7c0.5,0.2,1,0.4,1.5,0.6C211.6,9.9,206.8,24,202,33.3z"/>
	<path style="fill:#FCAD1F;" d="M101.8,214.5c-7.7-0.9-16.6,6.2-23.5,13.5c-6.7,7.1-11.6,14.3-11.6,14.3s0.1,0.5,0.1,1.1
		c0.2,2.1-2.3,6.5-5.2,4.3c-4.1-3.1,1.1-6.5,1.1-6.5c0.1-0.2,0.1-0.4,0.2-0.7c1.7-8.2,2.4-43.7,2.4-43.7c7.7-5.9,14.6-14.9,19.8-23
		c3.3-0.1,8.2,1.5,11.2,3.2c1.6,0.9,3.6,2.3,5.4,4.1c1.8,1.7,3.5,3.7,4.7,5.7C99.5,197,101.8,214.5,101.8,214.5z"/>
	<path style="fill:#F79E28;" d="M65.8,240.5c-0.7,2,0,2.2,1.1,1.8c0.4,1.4,0.2,2.9-0.4,4.3c-0.7,1.8-3.2,2.2-4.7,1.1
		c-4.1-3.1,1.1-6.5,1.1-6.5c1.1,2.2,15.3-35.9,15.5-36.4l-3.2,10.5C75.1,215.2,67.2,236.5,65.8,240.5z"/>
	<path style="fill:#F79E28;" d="M101.8,214.5c-7.7-0.9-16.6,6.2-23.5,13.5c7.6-12.1,18.8-17.1,18.8-17.1c-2.8-18,3.2-27.7,4.7-29.9
		c1.8,1.7,3.5,3.7,4.7,5.7C99.5,197,101.8,214.5,101.8,214.5z"/>
	<path style="fill:#E2D2C3;" d="M188.9,38.6c2.7,1.7,5,3.5,6.9,5.1l-76.2,122.5c0,0-8.3-13.4-23.8-11.2l0.6-1c4.5-1.4,12-3,17.5-0.4
		C120.3,156.6,167.6,80.4,188.9,38.6z"/>
	<path style="fill:#E2D2C3;" d="M202,33.3c-2.4-2.7-4.8-4.9-7.3-6.7c2.3-5.2,3.8-9.2,4.3-11.7c0.9-4.9,0.8-8.3-0.1-10.8
		c0.5,0.2,1,0.4,1.5,0.6C211.6,9.9,206.8,24,202,33.3z"/>
	<path style="fill:#961E5C;" d="M180.7,15.4c0,0-29.6,50.7-33.4,57.1c-3.7,6.4,2.9,4.3,4.2,1.2c1.3-3.1,33.7-57.2,33.7-57.2
		S184.4,13.7,180.7,15.4z"/>
	<path style="fill:#841753;" d="M202,33.3c-2.6,5-5.2,8.6-5.2,8.6l-1.1,1.7c-1.9-1.6-4.2-3.4-6.9-5.1c2.2-4.4,4.2-8.4,5.8-12
		C197.1,28.4,199.6,30.6,202,33.3z"/>
	<path style="fill:#961E5C;" d="M194.6,26.6c-1.6,3.5-3.5,7.5-5.8,12c-6.2-3.9-14.7-7.6-25.5-8.9l6.3-11.5
		C176.1,18.2,185.5,19.9,194.6,26.6z"/>
</g>
</svg>
