<?xml version="1.0" encoding="utf-8"?>
<!-- Generator: Adobe Illustrator 22.1.0, SVG Export Plug-In . SVG Version: 6.00 Build 0)  -->
<svg version="1.1" id="Layer_1" xmlns="http://www.w3.org/2000/svg" xmlns:xlink="http://www.w3.org/1999/xlink" x="0px" y="0px"
	 viewBox="0 0 256 256" style="enable-background:new 0 0 256 256;" xml:space="preserve">
<title>Lion</title>
<rect style="fill:none;" width="256" height="256"/>
<g>
	<path d="M36.4,184.1H4.9v-64.6l0-0.1c0.1-0.4,1.6-9.7,5.8-21c5.6-15.2,13-26.2,22-32.5l0.4-0.3h53.2l0,111h-9l-0.3-1.1
		c0,0-1.2-4.1-4.3-8c-4-5.1-9.3-7.5-15.6-7.1c-7.4,0.4-12.9,2.7-16.5,6.7c-3.3,3.8-4.8,9.1-4.3,15.4L36.4,184.1z M7.9,181.1h25.3
		c-0.2-6.5,1.6-12,5.2-16c4.1-4.7,10.4-7.3,18.6-7.7c7.3-0.4,13.6,2.5,18.2,8.4c2.4,3.1,3.8,6.3,4.4,7.9h3.7l0-105H34
		C14.7,82.8,8.3,117.5,7.9,119.8V181.1z"/>
	<path d="M19.7,122.8l0-1.9c0-0.3-0.1-6.7,1.6-15.7C22.8,97,26.4,85,34.2,74.9l0.5-0.6h40.5v34.8L19.7,122.8z M36.1,77.3
		C24.5,92.8,22.9,112.8,22.7,119l49.4-12.2V77.3H36.1z"/>
	<polygon style="fill:#FCAD1F;" points="77.1,61.8 92.5,61.8 92.8,154.2 251.5,154.2 251.5,79.5 118.1,80.8 92.8,56.7 77.2,56.7 	
		"/>
	<rect x="171.9" y="173.7" width="23.3" height="3"/>
	<polygon points="244.3,176.7 225,176.7 225,173.7 241.3,173.7 241.3,154.2 244.3,154.2 	"/>
	<polygon points="142.1,176.7 100.1,176.7 100.1,154.2 103.2,154.2 103.2,173.7 142.1,173.7 	"/>
	<path style="fill:#FCAD1F;" d="M226.8,182.6c0,9.2-7.5,16.7-16.7,16.7c-9.2,0-16.7-7.5-16.7-16.7c0-2.7,0.6-5.2,1.8-7.5
		c2.7-5.5,8.4-9.2,14.9-9.2c6.5,0,12.2,3.8,14.9,9.2C226.2,177.4,226.8,180,226.8,182.6z"/>
	<circle style="fill:#FCAD1F;" cx="57" cy="182.6" r="16.7"/>
	<path style="fill:#FCAD1F;" d="M173.7,182.6c0,9.2-7.5,16.7-16.7,16.7c-9.2,0-16.7-7.5-16.7-16.7c0-2.7,0.6-5.2,1.8-7.5
		c2.7-5.5,8.4-9.2,14.9-9.2c6.5,0,12.2,3.8,14.9,9.2C173.1,177.4,173.7,180,173.7,182.6z"/>
	<rect x="61.9" y="123.1" width="11.7" height="3"/>
	<path d="M132.8,143.6c-0.6,0-1.2-0.4-1.4-1L116,100c-0.3-0.8,0.1-1.6,0.9-1.9c0.8-0.3,1.6,0.1,1.9,0.9l15.4,42.6
		c0.3,0.8-0.1,1.6-0.9,1.9C133.2,143.6,133,143.6,132.8,143.6z"/>
	<path d="M166.4,143.6c-0.6,0-1.2-0.4-1.4-1L149.6,100c-0.3-0.8,0.1-1.6,0.9-1.9c0.8-0.3,1.6,0.1,1.9,0.9l15.4,42.6
		c0.3,0.8-0.1,1.6-0.9,1.9C166.8,143.6,166.6,143.6,166.4,143.6z"/>
	<path d="M199.4,143.6c-0.6,0-1.2-0.4-1.4-1L182.6,100c-0.3-0.8,0.1-1.6,0.9-1.9c0.8-0.3,1.6,0.1,1.9,0.9l15.4,42.6
		c0.3,0.8-0.1,1.6-0.9,1.9C199.8,143.6,199.6,143.6,199.4,143.6z"/>
	<path d="M229.9,143.6c-0.6,0-1.2-0.4-1.4-1L213,100c-0.3-0.8,0.1-1.6,0.9-1.9c0.8-0.3,1.6,0.1,1.9,0.9l15.4,42.6
		c0.3,0.8-0.1,1.6-0.9,1.9C230.2,143.6,230.1,143.6,229.9,143.6z"/>
</g>
</svg>
