<?xml version="1.0" encoding="utf-8"?>
<!-- Generator: Adobe Illustrator 22.1.0, SVG Export Plug-In . SVG Version: 6.00 Build 0)  -->
<svg version="1.1" id="Layer_1" xmlns="http://www.w3.org/2000/svg" xmlns:xlink="http://www.w3.org/1999/xlink" x="0px" y="0px"
	 viewBox="0 0 256 256" style="enable-background:new 0 0 256 256;" xml:space="preserve">
<title>Lion</title>
<rect style="fill:none;" width="256" height="256"/>
<g>
	<path d="M36.2,136.1H4.7V71.5l0-0.1c0.1-0.4,1.6-9.7,5.8-21c5.6-15.2,13-26.2,22-32.5l0.4-0.3h53.2l0,111h-9l-0.3-1.1
		c0,0-1.2-4.1-4.3-8c-4-5.1-9.3-7.5-15.6-7.1c-7.4,0.4-12.9,2.7-16.5,6.7c-3.3,3.8-4.8,9.1-4.3,15.4L36.2,136.1z M7.7,133.1H33
		c-0.2-6.5,1.6-12,5.2-16c4.1-4.7,10.4-7.3,18.6-7.7c7.3-0.4,13.6,2.5,18.2,8.4c2.4,3.1,3.8,6.3,4.4,7.9h3.7l0-105H33.9
		C14.5,34.8,8.1,69.5,7.7,71.8V133.1z"/>
	<path d="M19.6,74.8l0-1.9c0-0.3-0.1-6.7,1.6-15.7C22.7,49,26.2,37,34,26.9l0.5-0.6H75v34.8L19.6,74.8z M36,29.3
		C24.3,44.8,22.8,64.8,22.6,71L72,58.8V29.3H36z"/>
	<polygon style="fill:#FCAD1F;" points="76.9,13.8 92.3,13.8 92.6,106.2 251.3,106.2 251.3,31.5 117.9,32.8 92.6,8.7 77.1,8.7 	"/>
	<rect x="171.8" y="125.7" width="23.3" height="3"/>
	<polygon points="244.2,128.7 224.9,128.7 224.9,125.7 241.2,125.7 241.2,106.2 244.2,106.2 	"/>
	<polygon points="141.9,128.7 100,128.7 100,106.2 103,106.2 103,125.7 141.9,125.7 	"/>
	<path style="fill:#FCAD1F;" d="M226.6,134.6c0,9.2-7.5,16.7-16.7,16.7c-9.2,0-16.7-7.5-16.7-16.7c0-2.7,0.6-5.2,1.8-7.5
		c2.7-5.5,8.4-9.2,14.9-9.2c6.5,0,12.2,3.8,14.9,9.2C226,129.4,226.6,132,226.6,134.6z"/>
	<circle style="fill:#FCAD1F;" cx="56.8" cy="134.6" r="16.7"/>
	<path style="fill:#FCAD1F;" d="M173.5,134.6c0,9.2-7.5,16.7-16.7,16.7c-9.2,0-16.7-7.5-16.7-16.7c0-2.7,0.6-5.2,1.8-7.5
		c2.7-5.5,8.4-9.2,14.9-9.2c6.5,0,12.2,3.8,14.9,9.2C172.9,129.4,173.5,132,173.5,134.6z"/>
	<rect x="61.8" y="75.1" width="11.7" height="3"/>
	<path d="M132.7,95.6c-0.6,0-1.2-0.4-1.4-1L115.8,52c-0.3-0.8,0.1-1.6,0.9-1.9c0.8-0.3,1.6,0.1,1.9,0.9l15.4,42.6
		c0.3,0.8-0.1,1.6-0.9,1.9C133,95.6,132.8,95.6,132.7,95.6z"/>
	<path d="M166.2,95.6c-0.6,0-1.2-0.4-1.4-1L149.4,52c-0.3-0.8,0.1-1.6,0.9-1.9c0.8-0.3,1.6,0.1,1.9,0.9l15.4,42.6
		c0.3,0.8-0.1,1.6-0.9,1.9C166.6,95.6,166.4,95.6,166.2,95.6z"/>
	<path d="M199.3,95.6c-0.6,0-1.2-0.4-1.4-1L182.4,52c-0.3-0.8,0.1-1.6,0.9-1.9c0.8-0.3,1.6,0.1,1.9,0.9l15.4,42.6
		c0.3,0.8-0.1,1.6-0.9,1.9C199.6,95.6,199.4,95.6,199.3,95.6z"/>
	<path d="M229.7,95.6c-0.6,0-1.2-0.4-1.4-1L212.9,52c-0.3-0.8,0.1-1.6,0.9-1.9c0.8-0.3,1.6,0.1,1.9,0.9l15.4,42.6
		c0.3,0.8-0.1,1.6-0.9,1.9C230.1,95.6,229.9,95.6,229.7,95.6z"/>
</g>
<g>
	<path d="M78.5,240.6h-19v-38.9l0-0.1c0-0.2,1-5.8,3.5-12.6c3.4-9.2,7.9-15.8,13.3-19.6l0.2-0.2h32.1l0,66.9h-5.4l-0.2-0.7
		c0,0-0.7-2.5-2.6-4.8c-2.4-3.1-5.6-4.5-9.4-4.3c-4.5,0.2-7.8,1.6-10,4c-2,2.3-2.9,5.5-2.6,9.3L78.5,240.6z M61.3,238.8h15.2
		c-0.1-3.9,1-7.2,3.1-9.7c2.5-2.8,6.3-4.4,11.2-4.7c4.4-0.2,8.2,1.5,11,5c1.5,1.9,2.3,3.8,2.6,4.8h2.3l0-63.3H77
		c-11.7,8.5-15.5,29.4-15.8,30.8V238.8z"/>
	<path d="M68.4,203.6l0-1.1c0-0.2-0.1-4.1,0.9-9.4c1-5,3.1-12.2,7.8-18.3l0.3-0.4h24.4v21L68.4,203.6z M78.3,176.2
		c-7,9.3-8,21.4-8.1,25.1l29.8-7.4v-17.7H78.3z"/>
	<polygon style="fill:#FCAD1F;" points="103,166.8 112.3,166.8 112.5,222.6 208.1,222.6 208.1,177.5 127.7,178.3 112.5,163.8 
		103.1,163.8 	"/>
	<rect x="160.2" y="234.3" width="14" height="1.8"/>
	<polygon points="203.8,236.1 192.2,236.1 192.2,234.3 202,234.3 202,222.5 203.8,222.5 	"/>
	<polygon points="142.2,236.1 116.9,236.1 116.9,222.5 118.7,222.5 118.7,234.3 142.2,234.3 	"/>
	<path style="fill:#FCAD1F;" d="M193.2,239.7c0,5.5-4.5,10-10,10c-5.5,0-10-4.5-10-10c0-1.6,0.4-3.1,1.1-4.5c1.7-3.3,5.1-5.6,9-5.6
		c3.9,0,7.3,2.3,9,5.6C192.9,236.5,193.2,238.1,193.2,239.7z"/>
	<circle style="fill:#FCAD1F;" cx="90.9" cy="239.7" r="10"/>
	<path style="fill:#FCAD1F;" d="M161.2,239.7c0,5.5-4.5,10-10,10c-5.5,0-10-4.5-10-10c0-1.6,0.4-3.1,1.1-4.5c1.6-3.3,5.1-5.6,9-5.6
		c3.9,0,7.3,2.3,9,5.6C160.8,236.5,161.2,238.1,161.2,239.7z"/>
	<rect x="93.9" y="203.8" width="7.1" height="1.8"/>
	<path d="M136.6,216.1c-0.4,0-0.7-0.2-0.9-0.6l-9.3-25.7c-0.2-0.5,0.1-1,0.5-1.2c0.5-0.2,1,0.1,1.2,0.5l9.3,25.7
		c0.2,0.5-0.1,1-0.5,1.2C136.8,216.1,136.7,216.1,136.6,216.1z"/>
	<path d="M156.8,216.1c-0.4,0-0.7-0.2-0.9-0.6l-9.3-25.7c-0.2-0.5,0.1-1,0.5-1.2c0.5-0.2,1,0.1,1.2,0.5l9.3,25.7
		c0.2,0.5-0.1,1-0.5,1.2C157.1,216.1,157,216.1,156.8,216.1z"/>
	<path d="M176.8,216.1c-0.4,0-0.7-0.2-0.9-0.6l-9.3-25.7c-0.2-0.5,0.1-1,0.5-1.2c0.5-0.2,1,0.1,1.2,0.5l9.3,25.7
		c0.2,0.5-0.1,1-0.5,1.2C177,216.1,176.9,216.1,176.8,216.1z"/>
	<path d="M195.1,216.1c-0.4,0-0.7-0.2-0.9-0.6l-9.3-25.7c-0.2-0.5,0.1-1,0.5-1.2c0.5-0.2,1,0.1,1.2,0.5l9.3,25.7
		c0.2,0.5-0.1,1-0.5,1.2C195.3,216.1,195.2,216.1,195.1,216.1z"/>
</g>
</svg>
