<?xml version="1.0" encoding="utf-8"?>
<!-- Generator: Adobe Illustrator 22.1.0, SVG Export Plug-In . SVG Version: 6.00 Build 0)  -->
<svg version="1.1" id="Layer_1" xmlns="http://www.w3.org/2000/svg" xmlns:xlink="http://www.w3.org/1999/xlink" x="0px" y="0px"
	 viewBox="0 0 512 512" style="enable-background:new 0 0 512 512;" xml:space="preserve">
<g>
	<path id="XMLID_186_" style="fill:none;stroke:#000000;stroke-width:5;stroke-miterlimit:10;" d="M285.8,456.1
		c0,5.6-4.5,10.3-10.3,10.3l-41.8,0.2c-5.6,0-10.3-4.5-10.3-10.3l0,0c0-5.6,4.5-10.3,10.3-10.3l41.8-0.2
		C281.3,445.8,285.8,450.5,285.8,456.1L285.8,456.1z"/>
	<path id="XMLID_187_" style="fill:none;stroke:#000000;stroke-width:5;stroke-miterlimit:10;" d="M363.6,408.5
		c0,15.3-12.2,27.7-27.5,27.7l-165.8,0.4c-15.1,0-27.5-12.2-27.5-27.5l-0.9-326.5c0-15.3,12.2-27.7,27.5-27.7l165.8-0.4
		c15.1,0,27.5,12.2,27.5,27.5L363.6,408.5z"/>
	
		<rect id="XMLID_185_" x="153.7" y="391.8" transform="matrix(1 -2.184485e-03 2.184485e-03 1 -0.8842 0.3725)" style="fill:none;stroke:#000000;stroke-width:5;stroke-miterlimit:10;" width="32.8" height="26.3"/>
	
		<rect id="XMLID_184_" x="206.6" y="391.6" transform="matrix(1 -2.184485e-03 2.184485e-03 1 -0.8837 0.4881)" style="fill:none;stroke:#000000;stroke-width:5;stroke-miterlimit:10;" width="32.8" height="26.3"/>
	
		<rect id="XMLID_183_" x="262" y="391.6" transform="matrix(1 -2.184485e-03 2.184485e-03 1 -0.8835 0.6092)" style="fill:none;stroke:#000000;stroke-width:5;stroke-miterlimit:10;" width="32.8" height="26.3"/>
	
		<rect id="XMLID_182_" x="316.4" y="391.4" transform="matrix(1 -2.184485e-03 2.184485e-03 1 -0.883 0.7279)" style="fill:none;stroke:#000000;stroke-width:5;stroke-miterlimit:10;" width="32.8" height="26.3"/>
</g>
<g style="opacity:0;">
	<circle cx="123" cy="35.6" r="3.5"/>
	<circle cx="123" cy="78.2" r="3.5"/>
	<circle cx="123" cy="139.2" r="3.5"/>
	<circle cx="123" cy="210.2" r="3.5"/>
	<circle cx="123" cy="272.1" r="3.5"/>
	<circle cx="123" cy="342.1" r="3.5"/>
	<circle cx="123" cy="413.1" r="3.5"/>
	<circle cx="123" cy="482" r="3.5"/>
	<circle cx="201.4" cy="481.9" r="3.5"/>
	<circle cx="302.3" cy="481.7" r="3.5"/>
	<circle cx="382.2" cy="481.6" r="3.5"/>
	<circle cx="382.2" cy="415.5" r="3.5"/>
	<circle cx="382.2" cy="344.5" r="3.5"/>
	<circle cx="382.2" cy="274.5" r="3.5"/>
	<circle cx="382.2" cy="212.5" r="3.5"/>
	<circle cx="382.2" cy="141.6" r="3.5"/>
	<circle cx="382.2" cy="80.6" r="3.5"/>
	<circle cx="382.2" cy="35.4" r="3.5"/>
	<circle cx="291.5" cy="35.3" r="3.5"/>
	<circle cx="200.5" cy="35.4" r="3.5"/>
</g>
</svg>
