<?xml version="1.0" encoding="utf-8"?>
<!-- Generator: Adobe Illustrator 22.1.0, SVG Export Plug-In . SVG Version: 6.00 Build 0)  -->
<svg version="1.1" id="Layer_1" xmlns="http://www.w3.org/2000/svg" xmlns:xlink="http://www.w3.org/1999/xlink" x="0px" y="0px"
	 viewBox="0 0 512 512" style="enable-background:new 0 0 512 512;" xml:space="preserve">
<g>
	
		<circle style="fill:none;stroke:#000000;stroke-width:5;stroke-linecap:round;stroke-linejoin:round;stroke-miterlimit:10;" cx="169.5" cy="264.5" r="124"/>
	
		<rect x="329.5" y="184.5" style="fill:none;stroke:#000000;stroke-width:5;stroke-linecap:round;stroke-linejoin:round;stroke-miterlimit:10;" width="46" height="35"/>
	
		<rect x="416.5" y="184.5" style="fill:none;stroke:#000000;stroke-width:5;stroke-linecap:round;stroke-linejoin:round;stroke-miterlimit:10;" width="46" height="35"/>
	
		<rect x="329.5" y="247.5" style="fill:none;stroke:#000000;stroke-width:5;stroke-linecap:round;stroke-linejoin:round;stroke-miterlimit:10;" width="46" height="35"/>
	
		<rect x="416.5" y="247.5" style="fill:none;stroke:#000000;stroke-width:5;stroke-linecap:round;stroke-linejoin:round;stroke-miterlimit:10;" width="46" height="35"/>
	
		<rect x="329.5" y="310.5" style="fill:none;stroke:#000000;stroke-width:5;stroke-linecap:round;stroke-linejoin:round;stroke-miterlimit:10;" width="46" height="35"/>
	
		<rect x="416.5" y="310.5" style="fill:none;stroke:#000000;stroke-width:5;stroke-linecap:round;stroke-linejoin:round;stroke-miterlimit:10;" width="46" height="35"/>
	
		<line style="fill:none;stroke:#000000;stroke-width:5;stroke-linecap:round;stroke-linejoin:round;stroke-miterlimit:10;" x1="45.5" y1="121.5" x2="462.5" y2="39.5"/>
</g>
<g style="opacity:0;">
	<circle cx="135.6" cy="121.6" r="3.5"/>
	<circle cx="254.9" cy="121.6" r="3.5"/>
	<circle cx="374.3" cy="121.6" r="3.5"/>
	<circle cx="476.8" cy="121.6" r="3.5"/>
	<circle cx="476.8" cy="261.8" r="3.5"/>
	<circle cx="476.8" cy="361.1" r="3.5"/>
	<circle cx="476.8" cy="405.5" r="3.5"/>
	<circle cx="374.3" cy="405.5" r="3.5"/>
	<circle cx="254.9" cy="405.5" r="3.5"/>
	<circle cx="135.6" cy="405.5" r="3.5"/>
	<circle cx="28" cy="405.5" r="3.5"/>
	<circle cx="28" cy="320.1" r="3.5"/>
	<circle cx="28" cy="220.8" r="3.5"/>
	<circle cx="28" cy="121.6" r="3.5"/>
</g>
</svg>
