<?xml version="1.0" encoding="utf-8"?>
<!-- Generator: Adobe Illustrator 22.1.0, SVG Export Plug-In . SVG Version: 6.00 Build 0)  -->
<svg version="1.1" id="Layer_1" xmlns="http://www.w3.org/2000/svg" xmlns:xlink="http://www.w3.org/1999/xlink" x="0px" y="0px"
	 viewBox="0 0 512 512" style="enable-background:new 0 0 512 512;" xml:space="preserve">
<g>
	<g>
		<rect x="122.8" y="116.7" style="fill:none;stroke:#000000;stroke-width:5;stroke-miterlimit:10;" width="117.1" height="288.6"/>
	</g>
	<g>
		<line style="fill:none;stroke:#000000;stroke-width:5;stroke-miterlimit:10;" x1="122.8" y1="352.9" x2="239.9" y2="352.9"/>
		<line style="fill:none;stroke:#000000;stroke-width:5;stroke-miterlimit:10;" x1="291" y1="352.5" x2="415" y2="352.5"/>
		<path style="fill:none;stroke:#000000;stroke-width:5;stroke-miterlimit:10;" d="M290.3,112.6v296.8h125.1V112.6H290.3z"/>
	</g>
</g>
<g style="opacity:0;">
	<circle cx="171.1" cy="63.5" r="3.5"/>
	<circle cx="273.1" cy="63.5" r="3.5"/>
	<circle cx="375" cy="63.5" r="3.5"/>
	<circle cx="477" cy="63.5" r="3.5"/>
	<circle cx="478.5" cy="164" r="3.5"/>
	<circle cx="478.5" cy="265.9" r="3.5"/>
	<circle cx="478.5" cy="367.9" r="3.5"/>
	<circle cx="472.2" cy="463.5" r="3.5"/>
	<circle cx="370.2" cy="463.5" r="3.5"/>
	<circle cx="268.3" cy="463.5" r="3.5"/>
	<circle cx="166.3" cy="463.5" r="3.5"/>
	<circle cx="64.3" cy="463.5" r="3.5"/>
	<circle cx="56.5" cy="369.4" r="3.5"/>
	<circle cx="56.5" cy="267.4" r="3.5"/>
	<circle cx="56.5" cy="165.5" r="3.5"/>
	<circle cx="56.5" cy="63.5" r="3.5"/>
</g>
</svg>
