<?xml version="1.0" encoding="utf-8"?>
<!-- Generator: Adobe Illustrator 22.1.0, SVG Export Plug-In . SVG Version: 6.00 Build 0)  -->
<svg version="1.1" id="Layer_1" xmlns="http://www.w3.org/2000/svg" xmlns:xlink="http://www.w3.org/1999/xlink" x="0px" y="0px"
	 viewBox="0 0 512 512" style="enable-background:new 0 0 512 512;" xml:space="preserve">
<g>
	<path style="fill:none;stroke:#000000;stroke-width:5;stroke-miterlimit:10;" d="M343.8,364c-92.2,9.2-184.4,9.2-276.5,0
		c-12.5-74.8-13.1-147.9,0-219c92.2-11.7,184.4-11.7,276.5,0C361.4,212.4,358.1,286.3,343.8,364z"/>
	<rect x="392.5" y="121.8" style="fill:none;stroke:#000000;stroke-width:5;stroke-miterlimit:10;" width="74.6" height="109.4"/>
	<circle style="fill:none;stroke:#000000;stroke-width:5;stroke-miterlimit:10;" cx="429.6" cy="273.2" r="27.9"/>
	<circle style="fill:none;stroke:#000000;stroke-width:5;stroke-miterlimit:10;" cx="427.4" cy="361.1" r="27.9"/>
	<path d="M448.9,277.7h-52.2c-2.3,0-4.1-1.8-4.1-4.1v-1c0-2.3,1.8-4.1,4.1-4.1h52.4c2.3,0,4.1,1.8,4.1,4.1v1
		C453,275.9,451.1,277.7,448.9,277.7z"/>
	<path d="M443.3,351.7l-37.1,37.1c-1.6,1.6-4.1,1.6-5.7,0l-0.8-0.8c-1.6-1.6-1.6-4.1,0-5.7l37.1-37.1c1.6-1.6,4.1-1.6,5.7,0l0.8,0.8
		C445,347.6,445,350.2,443.3,351.7z"/>
</g>
<g style="opacity:0;">
	<circle cx="490.5" cy="92.5" r="3.5"/>
	<circle cx="341.5" cy="92.5" r="3.5"/>
	<circle cx="172.5" cy="92.5" r="3.5"/>
	<circle cx="23.5" cy="92.5" r="3.5"/>
	<circle cx="23.5" cy="197.5" r="3.5"/>
	<circle cx="23.5" cy="302.5" r="3.5"/>
	<circle cx="23.5" cy="401.5" r="3.5"/>
	<circle cx="177.5" cy="401.5" r="3.5"/>
	<circle cx="340.5" cy="401.5" r="3.5"/>
	<circle cx="491.5" cy="401.5" r="3.5"/>
	<circle cx="491.5" cy="305.5" r="3.5"/>
	<circle cx="491.5" cy="198.5" r="3.5"/>
</g>
</svg>
