<?xml version="1.0" encoding="utf-8"?>
<!-- Generator: Adobe Illustrator 22.1.0, SVG Export Plug-In . SVG Version: 6.00 Build 0)  -->
<svg version="1.1" id="Layer_1" xmlns="http://www.w3.org/2000/svg" xmlns:xlink="http://www.w3.org/1999/xlink" x="0px" y="0px"
	 viewBox="0 0 512 512" style="enable-background:new 0 0 512 512;" xml:space="preserve">
<style type="text/css">
	.st0{opacity:0;}
	.st1{fill:none;stroke:#000000;stroke-width:5;stroke-linecap:round;stroke-linejoin:round;stroke-miterlimit:10;}
</style>
<g class="st0">
	<path class="st1" d="M140,236.2c0,0,18.4-39.9,44.6-43.8"/>
	<path class="st1" d="M184.6,178.6c0,0,20-48.1,61.8-53.9"/>
	<path class="st1" d="M291.6,136.1c0,0,21.9-27.9,88.8-11.4"/>
	<path class="st1" d="M196.4,247c0,0,74.8-57.6,139.6-63.4"/>
	<path class="st1" d="M392.6,176.9c0,0-17.1,49.8-41.3,55.4"/>
	<path class="st1" d="M465.5,137.3c0,0-29.5,100.6-115,143.3S18,343,18,343"/>
</g>
<g>
	<circle cx="136.5" cy="155.5" r="3.5"/>
	<circle cx="99.5" cy="202.5" r="3.5"/>
	<circle cx="64.5" cy="251.5" r="3.5"/>
	<circle cx="39.5" cy="298.5" r="3.5"/>
	<circle cx="20.5" cy="338.5" r="3.5"/>
	<circle cx="73.5" cy="355.5" r="3.5"/>
	<circle cx="119.5" cy="368.5" r="3.5"/>
	<circle cx="180.5" cy="374.5" r="3.5"/>
	<circle cx="236.5" cy="371.5" r="3.5"/>
	<circle cx="297.5" cy="364.5" r="3.5"/>
	<circle cx="345.5" cy="355.5" r="3.5"/>
	<circle cx="391.5" cy="338.5" r="3.5"/>
	<circle cx="439.5" cy="294.5" r="3.5"/>
	<circle cx="468.5" cy="240.5" r="3.5"/>
	<circle cx="476.5" cy="190.5" r="3.5"/>
	<circle cx="474.5" cy="151.5" r="3.5"/>
	<circle cx="451.5" cy="112.5" r="3.5"/>
	<circle cx="407.5" cy="76.5" r="3.5"/>
	<circle cx="362.5" cy="55.5" r="3.5"/>
	<circle cx="316.5" cy="51.5" r="3.5"/>
	<circle cx="266.5" cy="57.5" r="3.5"/>
	<circle cx="222.5" cy="76.5" r="3.5"/>
	<circle cx="188.5" cy="102.5" r="3.5"/>
	<circle cx="165.5" cy="124.5" r="3.5"/>
</g>
</svg>
