<?xml version="1.0" encoding="utf-8"?>
<!-- Generator: Adobe Illustrator 22.1.0, SVG Export Plug-In . SVG Version: 6.00 Build 0)  -->
<svg version="1.1" id="Layer_1" xmlns="http://www.w3.org/2000/svg" xmlns:xlink="http://www.w3.org/1999/xlink" x="0px" y="0px"
	 viewBox="0 0 512 512" style="enable-background:new 0 0 512 512;" xml:space="preserve">
<style type="text/css">
	.st0{opacity:0;}
	.st1{fill:none;stroke:#000000;stroke-width:5;stroke-linecap:round;stroke-linejoin:round;stroke-miterlimit:10;}
</style>
<g class="st0">
	<path class="st1" d="M279.6,379.9v86.7c0,11.4-9.2,20.3-20.3,20.3h-5.6c-11.1,0-20.3-9.2-20.3-20.3v-86.7"/>
	<g>
		<path class="st1" d="M323.3,88.9c-17.6-27.4-47.1-37.3-56.5-39.6"/>
	</g>
</g>
<g>
	<circle cx="198.5" cy="42.5" r="3.5"/>
	<circle cx="166.5" cy="76.5" r="3.5"/>
	<circle cx="156.5" cy="125.5" r="3.5"/>
	<circle cx="155.5" cy="189.5" r="3.5"/>
	<circle cx="156.5" cy="252.5" r="3.5"/>
	<circle cx="156.5" cy="316.5" r="3.5"/>
	<circle cx="156.5" cy="375.5" r="3.5"/>
	<circle cx="199.5" cy="379.5" r="3.5"/>
	<circle cx="254.5" cy="379.5" r="3.5"/>
	<circle cx="307.5" cy="379.5" r="3.5"/>
	<circle cx="357.5" cy="379.5" r="3.5"/>
	<circle cx="357.5" cy="332.5" r="3.5"/>
	<circle cx="357.5" cy="271.5" r="3.5"/>
	<circle cx="357.5" cy="209.5" r="3.5"/>
	<circle cx="357.5" cy="147.5" r="3.5"/>
	<circle cx="357.5" cy="106.5" r="3.5"/>
	<circle cx="336.5" cy="64.5" r="3.5"/>
	<circle cx="302.5" cy="31.5" r="3.5"/>
	<circle cx="254.5" cy="21.5" r="3.5"/>
</g>
</svg>
