<?xml version="1.0" encoding="utf-8"?>
<!-- Generator: Adobe Illustrator 22.1.0, SVG Export Plug-In . SVG Version: 6.00 Build 0)  -->
<svg version="1.1" id="Layer_1" xmlns="http://www.w3.org/2000/svg" xmlns:xlink="http://www.w3.org/1999/xlink" x="0px" y="0px"
	 viewBox="0 0 512 512" style="enable-background:new 0 0 512 512;" xml:space="preserve">
<style type="text/css">
	.st0{opacity:0;}
	.st1{fill:none;stroke:#000000;stroke-width:5;stroke-linecap:round;stroke-linejoin:round;stroke-miterlimit:10;}
</style>
<g class="st0">
	<g>
		<path class="st1" d="M471,193v77.7c0,21.7-8.3,42.6-23,58.9l-63.2,70.6c-2.9,3.3-6.7,4.8-10.8,4.8c-3.5,0-6.9-1.2-9.6-3.6
			c-6-5.4-6.3-14.4-1.2-20.3l63.3-70.8c10-10.9,15.5-25,15.5-39.5V193c0-9.4-7.5-16.9-16.9-16.9h-66.8c-2.7,0-5.2-0.8-7.3-2.1
			c10.2-5.2,17.9-15,20-26.7h54.1C450.5,147.3,471,167.8,471,193z"/>
	</g>
	<path class="st1" d="M391.1,118.5c0,11.9-8.3,21.7-19.4,24.2c0,1.5-0.2,3.1-0.6,4.6c-2.1,11.7-9.6,21.5-20,26.7
		c-5.2,2.7-10.9,4.2-17.3,4.2c-8.3,0-15.9-2.7-22.1-7.1c-4.4,6.9-12.1,11.3-20.9,11.3c-8.8,0-16.7-4.8-21.1-11.7
		c-5,2.5-10.8,3.8-16.7,3.8c-14.4,0-26.9-7.9-33.2-19.8c-4.4,1.9-9.2,2.9-14.4,2.9c-1,0-1.7,0-2.7-0.2
		c-5.8,13.6-19.2,23.4-34.9,23.4c-10.2,0-19.4-4-26.3-10.6c-5.2,2.7-11.1,4.2-17.3,4.2c-20.9,0-37.8-16.9-37.8-37.8
		s16.9-37.8,37.8-37.8c1.3,0,2.7,0,4,0.2c-2.7-5.2-4-10.9-4-17.1c0-20.9,16.9-37.8,37.8-37.8c17.3,0,31.7,11.5,36.3,27.3
		c5.2-2.5,10.8-4,16.9-4c6.3,0,12.1,1.5,17.3,4.2c8.3-15.9,24.8-26.7,43.8-26.7c23.6,0,43.4,16.7,48,39c2.9-1.2,6.1-1.9,9.6-1.9
		c9.8,0,18.2,5.8,22.3,13.8c3.1-1.3,6.5-2.1,10.2-2.1C380,93.7,391.1,104.8,391.1,118.5z"/>
	<circle class="st1" cx="341.8" cy="51.3" r="16.3"/>
	<circle class="st1" cx="186.5" cy="27.3" r="7.3"/>
</g>
<g>
	<circle cx="96.5" cy="197.5" r="3.5"/>
	<circle cx="96.5" cy="256.5" r="3.5"/>
	<circle cx="97.5" cy="315.5" r="3.5"/>
	<circle cx="97.5" cy="361.5" r="3.5"/>
	<circle cx="93.5" cy="414.5" r="3.5"/>
	<circle cx="107.5" cy="451.5" r="3.5"/>
	<circle cx="132.5" cy="471.5" r="3.5"/>
	<circle cx="156.5" cy="478.5" r="3.5"/>
	<circle cx="207.5" cy="479.5" r="3.5"/>
	<circle cx="271.5" cy="478.5" r="3.5"/>
	<circle cx="314.5" cy="480.5" r="3.5"/>
	<circle cx="342.5" cy="469.5" r="3.5"/>
	<circle cx="366.5" cy="451.5" r="3.5"/>
	<circle cx="378.5" cy="424.5" r="3.5"/>
	<circle cx="375.5" cy="349.5" r="3.5"/>
	<circle cx="374.5" cy="298.5" r="3.5"/>
	<circle cx="373.5" cy="247.5" r="3.5"/>
	<circle cx="377.5" cy="190.5" r="3.5"/>
</g>
</svg>
