<?xml version="1.0" encoding="utf-8"?>
<!-- Generator: Adobe Illustrator 22.1.0, SVG Export Plug-In . SVG Version: 6.00 Build 0)  -->
<svg version="1.1" id="Layer_1" xmlns="http://www.w3.org/2000/svg" xmlns:xlink="http://www.w3.org/1999/xlink" x="0px" y="0px"
	 viewBox="0 0 512 512" style="enable-background:new 0 0 512 512;" xml:space="preserve">
<style type="text/css">
	.st0{opacity:0;}
	.st1{fill:none;stroke:#000000;stroke-width:5;stroke-linecap:round;stroke-linejoin:round;stroke-miterlimit:10;}
</style>
<g class="st0">
	<circle class="st1" cx="159.2" cy="380.5" r="22.6"/>
	<path class="st1" d="M181.8,221.5c0,6.2-5.1,11.3-11.3,11.3c-6.2,0-11.3-5.1-11.3-11.3c0-6.2,5.1-11.3,11.3-11.3
		C176.7,210.2,181.8,215.3,181.8,221.5z"/>
	<path class="st1" d="M275,369.2c0,6.2-5.1,11.3-11.3,11.3c-6.2,0-11.3-5.1-11.3-11.3c0-6.2,5.1-11.3,11.3-11.3
		C269.9,357.9,275,362.8,275,369.2z"/>
	<path class="st1" d="M354.4,301.1c0,6.2-5.1,11.3-11.3,11.3c-6.2,0-11.3-5.1-11.3-11.3s5.1-11.3,11.3-11.3
		C349.3,289.6,354.4,294.7,354.4,301.1z"/>
	<path class="st1" d="M311.3,121.6c0,6.2-5.1,11.3-11.3,11.3s-11.3-5.1-11.3-11.3c0-6.2,5.1-11.3,11.3-11.3
		C306.2,110.3,311.3,115.4,311.3,121.6z"/>
	<ellipse class="st1" cx="286.3" cy="235.2" rx="13.7" ry="13.7"/>
</g>
<g>
	<circle cx="85.5" cy="79.3" r="3.5"/>
	<circle cx="47.6" cy="110.3" r="3.5"/>
	<circle cx="31.8" cy="137.9" r="3.5"/>
	<circle cx="31.8" cy="174.4" r="3.5"/>
	<circle cx="53.7" cy="193.6" r="3.5"/>
	<circle cx="96.5" cy="194.5" r="3.5"/>
	<circle cx="99.5" cy="233.5" r="3.5"/>
	<circle cx="99.5" cy="276.5" r="3.5"/>
	<circle cx="96.5" cy="330.5" r="3.5"/>
	<circle cx="96.5" cy="398.5" r="3.5"/>
	<circle cx="99.5" cy="455.5" r="3.5"/>
	<circle cx="164.5" cy="455.5" r="3.5"/>
	<circle cx="228.5" cy="455.5" r="3.5"/>
	<circle cx="291.5" cy="459.5" r="3.5"/>
	<circle cx="349.5" cy="458.5" r="3.5"/>
	<circle cx="404.7" cy="455.5" r="3.5"/>
	<circle cx="404.7" cy="388.5" r="3.5"/>
	<circle cx="404.7" cy="330.5" r="3.5"/>
	<circle cx="404.7" cy="263.5" r="3.5"/>
	<circle cx="404.7" cy="193.5" r="3.5"/>
	<circle cx="437.5" cy="188.5" r="3.5"/>
	<circle cx="463.5" cy="178.5" r="3.5"/>
	<circle cx="475.5" cy="148.5" r="3.5"/>
	<circle cx="466.5" cy="115.5" r="3.5"/>
	<circle cx="445.5" cy="88.5" r="3.5"/>
	<circle cx="405.5" cy="67.5" r="3.5"/>
	<circle cx="363.5" cy="62.5" r="3.5"/>
	<circle cx="313.5" cy="53.5" r="3.5"/>
	<circle cx="260.5" cy="52.5" r="3.5"/>
	<circle cx="203.5" cy="53.5" r="3.5"/>
	<circle cx="145.5" cy="62.5" r="3.5"/>
</g>
</svg>
