<?xml version="1.0" encoding="utf-8"?>
<!-- Generator: Adobe Illustrator 22.1.0, SVG Export Plug-In . SVG Version: 6.00 Build 0)  -->
<svg version="1.1" id="Layer_1" xmlns="http://www.w3.org/2000/svg" xmlns:xlink="http://www.w3.org/1999/xlink" x="0px" y="0px"
	 viewBox="0 0 512 512" style="enable-background:new 0 0 512 512;" xml:space="preserve">
<style type="text/css">
	.st0{opacity:0;}
	.st1{fill:none;stroke:#000000;stroke-width:5;stroke-linecap:round;stroke-linejoin:round;stroke-miterlimit:10;}
</style>
<g class="st0">
	<path class="st1" d="M426.3,369.5h46.7l0,0c0,52.1-42.3,94.4-94.4,94.4H132.8c-52.1,0-94.4-42.3-94.4-94.4l0,0h27.2"/>
	<path class="st1" d="M434.6,315.3h11.1c15.1,0,27.2,12.1,27.2,27.2l0,0c0,15.1-12.1,27.2-27.2,27.2H65.7
		c-15.1,0-27.2-12.1-27.2-27.2l0,0c0-15.1,12.1-27.2,27.2-27.2h11.1"/>
	<path class="st1" d="M445.9,301.7c-0.2,3.8-1.7,7.1-4.2,9.6c-2.5,2.5-5.9,4-9.6,4H152.9V335c0.2,5.9-4.6,10.5-10.5,10.5
		c-2.9,0-5.7-1.3-7.5-3.3v17.2c0,5.7-4.6,10.5-10.5,10.5s-10.5-4.8-10.5-10.5v-44H79.3c-7.5,0-13.6-6.1-13.6-13.6
		c0-3.8,1.5-7.1,4-9.6c2.5-2.5,5.9-4,9.6-4h353.1C439.9,288.1,445.9,294.2,445.9,301.7z"/>
</g>
<g>
	<circle cx="93.5" cy="124.5" r="3.5"/>
	<circle cx="62.5" cy="168.5" r="3.5"/>
	<circle cx="47.5" cy="215.5" r="3.5"/>
	<circle cx="38.5" cy="269.5" r="3.5"/>
	<circle cx="90.5" cy="269.5" r="3.5"/>
	<circle cx="142.5" cy="267.5" r="3.5"/>
	<circle cx="195.5" cy="267.5" r="3.5"/>
	<circle cx="255.5" cy="267.5" r="3.5"/>
	<circle cx="311.5" cy="267.5" r="3.5"/>
	<circle cx="361.5" cy="267.5" r="3.5"/>
	<circle cx="418.5" cy="270.5" r="3.5"/>
	<circle cx="471.5" cy="266.5" r="3.5"/>
	<circle cx="467.5" cy="225.5" r="3.5"/>
	<circle cx="455.5" cy="190.5" r="3.5"/>
	<circle cx="429.5" cy="145.5" r="3.5"/>
	<circle cx="397.5" cy="105.5" r="3.5"/>
	<circle cx="353.5" cy="75.5" r="3.5"/>
	<circle cx="293.5" cy="53.5" r="3.5"/>
	<circle cx="237.5" cy="53.5" r="3.5"/>
	<circle cx="185.5" cy="65.5" r="3.5"/>
	<circle cx="134.5" cy="86.5" r="3.5"/>
</g>
</svg>
