<?xml version="1.0" encoding="utf-8"?>
<!-- Generator: Adobe Illustrator 22.1.0, SVG Export Plug-In . SVG Version: 6.00 Build 0)  -->
<svg version="1.1" id="Layer_1" xmlns="http://www.w3.org/2000/svg" xmlns:xlink="http://www.w3.org/1999/xlink" x="0px" y="0px"
	 viewBox="0 0 512 512" style="enable-background:new 0 0 512 512;" xml:space="preserve">
<style type="text/css">
	.st0{opacity:0;}
	.st1{fill:none;stroke:#000000;stroke-width:5;stroke-linecap:round;stroke-linejoin:round;stroke-miterlimit:10;}
</style>
<g class="st0">
	<line class="st1" x1="191.6" y1="334.5" x2="331.2" y2="334.5"/>
	<line class="st1" x1="331.2" y1="413.6" x2="191.6" y2="413.6"/>
	<path class="st1" d="M232.2,64.8V30.7c0-8.6,6.8-15.4,15.4-15.4h27.5c8.6,0,15.4,6.8,15.4,15.4v34.1"/>
	<path class="st1" d="M213.3,232.8l48.3,18.7l47.9-18.7"/>
</g>
<g>
	<circle cx="235.5" cy="79.5" r="3.5"/>
	<circle cx="239.5" cy="119.5" r="3.5"/>
	<circle cx="234.5" cy="164.5" r="3.5"/>
	<circle cx="226.5" cy="200.5" r="3.5"/>
	<circle cx="214.5" cy="223.5" r="3.5"/>
	<circle cx="205.5" cy="250.5" r="3.5"/>
	<circle cx="195.5" cy="276.5" r="3.5"/>
	<circle cx="190.1" cy="290.5" r="3.5"/>
	<circle cx="190.1" cy="324.5" r="3.5"/>
	<circle cx="190.1" cy="358.6" r="3.5"/>
	<circle cx="190.1" cy="392.6" r="3.5"/>
	<circle cx="190.1" cy="426.6" r="3.5"/>
	<circle cx="190.1" cy="460.7" r="3.5"/>
	<circle cx="190.1" cy="494.7" r="3.5"/>
	<circle cx="224.3" cy="494.7" r="3.5"/>
	<circle cx="260" cy="494.7" r="3.5"/>
	<circle cx="295.8" cy="494.7" r="3.5"/>
	<circle cx="331.4" cy="494.7" r="3.5"/>
	<circle cx="331.4" cy="460.7" r="3.5"/>
	<circle cx="331.4" cy="426.6" r="3.5"/>
	<circle cx="331.4" cy="392.6" r="3.5"/>
	<circle cx="331.4" cy="358.6" r="3.5"/>
	<circle cx="331.4" cy="324.5" r="3.5"/>
	<circle cx="331.4" cy="290.5" r="3.5"/>
	<circle cx="330.5" cy="276.5" r="3.5"/>
	<circle cx="321.5" cy="257.5" r="3.5"/>
	<circle cx="307.5" cy="226.5" r="3.5"/>
	<circle cx="297.5" cy="204.5" r="3.5"/>
	<circle cx="291.5" cy="176.5" r="3.5"/>
	<circle cx="285.5" cy="146.5" r="3.5"/>
	<circle cx="285.5" cy="116.5" r="3.5"/>
	<circle cx="287.5" cy="76.5" r="3.5"/>
</g>
</svg>
