<?xml version="1.0" encoding="utf-8"?>
<!-- Generator: Adobe Illustrator 22.1.0, SVG Export Plug-In . SVG Version: 6.00 Build 0)  -->
<svg version="1.1" id="Layer_1" xmlns="http://www.w3.org/2000/svg" xmlns:xlink="http://www.w3.org/1999/xlink" x="0px" y="0px"
	 viewBox="0 0 512 512" style="enable-background:new 0 0 512 512;" xml:space="preserve">
<style type="text/css">
	.st0{opacity:0;}
	.st1{fill:none;stroke:#000000;stroke-width:5;stroke-linecap:round;stroke-linejoin:round;stroke-miterlimit:10;}
</style>
<g class="st0">
	<g>
		<path class="st1" d="M190.4,247.8c-13.5,9.1-31.4,17.6-53.8,22.9c-47.9,11.3-61-21.3-64.5-41.9c17-0.7,38.6-5.7,67.1-12.4
			c26.1-6.3,43.4-8.7,55.1-9.2"/>
		<path class="st1" d="M194.3,207.2c-11.6,0.6-29.2,3-55.4,9.1c-28.1,6.7-50.1,11.6-67.1,12.4c-23.8,1.1-37.7-6.7-44.3-30.1
			c-11.7-39.8,8.4-85.6,44.3-115c36-29.4,25.5,6.8,25.5,6.8s16.3,48.2,32.7,70.6c17.6,23.7,49.2,30.7,68.7,37"/>
	</g>
	<path class="st1" d="M190.4,247.8c-13.3,9.2-31.6,17.2-54,22.7c-47.9,11.3-61-21.3-64.5-41.9c17-0.7,38.6-5.7,67.1-12.4
		c27.3-6.5,45.5-8.9,56.7-9.2"/>
	<path class="st1" d="M326,326.4c35.5-10.3,49-33.1,53.6-67.8"/>
</g>
<g>
	<circle cx="241.5" cy="177.5" r="3.5"/>
	<circle cx="206.5" cy="189.5" r="3.5"/>
	<circle cx="192.5" cy="226.5" r="3.5"/>
	<circle cx="192.5" cy="260.5" r="3.5"/>
	<circle cx="201.5" cy="290.5" r="3.5"/>
	<circle cx="220.5" cy="320.5" r="3.5"/>
	<circle cx="266.5" cy="336.5" r="3.5"/>
	<circle cx="303.5" cy="336.5" r="3.5"/>
	<circle cx="342.5" cy="331.5" r="3.5"/>
	<circle cx="385.5" cy="324.5" r="3.5"/>
	<circle cx="427.5" cy="305.5" r="3.5"/>
	<circle cx="452.5" cy="279.5" r="3.5"/>
	<circle cx="472.5" cy="254.5" r="3.5"/>
	<circle cx="472.5" cy="226.5" r="3.5"/>
	<circle cx="455.5" cy="204.5" r="3.5"/>
	<circle cx="422.5" cy="200.5" r="3.5"/>
	<circle cx="394.5" cy="222.5" r="3.5"/>
	<circle cx="381.5" cy="247.5" r="3.5"/>
	<circle cx="360.5" cy="271.5" r="3.5"/>
	<circle cx="337.5" cy="254.5" r="3.5"/>
	<circle cx="315.5" cy="229.5" r="3.5"/>
	<circle cx="299.5" cy="201.5" r="3.5"/>
	<circle cx="279.5" cy="189.5" r="3.5"/>
</g>
</svg>
