<?xml version="1.0" encoding="utf-8"?>
<!-- Generator: Adobe Illustrator 22.1.0, SVG Export Plug-In . SVG Version: 6.00 Build 0)  -->
<svg version="1.1" id="Layer_1" xmlns="http://www.w3.org/2000/svg" xmlns:xlink="http://www.w3.org/1999/xlink" x="0px" y="0px"
	 viewBox="0 0 512 512" style="enable-background:new 0 0 512 512;" xml:space="preserve">
<style type="text/css">
	.st0{opacity:0;}
	.st1{fill:none;stroke:#000000;stroke-width:5;stroke-linecap:round;stroke-linejoin:round;stroke-miterlimit:10;}
</style>
<g class="st0">
	<path class="st1" d="M392.7,267.1v201.5c0,12.4-10.1,22.3-22.3,22.3H140.8c-12.4,0-22.3-10.1-22.3-22.3V267.1H392.7z"/>
	<polygon class="st1" points="392.7,267.1 118.5,267.1 188.6,349.7 	"/>
	<path class="st1" d="M206,243.2c0,4.4-2.9,8.1-6.8,8.1h-46.9c-3.7,0-6.6-3.7-6.6-8.1v-71.9c0-4.4,2.9-8.1,6.6-8.1h46.9
		c3.7,0,6.8,3.7,6.8,8.1C206,171.2,206,243.2,206,243.2z M206,139.2c0,4.4-2.9,8.1-6.8,8.1h-46.9c-3.7,0-6.6-3.7-6.6-8.1V67.3
		c0-4.4,2.9-8.1,6.6-8.1h46.9c3.7,0,6.8,3.5,6.8,8.1C206,67.3,206,139.2,206,139.2z M285.6,243.2c0,4.4-2.9,8.1-6.6,8.1h-46.9
		c-3.7,0-6.8-3.7-6.8-8.1v-71.9c0-4.4,2.9-8.1,6.8-8.1H279c3.7,0,6.6,3.7,6.6,8.1V243.2z M285.6,139.2c0,4.4-2.9,8.1-6.6,8.1h-46.9
		c-3.7,0-6.8-3.7-6.8-8.1V67.3c0-4.4,2.9-8.1,6.8-8.1H279c3.7,0,6.6,3.5,6.6,8.1V139.2z M365.4,243.2c0,4.4-2.9,8.1-6.6,8.1H312
		c-3.7,0-6.8-3.7-6.8-8.1v-71.9c0-4.4,2.9-8.1,6.8-8.1h46.9c3.7,0,6.6,3.7,6.6,8.1V243.2z M365.4,139.2c0,4.4-2.9,8.1-6.6,8.1H312
		c-3.7,0-6.8-3.7-6.8-8.1V67.3c0-4.4,2.9-8.1,6.8-8.1h46.9c3.7,0,6.6,3.5,6.6,8.1V139.2z"/>
</g>
<g class="st0">
	<path class="st1" d="M392.7,267.1v201.5c0,12.4-10.1,22.3-22.3,22.3H140.8c-12.4,0-22.3-10.1-22.3-22.3V267.1H392.7z"/>
	<polygon class="st1" points="392.7,267.1 118.5,267.1 188.6,349.7 	"/>
	<path class="st1" d="M206,243.2c0,4.4-2.9,8.1-6.8,8.1h-46.9c-3.7,0-6.6-3.7-6.6-8.1v-71.9c0-4.4,2.9-8.1,6.6-8.1h46.9
		c3.7,0,6.8,3.7,6.8,8.1C206,171.2,206,243.2,206,243.2z M206,139.2c0,4.4-2.9,8.1-6.8,8.1h-46.9c-3.7,0-6.6-3.7-6.6-8.1V67.3
		c0-4.4,2.9-8.1,6.6-8.1h46.9c3.7,0,6.8,3.5,6.8,8.1C206,67.3,206,139.2,206,139.2z M285.6,243.2c0,4.4-2.9,8.1-6.6,8.1h-46.9
		c-3.7,0-6.8-3.7-6.8-8.1v-71.9c0-4.4,2.9-8.1,6.8-8.1H279c3.7,0,6.6,3.7,6.6,8.1V243.2z M285.6,139.2c0,4.4-2.9,8.1-6.6,8.1h-46.9
		c-3.7,0-6.8-3.7-6.8-8.1V67.3c0-4.4,2.9-8.1,6.8-8.1H279c3.7,0,6.6,3.5,6.6,8.1V139.2z M365.4,243.2c0,4.4-2.9,8.1-6.6,8.1H312
		c-3.7,0-6.8-3.7-6.8-8.1v-71.9c0-4.4,2.9-8.1,6.8-8.1h46.9c3.7,0,6.6,3.7,6.6,8.1V243.2z M365.4,139.2c0,4.4-2.9,8.1-6.6,8.1H312
		c-3.7,0-6.8-3.7-6.8-8.1V67.3c0-4.4,2.9-8.1,6.8-8.1h46.9c3.7,0,6.6,3.5,6.6,8.1V139.2z"/>
</g>
<g>
	<circle cx="124.8" cy="246.5" r="3.5"/>
	<circle cx="124.8" cy="204.9" r="3.5"/>
	<circle cx="124.8" cy="163.2" r="3.5"/>
	<circle cx="124.8" cy="121.6" r="3.5"/>
	<circle cx="124.8" cy="80" r="3.5"/>
	<circle cx="124.8" cy="38.4" r="3.5"/>
	<circle cx="167.9" cy="38.4" r="3.5"/>
	<circle cx="211.1" cy="38.4" r="3.5"/>
	<circle cx="254.2" cy="38.4" r="3.5"/>
	<circle cx="297.3" cy="38.4" r="3.5"/>
	<circle cx="340.4" cy="38.4" r="3.5"/>
	<circle cx="383.5" cy="38.4" r="3.5"/>
	<circle cx="383.5" cy="79.2" r="3.5"/>
	<circle cx="383.5" cy="120" r="3.5"/>
	<circle cx="383.5" cy="160.8" r="3.5"/>
	<circle cx="383.5" cy="201.7" r="3.5"/>
	<circle cx="383.5" cy="242.5" r="3.5"/>
</g>
</svg>
