<?xml version="1.0" encoding="utf-8"?>
<!-- Generator: Adobe Illustrator 22.1.0, SVG Export Plug-In . SVG Version: 6.00 Build 0)  -->
<svg version="1.1" id="Layer_1" xmlns="http://www.w3.org/2000/svg" xmlns:xlink="http://www.w3.org/1999/xlink" x="0px" y="0px"
	 viewBox="0 0 512 512" style="enable-background:new 0 0 512 512;" xml:space="preserve">
<style type="text/css">
	.st0{opacity:0;}
	.st1{fill:none;stroke:#000000;stroke-width:5;stroke-linecap:round;stroke-linejoin:round;stroke-miterlimit:10;}
</style>
<g class="st0">
	<g>
		<path class="st1" d="M341.1,155.6l68.8-90.5c0.9-1.1,2-2,3.5-2.6l57.1-21.1c4-1.5,8.4,0.7,9.9,4.6c1.5,3.7-0.7,8.4-4.6,9.7
			l-54.9,20.4l-60.4,79.5"/>
	</g>
	<line class="st1" x1="382" y1="155.6" x2="209.1" y2="155.6"/>
	<g id="Layer_2_1_">
		<g>
			<path class="st1" d="M150.6,149.5c-12.7,11.4-29.7,18.5-48.3,18.5c-39.8,0-71.9-32.3-71.9-71.9l0,0c0-39.8,32.1-71.9,71.9-72.1
				c39.8,0,71.9,32.1,72.1,71.9"/>
			<line class="st1" x1="101.2" y1="40" x2="101.2" y2="149.5"/>
			<line class="st1" x1="58.3" y1="128.8" x2="144" y2="62.9"/>
			<line class="st1" x1="58.1" y1="60.9" x2="101.2" y2="95.9"/>
			<line class="st1" x1="46.2" y1="95.9" x2="101.2" y2="95.9"/>
		</g>
	</g>
	<line class="st1" x1="247.1" y1="496" x2="338.9" y2="496"/>
</g>
<g>
	<circle cx="273.5" cy="478.5" r="3.5"/>
	<circle cx="273.5" cy="437.3" r="3.5"/>
	<circle cx="273.5" cy="396.1" r="3.5"/>
	<circle cx="273.5" cy="354.9" r="3.5"/>
	<circle cx="273.5" cy="313.7" r="3.5"/>
	<circle cx="273.5" cy="272.5" r="3.5"/>
	<circle cx="255.5" cy="245.5" r="3.5"/>
	<circle cx="227.9" cy="216.1" r="3.5"/>
	<circle cx="200.3" cy="186.7" r="3.5"/>
	<circle cx="172.7" cy="157.3" r="3.5"/>
	<circle cx="145.1" cy="127.9" r="3.5"/>
	<circle cx="117.5" cy="98.5" r="3.5"/>
	<circle cx="168.1" cy="98.5" r="3.5"/>
	<circle cx="218.6" cy="98.5" r="3.5"/>
	<circle cx="269.2" cy="98.5" r="3.5"/>
	<circle cx="319.8" cy="98.5" r="3.5"/>
	<circle cx="370.4" cy="98.5" r="3.5"/>
	<circle cx="420.9" cy="98.5" r="3.5"/>
	<circle cx="471.5" cy="98.5" r="3.5"/>
	<circle cx="445.2" cy="125.3" r="3.5"/>
	<circle cx="418.8" cy="152.2" r="3.5"/>
	<circle cx="392.5" cy="179" r="3.5"/>
	<circle cx="366.2" cy="205.8" r="3.5"/>
	<circle cx="339.8" cy="232.7" r="3.5"/>
	<circle cx="313.5" cy="259.5" r="3.5"/>
	<circle cx="299.5" cy="278.5" r="3.5"/>
	<circle cx="299.5" cy="318.9" r="3.5"/>
	<circle cx="299.5" cy="359.3" r="3.5"/>
	<circle cx="299.5" cy="399.7" r="3.5"/>
	<circle cx="299.5" cy="440.1" r="3.5"/>
	<circle cx="299.5" cy="480.5" r="3.5"/>
</g>
</svg>
