<?xml version="1.0" encoding="utf-8"?>
<!-- Generator: Adobe Illustrator 22.1.0, SVG Export Plug-In . SVG Version: 6.00 Build 0)  -->
<svg version="1.1" id="Layer_1" xmlns="http://www.w3.org/2000/svg" xmlns:xlink="http://www.w3.org/1999/xlink" x="0px" y="0px"
	 viewBox="0 0 512 512" style="enable-background:new 0 0 512 512;" xml:space="preserve">
<style type="text/css">
	.st0{opacity:0;}
	.st1{fill:none;stroke:#000000;stroke-width:5;stroke-linecap:round;stroke-linejoin:round;stroke-miterlimit:10;}
</style>
<g id="Layer_1_1_" class="st0">
	<path class="st1" d="M24.9,261.8h398.4l0,0"/>
	<g>
		<path class="st1" d="M405.3,333.1c16.7-6,47.8-21.9,60.9-57.7c4.3-12.2,4.5-21.2,0.2-26.4c-7.9-9.9-31.1-10.3-41.2-9"/>
		<path class="st1" d="M422.7,214.6c6.4-0.9,45.7-4.3,63.9,18.2c10.1,12.6,11.4,30,3.9,51.2c-22.7,63.2-88.3,76.9-91.1,77.6
			c-0.9,0.2-1.7,0.2-2.6,0.2c-2.6,0-5.1-0.9-7.1-2.1"/>
	</g>
	<g>
		<path class="st1" d="M344.7,439H98.2c-7.1,0-12.9-5.8-12.9-12.9c0-7.1,5.8-12.9,12.9-12.9h246.5c7.1,0,12.9,5.8,12.9,12.9
			C357.5,433.2,351.7,439,344.7,439z"/>
	</g>
	<line class="st1" x1="206.9" y1="75.7" x2="206.9" y2="171.3"/>
	<line class="st1" x1="240.1" y1="42.5" x2="240.1" y2="186.3"/>
	<line class="st1" x1="265.8" y1="48.9" x2="265.8" y2="139.2"/>
</g>
<g>
	<circle cx="22.5" cy="198.5" r="3.5"/>
	<circle cx="22.5" cy="245.5" r="3.5"/>
	<circle cx="24.5" cy="282.5" r="3.5"/>
	<circle cx="35.5" cy="320.5" r="3.5"/>
	<circle cx="51.5" cy="357.5" r="3.5"/>
	<circle cx="76.5" cy="389.5" r="3.5"/>
	<circle cx="103.5" cy="404.5" r="3.5"/>
	<circle cx="151.1" cy="404.5" r="3.5"/>
	<circle cx="198.7" cy="404.5" r="3.5"/>
	<circle cx="246.3" cy="404.5" r="3.5"/>
	<circle cx="293.9" cy="404.5" r="3.5"/>
	<circle cx="341.5" cy="404.5" r="3.5"/>
	<circle cx="374.5" cy="375.5" r="3.5"/>
	<circle cx="399.5" cy="342.5" r="3.5"/>
	<circle cx="412.5" cy="303.5" r="3.5"/>
	<circle cx="422.5" cy="271.5" r="3.5"/>
	<circle cx="426.5" cy="226.5" r="3.5"/>
	<circle cx="421.5" cy="198.5" r="3.5"/>
	<circle cx="371.6" cy="198.5" r="3.5"/>
	<circle cx="321.8" cy="198.5" r="3.5"/>
	<circle cx="271.9" cy="198.5" r="3.5"/>
	<circle cx="222" cy="198.5" r="3.5"/>
	<circle cx="172.1" cy="198.5" r="3.5"/>
	<circle cx="122.3" cy="198.5" r="3.5"/>
	<circle cx="72.4" cy="198.5" r="3.5"/>
</g>
</svg>
