<?xml version="1.0" encoding="utf-8"?>
<!-- Generator: Adobe Illustrator 22.1.0, SVG Export Plug-In . SVG Version: 6.00 Build 0)  -->
<svg version="1.1" id="Layer_1" xmlns="http://www.w3.org/2000/svg" xmlns:xlink="http://www.w3.org/1999/xlink" x="0px" y="0px"
	 viewBox="0 0 512 512" style="enable-background:new 0 0 512 512;" xml:space="preserve">
<style type="text/css">
	.st0{opacity:0;}
	.st1{fill:none;stroke:#000000;stroke-width:5;stroke-linecap:round;stroke-linejoin:round;stroke-miterlimit:10;}
</style>
<g class="st0">
	<path class="st1" d="M351.6,252.3l-84,243.2c-3.8,11.3-19.9,11.3-23.7,0l-84.2-243.2"/>
	<path class="st1" d="M254.8,252.3c2.1,7.1,8.5,12.2,16.2,12.2c6,0,11.3-3.2,14.3-7.9v7.5c0,9.4,7.7,16.9,17.1,16.9
		c9.4,0,16.9-7.7,16.9-16.9v-11.8"/>
	<line class="st1" x1="241.1" y1="261.3" x2="202.5" y2="350.8"/>
	<line class="st1" x1="277.2" y1="278.4" x2="223.4" y2="408.5"/>
	<line class="st1" x1="305.2" y1="295.1" x2="247.6" y2="448.3"/>
	<line class="st1" x1="190.5" y1="267.3" x2="293.5" y2="370.9"/>
	<line class="st1" x1="190.7" y1="309.2" x2="280.3" y2="403"/>
	<line class="st1" x1="214.9" y1="376.9" x2="271.1" y2="437.2"/>
	<line class="st1" x1="231.1" y1="261.3" x2="304.6" y2="330.7"/>
</g>
<g>
	<circle cx="157.5" cy="231.5" r="3.5"/>
	<circle cx="133.5" cy="208.5" r="3.5"/>
	<circle cx="121.5" cy="171.5" r="3.5"/>
	<circle cx="125.5" cy="131.5" r="3.5"/>
	<circle cx="138.5" cy="91.5" r="3.5"/>
	<circle cx="167.5" cy="58.5" r="3.5"/>
	<circle cx="201.5" cy="34.5" r="3.5"/>
	<circle cx="247.5" cy="23.5" r="3.5"/>
	<circle cx="288.5" cy="25.5" r="3.5"/>
	<circle cx="330.5" cy="39.5" r="3.5"/>
	<circle cx="363.5" cy="69.5" r="3.5"/>
	<circle cx="384.5" cy="102.5" r="3.5"/>
	<circle cx="391.5" cy="140.5" r="3.5"/>
	<circle cx="391.5" cy="178.5" r="3.5"/>
	<circle cx="380.5" cy="208.5" r="3.5"/>
	<circle cx="353.5" cy="239.5" r="3.5"/>
	<circle cx="320.3" cy="239.5" r="3.5"/>
	<circle cx="287.1" cy="239.5" r="3.5"/>
	<circle cx="253.9" cy="239.5" r="3.5"/>
	<circle cx="220.7" cy="239.5" r="3.5"/>
	<circle cx="187.5" cy="239.5" r="3.5"/>
</g>
</svg>
