<?xml version="1.0" encoding="utf-8"?>
<!-- Generator: Adobe Illustrator 22.1.0, SVG Export Plug-In . SVG Version: 6.00 Build 0)  -->
<svg version="1.1" id="Layer_1" xmlns="http://www.w3.org/2000/svg" xmlns:xlink="http://www.w3.org/1999/xlink" x="0px" y="0px"
	 viewBox="0 0 512 512" style="enable-background:new 0 0 512 512;" xml:space="preserve">
<style type="text/css">
	.st0{fill:none;stroke:#000000;stroke-width:5;stroke-linecap:round;stroke-linejoin:round;stroke-miterlimit:10;}
	.st1{opacity:0;}
</style>
<g>
	
		<ellipse transform="matrix(7.088903e-02 -0.9975 0.9975 7.088903e-02 -137.4197 367.9562)" class="st0" cx="128.8" cy="257.7" rx="32.2" ry="32.2"/>
	<circle class="st0" cx="361.1" cy="352.3" r="32.2"/>
	<circle class="st0" cx="300.6" cy="254.8" r="21.6"/>
	<circle class="st0" cx="234.4" cy="413.6" r="21.6"/>
	<circle class="st0" cx="221" cy="131.6" r="21.6"/>
	<path class="st0" d="M464.2,157.2c-5,6.3-12.6,10.7-21.4,11.7c-17.4,2-33.6-10.5-36-27.9c-2-14.7,6.5-28.1,19.4-33.6"/>
	<path class="st0" d="M35.5,296.3c2.2-0.8,4.6-1.2,7.1-1.2c11.9,0,21.6,9.6,21.6,21.6s-9.6,21.6-21.6,21.6"/>
	<path class="st0" d="M294,30.7c1.1,2.6,1.7,5.4,1.7,8.4c0,11.9-9.6,21.6-21.6,21.6c-11.9,0-21.6-9.6-21.6-21.6
		c0-2.7,0.5-5.3,1.4-7.7"/>
</g>
<g class="st1">
	<circle cx="67.5" cy="117.5" r="3.5"/>
	<circle cx="44.5" cy="156.5" r="3.5"/>
	<circle cx="28.5" cy="207.5" r="3.5"/>
	<circle cx="23.5" cy="246.5" r="3.5"/>
	<circle cx="23.5" cy="289.5" r="3.5"/>
	<circle cx="32.5" cy="332.5" r="3.5"/>
	<circle cx="47.5" cy="369.5" r="3.5"/>
	<circle cx="71.5" cy="402.5" r="3.5"/>
	<circle cx="96.5" cy="429.5" r="3.5"/>
	<circle cx="121.5" cy="455.5" r="3.5"/>
	<circle cx="152.5" cy="469.5" r="3.5"/>
	<circle cx="181.5" cy="479.5" r="3.5"/>
	<circle cx="216.5" cy="489.5" r="3.5"/>
	<circle cx="256.5" cy="493.5" r="3.5"/>
	<circle cx="298.5" cy="487.5" r="3.5"/>
	<circle cx="332.5" cy="477.5" r="3.5"/>
	<circle cx="373.5" cy="464.5" r="3.5"/>
	<circle cx="402.5" cy="440.5" r="3.5"/>
	<circle cx="432.5" cy="417.5" r="3.5"/>
	<circle cx="454.5" cy="387.5" r="3.5"/>
	<circle cx="474.5" cy="352.5" r="3.5"/>
	<circle cx="486.5" cy="322.5" r="3.5"/>
	<circle cx="492.5" cy="285.5" r="3.5"/>
	<circle cx="493.5" cy="248.5" r="3.5"/>
	<circle cx="488.5" cy="211.5" r="3.5"/>
	<circle cx="480.5" cy="175.5" r="3.5"/>
	<circle cx="464.5" cy="141.5" r="3.5"/>
	<circle cx="441.5" cy="113.5" r="3.5"/>
	<circle cx="413.5" cy="83.5" r="3.5"/>
	<circle cx="379.5" cy="57.5" r="3.5"/>
	<circle cx="348.5" cy="42.5" r="3.5"/>
	<circle cx="315.5" cy="29.5" r="3.5"/>
	<circle cx="277.5" cy="24.5" r="3.5"/>
	<circle cx="233.5" cy="25.5" r="3.5"/>
	<circle cx="188.5" cy="31.5" r="3.5"/>
	<circle cx="152.5" cy="45.5" r="3.5"/>
	<circle cx="118.5" cy="66.5" r="3.5"/>
	<circle cx="89.5" cy="91.5" r="3.5"/>
</g>
</svg>
