<?xml version="1.0" encoding="utf-8"?>
<!-- Generator: Adobe Illustrator 22.1.0, SVG Export Plug-In . SVG Version: 6.00 Build 0)  -->
<svg version="1.1" id="Layer_1" xmlns="http://www.w3.org/2000/svg" xmlns:xlink="http://www.w3.org/1999/xlink" x="0px" y="0px"
	 viewBox="0 0 512 512" style="enable-background:new 0 0 512 512;" xml:space="preserve">
<style type="text/css">
	.st0{fill:none;stroke:#000000;stroke-width:5;stroke-linecap:round;stroke-linejoin:round;stroke-miterlimit:10;}
	.st1{opacity:0;}
</style>
<path class="st0" d="M353.9,159.1c-0.8,8.6-14.2,19.6-28.5,31.3c-4,3.2-7.8,6.2-11.8,9.4c-7.4,6.2-16.8,14.6-28.1,24.7
	c-38.7,34.5-103.7,92.4-133.5,101c-19.2,5.8-26.9,3.6-29.7,2c-2.8-1.6-5.4-5.8-7.8-13c13.4-25.5,74.4-133.9,168-171.2
	c1.6-0.8,3.2-1.6,4.8-2.8c3.2-2.8,32.1-26.9,55.7-1.2C348.1,144.7,354.3,152.9,353.9,159.1z"/>
<g class="st1">
	<circle cx="132.5" cy="133.5" r="3.5"/>
	<circle cx="92.5" cy="172.5" r="3.5"/>
	<circle cx="64.5" cy="206.5" r="3.5"/>
	<circle cx="37.5" cy="251.5" r="3.5"/>
	<circle cx="23.5" cy="295.5" r="3.5"/>
	<circle cx="32.5" cy="347.5" r="3.5"/>
	<circle cx="46.5" cy="388.5" r="3.5"/>
	<circle cx="77.5" cy="421.5" r="3.5"/>
	<circle cx="120.5" cy="437.5" r="3.5"/>
	<circle cx="167.5" cy="437.5" r="3.5"/>
	<circle cx="218.5" cy="431.5" r="3.5"/>
	<circle cx="278.5" cy="417.5" r="3.5"/>
	<circle cx="329.5" cy="398.5" r="3.5"/>
	<circle cx="379.5" cy="371.5" r="3.5"/>
	<circle cx="421.5" cy="335.5" r="3.5"/>
	<circle cx="456.5" cy="292.5" r="3.5"/>
	<circle cx="476.5" cy="243.5" r="3.5"/>
	<circle cx="480.5" cy="191.5" r="3.5"/>
	<circle cx="488.5" cy="137.5" r="3.5"/>
	<circle cx="477.5" cy="108.5" r="3.5"/>
	<circle cx="446.5" cy="106.5" r="3.5"/>
	<circle cx="416.5" cy="89.5" r="3.5"/>
	<circle cx="391.5" cy="60.5" r="3.5"/>
	<circle cx="375.5" cy="35.5" r="3.5"/>
	<circle cx="317.5" cy="36.5" r="3.5"/>
	<circle cx="273.5" cy="46.5" r="3.5"/>
	<circle cx="226.5" cy="63.5" r="3.5"/>
	<circle cx="177.5" cy="97.5" r="3.5"/>
</g>
</svg>
