<?xml version="1.0" encoding="utf-8"?>
<!-- Generator: Adobe Illustrator 22.1.0, SVG Export Plug-In . SVG Version: 6.00 Build 0)  -->
<svg version="1.1" id="Layer_1" xmlns="http://www.w3.org/2000/svg" xmlns:xlink="http://www.w3.org/1999/xlink" x="0px" y="0px"
	 viewBox="0 0 512 512" style="enable-background:new 0 0 512 512;" xml:space="preserve">
<style type="text/css">
	.st0{fill:none;stroke:#000000;stroke-width:5;stroke-linecap:round;stroke-linejoin:round;stroke-miterlimit:10;}
	.st1{opacity:0;}
</style>
<g>
	<path class="st0" d="M336.3,276.3c1.8,0.6,3.6,1.8,4.9,3c2.4,2.4,3.8,5.5,3.8,9.1c0,18.6,15.4,33.8,34.2,33.1
		c17.6-0.6,32.1-16.4,32.1-34v5.9c0-6.5,13.3-18,20-18h2c20.2,0,26.5,16.4,26.5,36.4v13.1c-0.2,7.1,2,13.7,5.9,19.2"/>
	<path class="st0" d="M19.3,254.1c5.5-2.6,10.5-6.5,13.9-11.5c3.8-5.5,9.7-8.9,16.4-8.9h1.6c10.7,0,19.6,8.7,19.6,19.6v18.6
		c0,18,14.4,32.9,32.5,33.3h0.6c18.4,0,33.3-15.6,33.3-34c0-17.8,12.5-32.7,29.1-36.2"/>
	<line class="st0" x1="85.8" y1="227.8" x2="114.8" y2="219.7"/>
	<line class="st0" x1="57.6" y1="216.3" x2="37.9" y2="193.7"/>
	<line class="st0" x1="80.2" y1="158.1" x2="100.8" y2="136.1"/>
	<line class="st0" x1="133.7" y1="168.2" x2="134.4" y2="198.5"/>
	<line class="st0" x1="172.6" y1="131.4" x2="189.5" y2="156.7"/>
	<line class="st0" x1="149.7" y1="85.1" x2="178.4" y2="94.2"/>
	<line class="st0" x1="226.5" y1="67.4" x2="256.8" y2="66.3"/>
	<line class="st0" x1="268" y1="138.1" x2="296.9" y2="130.6"/>
	<line class="st0" x1="332.8" y1="82.3" x2="333.7" y2="112.6"/>
	<line class="st0" x1="355.1" y1="126.8" x2="374.9" y2="149.4"/>
	<line class="st0" x1="421.8" y1="159.3" x2="449.9" y2="173.5"/>
	<line class="st0" x1="360.9" y1="165.2" x2="361.9" y2="195.5"/>
	<line class="st0" x1="432.1" y1="237.7" x2="459.2" y2="224"/>
	<line class="st0" x1="367.2" y1="276.7" x2="397.3" y2="272.9"/>
	<path class="st0" d="M336.1,276.3c2-7.5,3.2-15.4,3.2-23.6c0-48.3-39.2-87.7-87.7-87.7c-42.2,0-77.6,29.9-85.7,69.7"/>
	<path class="st0" d="M166.1,234.9c-1.2,5.7-1.8,11.7-1.8,17.8c0,48.3,39.2,87.7,87.7,87.7c40.2,0,74.2-27.1,84.3-64.1"/>
</g>
<g class="st1">
	<circle cx="203.5" cy="28.5" r="3.5"/>
	<circle cx="142.5" cy="45.5" r="3.5"/>
	<circle cx="100.5" cy="76.5" r="3.5"/>
	<circle cx="60.5" cy="114.5" r="3.5"/>
	<circle cx="36.5" cy="168.5" r="3.5"/>
	<circle cx="20.5" cy="218.5" r="3.5"/>
	<circle cx="20.5" cy="277.5" r="3.5"/>
	<circle cx="36.5" cy="334.5" r="3.5"/>
	<circle cx="61.5" cy="381.5" r="3.5"/>
	<circle cx="92.5" cy="426.5" r="3.5"/>
	<circle cx="137.5" cy="457.5" r="3.5"/>
	<circle cx="185.5" cy="473.5" r="3.5"/>
	<circle cx="244.5" cy="486.5" r="3.5"/>
	<circle cx="293.5" cy="481.5" r="3.5"/>
	<circle cx="348.5" cy="468.5" r="3.5"/>
	<circle cx="393.5" cy="439.5" r="3.5"/>
	<circle cx="427.5" cy="403.5" r="3.5"/>
	<circle cx="456.5" cy="370.5" r="3.5"/>
	<circle cx="477.5" cy="321.5" r="3.5"/>
	<circle cx="488.5" cy="269.5" r="3.5"/>
	<circle cx="485.5" cy="221.5" r="3.5"/>
	<circle cx="475.5" cy="173.5" r="3.5"/>
	<circle cx="456.5" cy="133.5" r="3.5"/>
	<circle cx="427.5" cy="98.5" r="3.5"/>
	<circle cx="396.5" cy="66.5" r="3.5"/>
	<circle cx="355.5" cy="42.5" r="3.5"/>
	<circle cx="313.5" cy="25.5" r="3.5"/>
	<circle cx="259.5" cy="19.5" r="3.5"/>
</g>
</svg>
