<?xml version="1.0" encoding="utf-8"?>
<!-- Generator: Adobe Illustrator 22.1.0, SVG Export Plug-In . SVG Version: 6.00 Build 0)  -->
<svg version="1.1" id="Layer_1" xmlns="http://www.w3.org/2000/svg" xmlns:xlink="http://www.w3.org/1999/xlink" x="0px" y="0px"
	 viewBox="0 0 512 512" style="enable-background:new 0 0 512 512;" xml:space="preserve">
<style type="text/css">
	.st0{fill:none;stroke:#000000;stroke-width:5;stroke-linecap:round;stroke-linejoin:round;stroke-miterlimit:10;}
	.st1{opacity:0;}
</style>
<g>
	<circle class="st0" cx="105" cy="101.2" r="15.9"/>
	<circle class="st0" cx="136.8" cy="69.4" r="15.9"/>
	<circle class="st0" cx="152.7" cy="110.3" r="15.9"/>
	<path class="st0" d="M470.4,389.3c-40.7,64.8-130.7,94.6-194.4,54.8c-41.2-25.7-63.4-70.3-63.2-116.2c0.2-25,7-50.5,21.6-73.4
		c5-8,10.7-15.2,16.8-21.8"/>
	
		<ellipse transform="matrix(0.5307 -0.8476 0.8476 0.5307 -81.1933 453.7103)" class="st0" cx="369.1" cy="300.2" rx="108.7" ry="136"/>
	
		<ellipse transform="matrix(0.5307 -0.8476 0.8476 0.5307 -75.4439 453.414)" class="st0" cx="371.7" cy="294.8" rx="79.1" ry="98.9"/>
	<circle class="st0" cx="105" cy="101.2" r="15.9"/>
	<circle class="st0" cx="136.8" cy="69.4" r="15.9"/>
	<circle class="st0" cx="152.7" cy="110.3" r="15.9"/>
</g>
<g class="st1">
	<circle cx="188.5" cy="333.5" r="3.5"/>
	<circle cx="142.5" cy="333.5" r="3.5"/>
	<circle cx="95.5" cy="312.5" r="3.5"/>
	<circle cx="62.5" cy="275.5" r="3.5"/>
	<circle cx="39.5" cy="233.5" r="3.5"/>
	<circle cx="22.5" cy="187.5" r="3.5"/>
	<circle cx="33.5" cy="136.5" r="3.5"/>
	<circle cx="50.5" cy="92.5" r="3.5"/>
	<circle cx="89.5" cy="55.5" r="3.5"/>
	<circle cx="146.5" cy="36.5" r="3.5"/>
	<circle cx="198.5" cy="40.5" r="3.5"/>
	<circle cx="240.5" cy="60.5" r="3.5"/>
	<circle cx="271.5" cy="94.5" r="3.5"/>
	<circle cx="293.5" cy="130.5" r="3.5"/>
	<circle cx="302.5" cy="172.5" r="3.5"/>
	<circle cx="266.5" cy="193.5" r="3.5"/>
	<circle cx="240.5" cy="223.5" r="3.5"/>
	<circle cx="216.5" cy="256.5" r="3.5"/>
	<circle cx="204.5" cy="294.5" r="3.5"/>
</g>
</svg>
