<?xml version="1.0" encoding="utf-8"?>
<!-- Generator: Adobe Illustrator 22.1.0, SVG Export Plug-In . SVG Version: 6.00 Build 0)  -->
<svg version="1.1" id="Layer_1" xmlns="http://www.w3.org/2000/svg" xmlns:xlink="http://www.w3.org/1999/xlink" x="0px" y="0px"
	 viewBox="0 0 512 512" style="enable-background:new 0 0 512 512;" xml:space="preserve">
<style type="text/css">
	.st0{fill:none;stroke:#000000;stroke-width:5;stroke-linecap:round;stroke-linejoin:round;stroke-miterlimit:10;}
	.st1{opacity:0;}
</style>
<g>
	<line class="st0" x1="223.9" y1="60.5" x2="223.9" y2="125.1"/>
	<line class="st0" x1="267.5" y1="18" x2="267.5" y2="161.5"/>
	<line class="st0" x1="292.1" y1="32.3" x2="292.1" y2="104.9"/>
	<g>
		<path class="st0" d="M224.5,315.5c7,0,21.1-5.2,25.8-24.6"/>
	</g>
	<g>
		<path class="st0" d="M257.3,326.3c11.3-14.5,2.2-31.6,2.2-31.8"/>
	</g>
	<g>
		<path class="st0" d="M283.2,318.7c6.6-14.3-10.9-26.2-11.9-26.8"/>
	</g>
</g>
<g class="st1">
	<circle cx="260.5" cy="256.5" r="3.5"/>
	<circle cx="239.5" cy="286.5" r="3.5"/>
	<circle cx="217.5" cy="303.5" r="3.5"/>
	<circle cx="192.5" cy="326.5" r="3.5"/>
	<circle cx="167.5" cy="354.5" r="3.5"/>
	<circle cx="149.5" cy="394.5" r="3.5"/>
	<circle cx="153.5" cy="435.5" r="3.5"/>
	<circle cx="174.5" cy="469.5" r="3.5"/>
	<circle cx="203.5" cy="482.5" r="3.5"/>
	<circle cx="250.5" cy="488.5" r="3.5"/>
	<circle cx="295.5" cy="484.5" r="3.5"/>
	<circle cx="335.5" cy="469.5" r="3.5"/>
	<circle cx="364.5" cy="447.5" r="3.5"/>
	<circle cx="376.5" cy="408.5" r="3.5"/>
	<circle cx="369.5" cy="370.5" r="3.5"/>
	<circle cx="351.5" cy="340.5" r="3.5"/>
	<circle cx="319.5" cy="318.5" r="3.5"/>
	<circle cx="295.5" cy="298.5" r="3.5"/>
	<circle cx="276.5" cy="281.5" r="3.5"/>
</g>
</svg>
