<?xml version="1.0" encoding="utf-8"?>
<!-- Generator: Adobe Illustrator 22.1.0, SVG Export Plug-In . SVG Version: 6.00 Build 0)  -->
<svg version="1.1" id="Layer_1" xmlns="http://www.w3.org/2000/svg" xmlns:xlink="http://www.w3.org/1999/xlink" x="0px" y="0px"
	 viewBox="0 0 512 512" style="enable-background:new 0 0 512 512;" xml:space="preserve">
<style type="text/css">
	.st0{fill:none;stroke:#000000;stroke-width:5;stroke-linecap:round;stroke-linejoin:round;stroke-miterlimit:10;}
	.st1{opacity:0;}
</style>
<g>
	<path class="st0" d="M273.6,123.1c-45.6-42.9-89.3-44.4-89.9-44.4"/>
</g>
<g class="st1">
	<circle cx="102.5" cy="39.5" r="3.5"/>
	<circle cx="69.5" cy="94.5" r="3.5"/>
	<circle cx="54.5" cy="157.5" r="3.5"/>
	<circle cx="54.5" cy="216.5" r="3.5"/>
	<circle cx="60.5" cy="275.5" r="3.5"/>
	<circle cx="81.5" cy="333.5" r="3.5"/>
	<circle cx="106.5" cy="393.5" r="3.5"/>
	<circle cx="153.5" cy="443.5" r="3.5"/>
	<circle cx="204.5" cy="479.5" r="3.5"/>
	<circle cx="277.5" cy="489.5" r="3.5"/>
	<circle cx="336.5" cy="472.5" r="3.5"/>
	<circle cx="393.5" cy="433.5" r="3.5"/>
	<circle cx="426.5" cy="389.5" r="3.5"/>
	<circle cx="445.5" cy="332.5" r="3.5"/>
	<circle cx="448.5" cy="270.5" r="3.5"/>
	<circle cx="427.5" cy="211.5" r="3.5"/>
	<circle cx="397.5" cy="160.5" r="3.5"/>
	<circle cx="358.5" cy="126.5" r="3.5"/>
	<circle cx="309.5" cy="90.5" r="3.5"/>
	<circle cx="261.5" cy="57.5" r="3.5"/>
	<circle cx="214.5" cy="39.5" r="3.5"/>
	<circle cx="158.5" cy="28.5" r="3.5"/>
</g>
</svg>
