<?xml version="1.0" encoding="utf-8"?>
<!-- Generator: Adobe Illustrator 22.1.0, SVG Export Plug-In . SVG Version: 6.00 Build 0)  -->
<svg version="1.1" id="Layer_1" xmlns="http://www.w3.org/2000/svg" xmlns:xlink="http://www.w3.org/1999/xlink" x="0px" y="0px"
	 viewBox="0 0 512 512" style="enable-background:new 0 0 512 512;" xml:space="preserve">
<style type="text/css">
	.st0{fill:none;stroke:#000000;stroke-width:5;stroke-linecap:round;stroke-linejoin:round;stroke-miterlimit:10;}
	.st1{opacity:0;}
</style>
<g>
	<g>
		<path class="st0" d="M232.4,393.7l29.4-286.1"/>
	</g>
	<g>
		<path class="st0" d="M308.9,121.9c1,1.6,78.5,150.6-3.7,273.8"/>
	</g>
	<g>
		<path class="st0" d="M348.1,129.6c1.2,1.2,28.4,32.1,48.3,81.4c18.3,45.7,33.7,116.3,0.6,193.6"/>
	</g>
	<g>
		<path class="st0" d="M215.8,118.1c-1,1.2-103.9,127.8-50.5,259.8"/>
	</g>
	<g>
		<path class="st0" d="M174.4,118.3c-1.2,1-130.7,99-100.2,250.2"/>
	</g>
</g>
<g class="st1">
	<circle cx="274" cy="27" r="4"/>
	<circle cx="220" cy="59" r="4"/>
	<circle cx="174" cy="87" r="4"/>
	<circle cx="126" cy="112" r="4"/>
	<circle cx="82" cy="143" r="4"/>
	<circle cx="47" cy="187" r="4"/>
	<circle cx="22" cy="234" r="4"/>
	<circle cx="20" cy="279" r="4"/>
	<circle cx="24" cy="326" r="4"/>
	<circle cx="43" cy="373" r="4"/>
	<circle cx="70" cy="414" r="4"/>
	<circle cx="105" cy="446" r="4"/>
	<circle cx="150" cy="471" r="4"/>
	<circle cx="201" cy="485" r="4"/>
	<circle cx="247" cy="488" r="4"/>
	<circle cx="305" cy="485" r="4"/>
	<circle cx="352" cy="471" r="4"/>
	<circle cx="397" cy="446" r="4"/>
	<circle cx="435" cy="414" r="4"/>
	<circle cx="459" cy="378" r="4"/>
	<circle cx="474" cy="340" r="4"/>
	<circle cx="478" cy="284" r="4"/>
	<circle cx="471" cy="239" r="4"/>
	<circle cx="453" cy="202" r="4"/>
	<circle cx="425" cy="161" r="4"/>
	<circle cx="393" cy="130" r="4"/>
	<circle cx="350" cy="104" r="4"/>
	<circle cx="320" cy="77" r="4"/>
	<circle cx="299" cy="49" r="4"/>
</g>
</svg>
