<?xml version="1.0" encoding="utf-8"?>
<!-- Generator: Adobe Illustrator 22.1.0, SVG Export Plug-In . SVG Version: 6.00 Build 0)  -->
<svg version="1.1" id="Layer_1" xmlns="http://www.w3.org/2000/svg" xmlns:xlink="http://www.w3.org/1999/xlink" x="0px" y="0px"
	 viewBox="0 0 512 512" style="enable-background:new 0 0 512 512;" xml:space="preserve">
<style type="text/css">
	.st0{fill:none;stroke:#000000;stroke-width:5;stroke-linecap:round;stroke-linejoin:round;stroke-miterlimit:10;}
	.st1{opacity:0;}
</style>
<g>
	<g>
		<path class="st0" d="M442.7,238.2c0,77-37.5,160.4-91.5,199.7H215.9c-55.8-38.5-88.4-127.3-88.4-199.7c0-26.1,4.3-48.9,12-68.7
			l292.6,0.6C439,189.1,442.7,213.6,442.7,238.2z"/>
	</g>
	<g>
		<path class="st0" d="M466.8,80H119.4c-4.5,0-8.2-3.7-8.2-8.2c0-4.5,3.7-8.2,8.2-8.2h347.4c4.5,0,8.2,3.7,8.2,8.2
			C475,76.3,471.3,80,466.8,80z"/>
	</g>
	<g>
		<path class="st0" d="M56.3,100.8c0,4.3-3.5,7.9-7.9,7.9c-4.5,0-8-3.5-8-7.9v-6.1c0,4.5-3.5,8-7.9,8c-4.5,0-8-3.5-8-8V49.2
			c0-4.5,3.5-8,8-8c2.2,0,4.2,0.9,5.6,2.3c1.4,1.4,2.3,3.4,2.3,5.7v-6.1c0-4.5,3.5-7.9,8-7.9c2.2,0,4.2,0.9,5.7,2.3
			c1.4,1.4,2.3,3.4,2.3,5.7"/>
		<path class="st0" d="M56.5,43.1V28c0-4.5,3.5-8,8-8c2.2,0,4.2,0.9,5.7,2.3c1.4,1.4,2.3,3.4,2.3,5.7v15.1c0-4.5,3.5-7.9,8-7.9
			c2.2,0,4.2,0.9,5.6,2.3c1.4,1.4,2.3,3.4,2.3,5.7v6.1c0-4.5,3.5-8,7.9-8c2.2,0,4.2,0.9,5.7,2.3c1.4,1.4,2.3,3.4,2.3,5.7v45.4
			c0,4.5-3.5,8-8,8c-4.5,0-7.9-3.5-7.9-8v6.1c0,4.5-3.7,7.9-7.9,7.9c-4.5,0-8-3.5-8-7.9v14.9c0,4.5-3.5,8-7.9,8c-4.5,0-8-3.5-8-8
			v-14.9"/>
		<path class="st0" d="M47.7,108.7v22.6c0,5.5-4.5,9.8-10,9.8l0,0c-5.5,0-10-4.5-10-9.8v-30.2"/>
		<path class="st0" d="M72.4,118.9v34.8c0,6.7-5.5,12.4-12.4,12.4l0,0c-6.7,0-12.4-5.5-12.4-12.4v-44.2"/>
	</g>
</g>
<g class="st1">
	<circle cx="143.5" cy="98.5" r="3.5"/>
	<circle cx="118.5" cy="143.5" r="3.5"/>
	<circle cx="105.5" cy="196.5" r="3.5"/>
	<circle cx="104.5" cy="240.5" r="3.5"/>
	<circle cx="108.5" cy="285.5" r="3.5"/>
	<circle cx="120.5" cy="330.5" r="3.5"/>
	<circle cx="135.5" cy="364.5" r="3.5"/>
	<circle cx="158.5" cy="405.5" r="3.5"/>
	<circle cx="183.5" cy="437.5" r="3.5"/>
	<circle cx="202.5" cy="453.5" r="3.5"/>
	<circle cx="246.5" cy="455.5" r="3.5"/>
	<circle cx="291.5" cy="457.5" r="3.5"/>
	<circle cx="331.5" cy="457.5" r="3.5"/>
	<circle cx="361.5" cy="456.5" r="3.5"/>
	<circle cx="395.5" cy="425.5" r="3.5"/>
	<circle cx="422.5" cy="391.5" r="3.5"/>
	<circle cx="443.5" cy="350.5" r="3.5"/>
	<circle cx="458.5" cy="306.5" r="3.5"/>
	<circle cx="468.5" cy="262.5" r="3.5"/>
	<circle cx="468.5" cy="212.5" r="3.5"/>
	<circle cx="458.5" cy="166.5" r="3.5"/>
	<circle cx="443.5" cy="134.5" r="3.5"/>
	<circle cx="426.5" cy="98.5" r="3.5"/>
	<circle cx="379.3" cy="98.5" r="3.5"/>
	<circle cx="332.2" cy="98.5" r="3.5"/>
	<circle cx="285" cy="98.5" r="3.5"/>
	<circle cx="237.8" cy="98.5" r="3.5"/>
	<circle cx="190.7" cy="98.5" r="3.5"/>
</g>
</svg>
