<?xml version="1.0" encoding="utf-8"?>
<!-- Generator: Adobe Illustrator 22.1.0, SVG Export Plug-In . SVG Version: 6.00 Build 0)  -->
<svg version="1.1" id="Layer_1" xmlns="http://www.w3.org/2000/svg" xmlns:xlink="http://www.w3.org/1999/xlink" x="0px" y="0px"
	 viewBox="0 0 512 512" style="enable-background:new 0 0 512 512;" xml:space="preserve">
<style type="text/css">
	.st0{fill:none;stroke:#000000;stroke-width:5;stroke-linecap:round;stroke-linejoin:round;stroke-miterlimit:10;}
	.st1{opacity:5.000000e-02;}
	.st2{opacity:0;}
</style>
<g>
	<g>
		<path class="st0" d="M437.6,185.3c-50.9,19.2-107.9,25.5-161.3,25.5c-93.4,0-176.8-19.6-202.2-26.2c7.2-18.6,27.1-29.3,46.9-24.5
			c1.5,0.4,141.9,33.2,268.5,0.2C409.9,155.1,430.6,166,437.6,185.3z"/>
	</g>
	<g>
		<path class="st0" d="M51.6,262.5c-4.6-1.3-7.4-2-8.3-2.4c-21.4-6.3-33.6-28.8-27.3-50.2s28.8-33.6,50.2-27.3
			c0.2,0,3.1,0.9,7.9,2.2c25.3,6.5,108.7,26.2,202.2,26.2c53.5,0,110.5-6.5,161.3-25.5c1.3-0.4,2.8-1.1,4.1-1.5
			c20.7-8.1,44.3,2.2,52.4,22.9c8.3,20.5-2,43.9-22.7,52c-3.9,1.5-7.6,2.8-11.6,4.4"/>
	</g>
	<g class="st1">
		<path class="st0" d="M437.6,185.3c-50.9,19.2-107.9,25.5-161.3,25.5c-93.4,0-176.8-19.6-202.2-26.2c7.2-18.6,27.1-29.3,46.9-24.5
			c1.5,0.4,141.9,33.2,268.5,0.2C409.9,155.1,430.6,166,437.6,185.3z"/>
	</g>
</g>
<g class="st2">
	<circle cx="76.5" cy="228.5" r="3.5"/>
	<circle cx="52.5" cy="245.5" r="3.5"/>
	<circle cx="49.5" cy="276.5" r="3.5"/>
	<circle cx="70.5" cy="303.5" r="3.5"/>
	<circle cx="115.5" cy="314.5" r="3.5"/>
	<circle cx="166.5" cy="319.5" r="3.5"/>
	<circle cx="230.5" cy="324.5" r="3.5"/>
	<circle cx="293.5" cy="322.5" r="3.5"/>
	<circle cx="351.5" cy="320.5" r="3.5"/>
	<circle cx="399.5" cy="310.5" r="3.5"/>
	<circle cx="441.5" cy="299.5" r="3.5"/>
	<circle cx="458.5" cy="273.5" r="3.5"/>
	<circle cx="455.5" cy="241.5" r="3.5"/>
	<circle cx="428.5" cy="222.5" r="3.5"/>
	<circle cx="393.5" cy="230.5" r="3.5"/>
	<circle cx="351.5" cy="239.5" r="3.5"/>
	<circle cx="296.5" cy="245.5" r="3.5"/>
	<circle cx="246.5" cy="246.5" r="3.5"/>
	<circle cx="192.5" cy="241.5" r="3.5"/>
	<circle cx="157.5" cy="239.5" r="3.5"/>
	<circle cx="118.5" cy="231.5" r="3.5"/>
</g>
</svg>
