<?xml version="1.0" encoding="utf-8"?>
<!-- Generator: Adobe Illustrator 22.1.0, SVG Export Plug-In . SVG Version: 6.00 Build 0)  -->
<svg version="1.1" id="Layer_1" xmlns="http://www.w3.org/2000/svg" xmlns:xlink="http://www.w3.org/1999/xlink" x="0px" y="0px"
	 viewBox="0 0 512 512" style="enable-background:new 0 0 512 512;" xml:space="preserve">
<style type="text/css">
	.st0{fill:none;stroke:#000000;stroke-width:5;stroke-linecap:round;stroke-linejoin:round;stroke-miterlimit:10;}
	.st1{opacity:0;}
</style>
<g>
	<path class="st0" d="M256.8,254.8l52.7,225.3c1.5,6.5-2.5,13.1-9,14.6c-6.3,1.5-13.1-2.5-14.4-9l-52.1-223.4"/>
	<g>
		
			<rect x="97.9" y="115.9" transform="matrix(0.9738 -0.2275 0.2275 0.9738 -26.9471 52.9321)" class="st0" width="236.5" height="55"/>
	</g>
</g>
<g class="st1">
	<circle cx="153.5" cy="51.5" r="3.5"/>
	<circle cx="125.5" cy="82.5" r="3.5"/>
	<circle cx="108.5" cy="114.5" r="3.5"/>
	<circle cx="114.5" cy="161.5" r="3.5"/>
	<circle cx="129.5" cy="205.5" r="3.5"/>
	<circle cx="162.5" cy="233.5" r="3.5"/>
	<circle cx="200.5" cy="245.5" r="3.5"/>
	<circle cx="245.5" cy="243.5" r="3.5"/>
	<circle cx="283.5" cy="225.5" r="3.5"/>
	<circle cx="311.5" cy="196.5" r="3.5"/>
	<circle cx="329.5" cy="161.5" r="3.5"/>
	<circle cx="321.5" cy="117.5" r="3.5"/>
	<circle cx="302.5" cy="69.5" r="3.5"/>
	<circle cx="280.5" cy="47.5" r="3.5"/>
	<circle cx="245.5" cy="33.5" r="3.5"/>
	<circle cx="200.5" cy="34.5" r="3.5"/>
</g>
</svg>
