<?xml version="1.0" encoding="utf-8"?>
<!-- Generator: Adobe Illustrator 22.1.0, SVG Export Plug-In . SVG Version: 6.00 Build 0)  -->
<svg version="1.1" id="Layer_1" xmlns="http://www.w3.org/2000/svg" xmlns:xlink="http://www.w3.org/1999/xlink" x="0px" y="0px"
	 viewBox="0 0 512 512" style="enable-background:new 0 0 512 512;" xml:space="preserve">
<style type="text/css">
	.st0{fill:none;stroke:#000000;stroke-width:5;stroke-linecap:round;stroke-linejoin:round;stroke-miterlimit:10;}
	.st1{opacity:0;}
</style>
<g>
	<path class="st0" d="M208,83C208,83.2,208,83.2,208,83c29.7,32.9,30.5,95.2-1.2,151.2c-31.5,55.8-84.9,87.3-128.1,79.3l0,0"/>
	<path class="st0" d="M336.1,277.7l60.4,32.1c5.4-20.7,24.3-36.1,46.8-36.1c26.7,0,48.4,21.7,48.4,48.4c0,22.5-15.3,41.4-36.1,46.8
		c1.8,5,2.6,10.2,2.6,15.7c0,26.7-21.7,48.4-48.4,48.4c-26.7,0-48.4-21.7-48.4-48.4c0-11.2,3.8-21.3,10.2-29.7l-59.2-31.5"/>
	
		<ellipse transform="matrix(0.4918 -0.8707 0.8707 0.4918 -93.8028 196.3712)" class="st0" cx="121.3" cy="178.5" rx="23.7" ry="14.5"/>
</g>
<g class="st1">
	<circle cx="90.5" cy="77.5" r="3.5"/>
	<circle cx="57.5" cy="113.5" r="3.5"/>
	<circle cx="35.5" cy="150.5" r="3.5"/>
	<circle cx="22.5" cy="188.5" r="3.5"/>
	<circle cx="12.5" cy="241.5" r="3.5"/>
	<circle cx="28.5" cy="281.5" r="3.5"/>
	<circle cx="53.5" cy="307.5" r="3.5"/>
	<circle cx="108.5" cy="324.5" r="3.5"/>
	<circle cx="146.5" cy="332.5" r="3.5"/>
	<circle cx="187.5" cy="340.5" r="3.5"/>
	<circle cx="233.5" cy="342.5" r="3.5"/>
	<circle cx="276.5" cy="338.5" r="3.5"/>
	<circle cx="307.5" cy="332.5" r="3.5"/>
	<circle cx="336.5" cy="302.5" r="3.5"/>
	<circle cx="339.5" cy="257.5" r="3.5"/>
	<circle cx="326.5" cy="223.5" r="3.5"/>
	<circle cx="307.5" cy="188.5" r="3.5"/>
	<circle cx="284.5" cy="156.5" r="3.5"/>
	<circle cx="259.5" cy="130.5" r="3.5"/>
	<circle cx="236.5" cy="103.5" r="3.5"/>
	<circle cx="198.5" cy="72.5" r="3.5"/>
	<circle cx="169.5" cy="59.5" r="3.5"/>
	<circle cx="129.5" cy="61.5" r="3.5"/>
</g>
</svg>
