<?xml version="1.0" encoding="utf-8"?>
<!-- Generator: Adobe Illustrator 22.1.0, SVG Export Plug-In . SVG Version: 6.00 Build 0)  -->
<svg version="1.1" id="Layer_1" xmlns="http://www.w3.org/2000/svg" xmlns:xlink="http://www.w3.org/1999/xlink" x="0px" y="0px"
	 viewBox="0 0 512 512" style="enable-background:new 0 0 512 512;" xml:space="preserve">
<style type="text/css">
	.st0{fill:none;stroke:#000000;stroke-width:5;stroke-linecap:round;stroke-linejoin:round;stroke-miterlimit:10;}
	.st1{opacity:0;}
</style>
<g>
	<path class="st0" d="M424.6,96.2L424.6,96.2c1.7-1.3,3.2-2.8,4.5-4.1c0.2-0.2,0.2-0.2,0.4-0.4l0,0c0.4-1.1,1.3-2.1,2.4-3.2
		c1.3-2.4,2.1-4.7,2.1-7.1c0-0.4,0-0.9,0-1.5c0-0.9-0.2-1.5-0.4-2.1c-0.2-0.4-0.2-1.1-0.6-1.5c0-0.4-0.2-0.6-0.4-1.1
		c-0.6-1.3-1.3-2.4-2.4-3.6c-0.2-0.4-0.6-0.9-1.1-1.1c-0.9-0.9-1.7-1.7-2.6-2.6c-0.4-0.4-0.6-0.6-1.1-0.9c-0.4-0.4-0.9-0.9-1.5-1.1
		c-2.6-1.9-5.6-3.9-9.2-5.6c-0.6-0.2-1.1-0.6-1.7-0.9c-0.6-0.4-1.5-0.6-2.1-1.1c-3.4-1.5-7.1-3.2-11.1-4.5c-0.9-0.4-1.7-0.6-2.6-0.9
		c-2.8-0.9-5.6-1.9-8.6-2.8c-0.9-0.2-1.7-0.6-2.8-0.9c-1.1-0.2-1.9-0.6-3-0.9c-1.1-0.2-2.1-0.6-3.2-0.9c-1.1-0.2-2.1-0.6-3.2-0.9
		c-1.1-0.2-2.1-0.6-3.2-0.9c-1.1-0.2-2.1-0.4-3.4-0.9c-1.1-0.2-2.1-0.4-3.4-0.9c-1.1-0.2-2.4-0.4-3.4-0.6c-1.1-0.2-2.4-0.4-3.4-0.6
		c-1.3-0.2-2.4-0.4-3.6-0.6c-1.3-0.2-2.4-0.4-3.6-0.6c-9.6-1.7-19.7-3.2-30.6-4.5c-1.5-0.2-2.8-0.4-4.3-0.4
		c-1.5-0.2-2.8-0.2-4.3-0.4c-1.5-0.2-3-0.2-4.3-0.4c-0.2,0-0.6,0-0.9,0c-2.6-0.2-5.4-0.4-7.9-0.6c-1.5-0.2-3-0.2-4.5-0.4
		c-1.5-0.2-3-0.2-4.5-0.2c-1.5,0-3-0.2-4.7-0.2c-1.1,0-2.4-0.2-3.4-0.2c-11.3-0.6-22.9-0.9-34.7-1.1c-1.7,0-3.2,0-4.9,0
		s-3.2,0-4.9,0c-2.1,0-4.1,0-6,0c-1.3,0-2.4,0-3.6,0c-2.1,0-4.3,0-6.4,0.2c-2.6,0-5.4,0.2-7.9,0.2c-1.3,0-2.6,0-3.9,0.2
		c-0.9,0-1.9,0-2.8,0.2c-3.4,0.2-6.6,0.4-9.9,0.6c-0.9,0-1.9,0.2-2.8,0.2c-5.1,0.4-10.3,0.6-15.2,1.1c-1.1,0-2.4,0.2-3.4,0.4
		c-6,0.6-12,1.3-17.8,1.9c-1.1,0.2-2.4,0.2-3.4,0.4c-5.8,0.6-11.1,1.5-16.5,2.6c-3.2,0.6-6.4,1.1-9.4,1.7c-2.1,0.4-4.1,0.9-6,1.3
		c-1.1,0.2-1.9,0.4-3,0.6c-1.1,0.2-1.9,0.4-3,0.6c-1.9,0.4-3.9,0.9-5.6,1.3c-0.9,0.2-1.9,0.4-2.8,0.6c-0.9,0.2-1.7,0.4-2.8,0.6
		c-4.5,1.1-8.6,2.4-12.6,3.6c-0.9,0.2-1.5,0.4-2.4,0.9c-0.9,0.2-1.5,0.4-2.4,0.9c-0.6,0.2-1.5,0.4-2.1,0.9c-4.1,1.5-7.9,3-11.3,4.7
		c-0.6,0.2-1.1,0.4-1.7,0.9c-6.2,3-11.1,6.2-14.8,9.6c-0.4,0.4-0.6,0.6-1.1,1.1c-2.8,1.9-4.7,3.9-5.6,5.6c-0.9,1.7-0.9,3.6,0,5.8
		c0,0.2,0,0.2,0,0.4c0,0.4,0,0.6,0,1.1c0,0,0,0.2,0,0.4"/>
	<path class="st0" d="M327.4,57c-30.7,0-55.6,9.4-55.6,20.9s24.9,20.9,55.6,20.9S383,89.4,383,77.9S358.1,57,327.4,57z"/>
	<path class="st0" d="M433.8,382.9c10.1,7.3,16.5,15.4,17.8,24l0,0l0,0L452,435c0,37.5-93.6,68.1-209,68.1S34,472.7,34,435v-24.2
		c0-9.9,6.4-19.3,18.2-27.8"/>
	<path class="st0" d="M424.4,96.2L424.4,96.2c-24.8,19.5-96.8,33.4-181.6,33.4c-91.2,0-167.5-16.3-186.3-37.9l0,0
		c-0.2-0.2-0.4-0.4-0.6-0.6c-2.1-2.8-3.4-5.6-3.9-8.4 M433.6,118.3c11.8-7.5,18.2-15.6,18.2-24.4L451.6,69c0.2,0,0,0,0,0l0,0
		c-1.7-9.2-10.7-17.8-25.3-25.3l0,0C390.8,25.1,322,14.2,243,14.2c-77.7,0-145.6,10.7-181.6,28.7l0,0l0,0
		c-17.6,8.8-27.6,18.8-27.6,29.8v21.2c0,8.8,6.4,16.9,18.2,24.4"/>
</g>
<g class="st1">
	<circle cx="52.2" cy="133.5" r="3.5"/>
	<circle cx="52.2" cy="180.5" r="3.5"/>
	<circle cx="52.2" cy="227.5" r="3.5"/>
	<circle cx="52.2" cy="274.5" r="3.5"/>
	<circle cx="52.2" cy="321.5" r="3.5"/>
	<circle cx="52.2" cy="368.5" r="3.5"/>
	<circle cx="52.2" cy="415.5" r="3.5"/>
	<circle cx="80.5" cy="445.5" r="3.5"/>
	<circle cx="133.5" cy="463.5" r="3.5"/>
	<circle cx="200.5" cy="478.5" r="3.5"/>
	<circle cx="263.5" cy="479.5" r="3.5"/>
	<circle cx="326.5" cy="474.5" r="3.5"/>
	<circle cx="388.5" cy="460.5" r="3.5"/>
	<circle cx="432.5" cy="422.5" r="3.5"/>
	<circle cx="432.5" cy="372.5" r="3.5"/>
	<circle cx="432.5" cy="332.2" r="3.5"/>
	<circle cx="432.5" cy="283" r="3.5"/>
	<circle cx="432.5" cy="233.8" r="3.5"/>
	<circle cx="432.5" cy="184.7" r="3.5"/>
	<circle cx="432.5" cy="135.5" r="3.5"/>
	<circle cx="384.5" cy="150.5" r="3.5"/>
	<circle cx="319.5" cy="156.5" r="3.5"/>
	<circle cx="240.5" cy="158.5" r="3.5"/>
	<circle cx="162.5" cy="152.5" r="3.5"/>
	<circle cx="104.5" cy="144.5" r="3.5"/>
</g>
</svg>
