<?xml version="1.0" encoding="utf-8"?>
<!-- Generator: Adobe Illustrator 22.1.0, SVG Export Plug-In . SVG Version: 6.00 Build 0)  -->
<svg version="1.1" id="Layer_1" xmlns="http://www.w3.org/2000/svg" xmlns:xlink="http://www.w3.org/1999/xlink" x="0px" y="0px"
	 viewBox="0 0 512 512" style="enable-background:new 0 0 512 512;" xml:space="preserve">
<style type="text/css">
	.st0{fill:none;stroke:#000000;stroke-width:5;stroke-linecap:round;stroke-linejoin:round;stroke-miterlimit:10;}
	.st1{opacity:0;}
</style>
<g>
	<path class="st0" d="M284.2,80.1h-78.9c-4.9,0-8.8-3.9-8.8-8.8V49.5c0-4.9,3.9-8.8,8.8-8.8h78.9c4.9,0,8.8,3.9,8.8,8.8v21.9
		C293,76.3,289.1,80.1,284.2,80.1z"/>
	<g>
		<path class="st0" d="M293,139.6L293,139.6h-96.5c-0.2,0-0.2,0-0.4,0"/>
	</g>
	<path class="st0" d="M169.7,210.9h149.8"/>
</g>
<g class="st1">
	<circle cx="199.5" cy="93.5" r="3.5"/>
	<circle cx="199.5" cy="125.5" r="3.5"/>
	<circle cx="189.5" cy="161.5" r="3.5"/>
	<circle cx="174.5" cy="191.5" r="3.5"/>
	<circle cx="166.5" cy="224.5" r="3.5"/>
	<circle cx="166.5" cy="268.5" r="3.5"/>
	<circle cx="166.5" cy="312.5" r="3.5"/>
	<circle cx="166.5" cy="356.5" r="3.5"/>
	<circle cx="166.5" cy="400.5" r="3.5"/>
	<circle cx="166.5" cy="444.5" r="3.5"/>
	<circle cx="166.5" cy="488.5" r="3.5"/>
	<circle cx="205.8" cy="488.5" r="3.5"/>
	<circle cx="245" cy="488.5" r="3.5"/>
	<circle cx="284.3" cy="488.5" r="3.5"/>
	<circle cx="323.5" cy="488.5" r="3.5"/>
	<circle cx="323.5" cy="444.5" r="3.5"/>
	<circle cx="323.5" cy="400.5" r="3.5"/>
	<circle cx="323.5" cy="356.5" r="3.5"/>
	<circle cx="323.5" cy="312.5" r="3.5"/>
	<circle cx="323.5" cy="268.5" r="3.5"/>
	<circle cx="323.5" cy="224.5" r="3.5"/>
	<circle cx="314.5" cy="196.5" r="3.5"/>
	<circle cx="297.5" cy="157.5" r="3.5"/>
	<circle cx="288.5" cy="125.5" r="3.5"/>
	<circle cx="286.5" cy="90.5" r="3.5"/>
	<circle cx="255.5" cy="90.5" r="3.5"/>
	<circle cx="225.5" cy="90.5" r="3.5"/>
</g>
</svg>
