<?xml version="1.0" encoding="utf-8"?>
<!-- Generator: Adobe Illustrator 22.1.0, SVG Export Plug-In . SVG Version: 6.00 Build 0)  -->
<svg version="1.1" id="Layer_1" xmlns="http://www.w3.org/2000/svg" xmlns:xlink="http://www.w3.org/1999/xlink" x="0px" y="0px"
	 viewBox="0 0 512 512" style="enable-background:new 0 0 512 512;" xml:space="preserve">
<style type="text/css">
	.st0{fill:none;stroke:#000000;stroke-width:5;stroke-linecap:round;stroke-linejoin:round;stroke-miterlimit:10;}
	.st1{opacity:0;}
</style>
<g>
	<g>
		<path class="st0" d="M446.4,35.8l-58.7,21.8l-30.3,39.7l-25,32.9h-17.7l25-32.9l37.9-50c0.8-1,2-1.8,3.2-2.4l60.7-22.4
			c3.6-1.4,7.7,0.6,9.1,4.2C451.8,30.3,450,34.4,446.4,35.8z"/>
	</g>
	<g>
		<path class="st0" d="M313.4,480.6c0,4.4-3.6,8.1-8.1,8.1h-97.8c-4.4,0-8.1-3.6-8.1-8.1c0-4.4,3.6-8.1,8.1-8.1h40.9V263.2h16.1
			v209.3h40.7C309.8,472.6,313.4,476.2,313.4,480.6z"/>
	</g>
	<line class="st0" x1="354.1" y1="130.1" x2="159.5" y2="130.1"/>
</g>
<g class="st1">
	<circle cx="87.5" cy="95.5" r="3.5"/>
	<circle cx="98.5" cy="132.5" r="3.5"/>
	<circle cx="116.5" cy="158.5" r="3.5"/>
	<circle cx="142.5" cy="180.5" r="3.5"/>
	<circle cx="175.5" cy="195.5" r="3.5"/>
	<circle cx="180.5" cy="223.5" r="3.5"/>
	<circle cx="199.5" cy="247.5" r="3.5"/>
	<circle cx="229.5" cy="263.5" r="3.5"/>
	<circle cx="277.5" cy="267.5" r="3.5"/>
	<circle cx="305.5" cy="259.5" r="3.5"/>
	<circle cx="329.5" cy="242.5" r="3.5"/>
	<circle cx="340.5" cy="220.5" r="3.5"/>
	<circle cx="340.5" cy="194.5" r="3.5"/>
	<circle cx="372.5" cy="185.5" r="3.5"/>
	<circle cx="404.5" cy="162.5" r="3.5"/>
	<circle cx="424.5" cy="130.5" r="3.5"/>
	<circle cx="424.5" cy="95.5" r="3.5"/>
	<circle cx="376.4" cy="95.5" r="3.5"/>
	<circle cx="323.2" cy="95.5" r="3.5"/>
	<circle cx="280.1" cy="95.5" r="3.5"/>
	<circle cx="231.9" cy="95.5" r="3.5"/>
	<circle cx="183.8" cy="95.5" r="3.5"/>
	<circle cx="135.6" cy="95.5" r="3.5"/>
</g>
</svg>
