<?xml version="1.0" encoding="utf-8"?>
<!-- Generator: Adobe Illustrator 22.1.0, SVG Export Plug-In . SVG Version: 6.00 Build 0)  -->
<svg version="1.1" id="Layer_1" xmlns="http://www.w3.org/2000/svg" xmlns:xlink="http://www.w3.org/1999/xlink" x="0px" y="0px"
	 viewBox="0 0 512 512" style="enable-background:new 0 0 512 512;" xml:space="preserve">
<style type="text/css">
	.st0{fill:none;stroke:#000000;stroke-width:5;stroke-linecap:round;stroke-linejoin:round;stroke-miterlimit:10;}
	.st1{opacity:0;}
</style>
<g>
	<g>
		<path class="st0" d="M417.7,327c0,62.9-53.7,116.4-129.2,137.1H148.2C72.7,443.4,19,389.9,19,327h309.7v67.4
			c0,3.9,3.3,7.3,7.3,7.3s7.3-3.3,7.3-7.3v-13.9c0,3.9,5.8,7.3,9.8,7.3c3.9,0,7.3-3.3,7.3-7.3V327H417.7z"/>
		<g>
			<path class="st0" d="M303,473.5c0,5.2-4.1,9.3-9.3,9.3H143.3c-5.2,0-9.3-4.1-9.3-9.3s4.1-9.3,9.3-9.3h150.4
				C298.8,464.1,303,468.3,303,473.5z"/>
		</g>
	</g>
	<g>
		<path class="st0" d="M144.5,96.1c0,0.6-0.2,1-0.2,1.7v17.4l-13.3,3.1l-4.1-18.3L144.5,96.1z"/>
		<path class="st0" d="M161.7,92c-0.2,0.6-0.2,1.5-0.2,2.1v3.5c0-1.9-0.6-3.7-1.9-5.2L161.7,92z"/>
		<path class="st0" d="M179.8,88c-0.6,1.2-1,2.5-1,3.9v15.4l-0.6,0.2V94.3c0-2.1-0.8-3.9-2.1-5.4L179.8,88z"/>
		<path class="st0" d="M195.3,103.6V92c0-2.3-1-4.4-2.5-5.8c-0.4-0.4-0.6-0.6-1-0.8l294.6-67.4l4.1,18.3L195.3,103.6z"/>
		<polygon class="st0" points="128.9,121.6 144.3,121.4 144.3,140.1 129.2,140.3 		"/>
		<rect x="178.1" y="121" class="st0" width="0.6" height="18.7"/>
		<polygon class="st0" points="498,135.5 195.3,139.5 195.3,120.8 497.8,117.1 		"/>
		<path class="st0" d="M161.5,97.8v90.7c0,4.6-3.7,8.3-8.3,8.3h-0.6c-4.6,0-8.3-3.7-8.3-8.3V97.8c0-0.6,0-1.2,0.2-1.7
			c0.8-3.7,4.1-6.6,8.1-6.6h0.6c2.7,0,5,1.2,6.4,3.1C160.9,94.1,161.5,95.7,161.5,97.8z"/>
		<path class="st0" d="M178.1,94.3v159.3c0,4.6-3.7,8.3-8.3,8.3s-8.3-3.7-8.3-8.3V94.3c0-0.8,0-1.5,0.2-2.1c1-3.5,4.1-6.2,8.1-6.2
			c2.3,0,4.4,1,5.8,2.5c0.2,0.2,0.2,0.4,0.4,0.4C177.3,90.3,178.1,92.2,178.1,94.3z"/>
		<path class="st0" d="M195.3,92v140.4c0,4.6-3.7,8.3-8.3,8.3s-8.3-3.7-8.3-8.3V92c0-1.5,0.4-2.7,1-3.9l0,0c1.5-2.7,4.1-4.4,7.3-4.4
			c1.9,0,3.5,0.6,4.8,1.7l0,0c0.4,0.2,0.6,0.6,1,0.8C194.5,87.6,195.3,89.7,195.3,92z"/>
	</g>
</g>
<g class="st1">
	<circle cx="45.5" cy="314.5" r="3.5"/>
	<circle cx="71.5" cy="289.5" r="3.5"/>
	<circle cx="106.5" cy="280.5" r="3.5"/>
	<circle cx="147.5" cy="288.5" r="3.5"/>
	<circle cx="167.5" cy="276.5" r="3.5"/>
	<circle cx="195.5" cy="267.5" r="3.5"/>
	<circle cx="234.5" cy="268.5" r="3.5"/>
	<circle cx="255.5" cy="280.5" r="3.5"/>
	<circle cx="272.5" cy="305.5" r="3.5"/>
	<circle cx="296.5" cy="285.5" r="3.5"/>
	<circle cx="336.5" cy="276.5" r="3.5"/>
	<circle cx="371.5" cy="280.5" r="3.5"/>
	<circle cx="396.5" cy="295.5" r="3.5"/>
	<circle cx="405.5" cy="317.5" r="3.5"/>
</g>
</svg>
