<?xml version="1.0" encoding="utf-8"?>
<!-- Generator: Adobe Illustrator 22.1.0, SVG Export Plug-In . SVG Version: 6.00 Build 0)  -->
<svg version="1.1" id="Layer_1" xmlns="http://www.w3.org/2000/svg" xmlns:xlink="http://www.w3.org/1999/xlink" x="0px" y="0px"
	 viewBox="0 0 512 512" style="enable-background:new 0 0 512 512;" xml:space="preserve">
<style type="text/css">
	.st0{fill:none;stroke:#000000;stroke-width:5;stroke-linecap:round;stroke-linejoin:round;stroke-miterlimit:10;}
	.st1{opacity:0.1;}
	.st2{opacity:0;}
</style>
<g>
	<path class="st0" d="M387,166H56.1l119.5-91.8c2.1-1.7,3.7-3.7,5-5.8l163.8,51.8c-3.3,4-5.4,9.2-5.4,14.8
		c0,12.7,10.2,22.9,22.9,22.9c2.9,0,5.6-0.6,8.3-1.7C373.3,162.1,379.7,166,387,166z"/>
	<path class="st0" d="M489,166H387c10.8,0,19.6-8.7,19.6-19.6c0-0.6,0-1.5,0-2.1l0,0c1.2-1,2.5-2.1,3.5-3.3L489,166z"/>
	<path class="st0" d="M406.6,144.2v2.1c0,10.8-8.7,19.6-19.6,19.6c-7.3,0-13.7-4-17.1-10c-1.7-2.9-2.7-6.2-2.7-9.8
		c0-6.7,3.3-12.5,8.3-16v-0.2h0.4l0.4,0.2c2.1-1.2,4.4-2.3,6.9-2.9c1.2-0.2,2.5-0.4,4-0.4c8.5,0,15.6,5.4,18.5,12.9c0,0,0,0.2,0,0.4
		C406,141.3,406.4,142.7,406.6,144.2z"/>
	<path class="st0" d="M406.6,144v0.2c-0.2-1.5-0.6-2.9-0.8-4.2C406.2,141.3,406.4,142.5,406.6,144z"/>
	<g>
		<path class="st0" d="M180.6,68.2c-1.2,2.3-2.9,4.2-5,5.8L56.1,166l-7.7,5.8c-3.3,2.7-7.5,4-11.4,4c-5.6,0-11.2-2.5-14.8-7.3
			c-6.2-8.1-4.8-20,3.5-26.2l127-97.8c8.1-6.2,20-4.8,26.2,3.5C183.5,53.9,183.9,62,180.6,68.2z"/>
	</g>
	<path class="st0" d="M414.7,128.2c0,4.8-1.9,9.4-4.8,12.7c-1,1.2-2.3,2.3-3.5,3.3c-0.2-1.7-0.6-3.1-1-4.8
		c-2.7-7.5-10-12.9-18.5-12.9c-1.2,0-2.7,0.2-4,0.4c-1-3.1-2.9-5.8-5.2-8.3c3.3-6,9.8-10.2,17.3-10.2
		C406,108.6,414.7,117.3,414.7,128.2z"/>
	<path class="st0" d="M375.8,130h-0.4v0.2c-5,3.5-8.3,9.4-8.3,16c0,3.5,0.8,6.9,2.7,9.8c-2.5,1-5.4,1.7-8.3,1.7
		c-12.7,0-22.9-10.2-22.9-22.9c0-5.6,2.1-10.6,5.4-14.8c4.2-5,10.4-8.1,17.5-8.1c6.2,0,12.1,2.7,16.2,6.9c2.3,2.3,4.2,5.2,5.2,8.3
		C380.4,127.5,378.1,128.6,375.8,130z"/>
	<g class="st1">
		<path class="st0" d="M180.6,68.2c-1.2,2.3-2.9,4.2-5,5.8L56.1,166l-7.7,5.8c-3.3,2.7-7.5,4-11.4,4c-3.1,0-6.2-0.8-8.9-2.3
			c-2.3-1.2-4.2-2.9-5.8-5c-6.2-8.1-4.8-20,3.5-26.2l127-97.8c8.1-6.2,20-4.8,26.2,3.5C183.5,53.9,183.9,62,180.6,68.2z"/>
	</g>
	<g>
		<line class="st0" x1="481" y1="329" x2="64" y2="329"/>
		<line class="st0" x1="64" y1="249.1" x2="481" y2="249.1"/>
		<path class="st0" d="M481,249.1H64"/>
		<line class="st0" x1="64" y1="328.8" x2="481" y2="328.8"/>
	</g>
</g>
<g class="st2">
	<circle cx="56.5" cy="180.5" r="3.5"/>
	<circle cx="56.5" cy="226.3" r="3.5"/>
	<circle cx="56.5" cy="272.1" r="3.5"/>
	<circle cx="56.5" cy="317.9" r="3.5"/>
	<circle cx="56.5" cy="363.7" r="3.5"/>
	<circle cx="56.5" cy="411.8" r="3.5"/>
	<circle cx="104.6" cy="411.8" r="3.5"/>
	<circle cx="152.7" cy="411.8" r="3.5"/>
	<circle cx="200.8" cy="411.8" r="3.5"/>
	<circle cx="248.9" cy="411.8" r="3.5"/>
	<circle cx="297.1" cy="411.8" r="3.5"/>
	<circle cx="345.2" cy="411.8" r="3.5"/>
	<circle cx="393.3" cy="411.8" r="3.5"/>
	<circle cx="441.4" cy="411.8" r="3.5"/>
	<circle cx="489.5" cy="411.8" r="3.5"/>
	<circle cx="489.5" cy="364.5" r="3.5"/>
	<circle cx="489.5" cy="318.5" r="3.5"/>
	<circle cx="489.5" cy="272.5" r="3.5"/>
	<circle cx="489.5" cy="226.5" r="3.5"/>
	<circle cx="489.5" cy="180.5" r="3.5"/>
	<circle cx="435.4" cy="180.5" r="3.5"/>
	<circle cx="381.3" cy="180.5" r="3.5"/>
	<circle cx="327.1" cy="180.5" r="3.5"/>
	<circle cx="273" cy="180.5" r="3.5"/>
	<circle cx="218.9" cy="180.5" r="3.5"/>
	<circle cx="164.8" cy="180.5" r="3.5"/>
	<circle cx="110.6" cy="180.5" r="3.5"/>
</g>
</svg>
