<?xml version="1.0" encoding="utf-8"?>
<!-- Generator: Adobe Illustrator 22.1.0, SVG Export Plug-In . SVG Version: 6.00 Build 0)  -->
<svg version="1.1" id="Layer_1" xmlns="http://www.w3.org/2000/svg" xmlns:xlink="http://www.w3.org/1999/xlink" x="0px" y="0px"
	 viewBox="0 0 512 512" style="enable-background:new 0 0 512 512;" xml:space="preserve">
<style type="text/css">
	.st0{fill:none;stroke:#000000;stroke-width:5;stroke-linecap:round;stroke-linejoin:round;stroke-miterlimit:10;}
	.st1{opacity:0;}
</style>
<g>
	<g>
		<path class="st0" d="M214.4,80.5c-14-6.9-19.7-23.8-12.8-37.8s23.8-19.7,37.8-12.8c3.9,2,94.8,47.2,154.1,102.7
			c74.2,69.5,114,152.1,115.7,155.5c6.6,14.3,0.7,31.2-13.3,37.8c-3.9,2-8.1,2.7-12,2.7c-8.4,0-16.5-3.7-21.9-10.3"/>
	</g>
	<circle class="st0" cx="349.1" cy="282.5" r="31.9"/>
	<path class="st0" d="M193.9,155.4c4.7-1.5,9.3-2.5,14.5-2.5c25.1,0,45.5,20.4,45.5,45.5s-20.4,45.5-45.5,45.5
		c-18.2,0-33.9-10.6-41-26"/>
	<circle class="st0" cx="116.9" cy="404.1" r="30.7"/>
	<path class="st0" d="M226,401.2c-8.1-7.9-13.3-18.9-13.3-31.2c0-23.8,19.2-43,43-43c23.8,0,42.8,19.4,42.8,43.2c0,0.7,0,1.5,0,2.2"
		/>
</g>
<g class="st1">
	<circle cx="210.5" cy="90.5" r="3.5"/>
	<circle cx="190.5" cy="135.1" r="3.5"/>
	<circle cx="170.5" cy="179.6" r="3.5"/>
	<circle cx="150.5" cy="224.2" r="3.5"/>
	<circle cx="130.5" cy="268.7" r="3.5"/>
	<circle cx="110.5" cy="313.3" r="3.5"/>
	<circle cx="90.5" cy="357.8" r="3.5"/>
	<circle cx="70.5" cy="402.4" r="3.5"/>
	<circle cx="50.5" cy="446.9" r="3.5"/>
	<circle cx="30.5" cy="491.5" r="3.5"/>
	<circle cx="72.5" cy="475.2" r="3.5"/>
	<circle cx="114.5" cy="458.9" r="3.5"/>
	<circle cx="156.5" cy="442.6" r="3.5"/>
	<circle cx="198.5" cy="426.3" r="3.5"/>
	<circle cx="240.5" cy="410" r="3.5"/>
	<circle cx="282.5" cy="393.7" r="3.5"/>
	<circle cx="324.5" cy="377.4" r="3.5"/>
	<circle cx="366.5" cy="361.1" r="3.5"/>
	<circle cx="408.5" cy="344.8" r="3.5"/>
	<circle cx="450.5" cy="328.5" r="3.5"/>
	<circle cx="436.5" cy="288.5" r="3.5"/>
	<circle cx="406.5" cy="250.5" r="3.5"/>
	<circle cx="375.5" cy="216.5" r="3.5"/>
	<circle cx="341.5" cy="184.5" r="3.5"/>
	<circle cx="307.5" cy="156.5" r="3.5"/>
	<circle cx="272.5" cy="127.5" r="3.5"/>
	<circle cx="236.5" cy="105.5" r="3.5"/>
</g>
</svg>
