<?xml version="1.0" encoding="utf-8"?>
<!-- Generator: Adobe Illustrator 22.1.0, SVG Export Plug-In . SVG Version: 6.00 Build 0)  -->
<svg version="1.1" id="Layer_1" xmlns="http://www.w3.org/2000/svg" xmlns:xlink="http://www.w3.org/1999/xlink" x="0px" y="0px"
	 viewBox="0 0 512 512" style="enable-background:new 0 0 512 512;" xml:space="preserve">
<style type="text/css">
	.st0{fill:none;stroke:#000000;stroke-width:5;stroke-linecap:round;stroke-linejoin:round;stroke-miterlimit:10;}
	.st1{opacity:0;}
</style>
<g>
	<g>
		<path class="st0" d="M379.1,111.4c4.2-1.8,7.3-6,7.3-10.8c0-6.4-5.3-11.7-11.7-11.7c-3.5,0-6.9,1.5-8.9,4.2
			c-1.3-0.7-2.9-0.9-4.4-0.9c-0.9,0-1.5,0-2.4,0.2c-2-4.2-5.3-7.5-9.5-9.3c5.5-3.5,9.3-9.7,9.3-17S355,52.3,349,48.8
			c1.3-5.1,6-8.9,11.7-8.9c4.4,0,8.4,2.4,10.6,6.2c2.7-1.5,5.5-2.2,8.6-2.2c9.7,0,17.5,7.7,17.5,17.5c0,1.3-0.2,2.9-0.4,4
			c3.8,0.4,7.1,2.9,8.9,6.2c2.4-1.5,5.5-2.2,8.6-2.2c9.7,0,17.5,7.7,17.5,17.5c-0.4,6-3.8,11.3-8.6,14.4c3.1,3.5,5.1,8.2,5.1,13.3"
			/>
		<path class="st0" d="M302.1,112.1c-1.3-2.4-2-5.3-2-8.4c0-8.9,6.6-16.2,15.3-17.3c0-0.2-0.2-0.2-0.2-0.4
			c-9.5,0-17.3-7.7-17.3-17.5c0-9.5,7.7-17.5,17.5-17.5c2.7,0,5.3,0.7,7.5,1.8c3.8-4.4,9.3-7.3,15.5-7.3c2.2,0,4.4,0.4,6.6,1.1
			c-2.2-7.1-8.9-12.4-16.6-12.4c-3.1,0-6.2,0.9-8.6,2.2c-2-3.8-6-6.2-10.6-6.2c-5.5,0-10.4,3.8-11.7,9.1H297c-0.7,0-1.5,0-2.2,0.2
			c0.7-1.8,0.9-3.8,0.9-5.8c0-9.5-7.7-17.5-17.3-17.5c-2.2-5.3-7.5-9.1-13.5-9.1c-6.4,0-11.7,4-13.7,9.5c-2.7,0.7-5.3,1.8-7.3,3.3
			c4.6,3.1,7.7,8.4,7.7,14.6c0,9.7-7.7,17.5-17.5,17.5c-2.7,0-5.3-0.7-7.5-1.8c-3.8,4.4-9.3,7.3-15.5,7.3
			c-11.1,0-20.1-9.1-20.1-20.1c0-6.4,2.9-12.2,7.5-15.7c-2-0.7-4-1.1-6.2-1.1c-3.1,0-6.2,0.9-8.6,2.2c-2-3.8-6-6.2-10.6-6.2
			c-5.5,0-10.4,4-11.7,9.1H161c-11.1,0-20.1,9.1-20.1,20.1c0,4,1.1,7.7,3.3,10.8h-0.2c-3.1,0-6,0.9-8.6,2.2c-2-3.8-6-6.2-10.6-6.2
			c-5.5,0-10.4,3.8-11.7,9.1h-0.4c-11.1,0-20.1,9.1-20.1,20.1s8.9,19.9,19.7,20.1c0.7,3.5,2.2,7.1,4.4,10.4 M137.5,98.1
			c0.7-9.1,7.3-16.6,16.2-18.1c0-0.2,0-0.2,0-0.4c0-8.9,7.3-16.2,16.2-16.2c7.3,0,13.5,4.9,15.5,11.5c1.1-0.2,2.4-0.4,3.8-0.4
			c9.5,0,17.5,7.7,17.5,17.5c-0.4,8.9-6.9,16.2-15.3,17.3"/>
		<path class="st0" d="M251.5,34.9c0,9.7-7.7,17.5-17.5,17.5c-2.7,0-5.3-0.7-7.5-1.8c-3.8,4.4-9.3,7.3-15.5,7.3
			c-11.1,0-20.1-9.1-20.1-20.1c0-6.4,2.9-12.2,7.5-15.7c2.4-2,5.1-3.3,8.4-4c2-5.5,7.5-9.5,13.7-9.5c6.2,0,11.5,3.8,13.7,9.1
			c3.5,0,6.9,1.1,9.5,2.9C248.1,23.4,251.5,28.9,251.5,34.9z"/>
		<path class="st0" d="M301,109.2c-0.7-1.8-0.9-3.5-0.9-5.5c0-8.9,6.6-16.2,15.3-17.3c0-0.2-0.2-0.2-0.2-0.4
			c-9.5,0-17.3-7.7-17.3-17.5c0-9.5,7.7-17.5,17.5-17.5c2.7,0,5.3,0.7,7.5,1.8c3.8-4.4,9.3-7.3,15.5-7.3c2.2,0,4.4,0.4,6.6,1.1
			c1.3,0.4,2.7,1.1,4,2c5.8,3.5,9.7,10,9.7,17.3c0,7.1-3.8,13.3-9.3,17c4.2,2,7.5,5.3,9.5,9.3c0.7-0.2,1.5-0.2,2.4-0.2
			c1.5,0,3.1,0.4,4.4,0.9c2.2-2.7,5.3-4.2,8.9-4.2c6.4,0,11.7,5.3,11.7,11.7c-0.4,4.9-3.3,9.1-7.7,10.8"/>
		<path class="st0" d="M137.5,99.7c0-9.7,6.9-17.9,16.2-19.7c0-0.2,0-0.2,0-0.4c0-8.9,7.3-16.2,16.2-16.2c7.3,0,13.5,4.9,15.5,11.5
			c1.1-0.2,2.4-0.4,3.8-0.4c9.5,0,17.5,7.7,17.5,17.5c-0.4,8.9-6.9,16.2-15.3,17.3"/>
		<path class="st0" d="M379.1,111.4c4.2-1.8,7.3-6,7.3-10.8c0-6.4-5.3-11.7-11.7-11.7c-3.5,0-6.9,1.5-8.9,4.2
			c-1.3-0.7-2.9-0.9-4.4-0.9c-0.9,0-1.5,0-2.4,0.2c-2-4.2-5.3-7.5-9.5-9.3c5.5-3.5,9.3-9.7,9.3-17S355,52.3,349,48.8
			c1.3-5.1,6-8.9,11.7-8.9c4.4,0,8.4,2.4,10.6,6.2c2.7-1.5,5.5-2.2,8.6-2.2c9.7,0,17.5,7.7,17.5,17.5c0,1.3-0.2,2.9-0.4,4
			c3.8,0.4,7.1,2.9,8.9,6.2c2.4-1.5,5.5-2.2,8.6-2.2c9.7,0,17.5,7.7,17.5,17.5c-0.4,6-3.8,11.3-8.6,14.4c2.2,2.7,4,6,4.6,9.5"/>
	</g>
	<polygon class="st0" points="290.1,151.6 275.7,466.9 252.9,466.9 238.5,151.6 	"/>
	<polygon class="st0" points="389.2,151.6 333.9,466.9 310.2,466.9 336.5,151.6 	"/>
	<path class="st0" d="M188.5,466.9l-38.9-315.3H202l10.6,315.3H200H188.5z"/>
</g>
<g class="st1">
	<circle cx="81.5" cy="127.9" r="3.5"/>
	<circle cx="81.5" cy="151.5" r="3.5"/>
	<circle cx="112.5" cy="165.5" r="3.5"/>
	<circle cx="119.4" cy="211.8" r="3.5"/>
	<circle cx="126.2" cy="258.1" r="3.5"/>
	<circle cx="133.1" cy="304.4" r="3.5"/>
	<circle cx="139.9" cy="350.6" r="3.5"/>
	<circle cx="146.8" cy="396.9" r="3.5"/>
	<circle cx="153.6" cy="443.2" r="3.5"/>
	<circle cx="160.5" cy="489.5" r="3.5"/>
	<circle cx="213" cy="489.5" r="3.5"/>
	<circle cx="265.5" cy="489.5" r="3.5"/>
	<circle cx="318" cy="489.5" r="3.5"/>
	<circle cx="370.5" cy="489.5" r="3.5"/>
	<circle cx="376.5" cy="442.2" r="3.5"/>
	<circle cx="382.5" cy="394.9" r="3.5"/>
	<circle cx="388.5" cy="347.6" r="3.5"/>
	<circle cx="394.5" cy="300.4" r="3.5"/>
	<circle cx="400.5" cy="253.1" r="3.5"/>
	<circle cx="406.5" cy="205.8" r="3.5"/>
	<circle cx="412.5" cy="158.5" r="3.5"/>
	<circle cx="445.5" cy="157.5" r="3.5"/>
	<circle cx="452.5" cy="127.9" r="3.5"/>
	<circle cx="411.3" cy="127.9" r="3.5"/>
	<circle cx="370.1" cy="127.9" r="3.5"/>
	<circle cx="328.8" cy="127.9" r="3.5"/>
	<circle cx="287.6" cy="127.9" r="3.5"/>
	<circle cx="246.4" cy="127.9" r="3.5"/>
	<circle cx="205.2" cy="127.9" r="3.5"/>
	<circle cx="163.9" cy="127.9" r="3.5"/>
	<circle cx="122.7" cy="127.9" r="3.5"/>
</g>
</svg>
