<?xml version="1.0" encoding="utf-8"?>
<!-- Generator: Adobe Illustrator 22.1.0, SVG Export Plug-In . SVG Version: 6.00 Build 0)  -->
<svg version="1.1" id="Layer_1" xmlns="http://www.w3.org/2000/svg" xmlns:xlink="http://www.w3.org/1999/xlink" x="0px" y="0px"
	 viewBox="0 0 512 512" style="enable-background:new 0 0 512 512;" xml:space="preserve">
<style type="text/css">
	.st0{fill:none;stroke:#000000;stroke-width:5;stroke-linecap:round;stroke-linejoin:round;stroke-miterlimit:10;}
	.st1{opacity:0;}
</style>
<g>
	<path class="st0" d="M407.7,383.1c-1.7,8-5,16.1-9.3,23.3s-9.3,14-16.5,19c1.4-8.5,2.5-16.1,4.3-23.7l5-21.9l5-21.9
		c2.1-7.6,3.3-14.7,6.8-23.3c3.9,7.6,6,16.1,6.8,24.1C410.6,366.6,409.8,375.2,407.7,383.1z"/>
	<path class="st0" d="M425,264.8c0,2.9-0.4,6-0.8,8.9c-0.8,6-1.7,11.4-2.5,16.9c-1.4,5.4-2.1,11.1-3.9,16.5
		c-1.4,5.4-2.9,11.1-4.7,17.8c-5-5-7.2-11.4-8.5-18.2c-1.4-6.4-0.8-13.2,0.4-19.4c1.2-6.2,3.3-12.2,6.8-17.8c1.7-2.9,3.3-5.4,5.4-8
		c2.1-2.5,4.7-4.7,7.6-6.8C425.4,258.8,425.4,261.9,425,264.8z"/>
	<path class="st0" d="M387.4,284c-6.4-5.4-10.1-11.8-13.2-19c-2.9-7.2-5-14.4-5.4-21.9c-0.8-7.6-0.4-15.7,1.7-22.9
		c1.7-7.6,5.4-14.7,10.5-20.8c1.7,8,1.7,14.7,2.9,21.9l2.1,20.4c0.4,6.8,1.4,13.6,1.7,20.8C387.4,268.9,387.8,276,387.4,284z"/>
	<path class="st0" d="M362.6,332.1c-2.1,7.6-6,14.7-10.5,20.8c-4.7,6.4-10.1,11.8-16.9,16.1c1.4-8,3.3-15.1,5.4-21.9l6.4-19.8
		c2.1-6.4,4.3-12.6,5.4-19.4c1.4-6.4,2.5-13.2,2.5-21.1c6.4,5.4,9.7,13.6,10.5,21.5C366.5,316.4,365.1,324.4,362.6,332.1z"/>
	<path class="st0" d="M317.8,447.3c-1.7,8-4.3,15.7-9.3,22.5c-1.7-8-2.9-15.7-3.9-23.3l-2.5-21.5c-0.4-3.3-0.8-7.2-1.4-10.5
		c-0.4-3.3-0.8-7.2-1.4-11.1c-0.8-7.6-2.1-14.7-2.1-23.3c6.4,5,11.4,11.8,14.7,19.4c2.1,3.9,2.9,7.6,4.3,11.4
		c0.8,3.9,2.1,8,2.5,11.8C320,430.8,319.6,439.3,317.8,447.3z"/>
	<path class="st0" d="M315,189.1c-3.3,12.2-6,24.1-8.5,35.9c-2.5,11.8-4.7,23.7-7.2,35.5s-4.7,23.7-7.6,35.5
		c-2.9,11.8-6,23.7-10.1,35.9c-2.9-12.6-3.3-25-2.9-37.6c0.4-12.6,1.7-25,4.3-37.3c2.5-12.2,6-24.4,11.1-35.9
		C298.9,208.9,305.3,197.4,315,189.1z"/>
	<path class="st0" d="M340,206.4c-3.9-9.7-6.8-19.4-9.3-28.7c-2.9-9.3-5.4-18.6-8-27.9c-2.9-9.3-6-18.2-9.3-27
		c-3.9-8.9-7.6-17.3-12.6-27c9.7,4.3,17.8,11.8,24.1,20.4c6.4,8.9,10.5,18.6,14,28.7c2.9,10.1,4.7,20.4,5,30.8
		C343.9,185.6,342.9,196.3,340,206.4z"/>
	<path class="st0" d="M154.5,367.6c-8-3.9-14.4-9.3-19.8-15.1c-5.4-6-10.5-12.6-14.4-20.4c-3.9-7.2-7.2-15.1-8-24.1
		c-1.4-8.5-0.8-18.2,3.9-25.4c2.5,8.5,5.4,14.7,8.9,21.5c3.3,6.8,6.8,13.2,10.1,19.8c3.3,6.8,7.2,13.6,10.5,20.8
		C148.7,352.5,152,359.7,154.5,367.6z"/>
	<path class="st0" d="M173.7,447.3c-8.9-0.8-16.5-3.9-24.1-7.6c-7.6-3.9-14.4-8.5-20.8-14c-6.4-5.4-11.8-12.2-16.1-19.8
		c-4.3-7.6-6.8-16.5-5-25.4c5,7.2,10.1,12.2,15.7,17.3c5.4,5,11.1,10.1,16.5,15.1c5.4,5,11.4,10.1,16.9,15.7
		C162.9,434.7,168.3,440.7,173.7,447.3z"/>
	<path class="st0" d="M124.6,234.4c-1.7,8.5-4.7,16.9-10.1,24.1c-1.4-8.9-2.1-16.9-2.9-25c-0.8-8-1.7-15.7-2.9-23.3
		c-0.8-7.6-2.1-15.1-3.9-22.9c-1.4-8-3.3-15.7-4.7-24.4c7.2,5,13.2,12.2,17.3,19.8c4.3,8,6.8,16.5,8,25.4
		C126.3,216.6,126.3,225.5,124.6,234.4z"/>
	<path class="st0" d="M125.2,145.1c-6.8-6-11.4-13.2-15.1-20.8c-3.9-7.6-6.8-15.7-8.5-24.1c-1.7-8.5-1.7-17.8,0.4-26.6
		c1.4-4.3,2.9-8.9,5.4-12.6c2.5-3.9,6.4-7.2,10.5-8.5c-3.3,8-3.3,15.1-2.9,22.5c0.4,7.2,1.7,14.4,2.9,21.9
		c1.4,7.6,2.9,15.1,4.3,22.9C123.5,128.2,124.8,136.1,125.2,145.1z"/>
	<path class="st0" d="M236.4,475.9c-2.1-0.8-4.7-2.1-6.4-3.3c-4.3-2.9-7.6-6.4-10.1-10.5c-4.3-6-7.2-12.6-8.9-19.8
		s-2.1-14.4-0.8-21.5c0.8-7.2,3.9-14,8-20.4c1.4,3.9,2.1,7.2,2.9,10.1c0.8,3.3,1.4,6.4,2.1,9.7c1.4,6.4,2.9,12.2,4.3,18.2
		c1.4,6,2.9,11.8,4.3,17.8c1.4,6,2.9,11.8,4.7,18.6C236.4,474.9,236.4,475.3,236.4,475.9z"/>
	<path class="st0" d="M252.7,305.6c-1.7,7.6-3.9,14.4-6,20.8c-2.1,6.4-4.7,12.6-7.2,19c-2.5,6.4-5.4,12.6-8.9,18.6
		c-3.3,6.4-7.2,12.2-12.2,18.2c-1.7-7.6-1.4-15.1-0.4-22.5c1.4-7.2,2.9-14.4,6-21.1c2.9-6.8,6.4-13.2,11.1-19
		C239.5,314.1,245.5,308.9,252.7,305.6z"/>
	<path class="st0" d="M88,123.9c-1.7,7.6-3.9,14.4-6,20.8c-2.1,6.8-4.7,12.6-7.2,19c-2.5,6.4-5.4,12.6-8.9,18.6
		c-3.3,6.4-7.2,12.2-12.2,18.2c-1.7-7.6-1.4-15.1-0.4-22.5c1.4-7.2,2.9-14.4,6-21.1c2.9-6.8,6.4-13.2,11.1-19
		C75.4,132.5,80.8,126.8,88,123.9z"/>
	<path class="st0" d="M74.8,331.5c-3.9-7.2-6.8-13.6-9.3-19.8c-2.5-6.4-5-12.6-7.6-19.4c-2.5-6.4-4.7-13.2-6.4-19.8
		c-1.7-6.8-3.9-14-4.3-21.9c6.8,4.3,11.8,9.7,16.5,16.1c4.3,6,7.6,12.6,10.5,19.8c2.5,7.2,4.3,14.7,4.7,22.5
		C78.7,316.4,78.3,324.3,74.8,331.5z"/>
	<path class="st0" d="M216.1,269.8c-2.9,6.8-6.8,12.6-11.8,17.8c-5,5-11.1,9.3-18.2,11.4c2.1-7.2,4.7-13.2,7.2-19
		c2.5-5.8,5-11.4,7.2-16.5c2.1-5.4,4.3-10.5,6-16.5c1.7-5.4,2.5-11.4,3.9-19c5.4,5,8.9,12.2,9.7,19.8
		C220.3,255.5,219.2,263,216.1,269.8z"/>
	<path class="st0" d="M290,152.6c-1.4,4.7-2.9,8.9-4.7,13.2c-1.4,4.3-3.3,8-4.7,12.2c-3.3,8-6,16.1-8.5,23.7
		c-2.5,8-4.7,16.1-6.4,24.1c-1.7,8.5-2.9,16.9-4.3,26.2c-6-7.6-8.5-17.3-9.3-26.6c-0.8-9.7,0.4-19.4,3.3-28.3
		c2.9-9.3,7.2-17.8,13.2-25.4c2.5-3.9,6.4-7.2,9.3-10.5C281.9,157.9,285.8,155.2,290,152.6z"/>
	<path class="st0" d="M183,210c-1.4,3.3-2.5,7.2-4.7,10.1c-2.1,3.3-4.3,6.4-7.6,8.5c0-3.9,0-7.2,0-10.5c0-3.3-0.4-6.4-0.4-9.7
		l-1.4-18.6c-0.4-6.4-0.8-12.6-0.8-19.4c0-3.3,0-6.8,0-10.1s0.4-7.2,1.4-11.1c2.5,2.5,5,5.4,6.8,8.5c2.1,2.9,3.3,6.4,5,9.7
		c2.5,6.8,4.3,13.6,4.7,20.8C185.9,195.5,185.1,203.2,183,210z"/>
	<path class="st0" d="M205.9,141.4c-7.2-8-13.2-16.1-19-24.1c-6-8-11.4-16.5-16.9-24.4c-5.4-8.5-10.5-16.5-16.1-25
		c-5-8.5-10.5-16.9-14.7-26.6c9.7,4.7,18.2,11.1,25.4,18.6c7.6,7.2,14,15.1,19.4,24.1c5.4,8.5,10.5,17.8,14.4,27.5
		C202,120.6,205.1,130.7,205.9,141.4z"/>
	<path class="st0" d="M275.1,95.3c-2.9-2.5-5.4-4.7-8-6c-2.5-1.4-5-2.1-8-2.9c-5.4-1.7-12.2-2.9-18.6-6c-6.4-2.5-13.2-6.4-18.6-11.1
		c-5.4-4.7-10.1-10.5-12.6-17.8c7.6,1.7,13.6,4.3,19.8,6.4c6,2.1,11.8,4.3,17.8,6.8c6,2.5,12.2,5,18.6,9.7c2.9,2.5,6.4,5.4,8,9.3
		C275.1,87.7,275.5,91.8,275.1,95.3z"/>
</g>
<g class="st1">
	<circle cx="81.5" cy="71.5" r="3.5"/>
	<circle cx="72.5" cy="108.5" r="3.5"/>
	<circle cx="41.5" cy="141.5" r="3.5"/>
	<circle cx="24.5" cy="183.5" r="3.5"/>
	<circle cx="21.5" cy="228.5" r="3.5"/>
	<circle cx="26.5" cy="278.5" r="3.5"/>
	<circle cx="32.5" cy="314.5" r="3.5"/>
	<circle cx="52.5" cy="349.5" r="3.5"/>
	<circle cx="72.5" cy="382.5" r="3.5"/>
	<circle cx="86.5" cy="421.5" r="3.5"/>
	<circle cx="113.5" cy="454.5" r="3.5"/>
	<circle cx="154.5" cy="469.5" r="3.5"/>
	<circle cx="199.5" cy="480.5" r="3.5"/>
	<circle cx="239.5" cy="497.5" r="3.5"/>
	<circle cx="275.5" cy="496.5" r="3.5"/>
	<circle cx="325.5" cy="496.5" r="3.5"/>
	<circle cx="368.5" cy="490.5" r="3.5"/>
	<circle cx="402.5" cy="464.5" r="3.5"/>
	<circle cx="425.5" cy="425.5" r="3.5"/>
	<circle cx="439.5" cy="393.5" r="3.5"/>
	<circle cx="446.5" cy="352.5" r="3.5"/>
	<circle cx="453.5" cy="305.5" r="3.5"/>
	<circle cx="450.5" cy="263.5" r="3.5"/>
	<circle cx="446.5" cy="216.5" r="3.5"/>
	<circle cx="421.5" cy="183.5" r="3.5"/>
	<circle cx="396.5" cy="156.5" r="3.5"/>
	<circle cx="371.5" cy="126.5" r="3.5"/>
	<circle cx="335.5" cy="92.5" r="3.5"/>
	<circle cx="300.5" cy="63.5" r="3.5"/>
	<circle cx="267.5" cy="41.5" r="3.5"/>
	<circle cx="220.5" cy="30.5" r="3.5"/>
	<circle cx="177.5" cy="22.5" r="3.5"/>
	<circle cx="139.5" cy="18.5" r="3.5"/>
	<circle cx="105.5" cy="19.5" r="3.5"/>
	<circle cx="84.5" cy="38.5" r="3.5"/>
</g>
</svg>
