<?xml version="1.0" encoding="utf-8"?>
<!-- Generator: Adobe Illustrator 22.1.0, SVG Export Plug-In . SVG Version: 6.00 Build 0)  -->
<svg version="1.1" id="Layer_1" xmlns="http://www.w3.org/2000/svg" xmlns:xlink="http://www.w3.org/1999/xlink" x="0px" y="0px"
	 viewBox="0 0 512 512" style="enable-background:new 0 0 512 512;" xml:space="preserve">
<style type="text/css">
	.st0{fill:none;stroke:#000000;stroke-width:5;stroke-linecap:round;stroke-linejoin:round;stroke-miterlimit:10;}
	.st1{opacity:0;}
</style>
<g>
	<path class="st0" d="M216.5,215.9c-1-4.3-1.6-9-1.6-13.6c0-17.3,7.9-32.8,20.3-43.1C206.4,93,132.9,80,132.9,80
		c-11.4,32.1-13.8,59.2-11.2,81.4"/>
	<path class="st0" d="M327.2,156.5c-1.2-4.1-2.4-8.1-4.1-11.8c17.5-14.9,42.1-27.7,76.5-35.6c0,0,7.1,17.3,9.2,41.9
		c-13.6,8.5-23.4,18.9-30.3,29.3l0,0c-16.1,4.5-28.1,17.7-30.9,34.2"/>
	<path class="st0" d="M310.1,162.8c-0.8-0.8-1.4-1.4-2.2-2.2c-9.8-8.7-22.8-14-37-14c-10,0-19.3,2.6-27.5,7.1
		c6.9-18.9,20.3-39.3,43.7-60c0,0,23.6,19.1,36.2,51.3c1.4,3.7,2.8,7.5,3.9,11.6"/>
	<path class="st0" d="M44,215.9C33.6,198,26.5,174,26.3,141.4c0,0,50.1-8.5,91.1,21.4"/>
	<path class="st0" d="M216.5,215.9c-1-4.3-1.6-9-1.6-13.6c0-17.3,7.9-32.8,20.3-43.1c2.4-2,5.1-3.9,7.9-5.5
		c8.1-4.7,17.5-7.1,27.5-7.1c16.9,0,31.9,7.5,42.1,19.3"/>
	<path class="st0" d="M432.6,215.9c-2.8-21-21-37.2-42.7-37.2c-4.1,0-7.9,0.6-11.6,1.6c6.9-10.4,16.9-20.8,30.3-29.3
		c16.5-10.4,38.5-18.3,67.8-21.2c0.2,0,12,44.4-9.2,85.9"/>
	<path class="st0" d="M44,215.9C33.6,198,26.5,174,26.3,141.4c0,0,50.1-8.5,91.1,21.4"/>
	<path class="st0" d="M121.1,163.6c5.7-2.6,11.8-4.3,18.5-4.3c23.8,0,43.1,19.3,43.1,43.1c0,4.7-0.8,9.2-2,13.4"/>
	<path class="st0" d="M98.5,215.9c-1.4-4.3-2-8.7-2-13.4c0-17.1,10-31.9,24.6-38.9"/>
	<g>
		<path class="st0" d="M261.3,215.9l83.6-75.5c11.8,14.4,17.1,31.7,16.7,49"/>
		<path class="st0" d="M331.3,154.5c13.4,18.3,14.2,42.5,3.5,61.4"/>
	</g>
</g>
<path class="st0" d="M171,173c0,0,20.8-19.9,57.2-6.5"/>
<g class="st1">
	<circle cx="38.5" cy="229" r="3.5"/>
	<circle cx="44.5" cy="264.5" r="3.5"/>
	<circle cx="62.5" cy="298.5" r="3.5"/>
	<circle cx="88.5" cy="322.5" r="3.5"/>
	<circle cx="117.5" cy="343.5" r="3.5"/>
	<circle cx="147.5" cy="362.5" r="3.5"/>
	<circle cx="176.5" cy="369.5" r="3.5"/>
	<circle cx="176.5" cy="389.5" r="3.5"/>
	<circle cx="211.3" cy="389.5" r="3.5"/>
	<circle cx="246.1" cy="389.5" r="3.5"/>
	<circle cx="280.9" cy="389.5" r="3.5"/>
	<circle cx="315.7" cy="389.5" r="3.5"/>
	<circle cx="350.5" cy="389.5" r="3.5"/>
	<circle cx="346.5" cy="369.5" r="3.5"/>
	<circle cx="380.5" cy="356.5" r="3.5"/>
	<circle cx="412.5" cy="340.5" r="3.5"/>
	<circle cx="440.5" cy="321.5" r="3.5"/>
	<circle cx="465.5" cy="295.5" r="3.5"/>
	<circle cx="481.5" cy="263.5" r="3.5"/>
	<circle cx="491.5" cy="229" r="3.5"/>
	<circle cx="450.3" cy="229" r="3.5"/>
	<circle cx="409.1" cy="229" r="3.5"/>
	<circle cx="368" cy="229" r="3.5"/>
	<circle cx="326.8" cy="229" r="3.5"/>
	<circle cx="285.6" cy="229" r="3.5"/>
	<circle cx="244.4" cy="229" r="3.5"/>
	<circle cx="203.2" cy="229" r="3.5"/>
	<circle cx="162" cy="229" r="3.5"/>
	<circle cx="120.9" cy="229" r="3.5"/>
	<circle cx="79.7" cy="229" r="3.5"/>
</g>
</svg>
