<?xml version="1.0" encoding="utf-8"?>
<!-- Generator: Adobe Illustrator 22.1.0, SVG Export Plug-In . SVG Version: 6.00 Build 0)  -->
<svg version="1.1" id="Layer_1" xmlns="http://www.w3.org/2000/svg" xmlns:xlink="http://www.w3.org/1999/xlink" x="0px" y="0px"
	 viewBox="0 0 512 512" style="enable-background:new 0 0 512 512;" xml:space="preserve">
<style type="text/css">
	.st0{fill:none;stroke:#000000;stroke-width:5;stroke-linecap:round;stroke-linejoin:round;stroke-miterlimit:10;}
	.st1{opacity:0;}
</style>
<g>
	<path class="st0" d="M416.5,324.8c13.9-9.9,25.1-23.8,31.3-40.1l36,89.5l-67.9,27.2"/>
	<polyline class="st0" points="243.3,462.7 154.9,498.2 140.3,462 	"/>
	<path class="st0" d="M267.4,40.9l88-35.3l16.7,42"/>
	<path class="st0" d="M103,412.9c-26.6-15.2-44.6-43.7-44.6-76.5c0-13.9,3.2-27.2,9-39c7.9-16.3,20.8-29.6,36.6-38.3"/>
	<path class="st0" d="M435.4,199.3c11.6,14.6,18.4,33.2,18.4,53.8c0,11.4-2.1,22.1-6,32.1c-6.4,16.3-17.3,30.2-31.3,40.1"/>
	<path class="st0" d="M395.2,464c-16.1,19.3-40.5,31.7-67.5,31.7c-27.6,0-52.3-12.6-68.5-32.6"/>
	<path class="st0" d="M104.3,259.1c-15.8,8.8-28.7,22.1-36.6,38.3L14.3,165.5l22.5-9"/>
	<path class="st0" d="M68.5,84.6c10.5-37.1,44.6-64,84.8-64c25.1,0,47.5,10.5,63.6,27.4"/>
</g>
<g class="st1">
	<circle cx="82.4" cy="89.9" r="3.5"/>
	<circle cx="109.9" cy="77.4" r="3.5"/>
	<circle cx="148.8" cy="69.1" r="3.5"/>
	<circle cx="202.8" cy="61.3" r="3.5"/>
	<circle cx="271.8" cy="56" r="3.5"/>
	<circle cx="331" cy="56.8" r="3.5"/>
	<circle cx="381.1" cy="64" r="3.5"/>
	<circle cx="422.4" cy="76.6" r="3.5"/>
	<circle cx="454.5" cy="93.6" r="3.5"/>
	<circle cx="476.8" cy="113.7" r="3.5"/>
	<circle cx="488.8" cy="135.9" r="3.5"/>
	<circle cx="479.4" cy="170.4" r="3.5"/>
	<circle cx="441.7" cy="179.1" r="3.5"/>
	<circle cx="417.2" cy="191.2" r="3.5"/>
	<circle cx="416.5" cy="230.9" r="3.5"/>
	<circle cx="415.8" cy="270.5" r="3.5"/>
	<circle cx="415.1" cy="310.1" r="3.5"/>
	<circle cx="414.4" cy="349.8" r="3.5"/>
	<circle cx="413.8" cy="389.4" r="3.5"/>
	<circle cx="413.1" cy="429" r="3.5"/>
	<circle cx="395" cy="451.1" r="3.5"/>
	<circle cx="355.4" cy="451.1" r="3.5"/>
	<circle cx="315.8" cy="451.2" r="3.5"/>
	<circle cx="276.1" cy="451.2" r="3.5"/>
	<circle cx="236.5" cy="451.3" r="3.5"/>
	<circle cx="196.9" cy="451.4" r="3.5"/>
	<circle cx="157.2" cy="451.4" r="3.5"/>
	<circle cx="117.6" cy="451.5" r="3.5"/>
	<circle cx="107.8" cy="423" r="3.5"/>
	<circle cx="109.7" cy="383.4" r="3.5"/>
	<circle cx="111.5" cy="343.8" r="3.5"/>
	<circle cx="113.3" cy="304.2" r="3.5"/>
	<circle cx="115.2" cy="264.6" r="3.5"/>
	<circle cx="117" cy="225" r="3.5"/>
	<circle cx="122.9" cy="176.4" r="3.5"/>
	<circle cx="93.2" cy="177.1" r="3.5"/>
	<circle cx="58.3" cy="176.8" r="3.5"/>
	<circle cx="40.1" cy="139.4" r="3.5"/>
	<circle cx="56" cy="110" r="3.5"/>
</g>
</svg>
