<?xml version="1.0" encoding="utf-8"?>
<!-- Generator: Adobe Illustrator 22.1.0, SVG Export Plug-In . SVG Version: 6.00 Build 0)  -->
<svg version="1.1" id="Layer_1" xmlns="http://www.w3.org/2000/svg" xmlns:xlink="http://www.w3.org/1999/xlink" x="0px" y="0px"
	 viewBox="0 0 512 512" style="enable-background:new 0 0 512 512;" xml:space="preserve">
<style type="text/css">
	.st0{fill:none;stroke:#000000;stroke-width:5;stroke-linecap:round;stroke-linejoin:round;stroke-miterlimit:10;}
	.st1{opacity:0;}
</style>
<g>
	<path class="st0" d="M439,187.8c0,7.2-2.9,13.9-7.6,18.6c-4.7,4.7-11.1,7.6-18.2,7.6c-0.2,0-0.2,0-0.4,0H98.3
		c-14.5,0-26.2-11.7-26.2-26.2c0-31.3,12.7-59.6,33.2-80.1s48.8-33.2,80.1-33.2h53.7V36.4c0-9.2,7.4-16.6,16.6-16.6
		c9.2,0,16.6,7.4,16.6,16.6v38.3h53.5C388.4,74.7,439,125.5,439,187.8z"/>
</g>
<path class="st0" d="M439,187.8c0,7.2-2.9,13.9-7.6,18.6c-4.7,4.7-11.1,7.6-18.2,7.6c-0.2,0-0.2,0-0.4,0H98.3
	c-14.5,0-26.2-11.7-26.2-26.2c0-31.3,12.7-59.6,33.2-80.1s48.8-33.2,80.1-33.2h53.7V36.4c0-9.2,7.4-16.6,16.6-16.6
	c9.2,0,16.6,7.4,16.6,16.6v38.3h53.5C388.4,74.7,439,125.5,439,187.8z"/>
<g class="st1">
	<circle cx="133" cy="236.9" r="3.5"/>
	<circle cx="173.2" cy="236.9" r="3.5"/>
	<circle cx="213.4" cy="236.9" r="3.5"/>
	<circle cx="253.6" cy="236.9" r="3.5"/>
	<circle cx="293.8" cy="236.9" r="3.5"/>
	<circle cx="334" cy="236.9" r="3.5"/>
	<circle cx="374.2" cy="236.9" r="3.5"/>
	<circle cx="416.8" cy="236.9" r="3.5"/>
	<circle cx="414.7" cy="276.1" r="3.5"/>
	<circle cx="410.2" cy="325" r="3.5"/>
	<circle cx="397" cy="374.3" r="3.5"/>
	<circle cx="372.6" cy="419.2" r="3.5"/>
	<circle cx="331.8" cy="463.5" r="3.5"/>
	<circle cx="286.1" cy="473.4" r="3.5"/>
	<circle cx="273.1" cy="494.9" r="3.5"/>
	<circle cx="258.5" cy="474.7" r="3.5"/>
	<circle cx="225.1" cy="470.7" r="3.5"/>
	<circle cx="183.2" cy="448.8" r="3.5"/>
	<circle cx="153.2" cy="412.2" r="3.5"/>
	<circle cx="133.1" cy="367.4" r="3.5"/>
	<circle cx="120.9" cy="321.1" r="3.5"/>
	<circle cx="114.6" cy="279.9" r="3.5"/>
	<circle cx="106.3" cy="236.9" r="3.5"/>
</g>
</svg>
