<?xml version="1.0" encoding="utf-8"?>
<!-- Generator: Adobe Illustrator 22.1.0, SVG Export Plug-In . SVG Version: 6.00 Build 0)  -->
<svg version="1.1" id="Layer_1" xmlns="http://www.w3.org/2000/svg" xmlns:xlink="http://www.w3.org/1999/xlink" x="0px" y="0px"
	 viewBox="0 0 512 512" style="enable-background:new 0 0 512 512;" xml:space="preserve">
<style type="text/css">
	.st0{fill:none;stroke:#000000;stroke-width:5;stroke-linecap:round;stroke-linejoin:round;stroke-miterlimit:10;}
	.st1{opacity:0;}
</style>
<g>
	<path class="st0" d="M486.7,255.7c7.3-4.9,11.3-10.2,11.3-15.5c-0.4,123.1-108.5,222.9-241.5,222.9S15.4,363.6,15,240.2
		c0,7.8,8.4,15.1,23.2,21.8"/>
	<path class="st0" d="M46.7,265.6c-1-0.4-2-0.8-3-1.2C25.5,257.3,15,248.9,15,240.2V240c0-0.2,0-0.4,0-0.6
		c1.8-27.9,109.3-50.5,241.5-50.5s239.7,22.6,241.5,50.5c0,0.2,0,0.4,0,0.6l0,0c0,5.5-4,10.7-11.4,15.6"/>
	<g>
		<path class="st0" d="M193.7,159.1V90.8"/>
	</g>
	<g>
		<path class="st0" d="M289.2,131.8V63.5"/>
	</g>
	<g>
		<path class="st0" d="M247.2,170V49.8"/>
	</g>
	<path class="st0" d="M486.7,255.7c7.3-4.9,11.3-10.2,11.3-15.5c-0.4,123.1-108.5,222.9-241.5,222.9S15.4,363.6,15,240.2
		c0,7.8,8.4,15.1,23.2,21.8"/>
</g>
<g class="st1">
	<circle cx="61.5" cy="252.1" r="3.5"/>
	<circle cx="107" cy="238.5" r="3.5"/>
	<circle cx="148" cy="231.7" r="3.5"/>
	<circle cx="194" cy="228.2" r="3.5"/>
	<circle cx="232" cy="226.7" r="3.5"/>
	<circle cx="271.5" cy="225.6" r="3.5"/>
	<circle cx="319" cy="227.3" r="3.5"/>
	<circle cx="364" cy="230.8" r="3.5"/>
	<circle cx="403.5" cy="237" r="3.5"/>
	<circle cx="437" cy="242" r="3.5"/>
	<circle cx="469.5" cy="254" r="3.5"/>
	<circle cx="431.5" cy="265.6" r="3.5"/>
	<circle cx="389.6" cy="272.6" r="3.5"/>
	<circle cx="347.9" cy="279.6" r="3.5"/>
	<circle cx="312" cy="283.1" r="3.5"/>
	<circle cx="275" cy="283.1" r="3.5"/>
	<circle cx="243.7" cy="283.1" r="3.5"/>
	<circle cx="212.5" cy="283.1" r="3.5"/>
	<circle cx="169" cy="283.1" r="3.5"/>
	<circle cx="132" cy="279.6" r="3.5"/>
	<circle cx="91" cy="269.1" r="3.5"/>
</g>
</svg>
