<?xml version="1.0" encoding="utf-8"?>
<!-- Generator: Adobe Illustrator 22.1.0, SVG Export Plug-In . SVG Version: 6.00 Build 0)  -->
<svg version="1.1" id="Layer_1" xmlns="http://www.w3.org/2000/svg" xmlns:xlink="http://www.w3.org/1999/xlink" x="0px" y="0px"
	 viewBox="0 0 512 512" style="enable-background:new 0 0 512 512;" xml:space="preserve">
<style type="text/css">
	.st0{fill:none;stroke:#000000;stroke-width:5;stroke-linecap:round;stroke-linejoin:round;stroke-miterlimit:10;}
	.st1{opacity:0;}
</style>
<g>
	<path class="st0" d="M424.6,131.2c0.7-20.2-9.3-38.3-27.1-48.3l-97.4-55c-26.2-15-58.3-16-85.3-2.4l-106,51
		c-18.6,9-29.8,26.7-30.2,46.9 M212.2,211.9l-97.4-55c-12.1-6.7-18.8-18.8-18.6-32.6c0.2-13.8,8.1-25.5,20.2-31.7L222,41.2
		c21.7-10.7,47.6-10,68.6,2.1l97.4,55c12.1,6.7,18.8,18.8,18.6,32.6c-0.2,13.8-8.1,25.5-20.2,31.7L280.8,214
		C259.1,224.8,233.7,224.1,212.2,211.9z"/>
	<path class="st0" d="M230.1,142.6L205.8,129c-14.3-7.9-13.6-28.3,1-35.5l26.7-13.1c12.9-6,27.6-5.7,39.8,1L297.5,95
		c14.3,7.9,13.6,28.3-1,35.5l-26.7,13.1C257,150,242.2,149.8,230.1,142.6z"/>
</g>
<g class="st1">
	<circle cx="123.8" cy="179" r="3.5"/>
	<circle cx="166.4" cy="209.4" r="3.5"/>
	<circle cx="209" cy="239.9" r="3.5"/>
	<circle cx="245.9" cy="250" r="3.5"/>
	<circle cx="274.5" cy="241.7" r="3.5"/>
	<circle cx="311.7" cy="220.3" r="3.5"/>
	<circle cx="348.8" cy="198.9" r="3.5"/>
	<circle cx="385.9" cy="177.5" r="3.5"/>
	<circle cx="423" cy="156.1" r="3.5"/>
	<circle cx="423" cy="196" r="3.5"/>
	<circle cx="423" cy="235.9" r="3.5"/>
	<circle cx="423" cy="275.8" r="3.5"/>
	<circle cx="423" cy="315.7" r="3.5"/>
	<circle cx="423" cy="355.6" r="3.5"/>
	<circle cx="423" cy="395.5" r="3.5"/>
	<circle cx="387.4" cy="416.4" r="3.5"/>
	<circle cx="351.8" cy="437.4" r="3.5"/>
	<circle cx="316.3" cy="458.3" r="3.5"/>
	<circle cx="280.7" cy="479.2" r="3.5"/>
	<circle cx="252.2" cy="490.7" r="3.5"/>
	<circle cx="217.7" cy="481.4" r="3.5"/>
	<circle cx="172.2" cy="454.5" r="3.5"/>
	<circle cx="126.7" cy="427.6" r="3.5"/>
	<circle cx="81.3" cy="400.6" r="3.5"/>
	<circle cx="81.3" cy="358.6" r="3.5"/>
	<circle cx="81.3" cy="316.6" r="3.5"/>
	<circle cx="81.3" cy="274.6" r="3.5"/>
	<circle cx="81.3" cy="232.5" r="3.5"/>
	<circle cx="81.3" cy="190.5" r="3.5"/>
	<circle cx="81.3" cy="148.5" r="3.5"/>
</g>
</svg>
