<?xml version="1.0" encoding="utf-8"?>
<!-- Generator: Adobe Illustrator 22.1.0, SVG Export Plug-In . SVG Version: 6.00 Build 0)  -->
<svg version="1.1" id="Layer_1" xmlns="http://www.w3.org/2000/svg" xmlns:xlink="http://www.w3.org/1999/xlink" x="0px" y="0px"
	 viewBox="0 0 512 512" style="enable-background:new 0 0 512 512;" xml:space="preserve">
<style type="text/css">
	.st0{fill:none;stroke:#000000;stroke-width:5;stroke-linecap:round;stroke-linejoin:round;stroke-miterlimit:10;}
	.st1{opacity:0;}
</style>
<g>
	<path class="st0" d="M310.1,85.5l55.6,35.2c6.4,4,15.1,3,22.5-2.8l41.8-31.2c6.8-5.1,8.3-15.5,2.5-19.1L331.9,4
		c-5.5-3.4-13.8,1.7-15.9,9.5l-12.7,48.6C300.7,72.1,303.5,81.3,310.1,85.5z"/>
	<g>
		<line class="st0" x1="296.3" y1="92.3" x2="362" y2="134.3"/>
		<line class="st0" x1="125.7" y1="361.5" x2="191.7" y2="403"/>
	</g>
	<path class="st0" d="M125.3,376.7l55.6,35.2c6.4,4,9.1,12.3,7.2,21.6l-10.4,51.1c-1.7,8.5-10.4,13.8-16.1,10.2L61,431.2
		c-5.5-3.4-4.5-13.2,1.9-18.5l38.4-32.2C109.2,374,118.5,372.5,125.3,376.7z"/>
</g>
<g class="st1">
	<circle cx="284.6" cy="107.1" r="3.5"/>
	<circle cx="321.2" cy="128.5" r="3.5"/>
	<circle cx="357.9" cy="149.8" r="3.5"/>
	<circle cx="394.5" cy="171.2" r="3.5"/>
	<circle cx="371.4" cy="211.5" r="3.5"/>
	<circle cx="344.1" cy="252.8" r="3.5"/>
	<circle cx="316.8" cy="294.1" r="3.5"/>
	<circle cx="289.6" cy="335.4" r="3.5"/>
	<circle cx="262.3" cy="376.7" r="3.5"/>
	<circle cx="238.3" cy="411.5" r="3.5"/>
	<circle cx="202.6" cy="387.5" r="3.5"/>
	<circle cx="166.9" cy="363.4" r="3.5"/>
	<circle cx="131.3" cy="339.3" r="3.5"/>
	<circle cx="95.6" cy="315.2" r="3.5"/>
	<circle cx="126" cy="269.3" r="3.5"/>
	<circle cx="156.5" cy="223.4" r="3.5"/>
	<circle cx="187" cy="177.5" r="3.5"/>
	<circle cx="217.5" cy="131.6" r="3.5"/>
	<circle cx="247.9" cy="85.7" r="3.5"/>
</g>
</svg>
