<?xml version="1.0" encoding="utf-8"?>
<!-- Generator: Adobe Illustrator 22.1.0, SVG Export Plug-In . SVG Version: 6.00 Build 0)  -->
<svg version="1.1" id="Layer_1" xmlns="http://www.w3.org/2000/svg" xmlns:xlink="http://www.w3.org/1999/xlink" x="0px" y="0px"
	 viewBox="0 0 512 512" style="enable-background:new 0 0 512 512;" xml:space="preserve">
<style type="text/css">
	.st0{fill:none;stroke:#000000;stroke-width:5;stroke-linecap:round;stroke-linejoin:round;stroke-miterlimit:10;}
	.st1{opacity:0;}
</style>
<g>
	<circle class="st0" cx="106.8" cy="98.5" r="82.3"/>
	<circle class="st0" cx="106.8" cy="98.5" r="53.9"/>
	<path class="st0" d="M180.9,285.2c-1.6-1.2-3.1-2.6-4.4-4.2c-18.7-21.2-6.4-62.6,27.5-92.4s76.5-36.8,95.2-15.6"/>
	<path class="st0" d="M268,232.5L268,232.5c0-0.2,14.7-19,12.1-35c-1-5.5-4.1-10.2-9.6-13.7c-15-9.8-35.2,2-43.2,7.8
		c-22.1,15.6-36.5,39.1-33.8,49c2,8,6.3,13.1,12.9,15c10,2.7,24-2,32.8-11.3c11.7-11.7,18-29.3,15.6-35.6c-0.2-1-1-2-3.7-2.3
		c-19-1.8-27.2,28.3-27.2,28.5"/>
</g>
<g class="st1">
	<circle cx="233.5" cy="290.5" r="3.5"/>
	<circle cx="270" cy="269.3" r="3.5"/>
	<circle cx="298.5" cy="238.6" r="3.5"/>
	<circle cx="315.3" cy="194.8" r="3.5"/>
	<circle cx="335.3" cy="218" r="3.5"/>
	<circle cx="360.8" cy="241.7" r="3.5"/>
	<circle cx="390.4" cy="276.5" r="3.5"/>
	<circle cx="419.9" cy="311.2" r="3.5"/>
	<circle cx="449.4" cy="346" r="3.5"/>
	<circle cx="474.5" cy="376.2" r="3.5"/>
	<circle cx="464.4" cy="416.5" r="3.5"/>
	<circle cx="437.8" cy="451.9" r="3.5"/>
	<circle cx="390.8" cy="474.9" r="3.5"/>
	<circle cx="346.8" cy="471" r="3.5"/>
	<circle cx="316.7" cy="436.7" r="3.5"/>
	<circle cx="286.6" cy="402.5" r="3.5"/>
	<circle cx="256.5" cy="368.2" r="3.5"/>
	<circle cx="226.4" cy="333.9" r="3.5"/>
	<circle cx="196.3" cy="299.7" r="3.5"/>
</g>
</svg>
