<?xml version="1.0" encoding="utf-8"?>
<!-- Generator: Adobe Illustrator 22.1.0, SVG Export Plug-In . SVG Version: 6.00 Build 0)  -->
<svg version="1.1" id="Layer_1" xmlns="http://www.w3.org/2000/svg" xmlns:xlink="http://www.w3.org/1999/xlink" x="0px" y="0px"
	 viewBox="0 0 512 512" style="enable-background:new 0 0 512 512;" xml:space="preserve">
<style type="text/css">
	.st0{fill:none;stroke:#000000;stroke-width:5;stroke-linecap:round;stroke-linejoin:round;stroke-miterlimit:10;}
	.st1{opacity:0;}
</style>
<g>
	<rect x="200.3" y="251.4" class="st0" width="97.8" height="155.7"/>
	<path class="st0" d="M265.4,124.5h-32.4"/>
</g>
<g class="st1">
	<circle cx="265.7" cy="18.5" r="3.5"/>
	<circle cx="265.7" cy="62" r="3.5"/>
	<circle cx="268.7" cy="111.1" r="3.5"/>
	<circle cx="272.7" cy="150.1" r="3.5"/>
	<circle cx="300.6" cy="182.5" r="3.5"/>
	<circle cx="317.3" cy="215.9" r="3.5"/>
	<circle cx="317.3" cy="255.6" r="3.5"/>
	<circle cx="317.3" cy="302.4" r="3.5"/>
	<circle cx="317.3" cy="349.1" r="3.5"/>
	<circle cx="317.3" cy="395.8" r="3.5"/>
	<circle cx="317.3" cy="442.5" r="3.5"/>
	<circle cx="317.3" cy="491.8" r="3.5"/>
	<circle cx="272.6" cy="491.8" r="3.5"/>
	<circle cx="227.8" cy="491.8" r="3.5"/>
	<circle cx="183.1" cy="491.8" r="3.5"/>
	<circle cx="183.1" cy="448.2" r="3.5"/>
	<circle cx="183.1" cy="403.7" r="3.5"/>
	<circle cx="183.1" cy="359.2" r="3.5"/>
	<circle cx="183.1" cy="314.6" r="3.5"/>
	<circle cx="183.1" cy="270.1" r="3.5"/>
	<circle cx="183.1" cy="225.6" r="3.5"/>
	<circle cx="194.9" cy="186" r="3.5"/>
	<circle cx="227.1" cy="153.6" r="3.5"/>
	<circle cx="236" cy="111.5" r="3.5"/>
	<circle cx="236" cy="65.7" r="3.5"/>
	<circle cx="236" cy="18.5" r="3.5"/>
</g>
</svg>
