<?xml version="1.0" encoding="utf-8"?>
<!-- Generator: Adobe Illustrator 22.1.0, SVG Export Plug-In . SVG Version: 6.00 Build 0)  -->
<svg version="1.1" id="Layer_1" xmlns="http://www.w3.org/2000/svg" xmlns:xlink="http://www.w3.org/1999/xlink" x="0px" y="0px"
	 viewBox="0 0 512 512" style="enable-background:new 0 0 512 512;" xml:space="preserve">
<style type="text/css">
	.st0{fill:none;stroke:#000000;stroke-width:5;stroke-miterlimit:10;}
	.st1{opacity:0;}
</style>
<g>
	<path class="st0" d="M247,86.6V35.1c0-9,7.3-16.5,16.5-16.5c4.5,0,8.6,1.9,11.6,4.9c2.8,3,4.7,6.9,4.7,11.6v72.4"/>
	<path class="st0" d="M160.1,76.1c-9-21.4-9-43.4-9-43.4s45.6-7.3,73.4,16.7c25.9,22.1,27.6,63.2,27.6,69.3"/>
</g>
<g class="st1">
	<circle cx="278" cy="119" r="3.5"/>
	<circle cx="298.5" cy="101.4" r="3.5"/>
	<circle cx="334.4" cy="88.7" r="3.5"/>
	<circle cx="378.4" cy="88.9" r="3.5"/>
	<circle cx="423.4" cy="102.3" r="3.5"/>
	<circle cx="462.2" cy="128.9" r="3.5"/>
	<circle cx="487.6" cy="168.9" r="3.5"/>
	<circle cx="492.3" cy="222.6" r="3.5"/>
	<circle cx="478.8" cy="280.5" r="3.5"/>
	<circle cx="457.2" cy="333.1" r="3.5"/>
	<circle cx="430.5" cy="379.5" r="3.5"/>
	<circle cx="401.7" cy="418.7" r="3.5"/>
	<circle cx="373.9" cy="449.6" r="3.5"/>
	<circle cx="350.1" cy="471.2" r="3.5"/>
	<circle cx="326.2" cy="485" r="3.5"/>
	<circle cx="288.3" cy="469" r="3.5"/>
	<circle cx="250.4" cy="450.2" r="3.5"/>
	<circle cx="212.4" cy="475.1" r="3.5"/>
	<circle cx="173.3" cy="478.9" r="3.5"/>
	<circle cx="150.2" cy="460.6" r="3.5"/>
	<circle cx="122.6" cy="429.4" r="3.5"/>
	<circle cx="93.6" cy="388.8" r="3.5"/>
	<circle cx="66" cy="342.4" r="3.5"/>
	<circle cx="42.9" cy="293.6" r="3.5"/>
	<circle cx="27" cy="243.8" r="3.5"/>
	<circle cx="23.4" cy="193.9" r="3.5"/>
	<circle cx="35.4" cy="154" r="3.5"/>
	<circle cx="61" cy="122.9" r="3.5"/>
	<circle cx="98.1" cy="99.2" r="3.5"/>
	<circle cx="150.8" cy="81.9" r="3.5"/>
	<circle cx="207.6" cy="94.4" r="3.5"/>
	<circle cx="244.7" cy="124.3" r="3.5"/>
	<circle cx="258" cy="141" r="3.5"/>
</g>
</svg>
