<?xml version="1.0" encoding="utf-8"?>
<!-- Generator: Adobe Illustrator 22.1.0, SVG Export Plug-In . SVG Version: 6.00 Build 0)  -->
<svg version="1.1" id="Layer_1" xmlns="http://www.w3.org/2000/svg" xmlns:xlink="http://www.w3.org/1999/xlink" x="0px" y="0px"
	 viewBox="0 0 512 512" style="enable-background:new 0 0 512 512;" xml:space="preserve">
<style type="text/css">
	.st0{fill:none;stroke:#000000;stroke-width:5;stroke-linecap:round;stroke-linejoin:round;stroke-miterlimit:10;}
	.st1{opacity:0;}
</style>
<g>
	<path class="st0" d="M56.5,371.7l-40.6-14.2c-8.2-2.9-12.5-11.7-9.6-19.9l3.7-10.7c2.9-8.2,11.7-12.5,19.9-9.6l40.6,14.2"/>
	<path class="st0" d="M401.2,118.3V79.4c0-12.5,10-22.4,22.4-22.4h16.4c12.5,0,22.4,10,22.4,22.4v38.8"/>
</g>
<g class="st1">
	<circle cx="400" cy="130" r="3.5"/>
	<circle cx="388" cy="168.9" r="3.5"/>
	<circle cx="371.4" cy="211.1" r="3.5"/>
	<circle cx="344" cy="256.4" r="3.5"/>
	<circle cx="307.1" cy="294.7" r="3.5"/>
	<circle cx="259.9" cy="323.2" r="3.5"/>
	<circle cx="205.9" cy="338.7" r="3.5"/>
	<circle cx="141.4" cy="345.3" r="3.5"/>
	<circle cx="83.6" cy="342" r="3.5"/>
	<circle cx="64.1" cy="376.7" r="3.5"/>
	<circle cx="117" cy="404.6" r="3.5"/>
	<circle cx="172.9" cy="424.2" r="3.5"/>
	<circle cx="223.1" cy="433.3" r="3.5"/>
	<circle cx="271.2" cy="437.7" r="3.5"/>
	<circle cx="337.3" cy="422.8" r="3.5"/>
	<circle cx="379.4" cy="401.4" r="3.5"/>
	<circle cx="420.3" cy="368" r="3.5"/>
	<circle cx="445.1" cy="326.3" r="3.5"/>
	<circle cx="462.9" cy="273.8" r="3.5"/>
	<circle cx="467.5" cy="223.3" r="3.5"/>
	<circle cx="471.1" cy="171.6" r="3.5"/>
	<circle cx="462.9" cy="134" r="3.5"/>
	<circle cx="432" cy="134" r="3.5"/>
</g>
</svg>
