<?xml version="1.0" encoding="utf-8"?>
<!-- Generator: Adobe Illustrator 22.1.0, SVG Export Plug-In . SVG Version: 6.00 Build 0)  -->
<svg version="1.1" id="Layer_1" xmlns="http://www.w3.org/2000/svg" xmlns:xlink="http://www.w3.org/1999/xlink" x="0px" y="0px"
	 viewBox="0 0 512 512" style="enable-background:new 0 0 512 512;" xml:space="preserve">
<style type="text/css">
	.st0{fill:#FFFFFF;stroke:#000000;stroke-width:5;stroke-linecap:round;stroke-linejoin:round;stroke-miterlimit:10;}
	.st1{opacity:0;}
</style>
<path class="st0" d="M244.1,100V24.3c0-11.8,9.6-21.3,21.3-21.3c5.9,0,11.2,2.4,15,6.3c4.1,3.9,6.3,9.1,6.3,15v77.3"/>
<g class="st1">
	<circle cx="291.6" cy="113.8" r="3.5"/>
	<circle cx="312.6" cy="93.9" r="3.5"/>
	<circle cx="350.1" cy="91.1" r="3.5"/>
	<circle cx="391.5" cy="119.1" r="3.5"/>
	<circle cx="403.7" cy="152.1" r="3.5"/>
	<circle cx="404.1" cy="188.8" r="3.5"/>
	<circle cx="437.4" cy="192.7" r="3.5"/>
	<circle cx="468.7" cy="218" r="3.5"/>
	<circle cx="476.7" cy="247.7" r="3.5"/>
	<circle cx="461.6" cy="288.8" r="3.5"/>
	<circle cx="434.1" cy="309.3" r="3.5"/>
	<circle cx="401" cy="319.8" r="3.5"/>
	<circle cx="407.7" cy="349.1" r="3.5"/>
	<circle cx="406" cy="394.3" r="3.5"/>
	<circle cx="385.3" cy="429.6" r="3.5"/>
	<circle cx="353.4" cy="442" r="3.5"/>
	<circle cx="331.5" cy="443.3" r="3.5"/>
	<circle cx="308" cy="470.9" r="3.5"/>
	<circle cx="275.5" cy="488.4" r="3.5"/>
	<circle cx="233.1" cy="483.1" r="3.5"/>
	<circle cx="211.1" cy="454.8" r="3.5"/>
	<circle cx="207.4" cy="433.3" r="3.5"/>
	<circle cx="206.5" cy="413" r="3.5"/>
	<circle cx="173.7" cy="408" r="3.5"/>
	<circle cx="150.5" cy="398.1" r="3.5"/>
	<circle cx="126.4" cy="372.2" r="3.5"/>
	<circle cx="130.2" cy="342" r="3.5"/>
	<circle cx="135.8" cy="316" r="3.5"/>
	<circle cx="114.7" cy="313.3" r="3.5"/>
	<circle cx="90.2" cy="305" r="3.5"/>
	<circle cx="68.2" cy="285.1" r="3.5"/>
	<circle cx="54.7" cy="247.3" r="3.5"/>
	<circle cx="61" cy="205.5" r="3.5"/>
	<circle cx="87.9" cy="185.6" r="3.5"/>
	<circle cx="118.2" cy="179.8" r="3.5"/>
	<circle cx="134.8" cy="180" r="3.5"/>
	<circle cx="129.3" cy="160.4" r="3.5"/>
	<circle cx="134.1" cy="133.4" r="3.5"/>
	<circle cx="154.3" cy="110.1" r="3.5"/>
	<circle cx="193.4" cy="99.9" r="3.5"/>
	<circle cx="233.2" cy="107.7" r="3.5"/>
	<circle cx="270" cy="131" r="3.5"/>
</g>
</svg>
