<?xml version="1.0" encoding="utf-8"?>
<!-- Generator: Adobe Illustrator 22.1.0, SVG Export Plug-In . SVG Version: 6.00 Build 0)  -->
<svg version="1.1" id="Layer_1" xmlns="http://www.w3.org/2000/svg" xmlns:xlink="http://www.w3.org/1999/xlink" x="0px" y="0px"
	 viewBox="0 0 512 512" style="enable-background:new 0 0 512 512;" xml:space="preserve">
<style type="text/css">
	.st0{fill:none;stroke:#000000;stroke-width:5;stroke-linecap:round;stroke-linejoin:round;stroke-miterlimit:10;}
	.st1{opacity:0;}
</style>
<g>
	<path class="st0" d="M303.1,48.9c0,0-29.6,35.6-66.5,36s-67.3-34.7-67.3-34.7s29.6-35.6,66.5-36C272.7,13.8,303.1,48.9,303.1,48.9z
		"/>
	<path class="st0" d="M169.5,281.5c0,0,92-111,138.4-237.5c0,0,55.6,211.9,20.7,317.4"/>
	<circle class="st0" cx="324" cy="423" r="62"/>
</g>
<g class="st1">
	<circle cx="149.6" cy="293.4" r="3.5"/>
	<circle cx="173.4" cy="311.2" r="3.5"/>
	<circle cx="186.3" cy="338.3" r="3.5"/>
	<circle cx="184.6" cy="369.2" r="3.5"/>
	<circle cx="169.1" cy="394.5" r="3.5"/>
	<circle cx="143.7" cy="409.8" r="3.5"/>
	<circle cx="112.8" cy="411.2" r="3.5"/>
	<circle cx="85.9" cy="398.2" r="3.5"/>
	<circle cx="68.3" cy="374.5" r="3.5"/>
	<circle cx="63.8" cy="344" r="3.5"/>
	<circle cx="74.1" cy="315.8" r="3.5"/>
	<circle cx="96" cy="296" r="3.5"/>
	<circle cx="125.5" cy="288.5" r="3.5"/>
</g>
</svg>
