<?xml version="1.0" encoding="utf-8"?>
<!-- Generator: Adobe Illustrator 22.1.0, SVG Export Plug-In . SVG Version: 6.00 Build 0)  -->
<svg version="1.1" id="Layer_1" xmlns="http://www.w3.org/2000/svg" xmlns:xlink="http://www.w3.org/1999/xlink" x="0px" y="0px"
	 viewBox="0 0 512 512" style="enable-background:new 0 0 512 512;" xml:space="preserve">
<style type="text/css">
	.st0{fill:none;stroke:#000000;stroke-width:5;stroke-linecap:round;stroke-linejoin:round;stroke-miterlimit:10;}
	.st1{opacity:0;}
</style>
<g>
	<path class="st0" d="M249.5,12c-34.2,0-60.4,34.2-60.4,34.2S135,28,124.1,52.7"/>
	<path class="st0" d="M175.2,108.2c0,0-24.9-41.8,13.9-62C214.4,32.9,161.2,12,161.2,12"/>
	<path class="st0" d="M272.1,43.1c0,0-66-12.1-83,3"/>
</g>
<g class="st1">
	<circle cx="272.1" cy="51.6" r="3.5"/>
	<circle cx="315.1" cy="64.6" r="3.5"/>
	<circle cx="354.6" cy="89.4" r="3.5"/>
	<circle cx="388.9" cy="124.4" r="3.5"/>
	<circle cx="416.1" cy="168.1" r="3.5"/>
	<circle cx="434.6" cy="219.3" r="3.5"/>
	<circle cx="442.5" cy="275" r="3.5"/>
	<circle cx="438.7" cy="328.5" r="3.5"/>
	<circle cx="424.3" cy="377.2" r="3.5"/>
	<circle cx="400.4" cy="419.1" r="3.5"/>
	<circle cx="368" cy="452.1" r="3.5"/>
	<circle cx="328.3" cy="474.1" r="3.5"/>
	<circle cx="283" cy="482.9" r="3.5"/>
	<circle cx="238" cy="477.5" r="3.5"/>
	<circle cx="195.5" cy="459.2" r="3.5"/>
	<circle cx="157.4" cy="429.4" r="3.5"/>
	<circle cx="125.5" cy="389.7" r="3.5"/>
	<circle cx="101.7" cy="341.6" r="3.5"/>
	<circle cx="87.7" cy="286.7" r="3.5"/>
	<circle cx="85.6" cy="231.6" r="3.5"/>
	<circle cx="94.6" cy="180.2" r="3.5"/>
	<circle cx="113.7" cy="134.5" r="3.5"/>
	<circle cx="141.8" cy="96.6" r="3.5"/>
	<circle cx="177.9" cy="68.7" r="3.5"/>
	<circle cx="220.8" cy="52.7" r="3.5"/>
</g>
</svg>
