<?xml version="1.0" encoding="utf-8"?>
<!-- Generator: Adobe Illustrator 22.1.0, SVG Export Plug-In . SVG Version: 6.00 Build 0)  -->
<svg version="1.1" id="Layer_1" xmlns="http://www.w3.org/2000/svg" xmlns:xlink="http://www.w3.org/1999/xlink" x="0px" y="0px"
	 viewBox="0 0 512 512" style="enable-background:new 0 0 512 512;" xml:space="preserve">
<style type="text/css">
	.st0{fill:none;stroke:#000000;stroke-width:5;stroke-linecap:round;stroke-linejoin:round;stroke-miterlimit:10;}
	.st1{opacity:0;}
</style>
<g>
	<path class="st0" d="M212.7,397.7c-18.4,7.6-38.7,11.2-59.9,10.2C80,404.4,21.2,344.7,19,271.9c-1.5-50.6,23.8-95.3,62.7-121.3
		c19.7-13,35.9-30.7,46.3-51.7c13.6-27.7,22-52.7,26.6-69.2c1.3-4.5,7.8-4.5,9.1,0.2c4.1,15.8,10.2,34.4,16.9,52.7
		c9.7,27,28.1,50.1,52.5,65.1c22.7,13.8,41.1,33.9,52.7,57.9"/>
	<circle class="st0" cx="341.1" cy="343.2" r="112.4"/>
	<g>
		<line class="st0" x1="288.8" y1="282.7" x2="298.7" y2="292.2"/>
		<line class="st0" x1="334.8" y1="263.5" x2="336.6" y2="277.1"/>
		<line class="st0" x1="377.2" y1="272.1" x2="369.8" y2="283.6"/>
		<line class="st0" x1="413.9" y1="310.4" x2="401" y2="314.7"/>
		<line class="st0" x1="418.9" y1="361.2" x2="405.9" y2="356.9"/>
		<line class="st0" x1="390.6" y1="405.9" x2="383" y2="394.5"/>
		<line class="st0" x1="345" y1="423" x2="345.6" y2="409.4"/>
		<line class="st0" x1="294.2" y1="407.9" x2="303.3" y2="397.7"/>
		<line class="st0" x1="264.6" y1="366.4" x2="278" y2="363.6"/>
		<line class="st0" x1="263.7" y1="316" x2="277.6" y2="317.1"/>
	</g>
</g>
<g class="st1">
	<circle cx="337" cy="121" r="3.5"/>
	<circle cx="355.1" cy="157.3" r="3.5"/>
	<circle cx="366.9" cy="185.8" r="3.5"/>
	<circle cx="390.8" cy="209.6" r="3.5"/>
	<circle cx="428.6" cy="234" r="3.5"/>
	<circle cx="460.5" cy="270" r="3.5"/>
	<circle cx="476.6" cy="313.5" r="3.5"/>
	<circle cx="477.1" cy="364.7" r="3.5"/>
	<circle cx="464" cy="407.8" r="3.5"/>
	<circle cx="432.5" cy="455.5" r="3.5"/>
	<circle cx="392.6" cy="478.4" r="3.5"/>
	<circle cx="331.8" cy="487.4" r="3.5"/>
	<circle cx="274.5" cy="471.2" r="3.5"/>
	<circle cx="228.8" cy="433.7" r="3.5"/>
	<circle cx="207.9" cy="387.1" r="3.5"/>
	<circle cx="203.1" cy="343.3" r="3.5"/>
	<circle cx="208.1" cy="291.8" r="3.5"/>
	<circle cx="238.2" cy="248.6" r="3.5"/>
	<circle cx="270.9" cy="217.4" r="3.5"/>
	<circle cx="303.1" cy="193.1" r="3.5"/>
	<circle cx="321" cy="157" r="3.5"/>
</g>
</svg>
