<?xml version="1.0" encoding="utf-8"?>
<!-- Generator: Adobe Illustrator 22.1.0, SVG Export Plug-In . SVG Version: 6.00 Build 0)  -->
<svg version="1.1" id="Layer_1" xmlns="http://www.w3.org/2000/svg" xmlns:xlink="http://www.w3.org/1999/xlink" x="0px" y="0px"
	 viewBox="0 0 512 512" style="enable-background:new 0 0 512 512;" xml:space="preserve">
<style type="text/css">
	.st0{fill:none;stroke:#000000;stroke-width:5;stroke-linecap:round;stroke-linejoin:round;stroke-miterlimit:10;}
	.st1{opacity:0;}
</style>
<g>
	<path class="st0" d="M231.6,106.2l1.1-61c0.2-10.7,9.1-19.4,20-19.1c5.3,0,10.2,2.4,13.6,6c3.3,3.6,5.3,8.2,5.3,13.8l-1.3,67.4"/>
	<path class="st0" d="M131.7,144c-13.4-12.9-21.2-25.3-21.2-25.3s41.4-35.8,84.3-29.2c14.5,2.2,27.4,8.9,38.1,16.9"/>
</g>
<g class="st1">
	<circle cx="303.4" cy="121.1" r="3.5"/>
	<circle cx="348.3" cy="140.5" r="3.5"/>
	<circle cx="386.2" cy="170.3" r="3.5"/>
	<circle cx="415.3" cy="208.8" r="3.5"/>
	<circle cx="433.8" cy="254.1" r="3.5"/>
	<circle cx="440" cy="304.3" r="3.5"/>
	<circle cx="432.7" cy="354" r="3.5"/>
	<circle cx="413.3" cy="398.6" r="3.5"/>
	<circle cx="383.6" cy="436.2" r="3.5"/>
	<circle cx="345.4" cy="465.2" r="3.5"/>
	<circle cx="300.4" cy="483.7" r="3.5"/>
	<circle cx="250.4" cy="490" r="3.5"/>
	<circle cx="200.7" cy="482.9" r="3.5"/>
	<circle cx="156.1" cy="463.7" r="3.5"/>
	<circle cx="118.3" cy="434.2" r="3.5"/>
	<circle cx="89.2" cy="396" r="3.5"/>
	<circle cx="70.5" cy="351.1" r="3.5"/>
	<circle cx="64" cy="301.2" r="3.5"/>
	<circle cx="70.9" cy="251.4" r="3.5"/>
	<circle cx="89.9" cy="206.7" r="3.5"/>
	<circle cx="119.3" cy="168.8" r="3.5"/>
	<circle cx="157.3" cy="139.5" r="3.5"/>
	<circle cx="202.1" cy="120.7" r="3.5"/>
	<circle cx="252" cy="114" r="3.5"/>
</g>
</svg>
