<?xml version="1.0" encoding="utf-8"?>
<!-- Generator: Adobe Illustrator 22.1.0, SVG Export Plug-In . SVG Version: 6.00 Build 0)  -->
<svg version="1.1" id="Layer_1" xmlns="http://www.w3.org/2000/svg" xmlns:xlink="http://www.w3.org/1999/xlink" x="0px" y="0px"
	 viewBox="0 0 512 512" style="enable-background:new 0 0 512 512;" xml:space="preserve">
<style type="text/css">
	.st0{fill:none;stroke:#000000;stroke-width:5;stroke-linecap:round;stroke-linejoin:round;stroke-miterlimit:10;}
	.st1{opacity:0;}
</style>
<g>
	<g>
		<path class="st0" d="M190.8,90.8l-14.7-46.2c-2.2-6.8,1.6-14.3,8.4-16.5c6.8-2.2,14.3,1.6,16.5,8.4l15.9,50.3"/>
	</g>
	<path class="st0" d="M100.1,177.5c-8,0.2-13.1-0.4-13.1-0.4s-3.4-53.9,27.5-83.6C134.9,74,165,69.5,183.3,68.9"/>
</g>
<g class="st1">
	<circle cx="205.5" cy="113.5" r="3.5"/>
	<circle cx="183.5" cy="95.5" r="3.5"/>
	<circle cx="155.5" cy="95.5" r="3.5"/>
	<circle cx="126.5" cy="108.5" r="3.5"/>
	<circle cx="104.5" cy="135.5" r="3.5"/>
	<circle cx="103.5" cy="170.5" r="3.5"/>
	<circle cx="112.5" cy="197.5" r="3.5"/>
	<circle cx="86.5" cy="207.5" r="3.5"/>
	<circle cx="67.5" cy="235.5" r="3.5"/>
	<circle cx="67.5" cy="267.5" r="3.5"/>
	<circle cx="81.5" cy="297.5" r="3.5"/>
	<circle cx="112.5" cy="317.5" r="3.5"/>
	<circle cx="146.5" cy="320.5" r="3.5"/>
	<circle cx="139.5" cy="354.5" r="3.5"/>
	<circle cx="150.5" cy="390.5" r="3.5"/>
	<circle cx="183.5" cy="413.5" r="3.5"/>
	<circle cx="216.5" cy="416.5" r="3.5"/>
	<circle cx="242.5" cy="410.5" r="3.5"/>
	<circle cx="233.5" cy="445.5" r="3.5"/>
	<circle cx="239.5" cy="476.5" r="3.5"/>
	<circle cx="271.5" cy="495.5" r="3.5"/>
	<circle cx="316.5" cy="495.5" r="3.5"/>
	<circle cx="356.5" cy="476.5" r="3.5"/>
	<circle cx="362.5" cy="438.5" r="3.5"/>
	<circle cx="357.5" cy="404.5" r="3.5"/>
	<circle cx="340.5" cy="376.5" r="3.5"/>
	<circle cx="378.5" cy="366.5" r="3.5"/>
	<circle cx="396.5" cy="333.5" r="3.5"/>
	<circle cx="392.5" cy="302.5" r="3.5"/>
	<circle cx="381.5" cy="280.5" r="3.5"/>
	<circle cx="365.5" cy="263.5" r="3.5"/>
	<circle cx="399.5" cy="255.5" r="3.5"/>
	<circle cx="418.5" cy="232.5" r="3.5"/>
	<circle cx="426.5" cy="202.5" r="3.5"/>
	<circle cx="418.5" cy="170.5" r="3.5"/>
	<circle cx="396.5" cy="145.5" r="3.5"/>
	<circle cx="365.5" cy="140.5" r="3.5"/>
	<circle cx="330.5" cy="142.5" r="3.5"/>
	<circle cx="335.5" cy="108.5" r="3.5"/>
	<circle cx="319.5" cy="78.5" r="3.5"/>
	<circle cx="289.5" cy="68.5" r="3.5"/>
	<circle cx="255.5" cy="69.5" r="3.5"/>
	<circle cx="231.5" cy="84.5" r="3.5"/>
</g>
</svg>
