<?xml version="1.0" encoding="utf-8"?>
<!-- Generator: Adobe Illustrator 22.1.0, SVG Export Plug-In . SVG Version: 6.00 Build 0)  -->
<svg version="1.1" id="Layer_1" xmlns="http://www.w3.org/2000/svg" xmlns:xlink="http://www.w3.org/1999/xlink" x="0px" y="0px"
	 viewBox="0 0 512 512" style="enable-background:new 0 0 512 512;" xml:space="preserve">
<style type="text/css">
	.st0{fill:none;stroke:#000000;stroke-width:5;stroke-linecap:round;stroke-linejoin:round;stroke-miterlimit:10;}
	.st1{opacity:0;}
</style>
<g>
	<path class="st0" d="M244.5,85.7l1.2-63.9c0.2-6.8,5.8-12.4,12.6-12.4h0.2c7,0.2,12.4,5.8,12.4,12.8l-1,52.1"/>
	<path class="st0" d="M179.8,155.6c-46.2,13.4-97.9-11-97.9-11s18.6-64.4,67.3-86.7c33.3-15.2,72.2-6.5,93.6,0.6"/>
</g>
<g class="st1">
	<circle cx="300.8" cy="96.8" r="3.5"/>
	<circle cx="331.4" cy="135.3" r="3.5"/>
	<circle cx="337.8" cy="185.9" r="3.5"/>
	<circle cx="354.6" cy="233.2" r="3.5"/>
	<circle cx="383.5" cy="274.1" r="3.5"/>
	<circle cx="401.3" cy="320.8" r="3.5"/>
	<circle cx="401.9" cy="372.9" r="3.5"/>
	<circle cx="385.2" cy="420.2" r="3.5"/>
	<circle cx="354.1" cy="458.4" r="3.5"/>
	<circle cx="311.9" cy="484.3" r="3.5"/>
	<circle cx="261.8" cy="494.6" r="3.5"/>
	<circle cx="210.8" cy="486.8" r="3.5"/>
	<circle cx="167.1" cy="462.8" r="3.5"/>
	<circle cx="134.1" cy="425.9" r="3.5"/>
	<circle cx="115.1" cy="379.4" r="3.5"/>
	<circle cx="113.3" cy="327.4" r="3.5"/>
	<circle cx="129.1" cy="279.8" r="3.5"/>
	<circle cx="157.9" cy="239.2" r="3.5"/>
	<circle cx="176.9" cy="192.8" r="3.5"/>
	<circle cx="182.8" cy="142" r="3.5"/>
	<circle cx="209.9" cy="100.9" r="3.5"/>
	<circle cx="256.7" cy="83.9" r="3.5"/>
</g>
</svg>
