<?xml version="1.0" encoding="utf-8"?>
<!-- Generator: Adobe Illustrator 22.1.0, SVG Export Plug-In . SVG Version: 6.00 Build 0)  -->
<svg version="1.1" id="Layer_1" xmlns="http://www.w3.org/2000/svg" xmlns:xlink="http://www.w3.org/1999/xlink" x="0px" y="0px"
	 viewBox="0 0 512 512" style="enable-background:new 0 0 512 512;" xml:space="preserve">
<style type="text/css">
	.st0{fill:none;stroke:#000000;stroke-width:5;stroke-linecap:round;stroke-linejoin:round;stroke-miterlimit:10;}
	.st1{opacity:0;}
</style>
<g>
	<path class="st0" d="M96.5,84.4L57,29.1c-3.8-5-2.4-11.8,2.4-15.6c5-3.4,11.8-2.4,15.6,2.4l40,55.7"/>
</g>
<g class="st1">
	<circle cx="131" cy="74" r="3.5"/>
	<circle cx="174" cy="60.3" r="3.5"/>
	<circle cx="223.4" cy="67.1" r="3.5"/>
	<circle cx="275.1" cy="88.3" r="3.5"/>
	<circle cx="324.9" cy="117.4" r="3.5"/>
	<circle cx="368.7" cy="148.4" r="3.5"/>
	<circle cx="402.3" cy="174.7" r="3.5"/>
	<circle cx="424.1" cy="194.3" r="3.5"/>
	<circle cx="442.5" cy="227.1" r="3.5"/>
	<circle cx="455.2" cy="272.2" r="3.5"/>
	<circle cx="458.4" cy="324.1" r="3.5"/>
	<circle cx="448.2" cy="377.3" r="3.5"/>
	<circle cx="420.7" cy="426.5" r="3.5"/>
	<circle cx="371.8" cy="467" r="3.5"/>
	<circle cx="318" cy="489.3" r="3.5"/>
	<circle cx="267.8" cy="493.3" r="3.5"/>
	<circle cx="222.1" cy="483.9" r="3.5"/>
	<circle cx="182" cy="466.1" r="3.5"/>
	<circle cx="148.4" cy="444.7" r="3.5"/>
	<circle cx="121" cy="415.9" r="3.5"/>
	<circle cx="100.7" cy="374.4" r="3.5"/>
	<circle cx="86.1" cy="324.8" r="3.5"/>
	<circle cx="75.7" cy="271.6" r="3.5"/>
	<circle cx="68.2" cy="219.5" r="3.5"/>
	<circle cx="69" cy="150" r="3.5"/>
	<circle cx="96.6" cy="103.6" r="3.5"/>
	<circle cx="115" cy="90" r="3.5"/>
</g>
</svg>
