<?xml version="1.0" encoding="utf-8"?>
<!-- Generator: Adobe Illustrator 22.1.0, SVG Export Plug-In . SVG Version: 6.00 Build 0)  -->
<svg version="1.1" id="Layer_1" xmlns="http://www.w3.org/2000/svg" xmlns:xlink="http://www.w3.org/1999/xlink" x="0px" y="0px"
	 viewBox="0 0 512 512" style="enable-background:new 0 0 512 512;" xml:space="preserve">
<style type="text/css">
	.st0{fill:none;stroke:#000000;stroke-width:5;stroke-linecap:round;stroke-linejoin:round;stroke-miterlimit:10;}
	.st1{opacity:0;}
</style>
<g>
	<g>
		<path class="st0" d="M216.7,58.3l-4.8-31.6c-0.8-6,3.3-11.4,9.3-12.6c6-0.8,11.4,3.3,12.6,9.3l4.8,31.8"/>
	</g>
	<path class="st0" d="M40.4,201c-15.9-2.1-26.2-5-26.2-5s9.7-89.2,68.9-129C126.8,37.6,185.4,43.1,213,48"/>
</g>
<g class="st1">
	<circle cx="314.9" cy="61.9" r="3.5"/>
	<circle cx="361" cy="82.1" r="3.5"/>
	<circle cx="400.6" cy="112.2" r="3.5"/>
	<circle cx="432" cy="150.7" r="3.5"/>
	<circle cx="453.8" cy="195.9" r="3.5"/>
	<circle cx="464.3" cy="246.3" r="3.5"/>
	<circle cx="462.1" cy="298.8" r="3.5"/>
	<circle cx="447.9" cy="347.4" r="3.5"/>
	<circle cx="423" cy="390.4" r="3.5"/>
	<circle cx="389" cy="426.2" r="3.5"/>
	<circle cx="347.5" cy="453.2" r="3.5"/>
	<circle cx="300" cy="470" r="3.5"/>
	<circle cx="248.1" cy="474.9" r="3.5"/>
	<circle cx="197" cy="467.2" r="3.5"/>
	<circle cx="150.7" cy="448" r="3.5"/>
	<circle cx="110.7" cy="418.9" r="3.5"/>
	<circle cx="78.7" cy="381.4" r="3.5"/>
	<circle cx="56" cy="337" r="3.5"/>
	<circle cx="44.3" cy="287.4" r="3.5"/>
	<circle cx="45" cy="234.9" r="3.5"/>
	<circle cx="58" cy="185.7" r="3.5"/>
	<circle cx="81.8" cy="142.1" r="3.5"/>
	<circle cx="114.8" cy="105.4" r="3.5"/>
	<circle cx="155.6" cy="77.3" r="3.5"/>
	<circle cx="202.5" cy="59.3" r="3.5"/>
	<circle cx="254" cy="53" r="3.5"/>
</g>
</svg>
