<?xml version="1.0" encoding="utf-8"?>
<!-- Generator: Adobe Illustrator 22.1.0, SVG Export Plug-In . SVG Version: 6.00 Build 0)  -->
<svg version="1.1" id="Layer_1" xmlns="http://www.w3.org/2000/svg" xmlns:xlink="http://www.w3.org/1999/xlink" x="0px" y="0px"
	 viewBox="0 0 512 512" style="enable-background:new 0 0 512 512;" xml:space="preserve">
<style type="text/css">
	.st0{fill:none;stroke:#000000;stroke-width:5;stroke-linecap:round;stroke-linejoin:round;stroke-miterlimit:10;}
	.st1{opacity:0;}
</style>
<path class="st0" d="M279.8,50c0,0-32.2,38.5-72.1,39.2c-40,0.2-72.8-37.5-72.8-37.5s32.2-38.5,72.1-39.2
	C246.9,11.9,279.8,50,279.8,50z"/>
<path class="st0" d="M236.8,129.4c20.2-24.5,48.2-64.7,49.1-98.9"/>
<g class="st1">
	<circle cx="323" cy="138" r="3.5"/>
	<circle cx="364.5" cy="162" r="3.5"/>
	<circle cx="398.8" cy="200.3" r="3.5"/>
	<circle cx="414.9" cy="247.3" r="3.5"/>
	<circle cx="422" cy="305.2" r="3.5"/>
	<circle cx="409.4" cy="348.8" r="3.5"/>
	<circle cx="388.7" cy="396.8" r="3.5"/>
	<circle cx="353" cy="439.9" r="3.5"/>
	<circle cx="310.7" cy="477.7" r="3.5"/>
	<circle cx="265.4" cy="498" r="3.5"/>
	<circle cx="221.7" cy="495.2" r="3.5"/>
	<circle cx="184.6" cy="470.3" r="3.5"/>
	<circle cx="152.6" cy="433.4" r="3.5"/>
	<circle cx="123.4" cy="393.5" r="3.5"/>
	<circle cx="101.4" cy="348.8" r="3.5"/>
	<circle cx="93.3" cy="301.4" r="3.5"/>
	<circle cx="98" cy="252.8" r="3.5"/>
	<circle cx="114.6" cy="204.1" r="3.5"/>
	<circle cx="152.1" cy="158.9" r="3.5"/>
	<circle cx="210.6" cy="136.2" r="3.5"/>
	<circle cx="256.4" cy="128.3" r="3.5"/>
	<circle cx="288" cy="129" r="3.5"/>
</g>
</svg>
