<?xml version="1.0" encoding="utf-8"?>
<!-- Generator: Adobe Illustrator 22.1.0, SVG Export Plug-In . SVG Version: 6.00 Build 0)  -->
<svg version="1.1" id="Layer_1" xmlns="http://www.w3.org/2000/svg" xmlns:xlink="http://www.w3.org/1999/xlink" x="0px" y="0px"
	 viewBox="0 0 512 512" style="enable-background:new 0 0 512 512;" xml:space="preserve">
<style type="text/css">
	.st0{fill:none;stroke:#000000;stroke-width:5;stroke-linecap:round;stroke-linejoin:round;stroke-miterlimit:10;}
	.st1{opacity:0;}
</style>
<g>
	<path class="st0" d="M279.9,176.5c38.5-60.9,24-121.3,23.8-122.2c0-0.2-0.2-0.6-0.2-0.8c-52-15.7-92.6-16.5-93-16.5
		c-4.7,0-8.4-3.9-8.4-8.6s3.9-8.4,8.4-8.4c0,0,0,0,0.2,0c3.9,0,95.5,1.8,184.2,55.3c4.1,2.4,5.3,7.7,2.9,11.8
		c-1.8,2.6-4.7,3.9-7.5,3.9c-1.6,0-2.9-0.4-4.3-1.2c-21.6-12.9-43.4-22.8-64-30.2c3,20.6,5.8,71.4-26,123.2"/>
</g>
<g class="st1">
	<circle cx="344.5" cy="237.5" r="3.5"/>
	<circle cx="359.8" cy="274.9" r="3.5"/>
	<circle cx="367" cy="324.5" r="3.5"/>
	<circle cx="359.3" cy="380.6" r="3.5"/>
	<circle cx="341.3" cy="420.4" r="3.5"/>
	<circle cx="309.5" cy="461.5" r="3.5"/>
	<circle cx="270.9" cy="485.5" r="3.5"/>
	<circle cx="224.6" cy="490.1" r="3.5"/>
	<circle cx="188.5" cy="468.2" r="3.5"/>
	<circle cx="165.4" cy="434.6" r="3.5"/>
	<circle cx="143.1" cy="383.9" r="3.5"/>
	<circle cx="136.6" cy="335.2" r="3.5"/>
	<circle cx="140" cy="281.8" r="3.5"/>
	<circle cx="169.3" cy="234.3" r="3.5"/>
	<circle cx="221" cy="203.7" r="3.5"/>
	<circle cx="271.7" cy="199" r="3.5"/>
	<circle cx="312.5" cy="207.5" r="3.5"/>
</g>
</svg>
