<?xml version="1.0" encoding="utf-8"?>
<!-- Generator: Adobe Illustrator 22.1.0, SVG Export Plug-In . SVG Version: 6.00 Build 0)  -->
<svg version="1.1" id="Layer_1" xmlns="http://www.w3.org/2000/svg" xmlns:xlink="http://www.w3.org/1999/xlink" x="0px" y="0px"
	 viewBox="0 0 512 512" style="enable-background:new 0 0 512 512;" xml:space="preserve">
<style type="text/css">
	.st0{fill:none;stroke:#000000;stroke-width:5;stroke-linecap:round;stroke-linejoin:round;stroke-miterlimit:10;}
	.st1{opacity:0;}
</style>
<g>
	<path class="st0" d="M319.1,48.6c-1.4,7.2-7.6,12.2-14.8,12.2c-1,0-2,0-2.8-0.2l-20.8-4l17.6,22c5.2,6.4,4.2,16-2.4,21
		c-2.8,2.2-6,3.2-9.4,3.2c-4.4,0-8.8-2-11.8-5.6L247,62.6l-4,41.2c-0.8,7.8-7.2,13.6-15,13.6c-0.4,0-1,0-1.4,0
		c-8.2-0.8-14.2-8.2-13.4-16.4l2.4-25l-14.4,18c-3,3.8-7.4,5.6-11.8,5.6c-3.2,0-6.6-1-9.4-3.2c-6.6-5.2-7.6-14.6-2.4-21L193.7,55
		l-27.8,5.4c-1,0.2-2,0.2-2.8,0.2c-7,0-13.4-5-14.6-12.2c-1.6-8.2,3.8-16,11.8-17.6l69.1-13.4c1.4-0.2,3-0.4,4.4-0.2
		c1.4-0.2,2.8,0,4.4,0.2L307,30.8C315.3,32.6,320.5,40.6,319.1,48.6z"/>
	<path class="st0" d="M140.3,177.7c0-9.2,7.4-16.6,16.6-16.6s16.6,7.4,16.6,16.6s-7.4,16.6-16.6,16.6S140.3,186.9,140.3,177.7z
		 M166.1,279.4c-9.2,0-16.6-7.4-16.6-16.6c0-9.2,7.4-16.6,16.6-16.6s16.6,7.4,16.6,16.6C182.7,272,175.3,279.4,166.1,279.4z
		 M232.4,260.4c-9.2,0-16.6-7.4-16.6-16.6s7.4-16.6,16.6-16.6s16.6,7.4,16.6,16.6S241.4,260.4,232.4,260.4z M279.6,397.5
		c-9.2,0-16.6-7.4-16.6-16.6c0-9.2,7.4-16.6,16.6-16.6c9.2,0,16.6,7.4,16.6,16.6C296,390.1,288.6,397.5,279.6,397.5z M341.1,369.1
		c-9.2,0-16.6-7.4-16.6-16.6c0-9.2,7.4-16.6,16.6-16.6s16.6,7.4,16.6,16.6C357.5,361.7,350.1,369.1,341.1,369.1z"/>
</g>
<g class="st1">
	<circle cx="163.2" cy="51.2" r="3.5"/>
	<circle cx="200" cy="40.1" r="3.5"/>
	<circle cx="250.6" cy="32.8" r="3.5"/>
	<circle cx="305.8" cy="38.5" r="3.5"/>
	<circle cx="349" cy="55.6" r="3.5"/>
	<circle cx="381.4" cy="79.3" r="3.5"/>
	<circle cx="404.2" cy="108.7" r="3.5"/>
	<circle cx="418.3" cy="142.5" r="3.5"/>
	<circle cx="424.8" cy="179.6" r="3.5"/>
	<circle cx="424.8" cy="218.8" r="3.5"/>
	<circle cx="419.3" cy="259" r="3.5"/>
	<circle cx="409.5" cy="299" r="3.5"/>
	<circle cx="396.2" cy="338.2" r="3.5"/>
	<circle cx="374.6" cy="385.6" r="3.5"/>
	<circle cx="349.4" cy="426.3" r="3.5"/>
	<circle cx="321.4" cy="459.1" r="3.5"/>
	<circle cx="291.5" cy="482.4" r="3.5"/>
	<circle cx="260.8" cy="494.9" r="3.5"/>
	<circle cx="230.1" cy="495.3" r="3.5"/>
	<circle cx="202" cy="483.3" r="3.5"/>
	<circle cx="177.6" cy="463" r="3.5"/>
	<circle cx="153.6" cy="435.3" r="3.5"/>
	<circle cx="130.7" cy="401.6" r="3.5"/>
	<circle cx="109.7" cy="363.6" r="3.5"/>
	<circle cx="91.4" cy="322.9" r="3.5"/>
	<circle cx="76.4" cy="281.1" r="3.5"/>
	<circle cx="65.5" cy="239.8" r="3.5"/>
	<circle cx="59" cy="194.6" r="3.5"/>
	<circle cx="68.2" cy="134.8" r="3.5"/>
	<circle cx="92.8" cy="95.4" r="3.5"/>
	<circle cx="130" cy="67" r="3.5"/>
</g>
</svg>
