<?xml version="1.0" encoding="utf-8"?>
<!-- Generator: Adobe Illustrator 22.1.0, SVG Export Plug-In . SVG Version: 6.00 Build 0)  -->
<svg version="1.1" id="Layer_1" xmlns="http://www.w3.org/2000/svg" xmlns:xlink="http://www.w3.org/1999/xlink" x="0px" y="0px"
	 viewBox="0 0 512 512" style="enable-background:new 0 0 512 512;" xml:space="preserve">
<style type="text/css">
	.st0{fill:none;stroke:#000000;stroke-width:5;stroke-linecap:round;stroke-linejoin:round;stroke-miterlimit:10;}
	.st1{opacity:0;}
</style>
<g>
	<line class="st0" x1="268.5" y1="249.7" x2="341.6" y2="333.5"/>
	<line class="st0" x1="204.4" y1="241.4" x2="343.1" y2="400.2"/>
	<line class="st0" x1="169" y1="268.4" x2="325.8" y2="449.1"/>
	<line class="st0" x1="151.9" y1="317.2" x2="291.2" y2="476.5"/>
	<line class="st0" x1="147" y1="378.8" x2="241.5" y2="489.2"/>
	<line class="st0" x1="268.5" y1="486.5" x2="343.1" y2="400.2"/>
	<line class="st0" x1="219.1" y1="483.3" x2="343.1" y2="344.6"/>
	<line class="st0" x1="186.3" y1="466.4" x2="335" y2="291.5"/>
	<line class="st0" x1="159.7" y1="436.5" x2="315.3" y2="257.1"/>
	<line class="st0" x1="147" y1="391.2" x2="268.5" y2="249.7"/>
	<line class="st0" x1="150.3" y1="324.6" x2="215.8" y2="250.5"/>
</g>
<g class="st1">
	<circle cx="203" cy="232" r="3.5"/>
	<circle cx="172.1" cy="250.8" r="3.5"/>
	<circle cx="148.7" cy="286.2" r="3.5"/>
	<circle cx="137.1" cy="327.2" r="3.5"/>
	<circle cx="136.1" cy="360.5" r="3.5"/>
	<circle cx="141" cy="393.4" r="3.5"/>
	<circle cx="150.4" cy="424.3" r="3.5"/>
	<circle cx="163" cy="451.7" r="3.5"/>
	<circle cx="177.5" cy="473.8" r="3.5"/>
	<circle cx="193.4" cy="489.6" r="3.5"/>
	<circle cx="218.9" cy="500.3" r="3.5"/>
	<circle cx="250" cy="502.9" r="3.5"/>
	<circle cx="281.9" cy="497.5" r="3.5"/>
	<circle cx="309.9" cy="484.6" r="3.5"/>
	<circle cx="329.7" cy="463.6" r="3.5"/>
	<circle cx="344.8" cy="435.4" r="3.5"/>
	<circle cx="354.9" cy="406" r="3.5"/>
	<circle cx="359.7" cy="377" r="3.5"/>
	<circle cx="359" cy="349.8" r="3.5"/>
	<circle cx="355.6" cy="323.4" r="3.5"/>
	<circle cx="349.8" cy="294.3" r="3.5"/>
	<circle cx="338.7" cy="266" r="3.5"/>
	<circle cx="324.9" cy="245.6" r="3.5"/>
	<circle cx="307.7" cy="228.6" r="3.5"/>
	<circle cx="325.3" cy="205.7" r="3.5"/>
	<circle cx="351.5" cy="171.4" r="3.5"/>
	<circle cx="377" cy="137.3" r="3.5"/>
	<circle cx="392.7" cy="115" r="3.5"/>
	<circle cx="358.9" cy="131.5" r="3.5"/>
	<circle cx="321.1" cy="153.5" r="3.5"/>
	<circle cx="291.6" cy="169.7" r="3.5"/>
	<circle cx="279.8" cy="153.7" r="3.5"/>
	<circle cx="268.1" cy="127.5" r="3.5"/>
	<circle cx="256.8" cy="103.2" r="3.5"/>
	<circle cx="245.1" cy="74.7" r="3.5"/>
	<circle cx="232.4" cy="44.8" r="3.5"/>
	<circle cx="229" cy="67.2" r="3.5"/>
	<circle cx="225" cy="97" r="3.5"/>
	<circle cx="221.1" cy="126.9" r="3.5"/>
	<circle cx="217.2" cy="156.7" r="3.5"/>
	<circle cx="213.2" cy="180.7" r="3.5"/>
	<circle cx="187.1" cy="172.4" r="3.5"/>
	<circle cx="144.6" cy="158.9" r="3.5"/>
	<circle cx="113.2" cy="149.5" r="3.5"/>
	<circle cx="137.2" cy="172.1" r="3.5"/>
	<circle cx="159.3" cy="198.8" r="3.5"/>
	<circle cx="183" cy="216" r="3.5"/>
</g>
</svg>
