<?xml version="1.0" encoding="utf-8"?>
<!-- Generator: Adobe Illustrator 22.1.0, SVG Export Plug-In . SVG Version: 6.00 Build 0)  -->
<svg version="1.1" id="Layer_1" xmlns="http://www.w3.org/2000/svg" xmlns:xlink="http://www.w3.org/1999/xlink" x="0px" y="0px"
	 viewBox="0 0 512 512" style="enable-background:new 0 0 512 512;" xml:space="preserve">
<style type="text/css">
	.st0{fill:none;stroke:#000000;stroke-width:5;stroke-linecap:round;stroke-linejoin:round;stroke-miterlimit:10;}
	.st1{opacity:0;}
</style>
<path class="st0" d="M219,135c0,0-65.5,18.5-88,96"/>
<g class="st1">
	<circle cx="196.5" cy="107.5" r="3.5"/>
	<circle cx="148.5" cy="127.5" r="3.5"/>
	<circle cx="109.5" cy="165.5" r="3.5"/>
	<circle cx="81.5" cy="206.5" r="3.5"/>
	<circle cx="67.5" cy="252.5" r="3.5"/>
	<circle cx="63.5" cy="309.5" r="3.5"/>
	<circle cx="73.5" cy="351.5" r="3.5"/>
	<circle cx="94.5" cy="398.5" r="3.5"/>
	<circle cx="127.5" cy="431.5" r="3.5"/>
	<circle cx="162.5" cy="453.5" r="3.5"/>
	<circle cx="200.5" cy="470.5" r="3.5"/>
	<circle cx="236.5" cy="474.5" r="3.5"/>
	<circle cx="234.5" cy="496.5" r="3.5"/>
	<circle cx="250.5" cy="486.5" r="3.5"/>
	<circle cx="270.5" cy="496.5" r="3.5"/>
	<circle cx="267.5" cy="473.5" r="3.5"/>
	<circle cx="303.5" cy="466.5" r="3.5"/>
	<circle cx="347.5" cy="448.5" r="3.5"/>
	<circle cx="383.5" cy="428.5" r="3.5"/>
	<circle cx="410.5" cy="398.5" r="3.5"/>
	<circle cx="437.5" cy="354.5" r="3.5"/>
	<circle cx="446.5" cy="305.5" r="3.5"/>
	<circle cx="442.5" cy="255.5" r="3.5"/>
	<circle cx="429.5" cy="213.5" r="3.5"/>
	<circle cx="403.5" cy="175.5" r="3.5"/>
	<circle cx="373.5" cy="139.5" r="3.5"/>
	<circle cx="332.5" cy="110.5" r="3.5"/>
	<circle cx="303.5" cy="101.5" r="3.5"/>
	<circle cx="307.5" cy="75.5" r="3.5"/>
	<circle cx="311.5" cy="54.5" r="3.5"/>
	<circle cx="292.5" cy="60.5" r="3.5"/>
	<circle cx="272.5" cy="65.5" r="3.5"/>
	<circle cx="267.5" cy="41.5" r="3.5"/>
	<circle cx="259.5" cy="10.5" r="3.5"/>
	<circle cx="250.5" cy="36.5" r="3.5"/>
	<circle cx="241.5" cy="65.5" r="3.5"/>
	<circle cx="228.5" cy="55.5" r="3.5"/>
	<circle cx="204.5" cy="45.5" r="3.5"/>
	<circle cx="209.5" cy="70.5" r="3.5"/>
	<circle cx="219.5" cy="100.5" r="3.5"/>
</g>
</svg>
