<?xml version="1.0" encoding="utf-8"?>
<!-- Generator: Adobe Illustrator 22.1.0, SVG Export Plug-In . SVG Version: 6.00 Build 0)  -->
<svg version="1.1" id="Layer_1" xmlns="http://www.w3.org/2000/svg" xmlns:xlink="http://www.w3.org/1999/xlink" x="0px" y="0px"
	 viewBox="0 0 512 512" style="enable-background:new 0 0 512 512;" xml:space="preserve">
<style type="text/css">
	.st0{fill:none;stroke:#000000;stroke-width:5;stroke-linecap:round;stroke-linejoin:round;stroke-miterlimit:10;}
	.st1{opacity:0;}
</style>
<path class="st0" d="M259.3,122.3c0.4-3.4,1.1-6.9,1.9-10.6c-14.6,1.3-48,1.9-71.1-16.8c-30.4-24.7-31-74-31-74s48.2-8.9,78.6,15.8
	c19.1,15.4,26.4,40.5,29.3,57.2c6.9-16.2,19.1-32,40.5-41.2c3.5-1.5,7.3,0.2,8.9,3.5c1.5,3.5-0.2,7.3-3.5,8.9
	c-25.8,11-35.6,34-39.2,53"/>
<g class="st1">
	<circle cx="295.5" cy="129.5" r="3.5"/>
	<circle cx="331.1" cy="129" r="3.5"/>
	<circle cx="353" cy="166.6" r="3.5"/>
	<circle cx="368.9" cy="194.4" r="3.5"/>
	<circle cx="386.9" cy="224.5" r="3.5"/>
	<circle cx="400.6" cy="252.7" r="3.5"/>
	<circle cx="419.5" cy="295.6" r="3.5"/>
	<circle cx="421.6" cy="342.7" r="3.5"/>
	<circle cx="400.2" cy="384.1" r="3.5"/>
	<circle cx="365.5" cy="422.4" r="3.5"/>
	<circle cx="338.8" cy="447.4" r="3.5"/>
	<circle cx="313.7" cy="465" r="3.5"/>
	<circle cx="306" cy="492.4" r="3.5"/>
	<circle cx="267.1" cy="483.3" r="3.5"/>
	<circle cx="229.8" cy="495.8" r="3.5"/>
	<circle cx="212.6" cy="469.8" r="3.5"/>
	<circle cx="186.5" cy="450.9" r="3.5"/>
	<circle cx="155.2" cy="426.4" r="3.5"/>
	<circle cx="123.3" cy="389.4" r="3.5"/>
	<circle cx="107.2" cy="351.5" r="3.5"/>
	<circle cx="104.3" cy="315.8" r="3.5"/>
	<circle cx="112.8" cy="284.5" r="3.5"/>
	<circle cx="130.9" cy="239.5" r="3.5"/>
	<circle cx="151.1" cy="194.2" r="3.5"/>
	<circle cx="165.6" cy="163.3" r="3.5"/>
	<circle cx="186.6" cy="134.3" r="3.5"/>
	<circle cx="226.4" cy="136.5" r="3.5"/>
	<circle cx="263.5" cy="139.5" r="3.5"/>
</g>
</svg>
