<?xml version="1.0" encoding="utf-8"?>
<!-- Generator: Adobe Illustrator 22.1.0, SVG Export Plug-In . SVG Version: 6.00 Build 0)  -->
<svg version="1.1" id="Layer_1" xmlns="http://www.w3.org/2000/svg" xmlns:xlink="http://www.w3.org/1999/xlink" x="0px" y="0px"
	 viewBox="0 0 512 512" style="enable-background:new 0 0 512 512;" xml:space="preserve">
<style type="text/css">
	.st0{fill:#FFFFFF;stroke:#000000;stroke-width:5;stroke-linecap:round;stroke-linejoin:round;stroke-miterlimit:10;}
	.st1{opacity:0;}
</style>
<path class="st0" d="M241.1,111V35.3c0-11.8,9.6-21.3,21.3-21.3c5.9,0,11.2,2.4,15,6.3c4.1,3.9,6.3,9.1,6.3,15v77.3"/>
<g class="st1">
	<circle cx="288.6" cy="124.8" r="3.5"/>
	<circle cx="309.6" cy="104.9" r="3.5"/>
	<circle cx="347.1" cy="102.1" r="3.5"/>
	<circle cx="388.5" cy="130.1" r="3.5"/>
	<circle cx="400.7" cy="163.1" r="3.5"/>
	<circle cx="401.1" cy="199.8" r="3.5"/>
	<circle cx="434.4" cy="203.7" r="3.5"/>
	<circle cx="465.7" cy="229" r="3.5"/>
	<circle cx="473.7" cy="258.7" r="3.5"/>
	<circle cx="458.6" cy="299.8" r="3.5"/>
	<circle cx="431.1" cy="320.3" r="3.5"/>
	<circle cx="398" cy="330.8" r="3.5"/>
	<circle cx="404.7" cy="360.1" r="3.5"/>
	<circle cx="403" cy="405.3" r="3.5"/>
	<circle cx="382.3" cy="440.6" r="3.5"/>
	<circle cx="350.4" cy="453" r="3.5"/>
	<circle cx="328.5" cy="454.3" r="3.5"/>
	<circle cx="305" cy="481.9" r="3.5"/>
	<circle cx="272.5" cy="499.4" r="3.5"/>
	<circle cx="230.1" cy="494.1" r="3.5"/>
	<circle cx="208.1" cy="465.8" r="3.5"/>
	<circle cx="204.4" cy="444.3" r="3.5"/>
	<circle cx="203.5" cy="424" r="3.5"/>
	<circle cx="170.7" cy="419" r="3.5"/>
	<circle cx="147.5" cy="409.1" r="3.5"/>
	<circle cx="123.4" cy="383.2" r="3.5"/>
	<circle cx="127.2" cy="353" r="3.5"/>
	<circle cx="132.8" cy="327" r="3.5"/>
	<circle cx="111.7" cy="324.3" r="3.5"/>
	<circle cx="87.2" cy="316" r="3.5"/>
	<circle cx="65.2" cy="296.1" r="3.5"/>
	<circle cx="51.7" cy="258.3" r="3.5"/>
	<circle cx="58" cy="216.5" r="3.5"/>
	<circle cx="84.9" cy="196.6" r="3.5"/>
	<circle cx="115.2" cy="190.8" r="3.5"/>
	<circle cx="131.8" cy="191" r="3.5"/>
	<circle cx="126.3" cy="171.4" r="3.5"/>
	<circle cx="131.1" cy="144.4" r="3.5"/>
	<circle cx="151.3" cy="121.1" r="3.5"/>
	<circle cx="190.4" cy="110.9" r="3.5"/>
	<circle cx="230.2" cy="118.7" r="3.5"/>
	<circle cx="267" cy="142" r="3.5"/>
</g>
</svg>
