<?xml version="1.0" encoding="utf-8"?>
<!-- Generator: Adobe Illustrator 22.1.0, SVG Export Plug-In . SVG Version: 6.00 Build 0)  -->
<svg version="1.1" id="Layer_1" xmlns="http://www.w3.org/2000/svg" xmlns:xlink="http://www.w3.org/1999/xlink" x="0px" y="0px"
	 viewBox="0 0 512 512" style="enable-background:new 0 0 512 512;" xml:space="preserve">
<style type="text/css">
	.st0{fill:none;stroke:#000000;stroke-width:5;stroke-linecap:round;stroke-linejoin:round;stroke-miterlimit:10;}
	.st1{opacity:0;}
</style>
<g>
	<path class="st0" d="M314,102.9c0,8.5-25.9,15.5-57.6,15.5s-57.6-7-57.6-15.5c0-5.2,9.7-9.8,24.7-12.7
		c18.3-3.5,30.3-21.4,26.5-39.8c-2.7-12.9-8.3-23.9-18-27c-2.5-0.8-3.9-3.5-3.1-6c0.8-2.5,3.5-3.9,6-3.1
		c17.8,5.6,24.3,26.8,26.5,46.4c1.5,14.9,12.7,26.8,27.2,29.5C304,92.8,314,97.4,314,102.9z"/>
</g>
<g class="st1">
	<circle cx="339.5" cy="114.9" r="3.5"/>
	<circle cx="360.7" cy="133.3" r="3.5"/>
	<circle cx="381.3" cy="158.8" r="3.5"/>
	<circle cx="399.2" cy="191" r="3.5"/>
	<circle cx="411.9" cy="229.4" r="3.5"/>
	<circle cx="417.1" cy="273.7" r="3.5"/>
	<circle cx="412.3" cy="323.5" r="3.5"/>
	<circle cx="396.3" cy="375.9" r="3.5"/>
	<circle cx="373.2" cy="419.3" r="3.5"/>
	<circle cx="345.2" cy="452.4" r="3.5"/>
	<circle cx="313.8" cy="474.9" r="3.5"/>
	<circle cx="280.8" cy="486.7" r="3.5"/>
	<circle cx="247.6" cy="487.3" r="3.5"/>
	<circle cx="215.8" cy="476.5" r="3.5"/>
	<circle cx="187.1" cy="454.1" r="3.5"/>
	<circle cx="162.1" cy="425.5" r="3.5"/>
	<circle cx="140.8" cy="394.5" r="3.5"/>
	<circle cx="123.8" cy="361" r="3.5"/>
	<circle cx="111.7" cy="325" r="3.5"/>
	<circle cx="105" cy="286.6" r="3.5"/>
	<circle cx="104.2" cy="245.7" r="3.5"/>
	<circle cx="109.9" cy="202.3" r="3.5"/>
	<circle cx="131.5" cy="148.2" r="3.5"/>
	<circle cx="168.8" cy="115.3" r="3.5"/>
	<circle cx="209.6" cy="101.6" r="3.5"/>
	<circle cx="242.5" cy="99.1" r="3.5"/>
	<circle cx="288" cy="99" r="3.5"/>
</g>
</svg>
