<?xml version="1.0" encoding="utf-8"?>
<!-- Generator: Adobe Illustrator 22.1.0, SVG Export Plug-In . SVG Version: 6.00 Build 0)  -->
<svg version="1.1" id="Layer_1" xmlns="http://www.w3.org/2000/svg" xmlns:xlink="http://www.w3.org/1999/xlink" x="0px" y="0px"
	 viewBox="0 0 512 512" style="enable-background:new 0 0 512 512;" xml:space="preserve">
<style type="text/css">
	.st0{fill:none;stroke:#000000;stroke-width:5;stroke-linecap:round;stroke-linejoin:round;stroke-miterlimit:10;}
	.st1{opacity:0;}
</style>
<g>
	<ellipse class="st0" cx="261.5" cy="179.6" rx="41.5" ry="41.5"/>
	<circle class="st0" cx="367.5" cy="283.7" r="50"/>
	<circle class="st0" cx="153.8" cy="274.2" r="51.2"/>
	<circle class="st0" cx="276" cy="391.1" r="56.5"/>
	<path class="st0" d="M362.8,161.8c-17.5,21.1-39.9,20.9-60.2,13c-2.2-20.9-19.9-37-41.3-37c-3.7,0-7.3,0.6-10.6,1.4
		c-2.2-2.2-3.3-3.3-3.3-3.3c20.3-5.7,34.6-11.6,34.6-11.6c-34.6-34.6-11.6-106.9-11.6-106.9c66.3,8.7,92.3,54.9,92.3,54.9
		c17.3-11.6,26-26,26-26C432,144.7,362.8,161.8,362.8,161.8z"/>
	<g>
		<path class="st0" d="M385.5,167.5c-36,26-140.3,137.6-202,189"/>
		<path class="st0" d="M345.5,236.5c0,0-3-14-20.5-14"/>
		<path class="st0" d="M276.5,334.5c0-23,0-34-15.1-46.1"/>
		<path class="st0" d="M204.5,274.5c0,0,26.5-16.8,72-7"/>
		<path class="st0" d="M302.5,186.5c0,0,28,4.5,39.4,15.7"/>
		<path class="st0" d="M363,181.5c0,0,1-21.1-5.7-27.7"/>
	</g>
</g>
<g class="st1">
	<circle cx="153.2" cy="348.5" r="3.5"/>
	<circle cx="172.6" cy="366.8" r="3.5"/>
	<circle cx="183.7" cy="395" r="3.5"/>
	<circle cx="178.6" cy="425.3" r="3.5"/>
	<circle cx="159.5" cy="447.8" r="3.5"/>
	<circle cx="131" cy="457.9" r="3.5"/>
	<circle cx="101" cy="451.7" r="3.5"/>
	<circle cx="79.1" cy="431.9" r="3.5"/>
	<circle cx="70" cy="403" r="3.5"/>
	<circle cx="77.2" cy="373.3" r="3.5"/>
	<circle cx="97.7" cy="352.1" r="3.5"/>
	<circle cx="127" cy="344" r="3.5"/>
</g>
</svg>
