<?xml version="1.0" encoding="utf-8"?>
<!-- Generator: Adobe Illustrator 17.1.0, SVG Export Plug-In . SVG Version: 6.00 Build 0)  -->
<!DOCTYPE svg PUBLIC "-//W3C//DTD SVG 1.1//EN" "http://www.w3.org/Graphics/SVG/1.1/DTD/svg11.dtd" [
	<!ENTITY ns_flows "http://ns.adobe.com/Flows/1.0/">
	<!ENTITY ns_extend "http://ns.adobe.com/Extensibility/1.0/">
	<!ENTITY ns_ai "http://ns.adobe.com/AdobeIllustrator/10.0/">
	<!ENTITY ns_graphs "http://ns.adobe.com/Graphs/1.0/">
]>
<svg version="1.1" id="Layer_1" xmlns:x="&ns_extend;" xmlns:i="&ns_ai;" xmlns:graph="&ns_graphs;"
	 xmlns="http://www.w3.org/2000/svg" xmlns:xlink="http://www.w3.org/1999/xlink" xmlns:a="http://ns.adobe.com/AdobeSVGViewerExtensions/3.0/"
	 x="0px" y="0px" viewBox="0 0 403.4 420" style="enable-background:new 0 0 403.4 420;" xml:space="preserve">
<g>
	<g>
		<path style="fill:#FFFFFF;" d="M326.9,420H75.9c-42.2,0-76.5-32.7-76.5-73.1V106.8c0-40.4,34.2-73.1,76.5-73.1h251.1
			c42.2,0,76.5,32.7,76.5,73.1v240.1C403.4,387.3,369.2,420,326.9,420z"/>
		<path style="fill:#F7A52B;" d="M326.9,396.9H75.9c-42.2,0-76.5-33.6-76.5-75V75.6c0-41.4,34.2-75,76.5-75h251.1
			c42.2,0,76.5,33.6,76.5,75v246.3C403.4,363.3,369.2,396.9,326.9,396.9z"/>
		<path style="fill:none;stroke:#FFFFFF;stroke-width:10;stroke-miterlimit:10;" d="M122.5,252.9H55.2c-5.2,0-9.3-4.2-9.3-9.3v-67.3
			c0-5.2,4.2-9.3,9.3-9.3h67.3c5.2,0,9.3,4.2,9.3,9.3v67.3C131.8,248.7,127.7,252.9,122.5,252.9z"/>
		<path style="fill:none;stroke:#FFFFFF;stroke-width:10;stroke-miterlimit:10;" d="M207.3,166.9h30.5c5.2,0,9.3,4.2,9.3,9.3v67.3
			c0,5.2-4.2,9.3-9.3,9.3h-67.3c-5.2,0-9.3-4.2-9.3-9.3v-67.3c0-5.2,4.2-9.3,9.3-9.3H207.3"/>
		<path style="fill:none;stroke:#FFFFFF;stroke-width:10;stroke-miterlimit:10;" d="M353.2,252.9h-67.3c-5.2,0-9.3-4.2-9.3-9.3
			v-67.3c0-5.2,4.2-9.3,9.3-9.3h67.3c5.2,0,9.3,4.2,9.3,9.3v67.3C362.5,248.7,358.3,252.9,353.2,252.9z"/>
		<circle style="fill:#FFFFFF;" cx="89.6" cy="210.6" r="10.3"/>
		<circle style="fill:#FFFFFF;" cx="189.6" cy="209.6" r="10.3"/>
		<circle style="fill:#FFFFFF;" cx="220.6" cy="209.6" r="10.3"/>
		<circle style="fill:#FFFFFF;" cx="294.6" cy="209.6" r="10.3"/>
		<circle style="fill:#FFFFFF;" cx="319.6" cy="209.1" r="10.3"/>
		<circle style="fill:#FFFFFF;" cx="343.6" cy="208.6" r="10.3"/>
		<g>
			<g>
				<path style="fill:none;stroke:#FFFFFF;stroke-width:10;stroke-linecap:round;stroke-miterlimit:10;" d="M81.2,165.7
					c0-2.5,0.2-5,0.5-7.5"/>
				
					<path style="fill:none;stroke:#FFFFFF;stroke-width:10;stroke-linecap:round;stroke-miterlimit:10;stroke-dasharray:15.9288,15.9288;" d="
					M85.6,142.8c9-22.1,30.7-37.7,56.1-37.7c28.2,0,51.8,19.2,58.6,45.2"/>
				<path style="fill:none;stroke:#FFFFFF;stroke-width:10;stroke-linecap:round;stroke-miterlimit:10;" d="M201.8,158.2
					c0.3,2.5,0.5,5,0.5,7.5"/>
			</g>
		</g>
		<g>
			<g>
				<path style="fill:none;stroke:#FFFFFF;stroke-width:10;stroke-linecap:round;stroke-miterlimit:10;" d="M202.3,165.3
					c0-2.5,0.2-5,0.5-7.5"/>
				
					<path style="fill:none;stroke:#FFFFFF;stroke-width:10;stroke-linecap:round;stroke-miterlimit:10;stroke-dasharray:14.6126,14.6126;" d="
					M206.2,143.6c8.7-23,31-39.4,57.1-39.4c23,0,43,12.7,53.4,31.5"/>
				<path style="fill:none;stroke:#FFFFFF;stroke-width:10;stroke-linecap:round;stroke-miterlimit:10;" d="M319.9,142.3
					c0.9,2.3,1.7,4.7,2.4,7.1"/>
			</g>
		</g>
		<polygon style="fill:#FFFFFF;" points="302.2,142.8 325.1,157.1 334,132.1 		"/>
	</g>
</g>
</svg>
