<?xml version="1.0" encoding="utf-8"?>
<!-- Generator: Adobe Illustrator 17.1.0, SVG Export Plug-In . SVG Version: 6.00 Build 0)  -->
<!DOCTYPE svg PUBLIC "-//W3C//DTD SVG 1.1//EN" "http://www.w3.org/Graphics/SVG/1.1/DTD/svg11.dtd" [
	<!ENTITY ns_flows "http://ns.adobe.com/Flows/1.0/">
	<!ENTITY ns_extend "http://ns.adobe.com/Extensibility/1.0/">
	<!ENTITY ns_ai "http://ns.adobe.com/AdobeIllustrator/10.0/">
	<!ENTITY ns_graphs "http://ns.adobe.com/Graphs/1.0/">
]>
<svg version="1.1" id="Layer_1" xmlns:x="&ns_extend;" xmlns:i="&ns_ai;" xmlns:graph="&ns_graphs;"
	 xmlns="http://www.w3.org/2000/svg" xmlns:xlink="http://www.w3.org/1999/xlink" xmlns:a="http://ns.adobe.com/AdobeSVGViewerExtensions/3.0/"
	 x="0px" y="0px" viewBox="0 0 61.8 59.3" style="enable-background:new 0 0 61.8 59.3;" xml:space="preserve">
<g>
	<g>
		<g>
			<path style="fill:#FEC52F;" d="M45,56.8c-0.9,0-1.8-0.2-2.6-0.7l-11.2-5.9L20,56.1c-0.8,0.4-1.7,0.7-2.6,0.7
				c-1.7,0-3.3-0.7-4.4-2c-1.1-1.3-1.5-3-1.2-4.6l2.1-12.5l-9.1-8.8c-1.6-1.5-2.1-3.8-1.4-5.8C4,20.9,5.8,19.5,8,19.1l12.5-1.8
				L26.1,6c1-2,2.9-3.2,5.1-3.2S35.3,4,36.3,6l5.6,11.3l12.5,1.8c2.2,0.3,3.9,1.8,4.6,3.9c0.7,2.1,0.1,4.3-1.4,5.8l-9.1,8.8
				l2.1,12.5c0.3,1.7-0.2,3.3-1.2,4.6C48.3,56,46.7,56.8,45,56.8z"/>
			<path style="fill:#FFFFFF;" d="M31.2,5.3c1.1,0,2.3,0.6,2.9,1.8l6.2,12.5l13.8,2c2.6,0.4,3.6,3.6,1.8,5.4l-10,9.8l2.4,13.8
				c0.4,2.1-1.3,3.7-3.1,3.7c-0.5,0-1-0.1-1.5-0.4l-12.4-6.5l-12.4,6.5c-0.5,0.3-1,0.4-1.5,0.4c-1.9,0-3.5-1.7-3.1-3.7l2.4-13.8
				L6.6,27c-1.9-1.8-0.8-5,1.8-5.4l13.8-2l6.2-12.5C28.9,5.9,30,5.3,31.2,5.3 M31.2,0.3c-3.1,0-5.9,1.7-7.3,4.6l-5,10.2L7.6,16.7
				C4.5,17.1,2,19.3,1,22.2c-1,3-0.2,6.2,2.1,8.4l8.1,7.9L9.3,49.7c-0.4,2.4,0.2,4.8,1.8,6.6c1.6,1.9,3.9,2.9,6.3,2.9
				c1.3,0,2.6-0.3,3.8-0.9l10-5.3l10,5.3c1.2,0.6,2.5,0.9,3.8,0.9c2.4,0,4.7-1.1,6.3-2.9c1.6-1.8,2.2-4.3,1.8-6.6l-1.9-11.2l8.1-7.9
				c2.2-2.2,3-5.4,2.1-8.4s-3.5-5.1-6.6-5.6L43.5,15l-5-10.2C37.1,2.1,34.3,0.3,31.2,0.3L31.2,0.3z"/>
		</g>
		<path style="opacity:0.1;fill:#2A1B49;" d="M54,21.6l-13.8-2L22.6,51.9l8.5-4.5l12.4,6.5c2.3,1.2,5.1-0.8,4.6-3.4l-2.4-13.8
			l10-9.8C57.7,25.2,56.6,22,54,21.6z"/>
	</g>
</g>
</svg>
