<?xml version="1.0" encoding="utf-8"?>
<!-- Generator: Adobe Illustrator 22.1.0, SVG Export Plug-In . SVG Version: 6.00 Build 0)  -->
<svg version="1.1" id="Layer_1" xmlns="http://www.w3.org/2000/svg" xmlns:xlink="http://www.w3.org/1999/xlink" x="0px" y="0px"
	 viewBox="0 0 1024 1024" style="enable-background:new 0 0 1024 1024;" xml:space="preserve">
<g>
	<ellipse style="opacity:0.17;" cx="505.7" cy="713.2" rx="460.7" ry="69.8"/>
	<g>
		<path style="fill:#EDC99D;" d="M797.2,601C797,600.9,797.1,600.9,797.2,601L797.2,601l0.4,0.3l0.8,0.4l1.7,0.9
			c1.2,0.6,2.4,1.2,3.7,1.7c2.5,1.1,5.1,2.2,7.7,3.2c5.2,2,10.5,3.6,15.7,4.9c5.2,1.3,10.3,2.2,15.2,2.6c4.8,0.4,9.4,0.3,13.4-0.3
			c4-0.6,7.4-1.7,10.4-3.3c1.5-0.8,2.9-1.7,4.2-2.8c1.3-1.1,2.6-2.3,3.8-3.9c1.2-1.5,2.4-3.1,3.4-5.1c0.6-0.9,1-2,1.6-3
			c0.5-1,1-2.1,1.4-3.2c1.8-4.5,3.1-9.6,4.1-15c0.3-1.3,0.5-2.7,0.7-4.1c0.2-1.4,0.4-2.8,0.5-4.2l1.1-10.4
			c0.8-7.3,2.1-14.7,3.8-22.1c0.4-1.8,1-3.7,1.5-5.6c0.5-1.9,1-3.7,1.6-5.6l2-5.6c0.4-0.9,0.6-1.9,1.1-2.8l1.2-2.8l1.3-2.8
			c0.4-0.9,0.8-1.9,1.4-2.8l3-5.5c2.3-3.6,4.7-7.2,7.6-10.5c5.7-6.7,12.9-12.7,21.1-16.9c8.1-4.1,17-6.5,25.5-7.1
			c8.5-0.6,16.7,0.1,24.4,1.7c3.9,0.8,7.6,1.8,11.3,3c1.9,0.6,3.7,1.3,5.5,2c0.9,0.3,1.8,0.7,2.8,1.1l1.4,0.6l1.7,0.8
			c6.9,3.2,9.8,11.4,6.6,18.2c-2.1,4.6-6.5,7.5-11.2,7.9l-7.7,0.7c0,0,0,0,0,0l-0.2-0.1l-0.4-0.1l-0.9-0.3c-0.6-0.2-1.3-0.4-1.9-0.6
			c-1.3-0.4-2.7-0.7-4-1c-2.7-0.6-5.4-1.1-8.1-1.3c-5.4-0.6-10.6-0.4-15.4,0.4c-4.8,0.8-8.9,2.5-12.4,4.8c-3.5,2.3-6.4,5.3-8.9,9
			c-1.3,1.8-2.4,3.9-3.4,6c-0.5,1.1-1,2.3-1.4,3.4c-0.3,0.5-0.5,1.2-0.7,1.8l-0.6,1.8l-0.6,1.8c-0.2,0.6-0.3,1.3-0.5,1.9l-1,3.9
			c-0.3,1.3-0.5,2.7-0.8,4.1c-0.2,1.4-0.6,2.7-0.7,4.1c-0.7,5.6-1.2,11.5-1.3,17.4l-0.1,9.5c0,1.9,0,3.8-0.1,5.7
			c-0.1,1.9-0.2,3.8-0.4,5.8c-0.6,7.8-1.9,15.8-4.1,23.9c-0.6,2-1.2,4.1-1.9,6.2c-0.8,2.1-1.5,4.1-2.4,6.2
			c-1.7,4.1-3.9,8.2-6.5,12.2c-5.1,8-12,15.5-20.2,21.2c-8.1,5.7-17.2,9.8-26.2,12.2c-9,2.4-17.8,3.4-26.2,3.6
			c-8.5,0.2-16.6-0.5-24.5-1.6c-7.9-1.1-15.5-2.8-23-4.8c-3.7-1-7.4-2.1-11.1-3.3c-1.8-0.6-3.7-1.3-5.6-1.9l-2.9-1.1l-1.5-0.6
			l-0.8-0.3l-1-0.4c-14.9-7.2-21.3-25.1-14.1-40C764.3,600.1,782.2,593.8,797.2,601z"/>
	</g>
	<circle style="fill:#F9DBAA;" cx="853.6" cy="357.5" r="38"/>
	<circle style="fill:#F9DBAA;" cx="612.8" cy="361.9" r="38"/>
	<circle style="fill:#FF5B4A;" cx="853.6" cy="357.5" r="24.9"/>
	<circle style="fill:#FF5B4A;" cx="612.8" cy="361.9" r="24.9"/>
	<g>
		<path style="fill:#EDC99D;" d="M860,698l-61.8,2.3L779,654h0l2.2-3l2.4-3.3c1.6-2.2,3.2-4.5,4.8-6.7c3.2-4.5,6.2-9.1,9.2-13.7
			c3-4.6,5.8-9.2,8.5-13.8c2.7-4.6,5.2-9.2,7.4-13.8c2.2-4.6,4.3-9.1,5.9-13.5c1.6-4.3,2.9-8.6,3.7-12.3c0.8-3.7,1-6.9,0.8-8.7
			c-0.1-0.9-0.2-1.5-0.4-1.7c0-0.1-0.1-0.1-0.1-0.1c0,0-0.1,0,0-0.1c0,0,0,0,0,0l0,0c0,0,0,0,0.1,0.2c0.2,0.3,0.4,0.7,0.6,1
			c0.4,0.6,0.9,1.4,1.4,2.1l0.4,0.5l0.5,0.6c0.3,0.4,0.7,0.8,1.1,1.2c0.4,0.4,0.8,0.9,1.3,1.3c0.5,0.4,0.9,0.8,1.4,1.2
			c2,1.7,4.5,3.1,7,4.2c1.3,0.5,2.5,0.9,3.8,1.3c0.6,0.2,1.2,0.3,1.8,0.4c0.6,0.1,1.2,0.2,1.7,0.3c4.5,0.5,7.4-0.1,9.2-0.5
			c1.9-0.5,2.9-0.9,3.5-1.2c0.7-0.3,0.9-0.5,1-0.5c0.3-0.1-0.1,0.1-0.6,0.5c-0.5,0.4-1.2,0.9-1.9,1.6c-1.5,1.3-3.2,2.9-5,4.7
			c-1.8,1.8-3.7,3.7-5.6,5.7c-7.6,8-15.6,17-23.9,25.9c-8.3,9-17,18.2-27,27.3c-5,4.6-10.3,9.1-16.5,13.7c-3.1,2.3-6.5,4.5-10.2,6.7
			c-3.8,2.2-8,4.4-13.3,6.3c-2.6,1-5.5,1.8-8.7,2.5c-3.2,0.7-6.8,1.2-10.8,1.2c-1,0-2,0-3.1,0c-1.1-0.1-2.1-0.1-3.2-0.3
			c-1.1-0.1-2.2-0.3-3.3-0.5c-0.6-0.1-1.1-0.2-1.6-0.3c-0.5-0.1-1.1-0.2-1.5-0.4c-3.9-1-7-2.2-9.6-3.3c-5.3-2.4-9.1-4.7-12.6-7
			c-3.5-2.3-6.5-4.6-9.4-6.8c-5.7-4.5-10.7-8.9-15.4-13.2c-4.8-4.4-9.3-8.7-13.7-13c-8.8-8.5-17.1-17-25.2-24.7
			c-4-3.8-8-7.5-11.6-10.5c-1.8-1.5-3.5-2.9-4.8-3.8c-0.7-0.5-1.2-0.8-1.5-1c-0.2-0.2-0.3-0.1,0.7,0.3c0.5,0.2,1.2,0.4,2.5,0.7
			c1.3,0.3,3.1,0.6,6,0.6c1.5,0,3.1-0.2,5-0.6c0.5-0.1,0.9-0.2,1.4-0.3c0.5-0.1,1-0.3,1.5-0.5c1-0.3,2-0.7,3-1.2
			c2-0.9,4-2.2,5.7-3.5c0.4-0.3,0.8-0.7,1.2-1c0.4-0.3,0.7-0.7,1.1-1c0.7-0.7,1.3-1.4,1.9-2.1l0.8-1c0.2-0.3,0.5-0.6,0.7-1
			c0.4-0.7,0.7-1.2,1.1-1.8c0.1-0.2,0.1-0.2,0.1-0.2l0,0l0,0l0,0c0,0,0,0,0,0c0,0,0,0,0,0s0,0,0,0c0,0,0,0,0,0c0,0,0,0,0,0.1
			c-0.1,0.2-0.1,0.6-0.2,1.3c0,0.7,0,1.8,0.2,3.1c0.3,2.6,1.2,6.1,2.7,9.9c1.5,3.8,3.4,7.9,5.7,12.1c4.6,8.4,10.6,17,17.1,25.3
			c3.3,4.2,6.7,8.3,10.2,12.4c1.8,2,3.6,4,5.4,6l2.7,2.9l2.4,2.5l0,0l5.6,26.3c2.7,12.9-5.5,25.6-18.5,28.3
			c-2.6,0.6-5.3,0.6-7.8,0.3l-75.8-9.2c-10.7-1.3-18.3-11-17-21.7c1-8.4,7.3-14.9,15.2-16.7l74.6-16.4l-20.7,55l0,0l-2.1-2l-1.8-1.8
			l-3.5-3.6c-2.3-2.4-4.5-4.8-6.7-7.2c-4.4-4.8-8.7-9.8-12.8-15c-8.2-10.3-16.1-21.2-23.2-33.6c-3.5-6.2-6.8-12.8-9.8-20.1
			c-2.9-7.3-5.4-15.3-6.8-24.4c-0.7-4.6-1.1-9.5-0.9-14.7c0.2-5.2,0.9-10.8,2.4-16.3c0.4-1.4,0.8-2.8,1.3-4.2l0.7-2.1l0.8-2.1l0.9-2
			l1-2l0.5-1l0.3-0.5l0.1-0.2l0.2-0.4c0.5-0.9,1-1.8,1.7-2.7c0.3-0.5,0.7-1,1-1.4l0.5-0.7l0.6-0.7c0.8-1,1.6-1.9,2.6-2.9
			c0.5-0.5,1-1,1.5-1.4c0.5-0.5,1.1-0.9,1.7-1.4c2.2-1.8,4.9-3.5,7.6-4.7c1.3-0.6,2.7-1.2,4.1-1.6c0.7-0.2,1.4-0.4,2-0.6
			c0.7-0.2,1.3-0.3,1.9-0.5c2.6-0.6,5-0.8,7.2-0.9c4.4-0.1,7.7,0.4,10.4,1.1c2.7,0.6,4.9,1.4,6.7,2.1c3.7,1.5,6.3,2.9,8.7,4.2
			c2.3,1.3,4.2,2.6,6,3.9c3.6,2.5,6.5,4.8,9.3,7.1c5.5,4.6,10.3,9,14.9,13.4c9.1,8.7,17.5,17.2,25.8,25.3c4.1,4,8.2,7.9,12.2,11.6
			c4,3.7,8,7.1,11.6,10.1c1.8,1.4,3.6,2.7,5.1,3.7c1.5,1,2.7,1.7,2.9,1.8c0,0-0.2-0.1-1.2-0.4l-0.4-0.1l-0.5-0.1
			c-0.4-0.1-0.8-0.1-1.1-0.2c-0.4,0-0.6-0.1-1-0.1c-0.3,0-0.6,0-0.8,0c-1,0-1.7,0.1-2,0.2c-0.3,0.1-0.3,0.1-0.1,0
			c0.4-0.1,1.5-0.6,2.8-1.4c1.4-0.8,3-1.8,4.7-3.1c3.4-2.5,7.2-5.6,11-9c7.6-6.9,15.5-14.9,23.4-23.3c8-8.4,15.9-17.2,24.8-26.3
			c2.2-2.3,4.5-4.6,7-7c2.5-2.4,5.1-4.8,8.1-7.4c1.5-1.3,3.1-2.6,5-4c1.9-1.4,4-2.9,6.8-4.6c1.4-0.8,3-1.7,5-2.6
			c2-0.9,4.4-1.9,7.7-2.7c0.9-0.2,1.7-0.4,2.7-0.6l1.5-0.2c0.5-0.1,1.1-0.1,1.7-0.2c0.6-0.1,1.1-0.1,1.7-0.1c0.6,0,1.3,0,1.9,0
			c1.2,0,2.8,0.1,4.2,0.3c0.7,0.1,1.5,0.2,2.3,0.3c0.8,0.1,1.5,0.3,2.3,0.5c1.7,0.4,3.2,0.9,4.9,1.6c3.3,1.3,6.3,3.2,9,5.3
			c0.7,0.5,1.2,1,1.8,1.6c0.6,0.5,1.2,1.1,1.7,1.6c0.5,0.5,1,1.1,1.4,1.6l0.7,0.8l0.6,0.8c0.8,1,1.5,2.1,2.1,3.1
			c0.3,0.5,0.6,1,0.8,1.5l0.3,0.5l0.1,0.2c0.7,1.3,1.3,2.7,1.9,4c0.6,1.4,1.1,2.7,1.6,4.1c0.5,1.4,0.9,2.7,1.3,4.1
			c1.6,5.5,2.3,10.8,2.6,15.8c0.5,10.1-0.9,18.8-2.8,26.7c-1.9,7.9-4.6,15-7.4,21.7c-2.9,6.6-6,12.9-9.4,18.8
			c-3.4,5.9-6.9,11.6-10.5,17c-3.7,5.5-7.5,10.7-11.4,15.9c-3.9,5.1-8,10.1-12.1,15c-2.1,2.4-4.2,4.8-6.4,7.2l-3.3,3.6l-3.6,3.8l0,0
			l-19.1-46.3l61.1,9.5c12,1.9,20.3,13.1,18.4,25.2C879.3,690,870.3,697.6,860,698z"/>
	</g>
	<path style="fill:#EDC99D;" d="M796.9,689.9c9-24.3,13-68.3,13-102.7c0-77.1-32.4-139.6-72.3-139.6c-39.9,0-72.3,62.5-72.3,139.6
		c0,40.6,4,77.1,16.2,102.6L796.9,689.9z"/>
	<path style="fill:#FF5B4A;" d="M774.9,689.9c5.7-10.9,8.2-30.6,8.2-46c0-34.5-20.4-62.5-45.6-62.5c-25.2,0-45.6,28-45.6,62.5
		c0,18.2,2.5,34.5,10.2,46L774.9,689.9z"/>
	<g>
		<path style="fill:#F9DBAA;" d="M670.4,687.8l-2-3.7l-1.8-3.6c-1.2-2.4-2.3-4.8-3.4-7.2c-2.2-4.8-4.2-9.7-6.1-14.7
			c-3.7-9.9-7-19.9-9.7-30.2c-2.7-10.2-5-20.7-6.7-31.4c-0.9-5.4-1.5-10.8-2.1-16.2c-0.5-5.5-1-11.1-1.2-16.7
			c-0.2-5.7-0.2-11.4-0.1-17.3c0.2-5.9,0.6-11.9,1.4-18.1c0.2-1.6,0.4-3.1,0.6-4.7l0.8-4.7c0.3-1.6,0.6-3.2,1-4.8
			c0.3-1.6,0.7-3.3,1.1-4.9c1.6-6.6,3.7-13.5,6.6-20.6c2.9-7.2,6.8-14.6,12.1-22.2c5.3-7.5,12.3-15.2,21.1-21.8
			c8.8-6.6,19.4-11.8,30.1-14.7c1.4-0.4,2.7-0.7,4-1c1.3-0.3,2.7-0.6,4-0.8c1.3-0.3,2.6-0.4,3.9-0.6c1.3-0.2,2.6-0.3,3.9-0.5
			c0.6-0.1,1.3-0.1,1.9-0.2l1.9-0.1l3.7-0.1l1.9,0c0.6,0,1.1,0,1.7,0l3.3,0.1c8.7,0.4,18.1,1.7,27.7,4.8c9.5,3,19.1,7.7,27.5,13.9
			c8.4,6.1,15.5,13.4,21,20.9c5.6,7.5,9.7,15.1,12.8,22.4c3.1,7.3,5.3,14.4,6.9,21.3c1.7,6.8,2.7,13.4,3.4,19.8
			c0.6,6.4,1,12.5,1,18.6c0,3,0,6-0.1,8.9c-0.1,3-0.3,5.8-0.5,8.7c-0.9,11.5-2.5,22.5-4.8,33.2c-2.3,10.7-5.1,21.1-8.4,31.2
			c-3.3,10.1-7.2,20-11.5,29.7c-2.2,4.8-4.5,9.6-7,14.3c-1.3,2.3-2.5,4.7-3.9,7l-2.1,3.5l-2.2,3.6c-5.7,9.2-17.7,12-26.9,6.3
			c-4.5-2.8-7.5-7.1-8.7-11.9l-0.9-3.7c-0.1-0.5-0.2-1.1-0.3-1.7l-0.2-1.8l-0.4-3.7l-0.8-7.3l-1.4-14.6l-2.6-28.4
			c-1.8-18.6-3.7-36.6-6.7-52.9c-0.4-2-0.8-4-1.2-6c-0.4-2-0.8-3.9-1.3-5.8c-0.9-3.7-1.9-7.3-2.9-10.6c-2-6.6-4.6-12-6.7-15.1
			c-0.3-0.3-0.5-0.7-0.8-1c-0.3-0.3-0.5-0.5-0.7-0.8c-0.2-0.2-0.4-0.4-0.6-0.6c-0.2-0.1-0.3-0.2-0.4-0.3c-0.5-0.2-0.5,0.1-0.2,0.6
			c0.3,0.5,1,0.9,1.2,1c0.2,0.2-0.2,0.1-1.3,0.1c-0.1,0-0.3,0-0.4,0c-0.1,0-0.2,0-0.2,0c0,0,0,0,0,0c0,0,0,0,0.1,0c0,0,0,0,0,0
			c0,0,0.1,0,0.1,0c0.1,0,0.2,0,0.2,0c0.1,0,0.1-0.1,0.3-0.1c0.1,0,0.3,0,0.4-0.1c0.1,0,0.2-0.1,0.4-0.1c1.2-0.3,2.9-1.3,3.8-2
			c0.9-0.8,1-1.4,0.6-1c-0.5,0.3-1.4,1.5-2.5,3.2c-1.1,1.8-2.3,4.2-3.5,7c-1.2,2.8-2.3,6-3.4,9.4c-2.2,6.9-4.1,14.7-5.8,23
			c-1.7,8.3-3.2,16.9-4.6,25.8c-1.4,8.9-2.7,18.1-4.1,27.4l-4.1,28.4c-0.7,4.8-1.4,9.6-2.2,14.5l-1.2,7.3l-0.7,3.6l-0.4,1.8
			c-0.1,0.6-0.2,1.2-0.4,1.7l-1.4,4.2c-3.7,11.1-15.8,17.1-26.9,13.3C677.1,696.1,672.9,692.4,670.4,687.8z"/>
	</g>
	<circle style="fill:#F9DBAA;" cx="737.6" cy="357.9" r="115.7"/>
	<circle style="fill:#FF5B4A;" cx="696.7" cy="357.9" r="50.9"/>
	<circle style="fill:#FF5B4A;" cx="782.8" cy="357.9" r="50.9"/>
	<circle style="fill:#FF5B4A;" cx="737.3" cy="427.3" r="59.6"/>
	<g>
		<path style="fill:#FFFFFF;" d="M730.7,357.7c0,21-17,38-38,38c-21,0-38-17-38-38"/>
	</g>
	<g>
		<path style="fill:#FFFFFF;" d="M820.7,357.7c0,21-17,38-38,38c-21,0-38-17-38-38"/>
	</g>
	<path style="fill:#54002A;" d="M722.7,357.7c0,14.7-11.9,26.6-26.6,26.6c-14.7,0-26.6-11.9-26.6-26.6"/>
	<path style="fill:#54002A;" d="M809.4,357.7c0,14.7-11.9,26.6-26.6,26.6c-14.7,0-26.6-11.9-26.6-26.6"/>
	<circle style="fill:#54002A;" cx="730.4" cy="408.6" r="4"/>
	<circle style="fill:#54002A;" cx="744.1" cy="408.6" r="4"/>
	<path style="fill:none;stroke:#54002A;stroke-width:5;stroke-linecap:round;stroke-linejoin:round;stroke-miterlimit:10;" d="
		M754.6,434.2h-28.5c-5,0-9.7-1.8-13.5-5.1v0"/>
	<g>
		<path style="opacity:0.3;fill:#FFFFFF;" d="M822.3,377.4c0,20.4-16.5,36.9-36.9,36.9c-20.4,0-36.9-16.5-36.9-36.9"/>
		<path style="opacity:0.3;fill:#FFFFFF;" d="M727.5,376.8c0,20.4-16.5,36.9-36.9,36.9c-20.4,0-36.9-16.5-36.9-36.9"/>
		
			<line style="fill:none;stroke:#000000;stroke-width:9;stroke-linecap:round;stroke-miterlimit:10;" x1="653.7" y1="377.4" x2="821.5" y2="377.4"/>
		<path style="fill:none;stroke:#000000;stroke-width:9;stroke-linecap:round;stroke-miterlimit:10;" d="M822.3,377.4
			c0,20.4-16.5,36.9-36.9,36.9c-20.4,0-36.9-16.5-36.9-36.9"/>
		<path style="fill:none;stroke:#000000;stroke-width:9;stroke-linecap:round;stroke-miterlimit:10;" d="M727.5,377.4
			c0,20.4-16.5,36.9-36.9,36.9c-20.4,0-36.9-16.5-36.9-36.9"/>
	</g>
	
		<line style="fill:none;stroke:#54002A;stroke-width:9;stroke-linecap:round;stroke-miterlimit:10;" x1="756.4" y1="336.9" x2="804.1" y2="336.9"/>
	
		<line style="fill:none;stroke:#54002A;stroke-width:9;stroke-linecap:round;stroke-miterlimit:10;" x1="668.5" y1="337.3" x2="716.2" y2="337.3"/>
</g>
<g>
	<path style="fill:#6CDD43;" d="M273.8,522.5c0,0,23.8,4.3,28.9-11.9s36.6-11.1,49.3,19.6s7.7,85-7.7,100.3
		c-15.3,15.3-34,18.7-39.1,7.7C300.1,627.1,243.2,552.3,273.8,522.5z"/>
	<path style="fill:#6AE84B;" d="M164.1,522.3c-4.8-10.4-15.7-16.5-27-14.9c-16.1,2.2-28.1,19.3-62.9,43.5
		c-33.1,23-69.9,32.7-69.9,32.7s89.2,55,135.3,62.5l34.2-102.6L164.1,522.3z"/>
	<path style="fill:#EF4822;" d="M328,602.1c0,57.8-46.7,63.3-104.5,63.3s-104.8-5.5-104.8-63.3s104.7-120.5,104.7-120.5
		S328,544.3,328,602.1z"/>
	<path style="fill:#EF4822;" d="M332.3,450.2c1.6,11.8-1.8,23.1-8.5,31.9c-6.7,8.8-16.8,15-28.6,16.6l-142.1,19
		c-22.2,3-42.8-11.6-47.7-33c-0.3-1.3-0.6-2.7-0.7-4.1c-1.6-11.8,1.8-23.1,8.5-31.9c3.9-5.1,8.9-9.3,14.7-12.2
		c4.2-2.2,8.9-3.7,13.9-4.3l142.1-19c4.1-0.5,8.1-0.5,11.9,0.1l0,0c16.2,2.3,29.9,13.8,34.9,29.6C331.4,445.2,332,447.7,332.3,450.2
		z"/>
	<path style="fill:#EF4822;" d="M251.4,465.7l-64.5,8.6c-45.1,6-86.5-25.6-92.5-70.7l0,0c-4.4-32.7,11.2-64.8,39.6-81.7l30.4-18
		c19.3-11.4,42.4-14.5,63.9-8.5l34.1,9.4c31.8,8.8,55.3,35.7,59.6,68.4v0C328.1,418.3,296.4,459.7,251.4,465.7z"/>
	<path style="fill:#FFA58D;" d="M330.7,442.8c-1.3,12.5-10.9,23-23.9,24.7c-15.2,2-29.2-8.6-31.2-23.8c-1.9-14,7-26.9,20.2-30.5l0,0
		C312,415.6,325.7,427,330.7,442.8z"/>
	<path style="fill:#FFA58D;" d="M151.4,460.2c2,15.2-8.6,29.2-23.8,31.2c-8.3,1.1-16.2-1.6-22.1-6.7c-0.3-1.3-0.6-2.7-0.7-4.1
		c-1.6-11.8,1.8-23.1,8.5-31.9c3.9-5.1,8.9-9.3,14.7-12.2C139.8,438.2,149.7,447.7,151.4,460.2z"/>
	<g>
		<circle style="fill:#FFFFFF;" cx="130.4" cy="428.9" r="36.2"/>
	</g>
	<g>
		<circle style="fill:#FFFFFF;" cx="280.4" cy="404.2" r="39.6"/>
	</g>
	<circle style="fill:#3F0E47;" cx="134" cy="432.1" r="25.4"/>
	<circle style="fill:#3F0E47;" cx="280.9" cy="408.2" r="27.8"/>
	<path style="fill:none;stroke:#3F0E47;stroke-width:9;stroke-linecap:round;stroke-miterlimit:10;" d="M256,338.4
		c11.4-3,22.1-3,32.2,0.3"/>
	<path style="fill:none;stroke:#3F0E47;stroke-width:9;stroke-linecap:round;stroke-miterlimit:10;" d="M122.3,349
		c-12.4,0.5-23.8,4.5-33.8,13.6"/>
	
		<polyline style="fill:none;stroke:#FF9515;stroke-width:5;stroke-linecap:round;stroke-linejoin:round;stroke-miterlimit:10;" points="
		259,663.4 259,698.7 301.1,698.7 	"/>
	
		<line style="fill:none;stroke:#FF9515;stroke-width:5;stroke-linecap:round;stroke-linejoin:round;stroke-miterlimit:10;" x1="291.8" y1="716.3" x2="259.9" y2="697.8"/>
	<path style="fill:#EF4822;" d="M261.9,679.3h-4c-4.5,0-8.1-3.6-8.1-8.1v-9.1c0-4.5,3.6-8.1,8.1-8.1h4c4.5,0,8.1,3.6,8.1,8.1v9.1
		C270,675.7,266.4,679.3,261.9,679.3z"/>
	
		<polyline style="fill:none;stroke:#FF9515;stroke-width:5;stroke-linecap:round;stroke-linejoin:round;stroke-miterlimit:10;" points="
		191,663.4 191,698.7 149,698.7 	"/>
	
		<line style="fill:none;stroke:#FF9515;stroke-width:5;stroke-linecap:round;stroke-linejoin:round;stroke-miterlimit:10;" x1="158.2" y1="716.3" x2="190.1" y2="697.8"/>
	<path style="fill:#EF4822;" d="M188.1,679.3h4c4.5,0,8.1-3.6,8.1-8.1v-9.1c0-4.5-3.6-8.1-8.1-8.1h-4c-4.5,0-8.1,3.6-8.1,8.1v9.1
		C180,675.7,183.7,679.3,188.1,679.3z"/>
	<g>
		<defs>
			<path id="SVGID_1_" d="M164.1,522.3c-4.8-10.4-15.7-16.5-27-14.9c-16.1,2.2-28.1,19.3-62.9,43.5c-33.1,23-69.9,32.7-69.9,32.7
				s89.2,55,135.3,62.5l34.2-102.6L164.1,522.3z"/>
		</defs>
		<clipPath id="SVGID_2_">
			<use xlink:href="#SVGID_1_"  style="overflow:visible;"/>
		</clipPath>
		<g style="clip-path:url(#SVGID_2_);">
			<path style="fill:none;stroke:#318915;stroke-width:9;stroke-linecap:round;stroke-miterlimit:10;" d="M17.6,598.5
				c0,0,40.1-8.9,68.4-32.7"/>
			<path style="fill:none;stroke:#318915;stroke-width:9;stroke-linecap:round;stroke-miterlimit:10;" d="M5.7,586.6
				c0,0,47.6-16.4,77.3-38.7"/>
			<path style="fill:none;stroke:#318915;stroke-width:9;stroke-linecap:round;stroke-miterlimit:10;" d="M48.9,608.9
				c0,0,14.9-4.5,40.1-22.3"/>
			<path style="fill:none;stroke:#318915;stroke-width:9;stroke-linecap:round;stroke-miterlimit:10;" d="M74.1,622.3
				c0,0,11.9-3,20.8-14.9"/>
		</g>
	</g>
	<path style="fill:none;stroke:#3F0E47;stroke-width:5;stroke-linecap:round;stroke-linejoin:round;stroke-miterlimit:10;" d="
		M329.7,386.3c-3.6,4.7-11.2,5.7-11.2,5.7c-6.8-26-34.6-28.6-34.6-28.6s-35.8-3.1-42.1,34.3"/>
	<path style="fill:none;stroke:#3F0E47;stroke-width:5;stroke-linecap:round;stroke-linejoin:round;stroke-miterlimit:10;" d="
		M333.4,394.8c0,0-6.2,3-13.8,2.1"/>
	<path style="fill:none;stroke:#3F0E47;stroke-width:5;stroke-linecap:round;stroke-linejoin:round;stroke-miterlimit:10;" d="
		M80.9,427.2c4.5,3.5,11.9,2.5,11.9,2.5c-0.2-26,25-35.5,25-35.5s32.6-12,48.1,21.4"/>
	<path style="fill:none;stroke:#3F0E47;stroke-width:5;stroke-linecap:round;stroke-linejoin:round;stroke-miterlimit:10;" d="
		M80,434c0,0,6.1,3.3,13,0.6"/>
	<path style="fill:#FFD524;" d="M186.3,447.2c0,0-6.6,59.5,26.4,59.5s17.6-65.8,17.6-65.8L186.3,447.2z"/>
	<path style="fill:#771F00;" d="M192.6,443.3c0,0-2.4,52,19.1,52s9.6-56.2,9.6-56.2L192.6,443.3z"/>
	<path style="fill:#FFD524;" d="M178.7,447c0,0,2.2-28.7,18.6-39.9c16.5-11.2,36.9,19,38.7,32.2c0,0-24,10.7-23,40.5
		C213,479.8,198.4,448.8,178.7,447z"/>
</g>
<g>
	<path style="fill:none;stroke:#53DBD1;stroke-width:22;stroke-linecap:round;stroke-miterlimit:10;" d="M502.4,644.5
		c0,0,27.3,10.7,30.7,50.6"/>
	<path style="fill:none;stroke:#53DBD1;stroke-width:22;stroke-linecap:round;stroke-miterlimit:10;" d="M483.1,644.1
		c0,0-26.9,15.5-30.3,48"/>
	<path style="fill:#3EC1B7;" d="M536.3,719.3c-1.1,1.3-3.4,3.4-6.5,5.9c-3.2,2.7-7.2,5.7-11.3,8.5c-8.4,5.8-17,10.4-19.7,8.1
		c-1.1-1-1.1-3-0.5-5.7c2.5-10.1,15.2-29.3,18.9-33.4c4.6-5.3,12.6-5.9,17.8-1.3C540.3,706,540.9,714,536.3,719.3z"/>
	<path style="fill:#3EC1B7;" d="M534.5,742.7l-32-0.2c-5.8,0-10.8-3.3-10.5-7.4l0,0c0.3-4,5.6-6.6,11.4-5.9l31.8,4.1
		c2.6,0.3,4.5,2.6,4.4,5l0,0C539.4,740.8,537.2,742.8,534.5,742.7z"/>
	<path style="fill:#3EC1B7;" d="M470.4,702.7c-4.6-5.3-12.6-5.9-17.8-1.3s-5.9,12.6-1.3,17.8c4.6,5.3,32.2,27.1,37.5,22.5
		S475,708,470.4,702.7z"/>
	<path style="fill:#3EC1B7;" d="M453.4,742.1l32.5,0.3c5.4,0,9.9-3.2,9.7-7.2l0,0c-0.2-4-4.9-6.9-10.3-6.4l-32.3,2.9
		c-2.9,0.3-5.1,2.7-5,5.4l0,0C448.1,739.9,450.4,742.1,453.4,742.1z"/>
	<path style="fill:#89EFDB;" d="M518.7,716.2c-2.5,11.7-13,20.5-25.4,20.5c-12,0-22.1-8.2-25.1-19.2v-0.3c0-3.5,0.8-10.6,2.3-19.1
		c4.4-25.4,14.5-64.1,24.9-64.1c10.8,0,18.9,41.5,22,66.7C518.2,707.4,518.6,712.9,518.7,716.2z"/>
	<g>
		<path style="fill:#FFC533;" d="M402.7,315.2c38.8,58.6,64.6,156.2,64.6,156.2s-144-95.3-162.2-163.1c-4.7-17.5,7-39.1,21.9-48.9
			S363.9,256.6,402.7,315.2z"/>
	</g>
	<path style="fill:#53DBD1;" d="M575.9,313.4c-5.7,70-45.7,162.8-45.7,162.8s-54.4-163.9-26.8-228.5c7.1-16.7,29.6-26.4,47.4-25
		C568.6,224.1,581.6,243.4,575.9,313.4z"/>
	<path style="fill:#53DBD1;" d="M402.7,315.2c38.8,58.6,64.6,156.2,64.6,156.2s-144-95.3-162.2-163.1c-4.7-17.5,7-39.1,21.9-48.9
		S363.9,256.6,402.7,315.2z"/>
	<g>
		<path style="fill:#FF6E91;" d="M548.3,361.4c-1.4,47.5-18.1,111.8-18.1,111.8S502.6,364.8,514.1,320c3-11.6,13.1-19.1,21.2-18.8
			C543.5,301.5,549.7,313.9,548.3,361.4z"/>
	</g>
	<g>
		<path style="fill:#FF6E91;" d="M416.6,372.4c24.9,39.7,48.2,100.5,48.2,100.5s-78.8-75.8-95.1-118c-4.2-10.9-1.1-21.9,4.8-25.7
			S391.7,332.7,416.6,372.4z"/>
	</g>
	<path style="fill:#53DBD1;" d="M624.3,555.4c0-58-58.8-112.7-129.7-112.7s-126.9,54.6-126.9,112.7s57.4,89.3,128.3,89.3
		S624.3,613.5,624.3,555.4z"/>
	<g>
		<circle style="fill:#FF6E91;" cx="573.5" cy="598.6" r="18.7"/>
	</g>
	<g>
		<circle style="fill:#FF6E91;" cx="415.5" cy="598.6" r="18.7"/>
	</g>
	<g>
		<circle style="fill:#FFFFFF;" cx="554.5" cy="569.2" r="32.7"/>
	</g>
	<circle style="fill:#420E32;" cx="552.1" cy="570.9" r="21.8"/>
	<circle style="fill:#420E32;" cx="497.3" cy="592" r="12.9"/>
	<path style="fill:none;stroke:#420E32;stroke-width:5;stroke-linecap:round;stroke-miterlimit:10;" d="M521.8,606.7
		c0,0,63.2,4.7,83.8,20.5"/>
	<path style="fill:none;stroke:#420E32;stroke-width:5;stroke-linecap:round;stroke-miterlimit:10;" d="M521.8,615.5
		c0,0,60.8,18,77.5,37.8"/>
	<path style="fill:none;stroke:#420E32;stroke-width:5;stroke-linecap:round;stroke-miterlimit:10;" d="M458.6,606.6
		c0,0-63.2,4.7-83.8,20.5"/>
	<path style="fill:none;stroke:#420E32;stroke-width:5;stroke-linecap:round;stroke-miterlimit:10;" d="M458.7,615.4
		c0,0-60.8,18-77.5,37.8"/>
	<g>
		<path style="fill:#FF6E91;" d="M508.5,715.7c0,8.3-6.8,15.1-15.1,15.1c-8.3,0-15.1-6.8-15.1-15.1c0-8.3,7.9-49.6,16.2-49.6
			C502.9,666.1,508.5,707.4,508.5,715.7z"/>
	</g>
	<path style="fill:none;stroke:#420E32;stroke-width:5;stroke-linecap:round;stroke-miterlimit:10;" d="M488.9,616.7
		c0,0-11.2,3-15-5.4"/>
	<path style="fill:none;stroke:#420E32;stroke-width:9;stroke-linecap:round;stroke-miterlimit:10;" d="M540.1,513
		c0,0,16.9-9.2,33.6,0.4"/>
	<path style="fill:none;stroke:#420E32;stroke-width:9;stroke-linecap:round;stroke-miterlimit:10;" d="M450.3,515.7
		c0,0-15.2-9.6-37.4,2.4"/>
	<g>
		<defs>
			<circle id="SVGID_3_" cx="553" cy="569.2" r="32.7"/>
		</defs>
		<clipPath id="SVGID_4_">
			<use xlink:href="#SVGID_3_"  style="overflow:visible;"/>
		</clipPath>
	</g>
	<g>
		<circle style="fill:#FFFFFF;" cx="434.2" cy="570" r="32.7"/>
	</g>
	<circle style="fill:#420E32;" cx="436.5" cy="571.7" r="21.8"/>
	<g>
		<defs>
			<circle id="SVGID_5_" cx="434.2" cy="570" r="32.7"/>
		</defs>
		<clipPath id="SVGID_6_">
			<use xlink:href="#SVGID_5_"  style="overflow:visible;"/>
		</clipPath>
	</g>
</g>
</svg>
