<?xml version="1.0" encoding="utf-8"?>
<!-- Generator: Adobe Illustrator 22.1.0, SVG Export Plug-In . SVG Version: 6.00 Build 0)  -->
<svg version="1.1" id="Layer_1" xmlns="http://www.w3.org/2000/svg" xmlns:xlink="http://www.w3.org/1999/xlink" x="0px" y="0px"
	 viewBox="0 0 512 512" style="enable-background:new 0 0 512 512;" xml:space="preserve">
<g>
	<g>
		<path d="M140,238.7c-0.4,0-0.7-0.1-1-0.2c-1.3-0.6-1.8-2.1-1.2-3.3c0.8-1.7,19.3-41.2,46.5-45.2c1.4-0.2,2.6,0.7,2.8,2.1
			c0.2,1.4-0.7,2.6-2.1,2.8c-24.6,3.7-42.5,42-42.7,42.4C141.8,238.2,140.9,238.7,140,238.7z"/>
	</g>
	<g>
		<path d="M184.6,181.1c-0.3,0-0.6-0.1-1-0.2c-1.3-0.5-1.9-2-1.3-3.3c0.8-2,21-49.5,63.8-55.4c1.4-0.2,2.6,0.8,2.8,2.1
			c0.2,1.4-0.8,2.6-2.1,2.8c-39.9,5.5-59.6,51.9-59.8,52.4C186.5,180.5,185.6,181.1,184.6,181.1z"/>
	</g>
	<g>
		<path d="M291.6,138.6c-0.5,0-1.1-0.2-1.5-0.5c-1.1-0.9-1.3-2.4-0.4-3.5c0.9-1.2,23.7-29,91.4-12.3c1.3,0.3,2.2,1.7,1.8,3
			c-0.3,1.3-1.7,2.2-3,1.8c-64.2-15.8-86,10.3-86.2,10.5C293.1,138.3,292.3,138.6,291.6,138.6z"/>
	</g>
	<g>
		<path d="M196.4,249.5c-0.7,0-1.5-0.3-2-1c-0.8-1.1-0.6-2.7,0.5-3.5c3.1-2.4,76.1-58.1,140.9-63.9c1.4-0.1,2.6,0.9,2.7,2.3
			c0.1,1.4-0.9,2.6-2.3,2.7c-63.3,5.7-137.6,62.3-138.3,62.9C197.5,249.3,196.9,249.5,196.4,249.5z"/>
	</g>
	<g>
		<path d="M351.3,234.8c-1.1,0-2.2-0.8-2.4-1.9c-0.3-1.3,0.5-2.7,1.9-3c22.6-5.2,39.3-53.3,39.5-53.8c0.4-1.3,1.9-2,3.2-1.6
			c1.3,0.4,2,1.9,1.6,3.2c-0.7,2.1-17.8,51.2-43.1,57C351.7,234.8,351.5,234.8,351.3,234.8z"/>
	</g>
	<g>
		<path d="M18,345.5c-1.3,0-2.4-1-2.5-2.3c-0.1-1.4,0.9-2.6,2.3-2.7c2.5-0.2,247.5-20.1,331.6-62.1c43.6-21.8,72.2-59.2,88.5-86.7
			c17.7-29.9,25.1-54.8,25.2-55.1c0.4-1.3,1.8-2.1,3.1-1.7c1.3,0.4,2.1,1.8,1.7,3.1c-0.1,0.3-7.7,25.8-25.7,56.2
			c-16.7,28.1-45.9,66.3-90.6,88.6c-85,42.4-330.9,62.5-333.4,62.7C18.1,345.5,18.1,345.5,18,345.5z"/>
	</g>
</g>
</svg>
