<?xml version="1.0" encoding="utf-8"?>
<!-- Generator: Adobe Illustrator 22.1.0, SVG Export Plug-In . SVG Version: 6.00 Build 0)  -->
<svg version="1.1" id="Layer_1" xmlns="http://www.w3.org/2000/svg" xmlns:xlink="http://www.w3.org/1999/xlink" x="0px" y="0px"
	 viewBox="0 0 512 512" style="enable-background:new 0 0 512 512;" xml:space="preserve">
<g>
	<circle cx="136.5" cy="155.5" r="3.5"/>
	<circle cx="99.5" cy="202.5" r="3.5"/>
	<circle cx="64.5" cy="251.5" r="3.5"/>
	<circle cx="39.5" cy="298.5" r="3.5"/>
	<circle cx="20.5" cy="338.5" r="3.5"/>
	<circle cx="73.5" cy="355.5" r="3.5"/>
	<circle cx="119.5" cy="368.5" r="3.5"/>
	<circle cx="180.5" cy="374.5" r="3.5"/>
	<circle cx="236.5" cy="371.5" r="3.5"/>
	<circle cx="297.5" cy="364.5" r="3.5"/>
	<circle cx="345.5" cy="355.5" r="3.5"/>
	<circle cx="391.5" cy="338.5" r="3.5"/>
	<circle cx="439.5" cy="294.5" r="3.5"/>
	<circle cx="468.5" cy="240.5" r="3.5"/>
	<circle cx="476.5" cy="190.5" r="3.5"/>
	<circle cx="474.5" cy="151.5" r="3.5"/>
	<circle cx="451.5" cy="112.5" r="3.5"/>
	<circle cx="407.5" cy="76.5" r="3.5"/>
	<circle cx="362.5" cy="55.5" r="3.5"/>
	<circle cx="316.5" cy="51.5" r="3.5"/>
	<circle cx="266.5" cy="57.5" r="3.5"/>
	<circle cx="222.5" cy="76.5" r="3.5"/>
	<circle cx="188.5" cy="102.5" r="3.5"/>
	<circle cx="165.5" cy="124.5" r="3.5"/>
</g>
</svg>
