<?xml version="1.0" encoding="utf-8"?>
<!-- Generator: Adobe Illustrator 22.1.0, SVG Export Plug-In . SVG Version: 6.00 Build 0)  -->
<svg version="1.1" id="Layer_1" xmlns="http://www.w3.org/2000/svg" xmlns:xlink="http://www.w3.org/1999/xlink" x="0px" y="0px"
	 viewBox="0 0 512 512" style="enable-background:new 0 0 512 512;" xml:space="preserve">
<g>
	<g>
		<path d="M259.3,489.4h-5.6c-12.6,0-22.8-10.2-22.8-22.8v-86.7c0-1.4,1.1-2.5,2.5-2.5s2.5,1.1,2.5,2.5v86.7
			c0,9.6,8.2,17.8,17.8,17.8h5.6c9.8,0,17.8-8,17.8-17.8v-86.7c0-1.4,1.1-2.5,2.5-2.5s2.5,1.1,2.5,2.5v86.7
			C282.1,479.2,271.9,489.4,259.3,489.4z"/>
	</g>
	<g>
		<g>
			<path d="M323.3,91.4c-0.8,0-1.6-0.4-2.1-1.1c-18.2-28.3-49-37.1-55-38.5c-1.3-0.3-2.2-1.7-1.8-3c0.3-1.3,1.7-2.2,3-1.8
				c6.3,1.5,38.8,10.8,58,40.7c0.7,1.2,0.4,2.7-0.8,3.5C324.2,91.3,323.8,91.4,323.3,91.4z"/>
		</g>
	</g>
</g>
</svg>
