<?xml version="1.0" encoding="utf-8"?>
<!-- Generator: Adobe Illustrator 22.1.0, SVG Export Plug-In . SVG Version: 6.00 Build 0)  -->
<svg version="1.1" id="Layer_1" xmlns="http://www.w3.org/2000/svg" xmlns:xlink="http://www.w3.org/1999/xlink" x="0px" y="0px"
	 viewBox="0 0 512 512" style="enable-background:new 0 0 512 512;" xml:space="preserve">
<g>
	<g>
		<g>
			<path d="M374,407.5c-4.2,0-8.2-1.5-11.3-4.2c-6.9-6.3-7.6-16.7-1.4-23.8l63.3-70.8c9.6-10.5,14.9-23.9,14.9-37.8V193
				c0-8.1-6.3-14.4-14.4-14.4h-66.8c-3,0-6-0.9-8.6-2.5c-0.8-0.5-1.2-1.3-1.2-2.2s0.6-1.7,1.4-2.1c9.8-5,16.8-14.3,18.7-24.9
				c0.2-1.2,1.3-2.1,2.5-2.1h54.1c26.7,0,48.4,21.6,48.4,48.2v77.7c0,22.2-8.4,43.7-23.6,60.6l-63.2,70.6
				C383.4,405.5,379,407.5,374,407.5z M356.7,173.5c0.5,0.1,1,0.1,1.6,0.1h66.8c10.7,0,19.4,8.7,19.4,19.4v77.8
				c0,15.2-5.7,29.8-16.2,41.2L365,382.8c-4.3,5-3.9,12.4,1,16.8c2.2,1.9,4.9,3,7.9,3c3.6,0,6.6-1.3,8.9-4L446,328
				c14.4-16,22.4-36.3,22.4-57.2V193c0-23.8-19.5-43.2-43.4-43.2h-52C370.8,159.4,364.9,167.9,356.7,173.5z"/>
		</g>
	</g>
	<g>
		<path d="M290.8,184.9c-8.5,0-16.8-4.2-22-11.1c-4.8,2.1-10.3,3.2-15.8,3.2c-14.2,0-27.1-7.3-34.3-19.2c-4.2,1.5-8.6,2.3-13.3,2.3
			c-0.4,0-0.8,0-1.2,0c-6.8,14.2-20.9,23.2-36.4,23.2c-9.9,0-19.3-3.6-26.7-10.1c-5.2,2.4-11,3.7-16.9,3.7
			c-22.2,0-40.3-18.1-40.3-40.3s18.1-40.3,40.3-40.3c0,0,0,0,0.1,0c-1.7-4.5-2.6-9.3-2.6-14.4c0-22.2,18.1-40.3,40.3-40.3
			c17.1,0,32,10.5,37.8,26.4c5-2.1,10.2-3.1,15.4-3.1c5.7,0,11.1,1.1,16.3,3.4c9.3-16,26.3-25.9,44.8-25.9
			c23.4,0,43.9,15.9,49.8,38.2c2.5-0.7,5.1-1.1,7.8-1.1c9.6,0,18.4,5,23.4,13.2c3-1,6-1.5,9.1-1.5c15,0,27.2,12.2,27.2,27.3
			c0,12.2-7.9,22.7-19.5,26.2c-0.1,1.1-0.3,2.2-0.6,3.2c-2.2,12.2-10.2,22.8-21.3,28.4c-5.8,3-11.8,4.5-18.4,4.5
			c-7.6,0-15-2.1-21.5-6.2C307.2,181.1,299.4,184.9,290.8,184.9z M269.7,168.2c0.8,0,1.6,0.4,2.1,1.2c4.1,6.5,11.4,10.5,19,10.5
			c7.7,0,14.7-3.8,18.8-10.1c0.4-0.6,1-1,1.6-1.1c0.7-0.1,1.4,0,1.9,0.4c6.1,4.3,13.3,6.6,20.7,6.6c5.8,0,11.1-1.3,16.1-3.9
			c9.8-4.9,16.8-14.2,18.7-24.9c0-0.1,0-0.1,0-0.2c0.3-1.3,0.5-2.6,0.5-4c0-1.2,0.8-2.2,2-2.4c10.3-2.3,17.4-11.3,17.4-21.8
			c0-12.3-10-22.3-22.2-22.3c-3.1,0-6.2,0.6-9.2,1.9c-1.2,0.5-2.6,0-3.2-1.2c-3.9-7.6-11.8-12.4-20.1-12.4c-3,0-5.9,0.6-8.6,1.7
			c-0.7,0.3-1.5,0.2-2.1-0.1c-0.7-0.3-1.1-1-1.3-1.7c-4.4-21.4-23.6-37-45.6-37c-17.5,0-33.4,9.7-41.6,25.4
			c-0.6,1.2-2.1,1.7-3.4,1.1c-5-2.6-10.4-3.9-16.1-3.9c-5.4,0-10.6,1.2-15.8,3.8c-0.7,0.3-1.4,0.3-2.1,0c-0.7-0.3-1.2-0.9-1.4-1.6
			c-4.4-15.3-18.1-25.5-33.9-25.5c-19.5,0-35.3,15.8-35.3,35.3c0,5.8,1.3,11.2,3.7,15.9c0.4,0.8,0.4,1.8-0.2,2.6
			c-0.5,0.8-1.5,1.2-2.4,1c-1.1-0.2-2.4-0.2-3.6-0.2c-19.5,0-35.3,15.8-35.3,35.3s15.8,35.3,35.3,35.3c5.6,0,11.2-1.4,16.1-3.9
			c0.9-0.5,2.1-0.3,2.9,0.4c6.7,6.4,15.4,9.9,24.6,9.9c14.1,0,26.9-8.6,32.6-21.9c0.5-1.1,1.6-1.7,2.8-1.5c0.8,0.2,1.3,0.2,2.2,0.2
			c4.8,0,9.3-0.9,13.4-2.7c1.2-0.5,2.6,0,3.2,1.1c6,11.4,17.9,18.5,31,18.5c5.6,0,11-1.2,15.6-3.5
			C268.9,168.3,269.3,168.2,269.7,168.2z"/>
	</g>
	<g>
		<path d="M341.8,70.1c-10.4,0-18.8-8.4-18.8-18.8s8.4-18.8,18.8-18.8s18.8,8.4,18.8,18.8C360.6,61.7,352.2,70.1,341.8,70.1z
			 M341.8,37.5c-7.6,0-13.8,6.2-13.8,13.8s6.2,13.8,13.8,13.8s13.8-6.2,13.8-13.8S349.4,37.5,341.8,37.5z"/>
	</g>
	<g>
		<path d="M186.5,37.1c-5.4,0-9.8-4.4-9.8-9.8s4.4-9.8,9.8-9.8s9.8,4.4,9.8,9.8S191.9,37.1,186.5,37.1z M186.5,22.5
			c-2.6,0-4.8,2.2-4.8,4.8s2.2,4.8,4.8,4.8s4.8-2.2,4.8-4.8S189.1,22.5,186.5,22.5z"/>
	</g>
</g>
</svg>
