<?xml version="1.0" encoding="utf-8"?>
<!-- Generator: Adobe Illustrator 22.1.0, SVG Export Plug-In . SVG Version: 6.00 Build 0)  -->
<svg version="1.1" id="Layer_1" xmlns="http://www.w3.org/2000/svg" xmlns:xlink="http://www.w3.org/1999/xlink" x="0px" y="0px"
	 viewBox="0 0 512 512" style="enable-background:new 0 0 512 512;" xml:space="preserve">
<g>
	<circle cx="85.5" cy="79.3" r="3.5"/>
	<circle cx="47.6" cy="110.3" r="3.5"/>
	<circle cx="31.8" cy="137.9" r="3.5"/>
	<circle cx="31.8" cy="174.4" r="3.5"/>
	<circle cx="53.7" cy="193.6" r="3.5"/>
	<circle cx="96.5" cy="194.5" r="3.5"/>
	<circle cx="99.5" cy="233.5" r="3.5"/>
	<circle cx="99.5" cy="276.5" r="3.5"/>
	<circle cx="96.5" cy="330.5" r="3.5"/>
	<circle cx="96.5" cy="398.5" r="3.5"/>
	<circle cx="99.5" cy="455.5" r="3.5"/>
	<circle cx="164.5" cy="455.5" r="3.5"/>
	<circle cx="228.5" cy="455.5" r="3.5"/>
	<circle cx="291.5" cy="459.5" r="3.5"/>
	<circle cx="349.5" cy="458.5" r="3.5"/>
	<circle cx="404.7" cy="455.5" r="3.5"/>
	<circle cx="404.7" cy="388.5" r="3.5"/>
	<circle cx="404.7" cy="330.5" r="3.5"/>
	<circle cx="404.7" cy="263.5" r="3.5"/>
	<circle cx="404.7" cy="193.5" r="3.5"/>
	<circle cx="437.5" cy="188.5" r="3.5"/>
	<circle cx="463.5" cy="178.5" r="3.5"/>
	<circle cx="475.5" cy="148.5" r="3.5"/>
	<circle cx="466.5" cy="115.5" r="3.5"/>
	<circle cx="445.5" cy="88.5" r="3.5"/>
	<circle cx="405.5" cy="67.5" r="3.5"/>
	<circle cx="363.5" cy="62.5" r="3.5"/>
	<circle cx="313.5" cy="53.5" r="3.5"/>
	<circle cx="260.5" cy="52.5" r="3.5"/>
	<circle cx="203.5" cy="53.5" r="3.5"/>
	<circle cx="145.5" cy="62.5" r="3.5"/>
</g>
</svg>
