<?xml version="1.0" encoding="utf-8"?>
<!-- Generator: Adobe Illustrator 22.1.0, SVG Export Plug-In . SVG Version: 6.00 Build 0)  -->
<svg version="1.1" id="Layer_1" xmlns="http://www.w3.org/2000/svg" xmlns:xlink="http://www.w3.org/1999/xlink" x="0px" y="0px"
	 viewBox="0 0 512 512" style="enable-background:new 0 0 512 512;" xml:space="preserve">
<g>
	<g>
		<path d="M159.2,405.6c-13.8,0-25.1-11.3-25.1-25.1s11.3-25.1,25.1-25.1s25.1,11.3,25.1,25.1S173,405.6,159.2,405.6z M159.2,360.4
			c-11.1,0-20.1,9-20.1,20.1s9,20.1,20.1,20.1s20.1-9,20.1-20.1S170.3,360.4,159.2,360.4z"/>
	</g>
	<g>
		<path d="M170.5,235.3c-7.6,0-13.8-6.2-13.8-13.8s6.2-13.8,13.8-13.8s13.8,6.2,13.8,13.8S178.1,235.3,170.5,235.3z M170.5,212.7
			c-4.9,0-8.8,3.9-8.8,8.8s3.9,8.8,8.8,8.8s8.8-3.9,8.8-8.8S175.4,212.7,170.5,212.7z"/>
	</g>
	<g>
		<path d="M263.7,383c-7.6,0-13.8-6.2-13.8-13.8s6.2-13.8,13.8-13.8c7.7,0,13.8,6.1,13.8,13.8C277.5,376.8,271.3,383,263.7,383z
			 M263.7,360.4c-4.9,0-8.8,3.9-8.8,8.8s3.9,8.8,8.8,8.8s8.8-3.9,8.8-8.8S268.6,360.4,263.7,360.4z"/>
	</g>
	<g>
		<path d="M343.1,314.9c-7.6,0-13.8-6.2-13.8-13.8s6.2-13.8,13.8-13.8c3.5-0.1,7,1.2,9.6,3.8c2.7,2.6,4.2,6.2,4.2,10
			C356.9,308.7,350.7,314.9,343.1,314.9z M343.5,292.3c-0.1,0-0.2,0-0.3,0c-4.9,0-8.9,3.9-8.9,8.8s3.9,8.8,8.8,8.8s8.8-3.9,8.8-8.8
			c0-2.5-1-4.8-2.7-6.5C347.6,293.1,345.6,292.3,343.5,292.3z"/>
	</g>
	<g>
		<path d="M300,135.4c-7.6,0-13.8-6.2-13.8-13.8s6.2-13.8,13.8-13.8s13.8,6.2,13.8,13.8S307.6,135.4,300,135.4z M300,112.8
			c-4.9,0-8.8,3.9-8.8,8.8s3.9,8.8,8.8,8.8s8.8-3.9,8.8-8.8C308.8,116.7,304.9,112.8,300,112.8z"/>
	</g>
	<g>
		<path d="M286.3,251.4c-8.9,0-16.2-7.3-16.2-16.2s7.3-16.2,16.2-16.2s16.2,7.3,16.2,16.2S295.2,251.4,286.3,251.4z M286.3,224
			c-6.2,0-11.2,5-11.2,11.2s5,11.2,11.2,11.2s11.2-5,11.2-11.2S292.5,224,286.3,224z"/>
	</g>
</g>
</svg>
