<?xml version="1.0" encoding="utf-8"?>
<!-- Generator: Adobe Illustrator 22.1.0, SVG Export Plug-In . SVG Version: 6.00 Build 0)  -->
<svg version="1.1" id="Layer_1" xmlns="http://www.w3.org/2000/svg" xmlns:xlink="http://www.w3.org/1999/xlink" x="0px" y="0px"
	 viewBox="0 0 512 512" style="enable-background:new 0 0 512 512;" xml:space="preserve">
<g>
	<circle cx="93.5" cy="124.5" r="3.5"/>
	<circle cx="62.5" cy="168.5" r="3.5"/>
	<circle cx="47.5" cy="215.5" r="3.5"/>
	<circle cx="38.5" cy="269.5" r="3.5"/>
	<circle cx="90.5" cy="269.5" r="3.5"/>
	<circle cx="142.5" cy="267.5" r="3.5"/>
	<circle cx="195.5" cy="267.5" r="3.5"/>
	<circle cx="255.5" cy="267.5" r="3.5"/>
	<circle cx="311.5" cy="267.5" r="3.5"/>
	<circle cx="361.5" cy="267.5" r="3.5"/>
	<circle cx="418.5" cy="270.5" r="3.5"/>
	<circle cx="471.5" cy="266.5" r="3.5"/>
	<circle cx="467.5" cy="225.5" r="3.5"/>
	<circle cx="455.5" cy="190.5" r="3.5"/>
	<circle cx="429.5" cy="145.5" r="3.5"/>
	<circle cx="397.5" cy="105.5" r="3.5"/>
	<circle cx="353.5" cy="75.5" r="3.5"/>
	<circle cx="293.5" cy="53.5" r="3.5"/>
	<circle cx="237.5" cy="53.5" r="3.5"/>
	<circle cx="185.5" cy="65.5" r="3.5"/>
	<circle cx="134.5" cy="86.5" r="3.5"/>
</g>
</svg>
