<?xml version="1.0" encoding="utf-8"?>
<!-- Generator: Adobe Illustrator 22.1.0, SVG Export Plug-In . SVG Version: 6.00 Build 0)  -->
<svg version="1.1" id="Layer_1" xmlns="http://www.w3.org/2000/svg" xmlns:xlink="http://www.w3.org/1999/xlink" x="0px" y="0px"
	 viewBox="0 0 512 512" style="enable-background:new 0 0 512 512;" xml:space="preserve">
<g>
	<g>
		<path d="M378.6,466.4H132.8c-53.4,0-96.9-43.5-96.9-96.9c0-1.4,1.1-2.5,2.5-2.5h27.2c1.4,0,2.5,1.1,2.5,2.5S67,372,65.6,372H40.9
			c1.3,49.5,42,89.4,91.9,89.4h245.8c49.8,0,90.5-39.9,91.9-89.4h-44.2c-1.4,0-2.5-1.1-2.5-2.5s1.1-2.5,2.5-2.5H473
			c1.4,0,2.5,1.1,2.5,2.5C475.5,422.9,432,466.4,378.6,466.4z"/>
	</g>
	<g>
		<path d="M445.7,372.2h-380c-16.4,0-29.7-13.3-29.7-29.7s13.3-29.7,29.7-29.7h11.1c1.4,0,2.5,1.1,2.5,2.5s-1.1,2.5-2.5,2.5H65.7
			c-13.6,0-24.7,11.1-24.7,24.7s11.1,24.7,24.7,24.7h380c13.6,0,24.7-11.1,24.7-24.7s-11.1-24.7-24.7-24.7h-11.1
			c-1.4,0-2.5-1.1-2.5-2.5s1.1-2.5,2.5-2.5h11.1c16.4,0,29.7,13.3,29.7,29.7S462.1,372.2,445.7,372.2z"/>
	</g>
	<g>
		<path d="M124.4,372.4c-7.2,0-13-5.8-13-13v-41.5H79.3c-8.9,0-16.1-7.2-16.1-16.1c0-4.3,1.6-8.3,4.7-11.4s7.1-4.7,11.4-4.7h353.1
			c4.2,0,8.2,1.6,11.2,4.5c3.1,3,4.8,7.1,4.8,11.5v0.1c-0.2,4.4-1.9,8.2-4.9,11.2c-3.1,3.1-7.1,4.7-11.4,4.7H155.4V335
			c0.1,3.3-1.1,6.6-3.5,9c-2.4,2.5-5.9,4-9.5,4c-1.7,0-3.4-0.4-5-1v12.4C137.4,366.6,131.6,372.4,124.4,372.4z M432.6,290.7h-0.1
			H79.3c-2.9,0-5.7,1.2-7.8,3.3c-2.1,2.1-3.3,4.8-3.3,7.8c0,6.1,5,11.1,11.1,11.1h34.6c1.4,0,2.5,1.1,2.5,2.5v44c0,4.4,3.6,8,8,8
			c4.4,0,8-3.6,8-8v-17.2c0-1,0.6-2,1.6-2.3c1-0.4,2.1-0.1,2.8,0.7c1.4,1.5,3.5,2.5,5.6,2.5c2.3,0,4.4-0.9,5.9-2.4
			c1.4-1.5,2.2-3.4,2.1-5.5v-19.8c0-1.4,1.1-2.5,2.5-2.5h279.2c2.9,0,5.7-1.2,7.8-3.3c2.1-2.1,3.3-4.8,3.5-7.9c0-3-1.2-5.8-3.3-7.8
			C438.1,291.8,435.4,290.7,432.6,290.7z M445.9,301.7L445.9,301.7L445.9,301.7z"/>
	</g>
</g>
</svg>
