<?xml version="1.0" encoding="utf-8"?>
<!-- Generator: Adobe Illustrator 22.1.0, SVG Export Plug-In . SVG Version: 6.00 Build 0)  -->
<svg version="1.1" id="Layer_1" xmlns="http://www.w3.org/2000/svg" xmlns:xlink="http://www.w3.org/1999/xlink" x="0px" y="0px"
	 viewBox="0 0 512 512" style="enable-background:new 0 0 512 512;" xml:space="preserve">
<g>
	<g>
		<path d="M277.8,142.2h-35.2c-0.8,0-1.5-0.4-2-1c-3.2-4.1-4.9-9.2-4.9-14.7c0-13.5,11-24.5,24.5-24.5c13.5,0,24.5,11,24.5,24.5
			c0,5.5-1.7,10.6-4.9,14.7C279.3,141.8,278.6,142.2,277.8,142.2z M243.9,137.2h32.7c2.1-3.1,3.2-6.7,3.2-10.7
			c0-10.8-8.7-19.5-19.5-19.5c-10.8,0-19.5,8.7-19.5,19.5C240.7,130.5,241.8,134.1,243.9,137.2z"/>
	</g>
	<g>
		<path d="M476,254.8H39.5c-0.7,0-1.8,0-2.7-0.3c-3.9-1.1-6.8-5-6.8-9.2c0-4.1,2.8-7.8,6.8-9c0.6-0.2,1.7-0.5,2.7-0.5H476
			c1.9,0,3.8,0.6,5.4,1.6c0.1,0,0.1,0.1,0.2,0.2c2.5,2.1,3.9,4.8,3.9,7.7c0,3-1.4,5.8-4,7.8l-0.1,0.1
			C479.8,254.2,477.9,254.8,476,254.8z M480,251.1L480,251.1L480,251.1z M39.5,240.8c-0.2,0-0.6,0.1-1.2,0.3h-0.1
			c-1.9,0.5-3.2,2.3-3.2,4.2c0,2,1.4,3.9,3.2,4.4h0.1c0.2,0.1,0.9,0.1,1.2,0.1H476c0.9,0,1.8-0.3,2.5-0.7c0.9-0.7,2-2,2-3.8
			c0-1.7-1.1-3-2-3.8c-0.7-0.5-1.6-0.7-2.5-0.7H39.5z"/>
	</g>
	<g>
		<path d="M476,331.6H39.5c-1,0-2.1-0.3-2.7-0.5c-3.9-1.1-6.8-4.9-6.8-9s2.7-7.7,6.7-9.2c1-0.3,2.1-0.3,2.8-0.3H476
			c1.9,0,3.8,0.6,5.4,1.6c2.5,1.7,4.1,4.7,4.1,7.9c0,3-1.4,5.8-4,7.8l-0.1,0.1C479.8,331,477.9,331.6,476,331.6z M480,327.9
			L480,327.9L480,327.9z M39.5,317.6c-0.3,0-1,0-1.2,0.1c-1.6,0.6-3.3,2.2-3.3,4.4c0,1.8,1.4,3.7,3.2,4.2h0.1
			c0.6,0.2,1.1,0.3,1.2,0.3H476c0.9,0,1.8-0.3,2.5-0.7c0.9-0.7,2-2,2-3.8c0-1.5-0.7-3-1.9-3.7c-0.8-0.5-1.7-0.8-2.6-0.8H39.5z"/>
	</g>
	<g>
		<g>
			<path d="M474,174.1H37.5c-10.2,0-18.5-8.3-18.5-18.5s8.3-18.5,18.5-18.5H474c10.2,0.1,18.5,8.4,18.5,18.5
				C492.5,165.8,484.2,174.1,474,174.1z M474,142.1H37.5c-7.4,0-13.5,6.1-13.5,13.5s6.1,13.5,13.5,13.5H474
				c7.4,0,13.5-6.1,13.5-13.5C487.5,148.2,481.4,142.2,474,142.1z"/>
		</g>
	</g>
</g>
</svg>
