<?xml version="1.0" encoding="utf-8"?>
<!-- Generator: Adobe Illustrator 22.1.0, SVG Export Plug-In . SVG Version: 6.00 Build 0)  -->
<svg version="1.1" id="Layer_1" xmlns="http://www.w3.org/2000/svg" xmlns:xlink="http://www.w3.org/1999/xlink" x="0px" y="0px"
	 viewBox="0 0 512 512" style="enable-background:new 0 0 512 512;" xml:space="preserve">
<g id="Layer_1_1_">
	<g>
		<path d="M253,404.3c-0.2,0-0.4,0-0.5-0.1l-60.4-13.1c-1.3-0.3-2.2-1.6-1.9-3c0.3-1.3,1.6-2.2,3-1.9l60.4,13.1
			c1.3,0.3,2.2,1.6,1.9,3C255.2,403.5,254.2,404.3,253,404.3z"/>
	</g>
	<g>
		<path d="M294.9,331.6c-0.2,0-0.4,0-0.5-0.1L234,318.4c-1.3-0.3-2.2-1.6-1.9-3c0.3-1.3,1.6-2.2,3-1.9l60.4,13.1
			c1.3,0.3,2.2,1.6,1.9,3C297.1,330.8,296.1,331.6,294.9,331.6z"/>
	</g>
	<g>
		<path d="M336.1,259.8c-0.2,0-0.4,0-0.5-0.1l-60.5-13.1c-1.3-0.3-2.2-1.6-1.9-3c0.3-1.3,1.6-2.2,3-1.9l60.5,13.1
			c1.3,0.3,2.2,1.6,1.9,3C338.3,259,337.3,259.8,336.1,259.8z"/>
	</g>
	<g>
		<path d="M372.6,193.2c-0.2,0-0.5,0-0.7-0.1l-57-16.5c-1.3-0.4-2.1-1.8-1.7-3.1s1.8-2.1,3.1-1.7l57,16.5c1.3,0.4,2.1,1.8,1.7,3.1
			C374.7,192.5,373.7,193.2,372.6,193.2z"/>
	</g>
	<g>
		<path d="M317.6,123.2c-0.9,0-1.8-0.5-2.2-1.4c-0.6-1.2-0.2-2.7,1.1-3.4L369,91.2c1.2-0.6,2.7-0.2,3.4,1.1c0.6,1.2,0.2,2.7-1.1,3.4
			l-52.5,27.2C318.4,123.1,318,123.2,317.6,123.2z"/>
	</g>
	<g>
		<path d="M275.7,84.1c-1.3,0-2.4-1-2.5-2.3l-5-61c-0.1-1.4,0.9-2.6,2.3-2.7s2.6,0.9,2.7,2.3l5,61c0.1,1.4-0.9,2.6-2.3,2.7
			C275.8,84.1,275.8,84.1,275.7,84.1z"/>
	</g>
	<g>
		<path d="M187.8,125.2c-0.6,0-1.3-0.2-1.8-0.7l-40.2-40.7c-1-1-1-2.6,0-3.5c1-1,2.6-1,3.5,0l40.2,40.7c1,1,1,2.6,0,3.5
			C189.1,125,188.4,125.2,187.8,125.2z"/>
	</g>
	<g>
		<path d="M216,94.4c-0.6,0-1.3-0.2-1.8-0.7l-41.5-42.1c-1-1-1-2.6,0-3.5c1-1,2.6-1,3.5,0l41.5,42.1c1,1,1,2.6,0,3.5
			C217.3,94.2,216.6,94.4,216,94.4z"/>
	</g>
	<g>
		<path d="M211.8,476.1c-0.2,0-0.4,0-0.5-0.1l-59-12.7c-1.4-0.3-2.2-1.6-1.9-3c0.3-1.3,1.6-2.2,3-1.9l59,12.7c1.4,0.3,2.2,1.6,1.9,3
			C214,475.3,213,476.1,211.8,476.1z"/>
	</g>
	<g>
		<path d="M233.7,438.1c-0.2,0-0.4,0-0.5-0.1l-60.6-13.1c-1.3-0.3-2.2-1.6-1.9-3c0.3-1.3,1.6-2.2,3-1.9l60.6,13.1
			c1.3,0.3,2.2,1.6,1.9,3C235.9,437.3,234.9,438.1,233.7,438.1z"/>
	</g>
	<g>
		<path d="M274.9,366.4c-0.2,0-0.4,0-0.5-0.1l-60.5-13.2c-1.3-0.3-2.2-1.6-1.9-3c0.3-1.3,1.6-2.2,3-1.9l60.5,13.2
			c1.3,0.3,2.2,1.6,1.9,3C277.1,365.6,276.1,366.4,274.9,366.4z"/>
	</g>
	<g>
		<path d="M316.8,293.4c-0.2,0-0.4,0-0.5-0.1l-60.6-13.1c-1.3-0.3-2.2-1.6-1.9-3c0.3-1.3,1.6-2.2,3-1.9l60.6,13.1
			c1.3,0.3,2.2,1.6,1.9,3C319,292.6,318,293.4,316.8,293.4z"/>
	</g>
	<g>
		<path d="M357.9,221.8c-0.2,0-0.4,0-0.5-0.1L297,208.6c-1.3-0.3-2.2-1.6-1.9-3c0.3-1.3,1.6-2.2,3-1.9l60.4,13.1
			c1.3,0.3,2.2,1.6,1.9,3C360.1,221,359.1,221.8,357.9,221.8z"/>
	</g>
	<g>
		<path d="M381.2,152.1c-0.2,0-0.5,0-0.7-0.1l-60-17.5c-1.3-0.4-2.1-1.8-1.7-3.1s1.8-2.1,3.1-1.7l60,17.5c1.3,0.4,2.1,1.8,1.7,3.1
			C383.3,151.4,382.3,152.1,381.2,152.1z"/>
	</g>
	<g>
		<path d="M290,90.3c-0.9,0-1.8-0.5-2.2-1.3c-0.6-1.2-0.2-2.7,1.1-3.4l56.8-29.5c1.2-0.6,2.7-0.2,3.4,1.1c0.6,1.2,0.2,2.7-1.1,3.4
			L291.2,90C290.8,90.2,290.4,90.3,290,90.3z"/>
	</g>
	<g>
		<path d="M233.9,84.9c-1.3,0-2.4-1-2.5-2.3l-5-59.6c-0.1-1.4,0.9-2.6,2.3-2.7c1.4-0.1,2.6,0.9,2.7,2.3l5,59.6
			c0.1,1.4-0.9,2.6-2.3,2.7C234,84.9,234,84.9,233.9,84.9z"/>
	</g>
</g>
</svg>
