<?xml version="1.0" encoding="utf-8"?>
<!-- Generator: Adobe Illustrator 22.1.0, SVG Export Plug-In . SVG Version: 6.00 Build 0)  -->
<svg version="1.1" id="Layer_1" xmlns="http://www.w3.org/2000/svg" xmlns:xlink="http://www.w3.org/1999/xlink" x="0px" y="0px"
	 viewBox="0 0 512 512" style="enable-background:new 0 0 512 512;" xml:space="preserve">
<g>
	<circle cx="143.5" cy="87.5" r="3.5"/>
	<circle cx="147.5" cy="115.5" r="3.5"/>
	<circle cx="167.5" cy="128.5" r="3.5"/>
	<circle cx="191.5" cy="128.5" r="3.5"/>
	<circle cx="204.5" cy="109.5" r="3.5"/>
	<circle cx="226.5" cy="88.5" r="3.5"/>
	<circle cx="254.5" cy="80.5" r="3.5"/>
	<circle cx="282.5" cy="87.5" r="3.5"/>
	<circle cx="302.5" cy="104.5" r="3.5"/>
	<circle cx="313.5" cy="128.5" r="3.5"/>
	<circle cx="315.5" cy="154.5" r="3.5"/>
	<circle cx="304.5" cy="183.5" r="3.5"/>
	<circle cx="282.5" cy="226.5" r="3.5"/>
	<circle cx="261.5" cy="260.5" r="3.5"/>
	<circle cx="244.5" cy="294.5" r="3.5"/>
	<circle cx="222.5" cy="332.5" r="3.5"/>
	<circle cx="203.5" cy="367.5" r="3.5"/>
	<circle cx="182.5" cy="401.5" r="3.5"/>
	<circle cx="163.5" cy="439.5" r="3.5"/>
	<circle cx="145.5" cy="464.5" r="3.5"/>
	<circle cx="145.5" cy="484.5" r="3.5"/>
	<circle cx="167.5" cy="498.5" r="3.5"/>
	<circle cx="198.5" cy="494.5" r="3.5"/>
	<circle cx="224.5" cy="458.5" r="3.5"/>
	<circle cx="247.5" cy="418.5" r="3.5"/>
	<circle cx="264.5" cy="385.5" r="3.5"/>
	<circle cx="284.5" cy="347.5" r="3.5"/>
	<circle cx="304.5" cy="315.5" r="3.5"/>
	<circle cx="327.5" cy="276.5" r="3.5"/>
	<circle cx="347.5" cy="240.5" r="3.5"/>
	<circle cx="365.5" cy="209.5" r="3.5"/>
	<circle cx="381.5" cy="168.5" r="3.5"/>
	<circle cx="383.5" cy="137.5" r="3.5"/>
	<circle cx="377.5" cy="102.5" r="3.5"/>
	<circle cx="365.5" cy="76.5" r="3.5"/>
	<circle cx="340.5" cy="50.5" r="3.5"/>
	<circle cx="316.5" cy="33.5" r="3.5"/>
	<circle cx="289.5" cy="23.5" r="3.5"/>
	<circle cx="250.5" cy="20.5" r="3.5"/>
	<circle cx="200.5" cy="32.5" r="3.5"/>
	<circle cx="161.5" cy="65.5" r="3.5"/>
</g>
</svg>
