<?xml version="1.0" encoding="utf-8"?>
<!-- Generator: Adobe Illustrator 22.1.0, SVG Export Plug-In . SVG Version: 6.00 Build 0)  -->
<svg version="1.1" id="Layer_1" xmlns="http://www.w3.org/2000/svg" xmlns:xlink="http://www.w3.org/1999/xlink" x="0px" y="0px"
	 viewBox="0 0 512 512" style="enable-background:new 0 0 512 512;" xml:space="preserve">
<g>
	<circle cx="25.5" cy="290.5" r="3.5"/>
	<circle cx="31.5" cy="330.5" r="3.5"/>
	<circle cx="59.5" cy="352.5" r="3.5"/>
	<circle cx="95.5" cy="352.5" r="3.5"/>
	<circle cx="123.5" cy="330.5" r="3.5"/>
	<circle cx="142.5" cy="297.5" r="3.5"/>
	<circle cx="168.5" cy="266.5" r="3.5"/>
	<circle cx="197.5" cy="243.5" r="3.5"/>
	<circle cx="234.5" cy="229.5" r="3.5"/>
	<circle cx="284.5" cy="233.5" r="3.5"/>
	<circle cx="316.5" cy="256.5" r="3.5"/>
	<circle cx="338.5" cy="294.5" r="3.5"/>
	<circle cx="347.5" cy="335.5" r="3.5"/>
	<circle cx="347.5" cy="375.5" r="3.5"/>
	<circle cx="358.5" cy="403.5" r="3.5"/>
	<circle cx="391.5" cy="419.5" r="3.5"/>
	<circle cx="433.5" cy="414.5" r="3.5"/>
	<circle cx="462.5" cy="382.5" r="3.5"/>
	<circle cx="482.5" cy="346.5" r="3.5"/>
	<circle cx="493.5" cy="302.5" r="3.5"/>
	<circle cx="492.5" cy="252.5" r="3.5"/>
	<circle cx="485.5" cy="212.5" r="3.5"/>
	<circle cx="469.5" cy="167.5" r="3.5"/>
	<circle cx="433.5" cy="134.5" r="3.5"/>
	<circle cx="391.5" cy="104.5" r="3.5"/>
	<circle cx="343.5" cy="84.5" r="3.5"/>
	<circle cx="289.5" cy="70.5" r="3.5"/>
	<circle cx="239.5" cy="68.5" r="3.5"/>
	<circle cx="200.5" cy="76.5" r="3.5"/>
	<circle cx="158.5" cy="89.5" r="3.5"/>
	<circle cx="126.5" cy="106.5" r="3.5"/>
	<circle cx="98.5" cy="126.5" r="3.5"/>
	<circle cx="71.5" cy="155.5" r="3.5"/>
	<circle cx="41.5" cy="193.5" r="3.5"/>
	<circle cx="27.5" cy="226.5" r="3.5"/>
	<circle cx="19.5" cy="260.5" r="3.5"/>
</g>
</svg>
