<?xml version="1.0" encoding="utf-8"?>
<!-- Generator: Adobe Illustrator 22.1.0, SVG Export Plug-In . SVG Version: 6.00 Build 0)  -->
<svg version="1.1" id="Layer_1" xmlns="http://www.w3.org/2000/svg" xmlns:xlink="http://www.w3.org/1999/xlink" x="0px" y="0px"
	 viewBox="0 0 512 512" style="enable-background:new 0 0 512 512;" xml:space="preserve">
<g>
	<path d="M17.7,221.7c-1.1,0-2.1-0.8-2.4-1.9c-5.1-20-4.2-44.1,2.6-67.9c13-45.7,47-83.7,93.3-104.1
		c61.5-27.6,181.5-59.3,293.5,38.8c14.3,12.7,26.9,28.7,37.4,47.5c0.7,1.2,0.2,2.7-1,3.4s-2.7,0.3-3.4-1
		c-10.3-18.3-22.5-33.8-36.4-46.2c-109.8-96.2-227.7-65.1-288.1-38c-45,19.8-78,56.6-90.5,100.9c-6.6,22.9-7.5,46.1-2.6,65.3
		c0.3,1.3-0.5,2.7-1.8,3C18.1,221.7,17.9,221.7,17.7,221.7z"/>
</g>
</svg>
