<?xml version="1.0" encoding="utf-8"?>
<!-- Generator: Adobe Illustrator 22.1.0, SVG Export Plug-In . SVG Version: 6.00 Build 0)  -->
<svg version="1.1" id="Layer_1" xmlns="http://www.w3.org/2000/svg" xmlns:xlink="http://www.w3.org/1999/xlink" x="0px" y="0px"
	 viewBox="0 0 512 512" style="enable-background:new 0 0 512 512;" xml:space="preserve">
<g>
	<g>
		<path d="M331.2,337H191.6c-1.4,0-2.5-1.1-2.5-2.5s1.1-2.5,2.5-2.5h139.6c1.4,0,2.5,1.1,2.5,2.5S332.6,337,331.2,337z"/>
	</g>
	<g>
		<path d="M331.2,416.1H191.6c-1.4,0-2.5-1.1-2.5-2.5s1.1-2.5,2.5-2.5h139.6c1.4,0,2.5,1.1,2.5,2.5S332.6,416.1,331.2,416.1z"/>
	</g>
	<g>
		<path d="M290.5,67.3c-1.4,0-2.5-1.1-2.5-2.5V30.7c0-7.2-5.7-12.9-12.9-12.9h-27.5c-7.2,0-12.9,5.7-12.9,12.9v34.1
			c0,1.4-1.1,2.5-2.5,2.5s-2.5-1.1-2.5-2.5V30.7c0-10,7.9-17.9,17.9-17.9h27.5c10,0,17.9,7.9,17.9,17.9v34.1
			C293,66.2,291.9,67.3,290.5,67.3z"/>
	</g>
	<g>
		<path d="M261.6,254c-0.3,0-0.6-0.1-0.9-0.2l-48.3-18.7c-1.3-0.5-1.9-1.9-1.4-3.2s1.9-1.9,3.2-1.4l47.4,18.3l47-18.3
			c1.3-0.5,2.7,0.1,3.2,1.4c0.5,1.3-0.1,2.7-1.4,3.2l-47.9,18.7C262.2,253.9,261.9,254,261.6,254z"/>
	</g>
</g>
</svg>
