<?xml version="1.0" encoding="utf-8"?>
<!-- Generator: Adobe Illustrator 22.1.0, SVG Export Plug-In . SVG Version: 6.00 Build 0)  -->
<svg version="1.1" id="Layer_1" xmlns="http://www.w3.org/2000/svg" xmlns:xlink="http://www.w3.org/1999/xlink" x="0px" y="0px"
	 viewBox="0 0 512 512" style="enable-background:new 0 0 512 512;" xml:space="preserve">
<g>
	<circle cx="27.8" cy="282.5" r="3.5"/>
	<circle cx="27.8" cy="313.5" r="3.5"/>
	<circle cx="54.5" cy="317.5" r="3.5"/>
	<circle cx="65.5" cy="339.5" r="3.5"/>
	<circle cx="61.5" cy="365.5" r="3.5"/>
	<circle cx="48.5" cy="378.5" r="3.5"/>
	<circle cx="27.8" cy="388.5" r="3.5"/>
	<circle cx="27.8" cy="436.5" r="3.5"/>
	<circle cx="74.8" cy="425.3" r="3.5"/>
	<circle cx="121.1" cy="414.1" r="3.5"/>
	<circle cx="167.4" cy="402.9" r="3.5"/>
	<circle cx="213.7" cy="391.7" r="3.5"/>
	<circle cx="260" cy="380.5" r="3.5"/>
	<circle cx="306.3" cy="369.3" r="3.5"/>
	<circle cx="352.6" cy="358.1" r="3.5"/>
	<circle cx="398.9" cy="346.9" r="3.5"/>
	<circle cx="445.2" cy="335.7" r="3.5"/>
	<circle cx="488.1" cy="324.5" r="3.5"/>
	<circle cx="488.1" cy="282.5" r="3.5"/>
	<circle cx="488.1" cy="236.5" r="3.5"/>
	<circle cx="488.1" cy="193.5" r="3.5"/>
	<circle cx="488.1" cy="155.5" r="3.5"/>
	<circle cx="456.5" cy="131.5" r="3.5"/>
	<circle cx="430.5" cy="104.5" r="3.5"/>
	<circle cx="393.5" cy="85.5" r="3.5"/>
	<circle cx="354.5" cy="69.5" r="3.5"/>
	<circle cx="315.5" cy="56.5" r="3.5"/>
	<circle cx="280.5" cy="53.5" r="3.5"/>
	<circle cx="234.5" cy="53.5" r="3.5"/>
	<circle cx="207.5" cy="57.5" r="3.5"/>
	<circle cx="180.5" cy="86.5" r="3.5"/>
	<circle cx="156.5" cy="121.5" r="3.5"/>
	<circle cx="124.5" cy="159.5" r="3.5"/>
	<circle cx="139.5" cy="169.5" r="3.5"/>
	<circle cx="135.5" cy="190.5" r="3.5"/>
	<circle cx="113.5" cy="206.5" r="3.5"/>
	<circle cx="81.5" cy="208.5" r="3.5"/>
	<circle cx="58.5" cy="233.5" r="3.5"/>
	<circle cx="35.5" cy="256.5" r="3.5"/>
</g>
</svg>
