<?xml version="1.0" encoding="utf-8"?>
<!-- Generator: Adobe Illustrator 22.1.0, SVG Export Plug-In . SVG Version: 6.00 Build 0)  -->
<svg version="1.1" id="Layer_1" xmlns="http://www.w3.org/2000/svg" xmlns:xlink="http://www.w3.org/1999/xlink" x="0px" y="0px"
	 viewBox="0 0 512 512" style="enable-background:new 0 0 512 512;" xml:space="preserve">
<g>
	<g>
		<path d="M27.8,272.9c-1.1,0-2.2-0.8-2.4-1.9c-0.3-1.3,0.5-2.7,1.9-3l245-57.4c0.7-0.2,1.4,0,2,0.4s1,1,1.1,1.7
			c2.5,16,16.1,27.6,32.3,27.6c18,0,32.7-14.7,32.7-32.7c0-3.2-0.5-6.5-1.5-9.9c-0.2-0.7-0.1-1.4,0.2-2c0.3-0.6,0.9-1,1.6-1.2
			l145.1-33.8c1.4-0.3,2.7,0.5,3,1.9c0.3,1.3-0.5,2.7-1.9,3l-142.6,33.2c0.7,3,1,5.9,1,8.7c0,20.8-16.9,37.7-37.7,37.7
			c-17.8,0-32.9-12.1-36.8-29.2L28.4,272.8C28.2,272.9,28,272.9,27.8,272.9z"/>
	</g>
	<g>
		<path d="M257.9,141.1c-15.8,0-28.6-12.8-28.6-28.6s12.8-28.6,28.6-28.6s28.6,12.8,28.6,28.6S273.7,141.1,257.9,141.1z M257.9,88.9
			c-13,0-23.6,10.6-23.6,23.6s10.6,23.6,23.6,23.6s23.6-10.6,23.6-23.6S270.9,88.9,257.9,88.9z"/>
	</g>
	<g>
		<path d="M172.7,358.1c-15.8,0-28.6-12.8-28.6-28.6s12.8-28.6,28.6-28.6s28.6,12.8,28.6,28.6S188.5,358.1,172.7,358.1z
			 M172.7,305.9c-13,0-23.6,10.6-23.6,23.6s10.6,23.6,23.6,23.6s23.6-10.6,23.6-23.6S185.7,305.9,172.7,305.9z"/>
	</g>
</g>
</svg>
