<?xml version="1.0" encoding="utf-8"?>
<!-- Generator: Adobe Illustrator 22.1.0, SVG Export Plug-In . SVG Version: 6.00 Build 0)  -->
<svg version="1.1" id="Layer_1" xmlns="http://www.w3.org/2000/svg" xmlns:xlink="http://www.w3.org/1999/xlink" x="0px" y="0px"
	 viewBox="0 0 512 512" style="enable-background:new 0 0 512 512;" xml:space="preserve">
<g>
	<circle cx="80.5" cy="84.5" r="3.5"/>
	<circle cx="62.5" cy="117.5" r="3.5"/>
	<circle cx="56.5" cy="156.5" r="3.5"/>
	<circle cx="60.5" cy="192.5" r="3.5"/>
	<circle cx="73.5" cy="221.5" r="3.5"/>
	<circle cx="103.5" cy="247.5" r="3.5"/>
	<circle cx="133.5" cy="266.5" r="3.5"/>
	<circle cx="172.5" cy="284.5" r="3.5"/>
	<circle cx="209.5" cy="307.5" r="3.5"/>
	<circle cx="240.5" cy="327.5" r="3.5"/>
	<circle cx="270.5" cy="347.5" r="3.5"/>
	<circle cx="296.5" cy="366.5" r="3.5"/>
	<circle cx="328.5" cy="380.5" r="3.5"/>
	<circle cx="362.5" cy="369.5" r="3.5"/>
	<circle cx="378.5" cy="338.5" r="3.5"/>
	<circle cx="376.5" cy="307.5" r="3.5"/>
	<circle cx="367.5" cy="278.5" r="3.5"/>
	<circle cx="353.5" cy="247.5" r="3.5"/>
	<circle cx="338.5" cy="214.5" r="3.5"/>
	<circle cx="328.5" cy="167.5" r="3.5"/>
	<circle cx="316.5" cy="128.5" r="3.5"/>
	<circle cx="303.5" cy="91.5" r="3.5"/>
	<circle cx="286.5" cy="54.5" r="3.5"/>
	<circle cx="256.5" cy="35.5" r="3.5"/>
	<circle cx="217.5" cy="23.5" r="3.5"/>
	<circle cx="174.5" cy="23.5" r="3.5"/>
	<circle cx="138.5" cy="32.5" r="3.5"/>
	<circle cx="105.5" cy="54.5" r="3.5"/>
</g>
</svg>
