<?xml version="1.0" encoding="utf-8"?>
<!-- Generator: Adobe Illustrator 22.1.0, SVG Export Plug-In . SVG Version: 6.00 Build 0)  -->
<svg version="1.1" id="Layer_1" xmlns="http://www.w3.org/2000/svg" xmlns:xlink="http://www.w3.org/1999/xlink" x="0px" y="0px"
	 viewBox="0 0 512 512" style="enable-background:new 0 0 512 512;" xml:space="preserve">
<g>
	<path d="M405.7,497.5c-22.8,0-41.4-18.6-41.4-41.4c0-13.1,6.1-25.3,16.5-33.1l-37.3-40.8c-0.9-1-0.9-2.6,0.2-3.5
		c1-0.9,2.6-0.9,3.5,0.2l39.2,42.9c0.5,0.5,0.7,1.3,0.6,2s-0.5,1.4-1.1,1.8c-10.4,6.8-16.7,18.2-16.7,30.6
		c0,20.1,16.3,36.4,36.4,36.4c19.9,0,36.2-16.3,36.4-36.2c0-0.7,0.3-1.4,0.9-1.9s1.3-0.7,2-0.5c0.9,0.2,1.9,0.2,3,0.2
		c20.1,0,36.4-16.3,36.4-36.4s-16.3-36.4-36.4-36.4c-12.4,0-23.4,5.8-30.2,15.9c-0.4,0.6-1.1,1-1.9,1.1s-1.5-0.2-2-0.8L376.1,356
		c-0.9-1-0.9-2.6,0.2-3.5c1-0.9,2.6-0.9,3.5,0.2l35.7,39.1c7.8-9.9,19.5-15.6,32.5-15.6c22.8,0,41.4,18.6,41.4,41.4
		S470.8,459,448,459c-0.3,0-0.7,0-1,0C445.4,480.5,427.4,497.5,405.7,497.5z"/>
</g>
</svg>
