<?xml version="1.0" encoding="utf-8"?>
<!-- Generator: Adobe Illustrator 22.1.0, SVG Export Plug-In . SVG Version: 6.00 Build 0)  -->
<svg version="1.1" id="Layer_1" xmlns="http://www.w3.org/2000/svg" xmlns:xlink="http://www.w3.org/1999/xlink" x="0px" y="0px"
	 viewBox="0 0 512 512" style="enable-background:new 0 0 512 512;" xml:space="preserve">
<g>
	<g>
		<g>
			<path d="M118.3,275.5c-10.3,0-19.1-2.4-26.5-7.3c-14.5-9.6-20-26.5-22.2-39c-0.1-0.7,0.1-1.4,0.5-2s1.1-0.9,1.8-0.9
				c17.2-0.7,40.1-6.1,66.6-12.3c23-5.6,41.7-8.7,55.6-9.3c1.4-0.1,2.5,1,2.6,2.4s-1,2.5-2.4,2.6c-13.5,0.6-31.9,3.7-54.6,9.1
				c-25.4,6-47.5,11.2-64.7,12.3c2.3,11.1,7.5,24.9,19.5,32.9c10.4,6.9,24.3,8.3,41.5,4.3c20-4.7,37.8-12.3,53-22.5
				c1.1-0.8,2.7-0.5,3.5,0.7c0.8,1.1,0.5,2.7-0.7,3.5c-15.7,10.6-34.1,18.4-54.6,23.3C130.4,274.7,124.1,275.5,118.3,275.5z"/>
		</g>
		<g>
			<path d="M67.7,231.3c-23.4,0-36.3-9.8-42.6-32c-11.4-38.9,6.7-86.1,45.1-117.6c13.2-10.8,21.8-14.2,27-10.8
				c6.1,4.1,3.6,16,2.7,19.5c2.1,6.1,17.2,48.8,32.1,69.2c14.9,20.1,40.7,27.9,59.6,33.7c2.8,0.8,5.4,1.6,7.8,2.4
				c1.3,0.4,2,1.8,1.6,3.1s-1.8,2-3.1,1.6c-2.4-0.8-5-1.6-7.8-2.4c-19.5-5.9-46.3-14.1-62.2-35.5c-16.4-22.5-32.3-69.3-33-71.3
				c-0.2-0.5-0.2-1,0-1.5c1.4-4.9,2.2-12.9-0.4-14.7c-1.1-0.7-5.7-2-21.1,10.5C36.5,115.7,19,160.9,29.9,197.9
				c6,21.2,18.1,29.4,41.8,28.3c17.2-0.8,40.3-6.1,66.6-12.3c23-5.4,41.8-8.4,55.9-9.2c1.4-0.1,2.6,1,2.6,2.4c0.1,1.4-1,2.6-2.4,2.6
				c-13.8,0.7-32.3,3.8-55,9c-26.5,6.3-49.9,11.6-67.5,12.5C70.5,231.3,69,231.3,67.7,231.3z"/>
		</g>
	</g>
	<g>
		<path d="M118.1,275.3c-10.3,0-19.1-2.4-26.5-7.3c-14.5-9.6-20-26.5-22.2-39c-0.1-0.7,0.1-1.4,0.5-2s1.1-0.9,1.8-0.9
			c17.2-0.7,40.1-6.1,66.6-12.3c30.2-7.2,47.8-9,57.2-9.3c1.4,0,2.5,1.1,2.6,2.4c0,1.4-1.1,2.5-2.4,2.6c-9.2,0.2-26.4,2-56.2,9.1
			c-25.4,6-47.5,11.2-64.7,12.3c2.3,11.1,7.5,24.9,19.5,32.9c10.4,6.9,24.3,8.3,41.5,4.3c21.2-5.2,39.6-12.9,53.2-22.3
			c1.1-0.8,2.7-0.5,3.5,0.6s0.5,2.7-0.6,3.5c-14.1,9.7-33,17.7-54.8,23.1C130.3,274.5,123.9,275.3,118.1,275.3z"/>
	</g>
	<g>
		<path d="M326,328.9c-1.1,0-2.1-0.7-2.4-1.8c-0.4-1.3,0.4-2.7,1.7-3.1c31.8-9.2,46.9-28.3,51.8-65.7c0.2-1.4,1.4-2.3,2.8-2.2
			c1.4,0.2,2.3,1.4,2.2,2.8c-5.2,39.2-21.8,60.1-55.4,69.9C326.5,328.9,326.2,328.9,326,328.9z"/>
	</g>
</g>
</svg>
