<?xml version="1.0" encoding="utf-8"?>
<!-- Generator: Adobe Illustrator 22.1.0, SVG Export Plug-In . SVG Version: 6.00 Build 0)  -->
<svg version="1.1" id="Layer_1" xmlns="http://www.w3.org/2000/svg" xmlns:xlink="http://www.w3.org/1999/xlink" x="0px" y="0px"
	 viewBox="0 0 512 512" style="enable-background:new 0 0 512 512;" xml:space="preserve">
<g>
	<circle cx="241.5" cy="177.5" r="3.5"/>
	<circle cx="206.5" cy="189.5" r="3.5"/>
	<circle cx="192.5" cy="226.5" r="3.5"/>
	<circle cx="192.5" cy="260.5" r="3.5"/>
	<circle cx="201.5" cy="290.5" r="3.5"/>
	<circle cx="220.5" cy="320.5" r="3.5"/>
	<circle cx="266.5" cy="336.5" r="3.5"/>
	<circle cx="303.5" cy="336.5" r="3.5"/>
	<circle cx="342.5" cy="331.5" r="3.5"/>
	<circle cx="385.5" cy="324.5" r="3.5"/>
	<circle cx="427.5" cy="305.5" r="3.5"/>
	<circle cx="452.5" cy="279.5" r="3.5"/>
	<circle cx="472.5" cy="254.5" r="3.5"/>
	<circle cx="472.5" cy="226.5" r="3.5"/>
	<circle cx="455.5" cy="204.5" r="3.5"/>
	<circle cx="422.5" cy="200.5" r="3.5"/>
	<circle cx="394.5" cy="222.5" r="3.5"/>
	<circle cx="381.5" cy="247.5" r="3.5"/>
	<circle cx="360.5" cy="271.5" r="3.5"/>
	<circle cx="337.5" cy="254.5" r="3.5"/>
	<circle cx="315.5" cy="229.5" r="3.5"/>
	<circle cx="299.5" cy="201.5" r="3.5"/>
	<circle cx="279.5" cy="189.5" r="3.5"/>
</g>
</svg>
