<?xml version="1.0" encoding="utf-8"?>
<!-- Generator: Adobe Illustrator 22.1.0, SVG Export Plug-In . SVG Version: 6.00 Build 0)  -->
<svg version="1.1" id="Layer_1" xmlns="http://www.w3.org/2000/svg" xmlns:xlink="http://www.w3.org/1999/xlink" x="0px" y="0px"
	 viewBox="0 0 512 512" style="enable-background:new 0 0 512 512;" xml:space="preserve">
<g>
	<circle cx="124.8" cy="246.5" r="3.5"/>
	<circle cx="124.8" cy="204.9" r="3.5"/>
	<circle cx="124.8" cy="163.2" r="3.5"/>
	<circle cx="124.8" cy="121.6" r="3.5"/>
	<circle cx="124.8" cy="80" r="3.5"/>
	<circle cx="124.8" cy="38.4" r="3.5"/>
	<circle cx="167.9" cy="38.4" r="3.5"/>
	<circle cx="211.1" cy="38.4" r="3.5"/>
	<ellipse transform="matrix(0.1602 -0.9871 0.9871 0.1602 175.5776 283.1667)" cx="254.2" cy="38.4" rx="3.5" ry="3.5"/>
	<circle cx="297.3" cy="38.4" r="3.5"/>
	<circle cx="340.4" cy="38.4" r="3.5"/>
	<circle cx="383.5" cy="38.4" r="3.5"/>
	<circle cx="383.5" cy="79.2" r="3.5"/>
	<circle cx="383.5" cy="120" r="3.5"/>
	<circle cx="383.5" cy="160.8" r="3.5"/>
	<circle cx="383.5" cy="201.7" r="3.5"/>
	<circle cx="383.5" cy="242.5" r="3.5"/>
</g>
</svg>
