<?xml version="1.0" encoding="utf-8"?>
<!-- Generator: Adobe Illustrator 22.1.0, SVG Export Plug-In . SVG Version: 6.00 Build 0)  -->
<svg version="1.1" id="Layer_1" xmlns="http://www.w3.org/2000/svg" xmlns:xlink="http://www.w3.org/1999/xlink" x="0px" y="0px"
	 viewBox="0 0 512 512" style="enable-background:new 0 0 512 512;" xml:space="preserve">
<g>
	<g>
		<path d="M370.4,493.4H140.8c-13.7,0-24.8-11.1-24.8-24.8V267.1c0-1.4,1.1-2.5,2.5-2.5h274.2c1.4,0,2.5,1.1,2.5,2.5v201.5
			C395.2,482.3,384.1,493.4,370.4,493.4z M121,269.6v199c0,10.9,8.9,19.8,19.8,19.8h229.6c10.9,0,19.8-8.9,19.8-19.8v-199H121z"/>
	</g>
	<g>
		<path d="M188.6,352.2c-0.7,0-1.4-0.3-1.9-0.9l-70.1-82.6c-0.6-0.7-0.8-1.8-0.4-2.7c0.4-0.9,1.3-1.5,2.3-1.5h274.2
			c1.2,0,2.2,0.8,2.5,2c0.2,1.2-0.4,2.3-1.5,2.8L189.5,352C189.2,352.1,188.9,352.2,188.6,352.2z M123.9,269.6l65.4,77.1l190.5-77.1
			H123.9z"/>
	</g>
	<g>
		<path d="M358.8,253.8H312c-5.1,0-9.3-4.8-9.3-10.6v-71.9c0-5.9,4.1-10.6,9.3-10.6h46.9c5,0,9.1,4.8,9.1,10.6v71.9
			c0,0.3,0,0.5-0.1,0.8C367.5,249.5,363.6,253.8,358.8,253.8z M312,165.7c-2.4,0-4.3,2.5-4.3,5.6v71.9c0,3,2,5.6,4.3,5.6h46.8
			c2.2,0,4.1-2.6,4.1-5.6c0-0.2,0-0.5,0.1-0.7v-71.2c0-3-1.9-5.6-4.1-5.6L312,165.7L312,165.7z M279,253.8h-46.9
			c-5.1,0-9.3-4.8-9.3-10.6v-71.9c0-5.9,4.1-10.6,9.3-10.6H279c5,0,9.1,4.8,9.1,10.6v71.9C288.1,249,284,253.8,279,253.8z
			 M232.1,165.7c-2.4,0-4.3,2.5-4.3,5.6v71.9c0,3,2,5.6,4.3,5.6H279c2.2,0,4.1-2.6,4.1-5.6v-71.9c0-3-1.9-5.6-4.1-5.6L232.1,165.7
			L232.1,165.7z M199.2,253.8h-46.9c-5,0-9.1-4.8-9.1-10.6v-71.9c0-5.8,4.1-10.6,9.1-10.6h46.9c5.1,0,9.3,4.8,9.3,10.6v71.9
			C208.5,249.1,204.4,253.8,199.2,253.8z M152.3,165.7c-2.2,0-4.1,2.6-4.1,5.6v71.9c0,3,1.9,5.6,4.1,5.6h46.9c2.4,0,4.3-2.5,4.3-5.6
			v-71.9c0-3-2-5.6-4.3-5.6L152.3,165.7L152.3,165.7z M358.8,149.8H312c-5.1,0-9.3-4.8-9.3-10.6V67.3c0-5.9,4.1-10.6,9.3-10.6h46.9
			c5.1,0,9.1,4.7,9.1,10.6v71.9c0,0.3,0,0.5-0.1,0.8C367.5,145.5,363.6,149.8,358.8,149.8z M312,61.7c-2.4,0-4.3,2.5-4.3,5.6v71.9
			c0,3,2,5.6,4.3,5.6h46.8c2.2,0,4.1-2.6,4.1-5.6c0-0.2,0-0.5,0.1-0.7V67.3c0-3.1-1.8-5.6-4.1-5.6C358.9,61.7,312,61.7,312,61.7z
			 M279,149.8h-46.9c-5.1,0-9.3-4.8-9.3-10.6V67.3c0-5.9,4.1-10.6,9.3-10.6H279c5.1,0,9.1,4.7,9.1,10.6v71.9
			C288.1,145,284,149.8,279,149.8z M232.1,61.7c-2.4,0-4.3,2.5-4.3,5.6v71.9c0,3,2,5.6,4.3,5.6H279c2.2,0,4.1-2.6,4.1-5.6V67.3
			c0-3.1-1.8-5.6-4.1-5.6C279,61.7,232.1,61.7,232.1,61.7z M199.2,149.8h-46.9c-5,0-9.1-4.8-9.1-10.6V67.3c0-5.8,4.1-10.6,9.1-10.6
			h46.9c5.2,0,9.3,4.7,9.3,10.6v71.9C208.5,145.1,204.4,149.8,199.2,149.8z M152.3,61.7c-2.2,0-4.1,2.6-4.1,5.6v71.9
			c0,3,1.9,5.6,4.1,5.6h46.9c2.4,0,4.3-2.5,4.3-5.6V67.3c0-3.1-1.9-5.6-4.3-5.6C199.2,61.7,152.3,61.7,152.3,61.7z"/>
	</g>
</g>
</svg>
