<?xml version="1.0" encoding="utf-8"?>
<!-- Generator: Adobe Illustrator 22.1.0, SVG Export Plug-In . SVG Version: 6.00 Build 0)  -->
<svg version="1.1" id="Layer_1" xmlns="http://www.w3.org/2000/svg" xmlns:xlink="http://www.w3.org/1999/xlink" x="0px" y="0px"
	 viewBox="0 0 512 512" style="enable-background:new 0 0 512 512;" xml:space="preserve">
<g>
	<g>
		<g>
			<path d="M360.5,158.1c-0.5,0-1.1-0.2-1.5-0.5c-1.1-0.8-1.3-2.4-0.5-3.5l60.4-79.5c0.3-0.4,0.7-0.7,1.1-0.8l54.9-20.4
				c1.3-0.4,2.4-1.4,3-2.7c0.6-1.2,0.6-2.6,0.2-3.7c-1.1-2.8-4.1-4.2-6.7-3.2l-57.1,21.1c-0.9,0.4-1.7,1-2.4,1.8l-68.7,90.4
				c-0.8,1.1-2.4,1.3-3.5,0.5s-1.3-2.4-0.5-3.5L408,63.6c1.3-1.6,2.8-2.7,4.6-3.4l57.2-21.1c5.2-1.9,11.1,0.8,13.1,6
				c0.9,2.3,0.8,5.1-0.3,7.6c-1.2,2.6-3.3,4.5-5.8,5.3l-54.1,20.1l-60,78.9C362,157.8,361.3,158.1,360.5,158.1z"/>
		</g>
	</g>
	<g>
		<path d="M382,158.1H209.1c-1.4,0-2.5-1.1-2.5-2.5s1.1-2.5,2.5-2.5H382c1.4,0,2.5,1.1,2.5,2.5S383.4,158.1,382,158.1z"/>
	</g>
	<g id="Layer_2_1_">
		<g>
			<g>
				<path d="M102.3,170.5c-41,0-74.4-33.4-74.4-74.4c0-19.9,7.7-38.6,21.8-52.7c14-14,32.7-21.8,52.6-21.9
					c19.9,0,38.6,7.7,52.7,21.8c14,14,21.8,32.7,21.9,52.6c0,1.4-1.1,2.5-2.5,2.5l0,0c-1.4,0-2.5-1.1-2.5-2.5
					c-0.2-38.3-31.4-69.4-69.6-69.4C64,26.7,32.9,57.9,32.9,96.1c0,38.3,31.1,69.4,69.4,69.4c17.2,0,33.8-6.3,46.6-17.9
					c1-0.9,2.6-0.8,3.5,0.2s0.8,2.6-0.2,3.5C138.5,163.7,120.8,170.5,102.3,170.5z"/>
			</g>
			<g>
				<path d="M101.2,152c-1.4,0-2.5-1.1-2.5-2.5V40c0-1.4,1.1-2.5,2.5-2.5s2.5,1.1,2.5,2.5v109.5C103.7,150.9,102.6,152,101.2,152z"
					/>
			</g>
			<g>
				<path d="M58.3,131.3c-0.8,0-1.5-0.3-2-1c-0.8-1.1-0.6-2.7,0.5-3.5l85.7-65.9c1.1-0.8,2.7-0.6,3.5,0.5s0.6,2.7-0.5,3.5
					l-85.7,65.9C59.4,131.1,58.8,131.3,58.3,131.3z"/>
			</g>
			<g>
				<path d="M101.2,98.4c-0.6,0-1.1-0.2-1.6-0.6l-43.1-35c-1.1-0.9-1.2-2.4-0.4-3.5c0.9-1.1,2.4-1.2,3.5-0.4l43.1,35
					c1.1,0.9,1.2,2.4,0.4,3.5C102.6,98.1,101.9,98.4,101.2,98.4z"/>
			</g>
			<g>
				<path d="M101.2,98.4h-55c-1.4,0-2.5-1.1-2.5-2.5s1.1-2.5,2.5-2.5h55c1.4,0,2.5,1.1,2.5,2.5S102.6,98.4,101.2,98.4z"/>
			</g>
		</g>
	</g>
	<g>
		<path d="M338.9,498.5h-91.8c-1.4,0-2.5-1.1-2.5-2.5s1.1-2.5,2.5-2.5h91.8c1.4,0,2.5,1.1,2.5,2.5S340.3,498.5,338.9,498.5z"/>
	</g>
</g>
</svg>
