<?xml version="1.0" encoding="utf-8"?>
<!-- Generator: Adobe Illustrator 22.1.0, SVG Export Plug-In . SVG Version: 6.00 Build 0)  -->
<svg version="1.1" id="Layer_1" xmlns="http://www.w3.org/2000/svg" xmlns:xlink="http://www.w3.org/1999/xlink" x="0px" y="0px"
	 viewBox="0 0 512 512" style="enable-background:new 0 0 512 512;" xml:space="preserve">
<g>
	<circle cx="273.5" cy="478.5" r="3.5"/>
	<circle cx="273.5" cy="437.3" r="3.5"/>
	<circle cx="273.5" cy="396.1" r="3.5"/>
	<circle cx="273.5" cy="354.9" r="3.5"/>
	<circle cx="273.5" cy="313.7" r="3.5"/>
	<circle cx="273.5" cy="272.5" r="3.5"/>
	<circle cx="255.5" cy="245.5" r="3.5"/>
	<circle cx="227.9" cy="216.1" r="3.5"/>
	<circle cx="200.3" cy="186.7" r="3.5"/>
	<circle cx="172.7" cy="157.3" r="3.5"/>
	<circle cx="145.1" cy="127.9" r="3.5"/>
	<circle cx="117.5" cy="98.5" r="3.5"/>
	<circle cx="168.1" cy="98.5" r="3.5"/>
	<circle cx="218.6" cy="98.5" r="3.5"/>
	<circle cx="269.2" cy="98.5" r="3.5"/>
	<circle cx="319.8" cy="98.5" r="3.5"/>
	<circle cx="370.4" cy="98.5" r="3.5"/>
	<circle cx="420.9" cy="98.5" r="3.5"/>
	<circle cx="471.5" cy="98.5" r="3.5"/>
	<circle cx="445.2" cy="125.3" r="3.5"/>
	<circle cx="418.8" cy="152.2" r="3.5"/>
	<circle cx="392.5" cy="179" r="3.5"/>
	<circle cx="366.2" cy="205.8" r="3.5"/>
	<circle cx="339.8" cy="232.7" r="3.5"/>
	<circle cx="313.5" cy="259.5" r="3.5"/>
	<circle cx="299.5" cy="278.5" r="3.5"/>
	<circle cx="299.5" cy="318.9" r="3.5"/>
	<circle cx="299.5" cy="359.3" r="3.5"/>
	<circle cx="299.5" cy="399.7" r="3.5"/>
	<circle cx="299.5" cy="440.1" r="3.5"/>
	<circle cx="299.5" cy="480.5" r="3.5"/>
</g>
</svg>
