<?xml version="1.0" encoding="utf-8"?>
<!-- Generator: Adobe Illustrator 22.1.0, SVG Export Plug-In . SVG Version: 6.00 Build 0)  -->
<svg version="1.1" id="Layer_1" xmlns="http://www.w3.org/2000/svg" xmlns:xlink="http://www.w3.org/1999/xlink" x="0px" y="0px"
	 viewBox="0 0 512 512" style="enable-background:new 0 0 512 512;" xml:space="preserve">
<g>
	<circle cx="171.5" cy="102.5" r="3.5"/>
	<circle cx="148.5" cy="145.5" r="3.5"/>
	<circle cx="137.5" cy="190.5" r="3.5"/>
	<circle cx="130.5" cy="239.5" r="3.5"/>
	<circle cx="128.5" cy="295.5" r="3.5"/>
	<circle cx="137.5" cy="348.5" r="3.5"/>
	<circle cx="157.5" cy="393.5" r="3.5"/>
	<circle cx="174.5" cy="436.5" r="3.5"/>
	<circle cx="207.5" cy="460.5" r="3.5"/>
	<circle cx="256.5" cy="478.5" r="3.5"/>
	<circle cx="304.5" cy="478.5" r="3.5"/>
	<circle cx="345.5" cy="465.5" r="3.5"/>
	<circle cx="376.5" cy="439.5" r="3.5"/>
	<circle cx="410.5" cy="396.5" r="3.5"/>
	<circle cx="425.5" cy="348.5" r="3.5"/>
	<circle cx="429.5" cy="304.5" r="3.5"/>
	<circle cx="428.5" cy="255.5" r="3.5"/>
	<circle cx="427.5" cy="206.5" r="3.5"/>
	<circle cx="422.5" cy="164.5" r="3.5"/>
	<circle cx="405.5" cy="128.5" r="3.5"/>
	<circle cx="384.5" cy="89.5" r="3.5"/>
	<circle cx="353.5" cy="62.5" r="3.5"/>
	<circle cx="316.5" cy="44.5" r="3.5"/>
	<circle cx="277.5" cy="30.5" r="3.5"/>
	<circle cx="232.5" cy="37.5" r="3.5"/>
	<circle cx="195.5" cy="64.5" r="3.5"/>
</g>
</svg>
