<?xml version="1.0" encoding="utf-8"?>
<!-- Generator: Adobe Illustrator 22.1.0, SVG Export Plug-In . SVG Version: 6.00 Build 0)  -->
<svg version="1.1" id="Layer_1" xmlns="http://www.w3.org/2000/svg" xmlns:xlink="http://www.w3.org/1999/xlink" x="0px" y="0px"
	 viewBox="0 0 512 512" style="enable-background:new 0 0 512 512;" xml:space="preserve">
<g>
	<circle cx="22.5" cy="198.5" r="3.5"/>
	<circle cx="22.5" cy="245.5" r="3.5"/>
	<circle cx="24.5" cy="282.5" r="3.5"/>
	<circle cx="35.5" cy="320.5" r="3.5"/>
	<circle cx="51.5" cy="357.5" r="3.5"/>
	<circle cx="76.5" cy="389.5" r="3.5"/>
	<circle cx="103.5" cy="404.5" r="3.5"/>
	<circle cx="151.1" cy="404.5" r="3.5"/>
	<circle cx="198.7" cy="404.5" r="3.5"/>
	<circle cx="246.3" cy="404.5" r="3.5"/>
	<circle cx="293.9" cy="404.5" r="3.5"/>
	<circle cx="341.5" cy="404.5" r="3.5"/>
	<circle cx="374.5" cy="375.5" r="3.5"/>
	<circle cx="399.5" cy="342.5" r="3.5"/>
	<circle cx="412.5" cy="303.5" r="3.5"/>
	<circle cx="422.5" cy="271.5" r="3.5"/>
	<circle cx="426.5" cy="226.5" r="3.5"/>
	<circle cx="421.5" cy="198.5" r="3.5"/>
	<circle cx="371.6" cy="198.5" r="3.5"/>
	<circle cx="321.8" cy="198.5" r="3.5"/>
	<circle cx="271.9" cy="198.5" r="3.5"/>
	<circle cx="222" cy="198.5" r="3.5"/>
	<circle cx="172.1" cy="198.5" r="3.5"/>
	<circle cx="122.3" cy="198.5" r="3.5"/>
	<circle cx="72.4" cy="198.5" r="3.5"/>
</g>
</svg>
