<?xml version="1.0" encoding="utf-8"?>
<!-- Generator: Adobe Illustrator 22.1.0, SVG Export Plug-In . SVG Version: 6.00 Build 0)  -->
<svg version="1.1" id="Layer_1" xmlns="http://www.w3.org/2000/svg" xmlns:xlink="http://www.w3.org/1999/xlink" x="0px" y="0px"
	 viewBox="0 0 512 512" style="enable-background:new 0 0 512 512;" xml:space="preserve">
<g id="Layer_1_1_">
	<g>
		<path d="M423.3,264.3H24.9c-1.4,0-2.5-1.1-2.5-2.5s1.1-2.5,2.5-2.5h398.4c1.4,0,2.5,1.1,2.5,2.5S424.7,264.3,423.3,264.3z"/>
	</g>
	<g>
		<g>
			<path d="M405.3,335.6c-1,0-2-0.6-2.4-1.7c-0.5-1.3,0.2-2.7,1.5-3.2c16.7-6,46.6-21.3,59.4-56.2c4-11.3,4.2-19.6,0.6-23.9
				c-6.5-8.1-27.1-9.6-39-8.1c-1.4,0.2-2.6-0.8-2.8-2.2c-0.2-1.4,0.8-2.6,2.2-2.8c8.4-1.1,34.3-1.6,43.5,9.9
				c4.8,5.8,4.9,15.5,0.2,28.8c-14,38.2-48.3,54.2-62.4,59.2C405.9,335.6,405.6,335.6,405.3,335.6z"/>
		</g>
		<g>
			<path d="M396.8,364.3c-3.5,0-6.5-1.3-8.4-2.5c-1.2-0.7-1.6-2.2-0.9-3.4c0.7-1.2,2.2-1.6,3.4-0.9c1.9,1.1,3.9,1.7,5.8,1.7
				c0.8,0,1.4,0,2.1-0.1l0.3-0.1c11.2-2.6,68.4-18.6,88.9-75.9c7.2-20.5,6.1-36.9-3.5-48.8c-18.6-23-61.2-17.3-61.6-17.3
				c-1.4,0.2-2.6-0.8-2.8-2.1c-0.2-1.4,0.8-2.6,2.1-2.8c1.9-0.3,45.8-6.1,66.2,19.1c10.7,13.4,12.2,31.4,4.3,53.6
				c-21.5,59.7-80.8,76.4-92.5,79.1L400,364C398.8,364.3,397.8,364.3,396.8,364.3z"/>
		</g>
	</g>
	<g>
		<g>
			<path d="M344.7,441.5H98.2c-8.5,0-15.4-6.9-15.4-15.4s6.9-15.4,15.4-15.4h246.5c8.5,0,15.4,6.9,15.4,15.4
				C360,434.6,353.1,441.5,344.7,441.5z M98.2,415.7c-5.7,0-10.4,4.7-10.4,10.4s4.7,10.4,10.4,10.4h246.5c5.7,0,10.3-4.7,10.4-10.4
				c0-5.7-4.7-10.4-10.4-10.4H98.2z"/>
		</g>
	</g>
	<g>
		<path d="M206.9,173.8c-1.4,0-2.5-1.1-2.5-2.5V75.7c0-1.4,1.1-2.5,2.5-2.5s2.5,1.1,2.5,2.5v95.6
			C209.4,172.7,208.3,173.8,206.9,173.8z"/>
	</g>
	<g>
		<path d="M240.1,188.8c-1.4,0-2.5-1.1-2.5-2.5V42.5c0-1.4,1.1-2.5,2.5-2.5s2.5,1.1,2.5,2.5v143.8
			C242.6,187.7,241.5,188.8,240.1,188.8z"/>
	</g>
	<g>
		<path d="M265.8,141.7c-1.4,0-2.5-1.1-2.5-2.5V48.9c0-1.4,1.1-2.5,2.5-2.5s2.5,1.1,2.5,2.5v90.3
			C268.3,140.6,267.2,141.7,265.8,141.7z"/>
	</g>
</g>
</svg>
