<?xml version="1.0" encoding="utf-8"?>
<!-- Generator: Adobe Illustrator 22.1.0, SVG Export Plug-In . SVG Version: 6.00 Build 0)  -->
<svg version="1.1" id="Layer_1" xmlns="http://www.w3.org/2000/svg" xmlns:xlink="http://www.w3.org/1999/xlink" x="0px" y="0px"
	 viewBox="0 0 512 512" style="enable-background:new 0 0 512 512;" xml:space="preserve">
<g>
	<circle cx="157.5" cy="231.5" r="3.5"/>
	<circle cx="133.5" cy="208.5" r="3.5"/>
	<circle cx="121.5" cy="171.5" r="3.5"/>
	<circle cx="125.5" cy="131.5" r="3.5"/>
	<circle cx="138.5" cy="91.5" r="3.5"/>
	<circle cx="167.5" cy="58.5" r="3.5"/>
	<circle cx="201.5" cy="34.5" r="3.5"/>
	<circle cx="247.5" cy="23.5" r="3.5"/>
	<circle cx="288.5" cy="25.5" r="3.5"/>
	<circle cx="330.5" cy="39.5" r="3.5"/>
	<circle cx="363.5" cy="69.5" r="3.5"/>
	<circle cx="384.5" cy="102.5" r="3.5"/>
	<circle cx="391.5" cy="140.5" r="3.5"/>
	<circle cx="391.5" cy="178.5" r="3.5"/>
	<circle cx="380.5" cy="208.5" r="3.5"/>
	<circle cx="353.5" cy="239.5" r="3.5"/>
	<circle cx="320.3" cy="239.5" r="3.5"/>
	<circle cx="287.1" cy="239.5" r="3.5"/>
	<circle cx="253.9" cy="239.5" r="3.5"/>
	<circle cx="220.7" cy="239.5" r="3.5"/>
	<circle cx="187.5" cy="239.5" r="3.5"/>
</g>
</svg>
