<?xml version="1.0" encoding="utf-8"?>
<!-- Generator: Adobe Illustrator 22.1.0, SVG Export Plug-In . SVG Version: 6.00 Build 0)  -->
<svg version="1.1" id="Layer_1" xmlns="http://www.w3.org/2000/svg" xmlns:xlink="http://www.w3.org/1999/xlink" x="0px" y="0px"
	 viewBox="0 0 512 512" style="enable-background:new 0 0 512 512;" xml:space="preserve">
<g>
	<g>
		<path d="M255.8,506.5c-6.6,0-12.1-4-14.2-10.2l-84.2-243.2c-0.5-1.3,0.2-2.7,1.5-3.2s2.7,0.2,3.2,1.5l84.2,243.2
			c1.7,5,6,6.8,9.5,6.8c3.5,0,7.8-1.8,9.5-6.8l84-243.2c0.5-1.3,1.9-2,3.2-1.5c1.3,0.5,2,1.9,1.5,3.2l-84,243.2
			C267.9,502.5,262.3,506.5,255.8,506.5z"/>
	</g>
	<g>
		<path d="M302.4,283.5c-10.8,0-19.6-8.7-19.6-19.4V263c-3.3,2.6-7.5,4-11.8,4c-8.6,0-16.1-5.6-18.6-14c-0.4-1.3,0.4-2.7,1.7-3.1
			c1.3-0.4,2.7,0.4,3.1,1.7c1.8,6.2,7.4,10.4,13.8,10.4c4.9,0,9.5-2.5,12.2-6.7c0.6-0.9,1.7-1.4,2.8-1.1c1.1,0.3,1.8,1.3,1.8,2.4
			v7.5c0,7.9,6.5,14.4,14.6,14.4c7.9,0,14.4-6.5,14.4-14.4v-11.8c0-1.4,1.1-2.5,2.5-2.5s2.5,1.1,2.5,2.5v11.8
			C321.8,274.8,313.1,283.5,302.4,283.5z"/>
	</g>
	<g>
		<path d="M202.5,353.3c-0.3,0-0.7-0.1-1-0.2c-1.3-0.5-1.9-2-1.3-3.3l38.6-89.5c0.5-1.3,2-1.8,3.3-1.3s1.9,2,1.3,3.3l-38.6,89.5
			C204.4,352.7,203.5,353.3,202.5,353.3z"/>
	</g>
	<g>
		<path d="M223.4,411c-0.3,0-0.6-0.1-1-0.2c-1.3-0.5-1.9-2-1.4-3.3l53.8-130.1c0.5-1.3,2-1.9,3.3-1.4s1.9,2,1.4,3.3l-53.8,130.1
			C225.3,410.4,224.4,411,223.4,411z"/>
	</g>
	<g>
		<path d="M247.6,450.8c-0.3,0-0.6-0.1-0.9-0.2c-1.3-0.5-1.9-1.9-1.5-3.2l57.6-153.2c0.5-1.3,1.9-1.9,3.2-1.5
			c1.3,0.5,1.9,1.9,1.5,3.2l-57.6,153.2C249.6,450.2,248.6,450.8,247.6,450.8z"/>
	</g>
	<g>
		<path d="M293.5,373.4c-0.6,0-1.3-0.2-1.8-0.7l-103-103.6c-1-1-1-2.6,0-3.5c1-1,2.6-1,3.5,0l103,103.6c1,1,1,2.6,0,3.5
			C294.8,373.2,294.1,373.4,293.5,373.4z"/>
	</g>
	<g>
		<path d="M280.3,405.5c-0.7,0-1.3-0.3-1.8-0.8l-89.6-93.8c-1-1-0.9-2.6,0.1-3.5c1-1,2.6-0.9,3.5,0.1l89.6,93.8c1,1,0.9,2.6-0.1,3.5
			C281.5,405.3,280.9,405.5,280.3,405.5z"/>
	</g>
	<g>
		<path d="M271.1,439.7c-0.7,0-1.3-0.3-1.8-0.8l-56.2-60.3c-0.9-1-0.9-2.6,0.1-3.5s2.6-0.9,3.5,0.1l56.2,60.3c0.9,1,0.9,2.6-0.1,3.5
			C272.3,439.5,271.7,439.7,271.1,439.7z"/>
	</g>
	<g>
		<path d="M304.6,333.2c-0.6,0-1.2-0.2-1.7-0.7l-73.5-69.4c-1-0.9-1-2.5-0.1-3.5s2.5-1.1,3.5-0.1l73.5,69.4c1,0.9,1,2.5,0.1,3.5
			C305.9,332.9,305.3,333.2,304.6,333.2z"/>
	</g>
</g>
</svg>
