<?xml version="1.0" encoding="utf-8"?>
<!-- Generator: Adobe Illustrator 22.1.0, SVG Export Plug-In . SVG Version: 6.00 Build 0)  -->
<svg version="1.1" id="Layer_1" xmlns="http://www.w3.org/2000/svg" xmlns:xlink="http://www.w3.org/1999/xlink" x="0px" y="0px"
	 viewBox="0 0 512 512" style="enable-background:new 0 0 512 512;" xml:space="preserve">
<g>
	<circle cx="67.5" cy="117.5" r="3.5"/>
	<circle cx="44.5" cy="156.5" r="3.5"/>
	<circle cx="28.5" cy="207.5" r="3.5"/>
	<circle cx="23.5" cy="246.5" r="3.5"/>
	<circle cx="23.5" cy="289.5" r="3.5"/>
	<circle cx="32.5" cy="332.5" r="3.5"/>
	<circle cx="47.5" cy="369.5" r="3.5"/>
	<circle cx="71.5" cy="402.5" r="3.5"/>
	<circle cx="96.5" cy="429.5" r="3.5"/>
	<circle cx="121.5" cy="455.5" r="3.5"/>
	<circle cx="152.5" cy="469.5" r="3.5"/>
	<circle cx="181.5" cy="479.5" r="3.5"/>
	<circle cx="216.5" cy="489.5" r="3.5"/>
	<circle cx="256.5" cy="493.5" r="3.5"/>
	<circle cx="298.5" cy="487.5" r="3.5"/>
	<circle cx="332.5" cy="477.5" r="3.5"/>
	<circle cx="373.5" cy="464.5" r="3.5"/>
	<circle cx="402.5" cy="440.5" r="3.5"/>
	<circle cx="432.5" cy="417.5" r="3.5"/>
	<circle cx="454.5" cy="387.5" r="3.5"/>
	<circle cx="474.5" cy="352.5" r="3.5"/>
	<circle cx="486.5" cy="322.5" r="3.5"/>
	<circle cx="492.5" cy="285.5" r="3.5"/>
	<circle cx="493.5" cy="248.5" r="3.5"/>
	<circle cx="488.5" cy="211.5" r="3.5"/>
	<circle cx="480.5" cy="175.5" r="3.5"/>
	<circle cx="464.5" cy="141.5" r="3.5"/>
	<circle cx="441.5" cy="113.5" r="3.5"/>
	<circle cx="413.5" cy="83.5" r="3.5"/>
	<circle cx="379.5" cy="57.5" r="3.5"/>
	<circle cx="348.5" cy="42.5" r="3.5"/>
	<circle cx="315.5" cy="29.5" r="3.5"/>
	<circle cx="277.5" cy="24.5" r="3.5"/>
	<circle cx="233.5" cy="25.5" r="3.5"/>
	<circle cx="188.5" cy="31.5" r="3.5"/>
	<circle cx="152.5" cy="45.5" r="3.5"/>
	<circle cx="118.5" cy="66.5" r="3.5"/>
	<circle cx="89.5" cy="91.5" r="3.5"/>
</g>
</svg>
