<?xml version="1.0" encoding="utf-8"?>
<!-- Generator: Adobe Illustrator 22.1.0, SVG Export Plug-In . SVG Version: 6.00 Build 0)  -->
<svg version="1.1" id="Layer_1" xmlns="http://www.w3.org/2000/svg" xmlns:xlink="http://www.w3.org/1999/xlink" x="0px" y="0px"
	 viewBox="0 0 512 512" style="enable-background:new 0 0 512 512;" xml:space="preserve">
<g>
	<g>
		<path d="M128.8,292.4c-0.8,0-1.7,0-2.5-0.1c-9.2-0.7-17.7-4.9-23.8-11.9s-9.1-16-8.4-25.2s4.9-17.7,11.9-23.8
			c7-6.1,15.9-9.1,25.2-8.4c19.1,1.4,33.5,18,32.2,37.1C162.1,278.5,146.8,292.4,128.8,292.4z M128.7,228c-15.4,0-28.5,12-29.6,27.6
			c-1.2,16.3,11.2,30.6,27.5,31.7c16.3,1.2,30.6-11.2,31.7-27.5c1.2-16.3-11.2-30.6-27.5-31.7C130.2,228.1,129.4,228,128.7,228z"/>
	</g>
	<g>
		<path d="M361.1,387c-19.1,0-34.7-15.6-34.7-34.7s15.6-34.7,34.7-34.7c19.1,0,34.7,15.6,34.7,34.7S380.2,387,361.1,387z
			 M361.1,322.6c-16.4,0-29.7,13.3-29.7,29.7s13.3,29.7,29.7,29.7c16.4,0,29.7-13.3,29.7-29.7S377.5,322.6,361.1,322.6z"/>
	</g>
	<g>
		<path d="M300.6,278.9c-13.3,0-24.1-10.8-24.1-24.1c0-13.3,10.8-24.1,24.1-24.1c13.3,0,24.1,10.8,24.1,24.1
			C324.7,268.1,313.9,278.9,300.6,278.9z M300.6,235.7c-10.5,0-19.1,8.6-19.1,19.1c0,10.5,8.6,19.1,19.1,19.1
			c10.5,0,19.1-8.6,19.1-19.1C319.7,244.3,311.1,235.7,300.6,235.7z"/>
	</g>
	<g>
		<path d="M234.4,437.7c-13.3,0-24.1-10.8-24.1-24.1c0-13.3,10.8-24.1,24.1-24.1s24.1,10.8,24.1,24.1
			C258.5,426.9,247.7,437.7,234.4,437.7z M234.4,394.5c-10.5,0-19.1,8.6-19.1,19.1c0,10.5,8.6,19.1,19.1,19.1s19.1-8.6,19.1-19.1
			C253.5,403.1,244.9,394.5,234.4,394.5z"/>
	</g>
	<g>
		<path d="M221,155.7c-13.3,0-24.1-10.8-24.1-24.1s10.8-24.1,24.1-24.1s24.1,10.8,24.1,24.1S234.3,155.7,221,155.7z M221,112.5
			c-10.5,0-19.1,8.6-19.1,19.1s8.6,19.1,19.1,19.1s19.1-8.6,19.1-19.1S231.5,112.5,221,112.5z"/>
	</g>
	<g>
		<path d="M439.1,171.6c-17.2,0-32.4-12.9-34.8-30.3c-2.1-15.2,6.5-30.1,20.9-36.2c1.3-0.5,2.7,0,3.3,1.3c0.5,1.3,0,2.7-1.3,3.3
			c-12.3,5.2-19.7,18-17.9,31c2.2,16.1,17.1,27.6,33.2,25.8c7.8-0.9,15-4.8,19.7-10.8c0.9-1.1,2.4-1.3,3.5-0.4
			c1.1,0.9,1.3,2.4,0.4,3.5c-5.5,7-14,11.6-23.1,12.6C441.8,171.5,440.4,171.6,439.1,171.6z"/>
	</g>
	<g>
		<path d="M42.6,340.8c-1.4,0-2.5-1.1-2.5-2.5s1.1-2.5,2.5-2.5c10.5,0,19.1-8.6,19.1-19.1c0-10.5-8.6-19.1-19.1-19.1
			c-2.2,0-4.3,0.4-6.2,1c-1.3,0.5-2.7-0.2-3.2-1.5s0.2-2.7,1.5-3.2c2.5-0.9,5.1-1.4,8-1.4c13.3,0,24.1,10.8,24.1,24.1
			C66.7,330,55.9,340.8,42.6,340.8z"/>
	</g>
	<g>
		<path d="M274.1,63.2c-13.3,0-24.1-10.8-24.1-24.1c0-2.9,0.5-5.8,1.6-8.6c0.5-1.3,1.9-1.9,3.2-1.5c1.3,0.5,1.9,1.9,1.5,3.2
			c-0.8,2.2-1.2,4.5-1.2,6.8c0,10.5,8.6,19.1,19.1,19.1c10.5,0,19.1-8.6,19.1-19.1c0-2.6-0.5-5.1-1.5-7.4c-0.5-1.3,0.1-2.7,1.3-3.3
			c1.3-0.5,2.7,0.1,3.3,1.3c1.3,3,1.9,6.1,1.9,9.4C298.2,52.4,287.4,63.2,274.1,63.2z"/>
	</g>
</g>
</svg>
