<?xml version="1.0" encoding="utf-8"?>
<!-- Generator: Adobe Illustrator 22.1.0, SVG Export Plug-In . SVG Version: 6.00 Build 0)  -->
<svg version="1.1" id="Layer_1" xmlns="http://www.w3.org/2000/svg" xmlns:xlink="http://www.w3.org/1999/xlink" x="0px" y="0px"
	 viewBox="0 0 512 512" style="enable-background:new 0 0 512 512;" xml:space="preserve">
<g>
	<path d="M131.2,331.8c-4.9,0-8.1-1-10.1-2.1c-3.4-2-6.4-6.7-8.9-14.4c-0.2-0.6-0.2-1.4,0.2-2c16.4-31.1,76.9-135.5,169.2-172.3
		c1.5-0.7,2.9-1.5,4.3-2.5c3.8-3.3,34.2-28.1,59.1-0.9c4.5,4.8,12,14,11.6,21.7c0,0,0,0,0,0.1c-0.9,9.7-14.7,21-29.4,33
		c-2,1.6-4,3.2-6,4.7c-1.9,1.5-3.9,3.1-5.9,4.7c-7.4,6.2-16.9,14.7-28,24.6c-38.9,34.7-104.1,92.8-134.5,101.5
		C143.2,330.8,136.3,331.8,131.2,331.8z M117.2,314.7c2.5,7.2,4.8,9.8,6.3,10.6c2.1,1.2,9.1,3.4,27.7-2.2
		c29.4-8.5,94-66.1,132.6-100.5c11.1-9.9,20.7-18.5,28.2-24.8c2-1.6,4-3.2,5.9-4.7c2-1.6,3.9-3.1,5.9-4.7
		c13.2-10.8,26.8-21.9,27.6-29.5c0.2-4.2-3.6-10.8-10.2-17.9c-21.9-23.9-49.2-1.3-52.2,1.4c0,0-0.1,0.1-0.1,0.1
		c-1.8,1.3-3.5,2.2-5.2,3c-0.1,0-0.1,0.1-0.2,0.1C193.5,181.4,134.1,282.9,117.2,314.7z M353.9,159.1L353.9,159.1L353.9,159.1z"/>
</g>
</svg>
