<?xml version="1.0" encoding="utf-8"?>
<!-- Generator: Adobe Illustrator 22.1.0, SVG Export Plug-In . SVG Version: 6.00 Build 0)  -->
<svg version="1.1" id="Layer_1" xmlns="http://www.w3.org/2000/svg" xmlns:xlink="http://www.w3.org/1999/xlink" x="0px" y="0px"
	 viewBox="0 0 512 512" style="enable-background:new 0 0 512 512;" xml:space="preserve">
<g>
	<circle cx="203.5" cy="28.5" r="3.5"/>
	<circle cx="142.5" cy="45.5" r="3.5"/>
	<circle cx="100.5" cy="76.5" r="3.5"/>
	<circle cx="60.5" cy="114.5" r="3.5"/>
	<circle cx="36.5" cy="168.5" r="3.5"/>
	<circle cx="20.5" cy="218.5" r="3.5"/>
	<circle cx="20.5" cy="277.5" r="3.5"/>
	<circle cx="36.5" cy="334.5" r="3.5"/>
	<circle cx="61.5" cy="381.5" r="3.5"/>
	<circle cx="92.5" cy="426.5" r="3.5"/>
	<circle cx="137.5" cy="457.5" r="3.5"/>
	<circle cx="185.5" cy="473.5" r="3.5"/>
	<circle cx="244.5" cy="486.5" r="3.5"/>
	<circle cx="293.5" cy="481.5" r="3.5"/>
	<circle cx="348.5" cy="468.5" r="3.5"/>
	<circle cx="393.5" cy="439.5" r="3.5"/>
	<circle cx="427.5" cy="403.5" r="3.5"/>
	<circle cx="456.5" cy="370.5" r="3.5"/>
	<circle cx="477.5" cy="321.5" r="3.5"/>
	<circle cx="488.5" cy="269.5" r="3.5"/>
	<circle cx="485.5" cy="221.5" r="3.5"/>
	<circle cx="475.5" cy="173.5" r="3.5"/>
	<circle cx="456.5" cy="133.5" r="3.5"/>
	<circle cx="427.5" cy="98.5" r="3.5"/>
	<circle cx="396.5" cy="66.5" r="3.5"/>
	<circle cx="355.5" cy="42.5" r="3.5"/>
	<circle cx="313.5" cy="25.5" r="3.5"/>
	<circle cx="259.5" cy="19.5" r="3.5"/>
</g>
</svg>
