<?xml version="1.0" encoding="utf-8"?>
<!-- Generator: Adobe Illustrator 22.1.0, SVG Export Plug-In . SVG Version: 6.00 Build 0)  -->
<svg version="1.1" id="Layer_1" xmlns="http://www.w3.org/2000/svg" xmlns:xlink="http://www.w3.org/1999/xlink" x="0px" y="0px"
	 viewBox="0 0 512 512" style="enable-background:new 0 0 512 512;" xml:space="preserve">
<g>
	<g>
		<path d="M465.7,346.6c-0.8,0-1.6-0.4-2-1.1c-4.4-6.2-6.6-13.3-6.4-20.7l0-13c0-22.5-8.1-33.9-24-33.9h-2
			c-5.6,0-17.5,10.6-17.5,15.5c0,0.8-0.3,1.4-0.9,1.9c-3.6,15.7-17.5,28.1-33.6,28.7c-9.7,0.4-18.9-3.2-25.8-9.9
			c-7.1-6.8-10.9-15.9-10.9-25.7c0-2.8-1-5.3-3-7.3c-1.2-1.1-2.7-2-4-2.4c-1.3-0.4-2-1.9-1.6-3.2c0.4-1.3,1.8-2,3.2-1.6
			c2,0.7,4.1,1.9,5.8,3.5c0,0,0,0,0.1,0.1c3,3,4.5,6.7,4.5,10.9c0,8.4,3.3,16.3,9.4,22.1c6,5.8,13.9,8.8,22.2,8.5
			c16.1-0.5,29.7-15,29.7-31.5c0-1.4,1.1-2.5,2.5-2.5c0.4,0,0.7,0.1,1,0.2c4.8-6.4,13.6-12.3,19-12.3h2c13.2,0,29,6.7,29,38.9v13.1
			c-0.2,6.4,1.7,12.5,5.4,17.8c0.8,1.1,0.5,2.7-0.6,3.5C466.7,346.5,466.2,346.6,465.7,346.6z"/>
	</g>
	<g>
		<path d="M103.9,307.7h-0.6c-19.3-0.4-35-16.5-35-35.8v-18.6c0-9.4-7.7-17.1-17.1-17.1h-1.6c-5.7,0-10.9,2.9-14.3,7.8
			c-3.5,5.1-8.6,9.4-14.9,12.3c-1.2,0.6-2.7,0.1-3.3-1.2c-0.6-1.2-0.1-2.7,1.2-3.3c5.5-2.6,9.9-6.3,12.9-10.6
			c4.4-6.4,11.1-10,18.5-10h1.6c12.2,0,22.1,9.9,22.1,22.1v18.6c0,16.6,13.5,30.4,30.1,30.8l0.5,0c16.7,0,30.8-14.4,30.8-31.5
			c0-18.6,13.1-34.8,31.1-38.6c1.3-0.3,2.7,0.6,3,1.9s-0.6,2.7-1.9,3c-15.7,3.3-27.1,17.5-27.1,33.8
			C139.7,291.3,123.6,307.7,103.9,307.7z"/>
	</g>
	<g>
		<path d="M85.8,230.3c-1.1,0-2.1-0.7-2.4-1.8c-0.4-1.3,0.4-2.7,1.7-3.1l29-8.1c1.3-0.4,2.7,0.4,3.1,1.7c0.4,1.3-0.4,2.7-1.7,3.1
			l-29,8.1C86.2,230.3,86,230.3,85.8,230.3z"/>
	</g>
	<g>
		<path d="M57.6,218.8c-0.7,0-1.4-0.3-1.9-0.9L36,195.3c-0.9-1-0.8-2.6,0.2-3.5c1-0.9,2.6-0.8,3.5,0.2l19.7,22.6
			c0.9,1,0.8,2.6-0.2,3.5C58.8,218.6,58.2,218.8,57.6,218.8z"/>
	</g>
	<g>
		<path d="M80.2,160.6c-0.6,0-1.2-0.2-1.7-0.7c-1-0.9-1.1-2.5-0.1-3.5l20.6-22c0.9-1,2.5-1.1,3.5-0.1c1,0.9,1.1,2.5,0.1,3.5
			l-20.6,22C81.5,160.3,80.9,160.6,80.2,160.6z"/>
	</g>
	<g>
		<path d="M134.4,201c-1.4,0-2.5-1.1-2.5-2.4l-0.7-30.3c0-1.4,1.1-2.5,2.4-2.6c1.4,0,2.5,1.1,2.6,2.4l0.7,30.3
			C136.9,199.8,135.8,201,134.4,201C134.4,201,134.4,201,134.4,201z"/>
	</g>
	<g>
		<path d="M189.5,159.2c-0.8,0-1.6-0.4-2.1-1.1l-16.9-25.3c-0.8-1.1-0.5-2.7,0.7-3.5c1.1-0.8,2.7-0.5,3.5,0.7l16.9,25.3
			c0.8,1.1,0.5,2.7-0.7,3.5C190.5,159.1,190,159.2,189.5,159.2z"/>
	</g>
	<g>
		<path d="M178.4,96.7c-0.3,0-0.5,0-0.8-0.1l-28.7-9.1c-1.3-0.4-2-1.8-1.6-3.1c0.4-1.3,1.8-2,3.1-1.6l28.7,9.1
			c1.3,0.4,2,1.8,1.6,3.1C180.4,96,179.5,96.7,178.4,96.7z"/>
	</g>
	<g>
		<path d="M226.5,69.9c-1.3,0-2.4-1.1-2.5-2.4c0-1.4,1-2.5,2.4-2.6l30.3-1.1c1.4-0.1,2.5,1,2.6,2.4c0.1,1.4-1,2.5-2.4,2.6
			L226.5,69.9C226.6,69.9,226.5,69.9,226.5,69.9z"/>
	</g>
	<g>
		<path d="M268,140.6c-1.1,0-2.1-0.7-2.4-1.9c-0.3-1.3,0.5-2.7,1.8-3l28.9-7.5c1.3-0.3,2.7,0.5,3,1.8s-0.5,2.7-1.8,3l-28.9,7.5
			C268.4,140.6,268.2,140.6,268,140.6z"/>
	</g>
	<g>
		<path d="M333.7,115.1c-1.3,0-2.5-1.1-2.5-2.4l-0.9-30.3c0-1.4,1-2.5,2.4-2.6c0,0,0.1,0,0.1,0c1.3,0,2.5,1.1,2.5,2.4l0.9,30.3
			C336.2,113.9,335.2,115.1,333.7,115.1C333.7,115.1,333.7,115.1,333.7,115.1z"/>
	</g>
	<g>
		<path d="M374.9,151.9c-0.7,0-1.4-0.3-1.9-0.9l-19.8-22.6c-0.9-1-0.8-2.6,0.2-3.5c1-0.9,2.6-0.8,3.5,0.2l19.8,22.6
			c0.9,1,0.8,2.6-0.2,3.5C376.1,151.7,375.5,151.9,374.9,151.9z"/>
	</g>
	<g>
		<path d="M449.9,176c-0.4,0-0.8-0.1-1.1-0.3l-28.1-14.2c-1.2-0.6-1.7-2.1-1.1-3.4c0.6-1.2,2.1-1.7,3.4-1.1l28.1,14.2
			c1.2,0.6,1.7,2.1,1.1,3.4C451.7,175.5,450.8,176,449.9,176z"/>
	</g>
	<g>
		<path d="M361.9,198c-1.3,0-2.5-1.1-2.5-2.4l-1-30.3c0-1.4,1-2.5,2.4-2.6c0,0,0.1,0,0.1,0c1.3,0,2.5,1.1,2.5,2.4l1,30.3
			C364.4,196.8,363.4,198,361.9,198C362,198,361.9,198,361.9,198z"/>
	</g>
	<g>
		<path d="M432.1,240.2c-0.9,0-1.8-0.5-2.2-1.4c-0.6-1.2-0.1-2.7,1.1-3.4l27.1-13.7c1.2-0.6,2.7-0.1,3.4,1.1
			c0.6,1.2,0.1,2.7-1.1,3.4l-27.1,13.7C432.9,240.1,432.5,240.2,432.1,240.2z"/>
	</g>
	<g>
		<path d="M367.2,279.2c-1.2,0-2.3-0.9-2.5-2.2c-0.2-1.4,0.8-2.6,2.2-2.8l30.1-3.8c1.4-0.2,2.6,0.8,2.8,2.2c0.2,1.4-0.8,2.6-2.2,2.8
			l-30.1,3.8C367.4,279.2,367.3,279.2,367.2,279.2z"/>
	</g>
	<g>
		<path d="M336.1,278.8c-0.2,0-0.4,0-0.6-0.1c-1.3-0.4-2.1-1.7-1.8-3.1c2.1-7.8,3.1-15.5,3.1-23c0-47-38.2-85.2-85.2-85.2
			c-40.3,0-75.3,28.5-83.3,67.7c-0.3,1.4-1.6,2.2-2.9,2c-1.4-0.3-2.2-1.6-2-2.9c8.5-41.5,45.5-71.7,88.1-71.7
			c49.7,0,90.2,40.5,90.2,90.2c0,7.9-1.1,16.1-3.3,24.2C338.2,278.1,337.2,278.8,336.1,278.8z"/>
	</g>
	<g>
		<path d="M252,342.9c-49.7,0-90.2-40.5-90.2-90.2c0-6.3,0.6-12.5,1.9-18.3c0.3-1.4,1.6-2.2,3-1.9c1.4,0.3,2.2,1.6,1.9,3
			c-1.2,5.5-1.7,11.3-1.7,17.3c0,47,38.2,85.2,85.2,85.2c38.2,0,71.9-25.6,81.9-62.3c0.4-1.3,1.7-2.1,3.1-1.8
			c1.3,0.4,2.1,1.7,1.8,3.1C328.1,315.8,292.5,342.9,252,342.9z"/>
	</g>
</g>
</svg>
