<?xml version="1.0" encoding="utf-8"?>
<!-- Generator: Adobe Illustrator 22.1.0, SVG Export Plug-In . SVG Version: 6.00 Build 0)  -->
<svg version="1.1" id="Layer_1" xmlns="http://www.w3.org/2000/svg" xmlns:xlink="http://www.w3.org/1999/xlink" x="0px" y="0px"
	 viewBox="0 0 512 512" style="enable-background:new 0 0 512 512;" xml:space="preserve">
<g>
	<g>
		<path d="M105,119.6c-10.1,0-18.4-8.3-18.4-18.4c0-10.1,8.3-18.4,18.4-18.4s18.4,8.3,18.4,18.4C123.4,111.3,115.1,119.6,105,119.6z
			 M105,87.8c-7.4,0-13.4,6-13.4,13.4c0,7.4,6,13.4,13.4,13.4s13.4-6,13.4-13.4C118.4,93.8,112.4,87.8,105,87.8z"/>
	</g>
	<g>
		<path d="M136.8,87.8c-10.1,0-18.4-8.3-18.4-18.4S126.7,51,136.8,51c10.1,0,18.4,8.3,18.4,18.4S146.9,87.8,136.8,87.8z M136.8,56
			c-7.4,0-13.4,6-13.4,13.4s6,13.4,13.4,13.4c7.4,0,13.4-6,13.4-13.4S144.2,56,136.8,56z"/>
	</g>
	<g>
		<path d="M152.7,128.7c-10.1,0-18.4-8.3-18.4-18.4c0-10.1,8.3-18.4,18.4-18.4c10.1,0,18.4,8.3,18.4,18.4
			C171.1,120.4,162.8,128.7,152.7,128.7z M152.7,96.9c-7.4,0-13.4,6-13.4,13.4c0,7.4,6,13.4,13.4,13.4c7.4,0,13.4-6,13.4-13.4
			C166.1,102.9,160.1,96.9,152.7,96.9z"/>
	</g>
	<g>
		<path d="M340.4,464.6c-23.7,0-46.2-6.2-65.7-18.4c-40.5-25.3-64.6-69.5-64.4-118.3c0.2-26.7,7.8-52.5,22-74.7
			c4.8-7.6,10.4-14.9,17.1-22.2c0.9-1,2.5-1.1,3.5-0.1c1,0.9,1.1,2.5,0.1,3.5c-6.5,7-11.9,14-16.5,21.4
			c-13.7,21.5-21,46.4-21.2,72.1c-0.2,47.1,23,89.7,62,114.1c60.1,37.5,149.3,12.3,191-54c0.7-1.2,2.3-1.5,3.4-0.8
			c1.2,0.7,1.5,2.3,0.8,3.4c-20.1,32-52.9,56.7-90,67.7C368.3,462.5,354.2,464.6,340.4,464.6z"/>
	</g>
	<g>
		<path d="M394.6,419.7c-27.7,0-57.4-8.2-84.5-25.2c-64.7-40.5-90.9-115.8-58.4-167.8l0,0c32.5-52,111.7-61.3,176.4-20.8
			c64.7,40.5,90.9,115.8,58.4,167.8C467.6,403.9,433,419.7,394.6,419.7z M253.9,228l2.1,1.3c-31.1,49.6-5.6,121.8,56.8,160.9
			c62.4,39.1,138.4,30.5,169.5-19.2c31.1-49.6,5.6-121.8-56.8-160.9c-62.4-39.1-138.4-30.5-169.5,19.2L253.9,228z"/>
	</g>
	<g>
		<path d="M390.2,382.4c-20.3,0-42-6-61.8-18.4c-47.4-29.7-66.5-84.8-42.6-123l0,0c11.6-18.6,31.5-30.4,56.1-33.2
			c24.3-2.8,50.3,3.5,73.2,17.8c47.4,29.7,66.5,84.8,42.6,123C443.8,370.8,418.3,382.4,390.2,382.4z M353.3,212.2
			c-3.7,0-7.3,0.2-10.9,0.6c-23,2.7-41.6,13.6-52.4,30.9l0,0c-22.4,35.8-4,87.9,41.1,116.1c45.1,28.2,99.9,22,122.4-13.8
			c22.4-35.8,4-87.9-41.1-116.1C393.8,218.3,373.2,212.2,353.3,212.2z M287.9,242.3L287.9,242.3L287.9,242.3z"/>
	</g>
	<g>
		<path d="M105,119.6c-10.1,0-18.4-8.3-18.4-18.4c0-10.1,8.3-18.4,18.4-18.4s18.4,8.3,18.4,18.4C123.4,111.3,115.1,119.6,105,119.6z
			 M105,87.8c-7.4,0-13.4,6-13.4,13.4c0,7.4,6,13.4,13.4,13.4s13.4-6,13.4-13.4C118.4,93.8,112.4,87.8,105,87.8z"/>
	</g>
	<g>
		<path d="M136.8,87.8c-10.1,0-18.4-8.3-18.4-18.4S126.7,51,136.8,51c10.1,0,18.4,8.3,18.4,18.4S146.9,87.8,136.8,87.8z M136.8,56
			c-7.4,0-13.4,6-13.4,13.4s6,13.4,13.4,13.4c7.4,0,13.4-6,13.4-13.4S144.2,56,136.8,56z"/>
	</g>
	<g>
		<path d="M152.7,128.7c-10.1,0-18.4-8.3-18.4-18.4c0-10.1,8.3-18.4,18.4-18.4c10.1,0,18.4,8.3,18.4,18.4
			C171.1,120.4,162.8,128.7,152.7,128.7z M152.7,96.9c-7.4,0-13.4,6-13.4,13.4c0,7.4,6,13.4,13.4,13.4c7.4,0,13.4-6,13.4-13.4
			C166.1,102.9,160.1,96.9,152.7,96.9z"/>
	</g>
</g>
</svg>
