<?xml version="1.0" encoding="utf-8"?>
<!-- Generator: Adobe Illustrator 22.1.0, SVG Export Plug-In . SVG Version: 6.00 Build 0)  -->
<svg version="1.1" id="Layer_1" xmlns="http://www.w3.org/2000/svg" xmlns:xlink="http://www.w3.org/1999/xlink" x="0px" y="0px"
	 viewBox="0 0 512 512" style="enable-background:new 0 0 512 512;" xml:space="preserve">
<g>
	<g>
		<path d="M223.9,127.6c-1.4,0-2.5-1.1-2.5-2.5V60.5c0-1.4,1.1-2.5,2.5-2.5s2.5,1.1,2.5,2.5v64.6
			C226.4,126.5,225.3,127.6,223.9,127.6z"/>
	</g>
	<g>
		<path d="M267.5,164c-1.4,0-2.5-1.1-2.5-2.5V18c0-1.4,1.1-2.5,2.5-2.5s2.5,1.1,2.5,2.5v143.5C270,162.9,268.9,164,267.5,164z"/>
	</g>
	<g>
		<path d="M292.1,107.4c-1.4,0-2.5-1.1-2.5-2.5V32.3c0-1.4,1.1-2.5,2.5-2.5s2.5,1.1,2.5,2.5v72.6
			C294.6,106.3,293.5,107.4,292.1,107.4z"/>
	</g>
	<g>
		<g>
			<path d="M224.5,318c-1.4,0-2.5-1.1-2.5-2.5s1.1-2.5,2.5-2.5c6.2,0,19-4.7,23.4-22.7c0.3-1.3,1.7-2.2,3-1.8c1.3,0.3,2.2,1.7,1.8,3
				C247.6,312.5,232,318,224.5,318z"/>
		</g>
	</g>
	<g>
		<g>
			<path d="M257.3,328.8c-0.5,0-1.1-0.2-1.5-0.5c-1.1-0.8-1.3-2.4-0.4-3.5c8.7-11.1,4.3-24,2-29c-0.2-0.4-0.3-0.7-0.3-1.3
				c0-1.4,1.1-2.5,2.5-2.5c1.1,0,2,0.7,2.3,1.6l0,0.1c2.1,4.5,8,20.4-2.6,34.1C258.8,328.5,258,328.8,257.3,328.8z"/>
		</g>
	</g>
	<g>
		<g>
			<path d="M283.2,321.2c-0.4,0-0.7-0.1-1-0.2c-1.3-0.6-1.8-2.1-1.2-3.3c5.8-12.6-10.8-23.5-10.9-23.6c-1.2-0.7-1.6-2.3-0.8-3.4
				c0.7-1.2,2.2-1.6,3.4-0.9c0.2,0.1,20.6,13.3,12.9,30C285,320.7,284.1,321.2,283.2,321.2z"/>
		</g>
	</g>
</g>
</svg>
