<?xml version="1.0" encoding="utf-8"?>
<!-- Generator: Adobe Illustrator 22.1.0, SVG Export Plug-In . SVG Version: 6.00 Build 0)  -->
<svg version="1.1" id="Layer_1" xmlns="http://www.w3.org/2000/svg" xmlns:xlink="http://www.w3.org/1999/xlink" x="0px" y="0px"
	 viewBox="0 0 512 512" style="enable-background:new 0 0 512 512;" xml:space="preserve">
<g>
	<circle cx="274" cy="27" r="4"/>
	<circle cx="220" cy="59" r="4"/>
	<circle cx="174" cy="87" r="4"/>
	<circle cx="126" cy="112" r="4"/>
	<circle cx="82" cy="143" r="4"/>
	<circle cx="47" cy="187" r="4"/>
	<circle cx="22" cy="234" r="4"/>
	<circle cx="20" cy="279" r="4"/>
	<circle cx="24" cy="326" r="4"/>
	<circle cx="43" cy="373" r="4"/>
	<circle cx="70" cy="414" r="4"/>
	<circle cx="105" cy="446" r="4"/>
	<circle cx="150" cy="471" r="4"/>
	<circle cx="201" cy="485" r="4"/>
	<circle cx="247" cy="488" r="4"/>
	<circle cx="305" cy="485" r="4"/>
	<circle cx="352" cy="471" r="4"/>
	<circle cx="397" cy="446" r="4"/>
	<circle cx="435" cy="414" r="4"/>
	<circle cx="459" cy="378" r="4"/>
	<circle cx="474" cy="340" r="4"/>
	<circle cx="478" cy="284" r="4"/>
	<circle cx="471" cy="239" r="4"/>
	<circle cx="453" cy="202" r="4"/>
	<circle cx="425" cy="161" r="4"/>
	<circle cx="393" cy="130" r="4"/>
	<circle cx="350" cy="104" r="4"/>
	<circle cx="320" cy="77" r="4"/>
	<circle cx="299" cy="49" r="4"/>
</g>
</svg>
