<?xml version="1.0" encoding="utf-8"?>
<!-- Generator: Adobe Illustrator 22.1.0, SVG Export Plug-In . SVG Version: 6.00 Build 0)  -->
<svg version="1.1" id="Layer_1" xmlns="http://www.w3.org/2000/svg" xmlns:xlink="http://www.w3.org/1999/xlink" x="0px" y="0px"
	 viewBox="0 0 512 512" style="enable-background:new 0 0 512 512;" xml:space="preserve">
<g>
	<g>
		<g>
			<path d="M232.4,396.2c-0.1,0-0.2,0-0.3,0c-1.4-0.1-2.4-1.4-2.2-2.7l29.4-286.1c0.1-1.4,1.4-2.4,2.7-2.2c1.4,0.1,2.4,1.4,2.2,2.7
				L234.9,394C234.8,395.2,233.7,396.2,232.4,396.2z"/>
		</g>
	</g>
	<g>
		<g>
			<path d="M305.2,398.2c-0.5,0-1-0.1-1.4-0.4c-1.1-0.8-1.5-2.3-0.7-3.5c41.9-62.8,41-132.5,32.8-179.9c-9.2-53.3-29-90.9-29.2-91.2
				c-0.7-1.2-0.3-2.7,0.9-3.4c1.2-0.7,2.7-0.4,3.4,0.8c0.2,0.3,20.2,37.7,29.7,92.2c5.4,30.9,6.2,60.7,2.4,88.7
				c-4.8,35-16.8,67.1-35.8,95.6C306.8,397.8,306,398.2,305.2,398.2z"/>
		</g>
	</g>
	<g>
		<g>
			<path d="M397,407.1c-0.3,0-0.7-0.1-1-0.2c-1.3-0.5-1.9-2-1.3-3.3c32.5-75.9,17.6-146.2-0.6-191.7c-19.9-49.3-47.5-80.3-47.8-80.6
				c-1-1-1-2.6,0-3.5c1-1,2.5-1,3.5,0c0.3,0.3,28.3,31.3,48.9,82.2c18.6,46.4,33.8,118,0.6,195.5C398.9,406.5,398,407.1,397,407.1z"
				/>
		</g>
	</g>
	<g>
		<g>
			<path d="M165.3,380.4c-1,0-1.9-0.6-2.3-1.6c-12.3-30.5-17.4-63.2-15-97.2c1.9-27.2,8.6-55.3,19.8-83.6
				c19.4-48.8,45.8-81.2,46.1-81.5c0.9-1.1,2.5-1.2,3.5-0.3c1.1,0.9,1.2,2.5,0.3,3.5c-0.3,0.3-26.3,32.3-45.3,80.3
				c-17.3,43.5-32.1,109.5-4.8,177c0.5,1.3-0.1,2.7-1.4,3.3C165.9,380.3,165.6,380.4,165.3,380.4z"/>
		</g>
	</g>
	<g>
		<g>
			<path d="M74.2,371c-1.2,0-2.2-0.8-2.4-2c-6.9-34.3-6.2-68.7,2.2-102.2c6.7-27,18.4-53.4,34.8-78.7c26.9-41.6,58-67,63.9-71.7
				l0.2-0.1c1.1-0.9,2.6-0.7,3.5,0.4c0.9,1.1,0.7,2.6-0.3,3.5c0,0-0.1,0.1-0.3,0.2c-5.8,4.6-36.4,29.5-62.8,70.4
				c-36.4,56.4-48.6,116-36.3,177.1c0.3,1.4-0.6,2.7-2,2.9C74.5,371,74.4,371,74.2,371z"/>
		</g>
	</g>
</g>
</svg>
