<?xml version="1.0" encoding="utf-8"?>
<!-- Generator: Adobe Illustrator 22.1.0, SVG Export Plug-In . SVG Version: 6.00 Build 0)  -->
<svg version="1.1" id="Layer_1" xmlns="http://www.w3.org/2000/svg" xmlns:xlink="http://www.w3.org/1999/xlink" x="0px" y="0px"
	 viewBox="0 0 512 512" style="enable-background:new 0 0 512 512;" xml:space="preserve">
<g>
	<circle cx="143.5" cy="98.5" r="3.5"/>
	<circle cx="118.5" cy="143.5" r="3.5"/>
	<circle cx="105.5" cy="196.5" r="3.5"/>
	<circle cx="104.5" cy="240.5" r="3.5"/>
	<circle cx="108.5" cy="285.5" r="3.5"/>
	<circle cx="120.5" cy="330.5" r="3.5"/>
	<circle cx="135.5" cy="364.5" r="3.5"/>
	<circle cx="158.5" cy="405.5" r="3.5"/>
	<circle cx="183.5" cy="437.5" r="3.5"/>
	<circle cx="202.5" cy="453.5" r="3.5"/>
	<circle cx="246.5" cy="455.5" r="3.5"/>
	<circle cx="291.5" cy="457.5" r="3.5"/>
	<circle cx="331.5" cy="457.5" r="3.5"/>
	<circle cx="361.5" cy="456.5" r="3.5"/>
	<circle cx="395.5" cy="425.5" r="3.5"/>
	<circle cx="422.5" cy="391.5" r="3.5"/>
	<circle cx="443.5" cy="350.5" r="3.5"/>
	<circle cx="458.5" cy="306.5" r="3.5"/>
	<circle cx="468.5" cy="262.5" r="3.5"/>
	<circle cx="468.5" cy="212.5" r="3.5"/>
	<circle cx="458.5" cy="166.5" r="3.5"/>
	<circle cx="443.5" cy="134.5" r="3.5"/>
	<circle cx="426.5" cy="98.5" r="3.5"/>
	<circle cx="379.3" cy="98.5" r="3.5"/>
	<circle cx="332.2" cy="98.5" r="3.5"/>
	<circle cx="285" cy="98.5" r="3.5"/>
	<circle cx="237.8" cy="98.5" r="3.5"/>
	<circle cx="190.7" cy="98.5" r="3.5"/>
</g>
</svg>
