<?xml version="1.0" encoding="utf-8"?>
<!-- Generator: Adobe Illustrator 22.1.0, SVG Export Plug-In . SVG Version: 6.00 Build 0)  -->
<svg version="1.1" id="Layer_1" xmlns="http://www.w3.org/2000/svg" xmlns:xlink="http://www.w3.org/1999/xlink" x="0px" y="0px"
	 viewBox="0 0 512 512" style="enable-background:new 0 0 512 512;" xml:space="preserve">
<g>
	<g>
		<g>
			<path d="M351.2,440.4H215.9c-0.5,0-1-0.2-1.4-0.4C155.7,399.4,125,307.8,125,238.2c0-25.4,4.1-48.8,12.2-69.6
				c0.4-1,1.3-1.6,2.3-1.6c0,0,0,0,0,0l292.6,0.6c1,0,2,0.7,2.3,1.6c6.9,19.1,10.8,43.6,10.8,69c0,37.8-9.1,78.6-25.7,115
				c-16.7,36.7-40.5,67.5-66.8,86.7C352.2,440.2,351.7,440.4,351.2,440.4z M216.7,435.4h133.7c52.1-38.4,89.8-121.1,89.8-197.2
				c0-24.1-3.5-47.3-9.9-65.6L141.2,172c-7.4,19.8-11.2,42-11.2,66.2C130,306.2,159.8,395.6,216.7,435.4z"/>
		</g>
	</g>
	<g>
		<g>
			<path d="M466.8,82.5H119.4c-5.9,0-10.7-4.8-10.7-10.7s4.8-10.7,10.7-10.7h347.4c5.9,0,10.7,4.8,10.7,10.7S472.7,82.5,466.8,82.5z
				 M119.4,66.1c-3.1,0-5.7,2.6-5.7,5.7s2.6,5.7,5.7,5.7h347.4c3.1,0,5.7-2.6,5.7-5.7s-2.6-5.7-5.7-5.7H119.4z"/>
		</g>
	</g>
	<g>
		<g>
			<path d="M48.4,111.2c-4.9,0-9-3.2-10.2-7.7c-1.6,1.1-3.6,1.7-5.7,1.7c-5.9,0-10.5-4.6-10.5-10.5V49.2c0-5.9,4.6-10.5,10.5-10.5
				c2,0,4.1,0.6,5.7,1.7c1.2-4.5,5.2-7.7,10.2-7.7c2.7,0,5.4,1.1,7.4,3c2,2,3.1,4.7,3.1,7.5c0,1.4-1.1,2.5-2.5,2.5s-2.5-1.1-2.5-2.5
				c0-1.5-0.6-2.9-1.6-3.9c-1.1-1-2.5-1.6-3.9-1.6c-3.1,0-5.5,2.3-5.5,5.4v6.1c0,1.4-1.1,2.5-2.5,2.5s-2.5-1.1-2.5-2.5
				c0-1.5-0.6-2.9-1.6-3.9c-1-1-2.4-1.6-3.8-1.6c-3.1,0-5.5,2.4-5.5,5.5v45.5c0,3.1,2.4,5.5,5.5,5.5c3,0,5.4-2.4,5.4-5.5
				c0-1.4,1.1-2.5,2.5-2.5s2.5,1.1,2.5,2.5v6.1c0,3,2.4,5.4,5.5,5.4c3,0,5.4-2.4,5.4-5.4c0-1.4,1.1-2.5,2.5-2.5s2.5,1.1,2.5,2.5
				C58.8,106.5,54.1,111.2,48.4,111.2z"/>
		</g>
		<g>
			<path d="M64.6,126.2c-5.9,0-10.5-4.6-10.5-10.5v-14.9c0-1.4,1.1-2.5,2.5-2.5s2.5,1.1,2.5,2.5v14.9c0,3.1,2.4,5.5,5.5,5.5
				c3,0,5.4-2.4,5.4-5.5v-14.9c0-1.4,1.1-2.5,2.5-2.5s2.5,1.1,2.5,2.5c0,3,2.4,5.4,5.5,5.4c3,0,5.4-2.4,5.4-5.4v-6.1
				c0-1.4,1.1-2.5,2.5-2.5s2.5,1.1,2.5,2.5c0,3.1,2.3,5.5,5.4,5.5c3.1,0,5.5-2.4,5.5-5.5V49.3c0-1.5-0.6-2.9-1.6-3.9
				c-1.1-1-2.5-1.6-3.9-1.6c-3,0-5.4,2.4-5.4,5.5c0,1.4-1.1,2.5-2.5,2.5s-2.5-1.1-2.5-2.5v-6.1c0-1.5-0.6-2.9-1.6-3.9
				c-1-1-2.4-1.6-3.8-1.6c-3.1,0-5.5,2.3-5.5,5.4c0,1.4-1.1,2.5-2.5,2.5S70,44.5,70,43.1V28c0-1.5-0.6-2.9-1.6-3.9
				c-1.1-1-2.5-1.6-3.9-1.6c-3.1,0-5.5,2.4-5.5,5.5v15.1c0,1.4-1.1,2.5-2.5,2.5S54,44.5,54,43.1V28c0-5.9,4.6-10.5,10.5-10.5
				c2.7,0,5.4,1.1,7.4,3c2,2,3.1,4.7,3.1,7.5v6.2c1.6-1,3.5-1.5,5.5-1.5c2.8,0,5.4,1.1,7.4,3c1.3,1.3,2.2,3,2.7,4.8
				c1.6-1.1,3.6-1.7,5.7-1.7c2.7,0,5.4,1.1,7.4,3c2,2,3.1,4.7,3.1,7.5v45.4c0,5.9-4.6,10.5-10.5,10.5c-2.1,0-4.1-0.6-5.8-1.7
				c-1.2,4.4-5.2,7.7-10,7.7c-2,0-3.9-0.5-5.5-1.5v6C75,121.6,70.4,126.2,64.6,126.2z"/>
		</g>
		<g>
			<path d="M37.7,143.6c-6.9,0-12.5-5.5-12.5-12.3v-30.2c0-1.4,1.1-2.5,2.5-2.5s2.5,1.1,2.5,2.5v30.2c0,4,3.4,7.3,7.5,7.3
				c4.2,0,7.5-3.2,7.5-7.3v-22.6c0-1.4,1.1-2.5,2.5-2.5s2.5,1.1,2.5,2.5v22.6C50.2,138.1,44.6,143.6,37.7,143.6z"/>
		</g>
		<g>
			<path d="M60,168.6c-8.2,0-14.9-6.7-14.9-14.9v-44.2c0-1.4,1.1-2.5,2.5-2.5s2.5,1.1,2.5,2.5v44.2c0,5.5,4.4,9.9,9.9,9.9
				s9.9-4.4,9.9-9.9v-34.8c0-1.4,1.1-2.5,2.5-2.5s2.5,1.1,2.5,2.5v34.8C74.9,161.9,68.2,168.6,60,168.6z"/>
		</g>
	</g>
</g>
</svg>
