<?xml version="1.0" encoding="utf-8"?>
<!-- Generator: Adobe Illustrator 22.1.0, SVG Export Plug-In . SVG Version: 6.00 Build 0)  -->
<svg version="1.1" id="Layer_1" xmlns="http://www.w3.org/2000/svg" xmlns:xlink="http://www.w3.org/1999/xlink" x="0px" y="0px"
	 viewBox="0 0 512 512" style="enable-background:new 0 0 512 512;" xml:space="preserve">
<g>
	<circle cx="76.5" cy="228.5" r="3.5"/>
	<circle cx="52.5" cy="245.5" r="3.5"/>
	<circle cx="49.5" cy="276.5" r="3.5"/>
	<circle cx="70.5" cy="303.5" r="3.5"/>
	<circle cx="115.5" cy="314.5" r="3.5"/>
	<circle cx="166.5" cy="319.5" r="3.5"/>
	<circle cx="230.5" cy="324.5" r="3.5"/>
	<circle cx="293.5" cy="322.5" r="3.5"/>
	<circle cx="351.5" cy="320.5" r="3.5"/>
	<circle cx="399.5" cy="310.5" r="3.5"/>
	<circle cx="441.5" cy="299.5" r="3.5"/>
	<circle cx="458.5" cy="273.5" r="3.5"/>
	<circle cx="455.5" cy="241.5" r="3.5"/>
	<circle cx="428.5" cy="222.5" r="3.5"/>
	<circle cx="393.5" cy="230.5" r="3.5"/>
	<circle cx="351.5" cy="239.5" r="3.5"/>
	<circle cx="296.5" cy="245.5" r="3.5"/>
	<circle cx="246.5" cy="246.5" r="3.5"/>
	<circle cx="192.5" cy="241.5" r="3.5"/>
	<circle cx="157.5" cy="239.5" r="3.5"/>
	<circle cx="118.5" cy="231.5" r="3.5"/>
</g>
</svg>
