<?xml version="1.0" encoding="utf-8"?>
<!-- Generator: Adobe Illustrator 22.1.0, SVG Export Plug-In . SVG Version: 6.00 Build 0)  -->
<svg version="1.1" id="Layer_1" xmlns="http://www.w3.org/2000/svg" xmlns:xlink="http://www.w3.org/1999/xlink" x="0px" y="0px"
	 viewBox="0 0 512 512" style="enable-background:new 0 0 512 512;" xml:space="preserve">
<style type="text/css">
	.st0{opacity:5.000000e-02;}
</style>
<g>
	<g>
		<g>
			<path d="M276.3,213.3c-94.4,0-179.1-20.1-202.8-26.3c-0.7-0.2-1.3-0.6-1.6-1.3c-0.3-0.6-0.4-1.4-0.1-2c7.7-19.9,29.1-31,49.8-26
				c1.4,0.4,141,33.1,267.3,0.2c21.6-5.5,43.6,5.9,51.1,26.6c0.5,1.3-0.2,2.7-1.5,3.2C393.3,204.7,338.8,213.3,276.3,213.3z
				 M77.6,182.9c26.9,6.8,108.4,25.4,198.7,25.4c60.8,0,113.9-8.2,158-24.4c-7.4-16.8-25.9-25.8-44.2-21.1
				c-42.7,11.1-86.8,14.9-126.7,14.9c-79.6,0-142.2-14.8-143.1-15.1C103,158.3,85.1,167,77.6,182.9z"/>
		</g>
	</g>
	<g>
		<g>
			<path d="M459.8,265.8c-1,0-1.9-0.6-2.3-1.6c-0.5-1.3,0.1-2.7,1.4-3.3c2.4-1,4.8-1.8,7-2.7c1.5-0.6,3-1.1,4.6-1.7
				c9.5-3.7,16.9-10.9,20.9-20.2c4-9.2,4.1-19.3,0.4-28.5c-3.7-9.4-10.8-16.8-20.2-20.9c-9.3-4.1-19.6-4.3-29-0.6
				c-0.1,0-0.1,0-0.2,0.1c-0.6,0.2-1.2,0.4-1.9,0.7c-0.7,0.3-1.4,0.6-2.2,0.8c-45.5,17-100,25.6-162.1,25.6
				c-90.7,0-172.1-18.4-202.8-26.3c-2.6-0.7-4.7-1.3-6.1-1.7c-0.8-0.2-1.4-0.4-1.6-0.5c-0.1,0-0.2,0-0.3-0.1
				c-9.7-2.9-20-1.8-28.9,3.1c-8.9,4.8-15.4,12.8-18.2,22.5c-2.9,9.7-1.8,20,3.1,28.9c4.8,8.9,12.8,15.4,22.5,18.2
				c0.1,0,0.2,0.1,0.3,0.1c0.4,0.2,2.1,0.7,4.1,1.2c1.1,0.3,2.4,0.7,3.8,1.1c1.3,0.4,2.1,1.8,1.7,3.1c-0.4,1.3-1.8,2.1-3.1,1.7
				c-1.5-0.4-2.7-0.8-3.8-1.1c-2.6-0.7-3.9-1.1-4.6-1.4c-10.9-3.3-19.9-10.6-25.4-20.6c-5.5-10.1-6.7-21.7-3.5-32.7
				c3.2-11,10.6-20.1,20.6-25.5c10-5.4,21.6-6.7,32.5-3.5c0.3,0.1,0.9,0.2,2.1,0.6c1.3,0.4,3.4,1,5.9,1.7
				c30.5,7.8,111.4,26.1,201.5,26.1c61.5,0,115.5-8.5,160.4-25.3c0,0,0.1,0,0.1,0c0.6-0.2,1.2-0.4,1.9-0.7c0.7-0.3,1.4-0.6,2.1-0.8
				c10.6-4.1,22.2-3.9,32.8,0.7c10.5,4.6,18.6,13,22.8,23.6c4.2,10.4,4.1,21.9-0.4,32.3c-4.6,10.6-13,18.7-23.7,22.9
				c-1.6,0.6-3.1,1.2-4.7,1.8c-2.2,0.8-4.6,1.7-6.9,2.6C460.4,265.7,460.1,265.8,459.8,265.8z M66.2,185.1
				C66.2,185.1,66.2,185.1,66.2,185.1C66.2,185.1,66.2,185.1,66.2,185.1z M66.2,185.1C66.2,185.1,66.2,185.1,66.2,185.1
				C66.2,185.1,66.2,185.1,66.2,185.1z"/>
		</g>
	</g>
	<g class="st0">
		<g>
			<path d="M276.3,213.3c-94.4,0-179.1-20.1-202.8-26.3c-0.7-0.2-1.3-0.6-1.6-1.3c-0.3-0.6-0.4-1.4-0.1-2c7.7-19.9,29.1-31,49.8-26
				c1.4,0.4,141,33.1,267.3,0.2c21.6-5.5,43.6,5.9,51.1,26.6c0.5,1.3-0.2,2.7-1.5,3.2C393.3,204.7,338.8,213.3,276.3,213.3z
				 M77.6,182.9c26.9,6.8,108.4,25.4,198.7,25.4c60.8,0,113.9-8.2,158-24.4c-7.4-16.8-25.9-25.8-44.2-21.1
				c-42.7,11.1-86.8,14.9-126.7,14.9c-79.6,0-142.2-14.8-143.1-15.1C103,158.3,85.1,167,77.6,182.9z"/>
		</g>
	</g>
</g>
</svg>
