<?xml version="1.0" encoding="utf-8"?>
<!-- Generator: Adobe Illustrator 22.1.0, SVG Export Plug-In . SVG Version: 6.00 Build 0)  -->
<svg version="1.1" id="Layer_1" xmlns="http://www.w3.org/2000/svg" xmlns:xlink="http://www.w3.org/1999/xlink" x="0px" y="0px"
	 viewBox="0 0 512 512" style="enable-background:new 0 0 512 512;" xml:space="preserve">
<g>
	<circle cx="145.5" cy="97.5" r="3.5"/>
	<circle cx="149.9" cy="152.1" r="3.5"/>
	<circle cx="154.4" cy="206.6" r="3.5"/>
	<circle cx="158.8" cy="261.2" r="3.5"/>
	<circle cx="163.2" cy="315.8" r="3.5"/>
	<circle cx="167.6" cy="370.4" r="3.5"/>
	<circle cx="172.1" cy="424.9" r="3.5"/>
	<circle cx="176.5" cy="479.5" r="3.5"/>
	<circle cx="238.5" cy="479.5" r="3.5"/>
	<circle cx="300.5" cy="479.5" r="3.5"/>
	<circle cx="362.5" cy="479.5" r="3.5"/>
	<circle cx="368.8" cy="424.9" r="3.5"/>
	<circle cx="375.1" cy="370.4" r="3.5"/>
	<circle cx="381.4" cy="315.8" r="3.5"/>
	<circle cx="387.6" cy="261.2" r="3.5"/>
	<circle cx="393.9" cy="206.6" r="3.5"/>
	<circle cx="400.2" cy="152.1" r="3.5"/>
	<circle cx="406.5" cy="97.5" r="3.5"/>
	<circle cx="354.3" cy="97.5" r="3.5"/>
	<circle cx="302.1" cy="97.5" r="3.5"/>
	<circle cx="249.9" cy="97.5" r="3.5"/>
	<circle cx="197.7" cy="97.5" r="3.5"/>
</g>
</svg>
