<?xml version="1.0" encoding="utf-8"?>
<!-- Generator: Adobe Illustrator 22.1.0, SVG Export Plug-In . SVG Version: 6.00 Build 0)  -->
<svg version="1.1" id="Layer_1" xmlns="http://www.w3.org/2000/svg" xmlns:xlink="http://www.w3.org/1999/xlink" x="0px" y="0px"
	 viewBox="0 0 512 512" style="enable-background:new 0 0 512 512;" xml:space="preserve">
<g>
	<g>
		<path d="M391.1,222.2h-234c-1.4,0-2.5-1.1-2.5-2.5s1.1-2.5,2.5-2.5h234c1.4,0,2.5,1.1,2.5,2.5S392.5,222.2,391.1,222.2z"/>
	</g>
	<g id="Layer_2_1_">
		<g>
			<g>
				<path d="M112.5,166c-38.3,0-69.4-31.1-69.4-69.4c0-18.6,7.2-36,20.3-49.2C76.5,34.4,93.9,27.1,112.5,27
					c18.6,0,36.1,7.2,49.2,20.3c13.1,13.1,20.3,30.5,20.4,49.1c0,1.4-1.1,2.5-2.5,2.5c0,0,0,0,0,0c-1.4,0-2.5-1.1-2.5-2.5
					C176.9,60.9,147.9,32,112.5,32C77,32.2,48.1,61.2,48.1,96.6c0,35.5,28.9,64.4,64.4,64.4c7.5,0,14.8-1.2,21.6-3.7
					c1.3-0.5,2.7,0.2,3.2,1.5s-0.2,2.7-1.5,3.2C128.4,164.7,120.6,166,112.5,166z"/>
			</g>
			<g>
				<path d="M111.4,148.8c-1.4,0-2.5-1.1-2.5-2.5v-102c0-1.4,1.1-2.5,2.5-2.5s2.5,1.1,2.5,2.5v102
					C113.9,147.7,112.8,148.8,111.4,148.8z"/>
			</g>
			<g>
				<path d="M71.5,129.6c-0.7,0-1.5-0.3-2-1c-0.8-1.1-0.6-2.7,0.5-3.5l79.8-61.5c1.1-0.8,2.7-0.6,3.5,0.5c0.8,1.1,0.6,2.7-0.5,3.5
					L73,129.1C72.6,129.4,72,129.6,71.5,129.6z"/>
			</g>
			<g>
				<path d="M111.4,98.8c-0.6,0-1.1-0.2-1.6-0.6L69.7,65.7c-1.1-0.9-1.2-2.4-0.4-3.5c0.9-1.1,2.4-1.2,3.5-0.4L113,94.4
					c1.1,0.9,1.2,2.4,0.4,3.5C112.8,98.5,112.1,98.8,111.4,98.8z"/>
			</g>
			<g>
				<path d="M111.4,98.8H60.2c-1.4,0-2.5-1.1-2.5-2.5s1.1-2.5,2.5-2.5h51.2c1.4,0,2.5,1.1,2.5,2.5S112.8,98.8,111.4,98.8z"/>
			</g>
		</g>
	</g>
</g>
</svg>
