<?xml version="1.0" encoding="utf-8"?>
<!-- Generator: Adobe Illustrator 22.1.0, SVG Export Plug-In . SVG Version: 6.00 Build 0)  -->
<svg version="1.1" id="Layer_1" xmlns="http://www.w3.org/2000/svg" xmlns:xlink="http://www.w3.org/1999/xlink" x="0px" y="0px"
	 viewBox="0 0 512 512" style="enable-background:new 0 0 512 512;" xml:space="preserve">
<g>
	<g>
		<path d="M297.8,497.5c-2.8,0-5.5-0.8-7.9-2.3c-3.3-2.1-5.5-5.3-6.2-9l-52.1-223.3c-0.3-1.3,0.5-2.7,1.9-3c1.3-0.3,2.7,0.5,3,1.9
			l52.1,223.4c0.5,2.4,1.9,4.5,4,5.8c2.2,1.4,4.9,1.9,7.4,1.3c5.1-1.2,8.3-6.4,7.1-11.6l-52.7-225.3c-0.3-1.3,0.5-2.7,1.9-3
			c1.3-0.3,2.7,0.5,3,1.9l52.7,225.3c1.8,7.9-3.1,15.8-10.9,17.6C300,497.4,298.9,497.5,297.8,497.5z"/>
	</g>
	<g>
		<g>
			<path d="M107.3,199.6c-0.5,0-0.9-0.1-1.3-0.4c-0.6-0.4-1-0.9-1.1-1.6l-12.5-53.6c-0.3-1.3,0.5-2.7,1.9-3l230.3-53.8
				c1.3-0.3,2.7,0.5,3,1.9l12.5,53.6c0.2,0.6,0,1.3-0.3,1.9c-0.4,0.6-0.9,1-1.6,1.1l-230.3,53.8
				C107.6,199.6,107.5,199.6,107.3,199.6z M97.8,145.4l11.4,48.7l225.4-52.7l-11.4-48.7L97.8,145.4z"/>
		</g>
	</g>
</g>
</svg>
