<?xml version="1.0" encoding="utf-8"?>
<!-- Generator: Adobe Illustrator 22.1.0, SVG Export Plug-In . SVG Version: 6.00 Build 0)  -->
<svg version="1.1" id="Layer_1" xmlns="http://www.w3.org/2000/svg" xmlns:xlink="http://www.w3.org/1999/xlink" x="0px" y="0px"
	 viewBox="0 0 512 512" style="enable-background:new 0 0 512 512;" xml:space="preserve">
<g>
	<g>
		<path d="M92.3,317.2c-4.8,0-9.5-0.4-14-1.3c-1.4-0.3-2.3-1.6-2-2.9c0.3-1.4,1.6-2.3,2.9-2c20.5,3.8,44.2-1.7,66.7-15.4
			c23-14.1,43.9-36.3,58.8-62.7c15-26.5,23.3-55.9,23.3-83c0-26.1-7.5-49.1-21.2-64.7c-0.7-0.4-1.2-1.2-1.2-2.1V83c0,0,0,0,0,0
			c0,0,0,0,0,0c0,0,0,0,0,0s0,0,0,0c0,0,0,0,0,0c0,0,0,0,0,0v0c0-0.6,0.2-1.2,0.6-1.6c0,0,0,0,0,0c0.1-0.1,0.2-0.2,0.3-0.3
			c0.4-0.3,0.8-0.5,1.3-0.5c0.1,0,0.2,0,0.3,0c0.5,0,1,0.2,1.4,0.5c0.1,0.1,0.2,0.2,0.3,0.3c0,0,0,0,0,0c0,0,0,0,0,0c0,0,0,0,0,0
			c14.9,16.5,23.1,40.9,23.1,68.6c-0.1,28.3-8.3,57.9-23.9,85.5c-15.5,27.5-36.4,49.8-60.5,64.5C129.8,311.3,110.3,317.2,92.3,317.2
			z"/>
	</g>
	<g>
		<path d="M409.8,435.5c-28.1,0-50.9-22.8-50.9-50.9c0-10.3,3.1-20.2,9-28.8l-56.7-30.2c-1.2-0.6-1.7-2.2-1-3.4s2.2-1.7,3.4-1
			l59.2,31.5c0.6,0.3,1.1,1,1.3,1.7c0.2,0.7,0,1.5-0.5,2c-6.3,8.3-9.7,18.1-9.7,28.2c0,25.3,20.6,45.9,45.9,45.9
			c25.3,0,45.9-20.6,45.9-45.9c0-5.4-0.8-10.3-2.5-14.9c-0.2-0.7-0.2-1.4,0.1-2c0.3-0.6,0.9-1.1,1.6-1.3
			c20.2-5.2,34.2-23.5,34.2-44.4c0-25.3-20.6-45.9-45.9-45.9c-20.9,0-39.1,14.1-44.4,34.2c-0.2,0.7-0.7,1.4-1.4,1.7
			c-0.7,0.3-1.5,0.3-2.2-0.1l-60.4-32.1c-1.2-0.6-1.7-2.2-1-3.4c0.6-1.2,2.2-1.7,3.4-1l57.7,30.7c6.8-20.7,26.2-35,48.3-35
			c28.1,0,50.9,22.8,50.9,50.9c0,22.3-14.4,41.9-35.4,48.5c1.3,4.4,1.9,9,1.9,14C460.7,412.7,437.9,435.5,409.8,435.5z"/>
	</g>
	<g>
		<path d="M114.4,202.9c-2.2,0-4.2-0.5-6-1.5c-4.2-2.3-6.6-7-6.8-13.2c-0.2-5.7,1.5-12.1,4.9-18c7.2-12.8,19.4-19.1,27.7-14.5
			c8.3,4.7,9.1,18.4,1.9,31.2c-3.3,5.9-7.9,10.7-12.9,13.5C120.1,202,117.2,202.9,114.4,202.9z M128.1,159.2
			c-5.6,0-12.7,5.3-17.3,13.4l0,0c-2.9,5.1-4.4,10.6-4.2,15.4c0.2,4.3,1.7,7.5,4.2,9c2.6,1.5,6.1,1.1,9.9-1c4.2-2.3,8.1-6.4,11-11.5
			c5.7-10,5.6-21.2,0-24.4C130.6,159.5,129.4,159.2,128.1,159.2z M108.6,171.4L108.6,171.4L108.6,171.4z"/>
	</g>
</g>
</svg>
