<?xml version="1.0" encoding="utf-8"?>
<!-- Generator: Adobe Illustrator 22.1.0, SVG Export Plug-In . SVG Version: 6.00 Build 0)  -->
<svg version="1.1" id="Layer_1" xmlns="http://www.w3.org/2000/svg" xmlns:xlink="http://www.w3.org/1999/xlink" x="0px" y="0px"
	 viewBox="0 0 512 512" style="enable-background:new 0 0 512 512;" xml:space="preserve">
<g>
	<circle cx="90.5" cy="77.5" r="3.5"/>
	<circle cx="57.5" cy="113.5" r="3.5"/>
	<circle cx="35.5" cy="150.5" r="3.5"/>
	<circle cx="22.5" cy="188.5" r="3.5"/>
	<circle cx="12.5" cy="241.5" r="3.5"/>
	<circle cx="28.5" cy="281.5" r="3.5"/>
	<circle cx="53.5" cy="307.5" r="3.5"/>
	<circle cx="108.5" cy="324.5" r="3.5"/>
	<circle cx="146.5" cy="332.5" r="3.5"/>
	<circle cx="187.5" cy="340.5" r="3.5"/>
	<circle cx="233.5" cy="342.5" r="3.5"/>
	<circle cx="276.5" cy="338.5" r="3.5"/>
	<circle cx="307.5" cy="332.5" r="3.5"/>
	<circle cx="336.5" cy="302.5" r="3.5"/>
	<circle cx="339.5" cy="257.5" r="3.5"/>
	<circle cx="326.5" cy="223.5" r="3.5"/>
	<circle cx="307.5" cy="188.5" r="3.5"/>
	<circle cx="284.5" cy="156.5" r="3.5"/>
	<circle cx="259.5" cy="130.5" r="3.5"/>
	<circle cx="236.5" cy="103.5" r="3.5"/>
	<circle cx="198.5" cy="72.5" r="3.5"/>
	<circle cx="169.5" cy="59.5" r="3.5"/>
	<circle cx="129.5" cy="61.5" r="3.5"/>
</g>
</svg>
