<?xml version="1.0" encoding="utf-8"?>
<!-- Generator: Adobe Illustrator 22.1.0, SVG Export Plug-In . SVG Version: 6.00 Build 0)  -->
<svg version="1.1" id="Layer_1" xmlns="http://www.w3.org/2000/svg" xmlns:xlink="http://www.w3.org/1999/xlink" x="0px" y="0px"
	 viewBox="0 0 512 512" style="enable-background:new 0 0 512 512;" xml:space="preserve">
<g>
	<circle cx="52.2" cy="133.5" r="3.5"/>
	<circle cx="52.2" cy="180.5" r="3.5"/>
	<circle cx="52.2" cy="227.5" r="3.5"/>
	<circle cx="52.2" cy="274.5" r="3.5"/>
	<circle cx="52.2" cy="321.5" r="3.5"/>
	<circle cx="52.2" cy="368.5" r="3.5"/>
	<circle cx="52.2" cy="415.5" r="3.5"/>
	<circle cx="80.5" cy="445.5" r="3.5"/>
	<circle cx="133.5" cy="463.5" r="3.5"/>
	<circle cx="200.5" cy="478.5" r="3.5"/>
	<circle cx="263.5" cy="479.5" r="3.5"/>
	<circle cx="326.5" cy="474.5" r="3.5"/>
	<circle cx="388.5" cy="460.5" r="3.5"/>
	<circle cx="432.5" cy="422.5" r="3.5"/>
	<circle cx="432.5" cy="372.5" r="3.5"/>
	<circle cx="432.5" cy="332.2" r="3.5"/>
	<circle cx="432.5" cy="283" r="3.5"/>
	<circle cx="432.5" cy="233.8" r="3.5"/>
	<circle cx="432.5" cy="184.7" r="3.5"/>
	<circle cx="432.5" cy="135.5" r="3.5"/>
	<circle cx="384.5" cy="150.5" r="3.5"/>
	<circle cx="319.5" cy="156.5" r="3.5"/>
	<circle cx="240.5" cy="158.5" r="3.5"/>
	<circle cx="162.5" cy="152.5" r="3.5"/>
	<circle cx="104.5" cy="144.5" r="3.5"/>
</g>
</svg>
