<?xml version="1.0" encoding="utf-8"?>
<!-- Generator: Adobe Illustrator 22.1.0, SVG Export Plug-In . SVG Version: 6.00 Build 0)  -->
<svg version="1.1" id="Layer_1" xmlns="http://www.w3.org/2000/svg" xmlns:xlink="http://www.w3.org/1999/xlink" x="0px" y="0px"
	 viewBox="0 0 512 512" style="enable-background:new 0 0 512 512;" xml:space="preserve">
<g>
	<g>
		<path d="M424.6,98.7c-0.8,0-1.5-0.3-2-1c-0.8-1.1-0.6-2.7,0.5-3.5c1.6-1.2,3-2.6,4.3-3.9l0.1-0.1c0.6-1.3,1.5-2.3,2.5-3.3
			c1.1-2.1,1.6-3.9,1.6-5.6v-1.5c0-0.5-0.1-0.8-0.2-1.2c-0.1-0.3-0.2-0.6-0.3-0.8c0,0,0-0.1,0-0.1c-0.2-0.3-0.4-0.7-0.5-1.1
			c-0.1-0.1-0.1-0.3-0.2-0.5c-0.5-1.1-1.1-2-1.9-2.9c-0.2-0.2-0.3-0.4-0.4-0.6c-0.2-0.1-0.5-0.3-0.6-0.5l-2.6-2.6
			c-0.4-0.4-0.4-0.4-0.6-0.5c-0.2-0.1-0.3-0.2-0.5-0.4c-0.2-0.2-0.5-0.5-0.6-0.5c-0.2-0.1-0.4-0.2-0.6-0.3c-2.2-1.6-5.1-3.6-8.7-5.3
			c-0.6-0.2-1-0.5-1.4-0.7c-0.2-0.1-0.3-0.2-0.5-0.3c-0.1,0-0.2-0.1-0.3-0.2c-0.1,0-0.3-0.2-0.5-0.2c-0.4-0.2-1-0.4-1.5-0.8
			l-0.9-0.4c-3.1-1.4-6.3-2.8-9.7-3.9c-0.1,0-0.2-0.1-0.2-0.1c-0.5-0.2-1-0.4-1.6-0.6c-0.3-0.1-0.5-0.2-0.8-0.3
			c-1-0.3-2.1-0.7-3.2-1c-1.7-0.6-3.5-1.2-5.3-1.7c-0.6-0.1-1.1-0.3-1.6-0.5c-0.3-0.1-0.7-0.3-1.1-0.4c-0.8-0.2-1.5-0.4-2-0.6
			c-0.3-0.1-0.6-0.2-1-0.3c-0.8-0.2-1.5-0.4-2.2-0.6c-0.3-0.1-0.6-0.2-1-0.3c-0.8-0.2-1.5-0.4-2.2-0.6c-0.3-0.1-0.6-0.2-1-0.3
			c-0.8-0.2-1.5-0.4-2.2-0.6c-0.3-0.1-0.6-0.2-1-0.3c-1.1-0.2-2.2-0.4-3.5-0.9c-1.1-0.2-2.1-0.4-3.4-0.9c-0.4-0.1-0.7-0.1-1.1-0.2
			c-0.7-0.1-1.5-0.2-2.1-0.4c-0.4-0.1-0.9-0.1-1.3-0.2c-0.7-0.1-1.4-0.2-2-0.4c-0.9-0.1-1.6-0.3-2.4-0.4l-1.2-0.2
			c-0.9-0.1-1.7-0.3-2.5-0.4l-1.1-0.2c-9.9-1.7-19.8-3.2-30.5-4.5l-0.5-0.1c-1.2-0.2-2.3-0.3-3.5-0.3c-0.1,0-0.2,0-0.3,0
			c-0.7-0.1-1.3-0.1-2-0.2c-0.7-0.1-1.5-0.1-2.3-0.2c-0.6-0.1-1.3-0.1-2-0.2c-0.7,0-1.4-0.1-2.2-0.2H308c-0.1,0-0.1,0-0.2,0
			l-3.2-0.2c-1.6-0.1-3.2-0.2-4.7-0.4c0,0-0.1,0-0.1,0c-0.7-0.1-1.4-0.1-2.1-0.2c-0.8-0.1-1.6-0.1-2.4-0.2c-1.3-0.2-2.7-0.2-4.2-0.2
			c-0.8,0-1.6-0.1-2.4-0.1c-1.4-0.1-2.9-0.1-4.3-0.2c-0.6-0.1-1.1-0.1-1.5-0.1c-9.8-0.5-20.4-0.9-34.6-1.1l-19.4,0
			c-2.1,0-4.2,0-6.2,0.2c-0.1,0-0.2,0-0.2,0c-1.3,0-2.6,0.1-3.9,0.1c-1.3,0-2.7,0.1-4,0.1c-1.2,0-2.4,0-3.5,0.2c-0.1,0-0.3,0-0.4,0
			c-0.8,0-1.6,0-2.3,0.1c-0.1,0-0.3,0-0.4,0.1c-2.2,0.1-4.3,0.3-6.5,0.4l-3.4,0.2c-0.4,0-0.8,0-1.3,0.1c-0.5,0-1,0.1-1.6,0.1
			c-2,0.2-4,0.3-6,0.4c-3,0.2-6.1,0.4-9.1,0.7c-0.1,0-0.2,0-0.3,0c-0.7,0-1.8,0.1-2.9,0.4c-0.1,0-0.2,0-0.2,0
			c-3.4,0.3-6.7,0.7-10,1.1c-2.6,0.3-5.1,0.6-7.7,0.8c-0.6,0.1-1.2,0.2-1.8,0.2c-0.5,0-1,0.1-1.4,0.2c-0.1,0-0.2,0-0.2,0
			c-5.2,0.5-10.2,1.3-16.3,2.6c-1.4,0.3-2.8,0.5-4.1,0.7c-1.8,0.3-3.6,0.6-5.3,1c-1.3,0.2-2.5,0.5-3.7,0.8c-0.8,0.2-1.5,0.3-2.3,0.5
			c-0.6,0.1-1,0.2-1.5,0.3c-0.5,0.1-1,0.2-1.6,0.3c-0.5,0.1-1,0.2-1.4,0.3c-0.5,0.1-1,0.2-1.6,0.3c-1.3,0.3-2.7,0.6-4,0.9l-1.4,0.3
			c-0.5,0.1-1,0.2-1.5,0.3c-0.5,0.1-0.9,0.2-1.4,0.3l-0.7,0.1c-0.7,0.2-1.3,0.3-2.2,0.5c-3.6,0.9-7,1.9-10.2,2.9l-2.2,0.7
			c-0.1,0-0.1,0-0.2,0c-0.7,0.2-1.1,0.3-1.7,0.6c-0.2,0.1-0.4,0.2-0.7,0.3c-0.7,0.2-1.1,0.3-1.7,0.6c-0.1,0.1-0.3,0.1-0.4,0.2
			c-0.1,0-0.3,0.1-0.4,0.1c-0.3,0.1-0.7,0.2-0.9,0.3c-0.2,0.2-0.5,0.3-0.7,0.4c-4.9,1.8-8.2,3.2-11,4.6c-0.1,0.1-0.2,0.1-0.3,0.1
			c-0.5,0.2-0.6,0.2-0.9,0.4c-0.2,0.1-0.3,0.2-0.5,0.3C69,64.7,64.3,67.8,60.7,71l-1.1,1.1c-0.1,0.1-0.2,0.2-0.4,0.3
			c-2.3,1.6-4,3.3-4.8,4.7c-0.4,0.7-0.7,1.7,0.1,3.7c0.1,0.3,0.2,0.6,0.2,0.9v1.9c0,1.4-1.1,2.5-2.5,2.5s-2.5-1.1-2.5-2.5v-1.4
			c-1-2.7-0.9-5.2,0.3-7.4c1.1-2.1,3.3-4.4,6.2-6.4l0.9-0.9c0,0,0.1,0,0.1-0.1c3.8-3.5,8.9-6.9,15.2-9.9c0.8-0.6,1.5-0.9,2.1-1.1
			c3.7-1.8,7.6-3.3,11.1-4.6c0.8-0.5,1.6-0.8,2.2-1l0.1,0c0.9-0.5,1.7-0.7,2.5-0.9c1-0.5,1.7-0.8,2.7-1l2.1-0.6
			c3.3-1,6.8-2.1,10.6-3c0,0,0.1,0,0.1,0c0.8-0.1,1.4-0.3,2-0.4l0.7-0.2c0.5-0.1,0.9-0.2,1.4-0.3c0.5-0.1,0.9-0.2,1.4-0.3l1.4-0.3
			c1.4-0.3,2.8-0.7,4.2-1c0.6-0.1,1-0.2,1.5-0.3c0.5-0.1,1-0.2,1.6-0.3c0.5-0.1,1-0.2,1.4-0.3c0.5-0.1,1-0.2,1.6-0.3
			c0.7-0.1,1.4-0.3,2.1-0.5c1.2-0.3,2.5-0.6,3.8-0.8c1.7-0.3,3.6-0.7,5.4-1c1.3-0.2,2.7-0.5,4-0.7c6.2-1.3,11.3-2.1,16.6-2.6
			c0.6-0.1,1.2-0.2,1.8-0.2c0.5,0,1-0.1,1.5-0.2c0.1,0,0.1,0,0.2,0c2.5-0.3,5.1-0.5,7.7-0.8c3.3-0.4,6.6-0.7,10-1.1
			c1-0.2,2.4-0.4,3.6-0.4c3-0.3,6.1-0.5,9.1-0.7c2-0.1,4-0.3,6-0.4c0.4,0,0.8,0,1.3-0.1c0.5-0.1,1-0.1,1.6-0.1l3.4-0.2
			c2.1-0.1,4.1-0.3,6.3-0.4c1-0.2,2.1-0.2,2.9-0.2c1.4-0.2,2.8-0.2,4.1-0.2c1.2,0,2.4,0,3.8-0.1c1.3,0,2.7-0.1,4-0.1
			c2.2-0.2,4.4-0.2,6.5-0.2h19.4c14.3,0.2,25,0.6,34.8,1.1c0.6,0,1.2,0.1,1.8,0.1c0.5,0,1.1,0.1,1.6,0.1c1,0,1.8,0.1,2.7,0.1
			c0.7,0,1.4,0.1,2,0.1c1.6,0,3.2,0,4.8,0.2c0.7,0.1,1.4,0.1,2.1,0.2c0.8,0.1,1.5,0.1,2.4,0.2c1.5,0.1,3,0.2,4.6,0.4l3.1,0.2h0.8
			c0.1,0,0.3,0,0.4,0c0.6,0.1,1.2,0.1,1.9,0.2c0.7,0.1,1.5,0.1,2.3,0.2c0.7,0.1,1.3,0.1,2,0.2c0.7,0,1.4,0.1,2.1,0.2
			c1.4,0,2.7,0.2,4,0.4l0.5,0.1c10.7,1.3,20.8,2.8,30.7,4.5l1.1,0.2c0.8,0.1,1.5,0.3,2.4,0.4l1.2,0.2c0.8,0.1,1.5,0.3,2.4,0.4
			c0,0,0.1,0,0.1,0c0.6,0.1,1.3,0.2,1.9,0.3c0.5,0.1,1,0.2,1.4,0.2c0.6,0.1,1.3,0.2,2,0.4c0.5,0.1,1,0.2,1.4,0.2
			c0.2,0,0.3,0.1,0.5,0.1c1.1,0.4,1.9,0.6,3,0.8c0.2,0,0.3,0.1,0.4,0.1c1.1,0.4,1.9,0.6,3,0.8c0.1,0,0.1,0,0.2,0
			c0.4,0.1,0.8,0.2,1.3,0.4c0.6,0.2,1.2,0.4,1.7,0.5c0.1,0,0.1,0,0.2,0c0.4,0.1,0.8,0.2,1.3,0.4c0.6,0.2,1.2,0.4,1.7,0.5
			c0.1,0,0.1,0,0.2,0c0.4,0.1,0.8,0.2,1.3,0.4c0.6,0.2,1.2,0.4,1.7,0.5c0.1,0,0.1,0,0.2,0c0.5,0.1,0.9,0.3,1.4,0.4
			c0.5,0.2,0.9,0.3,1.4,0.4c0.1,0,0.1,0,0.2,0c0.6,0.2,1.1,0.4,1.6,0.5c0.4,0.2,0.8,0.3,1.1,0.4c0.1,0,0.1,0,0.2,0
			c1.9,0.6,3.7,1.2,5.5,1.8c1,0.4,2.1,0.7,3.1,1c0.3,0.1,0.5,0.2,0.7,0.2c0.6,0.2,1.3,0.4,2,0.7c3.6,1.2,7.1,2.7,10.1,4l1.1,0.5
			c0.2,0.1,0.4,0.2,0.6,0.4c0.1,0.1,0.4,0.2,0.6,0.3c0.4,0.2,0.8,0.3,1.2,0.6c0.2,0.1,0.5,0.3,0.7,0.4c0.2,0.1,0.4,0.3,0.5,0.3
			c0.1,0,0.2,0.1,0.3,0.1c3.9,1.8,7,4,9.4,5.7c0.8,0.4,1.4,0.9,1.8,1.3c0.6,0.4,0.9,0.7,1.3,1.1l2.3,2.3c0.8,0.5,1.4,1.2,1.6,1.7
			c1.1,1.2,1.9,2.5,2.6,4c0,0,0,0.1,0.1,0.1c0,0.1,0.1,0.2,0.1,0.2c0.1,0.2,0.2,0.5,0.3,0.8c0.3,0.5,0.4,1,0.5,1.3l0,0.1
			c0,0.1,0.1,0.1,0.1,0.2c0.2,0.7,0.5,1.6,0.5,2.9v1.5c0,2.6-0.8,5.3-2.4,8.3c-0.1,0.2-0.3,0.4-0.4,0.6c-0.8,0.8-1.6,1.6-1.8,2.3
			c-0.1,0.3-0.3,0.7-0.6,0.9l-0.4,0.4c-1.4,1.4-2.9,2.9-4.7,4.3C425.7,98.5,425.1,98.7,424.6,98.7z M431.2,78.1
			C431.2,78.1,431.2,78.1,431.2,78.1C431.2,78.1,431.2,78.1,431.2,78.1z M430.9,77.7C430.9,77.7,430.9,77.7,430.9,77.7
			S430.9,77.7,430.9,77.7z M435.8,76.7C435.8,76.7,435.9,76.7,435.8,76.7C435.9,76.7,435.8,76.7,435.8,76.7z M428.2,72.8
			C428.2,72.8,428.2,72.8,428.2,72.8C428.2,72.8,428.2,72.8,428.2,72.8z"/>
	</g>
	<g>
		<path d="M327.4,101.3c-15.1,0-29.4-2.2-40.2-6.3c-11.5-4.3-17.9-10.4-17.9-17.1s6.4-12.8,17.9-17.1c10.8-4.1,25.1-6.3,40.2-6.3
			c15.1,0,29.4,2.2,40.2,6.3c11.5,4.3,17.9,10.4,17.9,17.1s-6.4,12.8-17.9,17.1C356.8,99.1,342.5,101.3,327.4,101.3z M327.4,59.5
			c-31.3,0-53.1,9.7-53.1,18.4s21.8,18.4,53.1,18.4c31.3,0,53.1-9.7,53.1-18.4S358.7,59.5,327.4,59.5z"/>
	</g>
	<g>
		<path d="M243,505.6c-56.1,0-108.9-7.1-148.5-20c-40.6-13.2-63-31.2-63-50.6v-24.2c0-10.6,6.5-20.6,19.2-29.8
			c1.1-0.8,2.7-0.6,3.5,0.6c0.8,1.1,0.6,2.7-0.6,3.5c-11.4,8.2-17.2,16.9-17.2,25.8V435c0,16.8,21.7,33.5,59.5,45.8
			c39.2,12.8,91.4,19.8,147,19.8c55.5,0,107.7-7.1,147-19.9c37.8-12.3,59.5-29,59.5-45.7l-0.4-27.9c-1.2-7.6-6.8-15-16.8-22.2
			c-1.1-0.8-1.4-2.4-0.6-3.5c0.8-1.1,2.4-1.4,3.5-0.6c11.1,8,17.4,16.7,18.8,25.7c0,0.1,0,0.2,0,0.3l0.4,28.1
			c0,19.4-22.4,37.3-62.9,50.5C351.8,498.5,299,505.6,243,505.6z"/>
	</g>
	<g>
		<path d="M242.8,132.1c-90.8,0-168.2-15.9-188.1-38.7l-0.5-0.5c-0.1-0.1-0.2-0.2-0.2-0.3c-2.3-3.1-3.8-6.3-4.4-9.5
			c-0.2-1.4,0.7-2.7,2-2.9c1.4-0.2,2.7,0.7,2.9,2c0.4,2.4,1.5,4.8,3.3,7.2l0.5,0.5c0,0,0.1,0.1,0.1,0.1c18.7,21.5,96.2,37,184.4,37
			c82.7,0,155.1-13.2,180.1-32.9c1.1-0.9,2.7-0.7,3.5,0.4c0.9,1.1,0.7,2.7-0.4,3.5C400.1,118.5,326.5,132.1,242.8,132.1z M52,120.8
			c-0.5,0-0.9-0.1-1.3-0.4c-12.8-8.2-19.4-17.1-19.4-26.5V72.7c0-11.6,9.8-22.4,29-32c36.3-18.1,104.6-29,182.7-29
			c79.9,0,148.9,11.1,184.5,29.8c15.6,8,24.5,17,26.5,26.6c0.1,0.3,0.2,0.6,0.2,0.9c0,0.2,0,0.3,0,0.5l0.2,24.4
			c0,9.4-6.5,18.4-19.4,26.5c-1.2,0.7-2.7,0.4-3.5-0.8c-0.7-1.2-0.4-2.7,0.8-3.5c11.3-7.2,17-14.7,17-22.3l-0.2-24.7
			c-1.6-8-9.9-16.1-23.9-23.3c-34.9-18.3-103-29.2-182.2-29.2c-77.4,0-144.9,10.6-180.5,28.4c-17.4,8.7-26.2,18-26.2,27.6v21.2
			c0,7.6,5.7,15.1,17,22.3c1.2,0.7,1.5,2.3,0.8,3.5C53.6,120.4,52.8,120.8,52,120.8z"/>
	</g>
</g>
</svg>
