<?xml version="1.0" encoding="utf-8"?>
<!-- Generator: Adobe Illustrator 22.1.0, SVG Export Plug-In . SVG Version: 6.00 Build 0)  -->
<svg version="1.1" id="Layer_1" xmlns="http://www.w3.org/2000/svg" xmlns:xlink="http://www.w3.org/1999/xlink" x="0px" y="0px"
	 viewBox="0 0 512 512" style="enable-background:new 0 0 512 512;" xml:space="preserve">
<g>
	<circle cx="199.5" cy="93.5" r="3.5"/>
	<circle cx="199.5" cy="125.5" r="3.5"/>
	<circle cx="189.5" cy="161.5" r="3.5"/>
	<circle cx="174.5" cy="191.5" r="3.5"/>
	<circle cx="166.5" cy="224.5" r="3.5"/>
	<circle cx="166.5" cy="268.5" r="3.5"/>
	<circle cx="166.5" cy="312.5" r="3.5"/>
	<circle cx="166.5" cy="356.5" r="3.5"/>
	<circle cx="166.5" cy="400.5" r="3.5"/>
	<circle cx="166.5" cy="444.5" r="3.5"/>
	<circle cx="166.5" cy="488.5" r="3.5"/>
	<circle cx="205.8" cy="488.5" r="3.5"/>
	<circle cx="245" cy="488.5" r="3.5"/>
	<circle cx="284.3" cy="488.5" r="3.5"/>
	<circle cx="323.5" cy="488.5" r="3.5"/>
	<circle cx="323.5" cy="444.5" r="3.5"/>
	<circle cx="323.5" cy="400.5" r="3.5"/>
	<circle cx="323.5" cy="356.5" r="3.5"/>
	<circle cx="323.5" cy="312.5" r="3.5"/>
	<circle cx="323.5" cy="268.5" r="3.5"/>
	<circle cx="323.5" cy="224.5" r="3.5"/>
	<circle cx="314.5" cy="196.5" r="3.5"/>
	<circle cx="297.5" cy="157.5" r="3.5"/>
	<circle cx="288.5" cy="125.5" r="3.5"/>
	<circle cx="286.5" cy="90.5" r="3.5"/>
	<circle cx="255.5" cy="90.5" r="3.5"/>
	<circle cx="225.5" cy="90.5" r="3.5"/>
</g>
</svg>
