<?xml version="1.0" encoding="utf-8"?>
<!-- Generator: Adobe Illustrator 22.1.0, SVG Export Plug-In . SVG Version: 6.00 Build 0)  -->
<svg version="1.1" id="Layer_1" xmlns="http://www.w3.org/2000/svg" xmlns:xlink="http://www.w3.org/1999/xlink" x="0px" y="0px"
	 viewBox="0 0 512 512" style="enable-background:new 0 0 512 512;" xml:space="preserve">
<g>
	<g>
		<path d="M284.2,82.6h-78.9c-6.2,0-11.3-5.1-11.3-11.3V49.5c0-6.2,5.1-11.3,11.3-11.3h78.9c6.2,0,11.3,5.1,11.3,11.3v21.9
			C295.5,77.7,290.5,82.6,284.2,82.6z M205.3,43.2c-3.5,0-6.3,2.8-6.3,6.3v21.8c0,3.5,2.8,6.3,6.3,6.3h78.9c3.5,0,6.3-2.7,6.3-6.2
			V49.5c0-3.5-2.8-6.3-6.3-6.3H205.3z"/>
	</g>
	<g>
		<g>
			<path d="M293,142.1h-96.9c-1.4,0-2.5-1.1-2.5-2.5s1.1-2.5,2.5-2.5H293c1.4,0,2.5,1.1,2.5,2.5S294.4,142.1,293,142.1z"/>
		</g>
	</g>
	<g>
		<path d="M319.5,213.4H169.7c-1.4,0-2.5-1.1-2.5-2.5s1.1-2.5,2.5-2.5h149.8c1.4,0,2.5,1.1,2.5,2.5S320.9,213.4,319.5,213.4z"/>
	</g>
</g>
</svg>
