<?xml version="1.0" encoding="utf-8"?>
<!-- Generator: Adobe Illustrator 22.1.0, SVG Export Plug-In . SVG Version: 6.00 Build 0)  -->
<svg version="1.1" id="Layer_1" xmlns="http://www.w3.org/2000/svg" xmlns:xlink="http://www.w3.org/1999/xlink" x="0px" y="0px"
	 viewBox="0 0 512 512" style="enable-background:new 0 0 512 512;" xml:space="preserve">
<g>
	<g>
		<g>
			<path d="M332.4,132.7h-17.7c-1,0-1.8-0.5-2.2-1.4c-0.4-0.9-0.3-1.9,0.2-2.6l25-32.9l37.9-50c1-1.2,2.3-2.3,4.1-3.1
				c0.1,0,0.2-0.1,0.3-0.1l60.7-22.4c2.3-0.9,4.9-0.8,7.3,0.3c2.3,1.1,4.1,3,5,5.3c0,0,0,0.1,0,0.1c1.6,4.9-0.9,10.4-5.7,12.2
				c0,0,0,0,0,0l-58,21.5l-29.9,39.1l-25,32.9C333.9,132.3,333.2,132.7,332.4,132.7z M319.7,127.7h11.4l24.3-31.9l30.3-39.7
				c0.3-0.4,0.7-0.7,1.1-0.8l58.7-21.8c2.3-0.9,3.5-3.5,2.7-5.9c-0.5-1.1-1.3-2-2.4-2.6c-1.1-0.5-2.3-0.6-3.4-0.2l-60.6,22.4
				c-1,0.5-1.8,1.1-2.3,1.7l-37.9,49.9L319.7,127.7z M446.4,35.8L446.4,35.8L446.4,35.8z"/>
		</g>
	</g>
	<g>
		<g>
			<path d="M305.3,491.2h-97.8c-5.8,0-10.6-4.8-10.6-10.6s4.8-10.6,10.6-10.6h38.4V263.2c0-1.4,1.1-2.5,2.5-2.5h16.1
				c1.4,0,2.5,1.1,2.5,2.5V470h38.2c6,0.1,10.7,4.8,10.7,10.6C315.9,486.4,311.1,491.2,305.3,491.2z M207.5,475
				c-3.1,0-5.6,2.5-5.6,5.6s2.5,5.6,5.6,5.6h97.8c3.1,0,5.6-2.5,5.6-5.6c0-3.1-2.5-5.5-5.8-5.6l-40.6,0c-1.4,0-2.5-1.1-2.5-2.5
				V265.7h-11.1v206.8c0,1.4-1.1,2.5-2.5,2.5H207.5z"/>
		</g>
	</g>
	<g>
		<path d="M354.1,132.6H159.5c-1.4,0-2.5-1.1-2.5-2.5s1.1-2.5,2.5-2.5h194.6c1.4,0,2.5,1.1,2.5,2.5S355.5,132.6,354.1,132.6z"/>
	</g>
</g>
</svg>
