<?xml version="1.0" encoding="utf-8"?>
<!-- Generator: Adobe Illustrator 22.1.0, SVG Export Plug-In . SVG Version: 6.00 Build 0)  -->
<svg version="1.1" id="Layer_1" xmlns="http://www.w3.org/2000/svg" xmlns:xlink="http://www.w3.org/1999/xlink" x="0px" y="0px"
	 viewBox="0 0 512 512" style="enable-background:new 0 0 512 512;" xml:space="preserve">
<g>
	<circle cx="87.5" cy="95.5" r="3.5"/>
	<circle cx="98.5" cy="132.5" r="3.5"/>
	<circle cx="116.5" cy="158.5" r="3.5"/>
	<circle cx="142.5" cy="180.5" r="3.5"/>
	<circle cx="175.5" cy="195.5" r="3.5"/>
	<circle cx="180.5" cy="223.5" r="3.5"/>
	<circle cx="199.5" cy="247.5" r="3.5"/>
	<circle cx="229.5" cy="263.5" r="3.5"/>
	<circle cx="277.5" cy="267.5" r="3.5"/>
	<circle cx="305.5" cy="259.5" r="3.5"/>
	<circle cx="329.5" cy="242.5" r="3.5"/>
	<circle cx="340.5" cy="220.5" r="3.5"/>
	<circle cx="340.5" cy="194.5" r="3.5"/>
	<circle cx="372.5" cy="185.5" r="3.5"/>
	<circle cx="404.5" cy="162.5" r="3.5"/>
	<circle cx="424.5" cy="130.5" r="3.5"/>
	<circle cx="424.5" cy="95.5" r="3.5"/>
	<circle cx="376.4" cy="95.5" r="3.5"/>
	<circle cx="323.2" cy="95.5" r="3.5"/>
	<circle cx="280.1" cy="95.5" r="3.5"/>
	<circle cx="231.9" cy="95.5" r="3.5"/>
	<circle cx="183.8" cy="95.5" r="3.5"/>
	<circle cx="135.6" cy="95.5" r="3.5"/>
</g>
</svg>
