<?xml version="1.0" encoding="utf-8"?>
<!-- Generator: Adobe Illustrator 22.1.0, SVG Export Plug-In . SVG Version: 6.00 Build 0)  -->
<svg version="1.1" id="Layer_1" xmlns="http://www.w3.org/2000/svg" xmlns:xlink="http://www.w3.org/1999/xlink" x="0px" y="0px"
	 viewBox="0 0 512 512" style="enable-background:new 0 0 512 512;" xml:space="preserve">
<g>
	<g>
		<g>
			<path d="M288.5,466.6H148.2c-0.2,0-0.4,0-0.7-0.1c-38-10.4-70.5-28.9-94.1-53.4c-24.2-25.2-37-55-37-86.1c0-1.4,1.1-2.5,2.5-2.5
				h309.7c1.4,0,2.5,1.1,2.5,2.5v67.4c0,2.6,2.2,4.8,4.8,4.8c2.6,0,4.8-2.2,4.8-4.8v-13.9c0-1.4,1.1-2.5,2.5-2.5s2.5,1.1,2.5,2.5
				c0,2.1,4.2,4.8,7.3,4.8c2.6,0,4.8-2.2,4.8-4.8V327c0-1.4,1.1-2.5,2.5-2.5h57.3c1.4,0,2.5,1.1,2.5,2.5c0,31.1-12.8,60.9-37,86.1
				c-23.5,24.5-56.1,43-94.1,53.4C288.9,466.6,288.7,466.6,288.5,466.6z M148.5,461.6h139.6c74.9-20.7,125.6-73.5,127-132.1h-52.3
				v51c0,5.3-4.5,9.8-9.8,9.8c-2.2,0-5-0.8-7.3-2.3v6.4c0,5.4-4.4,9.8-9.8,9.8c-5.3,0-9.8-4.5-9.8-9.8v-64.9H21.5
				C22.9,388.1,73.6,440.9,148.5,461.6z"/>
		</g>
		<g>
			<g>
				<path d="M293.7,485.3H143.3c-6.6,0-11.8-5.2-11.8-11.8s5.2-11.8,11.8-11.8h150.4c3.1-0.1,6,1.1,8.2,3.3c2.3,2.2,3.6,5.3,3.6,8.5
					C305.5,480.1,300.3,485.3,293.7,485.3z M293.9,466.7c0,0-0.1,0-0.1,0H143.3c-3.8,0-6.8,3-6.8,6.8s3,6.8,6.8,6.8h150.4
					c3.8,0,6.8-3,6.8-6.8c0-1.9-0.7-3.6-2.1-4.9C297.2,467.4,295.6,466.7,293.9,466.7z"/>
			</g>
		</g>
	</g>
	<g>
		<g>
			<path d="M131,120.8c-0.5,0-0.9-0.1-1.3-0.4c-0.6-0.4-1-0.9-1.1-1.6l-4.1-18.3c-0.1-0.6,0-1.3,0.3-1.9c0.4-0.6,0.9-1,1.6-1.1
				l17.6-3.9c0.7-0.2,1.5,0,2.1,0.5c0.6,0.5,0.9,1.2,0.9,1.9c0,0.5-0.1,0.9-0.1,1.3c0,0.2-0.1,0.3-0.1,0.4v17.4
				c0,1.2-0.8,2.2-1.9,2.4l-13.3,3.1C131.4,120.8,131.2,120.8,131,120.8z M129.9,101.9l3,13.4l8.9-2.1v-14L129.9,101.9z"/>
		</g>
		<g>
			<path d="M161.5,100.1c-1.4,0-2.5-1.1-2.5-2.5c0-1.4-0.4-2.6-1.3-3.6c-0.6-0.7-0.8-1.6-0.5-2.5c0.3-0.8,1-1.5,1.9-1.6l2.1-0.4
				c0.9-0.2,1.8,0.1,2.3,0.8c0.6,0.7,0.8,1.6,0.5,2.4c-0.1,0.3-0.1,1-0.1,1.3v3.5C164,99,162.9,100.1,161.5,100.1z"/>
		</g>
		<g>
			<path d="M178.2,110c-0.5,0-1-0.2-1.5-0.5c-0.7-0.5-1-1.2-1-2V94.3c0-1.4-0.5-2.6-1.5-3.8c-0.6-0.7-0.8-1.6-0.5-2.4
				c0.3-0.8,0.9-1.5,1.8-1.7l3.7-0.9c0.9-0.2,1.9,0.1,2.5,0.9c0.6,0.8,0.7,1.8,0.3,2.7c-0.5,1-0.7,1.9-0.7,2.8v15.4
				c0,1.1-0.7,2-1.7,2.4l-0.6,0.2C178.7,110,178.5,110,178.2,110z"/>
		</g>
		<g>
			<path d="M195.3,106.1c-0.6,0-1.1-0.2-1.6-0.5c-0.6-0.5-0.9-1.2-0.9-2V92c0-1.5-0.6-3-1.7-4c-0.2-0.2-0.3-0.3-0.4-0.4
				c-0.9-0.5-1.5-1.5-1.4-2.5c0.1-1,0.9-1.9,1.9-2.1l294.6-67.4c0.6-0.1,1.3,0,1.9,0.3c0.6,0.4,1,0.9,1.1,1.6l4.1,18.3
				c0.3,1.3-0.5,2.7-1.9,3L195.9,106C195.7,106.1,195.5,106.1,195.3,106.1z M196.5,86.9c0.8,1.5,1.3,3.3,1.3,5.1v8.5l289.7-66
				l-3-13.4L196.5,86.9z"/>
		</g>
		<g>
			<path d="M129.2,142.8c-1.4,0-2.5-1.1-2.5-2.5l-0.3-18.7c0-0.7,0.2-1.3,0.7-1.8s1.1-0.7,1.8-0.8l15.4-0.2c0.7,0,1.3,0.3,1.8,0.7
				c0.5,0.5,0.7,1.1,0.7,1.8v18.7c0,1.4-1.1,2.5-2.5,2.5L129.2,142.8C129.2,142.8,129.2,142.8,129.2,142.8z M131.4,124.1l0.2,13.7
				l10.1-0.1v-13.7L131.4,124.1z"/>
		</g>
		<g>
			<path d="M178.7,142.2h-0.6c-1.4,0-2.5-1.1-2.5-2.5V121c0-1.4,1.1-2.5,2.5-2.5h0.6c1.4,0,2.5,1.1,2.5,2.5v18.7
				C181.2,141.1,180.1,142.2,178.7,142.2z"/>
		</g>
		<g>
			<path d="M195.3,142c-0.7,0-1.3-0.3-1.8-0.7c-0.5-0.5-0.7-1.1-0.7-1.8v-18.7c0-1.4,1.1-2.5,2.5-2.5l302.5-3.7c0,0,0,0,0,0
				c0.7,0,1.3,0.3,1.7,0.7c0.5,0.5,0.7,1.1,0.8,1.8l0.2,18.4c0,1.4-1.1,2.5-2.5,2.5L195.3,142C195.3,142,195.3,142,195.3,142z
				 M197.8,123.3V137l297.7-3.9l-0.1-13.4L197.8,123.3z"/>
		</g>
		<g>
			<path d="M153.2,199.3h-0.6c-6,0-10.8-4.8-10.8-10.8V97.8c0-0.7,0-1.5,0.3-2.4c1.1-4.9,5.5-8.4,10.5-8.4h0.6c3.4,0,6.4,1.5,8.4,4
				c1.7,2,2.4,4.1,2.4,6.8v90.7C164,194.5,159.2,199.3,153.2,199.3z M152.6,92c-2.7,0-5.1,1.9-5.7,4.6c0,0.1-0.1,0.3-0.1,0.4
				c0,0.1,0,0.5,0,0.8v90.7c0,3.2,2.6,5.8,5.8,5.8h0.6c3.2,0,5.8-2.6,5.8-5.8V97.8c0-1.5-0.4-2.5-1.3-3.6c0,0-0.1-0.1-0.1-0.2
				c-1-1.3-2.6-2.1-4.4-2.1H152.6z"/>
		</g>
		<g>
			<path d="M169.8,264.4c-6,0-10.8-4.8-10.8-10.8V94.3c0-0.9,0-1.9,0.3-2.8c1.4-4.8,5.6-8,10.5-8c2.9,0,5.7,1.2,7.6,3.3
				c0.1,0.1,0.1,0.1,0.2,0.2c0.1,0.1,0.2,0.1,0.2,0.2c1.8,1.9,2.8,4.4,2.8,7.1v159.3C180.6,259.6,175.8,264.4,169.8,264.4z
				 M169.8,88.5c-3.1,0-5.1,2.2-5.7,4.4c0,0,0,0.1,0,0.1c-0.1,0.2-0.1,0.8-0.1,1.3v159.3c0,3.2,2.6,5.8,5.8,5.8s5.8-2.6,5.8-5.8
				V94.3c0-1.3-0.4-2.5-1.2-3.4c-0.3-0.2-0.5-0.4-0.7-0.8C172.7,89.1,171.2,88.5,169.8,88.5z M173.8,90.2
				C173.8,90.2,173.8,90.2,173.8,90.2C173.8,90.2,173.8,90.2,173.8,90.2z M176,86.4C176,86.4,176,86.4,176,86.4
				C176,86.4,176,86.4,176,86.4z"/>
		</g>
		<g>
			<path d="M187,243.2c-6,0-10.8-4.8-10.8-10.8V92c0-1.7,0.4-3.3,1.3-5c0,0,0-0.1,0.1-0.1c2-3.6,5.5-5.7,9.5-5.7
				c2.4,0,4.5,0.7,6.2,2.1c0.4,0.2,0.7,0.5,0.8,0.7l0,0c0.1,0.1,0.2,0.1,0.3,0.2c2.2,1.8,3.4,4.6,3.4,7.7v140.4
				C197.8,238.4,193,243.2,187,243.2z M181.9,89.3c-0.5,1-0.7,1.8-0.7,2.7v140.4c0,3.2,2.6,5.8,5.8,5.8s5.8-2.6,5.8-5.8V92
				c0-1.1-0.3-2.7-1.5-3.8c-0.4-0.2-0.6-0.5-0.8-0.7l0,0c-0.1-0.1-0.2-0.1-0.3-0.2c-0.9-0.7-1.9-1.1-3.2-1.1
				C184.8,86.2,183,87.3,181.9,89.3z M190.7,87.6C190.7,87.6,190.7,87.6,190.7,87.6C190.7,87.6,190.7,87.6,190.7,87.6z M193.9,84
				C193.9,84,193.9,84,193.9,84C193.9,84,193.9,84,193.9,84z"/>
		</g>
	</g>
</g>
</svg>
