<?xml version="1.0" encoding="utf-8"?>
<!-- Generator: Adobe Illustrator 22.1.0, SVG Export Plug-In . SVG Version: 6.00 Build 0)  -->
<svg version="1.1" id="Layer_1" xmlns="http://www.w3.org/2000/svg" xmlns:xlink="http://www.w3.org/1999/xlink" x="0px" y="0px"
	 viewBox="0 0 512 512" style="enable-background:new 0 0 512 512;" xml:space="preserve">
<g>
	<g>
		<path d="M256.7,500.2c-65.5,0-127-25.5-173.3-71.7c-46.3-46.3-71.7-107.8-71.7-173.3c0-65.5,25.5-127,71.7-173.3
			c46.3-46.3,107.8-71.7,173.3-71.7c65.5,0,127,25.5,173.3,71.7c46.3,46.3,71.7,107.8,71.7,173.3c0,65.5-25.5,127-71.7,173.3
			C383.7,474.7,322.2,500.2,256.7,500.2z M256.7,15.2c-132.3,0-240,107.7-240,240c0,132.3,107.7,240,240,240
			c132.3,0,240-107.7,240-240C496.7,122.9,389,15.2,256.7,15.2z"/>
	</g>
	<g>
		<path d="M325.9,320.9c-29,0-52.6-23.6-52.6-52.6c0-29,23.6-52.6,52.6-52.6c7.7,0,15.1,1.6,22.1,4.8c0.2,0,0.5,0.1,0.7,0.2
			c10.8,5.4,19.6,14.1,24.6,24.7c0.1,0.2,0.2,0.4,0.2,0.6c3.2,6.9,4.9,14.6,4.9,22.2C378.5,297.3,354.9,320.9,325.9,320.9z
			 M325.9,220.7c-26.2,0-47.6,21.4-47.6,47.6c0,26.2,21.4,47.6,47.6,47.6c26.2,0,47.6-21.4,47.6-47.6c0-7-1.6-14.1-4.7-20.5
			c-0.1-0.2-0.2-0.4-0.2-0.6c-4.5-9.2-12.2-16.9-21.7-21.7c-0.2,0-0.4-0.1-0.6-0.2C339.9,222.2,333,220.7,325.9,220.7z"/>
	</g>
</g>
</svg>
