<?xml version="1.0" encoding="utf-8"?>
<!-- Generator: Adobe Illustrator 22.1.0, SVG Export Plug-In . SVG Version: 6.00 Build 0)  -->
<svg version="1.1" id="Layer_1" xmlns="http://www.w3.org/2000/svg" xmlns:xlink="http://www.w3.org/1999/xlink" x="0px" y="0px"
	 viewBox="0 0 512 512" style="enable-background:new 0 0 512 512;" xml:space="preserve">
<g>
	<circle cx="202.5" cy="149.5" r="3.5"/>
	<circle cx="195.5" cy="193.5" r="3.5"/>
	<circle cx="213.5" cy="225.5" r="3.5"/>
	<circle cx="194.5" cy="250.5" r="3.5"/>
	<circle cx="165.5" cy="278.5" r="3.5"/>
	<circle cx="142.5" cy="309.5" r="3.5"/>
	<circle cx="135.5" cy="349.5" r="3.5"/>
	<circle cx="147.5" cy="387.5" r="3.5"/>
	<circle cx="180.5" cy="408.5" r="3.5"/>
	<circle cx="217.5" cy="415.5" r="3.5"/>
	<circle cx="251.5" cy="412.5" r="3.5"/>
	<circle cx="287.5" cy="390.5" r="3.5"/>
	<circle cx="325.5" cy="391.5" r="3.5"/>
	<circle cx="358.5" cy="382.5" r="3.5"/>
	<circle cx="393.5" cy="363.5" r="3.5"/>
	<circle cx="425.5" cy="324.5" r="3.5"/>
	<circle cx="441.5" cy="283.5" r="3.5"/>
	<circle cx="441.5" cy="246.5" r="3.5"/>
	<circle cx="428.5" cy="210.5" r="3.5"/>
	<circle cx="406.5" cy="188.5" r="3.5"/>
	<circle cx="379.5" cy="172.5" r="3.5"/>
	<circle cx="350.5" cy="169.5" r="3.5"/>
	<circle cx="346.5" cy="131.5" r="3.5"/>
	<circle cx="322.5" cy="114.5" r="3.5"/>
	<circle cx="291.5" cy="104.5" r="3.5"/>
	<circle cx="255.5" cy="108.5" r="3.5"/>
	<circle cx="224.5" cy="122.5" r="3.5"/>
</g>
</svg>
