<?xml version="1.0" encoding="utf-8"?>
<!-- Generator: Adobe Illustrator 22.1.0, SVG Export Plug-In . SVG Version: 6.00 Build 0)  -->
<svg version="1.1" id="Layer_1" xmlns="http://www.w3.org/2000/svg" xmlns:xlink="http://www.w3.org/1999/xlink" x="0px" y="0px"
	 viewBox="0 0 512 512" style="enable-background:new 0 0 512 512;" xml:space="preserve">
<g>
	<circle cx="270.5" cy="55.5" r="3.5"/>
	<circle cx="242.5" cy="82.5" r="3.5"/>
	<circle cx="216.5" cy="117.5" r="3.5"/>
	<circle cx="205.5" cy="154.5" r="3.5"/>
	<circle cx="205.5" cy="195.5" r="3.5"/>
	<circle cx="171.5" cy="210.5" r="3.5"/>
	<circle cx="142.5" cy="239.5" r="3.5"/>
	<circle cx="110.5" cy="281.5" r="3.5"/>
	<circle cx="89.5" cy="329.5" r="3.5"/>
	<circle cx="84.5" cy="377.5" r="3.5"/>
	<circle cx="84.5" cy="421.5" r="3.5"/>
	<circle cx="95.5" cy="466.5" r="3.5"/>
	<circle cx="135.5" cy="494.5" r="3.5"/>
	<circle cx="185.5" cy="494.5" r="3.5"/>
	<circle cx="226.5" cy="482.5" r="3.5"/>
	<circle cx="267.5" cy="456.5" r="3.5"/>
	<circle cx="295.5" cy="424.5" r="3.5"/>
	<circle cx="322.5" cy="390.5" r="3.5"/>
	<circle cx="342.5" cy="356.5" r="3.5"/>
	<circle cx="350.5" cy="320.5" r="3.5"/>
	<circle cx="345.5" cy="294.5" r="3.5"/>
	<circle cx="346.5" cy="268.5" r="3.5"/>
	<circle cx="371.5" cy="245.5" r="3.5"/>
	<circle cx="404.5" cy="215.5" r="3.5"/>
	<circle cx="422.5" cy="181.5" r="3.5"/>
	<circle cx="431.5" cy="134.5" r="3.5"/>
	<circle cx="427.5" cy="87.5" r="3.5"/>
	<circle cx="414.5" cy="43.5" r="3.5"/>
	<circle cx="385.5" cy="21.5" r="3.5"/>
	<circle cx="345.5" cy="17.5" r="3.5"/>
	<circle cx="307.5" cy="28.5" r="3.5"/>
</g>
</svg>
