<?xml version="1.0" encoding="utf-8"?>
<!-- Generator: Adobe Illustrator 22.1.0, SVG Export Plug-In . SVG Version: 6.00 Build 0)  -->
<svg version="1.1" id="Layer_1" xmlns="http://www.w3.org/2000/svg" xmlns:xlink="http://www.w3.org/1999/xlink" x="0px" y="0px"
	 viewBox="0 0 512 512" style="enable-background:new 0 0 512 512;" xml:space="preserve">
<g>
	<g>
		<path d="M185.2,459.2c-1.2,0-2.3-0.9-2.5-2.2c-0.2-1.4,0.8-2.6,2.1-2.8c27.8-3.8,60.1-25.6,88.7-59.9
			c25.2-30.3,41.4-63.5,40.5-82.8c-1.9-37.8,5.5-52.9,6.8-55.2c3.8-11.8,12-18.7,21.6-26.8c9.6-8.1,21.5-18.2,32.9-36.4
			c22-35.5,12.4-103.5,12.3-104.2c-0.2-1.4,0.7-2.6,2.1-2.8c1.4-0.2,2.6,0.7,2.8,2.1c0.4,2.9,10,70.5-13,107.6
			c-11.7,18.9-24,29.2-33.9,37.6c-9.4,8-16.9,14.2-20.2,24.8c-0.1,0.2-0.1,0.4-0.3,0.6c-0.1,0.1-8.2,14-6.2,52.7
			c1,20.4-15.7,55-41.6,86.2c-29.3,35.3-62.8,57.8-91.8,61.7C185.4,459.2,185.3,459.2,185.2,459.2z M323.1,257.3L323.1,257.3
			L323.1,257.3z"/>
	</g>
	<g>
		<path d="M302.8,383.1C302.8,383.1,302.8,383.1,302.8,383.1c-74.5-0.2-117.4-29.6-119.2-30.9c-1.1-0.8-1.4-2.3-0.6-3.5
			c0.8-1.1,2.3-1.4,3.5-0.6c0.4,0.3,43.5,29.8,116.4,29.9c1.4,0,2.5,1.1,2.5,2.5C305.3,382,304.2,383.1,302.8,383.1z"/>
	</g>
	<g>
		<path d="M281.9,413.7c0,0-0.1,0-0.1,0c-63.6-3.1-102.2-18.2-123.3-30.3c-23.2-13.3-31.1-25.8-31.5-26.4c-0.7-1.2-0.4-2.7,0.8-3.4
			c1.2-0.7,2.7-0.4,3.4,0.8l0,0c0.1,0.1,7.8,12.2,30.1,24.9C182,391,219.7,405.6,282,408.7c1.4,0.1,2.4,1.2,2.4,2.6
			C284.3,412.7,283.2,413.7,281.9,413.7z"/>
	</g>
	<g>
		<path d="M195.1,413.7c-0.9,0-1.8-0.5-2.3-1.4c-0.6-1.2-0.1-2.7,1.2-3.3c55.9-26.7,79.2-150.7,79.4-152c0.2-1.4,1.6-2.3,2.9-2
			c1.4,0.2,2.3,1.6,2,2.9c-0.1,0.3-6,32.2-18.9,67c-17.5,47.1-38.8,76.9-63.3,88.6C195.8,413.6,195.5,413.7,195.1,413.7z"/>
	</g>
</g>
</svg>
