<?xml version="1.0" encoding="utf-8"?>
<!-- Generator: Adobe Illustrator 22.1.0, SVG Export Plug-In . SVG Version: 6.00 Build 0)  -->
<svg version="1.1" id="Layer_1" xmlns="http://www.w3.org/2000/svg" xmlns:xlink="http://www.w3.org/1999/xlink" x="0px" y="0px"
	 viewBox="0 0 512 512" style="enable-background:new 0 0 512 512;" xml:space="preserve">
<g>
	<circle cx="56.5" cy="180.5" r="3.5"/>
	<circle cx="56.5" cy="226.3" r="3.5"/>
	<circle cx="56.5" cy="272.1" r="3.5"/>
	<circle cx="56.5" cy="317.9" r="3.5"/>
	<circle cx="56.5" cy="363.7" r="3.5"/>
	<circle cx="56.5" cy="411.8" r="3.5"/>
	<circle cx="104.6" cy="411.8" r="3.5"/>
	<circle cx="152.7" cy="411.8" r="3.5"/>
	<circle cx="200.8" cy="411.8" r="3.5"/>
	<circle cx="248.9" cy="411.8" r="3.5"/>
	<circle cx="297.1" cy="411.8" r="3.5"/>
	<circle cx="345.2" cy="411.8" r="3.5"/>
	<circle cx="393.3" cy="411.8" r="3.5"/>
	<circle cx="441.4" cy="411.8" r="3.5"/>
	<circle cx="489.5" cy="411.8" r="3.5"/>
	<circle cx="489.5" cy="364.5" r="3.5"/>
	<circle cx="489.5" cy="318.5" r="3.5"/>
	<circle cx="489.5" cy="272.5" r="3.5"/>
	<circle cx="489.5" cy="226.5" r="3.5"/>
	<circle cx="489.5" cy="180.5" r="3.5"/>
	<circle cx="435.4" cy="180.5" r="3.5"/>
	<circle cx="381.3" cy="180.5" r="3.5"/>
	<circle cx="327.1" cy="180.5" r="3.5"/>
	<circle cx="273" cy="180.5" r="3.5"/>
	<circle cx="218.9" cy="180.5" r="3.5"/>
	<circle cx="164.8" cy="180.5" r="3.5"/>
	<circle cx="110.6" cy="180.5" r="3.5"/>
</g>
</svg>
