<?xml version="1.0" encoding="utf-8"?>
<!-- Generator: Adobe Illustrator 22.1.0, SVG Export Plug-In . SVG Version: 6.00 Build 0)  -->
<svg version="1.1" id="Layer_1" xmlns="http://www.w3.org/2000/svg" xmlns:xlink="http://www.w3.org/1999/xlink" x="0px" y="0px"
	 viewBox="0 0 512 512" style="enable-background:new 0 0 512 512;" xml:space="preserve">
<style type="text/css">
	.st0{opacity:0.1;}
</style>
<g>
	<g>
		<path d="M387,168.5H56.1c-1.1,0-2-0.7-2.4-1.7c-0.3-1,0-2.1,0.8-2.8l119.5-91.8c1.6-1.3,3.1-3,4.4-5.1c0.6-1,1.8-1.4,2.9-1.1
			l163.8,51.8c0.8,0.3,1.4,0.9,1.6,1.7s0.1,1.7-0.5,2.3c-3.1,3.8-4.8,8.5-4.8,13.2c0,11.2,9.2,20.4,20.4,20.4c2.4,0,4.9-0.5,7.4-1.5
			c1.2-0.5,2.6,0,3.2,1.2c2.7,5.2,8.3,8.5,14.6,8.5c1.4,0,2.5,1.1,2.5,2.5S388.4,168.5,387,168.5z M63.5,163.5h309.5
			c-1.5-1.2-2.8-2.6-3.8-4.2c-2.4,0.8-4.8,1.1-7.2,1.1c-14,0-25.4-11.4-25.4-25.4c0-4.7,1.4-9.4,3.9-13.5L181.6,71.4
			c-1.3,1.9-2.8,3.4-4.5,4.8L63.5,163.5z"/>
	</g>
	<g>
		<path d="M489,168.5H387c-1.4,0-2.5-1.1-2.5-2.5s1.1-2.5,2.5-2.5c9.4,0,17.1-7.7,17.1-17.1v-2.1c0-0.7,0.3-1.4,0.9-1.9
			c1-0.8,2.3-1.9,3.2-3c0.7-0.8,1.7-1.1,2.7-0.8l78.9,25c1.2,0.4,1.9,1.5,1.7,2.8C491.3,167.6,490.2,168.5,489,168.5z M401,163.5
			h71.8l-62-19.6c-0.6,0.6-1.1,1.1-1.8,1.6v0.9C409.1,153.3,405.9,159.4,401,163.5z"/>
	</g>
	<g>
		<path d="M387,168.4c-8,0-15.3-4.3-19.3-11.3c-2-3.4-3-7.1-3-11c0-6.9,3.2-13.4,8.7-17.6c0.4-0.7,1.2-1.1,2.1-1.1h0.4
			c0,0,0.1,0,0.1,0c2.4-1.3,4.5-2.1,6.6-2.6c0.1,0,0.1,0,0.2,0c1.3-0.2,2.7-0.4,4.4-0.4c9.2,0,17.4,5.7,20.8,14.5
			c0.1,0.3,0.2,0.6,0.2,0.9v0.1l0.1,0.3c0.3,1.1,0.6,2.4,0.8,3.7c0,0.1,0,0.2,0,0.3v2.1C409.1,158.5,399.2,168.4,387,168.4z
			 M376.3,132.6c-4.2,3.2-6.6,8.2-6.6,13.5c0,3,0.8,5.9,2.4,8.5c3.1,5.4,8.8,8.8,14.9,8.8c9.4,0,17.1-7.7,17.1-17.1v-1.9
			c-0.1-1-0.4-2-0.7-3l-0.2-0.7c0-0.2-0.1-0.3-0.1-0.5c-2.7-6.6-9-10.9-16-10.9c-1.3,0-2.4,0.2-3.5,0.4c-1.9,0.5-3.8,1.3-6.2,2.6
			C377.2,132.5,376.7,132.6,376.3,132.6z"/>
	</g>
	<g>
		<path d="M406.6,146.7c-1.2,0-2.3-0.9-2.5-2.2c-0.1-0.7-0.3-1.5-0.4-2.2c-0.1-0.7-0.3-1.3-0.4-1.9c-0.2-1.3,0.6-2.5,1.9-2.8
			c1.3-0.3,2.6,0.4,2.9,1.7c0.4,1.4,0.7,2.8,0.9,4.4c0,0.1,0,0.2,0,0.3v0.2c0,1.3-1,2.4-2.3,2.5
			C406.7,146.7,406.7,146.7,406.6,146.7z"/>
	</g>
	<g>
		<g>
			<path d="M37,178.3c-6.6,0-12.9-3.1-16.8-8.3c-3.4-4.4-4.9-10.2-4.1-15.8c0.8-5.6,3.7-10.5,8.1-13.9l127-97.8
				c4.5-3.4,10.3-4.9,15.9-4.2c5.6,0.8,10.5,3.7,13.9,8.1c5,6.4,5.8,15.6,1.9,22.9c-1.3,2.5-3.2,4.7-5.7,6.6L57.6,168l-7.7,5.8
				C46.4,176.6,41.7,178.3,37,178.3z M164.1,43.2c-3.6,0-7.1,1.2-9.9,3.3l-127,97.8c-3.4,2.6-5.6,6.3-6.2,10.6
				c-0.6,4.3,0.6,8.7,3.2,12.1c3,4,7.8,6.3,12.8,6.3c3.6,0,7.1-1.3,9.8-3.4c0,0,0.1,0,0.1-0.1l7.7-5.8l119.5-92
				c1.9-1.5,3.3-3.1,4.3-5c0,0,0,0,0,0c3-5.5,2.4-12.6-1.5-17.5c-2.6-3.4-6.3-5.6-10.6-6.2C165.6,43.2,164.9,43.2,164.1,43.2z"/>
		</g>
	</g>
	<g>
		<path d="M406.4,146.7c-0.3,0-0.6-0.1-0.9-0.2c-0.9-0.3-1.5-1.1-1.6-2c-0.1-1.2-0.4-2.2-0.7-3.4l-0.2-0.9
			c-2.5-6.7-8.9-11.1-16.1-11.1c-1.1,0-2.6,0.2-3.6,0.4c-1.2,0.2-2.4-0.5-2.8-1.7c-0.8-2.4-2.3-4.8-4.7-7.4c-0.7-0.8-0.9-2-0.4-2.9
			c3.9-7.1,11.4-11.5,19.5-11.5c12.5,0.2,22.2,10,22.2,22.3c0,5.2-2,10.4-5.4,14.4c-1.1,1.3-2.4,2.4-3.8,3.6
			C407.5,146.5,407,146.7,406.4,146.7z M386.9,124c9.3,0,17.7,5.8,20.9,14.6c0,0.1,0.1,0.2,0.1,0.3l0.1,0.5c0,0,0,0,0,0
			c2.7-3.1,4.2-7.1,4.2-11.1c0-9.5-7.6-17.1-17.2-17.3c-5.7,0-11,2.8-14.2,7.4c1.6,2,2.9,3.9,3.7,5.8
			C385.3,124.1,386.2,124,386.9,124z"/>
	</g>
	<g>
		<path d="M361.5,160.2c-14,0-25.4-11.4-25.4-25.4c0-5.8,2.1-11.4,5.9-16.3c4.9-5.8,11.9-9.1,19.5-9.1c6.7,0,13.2,2.8,18,7.7
			c2.7,2.7,4.7,6,5.8,9.3c0.2,0.7,0.1,1.5-0.2,2.1c-0.4,0.6-1,1-1.7,1.2c-1.9,0.3-3.8,1.1-6.2,2.6c-0.1,0.1-0.2,0.1-0.4,0.2
			c-4.5,3.2-7.1,8.4-7.1,13.9c0,3.3,0.8,6.1,2.3,8.4c0.4,0.6,0.5,1.4,0.3,2.1c-0.2,0.7-0.8,1.3-1.5,1.6
			C368.6,159.2,365.2,160.2,361.5,160.2z M361.5,114.4c-6.1,0-11.7,2.6-15.6,7.2c-3.2,4-4.8,8.5-4.8,13.2c0,11.2,9.2,20.4,20.4,20.4
			c1.7,0,3.3-0.3,4.7-0.6c-1.1-2.5-1.6-5.3-1.6-8.4c0-6.9,3.2-13.4,8.7-17.6c0.4-0.6,1-1,1.8-1.1c1.6-0.9,3-1.6,4.4-2.1
			c-0.9-1.7-2.1-3.4-3.6-4.8C372.1,116.6,366.8,114.4,361.5,114.4z"/>
	</g>
	<g class="st0">
		<g>
			<path d="M37,178.3c-3.5,0-7-0.9-10.1-2.6c-2.5-1.3-4.7-3.2-6.6-5.7c-3.4-4.5-4.9-10.2-4.1-15.9c0.8-5.6,3.7-10.5,8.1-13.9
				l127-97.8c4.5-3.4,10.3-4.9,15.9-4.2c5.6,0.8,10.5,3.7,13.9,8.1c4.9,6.4,5.6,15.6,1.8,22.9c-1.3,2.5-3.2,4.7-5.7,6.6L57.6,168
				l-7.7,5.8C46.4,176.6,41.7,178.3,37,178.3z M164.2,43.2c-3.6,0-7.1,1.2-9.9,3.3l-127,97.8c-3.4,2.6-5.6,6.3-6.2,10.6
				c-0.6,4.3,0.6,8.7,3.2,12.1c1.5,1.9,3.1,3.3,5,4.3c2.4,1.3,5.1,2,7.7,2c3.6,0,7.1-1.3,9.8-3.4c0,0,0.1,0,0.1-0.1l7.7-5.8
				l119.5-92c1.9-1.5,3.3-3.1,4.3-5c0,0,0,0,0,0c2.9-5.5,2.4-12.6-1.4-17.5c-2.6-3.4-6.3-5.6-10.6-6.2
				C165.7,43.2,165,43.2,164.2,43.2z"/>
		</g>
	</g>
	<g>
		<g>
			<path d="M481,331.5H64c-1.4,0-2.5-1.1-2.5-2.5s1.1-2.5,2.5-2.5h417c1.4,0,2.5,1.1,2.5,2.5S482.4,331.5,481,331.5z"/>
		</g>
		<g>
			<path d="M481,251.6H64c-1.4,0-2.5-1.1-2.5-2.5s1.1-2.5,2.5-2.5h417c1.4,0,2.5,1.1,2.5,2.5S482.4,251.6,481,251.6z"/>
		</g>
		<g>
			<path d="M481,251.6H64c-1.4,0-2.5-1.1-2.5-2.5s1.1-2.5,2.5-2.5h417c1.4,0,2.5,1.1,2.5,2.5S482.4,251.6,481,251.6z"/>
		</g>
		<g>
			<path d="M481,331.3H64c-1.4,0-2.5-1.1-2.5-2.5s1.1-2.5,2.5-2.5h417c1.4,0,2.5,1.1,2.5,2.5S482.4,331.3,481,331.3z"/>
		</g>
	</g>
</g>
</svg>
