<?xml version="1.0" encoding="utf-8"?>
<!-- Generator: Adobe Illustrator 22.1.0, SVG Export Plug-In . SVG Version: 6.00 Build 0)  -->
<svg version="1.1" id="Layer_1" xmlns="http://www.w3.org/2000/svg" xmlns:xlink="http://www.w3.org/1999/xlink" x="0px" y="0px"
	 viewBox="0 0 512 512" style="enable-background:new 0 0 512 512;" xml:space="preserve">
<g>
	<g>
		<g>
			<path d="M483.9,331.1c-9.3,0-18-4.1-23.8-11.2c-0.9-1.1-0.7-2.6,0.4-3.5c1.1-0.9,2.6-0.7,3.5,0.4c4.9,6,12.2,9.4,20,9.4
				c4.1,0,7.7-0.8,10.9-2.4c12.8-6,18.2-21.5,12.2-34.5l-0.2-0.3c-7.2-14.5-46.3-90.1-115-154.4c-54.4-51-136.9-93.9-152.9-102
				l-0.6-0.3c-6.1-3-13.1-3.5-19.6-1.3c-6.5,2.2-11.8,6.8-14.8,13c-6.3,12.7-1,28.2,11.7,34.5c1.2,0.6,1.7,2.1,1.1,3.3
				c-0.6,1.2-2.1,1.7-3.3,1.1c-15.2-7.5-21.4-25.9-13.9-41.1c3.6-7.4,9.9-12.9,17.7-15.5c7.8-2.6,16.1-2.1,23.5,1.6l0.6,0.3
				c16.1,8.1,99.1,51.4,154.1,102.8C464.5,195.7,504,272,511.3,286.6l0.2,0.4c7.2,15.6,0.7,34-14.5,41.2
				C493.2,330.1,488.8,331.1,483.9,331.1z"/>
		</g>
	</g>
	<g>
		<path d="M349.1,316.9c-19,0-34.4-15.4-34.4-34.4c0-19,15.4-34.4,34.4-34.4c19,0,34.4,15.4,34.4,34.4
			C383.5,301.5,368.1,316.9,349.1,316.9z M349.1,253.1c-16.2,0-29.4,13.2-29.4,29.4c0,16.2,13.2,29.4,29.4,29.4
			c16.2,0,29.4-13.2,29.4-29.4C378.5,266.3,365.3,253.1,349.1,253.1z"/>
	</g>
	<g>
		<path d="M208.4,246.4c-18.6,0-35.6-10.8-43.3-27.5c-0.6-1.3,0-2.7,1.2-3.3c1.3-0.6,2.7,0,3.3,1.2c6.9,14.9,22.1,24.5,38.7,24.5
			c23.7,0,43-19.3,43-43s-19.3-43-43-43c-4.3,0-8.6,0.7-13.7,2.4c-1.3,0.4-2.7-0.3-3.1-1.6c-0.4-1.3,0.3-2.7,1.6-3.1
			c5.7-1.8,10.4-2.6,15.3-2.6c26.5,0,48,21.5,48,48S234.9,246.4,208.4,246.4z"/>
	</g>
	<g>
		<path d="M116.9,437.3c-18.3,0-33.2-14.9-33.2-33.2c0-18.3,14.9-33.2,33.2-33.2c18.3,0,33.2,14.9,33.2,33.2
			C150.1,422.4,135.2,437.3,116.9,437.3z M116.9,375.9c-15.5,0-28.2,12.7-28.2,28.2c0,15.5,12.7,28.2,28.2,28.2
			c15.5,0,28.2-12.7,28.2-28.2C145.1,388.6,132.4,375.9,116.9,375.9z"/>
	</g>
	<g>
		<path d="M226,403.7c-0.6,0-1.3-0.2-1.7-0.7c-9.1-8.8-14.1-20.6-14.1-33c0-25.1,20.4-45.5,45.5-45.5c25,0,45.3,20.5,45.3,45.7v2.2
			c0,1.4-1.1,2.5-2.5,2.5s-2.5-1.1-2.5-2.5v-2.2c0-22.4-18.1-40.7-40.3-40.7c-22.3,0-40.5,18.2-40.5,40.5c0,11.1,4.5,21.5,12.5,29.4
			c1,1,1,2.5,0,3.5C227.3,403.4,226.6,403.7,226,403.7z"/>
	</g>
</g>
</svg>
