<?xml version="1.0" encoding="utf-8"?>
<!-- Generator: Adobe Illustrator 22.1.0, SVG Export Plug-In . SVG Version: 6.00 Build 0)  -->
<svg version="1.1" id="Layer_1" xmlns="http://www.w3.org/2000/svg" xmlns:xlink="http://www.w3.org/1999/xlink" x="0px" y="0px"
	 viewBox="0 0 512 512" style="enable-background:new 0 0 512 512;" xml:space="preserve">
<g>
	<circle cx="210.5" cy="90.5" r="3.5"/>
	<circle cx="190.5" cy="135.1" r="3.5"/>
	<circle cx="170.5" cy="179.6" r="3.5"/>
	<circle cx="150.5" cy="224.2" r="3.5"/>
	<circle cx="130.5" cy="268.7" r="3.5"/>
	<circle cx="110.5" cy="313.3" r="3.5"/>
	<circle cx="90.5" cy="357.8" r="3.5"/>
	<circle cx="70.5" cy="402.4" r="3.5"/>
	<circle cx="50.5" cy="446.9" r="3.5"/>
	<circle cx="30.5" cy="491.5" r="3.5"/>
	<circle cx="72.5" cy="475.2" r="3.5"/>
	<circle cx="114.5" cy="458.9" r="3.5"/>
	<circle cx="156.5" cy="442.6" r="3.5"/>
	<circle cx="198.5" cy="426.3" r="3.5"/>
	<circle cx="240.5" cy="410" r="3.5"/>
	<circle cx="282.5" cy="393.7" r="3.5"/>
	<circle cx="324.5" cy="377.4" r="3.5"/>
	<circle cx="366.5" cy="361.1" r="3.5"/>
	<circle cx="408.5" cy="344.8" r="3.5"/>
	<circle cx="450.5" cy="328.5" r="3.5"/>
	<circle cx="436.5" cy="288.5" r="3.5"/>
	<circle cx="406.5" cy="250.5" r="3.5"/>
	<circle cx="375.5" cy="216.5" r="3.5"/>
	<circle cx="341.5" cy="184.5" r="3.5"/>
	<circle cx="307.5" cy="156.5" r="3.5"/>
	<circle cx="272.5" cy="127.5" r="3.5"/>
	<circle cx="236.5" cy="105.5" r="3.5"/>
</g>
</svg>
