<?xml version="1.0" encoding="utf-8"?>
<!-- Generator: Adobe Illustrator 22.1.0, SVG Export Plug-In . SVG Version: 6.00 Build 0)  -->
<svg version="1.1" id="Layer_1" xmlns="http://www.w3.org/2000/svg" xmlns:xlink="http://www.w3.org/1999/xlink" x="0px" y="0px"
	 viewBox="0 0 512 512" style="enable-background:new 0 0 512 512;" xml:space="preserve">
<g>
	<circle cx="81.5" cy="127.9" r="3.5"/>
	<circle cx="81.5" cy="151.5" r="3.5"/>
	<circle cx="112.5" cy="165.5" r="3.5"/>
	<circle cx="119.4" cy="211.8" r="3.5"/>
	<circle cx="126.2" cy="258.1" r="3.5"/>
	<circle cx="133.1" cy="304.4" r="3.5"/>
	<circle cx="139.9" cy="350.6" r="3.5"/>
	<circle cx="146.8" cy="396.9" r="3.5"/>
	<circle cx="153.6" cy="443.2" r="3.5"/>
	<circle cx="160.5" cy="489.5" r="3.5"/>
	<circle cx="213" cy="489.5" r="3.5"/>
	<circle cx="265.5" cy="489.5" r="3.5"/>
	<circle cx="318" cy="489.5" r="3.5"/>
	<circle cx="370.5" cy="489.5" r="3.5"/>
	<circle cx="376.5" cy="442.2" r="3.5"/>
	<circle cx="382.5" cy="394.9" r="3.5"/>
	<circle cx="388.5" cy="347.6" r="3.5"/>
	<circle cx="394.5" cy="300.4" r="3.5"/>
	<circle cx="400.5" cy="253.1" r="3.5"/>
	<circle cx="406.5" cy="205.8" r="3.5"/>
	<circle cx="412.5" cy="158.5" r="3.5"/>
	<circle cx="445.5" cy="157.5" r="3.5"/>
	<circle cx="452.5" cy="127.9" r="3.5"/>
	<circle cx="411.3" cy="127.9" r="3.5"/>
	<circle cx="370.1" cy="127.9" r="3.5"/>
	<circle cx="328.8" cy="127.9" r="3.5"/>
	<circle cx="287.6" cy="127.9" r="3.5"/>
	<circle cx="246.4" cy="127.9" r="3.5"/>
	<circle cx="205.2" cy="127.9" r="3.5"/>
	<circle cx="163.9" cy="127.9" r="3.5"/>
	<circle cx="122.7" cy="127.9" r="3.5"/>
</g>
</svg>
