<?xml version="1.0" encoding="utf-8"?>
<!-- Generator: Adobe Illustrator 22.1.0, SVG Export Plug-In . SVG Version: 6.00 Build 0)  -->
<svg version="1.1" id="Layer_1" xmlns="http://www.w3.org/2000/svg" xmlns:xlink="http://www.w3.org/1999/xlink" x="0px" y="0px"
	 viewBox="0 0 512 512" style="enable-background:new 0 0 512 512;" xml:space="preserve">
<g>
	<g>
		<g>
			<path d="M428.5,117.1c-1.4,0-2.5-1.1-2.5-2.5c0-4.3-1.6-8.4-4.5-11.6c-0.5-0.5-0.7-1.3-0.6-2c0.1-0.7,0.5-1.4,1.1-1.8
				c4.3-2.8,7.1-7.4,7.5-12.4c0-8.4-6.6-14.9-15-14.9c-2.8,0-5.4,0.6-7.3,1.8c-0.6,0.4-1.3,0.5-2,0.3c-0.7-0.2-1.2-0.6-1.6-1.2
				c-1.5-2.7-4.2-4.6-7-4.9c-0.7-0.1-1.3-0.4-1.7-1s-0.6-1.3-0.5-1.9c0.2-0.9,0.4-2.4,0.4-3.6c0-8.4-6.6-15-15-15
				c-2.7,0-5.1,0.6-7.4,1.9c-1.2,0.7-2.7,0.2-3.4-0.9c-1.8-3.1-5-5-8.4-5c-3.8,0-7.2,2.1-8.7,5.4c5.8,4.2,9.3,11,9.3,18.3
				c0,6.4-2.7,12.4-7.3,16.7c2.6,1.8,4.8,4.1,6.4,6.9c0.3,0,0.7,0,1,0c1.4,0,2.6,0.1,3.7,0.4c2.4-2.4,5.9-3.7,9.6-3.7
				c7.8,0,14.2,6.4,14.2,14.2c0,5.6-3.5,10.8-8.8,13.1c-1.3,0.5-2.7,0-3.3-1.3c-0.5-1.3,0-2.7,1.3-3.3c3.5-1.5,5.8-4.9,5.8-8.5
				c0-5-4.2-9.2-9.2-9.2c-2.8,0-5.4,1.2-6.9,3.2c-0.7,1-2.1,1.3-3.2,0.7c-0.7-0.4-1.8-0.6-3.2-0.6c-0.8,0-1.2,0-1.9,0.1
				c-1.1,0.3-2.3-0.3-2.8-1.4c-1.8-3.7-4.6-6.5-8.2-8.1c-0.9-0.4-1.4-1.2-1.5-2.1c-0.1-0.9,0.4-1.8,1.2-2.3
				c5.1-3.2,8.1-8.8,8.1-14.9c0-6.4-3.2-12-8.6-15.1c-1-0.6-1.4-1.7-1.2-2.8c1.6-6.3,7.4-10.8,14.1-10.8c4.4,0,8.6,2.1,11.4,5.5
				c2.4-1,5-1.5,7.8-1.5c11.2,0,20,8.8,20,20c0,0.7,0,1.4-0.1,2c2.7,0.8,5.1,2.6,7,4.9c2.3-0.9,5-1.5,7.7-1.5c11.2,0,20,8.8,20,20
				c0,0.1,0,0.1,0,0.2c-0.4,5.7-3.1,11-7.5,14.7c2.6,3.8,4,8.2,4,12.8C431,116,429.9,117.1,428.5,117.1z"/>
		</g>
		<g>
			<path d="M116.7,114.8c-0.8,0-1.6-0.4-2.1-1.1c-2-2.9-3.4-6.2-4.3-9.4C99,103.1,90.1,93.4,90.1,81.8c0-12,9.4-21.8,21.2-22.6
				c2.2-5.4,7.6-9.1,13.5-9.1c4.6,0,8.9,2.1,11.5,5.5c1.3-0.5,2.6-0.9,3.8-1.1c-1.2-2.7-1.8-5.6-1.8-8.7c0-12,9.4-21.8,21.2-22.6
				c2.2-5.4,7.6-9.1,13.5-9.1c4.6,0,8.8,2.1,11.5,5.5c2.4-1,5.2-1.5,7.7-1.5c2.3,0,4.6,0.4,7,1.2c0.9,0.3,1.5,1.1,1.6,2
				s-0.2,1.8-1,2.4c-4.1,3.1-6.5,8.2-6.5,13.7c0,9.7,7.9,17.6,17.6,17.6c5.1,0,10.1-2.3,13.6-6.4c0.7-0.9,2-1.1,3-0.6
				c2,1,4.2,1.5,6.4,1.5c8.4,0,15-6.6,15-15c0-5.1-2.5-9.7-6.6-12.5c-0.7-0.5-1.1-1.2-1.1-2c0-0.8,0.4-1.6,1-2.1
				c1.9-1.4,4.2-2.6,7-3.4c2.7-6,8.8-9.9,15.5-9.9c6.3,0,12.2,3.6,15.1,9.2c9.9,0.8,17.7,8.9,18.2,19c2.7-3.1,6.7-5.1,11-5.1
				c4.6,0,8.8,2.1,11.5,5.5c2.5-1,5.2-1.5,7.7-1.5c8.6,0,16.4,5.8,19,14.2c0.3,0.9,0,1.9-0.6,2.5c-0.7,0.7-1.6,0.9-2.5,0.6
				c-2.1-0.7-4-1-5.8-1c-5.1,0-10.1,2.3-13.6,6.4c-0.7,0.9-2,1.1-3,0.6c-2-1-4.2-1.5-6.4-1.5c-8.3,0-15,6.7-15,15s6.6,15,14.8,15
				c1,0,1.8,0.6,2.2,1.4c0.4,0.6,0.5,1.1,0.5,1.5c0,1.3-0.9,2.3-2.2,2.5c-7.5,0.9-13.1,7.3-13.1,14.8c0,2.7,0.6,5.2,1.7,7.2
				c0.7,1.2,0.2,2.7-1,3.4c-1.2,0.7-2.7,0.2-3.4-1c-1.5-2.8-2.3-6.1-2.3-9.6c0-7.1,3.8-13.4,9.5-17c-6.9-3.1-11.7-10.1-11.7-18.2
				c0-11,9-20,20-20c2.3,0,4.7,0.4,6.9,1.3c4.4-4.3,10.1-6.8,16.1-6.8c0.7,0,1.4,0,2.1,0.1c-2.8-3.9-7.3-6.4-12.1-6.4
				c-2.5,0-5.2,0.7-7.4,1.9c-0.6,0.3-1.3,0.4-1.9,0.2c-0.6-0.2-1.2-0.6-1.5-1.2c-1.6-3-4.8-4.9-8.4-4.9c-4.4,0-8.3,3-9.3,7.2
				c-0.3,1.1-1.3,1.9-2.4,1.9H297c-0.5,0-1.1,0-1.5,0.1c-0.9,0.3-1.9,0-2.5-0.7s-0.8-1.7-0.5-2.6c0.5-1.3,0.7-2.8,0.7-4.9
				c0-8.3-6.6-15-14.8-15c-1,0-1.9-0.6-2.3-1.5c-1.9-4.5-6.4-7.6-11.2-7.6c-5.1,0-9.6,3.2-11.4,7.9c-0.3,0.8-0.9,1.4-1.7,1.6
				c-1.3,0.3-2.5,0.8-3.6,1.2c3.7,3.7,5.9,8.8,5.9,14.2c0,11.2-8.8,20-20,20c-2.3,0-4.7-0.4-6.9-1.3c-4.4,4.3-10.1,6.8-16.1,6.8
				c-12.5,0-22.6-10.1-22.6-22.6c0-5.3,1.8-10.4,5-14.3c-2.8-0.2-6,0.5-8.6,1.9c-0.6,0.3-1.3,0.4-1.9,0.2c-0.6-0.2-1.2-0.6-1.5-1.2
				c-1.6-3-4.8-4.9-8.4-4.9c-4.2,0-8.2,3.1-9.3,7.2c-0.3,1.1-1.3,1.9-2.4,1.9H161c-9.7,0-17.6,7.9-17.6,17.6c0,3.6,1,6.7,2.8,9.4
				c0.5,0.8,0.6,1.8,0.2,2.6c-0.4,0.8-1.3,1.4-2.2,1.4H144c-2.4,0-4.9,0.7-7.5,1.9c-1.2,0.6-2.7,0.1-3.3-1.1c-1.6-3-4.8-4.9-8.4-4.9
				c-4.4,0-8.2,3-9.3,7.2c-0.3,1.1-1.3,1.9-2.4,1.9h-0.4c-9.7,0-17.6,7.9-17.6,17.6c0,9.5,7.7,17.4,17.2,17.6c1.2,0,2.2,0.9,2.4,2
				c0.6,3.2,2,6.5,4,9.5c0.8,1.1,0.5,2.7-0.7,3.5C117.7,114.7,117.2,114.8,116.7,114.8z M317.7,86C317.7,86,317.7,86,317.7,86
				C317.7,86,317.7,86,317.7,86z M317.7,86C317.7,86,317.7,86,317.7,86C317.7,86,317.7,86,317.7,86z M191.4,111.8
				c-1.2,0-2.3-0.9-2.5-2.2c-0.2-1.4,0.8-2.6,2.2-2.8c7.2-0.9,12.8-7.2,13.1-14.9c0-8.2-6.7-14.9-15-14.9c-1.2,0-2.4,0.2-3.4,0.4
				c-1.2,0.2-2.5-0.5-2.8-1.7c-1.7-5.7-7.1-9.7-13.1-9.7c-7.6,0-13.7,6.1-13.7,13.7V80c0,1.2-0.9,2.3-2.1,2.5
				c-7.7,1.3-13.5,7.8-14.1,15.8c-0.1,1.4-1.3,2.4-2.7,2.3c-1.4-0.1-2.4-1.3-2.3-2.7c0.7-9.6,7.3-17.5,16.3-19.9
				c0.8-9.6,8.9-17.1,18.6-17.1c7.4,0,14.2,4.5,17.1,11.2c0.7-0.1,1.4-0.1,2.2-0.1c11,0,20,9,20,20c0,0,0,0.1,0,0.1
				c-0.5,10.1-7.8,18.4-17.5,19.7C191.6,111.8,191.5,111.8,191.4,111.8z"/>
		</g>
		<g>
			<path d="M211,60.4c-12.5,0-22.6-10.1-22.6-22.6c0-7,3.2-13.6,8.4-17.7c2.4-2,5.1-3.4,8.1-4.2c2.7-5.9,8.9-9.9,15.5-9.9
				c6.5,0,12.3,3.5,15.3,9.2c3.4,0.3,6.6,1.4,9.3,3.3c5.4,3.4,8.9,9.8,8.9,16.4c0,11.2-8.8,20-20,20c-2.3,0-4.7-0.4-6.9-1.3
				C222.7,57.9,217,60.4,211,60.4z M220.5,11.1c-5,0-9.7,3.2-11.4,7.9c-0.3,0.8-1,1.4-1.8,1.6c-2.9,0.6-5.2,1.7-7.3,3.5
				c0,0-0.1,0-0.1,0.1c-4.1,3.1-6.5,8.2-6.5,13.7c0,9.7,7.9,17.6,17.6,17.6c5.1,0,10.1-2.3,13.6-6.4c0.7-0.9,2-1.1,3-0.6
				c2,1,4.2,1.5,6.4,1.5c8.4,0,15-6.6,15-15c0-4.8-2.7-9.7-6.6-12.2c-2.3-1.6-5.3-2.5-8.2-2.5c-1,0-1.9-0.6-2.3-1.5
				C230,14.1,225.5,11.1,220.5,11.1z"/>
		</g>
		<g>
			<path d="M378.6,113.7c-1,0-2-0.6-2.3-1.6c-0.5-1.3,0.1-2.7,1.4-3.2c3.4-1.3,5.7-4.6,6.1-8.6c-0.1-4.9-4.2-9.1-9.2-9.1
				c-2.8,0-5.2,1.1-7,3.3c-0.7,0.8-1.8,1.1-2.8,0.8c-1.2-0.5-2.5-0.7-3.5-0.7c-0.7,0-1.3,0-1.7,0.1c-1.2,0.3-2.4-0.2-2.9-1.3
				c-1.8-3.5-4.7-6.4-8.3-8.2c-0.8-0.4-1.4-1.2-1.4-2.1c-0.1-0.9,0.4-1.8,1.1-2.3c5.1-3.5,8.2-9,8.2-14.9c0-6.2-3.3-12-8.5-15.2
				c0,0-0.1-0.1-0.1-0.1c-1.1-0.8-2.3-1.3-3.3-1.7c-2.1-0.7-4-1-5.9-1c-5.1,0-10.1,2.3-13.6,6.4c-0.7,0.9-2,1.1-3,0.6
				c-2-1-4.2-1.5-6.4-1.5c-8.3,0-15,6.7-15,15s6.6,15,14.8,15c1,0,1.8,0.6,2.2,1.4c0.4,0.6,0.5,1.1,0.5,1.5c0,1.3-0.9,2.3-2.2,2.5
				c-7.5,0.9-13.1,7.3-13.1,14.8c0,1.9,0.2,3.3,0.7,4.6c0.5,1.3-0.1,2.7-1.4,3.2c-1.3,0.5-2.7-0.1-3.2-1.4c-0.8-1.9-1.1-3.8-1.1-6.4
				c0-7.1,3.8-13.4,9.5-17c-6.9-3.1-11.7-10.1-11.7-18.2c0-11,9-20,20-20c2.3,0,4.7,0.4,6.9,1.3c4.4-4.3,10.1-6.8,16.1-6.8
				c2.3,0,4.8,0.4,7.4,1.2c1.5,0.5,3.1,1.3,4.6,2.3c6.7,4.1,10.8,11.5,10.8,19.4c0,6.3-2.7,12.3-7.4,16.7c2.6,1.8,4.8,4.2,6.5,6.9
				c0.3,0,0.7,0,1,0c1.3,0,2.6,0.2,3.7,0.5c2.6-2.5,5.9-3.8,9.6-3.8c7.8,0,14.2,6.4,14.2,14.2c0,0.1,0,0.1,0,0.2
				c-0.5,5.9-4,10.9-9.3,12.9C379.2,113.6,378.9,113.7,378.6,113.7z M317.7,86C317.7,86,317.7,86,317.7,86
				C317.7,86,317.7,86,317.7,86z"/>
		</g>
		<g>
			<path d="M191.4,111.8c-1.2,0-2.3-0.9-2.5-2.2c-0.2-1.4,0.8-2.6,2.2-2.8c7.2-0.9,12.8-7.2,13.1-14.9c0-8.2-6.7-14.9-15-14.9
				c-1.2,0-2.4,0.2-3.4,0.4c-1.2,0.2-2.5-0.5-2.8-1.7c-1.7-5.7-7.1-9.7-13.1-9.7c-7.6,0-13.7,6.1-13.7,13.7V80c0,1.2-0.8,2.2-2,2.5
				C146,84,140,91.3,140,99.7c0,1.4-1.1,2.5-2.5,2.5s-2.5-1.1-2.5-2.5c0-10.1,6.7-18.9,16.3-21.7c0.8-9.6,8.9-17.1,18.6-17.1
				c7.4,0,14.2,4.5,17.1,11.2c0.7-0.1,1.4-0.1,2.2-0.1c11,0,20,9,20,20c0,0,0,0.1,0,0.1c-0.5,10.1-7.8,18.4-17.5,19.7
				C191.6,111.8,191.5,111.8,191.4,111.8z"/>
		</g>
		<g>
			<path d="M379.1,113.9c-1,0-1.9-0.6-2.3-1.5c-0.5-1.3,0-2.7,1.3-3.3c3.5-1.5,5.8-4.9,5.8-8.5c0-5-4.2-9.2-9.2-9.2
				c-2.8,0-5.4,1.2-6.9,3.2c-0.7,1-2.1,1.3-3.2,0.7c-0.7-0.4-1.8-0.6-3.2-0.6c-0.8,0-1.2,0-1.9,0.1c-1.1,0.3-2.3-0.3-2.8-1.4
				c-1.8-3.7-4.6-6.5-8.2-8.1c-0.9-0.4-1.4-1.2-1.5-2.1c-0.1-0.9,0.4-1.8,1.2-2.3c5.1-3.2,8.1-8.8,8.1-14.9c0-6.4-3.2-12-8.6-15.1
				c-1-0.6-1.4-1.7-1.2-2.8c1.6-6.3,7.4-10.8,14.1-10.8c4.4,0,8.6,2.1,11.4,5.5c2.4-1,5-1.5,7.8-1.5c11.2,0,20,8.8,20,20
				c0,0.7,0,1.4-0.1,2c2.7,0.8,5.1,2.6,7,4.9c2.3-0.9,5-1.5,7.7-1.5c11.2,0,20,8.8,20,20c0,0.1,0,0.1,0,0.2
				c-0.4,5.7-3.2,11.1-7.6,14.8c1.5,2.2,3,5.2,3.6,8.6c0.2,1.4-0.7,2.7-2,2.9c-1.4,0.2-2.7-0.7-2.9-2c-0.6-3.5-2.5-6.5-4.1-8.3
				c-0.4-0.6-0.6-1.3-0.5-2c0.1-0.7,0.5-1.3,1.1-1.7c4.3-2.8,7.1-7.4,7.5-12.4c0-8.4-6.6-14.9-15-14.9c-2.8,0-5.4,0.6-7.3,1.8
				c-0.6,0.4-1.3,0.5-2,0.3c-0.7-0.2-1.2-0.6-1.6-1.2c-1.5-2.7-4.2-4.6-7-4.9c-0.7-0.1-1.3-0.4-1.7-1s-0.6-1.3-0.5-1.9
				c0.2-0.9,0.4-2.4,0.4-3.6c0-8.4-6.6-15-15-15c-2.7,0-5.1,0.6-7.4,1.9c-1.2,0.7-2.7,0.2-3.4-0.9c-1.8-3.1-5-5-8.4-5
				c-3.8,0-7.2,2.1-8.7,5.4c5.8,4.2,9.3,11,9.3,18.3c0,6.4-2.7,12.4-7.3,16.7c2.6,1.8,4.8,4.1,6.4,6.9c0.3,0,0.7,0,1,0
				c1.4,0,2.6,0.1,3.7,0.4c2.4-2.4,5.9-3.7,9.6-3.7c7.8,0,14.2,6.4,14.2,14.2c0,5.6-3.5,10.8-8.8,13.1
				C379.8,113.8,379.4,113.9,379.1,113.9z"/>
		</g>
	</g>
	<g>
		<path d="M275.7,469.4h-22.8c-1.3,0-2.4-1.1-2.5-2.4L236,151.7c0-0.7,0.2-1.3,0.7-1.8s1.1-0.8,1.8-0.8h51.6c0.7,0,1.3,0.3,1.8,0.8
			s0.7,1.2,0.7,1.8L278.2,467C278.1,468.3,277,469.4,275.7,469.4z M255.3,464.4h18l14.2-310.3h-46.4L255.3,464.4z"/>
	</g>
	<g>
		<path d="M333.9,469.4h-23.7c-0.7,0-1.4-0.3-1.8-0.8s-0.7-1.2-0.7-1.9L334,151.4c0.1-1.3,1.2-2.3,2.5-2.3h52.7
			c0.7,0,1.4,0.3,1.9,0.9c0.5,0.6,0.7,1.3,0.5,2l-55.3,315.3C336.2,468.5,335.1,469.4,333.9,469.4z M312.9,464.4h18.9l54.4-310.3
			h-47.4L312.9,464.4z"/>
	</g>
	<g>
		<path d="M212.6,469.4h-24.1c-1.3,0-2.3-0.9-2.5-2.2l-38.9-315.3c-0.1-0.7,0.1-1.4,0.6-2c0.5-0.5,1.2-0.8,1.9-0.8H202
			c1.3,0,2.5,1.1,2.5,2.4l10.6,315.3c0,0.7-0.2,1.3-0.7,1.8C213.9,469.1,213.3,469.4,212.6,469.4z M190.7,464.4H210l-10.4-310.3
			h-47.2L190.7,464.4z"/>
	</g>
</g>
</svg>
