<?xml version="1.0" encoding="utf-8"?>
<!-- Generator: Adobe Illustrator 22.1.0, SVG Export Plug-In . SVG Version: 6.00 Build 0)  -->
<svg version="1.1" id="Layer_1" xmlns="http://www.w3.org/2000/svg" xmlns:xlink="http://www.w3.org/1999/xlink" x="0px" y="0px"
	 viewBox="0 0 512 512" style="enable-background:new 0 0 512 512;" xml:space="preserve">
<g>
	<circle cx="81.5" cy="71.5" r="3.5"/>
	<circle cx="72.5" cy="108.5" r="3.5"/>
	<circle cx="41.5" cy="141.5" r="3.5"/>
	<circle cx="24.5" cy="183.5" r="3.5"/>
	<circle cx="21.5" cy="228.5" r="3.5"/>
	<circle cx="26.5" cy="278.5" r="3.5"/>
	<circle cx="32.5" cy="314.5" r="3.5"/>
	<circle cx="52.5" cy="349.5" r="3.5"/>
	<circle cx="72.5" cy="382.5" r="3.5"/>
	<circle cx="86.5" cy="421.5" r="3.5"/>
	<circle cx="113.5" cy="454.5" r="3.5"/>
	<circle cx="154.5" cy="469.5" r="3.5"/>
	<circle cx="199.5" cy="480.5" r="3.5"/>
	<circle cx="239.5" cy="497.5" r="3.5"/>
	<circle cx="275.5" cy="496.5" r="3.5"/>
	<circle cx="325.5" cy="496.5" r="3.5"/>
	<circle cx="368.5" cy="490.5" r="3.5"/>
	<circle cx="402.5" cy="464.5" r="3.5"/>
	<circle cx="425.5" cy="425.5" r="3.5"/>
	<circle cx="439.5" cy="393.5" r="3.5"/>
	<circle cx="446.5" cy="352.5" r="3.5"/>
	<circle cx="453.5" cy="305.5" r="3.5"/>
	<circle cx="450.5" cy="263.5" r="3.5"/>
	<circle cx="446.5" cy="216.5" r="3.5"/>
	<circle cx="421.5" cy="183.5" r="3.5"/>
	<circle cx="396.5" cy="156.5" r="3.5"/>
	<circle cx="371.5" cy="126.5" r="3.5"/>
	<circle cx="335.5" cy="92.5" r="3.5"/>
	<circle cx="300.5" cy="63.5" r="3.5"/>
	<circle cx="267.5" cy="41.5" r="3.5"/>
	<circle cx="220.5" cy="30.5" r="3.5"/>
	<circle cx="177.5" cy="22.5" r="3.5"/>
	<circle cx="139.5" cy="18.5" r="3.5"/>
	<circle cx="105.5" cy="19.5" r="3.5"/>
	<circle cx="84.5" cy="38.5" r="3.5"/>
</g>
</svg>
