<?xml version="1.0" encoding="utf-8"?>
<!-- Generator: Adobe Illustrator 22.1.0, SVG Export Plug-In . SVG Version: 6.00 Build 0)  -->
<svg version="1.1" id="Layer_1" xmlns="http://www.w3.org/2000/svg" xmlns:xlink="http://www.w3.org/1999/xlink" x="0px" y="0px"
	 viewBox="0 0 512 512" style="enable-background:new 0 0 512 512;" xml:space="preserve">
<g>
	<g>
		<path d="M381.9,427.9c-0.5,0-0.9-0.1-1.3-0.4c-0.8-0.5-1.3-1.5-1.1-2.5c0.3-1.5,0.5-3,0.7-4.5c1.1-6.7,2.1-13,3.6-19.4l10-43.8
			c0,0,0-0.1,0-0.1c0.6-2.1,1.1-4.3,1.6-6.4c1.3-5.3,2.7-10.9,5.3-17.2c0.4-0.9,1.2-1.5,2.2-1.6c0.9,0,1.9,0.5,2.3,1.4
			c3.7,7.2,6.2,15.9,7.1,25c0.8,8,0,16.9-2.2,25.2c-1.7,8.1-5,16.4-9.6,24c-3.7,6.2-9,14.1-17.2,19.8
			C382.9,427.8,382.4,427.9,381.9,427.9z M398.6,358.5l-10,43.7c-1.3,5.5-2.3,11.1-3.2,17c4.8-4.5,8.2-9.8,10.8-14.2
			c4.3-7.2,7.4-15,9-22.5c0,0,0-0.1,0-0.1c2.1-7.7,2.8-16.1,2-23.5c-0.6-6.3-2-12.3-4.1-17.7c-1.2,3.8-2.1,7.3-2.9,10.8
			C399.8,354.1,399.2,356.3,398.6,358.5z"/>
	</g>
	<g>
		<path d="M413.1,327.4c-0.7,0-1.3-0.3-1.8-0.7c-6-6-8.1-13.6-9.2-19.5c-1.3-5.8-1.1-12.4,0.4-20.3c1.4-7.1,3.7-13.2,7.1-18.6
			c1.5-2.5,3.2-5.3,5.6-8.2c2.1-2.5,4.6-4.7,8.1-7.3c0.7-0.5,1.6-0.6,2.4-0.3c0.8,0.3,1.4,1.1,1.5,1.9c0.6,4,0.7,7.3,0.2,10.6
			c0,3-0.4,6-0.8,9.1c-0.5,3.8-1,7.3-1.6,10.7c-0.3,2.1-0.6,4.1-0.9,6.2c0,0.1,0,0.2-0.1,0.3c-0.5,2.1-1,4.2-1.4,6.4
			c-0.7,3.3-1.4,6.8-2.5,10.2c-1.5,5.9-3,11.6-4.7,17.7c-0.2,0.9-0.9,1.5-1.8,1.8C413.5,327.4,413.3,327.4,413.1,327.4z
			 M422.8,259.5c-1.4,1.2-2.6,2.4-3.6,3.6c-2.1,2.7-3.7,5.3-5.2,7.7c-3.1,5-5.3,10.6-6.5,17c-1.4,7.2-1.5,13.3-0.4,18.4
			c1.1,5.7,2.6,10,4.9,13.4c1.2-4.4,2.3-8.7,3.4-13.1c0-0.1,0-0.1,0-0.2c1-3.1,1.7-6.5,2.4-9.7c0.4-2.1,0.9-4.4,1.4-6.5
			c0.3-2,0.6-4,0.9-6.1c0.5-3.4,1.1-6.9,1.6-10.7c0.4-3,0.8-5.9,0.8-8.6c0-0.1,0-0.2,0-0.3C422.7,262.8,422.8,261.2,422.8,259.5z
			 M421.7,290.6L421.7,290.6L421.7,290.6z"/>
	</g>
	<g>
		<path d="M387.4,286.5c-0.6,0-1.2-0.2-1.6-0.6c-7.3-6.2-11.1-13.5-13.9-19.9c-3.4-8.6-5.2-15.7-5.6-22.7
			c-0.9-8.5-0.3-16.7,1.8-23.7c1.7-7.7,5.5-15.3,11-21.8c0.6-0.7,1.6-1.1,2.5-0.8c0.9,0.2,1.6,1,1.8,1.9c1,4.8,1.4,9,1.8,13.2
			c0.3,3,0.6,5.9,1.1,8.8c0,0.1,0,0.1,0,0.2l2.1,20.4c0,0,0,0.1,0,0.1c0.2,3,0.5,5.9,0.8,9.1c0.4,3.8,0.8,7.7,0.9,11.8
			c0,0.1,0,0.1,0,0.2c-0.1,2.9-0.1,6-0.1,9.3c0,3.9,0,7.9-0.2,12.2c0,0.9-0.6,1.8-1.5,2.2C388.1,286.4,387.7,286.5,387.4,286.5z
			 M379.5,205.5c-3.2,4.8-5.4,9.9-6.6,15.2c0,0.1,0,0.1,0,0.2c-1.9,6.5-2.4,14.1-1.6,21.9c0,0,0,0.1,0,0.1c0.3,6.4,2,13.1,5.2,21.1
			c1.9,4.5,4.5,9.6,8.6,14.2c0-2.2,0-4.3,0-6.3c0-3.3,0-6.4,0.1-9.4c-0.2-3.9-0.5-7.7-0.9-11.4c-0.3-3-0.6-6.1-0.8-9.2l-2.1-20.3
			c-0.5-3.1-0.8-6.1-1.1-9.1C380.1,210.3,379.9,207.9,379.5,205.5z"/>
	</g>
	<g>
		<path d="M335.2,371.5c-0.5,0-1-0.1-1.4-0.4c-0.8-0.5-1.2-1.5-1.1-2.5c1.2-7.1,3-14.1,5.5-22.2l7.1-22c1.9-5.7,3.6-11,4.6-16.8
			c0,0,0-0.1,0-0.1c1.1-5.2,2.4-12.2,2.4-20.6c0-1,0.6-1.9,1.4-2.3s1.9-0.3,2.7,0.4c6.3,5.3,10.4,13.7,11.4,23.2
			c1,7.5,0.1,15.6-2.9,24.8c-2,7.2-5.7,14.5-10.9,21.6c-5.2,7.1-10.9,12.5-17.6,16.7C336.1,371.4,335.7,371.5,335.2,371.5z
			 M354.9,308.4c-1,6.2-2.9,12-4.8,17.5l-0.7,2.2l-6.4,19.8c-1.7,5.6-3.1,10.6-4.1,15.4c4.1-3.3,7.8-7.2,11.2-11.9
			c4.9-6.6,8.3-13.3,10.1-20c0,0,0-0.1,0-0.1c2.7-8.4,3.6-15.9,2.7-22.7c-0.6-6-2.6-11.5-5.7-15.7
			C356.8,299,355.8,304.2,354.9,308.4z"/>
	</g>
	<g>
		<path d="M308.5,472.3c-0.2,0-0.4,0-0.5-0.1c-1-0.2-1.7-1-1.9-1.9c-1.5-7.1-2.8-14.6-3.9-23.5l-2.8-23.6c-0.3-2.8-0.7-5.7-1.1-8.3
			c0,0,0-0.1,0-0.1c-0.1-0.9-0.2-1.8-0.3-2.7c-0.3-2.6-0.6-5.5-1.1-8.3c0,0,0-0.1,0-0.1c-0.2-2.1-0.5-4.1-0.7-6.1
			c-0.7-5.4-1.4-11-1.4-17.4c0-1,0.5-1.8,1.4-2.2c0.9-0.4,1.9-0.3,2.6,0.3c6.5,5.1,11.8,12.1,15.4,20.3c1.5,2.8,2.4,5.5,3.2,8.2
			c0.4,1.2,0.7,2.3,1.2,3.5c0,0.1,0.1,0.2,0.1,0.4c0.3,1.3,0.6,2.7,1,4.1c0.6,2.6,1.3,5.3,1.6,7.9c1.3,8.2,1,17-0.9,25.5
			c-2.1,9.8-5.2,17.3-9.7,23.4C310,471.9,309.3,472.3,308.5,472.3z M303.2,414.1c0.5,2.7,0.8,5.8,1.2,8.5l2.7,23.6
			c0.8,6.2,1.7,11.8,2.6,16.9c2.4-4.6,4.3-9.9,5.6-16.4c0,0,0,0,0,0c1.8-7.9,2.1-16.1,0.9-23.7c0,0,0-0.1,0-0.1
			c-0.2-2.3-0.9-4.8-1.5-7.3c-0.3-1.3-0.7-2.7-1-4.1c-0.4-1.2-0.8-2.4-1.2-3.5c-0.8-2.5-1.6-4.9-2.9-7.4c0-0.1-0.1-0.1-0.1-0.2
			c-2.4-5.6-5.7-10.6-9.7-14.6c0.3,3.9,0.7,7.5,1.2,11c0.3,2,0.5,4.1,0.7,6.2c0.4,2.9,0.8,5.9,1.1,8.5
			C303,412.4,303.1,413.3,303.2,414.1z"/>
	</g>
	<g>
		<path d="M281.6,334.4c0,0-0.1,0-0.1,0c-1.1-0.1-2.1-0.8-2.3-1.9c-3.3-14.1-3.3-27.9-3-38.2c0.4-13.6,1.9-25.9,4.4-37.7
			c2.8-13.7,6.5-25.6,11.2-36.3c5.8-14.7,12.8-25.5,21.6-32.9c0.8-0.7,2-0.8,3-0.2s1.4,1.7,1.1,2.8c-2.8,10.5-5.5,21.5-8.5,35.8
			c-1.2,5.9-2.4,11.9-3.6,17.7c-1.2,5.8-2.4,11.9-3.6,17.8c-0.8,3.6-1.5,7.3-2.2,10.9c-1.6,8.1-3.3,16.5-5.4,24.7
			c-2.8,11.4-6,23.6-10.2,36.1C283.6,333.7,282.7,334.4,281.6,334.4z M310.2,197.5c-5.3,6.3-9.8,14.3-13.8,24.5c0,0,0,0.1,0,0.1
			c-4.6,10.4-8.2,22-10.9,35.4c-2.4,11.5-3.8,23.6-4.3,36.9c-0.2,7.6-0.3,17.1,1.1,27.2c2.7-9,5-17.8,7-26.1
			c2-8.1,3.7-16.4,5.3-24.5c0.7-3.7,1.5-7.3,2.3-10.9c1.2-5.9,2.4-11.9,3.6-17.7c1.2-5.8,2.4-11.9,3.6-17.8
			C306.2,214.1,308.2,205.5,310.2,197.5z"/>
	</g>
	<g>
		<path d="M340,208.9c-1,0-1.9-0.6-2.3-1.6c-4.3-10.7-7.3-21.1-9.4-29c-2.3-7.4-4.4-15-6.5-22.3c-0.5-1.8-1-3.7-1.5-5.5
			c-2.7-8.7-5.7-17.4-9.2-26.7c-3.7-8.3-7.4-16.9-12.5-26.8c-0.5-0.9-0.3-2.1,0.4-2.9c0.7-0.8,1.9-1,2.8-0.6
			c9.3,4.1,17.9,11.4,25.1,21.2c7.1,9.9,11.2,20.4,14.3,29.4c0,0,0,0.1,0,0.1c3.1,10.8,4.8,21.3,5.1,31.4c0,11.7-1.3,22.2-4,31.5
			c-0.3,1-1.2,1.8-2.3,1.8C340.1,208.9,340,208.9,340,208.9z M306.6,101.8c3.4,7.1,6.3,13.6,9.1,20c0,0,0,0.1,0.1,0.1
			c3.5,9.4,6.6,18.3,9.3,27.1c0.5,1.9,1.1,3.8,1.6,5.6c2,7.3,4.1,14.9,6.4,22.3c1.6,5.9,3.7,13.2,6.4,20.9
			c1.3-6.8,1.9-14.2,1.9-22.2c-0.3-9.6-1.9-19.7-4.9-30c-3-8.6-7-18.7-13.6-28C318.1,111.1,312.5,105.7,306.6,101.8z"/>
	</g>
	<g>
		<path d="M154.5,370.1c-0.4,0-0.7-0.1-1.1-0.3c-7.4-3.6-14.1-8.7-20.5-15.6c-6.6-7.4-11.3-14-14.8-21c-3.1-5.7-7.3-14.5-8.2-24.9
			c-1-6.2-1.8-17.8,4.3-27.1c0.5-0.8,1.5-1.2,2.5-1.1c1,0.1,1.8,0.8,2,1.8c2.3,8,5.1,14,8.7,21.1c1.9,3.9,3.9,7.7,5.8,11.4
			c1.4,2.7,2.9,5.6,4.3,8.4c1.4,2.9,2.9,5.7,4.4,8.7c2.1,3.9,4.2,8,6.1,12.2c0,0,0,0.1,0.1,0.1c1,2.6,2,5.1,3,7.6
			c2,4.9,4.1,10.1,5.8,15.4c0.3,1,0,2-0.8,2.6C155.7,369.9,155.1,370.1,154.5,370.1z M115.8,289.3c-1.7,5.2-2.1,11.6-1,18.3
			c0,0.1,0,0.1,0,0.2c0.7,7.4,3,14.5,7.7,23.1c3.3,6.6,7.8,12.9,14.1,19.9c4.3,4.6,8.7,8.4,13.4,11.4c-1.1-3-2.3-5.9-3.5-8.9
			c-1-2.5-2.1-5-3.1-7.6c-1.9-4-3.9-8-6-11.9c-1.5-2.9-3.1-5.9-4.5-8.8c-1.4-2.8-2.9-5.6-4.3-8.3c-1.9-3.7-3.9-7.5-5.8-11.5
			C120.1,299.8,117.8,294.9,115.8,289.3z"/>
	</g>
	<g>
		<path d="M173.7,449.8c-0.1,0-0.1,0-0.2,0c-9.6-0.9-17.6-4.3-25-7.8c-7.8-4-14.7-8.7-21.3-14.4c-6.4-5.4-12-12.3-16.6-20.5
			c-5.2-9.2-7-18.5-5.3-27.1c0.2-1,1-1.8,1.9-2c1-0.2,2,0.2,2.6,1c5.1,7.3,10.4,12.4,15.3,16.9c2.7,2.5,5.5,5,8.2,7.5
			c2.8,2.5,5.6,5.1,8.3,7.6c1.7,1.6,3.5,3.2,5.3,4.8c3.9,3.5,7.9,7.1,11.7,11c6,6,11.5,12,17.1,18.9c0.6,0.8,0.7,1.9,0.3,2.8
			C175.5,449.3,174.6,449.8,173.7,449.8z M109.6,387.2c0.2,6.9,2.8,13.1,5.3,17.5c4.3,7.6,9.5,14.1,15.5,19.1
			c6.3,5.4,13,9.9,20.3,13.7c5.1,2.5,10.6,4.9,16.7,6.3c-4-4.7-8.1-9-12.5-13.4c-3.7-3.8-7.7-7.4-11.5-10.8
			c-1.8-1.6-3.6-3.2-5.3-4.8c-2.7-2.5-5.5-5-8.2-7.5c-2.8-2.5-5.6-5.1-8.3-7.6C117.8,396.1,113.7,392.2,109.6,387.2z"/>
	</g>
	<g>
		<path d="M114.5,261c-0.2,0-0.4,0-0.6-0.1c-1-0.2-1.7-1-1.9-2c-1.2-7.8-1.9-15.1-2.6-22l-0.3-3.1c-0.9-9.1-1.8-16.5-2.9-23.2
			c0,0,0-0.1,0-0.1c-0.8-7.3-2-14.7-3.9-22.6c0,0,0-0.1,0-0.1c-0.6-3.5-1.3-6.9-2.1-10.5c-0.9-4.4-1.9-9-2.7-13.9
			c-0.2-1,0.3-2,1.1-2.5c0.8-0.5,1.9-0.5,2.8,0.1c7.1,5,13.6,12.3,18.1,20.7c4.3,7.9,7,16.5,8.3,26.3c1,9.9,0.8,18.7-0.8,27.1
			c0,0,0,0,0,0c-2,10.1-5.5,18.3-10.6,25.1C116,260.6,115.3,261,114.5,261z M111.2,209.9c1.1,6.7,2,14.2,2.9,23.4l0.3,3.1
			c0.5,4.9,1,9.9,1.6,15.1c2.7-5,4.8-10.8,6.1-17.6c1.5-7.9,1.8-16.2,0.8-25.6c-1.2-9.1-3.8-17.1-7.7-24.5c-3-5.6-7-10.8-11.5-14.9
			c0.5,2.5,1,4.9,1.5,7.2c0.7,3.5,1.4,7,2.1,10.6C109.1,194.8,110.4,202.4,111.2,209.9z M124.6,234.4L124.6,234.4L124.6,234.4z"/>
	</g>
	<g>
		<path d="M125.2,147.6c-0.6,0-1.2-0.2-1.7-0.6c-6.2-5.5-11.2-12.3-15.7-21.6c-4.1-7.9-7-16.2-8.7-24.7c-1.8-9.2-1.7-18.8,0.4-27.7
			c0-0.1,0-0.1,0.1-0.2c1.4-4.3,3-9.2,5.7-13.2c2.9-4.5,7.3-8.1,11.8-9.5c0.9-0.3,1.9,0,2.6,0.7c0.7,0.7,0.8,1.7,0.5,2.6
			c-3.2,7.7-3.1,14.5-2.7,21.4c0.3,6,1.3,12.1,2.4,18.4l0.5,3.2c0.6,3.2,1.2,6.5,1.8,9.7c0.8,4.3,1.7,8.7,2.5,13.1l0.3,1.8
			c1.2,7.9,2.4,15.3,2.8,23.9c0,1-0.5,1.9-1.4,2.4C125.9,147.5,125.6,147.6,125.2,147.6z M104.4,74.3c-1.9,8.2-2.1,16.9-0.4,25.4
			c1.6,8,4.4,15.9,8.3,23.4c3,6.2,6.2,11.2,9.9,15.4c-0.5-5.7-1.4-11.1-2.2-16.7l-0.3-1.7c-0.8-4.4-1.6-8.7-2.4-13
			c-0.6-3.3-1.3-6.6-1.9-9.8l-0.5-3.2c-1.1-6.5-2.1-12.7-2.4-19c-0.3-5.4-0.4-11.2,1.1-17.4c-1.5,1.3-3,2.8-4.1,4.6
			C107.2,65.8,105.8,70.1,104.4,74.3z"/>
	</g>
	<g>
		<path d="M236.4,478.4c-0.3,0-0.6-0.1-0.9-0.2c-2.5-0.9-5.2-2.3-7-3.6c-4.5-3-8-6.7-10.7-11.2c-4.3-6.1-7.5-13-9.2-20.6
			c-1.8-7.8-2.1-15.4-0.8-22.4c0.8-6.8,3.5-13.8,8.4-21.4c0.5-0.8,1.4-1.2,2.4-1.1c0.9,0.1,1.8,0.7,2.1,1.6c1.1,3,1.7,5.6,2.3,7.9
			c0.2,0.8,0.4,1.6,0.6,2.4c0.6,2.5,1.1,4.8,1.6,7.2c0.2,0.9,0.4,1.7,0.5,2.6c0.9,3.9,1.8,7.7,2.7,11.4c0.5,2.3,1.1,4.5,1.6,6.8
			c0.7,3,1.4,5.9,2.1,8.9c0.7,3,1.5,5.9,2.2,8.9c1.4,5.9,2.9,11.7,4.7,18.5c0.1,0.4,0.1,0.9,0,1.3c0,0.1,0,0.2,0,0.4
			c0,0.8-0.4,1.6-1.1,2.1C237.4,478.3,236.9,478.4,236.4,478.4z M238.3,476.6C238.3,476.6,238.3,476.6,238.3,476.6
			C238.3,476.6,238.3,476.6,238.3,476.6z M238.3,476.6C238.3,476.6,238.3,476.6,238.3,476.6C238.3,476.6,238.3,476.6,238.3,476.6z
			 M217.5,406.6c-2.7,5.1-4.3,9.9-4.8,14.5c0,0.1,0,0.1,0,0.2c-1.2,6.4-0.9,13.3,0.8,20.5c1.7,7.1,4.5,13.3,8.5,18.9
			c0,0,0.1,0.1,0.1,0.2c2.4,3.9,5.4,7.1,9.4,9.7c0.5,0.3,1,0.7,1.7,1c-1.4-5.3-2.6-10-3.7-14.8c-0.7-3-1.4-5.9-2.1-8.9
			c-0.7-3-1.5-5.9-2.2-8.9c-0.5-2.3-1.1-4.5-1.6-6.7c-0.9-3.7-1.8-7.5-2.7-11.5c-0.2-0.9-0.4-1.8-0.6-2.7c-0.5-2.4-1-4.6-1.5-7
			c-0.2-0.7-0.4-1.6-0.6-2.4C217.9,408,217.7,407.3,217.5,406.6z"/>
	</g>
	<g>
		<path d="M218.4,384.7c-0.2,0-0.4,0-0.6-0.1c-0.9-0.2-1.6-1-1.9-1.9c-1.5-6.8-1.7-14.3-0.4-23.4c0,0,0-0.1,0-0.1
			c1.5-7.8,3-14.9,6.2-21.7c3.3-7.7,7-14.1,11.4-19.5c3.6-4.5,9.7-10.7,18.5-14.7c0.9-0.4,1.9-0.3,2.6,0.3c0.7,0.6,1.1,1.6,0.9,2.5
			c-1.7,7.4-3.7,13.9-6.1,21c-1.6,5-3.6,9.9-5.5,14.6c-0.6,1.5-1.2,3-1.8,4.5c-2.7,6.9-5.7,13.1-9,18.9c-3.4,6.5-7.3,12.4-12.5,18.6
			C219.8,384.4,219.1,384.7,218.4,384.7z M220.5,360.1c-0.8,6.2-1,11.3-0.5,16.1c3.3-4.4,6-8.7,8.4-13.4c0,0,0-0.1,0.1-0.1
			c3.3-5.6,6.1-11.6,8.7-18.3c0.6-1.5,1.2-3,1.8-4.5c1.9-4.9,3.8-9.5,5.4-14.3c1.7-5.2,3.3-10.1,4.6-15.2
			c-5.4,3.4-9.3,7.5-11.9,10.7c-4.1,5.1-7.6,11.1-10.8,18.4C223.4,345.9,221.9,352.6,220.5,360.1z"/>
	</g>
	<g>
		<path d="M53.7,203c-0.2,0-0.4,0-0.6-0.1c-0.9-0.2-1.6-1-1.9-1.9c-1.5-6.8-1.7-14.3-0.4-23.4c0,0,0-0.1,0-0.1
			c1.5-7.8,3-14.9,6.2-21.7c3.3-7.7,7-14.1,11.4-19.5c0,0,0.1-0.1,0.1-0.1c4.7-5.1,10.6-11.4,18.5-14.6c0.9-0.3,1.8-0.2,2.6,0.4
			c0.7,0.6,1,1.5,0.8,2.5c-1.7,7.4-3.7,13.9-6.1,21c-1.5,5-3.4,9.6-5.2,14c-0.7,1.7-1.4,3.4-2.1,5.1c-2.7,6.9-5.7,13.1-9,18.9
			c-3.4,6.5-7.3,12.4-12.5,18.6C55.1,202.7,54.4,203,53.7,203z M55.8,178.4c-0.8,6.2-1,11.3-0.5,16.1c3.3-4.4,6-8.7,8.4-13.4
			c0,0,0-0.1,0.1-0.1c3.3-5.6,6.1-11.6,8.7-18.2c0.7-1.8,1.4-3.5,2.1-5.2c1.8-4.5,3.6-8.8,5.1-13.6c1.7-5.3,3.3-10.2,4.7-15.3
			c-4.6,3-8.5,7.1-12,10.9c-4.1,5.1-7.6,11.1-10.7,18.3C58.7,164.2,57.2,170.9,55.8,178.4z"/>
	</g>
	<g>
		<path d="M74.8,334c-0.9,0-1.8-0.5-2.2-1.3c-3.6-6.6-6.6-12.9-9.4-20.1c-0.9-2.4-1.8-4.7-2.8-7c-1.6-4-3.2-8.1-4.9-12.4
			c-2.5-6.5-4.8-13.4-6.5-20.1c-0.3-1.1-0.6-2.3-0.9-3.4c-1.5-6-3.2-12.1-3.5-19c0-0.9,0.4-1.8,1.2-2.3c0.8-0.5,1.8-0.5,2.6,0
			c6.3,4,11.6,9.2,17.2,16.7c4.1,5.7,7.5,12.1,10.8,20.3c0,0,0,0.1,0,0.1c2.9,8.3,4.5,15.9,4.8,23.2c0,0.1,0,0.1,0,0.2
			c-0.2,8.1-0.7,16.1-4.4,23.5C76.6,333.4,75.8,334,74.8,334C74.8,334,74.8,334,74.8,334z M50.2,255.8c0.7,4.4,1.7,8.5,2.8,12.6
			c0.3,1.2,0.6,2.3,0.9,3.5c1.7,6.5,3.8,13.2,6.3,19.5c1.6,4.3,3.3,8.4,4.8,12.4c0.9,2.3,1.8,4.7,2.8,7c2.1,5.1,4.2,9.9,6.6,14.6
			c1.5-5.2,1.8-10.7,2-16.4c-0.4-6.8-1.8-13.9-4.5-21.7c-3.1-7.8-6.4-13.9-10.2-19.2C57.9,263,54.2,259,50.2,255.8z"/>
	</g>
	<g>
		<path d="M186.1,301.5c-0.7,0-1.3-0.3-1.8-0.7c-0.6-0.6-0.9-1.6-0.6-2.5c2.1-7.3,4.7-13.3,7.2-19.1l0.1-0.2c1.3-3,2.6-6,3.9-8.9
			c1.2-2.6,2.3-5.2,3.3-7.6c0.4-1,0.8-2.1,1.3-3.2c1.7-4.3,3.3-8.3,4.6-13c1.3-4,2-8.4,2.9-13.5c0.3-1.7,0.6-3.4,0.9-5.3
			c0.2-0.9,0.8-1.6,1.7-1.9c0.9-0.3,1.8-0.1,2.5,0.5c5.8,5.4,9.6,13.2,10.5,21.4c0,0.1,0,0.1,0,0.2c0.2,8.7-1.2,16.4-4.2,23.1
			c-3,7-7,13-12.3,18.5c-6,6-12.5,10.1-19.3,12.1C186.6,301.5,186.3,301.5,186.1,301.5z M212,233.5c0,0.1,0,0.1,0,0.2
			c-0.9,5.3-1.7,9.8-3,14.1c-1.4,4.8-3.1,9.2-4.8,13.4c-0.4,1.1-0.9,2.2-1.3,3.3c-1.1,2.5-2.2,5.1-3.4,7.7c-1.3,2.9-2.6,5.8-3.9,8.9
			l-0.1,0.2c-1.9,4.3-3.8,8.7-5.4,13.6c4.3-2,8.5-5,12.5-9c4.8-5,8.5-10.6,11.3-17c0,0,0,0,0-0.1c2.7-5.9,4-12.9,3.8-20.8
			C217,242.7,215,237.6,212,233.5z"/>
	</g>
	<g>
		<path d="M261.4,254.5c-0.8,0-1.5-0.3-2-1c-5.5-7-8.8-16.4-9.8-27.9c-0.8-9.8,0.4-19.9,3.4-29.3c3-9.7,7.6-18.5,13.5-26.1
			c1.8-2.8,4.1-5.2,6.4-7.5c1.1-1.1,2.1-2.2,3.1-3.2c0.1-0.1,0.2-0.2,0.3-0.3c3.8-3.1,7.7-5.9,12.4-8.8c0.9-0.5,2-0.5,2.8,0.1
			c0.8,0.6,1.2,1.7,0.9,2.7c-1.4,4.7-2.9,9-4.8,13.4c-0.7,2.3-1.6,4.4-2.5,6.4c-0.8,1.9-1.6,3.8-2.2,5.7c0,0.1,0,0.1-0.1,0.2
			c-3.2,7.7-5.8,15.5-8.4,23.5c-2.6,8.4-4.7,16.4-6.3,23.8c-1.5,7.4-2.6,14.9-3.8,22.8l-0.5,3.2c-0.1,1-0.9,1.8-1.8,2
			C261.8,254.5,261.6,254.5,261.4,254.5z M279.6,163c-1,1.1-2.1,2.2-3.1,3.3c-2.1,2.2-4.3,4.4-5.8,6.8c0,0.1-0.1,0.1-0.1,0.2
			c-5.7,7.2-9.9,15.2-12.8,24.6c-2.8,8.7-4,18.2-3.2,27.4c0.7,7.8,2.5,14.4,5.3,19.9c1-6.8,2-13.3,3.3-19.8
			c1.6-7.6,3.8-15.8,6.5-24.4c2.7-8.1,5.3-16,8.5-23.8c0.7-2.1,1.5-4.1,2.3-6c0.9-2.1,1.7-4,2.4-6.1c0-0.1,0-0.1,0.1-0.2
			c0.9-2.1,1.7-4.1,2.4-6.2C283.4,160,281.5,161.5,279.6,163z"/>
	</g>
	<g>
		<path d="M170.7,231.1c-0.4,0-0.8-0.1-1.2-0.3c-0.8-0.4-1.3-1.3-1.3-2.2v-10.5c0-1.6-0.1-3.1-0.2-4.7c-0.1-1.6-0.2-3.2-0.2-4.9
			l-1.4-19.1c-0.4-6.3-0.8-12.3-0.8-19v-10.1c0-2.7,0.3-7,1.5-11.7c0.2-0.9,0.9-1.6,1.8-1.8c0.9-0.2,1.8,0,2.4,0.6
			c3.1,3.1,5.5,6.1,7.1,8.9c1.5,2.1,2.6,4.4,3.6,6.7c0.5,1.1,1,2.2,1.5,3.2c0,0.1,0.1,0.2,0.1,0.3c2.9,8,4.5,14.8,4.8,21.5
			c0,0.1,0,0.1,0,0.2c-0.1,8.6-1.2,16.2-3.1,22.5c0,0.1-0.1,0.2-0.1,0.2c-0.4,0.8-0.7,1.7-1,2.6c-1,2.7-2.1,5.5-3.9,7.9
			c-2,3.2-4.5,6.8-8.3,9.2C171.6,231,171.2,231.1,170.7,231.1z M171,154.5c-0.3,2.3-0.4,4.3-0.4,5.8v10.1c0,6.5,0.4,12.4,0.8,18.7
			l0,0.5l1.4,18.6c0,0.1,0,0.1,0,0.2c0,1.6,0.1,3.1,0.2,4.7c0.1,1.6,0.2,3.3,0.2,5v4.9c1.1-1.3,2.1-2.8,3-4.2c0-0.1,0.1-0.1,0.1-0.2
			c1.4-1.9,2.4-4.4,3.3-6.8c0.3-0.9,0.7-1.8,1.1-2.7c1.8-5.8,2.7-12.8,2.9-20.9c-0.4-6.1-1.8-12.4-4.5-19.8
			c-0.6-1.1-1.1-2.2-1.6-3.3c-1-2.2-1.9-4.2-3.2-5.9c0-0.1-0.1-0.1-0.1-0.2C173.3,157.5,172.3,156.1,171,154.5z M183,210L183,210
			L183,210z"/>
	</g>
	<g>
		<path d="M205.9,143.9c-0.7,0-1.4-0.3-1.9-0.8c-7.3-8.1-13.5-16.5-19.2-24.3c-3.9-5.2-7.6-10.7-11.2-16c-1.9-2.8-3.8-5.7-5.7-8.4
			c0,0,0-0.1-0.1-0.1c-5.3-8.3-10.5-16.4-16.1-25c0,0,0-0.1-0.1-0.1c-1.1-1.8-2.1-3.6-3.2-5.4c-4.1-6.7-8.2-13.7-11.6-21.5
			c-0.4-1-0.2-2.1,0.6-2.8c0.8-0.7,1.9-0.9,2.8-0.4c9.6,4.7,18.4,11.1,26.1,19.1c7.9,7.4,14.3,15.5,19.8,24.6
			c6.1,9.6,11,19,14.6,27.9c4.5,11.4,7,21.2,7.7,30.6c0.1,1.1-0.5,2.1-1.5,2.5C206.6,143.8,206.2,143.9,205.9,143.9z M172.1,91.5
			c1.9,2.8,3.9,5.7,5.8,8.5c3.5,5.3,7.2,10.7,11.1,15.8c4.2,5.7,8.6,11.7,13.5,17.6c-1.2-6.5-3.2-13.3-6.3-21
			c-3.4-8.6-8.2-17.7-14.2-27.1c-5.3-8.8-11.5-16.5-19-23.6c0,0-0.1-0.1-0.1-0.1c-5.5-5.7-11.5-10.5-18-14.5c2.5,4.9,5.3,9.5,8,14
			c1.1,1.8,2.2,3.6,3.2,5.4C161.6,75.1,166.8,83.2,172.1,91.5z"/>
	</g>
	<g>
		<path d="M275.1,97.8c-0.6,0-1.2-0.2-1.6-0.6l-0.4-0.3c-2.6-2.3-4.9-4.2-7.1-5.3c0,0-0.1,0-0.1-0.1c-2.2-1.2-4.4-1.8-7.4-2.7
			c0,0-0.1,0-0.1,0c-1.6-0.5-3.3-1-5.1-1.4c-4.3-1.1-9.1-2.4-13.7-4.6c-7.1-2.8-13.9-6.9-19.2-11.5c-6.6-5.7-10.9-11.9-13.3-18.9
			c-0.3-0.9-0.1-1.8,0.5-2.5c0.6-0.7,1.5-1,2.4-0.8c5.6,1.3,10.4,3,14.9,4.6c1.7,0.6,3.4,1.2,5.1,1.8c6.3,2.2,12.2,4.4,18,6.9
			l0.7,0.3c5.9,2.5,12,5,18.4,9.7c0.1,0,0.1,0.1,0.2,0.1l0.4,0.3c2.9,2.5,6.6,5.6,8.3,9.9c1.6,4.1,2.3,8.6,1.8,12.8
			c-0.1,0.9-0.7,1.7-1.6,2C275.7,97.7,275.4,97.8,275.1,97.8z M268.3,87.1c1.5,0.7,2.9,1.7,4.3,2.8c-0.2-1.8-0.7-3.6-1.4-5.3
			c-1.3-3.2-4.3-5.7-6.9-8l-0.3-0.3c-5.9-4.3-11.7-6.7-17.3-9.1l-0.7-0.3c-5.7-2.4-11.5-4.6-17.7-6.7c-1.7-0.6-3.5-1.2-5.2-1.9
			c-3-1.1-6.1-2.2-9.5-3.2c2.3,4.4,5.5,8.4,10,12.2c4.9,4.2,11.4,8.1,17.9,10.7c0.1,0,0.1,0.1,0.2,0.1c4.2,2.1,8.6,3.2,12.9,4.4
			c1.9,0.5,3.6,1,5.3,1.5C263.1,84.9,265.6,85.6,268.3,87.1z"/>
	</g>
</g>
</svg>
