<?xml version="1.0" encoding="utf-8"?>
<!-- Generator: Adobe Illustrator 22.1.0, SVG Export Plug-In . SVG Version: 6.00 Build 0)  -->
<svg version="1.1" id="Layer_1" xmlns="http://www.w3.org/2000/svg" xmlns:xlink="http://www.w3.org/1999/xlink" x="0px" y="0px"
	 viewBox="0 0 512 512" style="enable-background:new 0 0 512 512;" xml:space="preserve">
<g>
	<circle cx="38.5" cy="229" r="3.5"/>
	<circle cx="44.5" cy="264.5" r="3.5"/>
	<circle cx="62.5" cy="298.5" r="3.5"/>
	<circle cx="88.5" cy="322.5" r="3.5"/>
	<circle cx="117.5" cy="343.5" r="3.5"/>
	<circle cx="147.5" cy="362.5" r="3.5"/>
	<circle cx="176.5" cy="369.5" r="3.5"/>
	<circle cx="176.5" cy="389.5" r="3.5"/>
	<circle cx="211.3" cy="389.5" r="3.5"/>
	<circle cx="246.1" cy="389.5" r="3.5"/>
	<circle cx="280.9" cy="389.5" r="3.5"/>
	<circle cx="315.7" cy="389.5" r="3.5"/>
	<circle cx="350.5" cy="389.5" r="3.5"/>
	<circle cx="346.5" cy="369.5" r="3.5"/>
	<circle cx="380.5" cy="356.5" r="3.5"/>
	<circle cx="412.5" cy="340.5" r="3.5"/>
	<circle cx="440.5" cy="321.5" r="3.5"/>
	<circle cx="465.5" cy="295.5" r="3.5"/>
	<circle cx="481.5" cy="263.5" r="3.5"/>
	<circle cx="491.5" cy="229" r="3.5"/>
	<circle cx="450.3" cy="229" r="3.5"/>
	<circle cx="409.1" cy="229" r="3.5"/>
	<circle cx="368" cy="229" r="3.5"/>
	<circle cx="326.8" cy="229" r="3.5"/>
	<circle cx="285.6" cy="229" r="3.5"/>
	<circle cx="244.4" cy="229" r="3.5"/>
	<circle cx="203.2" cy="229" r="3.5"/>
	<circle cx="162" cy="229" r="3.5"/>
	<circle cx="120.9" cy="229" r="3.5"/>
	<circle cx="79.7" cy="229" r="3.5"/>
</g>
</svg>
