<?xml version="1.0" encoding="utf-8"?>
<!-- Generator: Adobe Illustrator 22.1.0, SVG Export Plug-In . SVG Version: 6.00 Build 0)  -->
<svg version="1.1" id="Layer_1" xmlns="http://www.w3.org/2000/svg" xmlns:xlink="http://www.w3.org/1999/xlink" x="0px" y="0px"
	 viewBox="0 0 512 512" style="enable-background:new 0 0 512 512;" xml:space="preserve">
<g>
	<g>
		<path d="M216.5,218.4c-1.1,0-2.2-0.8-2.4-1.9c-1.1-4.7-1.7-9.6-1.7-14.2c0-16.8,7.2-32.6,19.8-43.8
			c-25.7-56.7-85.7-72.9-97.6-75.6c-9.7,28-13.2,54.3-10.4,78.2c0.2,1.4-0.8,2.6-2.2,2.8c-1.4,0.2-2.6-0.8-2.8-2.2
			c-3-25.3,0.9-53,11.3-82.5c0.4-1.2,1.6-1.8,2.8-1.6c0.8,0.1,19,3.5,41.1,15c20.4,10.7,47.9,30.8,63.1,65.6c0.4,1,0.2,2.2-0.7,2.9
			c-12.3,10.2-19.4,25.2-19.4,41.2c0,4.2,0.5,8.7,1.5,13c0.3,1.3-0.5,2.7-1.9,3C216.9,218.4,216.7,218.4,216.5,218.4z"/>
	</g>
	<g>
		<path d="M347.6,217c-0.1,0-0.3,0-0.4,0c-1.4-0.2-2.3-1.5-2-2.9c2.9-17.2,15.1-30.9,31.8-35.9c7.6-11.3,17.5-20.9,29.2-28.4
			c-1.8-18.5-6.3-32.6-8.1-37.7c-29.4,7-53.6,18.2-71.9,33.4c1.3,3.2,2.4,6.6,3.5,10.4c0.4,1.3-0.4,2.7-1.7,3.1
			c-1.3,0.4-2.7-0.4-3.1-1.7c-1.3-4.4-2.4-8-4-11.5c-0.5-1-0.2-2.2,0.7-2.9c19.6-16.6,45.6-28.8,77.6-36.1c1.2-0.3,2.4,0.4,2.9,1.5
			c0.3,0.7,7.3,17.9,9.4,42.6c0.1,0.9-0.4,1.8-1.2,2.3c-12,7.5-21.9,17.1-29.5,28.6c-0.3,0.5-0.8,0.9-1.4,1
			c-15.3,4.3-26.5,16.6-29.1,32.2C349.9,216.1,348.8,217,347.6,217z"/>
	</g>
	<g>
		<path d="M310.1,165.3c-0.6,0-1.3-0.2-1.8-0.7l-2.1-2.1c-9.7-8.6-22.2-13.3-35.3-13.3c-9.2,0-18.1,2.3-26.3,6.8
			c-0.9,0.5-2,0.4-2.8-0.3c-0.8-0.7-1.1-1.8-0.7-2.8c7.8-21.3,22.7-41.8,44.4-61c0.9-0.8,2.3-0.8,3.2-0.1c1,0.8,24.3,19.9,37,52.3
			c1.4,3.7,2.9,7.6,4,11.9c0.4,1.3-0.4,2.7-1.8,3.1c-1.3,0.4-2.7-0.4-3.1-1.8c-1.1-4-2.4-7.7-3.8-11.4c-10.3-26.4-28.4-44-33.8-48.9
			c-18.2,16.4-31.3,33.7-39,51.6c7.2-3,14.9-4.6,22.8-4.6c14.3,0,28,5.2,38.7,14.6c0,0,0.1,0.1,0.1,0.1l2.2,2.2c1,1,1,2.6,0,3.5
			C311.4,165.1,310.7,165.3,310.1,165.3z"/>
	</g>
	<g>
		<path d="M44,218.4c-0.9,0-1.7-0.4-2.2-1.2c-11.8-20.3-17.9-45.8-18-75.7c0-1.2,0.9-2.3,2.1-2.5c2.1-0.4,51.6-8.3,93,21.8
			c1.1,0.8,1.4,2.4,0.5,3.5c-0.8,1.1-2.4,1.4-3.5,0.5c-35-25.5-77.3-22.4-87.1-21.2c0.5,28.1,6.3,52,17.3,71.1
			c0.7,1.2,0.3,2.7-0.9,3.4C44.9,218.3,44.4,218.4,44,218.4z"/>
	</g>
	<g>
		<path d="M216.5,218.4c-1.1,0-2.2-0.8-2.4-1.9c-1.1-4.7-1.7-9.6-1.7-14.2c0-17.4,7.7-33.8,21.2-45c2.6-2.1,5.4-4.1,8.3-5.7
			c8.4-4.9,18.3-7.4,28.7-7.4c16.9,0,32.9,7.3,44,20.2c0.9,1,0.8,2.6-0.3,3.5c-1,0.9-2.6,0.8-3.5-0.3
			c-10.1-11.7-24.8-18.4-40.2-18.4c-9.5,0-18.6,2.3-26.2,6.8c-2.6,1.5-5.2,3.3-7.6,5.3c-12.3,10.2-19.4,25.3-19.4,41.2
			c0,4.2,0.5,8.7,1.5,13c0.3,1.3-0.5,2.7-1.9,3C216.9,218.4,216.7,218.4,216.5,218.4z"/>
	</g>
	<g>
		<path d="M432.6,218.4c-1.2,0-2.3-0.9-2.5-2.2c-2.7-20-20-35-40.2-35c-3.6,0-7.2,0.5-10.9,1.5c-1,0.3-2.1-0.1-2.7-1s-0.6-2-0.1-2.8
			c7.7-11.7,18.5-22.1,31-30c18.4-11.6,41.6-18.9,68.9-21.6c1-0.1,1.9,0.4,2.4,1.2c0.7,1.1,3.5,13.1,3.8,29
			c0.3,15-1.8,37.6-12.9,59.4c-0.6,1.2-2.1,1.7-3.4,1.1c-1.2-0.6-1.7-2.1-1.1-3.4c18.3-35.9,11.5-73.5,9.5-82.1
			c-25.6,2.8-47.3,9.7-64.6,20.6c-10.1,6.4-19,14.5-25.9,23.5c2-0.3,3.9-0.4,5.9-0.4c22.8,0,42.2,16.9,45.2,39.4
			c0.2,1.4-0.8,2.6-2.1,2.8C432.8,218.4,432.7,218.4,432.6,218.4z"/>
	</g>
	<g>
		<path d="M44,218.4c-0.9,0-1.7-0.4-2.2-1.2c-11.8-20.3-17.9-45.8-18-75.7c0-1.2,0.9-2.3,2.1-2.5c2.1-0.4,51.6-8.3,93,21.8
			c1.1,0.8,1.4,2.4,0.5,3.5c-0.8,1.1-2.4,1.4-3.5,0.5c-35-25.5-77.3-22.4-87.1-21.2c0.5,28.1,6.3,52,17.3,71.1
			c0.7,1.2,0.3,2.7-0.9,3.4C44.9,218.3,44.4,218.4,44,218.4z"/>
	</g>
	<g>
		<path d="M180.7,218.3c-0.2,0-0.5,0-0.7-0.1c-1.3-0.4-2.1-1.8-1.7-3.1c1.3-4.5,1.9-8.6,1.9-12.7c0-22.4-18.2-40.6-40.6-40.6
			c-5.7,0-11.5,1.3-17.5,4.1c-1.3,0.6-2.7,0-3.3-1.2c-0.6-1.3,0-2.7,1.2-3.3c6.7-3,13.1-4.5,19.5-4.5c25.1,0,45.6,20.5,45.6,45.6
			c0,4.5-0.7,9.1-2.1,14.1C182.8,217.6,181.8,218.3,180.7,218.3z"/>
	</g>
	<g>
		<path d="M98.5,218.4c-1.1,0-2-0.7-2.4-1.7c-1.4-4.4-2.1-9-2.1-14.2c0-17.7,10-33.5,26-41.2c1.2-0.6,2.7-0.1,3.3,1.2
			c0.6,1.2,0.1,2.7-1.2,3.3c-14.3,6.9-23.2,20.9-23.2,36.6c0,4.6,0.6,8.7,1.9,12.6c0.4,1.3-0.3,2.7-1.6,3.2
			C99,218.4,98.8,218.4,98.5,218.4z"/>
	</g>
	<g>
		<g>
			<path d="M261.3,218.4c-0.7,0-1.4-0.3-1.9-0.8c-0.9-1-0.8-2.6,0.2-3.5l83.6-75.5c0.5-0.5,1.2-0.7,1.9-0.6c0.7,0.1,1.3,0.4,1.7,0.9
				c11.7,14.3,17.7,31.8,17.3,50.6c0,1.4-1.2,2.5-2.6,2.4c-1.4,0-2.5-1.2-2.4-2.6c0.4-16.7-4.6-32.3-14.5-45.3L263,217.8
				C262.5,218.2,261.9,218.4,261.3,218.4z"/>
		</g>
		<g>
			<path d="M334.8,218.4c-0.4,0-0.8-0.1-1.2-0.3c-1.2-0.7-1.6-2.2-0.9-3.4c10.5-18.5,9.2-41.6-3.3-58.7c-0.8-1.1-0.6-2.7,0.5-3.5
				c1.1-0.8,2.7-0.6,3.5,0.5c13.7,18.7,15.1,43.9,3.7,64.1C336.5,217.9,335.7,218.4,334.8,218.4z"/>
		</g>
	</g>
</g>
</svg>
