<?xml version="1.0" encoding="utf-8"?>
<!-- Generator: Adobe Illustrator 22.1.0, SVG Export Plug-In . SVG Version: 6.00 Build 0)  -->
<svg version="1.1" id="Layer_1" xmlns="http://www.w3.org/2000/svg" xmlns:xlink="http://www.w3.org/1999/xlink" x="0px" y="0px"
	 viewBox="0 0 512 512" style="enable-background:new 0 0 512 512;" xml:space="preserve">
<g>
	<g>
		<path d="M415.9,403.9c-1,0-1.9-0.6-2.3-1.6c-0.5-1.3,0.1-2.7,1.4-3.3l65.6-26.3l-32.8-81.5c-6.5,14.1-16.7,26.3-29.8,35.6
			c-1.1,0.8-2.7,0.5-3.5-0.6c-0.8-1.1-0.5-2.7,0.6-3.5c13.8-9.8,24.6-23.7,30.4-39c0.4-1,1.3-1.6,2.3-1.6c1,0,2,0.6,2.3,1.6l36,89.5
			c0.2,0.6,0.2,1.3,0,1.9s-0.8,1.1-1.4,1.3l-67.9,27.2C416.5,403.8,416.2,403.9,415.9,403.9z"/>
	</g>
	<g>
		<path d="M154.9,500.7c-1,0-1.9-0.6-2.3-1.6L138,462.9c-0.5-1.3,0.1-2.7,1.4-3.3c1.3-0.5,2.7,0.1,3.3,1.4l13.7,33.9l86.1-34.6
			c1.3-0.5,2.7,0.1,3.3,1.4c0.5,1.3-0.1,2.7-1.4,3.3l-88.4,35.5C155.5,500.6,155.2,500.7,154.9,500.7z"/>
	</g>
	<g>
		<path d="M372.1,50.1c-1,0-1.9-0.6-2.3-1.6L354,8.9l-85.7,34.4c-1.3,0.5-2.7-0.1-3.3-1.4c-0.5-1.3,0.1-2.7,1.4-3.3l88-35.3
			c0.6-0.2,1.3-0.2,1.9,0c0.6,0.3,1.1,0.8,1.3,1.4l16.7,42c0.5,1.3-0.1,2.7-1.4,3.2C372.7,50,372.4,50.1,372.1,50.1z"/>
	</g>
	<g>
		<path d="M103,415.4c-0.4,0-0.8-0.1-1.2-0.3c-28.3-16.2-45.9-46.3-45.9-78.7c0-13.9,3.2-27.8,9.3-40.1
			c8.1-16.6,21.1-30.3,37.6-39.4c1.2-0.7,2.7-0.2,3.4,1s0.2,2.7-1,3.4c-15.6,8.6-27.9,21.5-35.6,37.2c-5.7,11.7-8.7,24.8-8.7,37.9
			c0,30.6,16.6,59.1,43.3,74.3c1.2,0.7,1.6,2.2,0.9,3.4C104.7,414.9,103.9,415.4,103,415.4z"/>
	</g>
	<g>
		<path d="M416.5,327.8c-0.8,0-1.6-0.4-2-1.1c-0.8-1.1-0.5-2.7,0.6-3.5c13.7-9.7,24.2-23.2,30.4-39c3.9-9.9,5.8-20.4,5.8-31.2
			c0-19.5-6.2-37.5-17.9-52.2c-0.9-1.1-0.7-2.7,0.4-3.5c1.1-0.9,2.7-0.7,3.5,0.4c12.4,15.6,18.9,34.7,18.9,55.4
			c0,11.4-2.1,22.5-6.2,33c-6.6,16.7-17.7,31-32.2,41.2C417.5,327.7,417,327.8,416.5,327.8z"/>
	</g>
	<g>
		<path d="M327.7,498.2c-27.5,0-53.2-12.2-70.4-33.5c-0.9-1.1-0.7-2.6,0.4-3.5c1.1-0.9,2.6-0.7,3.5,0.4
			c16.3,20.1,40.6,31.7,66.6,31.7c25.3,0,49.3-11.2,65.6-30.8c0.9-1.1,2.5-1.2,3.5-0.3c1.1,0.9,1.2,2.5,0.3,3.5
			C379.8,486.3,354.5,498.2,327.7,498.2z"/>
	</g>
	<g>
		<path d="M67.7,299.9C67.7,299.9,67.6,299.9,67.7,299.9c-1.1,0-1.9-0.6-2.3-1.6L12,166.4c-0.2-0.6-0.2-1.3,0-1.9s0.8-1.1,1.4-1.3
			l22.5-9c1.3-0.5,2.7,0.1,3.3,1.4c0.5,1.3-0.1,2.7-1.4,3.3l-20.2,8.1L68,291.5c8.1-14.4,20.2-26.3,35.1-34.6c1.2-0.7,2.7-0.2,3.4,1
			c0.7,1.2,0.2,2.7-1,3.4c-15.6,8.7-27.9,21.6-35.6,37.2C69.5,299.4,68.7,299.9,67.7,299.9z"/>
	</g>
	<g>
		<path d="M68.5,87.1c-0.2,0-0.5,0-0.7-0.1c-1.3-0.4-2.1-1.8-1.7-3.1c11-38.8,46.8-65.8,87.2-65.8c24.9,0,48.1,10,65.4,28.2
			c1,1,0.9,2.6-0.1,3.5c-1,1-2.6,0.9-3.5-0.1c-16.4-17.2-38.3-26.6-61.8-26.6c-38.2,0-72,25.6-82.4,62.2
			C70.6,86.4,69.6,87.1,68.5,87.1z"/>
	</g>
</g>
</svg>
