<?xml version="1.0" encoding="utf-8"?>
<!-- Generator: Adobe Illustrator 22.1.0, SVG Export Plug-In . SVG Version: 6.00 Build 0)  -->
<svg version="1.1" id="Layer_1" xmlns="http://www.w3.org/2000/svg" xmlns:xlink="http://www.w3.org/1999/xlink" x="0px" y="0px"
	 viewBox="0 0 512 512" style="enable-background:new 0 0 512 512;" xml:space="preserve">
<g>
	<circle cx="82.4" cy="89.9" r="3.5"/>
	<circle cx="109.9" cy="77.4" r="3.5"/>
	<circle cx="148.8" cy="69.1" r="3.5"/>
	<circle cx="202.8" cy="61.3" r="3.5"/>
	<circle cx="271.8" cy="56" r="3.5"/>
	<circle cx="331" cy="56.8" r="3.5"/>
	<circle cx="381.1" cy="64" r="3.5"/>
	<circle cx="422.4" cy="76.6" r="3.5"/>
	<circle cx="454.5" cy="93.6" r="3.5"/>
	<circle cx="476.8" cy="113.7" r="3.5"/>
	<circle cx="488.8" cy="135.9" r="3.5"/>
	<circle cx="479.4" cy="170.4" r="3.5"/>
	<circle cx="441.7" cy="179.1" r="3.5"/>
	<circle cx="417.2" cy="191.2" r="3.5"/>
	<circle cx="416.5" cy="230.9" r="3.5"/>
	<circle cx="415.8" cy="270.5" r="3.5"/>
	<circle cx="415.1" cy="310.1" r="3.5"/>
	<circle cx="414.4" cy="349.8" r="3.5"/>
	<circle cx="413.8" cy="389.4" r="3.5"/>
	<circle cx="413.1" cy="429" r="3.5"/>
	<circle cx="395" cy="451.1" r="3.5"/>
	<circle cx="355.4" cy="451.1" r="3.5"/>
	<circle cx="315.8" cy="451.2" r="3.5"/>
	<circle cx="276.1" cy="451.2" r="3.5"/>
	<circle cx="236.5" cy="451.3" r="3.5"/>
	<circle cx="196.9" cy="451.4" r="3.5"/>
	<circle cx="157.2" cy="451.4" r="3.5"/>
	<circle cx="117.6" cy="451.5" r="3.5"/>
	<circle cx="107.8" cy="423" r="3.5"/>
	<circle cx="109.7" cy="383.4" r="3.5"/>
	<circle cx="111.5" cy="343.8" r="3.5"/>
	<circle cx="113.3" cy="304.2" r="3.5"/>
	<circle cx="115.2" cy="264.6" r="3.5"/>
	<circle cx="117" cy="225" r="3.5"/>
	<circle cx="122.9" cy="176.4" r="3.5"/>
	<circle cx="93.2" cy="177.1" r="3.5"/>
	<circle cx="58.3" cy="176.8" r="3.5"/>
	<circle cx="40.1" cy="139.4" r="3.5"/>
	<circle cx="56" cy="110" r="3.5"/>
</g>
</svg>
