<?xml version="1.0" encoding="utf-8"?>
<!-- Generator: Adobe Illustrator 22.1.0, SVG Export Plug-In . SVG Version: 6.00 Build 0)  -->
<svg version="1.1" id="Layer_1" xmlns="http://www.w3.org/2000/svg" xmlns:xlink="http://www.w3.org/1999/xlink" x="0px" y="0px"
	 viewBox="0 0 512 512" style="enable-background:new 0 0 512 512;" xml:space="preserve">
<g>
	<circle cx="133" cy="236.9" r="3.5"/>
	<circle cx="173.2" cy="236.9" r="3.5"/>
	<circle cx="213.4" cy="236.9" r="3.5"/>
	<circle cx="253.6" cy="236.9" r="3.5"/>
	<circle cx="293.8" cy="236.9" r="3.5"/>
	<circle cx="334" cy="236.9" r="3.5"/>
	<circle cx="374.2" cy="236.9" r="3.5"/>
	<circle cx="416.8" cy="236.9" r="3.5"/>
	<circle cx="414.7" cy="276.1" r="3.5"/>
	<circle cx="410.2" cy="325" r="3.5"/>
	<circle cx="397" cy="374.3" r="3.5"/>
	<circle cx="372.6" cy="419.2" r="3.5"/>
	<circle cx="331.8" cy="463.5" r="3.5"/>
	<circle cx="286.1" cy="473.4" r="3.5"/>
	<circle cx="273.1" cy="494.9" r="3.5"/>
	<circle cx="258.5" cy="474.7" r="3.5"/>
	<circle cx="225.1" cy="470.7" r="3.5"/>
	<circle cx="183.2" cy="448.8" r="3.5"/>
	<circle cx="153.2" cy="412.2" r="3.5"/>
	<circle cx="133.1" cy="367.4" r="3.5"/>
	<circle cx="120.9" cy="321.1" r="3.5"/>
	<circle cx="114.6" cy="279.9" r="3.5"/>
	<circle cx="106.3" cy="236.9" r="3.5"/>
</g>
</svg>
