<?xml version="1.0" encoding="utf-8"?>
<!-- Generator: Adobe Illustrator 22.1.0, SVG Export Plug-In . SVG Version: 6.00 Build 0)  -->
<svg version="1.1" id="Layer_1" xmlns="http://www.w3.org/2000/svg" xmlns:xlink="http://www.w3.org/1999/xlink" x="0px" y="0px"
	 viewBox="0 0 512 512" style="enable-background:new 0 0 512 512;" xml:space="preserve">
<g>
	<g>
		<path d="M413.2,216.5H98.3c-15.8,0-28.7-12.9-28.7-28.7c0-30.9,12.1-60,33.9-81.9c21.9-21.9,51-33.9,81.9-33.9h51.2V36.4
			c0-10.5,8.6-19.1,19.1-19.1c10.5,0,19.1,8.6,19.1,19.1v35.8h51c63.8,0,115.7,51.9,115.7,115.6c0,7.6-3,15.1-8.3,20.4
			C427.8,213.5,420.7,216.5,413.2,216.5z M185.4,77c-29.6,0-57.4,11.5-78.3,32.5c-20.9,20.9-32.5,48.8-32.5,78.3
			c0,13.1,10.6,23.7,23.7,23.7h314.9c6.2,0,12-2.4,16.4-6.9c4.4-4.4,6.9-10.5,6.9-16.8c0-61-49.7-110.6-110.7-110.6h-53.5
			c-1.4,0-2.5-1.1-2.5-2.5V36.4c0-7.8-6.3-14.1-14.1-14.1c-7.8,0-14.1,6.3-14.1,14.1v38.1c0,1.4-1.1,2.5-2.5,2.5H185.4z"/>
	</g>
</g>
<g>
	<path d="M413.2,216.5H98.3c-15.8,0-28.7-12.9-28.7-28.7c0-30.9,12.1-60,33.9-81.9c21.9-21.9,51-33.9,81.9-33.9h51.2V36.4
		c0-10.5,8.6-19.1,19.1-19.1c10.5,0,19.1,8.6,19.1,19.1v35.8h51c63.8,0,115.7,51.9,115.7,115.6c0,7.6-3,15.1-8.3,20.4
		C427.8,213.5,420.7,216.5,413.2,216.5z M185.4,77c-29.6,0-57.4,11.5-78.3,32.5c-20.9,20.9-32.5,48.8-32.5,78.3
		c0,13.1,10.6,23.7,23.7,23.7h314.9c6.2,0,12-2.4,16.4-6.9c4.4-4.4,6.9-10.5,6.9-16.8c0-61-49.7-110.6-110.7-110.6h-53.5
		c-1.4,0-2.5-1.1-2.5-2.5V36.4c0-7.8-6.3-14.1-14.1-14.1c-7.8,0-14.1,6.3-14.1,14.1v38.1c0,1.4-1.1,2.5-2.5,2.5H185.4z"/>
</g>
</svg>
