<?xml version="1.0" encoding="utf-8"?>
<!-- Generator: Adobe Illustrator 22.1.0, SVG Export Plug-In . SVG Version: 6.00 Build 0)  -->
<svg version="1.1" id="Layer_1" xmlns="http://www.w3.org/2000/svg" xmlns:xlink="http://www.w3.org/1999/xlink" x="0px" y="0px"
	 viewBox="0 0 512 512" style="enable-background:new 0 0 512 512;" xml:space="preserve">
<g>
	<g>
		<path d="M256.5,465.6c-65,0-126.1-23.4-172.2-65.8c-46.1-42.5-71.6-99.2-71.8-159.5c0,0,0,0,0-0.1c0,0,0,0,0,0c0,0,0,0,0,0
			c0-1.4,1.1-2.5,2.5-2.5c0,0,0,0,0,0c1.4,0,2.5,1.1,2.5,2.5c0,0,0,0,0,0.1c0,6.3,7.6,13,21.7,19.5c1.3,0.6,1.8,2.1,1.2,3.3
			c-0.6,1.3-2.1,1.8-3.3,1.2c-8.8-4-15.2-8.1-19.3-12.3c7,116.1,111.5,208.7,238.6,208.7c127.1,0,231.6-92.6,238.6-208.6
			c-1.9,2-4.2,3.9-7,5.8c-1.1,0.8-2.7,0.5-3.5-0.7c-0.8-1.1-0.5-2.7,0.7-3.5c6.6-4.5,10.2-9.1,10.2-13.4c0,0,0,0,0-0.1
			c0-1.4,1.1-2.5,2.5-2.5c0,0,0,0,0,0c1.4,0,2.5,1.1,2.5,2.5c0,0,0,0,0,0l0,0c0,0,0,0.1,0,0.1c-0.2,60.2-25.7,116.8-71.8,159.4
			C382.6,442.2,321.5,465.6,256.5,465.6z"/>
	</g>
	<g>
		<path d="M46.7,268.1c-0.3,0-0.6-0.1-0.9-0.2l-3-1.2C23,259,12.5,249.8,12.5,240.2v-0.8c0-0.1,0-0.1,0-0.2
			c1.2-18.9,40.8-31.1,73.8-38c45.7-9.6,106.1-14.8,170.2-14.8c64,0,124.5,5.3,170.2,14.8c33,6.9,72.6,19.1,73.8,38
			c0,0.1,0,0.1,0,0.2v0.6c0,6.2-4.2,12.2-12.5,17.7c-1.1,0.8-2.7,0.4-3.5-0.7c-0.8-1.2-0.4-2.7,0.7-3.5c6.8-4.5,10.3-9.1,10.3-13.5
			v-0.5c-1.7-23.2-98-48.1-239-48.1c-141,0-237.3,24.8-239,48.1v0.7c0,7.3,9.6,15.1,27.1,21.9l3,1.2c1.3,0.5,1.9,2,1.4,3.2
			C48.6,267.5,47.7,268.1,46.7,268.1z"/>
	</g>
	<g>
		<g>
			<path d="M193.7,161.6c-1.4,0-2.5-1.1-2.5-2.5V90.8c0-1.4,1.1-2.5,2.5-2.5s2.5,1.1,2.5,2.5v68.3
				C196.2,160.5,195.1,161.6,193.7,161.6z"/>
		</g>
	</g>
	<g>
		<g>
			<path d="M289.2,134.3c-1.4,0-2.5-1.1-2.5-2.5V63.5c0-1.4,1.1-2.5,2.5-2.5s2.5,1.1,2.5,2.5v68.3
				C291.7,133.2,290.6,134.3,289.2,134.3z"/>
		</g>
	</g>
	<g>
		<g>
			<path d="M247.2,172.5c-1.4,0-2.5-1.1-2.5-2.5V49.8c0-1.4,1.1-2.5,2.5-2.5s2.5,1.1,2.5,2.5V170
				C249.7,171.4,248.6,172.5,247.2,172.5z"/>
		</g>
	</g>
	<g>
		<path d="M256.5,465.6c-65,0-126.1-23.4-172.2-65.8c-46.1-42.5-71.6-99.2-71.8-159.5c0,0,0,0,0-0.1c0,0,0,0,0,0c0,0,0,0,0,0
			c0-1.4,1.1-2.5,2.5-2.5c0,0,0,0,0,0c1.4,0,2.5,1.1,2.5,2.5c0,0,0,0,0,0.1c0,6.3,7.6,13,21.7,19.5c1.3,0.6,1.8,2.1,1.2,3.3
			c-0.6,1.3-2.1,1.8-3.3,1.2c-8.8-4-15.2-8.1-19.3-12.3c7,116.1,111.5,208.7,238.6,208.7c127.1,0,231.6-92.6,238.6-208.6
			c-1.9,2-4.2,3.9-7,5.8c-1.1,0.8-2.7,0.5-3.5-0.7c-0.8-1.1-0.5-2.7,0.7-3.5c6.6-4.5,10.2-9.1,10.2-13.4c0,0,0,0,0-0.1
			c0-1.4,1.1-2.5,2.5-2.5c0,0,0,0,0,0c1.4,0,2.5,1.1,2.5,2.5c0,0,0,0,0,0l0,0c0,0,0,0.1,0,0.1c-0.2,60.2-25.7,116.8-71.8,159.4
			C382.6,442.2,321.5,465.6,256.5,465.6z"/>
	</g>
</g>
</svg>
