<?xml version="1.0" encoding="utf-8"?>
<!-- Generator: Adobe Illustrator 22.1.0, SVG Export Plug-In . SVG Version: 6.00 Build 0)  -->
<svg version="1.1" id="Layer_1" xmlns="http://www.w3.org/2000/svg" xmlns:xlink="http://www.w3.org/1999/xlink" x="0px" y="0px"
	 viewBox="0 0 512 512" style="enable-background:new 0 0 512 512;" xml:space="preserve">
<g>
	<circle cx="61.5" cy="252.1" r="3.5"/>
	<circle cx="107" cy="238.5" r="3.5"/>
	<circle cx="148" cy="231.7" r="3.5"/>
	<circle cx="194" cy="228.2" r="3.5"/>
	<circle cx="232" cy="226.7" r="3.5"/>
	<circle cx="271.5" cy="225.6" r="3.5"/>
	<circle cx="319" cy="227.3" r="3.5"/>
	<circle cx="364" cy="230.8" r="3.5"/>
	<circle cx="403.5" cy="237" r="3.5"/>
	<circle cx="437" cy="242" r="3.5"/>
	<circle cx="469.5" cy="254" r="3.5"/>
	<circle cx="431.5" cy="265.6" r="3.5"/>
	<circle cx="389.6" cy="272.6" r="3.5"/>
	<circle cx="347.9" cy="279.6" r="3.5"/>
	<circle cx="312" cy="283.1" r="3.5"/>
	<circle cx="275" cy="283.1" r="3.5"/>
	<circle cx="243.7" cy="283.1" r="3.5"/>
	<circle cx="212.5" cy="283.1" r="3.5"/>
	<circle cx="169" cy="283.1" r="3.5"/>
	<circle cx="132" cy="279.6" r="3.5"/>
	<circle cx="91" cy="269.1" r="3.5"/>
</g>
</svg>
