<?xml version="1.0" encoding="utf-8"?>
<!-- Generator: Adobe Illustrator 22.1.0, SVG Export Plug-In . SVG Version: 6.00 Build 0)  -->
<svg version="1.1" id="Layer_1" xmlns="http://www.w3.org/2000/svg" xmlns:xlink="http://www.w3.org/1999/xlink" x="0px" y="0px"
	 viewBox="0 0 512 512" style="enable-background:new 0 0 512 512;" xml:space="preserve">
<g>
	<circle cx="123.8" cy="179" r="3.5"/>
	<circle cx="166.4" cy="209.4" r="3.5"/>
	<circle cx="209" cy="239.9" r="3.5"/>
	<circle cx="245.9" cy="250" r="3.5"/>
	<circle cx="274.5" cy="241.7" r="3.5"/>
	<circle cx="311.7" cy="220.3" r="3.5"/>
	<circle cx="348.8" cy="198.9" r="3.5"/>
	<circle cx="385.9" cy="177.5" r="3.5"/>
	<circle cx="423" cy="156.1" r="3.5"/>
	<circle cx="423" cy="196" r="3.5"/>
	<circle cx="423" cy="235.9" r="3.5"/>
	<circle cx="423" cy="275.8" r="3.5"/>
	<circle cx="423" cy="315.7" r="3.5"/>
	<circle cx="423" cy="355.6" r="3.5"/>
	<circle cx="423" cy="395.5" r="3.5"/>
	<circle cx="387.4" cy="416.4" r="3.5"/>
	<circle cx="351.8" cy="437.4" r="3.5"/>
	<circle cx="316.3" cy="458.3" r="3.5"/>
	<circle cx="280.7" cy="479.2" r="3.5"/>
	<circle cx="252.2" cy="490.7" r="3.5"/>
	<circle cx="217.7" cy="481.4" r="3.5"/>
	<circle cx="172.2" cy="454.5" r="3.5"/>
	<circle cx="126.7" cy="427.6" r="3.5"/>
	<circle cx="81.3" cy="400.6" r="3.5"/>
	<circle cx="81.3" cy="358.6" r="3.5"/>
	<circle cx="81.3" cy="316.6" r="3.5"/>
	<circle cx="81.3" cy="274.6" r="3.5"/>
	<circle cx="81.3" cy="232.5" r="3.5"/>
	<circle cx="81.3" cy="190.5" r="3.5"/>
	<circle cx="81.3" cy="148.5" r="3.5"/>
</g>
</svg>
