<?xml version="1.0" encoding="utf-8"?>
<!-- Generator: Adobe Illustrator 22.1.0, SVG Export Plug-In . SVG Version: 6.00 Build 0)  -->
<svg version="1.1" id="Layer_1" xmlns="http://www.w3.org/2000/svg" xmlns:xlink="http://www.w3.org/1999/xlink" x="0px" y="0px"
	 viewBox="0 0 512 512" style="enable-background:new 0 0 512 512;" xml:space="preserve">
<g>
	<g>
		<path d="M248.6,224.1c-12.9,0-25.9-3.3-37.6-10h0l-97.4-55c-12.6-7-20.1-20-19.9-34.8c0.2-14.4,8.3-27.1,21.6-33.9L220.9,39
			c22.7-11.2,49.2-10.4,70.9,2.2l97.4,55c12.6,7,20.1,20,19.9,34.8c-0.2,14.4-8.3,27.1-21.6,33.9l-105.6,51.4
			C271.4,221.5,260,224.1,248.6,224.1z M254.4,36.1c-10.7,0-21.4,2.4-31.3,7.3L117.5,94.8c-11.6,5.9-18.6,17-18.8,29.5
			c-0.2,13.1,6.1,24.2,17.3,30.4l97.4,55c0,0,0,0,0,0c20.6,11.7,45.3,12.4,66.3,2l105.6-51.4c11.6-5.9,18.6-17,18.8-29.5
			c0.2-13.1-6.1-24.2-17.3-30.4l-97.4-55C278.6,39.3,266.5,36.1,254.4,36.1z M424.6,133.7C424.6,133.7,424.5,133.7,424.6,133.7
			c-1.5,0-2.5-1.2-2.5-2.6c0.7-19.4-9-36.6-25.8-46l-97.4-55c-25.7-14.7-56.7-15.6-82.9-2.3l-106,51c-17.6,8.5-28.4,25.2-28.8,44.7
			c0,1.4-1.1,2.5-2.5,2.5c0,0,0,0-0.1,0c-1.4,0-2.5-1.2-2.5-2.5c0.4-21.4,12.2-39.7,31.6-49.1l106-51c27.7-14,60.5-13,87.6,2.5
			l97.4,55c18.5,10.4,29.1,29.3,28.4,50.6C427.1,132.6,425.9,133.7,424.6,133.7z"/>
	</g>
	<g>
		<path d="M250.6,150.7c-7.6,0-15.1-2-21.8-5.9l-24.3-13.6c-7.5-4.1-11.8-11.6-11.6-20.1c0.2-8.4,5.1-16,12.7-19.8l26.7-13.1
			c13.6-6.3,29.4-5.9,42.1,1.1l24.2,13.6c7.5,4.1,11.8,11.6,11.6,20.1c-0.2,8.4-5.1,16-12.7,19.8l-26.7,13.1
			C264.4,149.1,257.5,150.7,250.6,150.7z M252.6,78.6c-6.1,0-12.2,1.4-18.1,4.1l-26.7,13.1c-6.1,3-9.8,8.8-9.9,15.4
			c-0.2,6.6,3.2,12.4,9.1,15.6l24.3,13.6c0,0,0,0,0.1,0c11.2,6.7,25.1,7,37.3,0.9l26.7-13.1c6.1-3,9.8-8.8,9.9-15.4
			c0.2-6.6-3.2-12.4-9.1-15.6l-24.2-13.6C266,80.3,259.4,78.6,252.6,78.6z"/>
	</g>
</g>
</svg>
