<?xml version="1.0" encoding="utf-8"?>
<!-- Generator: Adobe Illustrator 22.1.0, SVG Export Plug-In . SVG Version: 6.00 Build 0)  -->
<svg version="1.1" id="Layer_1" xmlns="http://www.w3.org/2000/svg" xmlns:xlink="http://www.w3.org/1999/xlink" x="0px" y="0px"
	 viewBox="0 0 512 512" style="enable-background:new 0 0 512 512;" xml:space="preserve">
<g>
	<circle cx="35.5" cy="185.5" r="3.5"/>
	<circle cx="33.5" cy="221.5" r="3.5"/>
	<circle cx="37.5" cy="261.5" r="3.5"/>
	<circle cx="48.5" cy="295.5" r="3.5"/>
	<circle cx="64.5" cy="333.5" r="3.5"/>
	<circle cx="88.5" cy="359.5" r="3.5"/>
	<circle cx="110.5" cy="377.5" r="3.5"/>
	<circle cx="135.5" cy="390.5" r="3.5"/>
	<circle cx="108.5" cy="391.5" r="3.5"/>
	<circle cx="106.5" cy="417.5" r="3.5"/>
	<circle cx="140.5" cy="415.5" r="3.5"/>
	<circle cx="182.5" cy="415.5" r="3.5"/>
	<circle cx="236.5" cy="415.5" r="3.5"/>
	<circle cx="284.5" cy="415.5" r="3.5"/>
	<circle cx="322.5" cy="415.5" r="3.5"/>
	<circle cx="356.5" cy="415.5" r="3.5"/>
	<circle cx="356.5" cy="393.5" r="3.5"/>
	<circle cx="331.5" cy="396.5" r="3.5"/>
	<circle cx="360.5" cy="373.5" r="3.5"/>
	<circle cx="382.5" cy="352.5" r="3.5"/>
	<circle cx="405.5" cy="325.5" r="3.5"/>
	<circle cx="422.5" cy="286.5" r="3.5"/>
	<circle cx="427.5" cy="257.5" r="3.5"/>
	<circle cx="427.5" cy="213.5" r="3.5"/>
	<circle cx="427.5" cy="183.5" r="3.5"/>
	<circle cx="368.5" cy="183.5" r="3.5"/>
	<circle cx="306.5" cy="183.5" r="3.5"/>
	<circle cx="243.5" cy="183.5" r="3.5"/>
	<circle cx="175.5" cy="181.5" r="3.5"/>
	<circle cx="113.5" cy="182.5" r="3.5"/>
	<circle cx="72.5" cy="183.5" r="3.5"/>
</g>
</svg>
