<?xml version="1.0" encoding="utf-8"?>
<!-- Generator: Adobe Illustrator 22.1.0, SVG Export Plug-In . SVG Version: 6.00 Build 0)  -->
<svg version="1.1" id="Layer_1" xmlns="http://www.w3.org/2000/svg" xmlns:xlink="http://www.w3.org/1999/xlink" x="0px" y="0px"
	 viewBox="0 0 512 512" style="enable-background:new 0 0 512 512;" xml:space="preserve">
<g>
	<g>
		<path d="M119.9,245.9H37.7c-1.4,0-2.5-1.1-2.5-2.5s1.1-2.5,2.5-2.5h82.2c1.4,0,2.5,1.1,2.5,2.5S121.3,245.9,119.9,245.9z"/>
	</g>
	<g>
		<path d="M427.7,245.9H161.3c-1.4,0-2.5-1.1-2.5-2.5s1.1-2.5,2.5-2.5h266.4c1.4,0,2.5,1.1,2.5,2.5S429.1,245.9,427.7,245.9z"/>
	</g>
	<g>
		<g>
			<path d="M410.1,315.7c-1,0-2-0.6-2.4-1.7c-0.5-1.3,0.2-2.7,1.5-3.2c16.4-5.9,45.6-20.8,58.1-54.9c3.9-11.1,4.1-19.2,0.6-23.3
				c-6.5-8-26.5-9.4-38.1-7.9c-0.1,0-0.2,0-0.3,0h-1c-1.4,0-2.5-1.1-2.5-2.5s1.1-2.5,2.5-2.5h0.8c8.3-1.1,33.3-1.5,42.4,9.7
				c4.7,5.6,4.8,15.1,0.2,28.2c-13.2,36-43.9,51.7-61.1,57.9C410.7,315.7,410.4,315.7,410.1,315.7z"/>
		</g>
		<g>
			<path d="M401.5,343.7c-2.9,0-6-0.9-8.3-2.5c-1.1-0.8-1.4-2.3-0.7-3.5c0.8-1.1,2.3-1.4,3.5-0.7c1.5,1.1,3.5,1.7,5.5,1.7
				c0.7,0,1.4,0,1.9-0.1c0,0,0.1,0,0.1,0c6.7-1.4,66.3-15.7,87.3-74.3c7.2-19.9,6.1-35.9-3.4-47.7c-16.8-21-53.1-17.9-60.3-17.1
				c-1.4,0.2-2.6-0.8-2.8-2.2c-0.2-1.4,0.8-2.6,2.2-2.8c7.6-0.9,46.3-4.1,64.7,18.9c10.6,13.2,12,30.9,4.2,52.5
				c-21.9,61.1-84,76-91,77.5C403.5,343.7,402.4,343.7,401.5,343.7z"/>
		</g>
	</g>
	<g>
		<path d="M109.2,321.6c-0.7,0-1.3-0.3-1.8-0.7c-0.5-0.5-0.7-1.1-0.7-1.8v-67.8c0-0.8,0.4-1.6,1.1-2.1l28.9-19.2v-46.3
			c0-1.4,1.1-2.5,2.5-2.5s2.5,1.1,2.5,2.5V230l30.9,18.8c0.7,0.5,1.2,1.3,1.2,2.1v67.8c0,1.4-1.1,2.5-2.5,2.5L109.2,321.6
			C109.2,321.6,109.2,321.6,109.2,321.6z M111.7,252.6v63.9l57.1-0.4v-63.9l-29.5-17.9L111.7,252.6z"/>
	</g>
	<g>
		<path d="M139.2,233.9c-1.4,0-2.5-1.1-2.5-2.5v-47.6c0-1.4,1.1-2.5,2.5-2.5s2.5,1.1,2.5,2.5v47.6
			C141.7,232.8,140.6,233.9,139.2,233.9z"/>
	</g>
	<g>
		<g>
			<path d="M210.6,152.1c-1.4,0-2.5-1.1-2.5-2.5V66.5c0-1.4,1.1-2.5,2.5-2.5s2.5,1.1,2.5,2.5v83.1C213.1,151,212,152.1,210.6,152.1z
				"/>
		</g>
	</g>
	<g>
		<g>
			<path d="M263,125.9c-1.4,0-2.5-1.1-2.5-2.5V40.3c0-1.4,1.1-2.5,2.5-2.5s2.5,1.1,2.5,2.5v83.1C265.5,124.8,264.4,125.9,263,125.9z
				"/>
		</g>
	</g>
	<g>
		<g>
			<path d="M243.1,166.8c-1.4,0-2.5-1.1-2.5-2.5V34c0-1.4,1.1-2.5,2.5-2.5s2.5,1.1,2.5,2.5v130.3
				C245.6,165.7,244.5,166.8,243.1,166.8z"/>
		</g>
	</g>
</g>
</svg>
