<?xml version="1.0" encoding="utf-8"?>
<!-- Generator: Adobe Illustrator 22.1.0, SVG Export Plug-In . SVG Version: 6.00 Build 0)  -->
<svg version="1.1" id="Layer_1" xmlns="http://www.w3.org/2000/svg" xmlns:xlink="http://www.w3.org/1999/xlink" x="0px" y="0px"
	 viewBox="0 0 512 512" style="enable-background:new 0 0 512 512;" xml:space="preserve">
<g>
	<g>
		<path d="M374.4,125.6c-3.5,0-7-0.9-10-2.8l-55.6-35.2c0,0,0,0,0,0c-7.6-4.9-10.7-15.1-7.9-26.1l12.7-48.6c1.4-5.2,5.2-9.7,10-11.5
			c3.4-1.4,6.9-1.2,9.6,0.6l100.6,63.6c2.9,1.8,4.6,4.9,4.7,8.8c0.2,5.4-2.5,11.1-7.1,14.5l-41.8,31.2
			C384.9,123.7,379.5,125.6,374.4,125.6z M311.4,83.4l55.6,35.2c5.6,3.5,13.1,2.5,19.6-2.7l41.8-31.2c3.2-2.4,5.2-6.5,5.1-10.2
			c-0.1-1.5-0.5-3.6-2.4-4.7L330.6,6.1c-1.9-1.2-4-0.6-5.1-0.1c-3.3,1.3-6,4.5-7,8.2l-12.7,48.6C303.4,71.6,305.7,79.7,311.4,83.4
			L311.4,83.4z"/>
	</g>
	<g>
		<g>
			<path d="M362,136.8c-0.5,0-0.9-0.1-1.3-0.4l-65.7-42c-1.2-0.7-1.5-2.3-0.8-3.5c0.7-1.2,2.3-1.5,3.5-0.8l65.7,42
				c1.2,0.7,1.5,2.3,0.8,3.5C363.6,136.4,362.8,136.8,362,136.8z"/>
		</g>
		<g>
			<path d="M191.7,405.5c-0.5,0-0.9-0.1-1.3-0.4l-66-41.5c-1.2-0.7-1.5-2.3-0.8-3.4c0.7-1.2,2.3-1.5,3.4-0.8l66,41.5
				c1.2,0.7,1.5,2.3,0.8,3.4C193.3,405.1,192.5,405.5,191.7,405.5z"/>
		</g>
	</g>
	<g>
		<path d="M165.6,498.4c-1.9,0-3.8-0.5-5.4-1.5L59.7,433.3c-2.8-1.7-4.5-4.7-4.7-8.4c-0.4-5.1,2.1-10.6,6.4-14.1l38.4-32.2
			c8.8-7.3,19.2-8.8,26.9-4c0,0,0,0,0,0l55.6,35.2c7.2,4.5,10.4,13.8,8.3,24.2l-10.4,51.1c-1.1,5.5-4.8,10.2-9.7,12.3
			C168.9,498.1,167.2,498.4,165.6,498.4z M116.7,376.8c-4.5,0-9.3,1.9-13.8,5.6l-38.4,32.2c-3,2.5-4.8,6.4-4.6,9.9
			c0.1,1.2,0.5,3.4,2.4,4.5l100.6,63.6c2.1,1.3,4.4,0.6,5.6,0.1c3.3-1.4,6-4.8,6.7-8.7l10.4-51.1c1.7-8.3-0.6-15.6-6.1-19L124,378.8
			C121.8,377.5,119.3,376.8,116.7,376.8z"/>
	</g>
</g>
</svg>
