<?xml version="1.0" encoding="utf-8"?>
<!-- Generator: Adobe Illustrator 22.1.0, SVG Export Plug-In . SVG Version: 6.00 Build 0)  -->
<svg version="1.1" id="Layer_1" xmlns="http://www.w3.org/2000/svg" xmlns:xlink="http://www.w3.org/1999/xlink" x="0px" y="0px"
	 viewBox="0 0 512 512" style="enable-background:new 0 0 512 512;" xml:space="preserve">
<g>
	<g>
		<path d="M106.8,183.3c-46.8,0-84.8-38-84.8-84.8s38-84.8,84.8-84.8c46.8,0,84.8,38,84.8,84.8S153.6,183.3,106.8,183.3z
			 M106.8,18.7c-44,0-79.8,35.8-79.8,79.8s35.8,79.8,79.8,79.8s79.8-35.8,79.8-79.8S150.8,18.7,106.8,18.7z"/>
	</g>
	<g>
		<path d="M106.8,154.9c-31.1,0-56.4-25.3-56.4-56.4s25.3-56.4,56.4-56.4s56.4,25.3,56.4,56.4S137.9,154.9,106.8,154.9z M106.8,47.1
			c-28.3,0-51.4,23.1-51.4,51.4s23.1,51.4,51.4,51.4c28.3,0,51.4-23.1,51.4-51.4S135.1,47.1,106.8,47.1z"/>
	</g>
	<g>
		<path d="M180.9,287.7c-0.5,0-1-0.2-1.5-0.5c-1.8-1.4-3.4-2.9-4.8-4.6c-6.8-7.7-10-18.2-9.2-30.4c1.4-21.9,15.2-46.4,37-65.5
			c16.7-14.7,36.1-24.5,54.5-27.5c18.9-3.1,34.5,1.2,44.2,12.1c0.9,1,0.8,2.6-0.2,3.5c-1,0.9-2.6,0.8-3.5-0.2
			c-17.7-20.1-58.9-13-91.7,15.8c-20.8,18.3-34,41.5-35.3,62.1c-0.7,10.8,2.1,20,8,26.8c0,0,0,0.1,0.1,0.1c1.1,1.4,2.4,2.6,4,3.8
			c1.1,0.8,1.3,2.4,0.5,3.5C182.4,287.4,181.7,287.7,180.9,287.7z"/>
	</g>
	<g>
		<path d="M212.5,258.9c-2.3,0-4.6-0.3-6.8-0.9c-7.5-2.2-12.4-7.8-14.7-16.8c-3.2-11.9,13.3-36.5,34.8-51.6
			c6.4-4.7,28.8-19.1,46-7.9c5.9,3.8,9.5,8.9,10.7,15.3c2.2,13.6-6.7,28.6-12.2,36.4c-0.1,0.1-0.2,0.2-0.2,0.3
			c-0.4,0.7-1.2,1.2-2.2,1.2c-1.4,0-2.5-1.1-2.5-2.5c0-0.8,0.3-1.3,0.8-2c8.6-12.2,12.7-24.1,11.3-32.6c-0.9-4.9-3.8-9-8.5-12
			c-14.5-9.5-34.6,3.5-40.4,7.7c-22.9,16.2-35,38.6-32.9,46.3c1.8,7.3,5.5,11.6,11.2,13.3c9.2,2.5,22.2-2.1,30.3-10.6
			c11.1-11.1,17-27.9,15.1-33c0-0.1-0.1-0.2-0.1-0.3c-0.1-0.1-0.6-0.3-1.5-0.4c-16.4-1.6-24.2,25.5-24.5,26.5c-0.2,1.1-1.2,2-2.4,2
			c-1.4,0-2.5-1.1-2.5-2.5c0-0.8,4.3-16.4,13.9-25.2c4.9-4.4,10.2-6.4,16-5.8c4.1,0.5,5.5,2.4,5.9,4.1c2.6,7.5-3.8,25.6-16.2,38.1
			C233.4,254,222.3,258.9,212.5,258.9z"/>
	</g>
</g>
</svg>
