<?xml version="1.0" encoding="utf-8"?>
<!-- Generator: Adobe Illustrator 22.1.0, SVG Export Plug-In . SVG Version: 6.00 Build 0)  -->
<svg version="1.1" id="Layer_1" xmlns="http://www.w3.org/2000/svg" xmlns:xlink="http://www.w3.org/1999/xlink" x="0px" y="0px"
	 viewBox="0 0 512 512" style="enable-background:new 0 0 512 512;" xml:space="preserve">
<g>
	<g>
		<path d="M298.1,409.6h-97.8c-1.4,0-2.5-1.1-2.5-2.5V251.4c0-1.4,1.1-2.5,2.5-2.5h97.8c1.4,0,2.5,1.1,2.5,2.5v155.7
			C300.6,408.5,299.5,409.6,298.1,409.6z M202.8,404.6h92.8V253.9h-92.8V404.6z"/>
	</g>
	<g>
		<path d="M265.4,127H233c-1.4,0-2.5-1.1-2.5-2.5s1.1-2.5,2.5-2.5h32.4c1.4,0,2.5,1.1,2.5,2.5S266.8,127,265.4,127z"/>
	</g>
</g>
</svg>
