<?xml version="1.0" encoding="utf-8"?>
<!-- Generator: Adobe Illustrator 22.1.0, SVG Export Plug-In . SVG Version: 6.00 Build 0)  -->
<svg version="1.1" id="Layer_1" xmlns="http://www.w3.org/2000/svg" xmlns:xlink="http://www.w3.org/1999/xlink" x="0px" y="0px"
	 viewBox="0 0 512 512" style="enable-background:new 0 0 512 512;" xml:space="preserve">
<g>
	<circle cx="310.1" cy="32.9" r="3.5"/>
	<circle cx="339.6" cy="58.1" r="3.5"/>
	<circle cx="365.1" cy="85.6" r="3.5"/>
	<circle cx="389.7" cy="118.1" r="3.5"/>
	<circle cx="412.8" cy="154.5" r="3.5"/>
	<circle cx="433.6" cy="193.4" r="3.5"/>
	<circle cx="451.5" cy="233.6" r="3.5"/>
	<circle cx="465.7" cy="273.8" r="3.5"/>
	<circle cx="475.5" cy="312.9" r="3.5"/>
	<circle cx="480.2" cy="349.5" r="3.5"/>
	<circle cx="477.8" cy="381.7" r="3.5"/>
	<circle cx="464.6" cy="410.8" r="3.5"/>
	<circle cx="441.5" cy="436.7" r="3.5"/>
	<circle cx="409.8" cy="458.7" r="3.5"/>
	<circle cx="371" cy="476" r="3.5"/>
	<circle cx="326.3" cy="487.6" r="3.5"/>
	<circle cx="277.2" cy="492.8" r="3.5"/>
	<circle cx="232.8" cy="491.5" r="3.5"/>
	<circle cx="192.9" cy="485.2" r="3.5"/>
	<circle cx="156.3" cy="474.6" r="3.5"/>
	<circle cx="114.4" cy="463.5" r="3.5"/>
	<circle cx="78.8" cy="440.4" r="3.5"/>
	<circle cx="56.8" cy="409.7" r="3.5"/>
	<circle cx="50.5" cy="374.4" r="3.5"/>
	<circle cx="52.4" cy="333.3" r="3.5"/>
	<circle cx="59.6" cy="292.1" r="3.5"/>
	<circle cx="71.9" cy="249.4" r="3.5"/>
	<circle cx="88.7" cy="206.6" r="3.5"/>
	<circle cx="109.2" cy="165" r="3.5"/>
	<circle cx="132.5" cy="126" r="3.5"/>
	<circle cx="158" cy="91" r="3.5"/>
	<circle cx="184.7" cy="61.3" r="3.5"/>
	<circle cx="212.1" cy="38.5" r="3.5"/>
	<circle cx="239.3" cy="23.7" r="3.5"/>
	<circle cx="277.4" cy="18.5" r="3.5"/>
</g>
</svg>
