<?xml version="1.0" encoding="utf-8"?>
<!-- Generator: Adobe Illustrator 22.1.0, SVG Export Plug-In . SVG Version: 6.00 Build 0)  -->
<svg version="1.1" id="Layer_2_1_" xmlns="http://www.w3.org/2000/svg" xmlns:xlink="http://www.w3.org/1999/xlink" x="0px" y="0px"
	 viewBox="0 0 512 512" style="enable-background:new 0 0 512 512;" xml:space="preserve">
<g>
	<g>
		<path d="M265.6,382.4c-34.7,0-67.2-4-91.7-11.2c-25.8-7.6-39.4-17.8-39.4-29.4c0-11.6,13.7-21.8,39.6-29.4
			c24.5-7.2,57-11.2,91.5-11.2c0.4,0,0.8,0,1.3,0c57.6,0,107.4,11.1,124.1,27.8c4,4,6.1,8.3,6.1,12.8c0,11.6-13.7,21.8-39.6,29.4
			C332.9,378.4,300.3,382.4,265.6,382.4z M266.8,306.2c-0.4,0-0.8,0-1.2,0c-75.4,0-126.1,18.4-126.1,35.6s50.7,35.6,126.1,35.6
			c75.7,0,126.5-18.4,126.5-35.6c0-3.1-1.6-6.2-4.6-9.2C371.9,317,322.4,306.2,266.8,306.2z"/>
	</g>
	<g>
		<g>
			<path d="M298.1,277.2c-0.4,0-0.8-0.1-1.1-0.3c-1.2-0.6-1.7-2.1-1.1-3.4c1.7-3.4,41.8-83.8,48-126.8c0.2-1.4,1.5-2.3,2.8-2.1
				c1.4,0.2,2.3,1.5,2.1,2.8c-6.3,43.8-46.7,124.9-48.4,128.4C299.9,276.7,299,277.2,298.1,277.2z"/>
		</g>
	</g>
	<g>
		<g>
			<path d="M320.9,274.2c-1.1,0-2.1-0.7-2.4-1.8c-0.4-1.3,0.4-2.7,1.7-3.1c9-2.6,23.7-10.4,42.3-32.2c1.4-1.7,1.9-2.2,3.1-2.2
				c1.4,0,2.5,1.1,2.5,2.5c0,0.8-0.3,1.5-0.9,1.9c-0.2,0.2-0.5,0.5-0.9,1c-19.4,22.8-35.1,31-44.7,33.8
				C321.4,274.2,321.1,274.2,320.9,274.2z M365.6,239.9C365.6,239.9,365.6,239.9,365.6,239.9C365.6,239.9,365.6,239.9,365.6,239.9z
				 M365.6,239.9C365.6,239.9,365.6,239.9,365.6,239.9C365.6,239.9,365.6,239.9,365.6,239.9z M365.6,239.9
				C365.6,239.9,365.6,239.9,365.6,239.9C365.6,239.9,365.6,239.9,365.6,239.9z M365.6,239.9C365.6,239.9,365.6,239.9,365.6,239.9
				C365.6,239.9,365.6,239.9,365.6,239.9z M365.6,239.9C365.6,239.9,365.6,239.9,365.6,239.9C365.6,239.9,365.6,239.9,365.6,239.9z
				 M365.6,239.9C365.6,239.9,365.6,239.9,365.6,239.9C365.6,239.9,365.6,239.9,365.6,239.9z M365.6,239.9
				C365.6,239.9,365.6,239.9,365.6,239.9C365.6,239.9,365.6,239.9,365.6,239.9z M365.6,239.9C365.6,239.9,365.6,239.9,365.6,239.9
				C365.6,239.9,365.6,239.9,365.6,239.9z M365.6,239.9C365.6,239.9,365.6,239.9,365.6,239.9C365.6,239.9,365.6,239.9,365.6,239.9z
				 M365.6,239.9C365.6,239.9,365.6,239.9,365.6,239.9C365.6,239.9,365.6,239.9,365.6,239.9z M365.6,239.9
				C365.6,239.9,365.6,239.9,365.6,239.9C365.6,239.9,365.6,239.9,365.6,239.9z M365.6,239.9L365.6,239.9
				C365.6,239.9,365.6,239.9,365.6,239.9z M365.7,239.9C365.6,239.9,365.6,239.9,365.7,239.9C365.6,239.9,365.6,239.9,365.7,239.9z"
				/>
		</g>
	</g>
	<g>
		<g>
			<path d="M244.5,278c-0.6,0-1.2-0.2-1.7-0.7C184.9,221.9,175.7,112,175.7,111c0-1.4,1.1-2.5,2.5-2.5c1.4,0,2.5,1.1,2.5,2.4
				c0.1,1.7,10,109.6,65.5,162.8c1,1,1,2.5,0.1,3.5C245.8,277.7,245.2,278,244.5,278z M180.7,111L180.7,111L180.7,111z"/>
		</g>
	</g>
</g>
</svg>
