<?xml version="1.0" encoding="utf-8"?>
<!-- Generator: Adobe Illustrator 22.1.0, SVG Export Plug-In . SVG Version: 6.00 Build 0)  -->
<svg version="1.1" id="Layer_2_1_" xmlns="http://www.w3.org/2000/svg" xmlns:xlink="http://www.w3.org/1999/xlink" x="0px" y="0px"
	 viewBox="0 0 512 512" style="enable-background:new 0 0 512 512;" xml:space="preserve">
<g>
	<g>
		<path d="M127.5,206.9H32.7c-1.4,0-2.5-1.1-2.5-2.5c0-20.5,16.7-37.2,37.2-37.2h25.4c20.5,0,37.2,16.7,37.2,37.2
			C130,205.8,128.9,206.9,127.5,206.9z M35.3,201.9h89.6c-1.3-16.6-15.2-29.7-32.1-29.7H67.4C50.5,172.2,36.6,185.3,35.3,201.9z"/>
	</g>
	<g>
		<path d="M18,207.5c-1.4,0-2.5-1.1-2.5-2.5L15,78.5c0-1.4,1.1-2.5,2.5-2.5c0,0,0,0,0,0c1.4,0,2.5,1.1,2.5,2.5L20.5,205
			C20.5,206.4,19.4,207.5,18,207.5C18,207.5,18,207.5,18,207.5z"/>
	</g>
	<g>
		<path d="M237.5,275c-1.4,0-2.5-1.1-2.5-2.5V190h-71.5v82.5c0,1.4-1.1,2.5-2.5,2.5s-2.5-1.1-2.5-2.5v-85c0-1.4,1.1-2.5,2.5-2.5
			h76.5c1.4,0,2.5,1.1,2.5,2.5v85C240,273.9,238.9,275,237.5,275z"/>
	</g>
	<g>
		<path d="M473,275c-1.4,0-2.5-1.1-2.5-2.5V199H238c-1.4,0-2.5-1.1-2.5-2.5s1.1-2.5,2.5-2.5h235c1.4,0,2.5,1.1,2.5,2.5v76
			C475.5,273.9,474.4,275,473,275z"/>
	</g>
</g>
</svg>
