<?xml version="1.0" encoding="utf-8"?>
<!-- Generator: Adobe Illustrator 22.1.0, SVG Export Plug-In . SVG Version: 6.00 Build 0)  -->
<svg version="1.1" id="Layer_1" xmlns="http://www.w3.org/2000/svg" xmlns:xlink="http://www.w3.org/1999/xlink" x="0px" y="0px"
	 viewBox="0 0 512 512" style="enable-background:new 0 0 512 512;" xml:space="preserve">
<g>
	<circle cx="79" cy="92" r="3.5"/>
	<circle cx="118.7" cy="92" r="3.5"/>
	<circle cx="158.3" cy="92" r="3.5"/>
	<circle cx="198" cy="92" r="3.5"/>
	<circle cx="237.6" cy="92" r="3.5"/>
	<circle cx="277.3" cy="92" r="3.5"/>
	<circle cx="316.9" cy="92" r="3.5"/>
	<circle cx="356.6" cy="92" r="3.5"/>
	<circle cx="396.2" cy="92" r="3.5"/>
	<circle cx="435.9" cy="92" r="3.5"/>
	<circle cx="476" cy="92" r="3.5"/>
	<circle cx="476" cy="128.3" r="3.5"/>
	<circle cx="476" cy="164.5" r="3.5"/>
	<circle cx="476" cy="200.8" r="3.5"/>
	<circle cx="476" cy="237" r="3.5"/>
	<circle cx="439.2" cy="237" r="3.5"/>
	<circle cx="399.5" cy="237" r="3.5"/>
	<circle cx="359.9" cy="237" r="3.5"/>
	<circle cx="320.2" cy="237" r="3.5"/>
	<circle cx="280.6" cy="237" r="3.5"/>
	<circle cx="240.9" cy="237" r="3.5"/>
	<circle cx="201.2" cy="237" r="3.5"/>
	<circle cx="161.6" cy="237" r="3.5"/>
	<circle cx="121.9" cy="237" r="3.5"/>
	<circle cx="82.3" cy="237" r="3.5"/>
	<circle cx="31.7" cy="237" r="3.5"/>
	<circle cx="31.7" cy="200.8" r="3.5"/>
	<circle cx="31.7" cy="164.5" r="3.5"/>
	<circle cx="31.7" cy="128.3" r="3.5"/>
	<circle cx="31.7" cy="92" r="3.5"/>
</g>
</svg>
