<?xml version="1.0" encoding="utf-8"?>
<!-- Generator: Adobe Illustrator 22.1.0, SVG Export Plug-In . SVG Version: 6.00 Build 0)  -->
<svg version="1.1" id="Layer_2_1_" xmlns="http://www.w3.org/2000/svg" xmlns:xlink="http://www.w3.org/1999/xlink" x="0px" y="0px"
	 viewBox="0 0 512 512" style="enable-background:new 0 0 512 512;" xml:space="preserve">
<g>
	<g>
		<path d="M479.5,325h-451c-1.4,0-2.5-1.1-2.5-2.5v-52c0-1.4,1.1-2.5,2.5-2.5h451c1.4,0,2.5,1.1,2.5,2.5v52
			C482,323.9,480.9,325,479.5,325z M31,320h446v-47H31V320z"/>
	</g>
	<g>
		<path d="M83,445.4c-1.4,0-2.5-1.1-2.5-2.5V322.5c0-1.4,1.1-2.5,2.5-2.5s2.5,1.1,2.5,2.5v120.4C85.5,444.3,84.4,445.4,83,445.4z"/>
	</g>
	<g>
		<path d="M423,445.4c-1.4,0-2.5-1.1-2.5-2.5V322.5c0-1.4,1.1-2.5,2.5-2.5s2.5,1.1,2.5,2.5v120.4C425.5,444.3,424.4,445.4,423,445.4
			z"/>
	</g>
	<g>
		<path d="M455.3,273c-1.4,0-2.5-1.1-2.5-2.5V78.8c0-1.4,1.1-2.5,2.5-2.5s2.5,1.1,2.5,2.5v191.7C457.8,271.9,456.7,273,455.3,273z"
			/>
	</g>
	<g>
		<path d="M54.7,273c-1.4,0-2.5-1.1-2.5-2.5v-195c0-1.4,1.1-2.5,2.5-2.5s2.5,1.1,2.5,2.5v195C57.2,271.9,56.1,273,54.7,273z"/>
	</g>
	<g>
		<path d="M432.5,174h-349c-1.4,0-2.5-1.1-2.5-2.5s1.1-2.5,2.5-2.5h349c1.4,0,2.5,1.1,2.5,2.5S433.9,174,432.5,174z"/>
	</g>
</g>
</svg>
