<?xml version="1.0" encoding="utf-8"?>
<!-- Generator: Adobe Illustrator 22.1.0, SVG Export Plug-In . SVG Version: 6.00 Build 0)  -->
<svg version="1.1" id="Layer_2_1_" xmlns="http://www.w3.org/2000/svg" xmlns:xlink="http://www.w3.org/1999/xlink" x="0px" y="0px"
	 viewBox="0 0 512 512" style="enable-background:new 0 0 512 512;" xml:space="preserve">
<g>
	<g>
		<path d="M465,294.6H41c-1.4,0-2.5-1.1-2.5-2.5s1.1-2.5,2.5-2.5h424c1.4,0,2.5,1.1,2.5,2.5S466.4,294.6,465,294.6z"/>
	</g>
	<g>
		<path d="M464.5,174.7H41c-1.4,0-2.5-1.1-2.5-2.5s1.1-2.5,2.5-2.5h423.5c1.4,0,2.5,1.1,2.5,2.5S465.9,174.7,464.5,174.7z"/>
	</g>
	<g>
		<path d="M272,331c-6.6,0-12-5.4-12-12s5.4-12,12-12s12,5.4,12,12S278.6,331,272,331z M272,312c-3.9,0-7,3.1-7,7s3.1,7,7,7
			s7-3.1,7-7S275.9,312,272,312z"/>
	</g>
</g>
</svg>
