<?xml version="1.0" encoding="utf-8"?>
<!-- Generator: Adobe Illustrator 22.1.0, SVG Export Plug-In . SVG Version: 6.00 Build 0)  -->
<svg version="1.1" id="Layer_1" xmlns="http://www.w3.org/2000/svg" xmlns:xlink="http://www.w3.org/1999/xlink" x="0px" y="0px"
	 viewBox="0 0 512 512" style="enable-background:new 0 0 512 512;" xml:space="preserve">
<style type="text/css">
	.st0{fill:none;stroke:#000000;stroke-width:5;stroke-linecap:round;stroke-linejoin:round;stroke-miterlimit:10;}
	.st1{opacity:0;}
</style>
<g>
	<polygon class="st0" points="225.4,189.9 194.7,189.9 194.7,158.1 151.6,158.1 151.6,189.9 120.9,189.9 120.9,232.9 151.6,232.9 
		151.6,264.7 194.7,264.7 194.7,232.9 225.4,232.9 	"/>
	<polyline class="st0" points="346.3,175.6 350.4,134.6 373,134.6 379.1,175.6 	"/>
	<polygon class="st0" points="340.2,200.2 393.5,200.2 416,259.6 340.2,259.6 	"/>
	<path class="st0" d="M98.4,325.2c-21.5,0-38.9,17.4-38.9,38.9S76.9,403,98.4,403s38.9-17.4,38.9-38.9S119.9,325.2,98.4,325.2z"/>
	<path class="st0" d="M420.1,325.2c-21.5,0-38.9,17.4-38.9,38.9s17.4,38.9,38.9,38.9c21.5,0,38.9-17.4,38.9-38.9
		S441.6,325.2,420.1,325.2z"/>
</g>
<g class="st1">
	<circle cx="27.1" cy="125.8" r="3.5"/>
	<circle cx="27.1" cy="155.1" r="3.5"/>
	<circle cx="27.1" cy="190.9" r="3.5"/>
	<circle cx="27.1" cy="232.9" r="3.5"/>
	<circle cx="27.1" cy="271.9" r="3.5"/>
	<circle cx="27.1" cy="314.9" r="3.5"/>
	<circle cx="27.1" cy="362.2" r="3.5"/>
	<circle cx="48.2" cy="362.2" r="3.5"/>
	<circle cx="48.2" cy="337.9" r="3.5"/>
	<circle cx="58.4" cy="313.9" r="3.5"/>
	<circle cx="91.8" cy="301.6" r="3.5"/>
	<circle cx="128.7" cy="306.7" r="3.5"/>
	<circle cx="151.6" cy="332.8" r="3.5"/>
	<circle cx="154.7" cy="364.1" r="3.5"/>
	<circle cx="203.9" cy="364.1" r="3.5"/>
	<circle cx="256.2" cy="364.1" r="3.5"/>
	<circle cx="317.2" cy="364.1" r="3.5"/>
	<circle cx="361.9" cy="364.1" r="3.5"/>
	<circle cx="366.8" cy="329.9" r="3.5"/>
	<circle cx="389.1" cy="306.1" r="3.5"/>
	<circle cx="426" cy="301" r="3.5"/>
	<circle cx="459" cy="315.9" r="3.5"/>
	<circle cx="475.4" cy="340.5" r="3.5"/>
	<circle cx="475.4" cy="362.2" r="3.5"/>
	<circle cx="495.9" cy="362.2" r="3.5"/>
	<circle cx="497.3" cy="325.2" r="3.5"/>
	<circle cx="495.9" cy="293.4" r="3.5"/>
	<circle cx="483.8" cy="275" r="3.5"/>
	<circle cx="465.2" cy="262.7" r="3.5"/>
	<circle cx="441.6" cy="257.5" r="3.5"/>
	<circle cx="424.6" cy="214.5" r="3.5"/>
	<circle cx="404.7" cy="179.7" r="3.5"/>
	<circle cx="363.7" cy="183.2" r="3.5"/>
	<circle cx="322.2" cy="183.2" r="3.5"/>
	<circle cx="320.7" cy="125.8" r="3.5"/>
	<circle cx="281.8" cy="125.8" r="3.5"/>
	<circle cx="250" cy="125.8" r="3.5"/>
	<circle cx="211.5" cy="125.8" r="3.5"/>
	<circle cx="163.3" cy="125.8" r="3.5"/>
	<circle cx="116.8" cy="125.8" r="3.5"/>
	<circle cx="70.1" cy="125.8" r="3.5"/>
</g>
</svg>
