<?xml version="1.0" encoding="utf-8"?>
<!-- Generator: Adobe Illustrator 22.1.0, SVG Export Plug-In . SVG Version: 6.00 Build 0)  -->
<svg version="1.1" id="Layer_1" xmlns="http://www.w3.org/2000/svg" xmlns:xlink="http://www.w3.org/1999/xlink" x="0px" y="0px"
	 viewBox="0 0 512 512" style="enable-background:new 0 0 512 512;" xml:space="preserve">
<style type="text/css">
	.st0{fill:none;stroke:#000000;stroke-width:5;stroke-linecap:round;stroke-linejoin:round;stroke-miterlimit:10;}
	.st1{opacity:0;}
</style>
<g>
	<line class="st0" x1="266.2" y1="108.3" x2="266.2" y2="267.1"/>
	<line class="st0" x1="164.4" y1="306.1" x2="260.2" y2="306.1"/>
	<path class="st0" d="M476.2,234.4h-89.8l-9.1,122.8h-29.9v-62.6h21.4c1-11.5-1.4-21.4-13.6-27.4h-7.8l-69.2,0.2h-17.5v89.8h-96.2
		v-50.9c0,0-6-27-29.9-36.1H14.6"/>
	<path class="st0" d="M472.2,349.8c-9.1-0.4-18.8,0.2-26.4,3.1c-17.3,6.2-32.6,17.7-42.9,36.9c-0.2,2.1-0.4,4.3-0.4,6.4
		c0,27.8,22.5,50.3,50.3,50.3c27.8,0,50.3-22.5,50.3-50.3C502.9,375.1,490.4,357.4,472.2,349.8z"/>
	<path class="st0" d="M11.5,270.2h122.8l-2.5-101.6c-0.4-13.8,4.3-27,13.2-37.7l0,0c10.3-12.6,25.6-19.8,41.8-20.4l184.2-5.4
		l15,128.8H476"/>
	<path class="st0" d="M408.2,103.9c0,0-16.1-1.9-19.2,16.9c-3.1,18.8-2.9,44.1,1,62.4c3.7,18.3,9.5,30.1,23.1,29.7
		c13.4-0.4,42,0,42,0s7.8-1,0-14.6C447.3,184.7,408.2,103.9,408.2,103.9z"/>
	<circle class="st0" cx="90.2" cy="395.9" r="50.3"/>
</g>
<g class="st1">
	<circle cx="57.8" cy="55.1" r="3.5"/>
	<circle cx="31.4" cy="77.6" r="3.5"/>
	<circle cx="17" cy="102.7" r="3.5"/>
	<circle cx="15.6" cy="140.6" r="3.5"/>
	<circle cx="15.6" cy="183.3" r="3.5"/>
	<circle cx="14.6" cy="239.5" r="3.5"/>
	<circle cx="14.6" cy="298.7" r="3.5"/>
	<circle cx="13.5" cy="342.2" r="3.5"/>
	<circle cx="11.5" cy="393.5" r="3.5"/>
	<circle cx="29.3" cy="392.8" r="3.5"/>
	<circle cx="36.8" cy="349.6" r="3.5"/>
	<circle cx="73.9" cy="325.5" r="3.5"/>
	<circle cx="120.5" cy="327.1" r="3.5"/>
	<circle cx="144.6" cy="347.9" r="3.5"/>
	<circle cx="157" cy="373.3" r="3.5"/>
	<circle cx="158" cy="393.5" r="3.5"/>
	<circle cx="202.3" cy="394.9" r="3.5"/>
	<circle cx="245.4" cy="394.9" r="3.5"/>
	<circle cx="292.8" cy="394.9" r="3.5"/>
	<circle cx="335.5" cy="394.9" r="3.5"/>
	<circle cx="376.5" cy="394.9" r="3.5"/>
	<circle cx="389.9" cy="361.7" r="3.5"/>
	<circle cx="422" cy="340.5" r="3.5"/>
	<circle cx="457" cy="332.3" r="3.5"/>
	<circle cx="496.8" cy="340.5" r="3.5"/>
	<circle cx="488.9" cy="323.8" r="3.5"/>
	<circle cx="474.5" cy="312.7" r="3.5"/>
	<circle cx="457" cy="305.3" r="3.5"/>
	<circle cx="466.9" cy="274.4" r="3.5"/>
	<circle cx="476.2" cy="249" r="3.5"/>
	<circle cx="476.2" cy="216.5" r="3.5"/>
	<circle cx="467.5" cy="197.3" r="3.5"/>
	<circle cx="455.9" cy="170.3" r="3.5"/>
	<circle cx="445.7" cy="147.8" r="3.5"/>
	<circle cx="432.1" cy="124.3" r="3.5"/>
	<circle cx="418.7" cy="92.7" r="3.5"/>
	<circle cx="403.6" cy="70.6" r="3.5"/>
	<circle cx="386.9" cy="54.3" r="3.5"/>
	<circle cx="357.3" cy="49.1" r="3.5"/>
	<circle cx="321.7" cy="49.1" r="3.5"/>
	<circle cx="290.9" cy="49.1" r="3.5"/>
	<circle cx="254.2" cy="50.8" r="3.5"/>
	<circle cx="216" cy="50" r="3.5"/>
	<circle cx="176" cy="47.3" r="3.5"/>
	<circle cx="138.5" cy="49.1" r="3.5"/>
	<circle cx="108.7" cy="49.1" r="3.5"/>
	<circle cx="83.3" cy="49.1" r="3.5"/>
</g>
</svg>
