<?xml version="1.0" encoding="utf-8"?>
<!-- Generator: Adobe Illustrator 22.1.0, SVG Export Plug-In . SVG Version: 6.00 Build 0)  -->
<svg version="1.1" id="Layer_2" xmlns="http://www.w3.org/2000/svg" xmlns:xlink="http://www.w3.org/1999/xlink" x="0px" y="0px"
	 viewBox="0 0 512 512" style="enable-background:new 0 0 512 512;" xml:space="preserve">
<style type="text/css">
	.st0{fill:none;stroke:#000000;stroke-width:5;stroke-linecap:round;stroke-linejoin:round;stroke-miterlimit:10;}
	.st1{opacity:0;}
</style>
<g>
	<circle class="st0" cx="105.5" cy="289.5" r="86"/>
	<circle class="st0" cx="403.5" cy="287.5" r="86"/>
	<line class="st0" x1="338.5" y1="130.5" x2="403.5" y2="287.5"/>
	<path class="st0" d="M364.7,117.9l0.1,0.3c1.5,3,0.5,6.6-2.4,8.4l-14.5,8.9c-3.4,2.1-7.8,0.6-9.4-3v0c-1.2-2.9-0.2-6.2,2.5-7.9
		l14.4-9.2C358.7,113.3,363,114.5,364.7,117.9z"/>
	<path class="st0" d="M176.5,134.5c0,2,63,178,63,178"/>
	<circle class="st0" cx="239.5" cy="312.5" r="26"/>
	<line class="st0" x1="239.6" y1="314.4" x2="207.4" y2="333.7"/>
	<path class="st0" d="M198.4,324.3c1.2,2.9,17,17,17,17"/>
	<line class="st0" x1="270.9" y1="295.7" x2="239.6" y2="314.4"/>
	<path class="st0" d="M262.4,287.2c4.8,2.5,15,16.1,15,16.1"/>
	<line class="st0" x1="157.5" y1="134.5" x2="206.5" y2="130.5"/>
</g>
<g class="st1">
	<circle cx="144.1" cy="297" r="3.5"/>
	<circle cx="182.7" cy="304.6" r="3.5"/>
	<circle cx="221.3" cy="312.1" r="3.5"/>
	<circle cx="249.3" cy="278.9" r="3.5"/>
	<circle cx="265.2" cy="254.8" r="3.5"/>
	<circle cx="281.2" cy="233.6" r="3.5"/>
	<circle cx="301.2" cy="207.4" r="3.5"/>
	<circle cx="321.1" cy="181.2" r="3.5"/>
	<circle cx="341.1" cy="155" r="3.5"/>
	<circle cx="301.2" cy="163.9" r="3.5"/>
	<circle cx="261.2" cy="172.8" r="3.5"/>
	<circle cx="221.3" cy="181.7" r="3.5"/>
	<circle cx="184.5" cy="195.6" r="3.5"/>
	<circle cx="154.2" cy="230.9" r="3.5"/>
	<circle cx="131.8" cy="258.2" r="3.5"/>
	<circle cx="105.5" cy="289.5" r="3.5"/>
</g>
</svg>
