<?xml version="1.0" encoding="utf-8"?>
<!-- Generator: Adobe Illustrator 22.1.0, SVG Export Plug-In . SVG Version: 6.00 Build 0)  -->
<svg version="1.1" id="Layer_1" xmlns="http://www.w3.org/2000/svg" xmlns:xlink="http://www.w3.org/1999/xlink" x="0px" y="0px"
	 viewBox="0 0 512 512" style="enable-background:new 0 0 512 512;" xml:space="preserve">
<style type="text/css">
	.st0{fill:none;stroke:#000000;stroke-width:5;stroke-linecap:round;stroke-linejoin:round;stroke-miterlimit:10;}
	.st1{opacity:0;}
</style>
<g>
	<circle class="st0" cx="80.4" cy="316.2" r="66.8"/>
	<circle class="st0" cx="421.8" cy="316.2" r="66.8"/>
	<path class="st0" d="M100.3,231.5c-12,1.4-48.1,6.5-59.7,23.9"/>
	<path class="st0" d="M459.1,159.3l-7.7,10.6l-55,17.7l-5.9,10.3l-68.6,19.3c-4.7-2.2-10.3-7.7-13.4-11l-3.2-17.7"/>
	<path class="st0" d="M153.5,145.7l15.6,6.5c0,0,9.3,1,7.1,8.3c0,0-3.5,8.1-9.9,2.6l-17.7-8.3c0,0-2.4-3.5,0-6.9
		C148.3,147.8,149.3,145.3,153.5,145.7z"/>
	<path class="st0" d="M299,259.1c0,0-2.4-1.4-6.5-3.5c-11.6-6.5-33.1-20.9-41-33.7l-0.2-0.2c0,0,0-0.2-0.2-0.2
		c-0.2-0.4-0.4-0.8-0.6-1.4c0,0-22.5-34.9-72.1-41.2"/>
</g>
<g class="st1">
	<circle cx="128.9" cy="118.9" r="3.9"/>
	<circle cx="106.6" cy="133" r="3.9"/>
	<circle cx="88.4" cy="155.2" r="3.9"/>
	<circle cx="76.5" cy="180" r="3.9"/>
	<circle cx="74.8" cy="208.8" r="3.9"/>
	<circle cx="85.5" cy="225" r="3.9"/>
	<circle cx="104.7" cy="235.7" r="3.9"/>
	<circle cx="123.8" cy="247.1" r="3.9"/>
	<circle cx="139.7" cy="261.4" r="3.9"/>
	<circle cx="151.2" cy="275.8" r="3.9"/>
	<circle cx="158" cy="298" r="3.9"/>
	<circle cx="162" cy="323" r="3.9"/>
	<circle cx="162" cy="342.8" r="3.9"/>
	<circle cx="187" cy="341.3" r="3.9"/>
	<circle cx="225.1" cy="341.3" r="3.9"/>
	<circle cx="260.8" cy="340" r="3.9"/>
	<circle cx="295.4" cy="338.9" r="3.9"/>
	<circle cx="328.9" cy="338.9" r="3.9"/>
	<circle cx="325" cy="327" r="3.9"/>
	<circle cx="299.4" cy="321.4" r="3.9"/>
	<circle cx="280" cy="310.2" r="3.9"/>
	<circle cx="268.7" cy="294" r="3.9"/>
	<circle cx="276" cy="274.6" r="3.9"/>
	<circle cx="295.4" cy="261.4" r="3.9"/>
	<circle cx="317.8" cy="253.3" r="3.9"/>
	<circle cx="346.7" cy="243.2" r="3.9"/>
	<circle cx="380.2" cy="231.8" r="3.9"/>
	<circle cx="408.8" cy="221" r="3.9"/>
	<circle cx="437.7" cy="212.7" r="3.9"/>
	<circle cx="463" cy="222.4" r="3.9"/>
	<circle cx="483" cy="231.8" r="3.9"/>
	<circle cx="481" cy="210.2" r="3.9"/>
	<circle cx="477.1" cy="192.5" r="3.9"/>
	<circle cx="488.9" cy="178.7" r="3.9"/>
	<circle cx="488.9" cy="161.7" r="3.9"/>
	<circle cx="463" cy="159.2" r="3.9"/>
	<circle cx="437.7" cy="161.7" r="3.9"/>
	<circle cx="406.5" cy="165.6" r="3.9"/>
	<circle cx="380.2" cy="169.6" r="3.9"/>
	<circle cx="364.1" cy="187.4" r="3.9"/>
	<circle cx="335.2" cy="191.3" r="3.9"/>
	<circle cx="305.3" cy="188.5" r="3.9"/>
	<circle cx="297.5" cy="172.5" r="3.9"/>
	<circle cx="279.7" cy="159.2" r="3.9"/>
	<circle cx="254.7" cy="151.3" r="3.9"/>
	<circle cx="226.8" cy="151.3" r="3.9"/>
	<circle cx="202.4" cy="159.2" r="3.9"/>
	<circle cx="184.7" cy="168.5" r="3.9"/>
	<circle cx="168.7" cy="180" r="3.9"/>
	<circle cx="144.9" cy="184.5" r="3.9"/>
	<circle cx="114.1" cy="187.3" r="3.9"/>
	<circle cx="100.7" cy="179.4" r="3.9"/>
	<circle cx="104.7" cy="161.7" r="3.9"/>
	<circle cx="122" cy="143.4" r="3.9"/>
	<circle cx="139.7" cy="137.8" r="3.9"/>
</g>
</svg>
