<?xml version="1.0" encoding="utf-8"?>
<!-- Generator: Adobe Illustrator 22.1.0, SVG Export Plug-In . SVG Version: 6.00 Build 0)  -->
<svg version="1.1" id="Layer_1" xmlns="http://www.w3.org/2000/svg" xmlns:xlink="http://www.w3.org/1999/xlink" x="0px" y="0px"
	 viewBox="0 0 512 512" style="enable-background:new 0 0 512 512;" xml:space="preserve">
<style type="text/css">
	.st0{fill:none;stroke:#000000;stroke-width:5;stroke-linecap:round;stroke-linejoin:round;stroke-miterlimit:10;}
	.st1{opacity:0;}
</style>
<g>
	<path class="st0" d="M453.2,318.4c0,13.2-10.7,23.8-23.8,23.8c-8.7,0-16.3-4.7-20.5-11.6c-2.1-3.6-3.4-7.8-3.4-12.2
		c0-0.4,0-0.7,0-1.1c0.6-12.6,11-22.7,23.8-22.7C442.5,294.6,453.2,305.3,453.2,318.4z"/>
	<polygon class="st0" points="375.4,90 311.8,90 301.1,170.8 301.1,251.6 375.4,251.6 	"/>
	<path class="st0" d="M184.5,318.4c0,2.3-0.3,4.5-0.9,6.5c-2.8,10-12,17.3-22.9,17.3c-8.3,0-15.6-4.3-19.9-10.7
		c-2.5-3.8-3.9-8.3-3.9-13.1c0-1,0.1-1.9,0.2-2.9c1.4-11.8,11.5-20.9,23.7-20.9c9.7,0,18,5.7,21.7,14
		C183.7,311.6,184.5,314.9,184.5,318.4z"/>
	<polygon class="st0" points="71.6,315 63.3,328.2 51.7,346.8 31.4,379.2 14.2,381.2 6.1,376.6 40.3,313.8 46.3,264.3 57.8,260.4 
		69.4,258.8 	"/>
	<line class="st0" x1="246.5" y1="190.9" x2="191.2" y2="190.9"/>
	<line class="st0" x1="191.2" y1="177.2" x2="246.5" y2="177.2"/>
	<line class="st0" x1="246.5" y1="218.3" x2="191.2" y2="218.3"/>
	<line class="st0" x1="191.2" y1="204.6" x2="246.5" y2="204.6"/>
	<path class="st0" d="M140.8,331.5l-19.2,3.3l-69.9,12l11.7-18.7l54.5-9.4l19.2-3.3c-0.1,1-0.2,1.9-0.2,2.9
		C136.8,323.3,138.3,327.8,140.8,331.5z"/>
	<path class="st0" d="M470.1,318.4c0,21-17,38-38,38H155.8c-15.1,0-28.1-8.8-34.3-21.6l19.2-3.3c-2.5-3.8-3.9-8.3-3.9-13.1
		c0-1,0.1-1.9,0.2-2.9l-19.2,3.3v-0.4c0-10.5,4.2-20,11.1-26.8c6.9-6.8,16.4-11,26.9-11h276.4C453.2,280.4,470.1,297.4,470.1,318.4z
		"/>
</g>
<g class="st1">
	<circle cx="300.3" cy="77.3" r="3.5"/>
	<circle cx="294.1" cy="110.9" r="3.5"/>
	<circle cx="289.4" cy="136.6" r="3.5"/>
	<circle cx="285.9" cy="159.3" r="3.5"/>
	<circle cx="257.1" cy="159.3" r="3.5"/>
	<circle cx="223.8" cy="159.3" r="3.5"/>
	<circle cx="197.1" cy="159.3" r="3.5"/>
	<circle cx="171.5" cy="159.3" r="3.5"/>
	<circle cx="169.8" cy="198.3" r="3.5"/>
	<circle cx="169.8" cy="227.4" r="3.5"/>
	<circle cx="169.8" cy="259.4" r="3.5"/>
	<circle cx="140.8" cy="262.9" r="3.5"/>
	<circle cx="117.8" cy="273.6" r="3.5"/>
	<circle cx="104.1" cy="289.3" r="3.5"/>
	<circle cx="96.2" cy="311.8" r="3.5"/>
	<circle cx="104.5" cy="346.8" r="3.5"/>
	<circle cx="121.3" cy="363.9" r="3.5"/>
	<circle cx="145.8" cy="374.4" r="3.5"/>
	<circle cx="176.8" cy="374.4" r="3.5"/>
	<circle cx="212.1" cy="374.4" r="3.5"/>
	<circle cx="246.5" cy="374.4" r="3.5"/>
	<circle cx="277.1" cy="372.9" r="3.5"/>
	<circle cx="301.1" cy="374.4" r="3.5"/>
	<circle cx="331.3" cy="374.4" r="3.5"/>
	<circle cx="357.6" cy="374.4" r="3.5"/>
	<circle cx="385.6" cy="374.4" r="3.5"/>
	<circle cx="410.6" cy="374.4" r="3.5"/>
	<circle cx="441.1" cy="374.4" r="3.5"/>
	<circle cx="462.5" cy="369.4" r="3.5"/>
	<circle cx="479.8" cy="356.4" r="3.5"/>
	<circle cx="490.1" cy="334.8" r="3.5"/>
	<circle cx="492.1" cy="312.4" r="3.5"/>
	<circle cx="486.6" cy="294.6" r="3.5"/>
	<circle cx="476.3" cy="275.6" r="3.5"/>
	<circle cx="451.5" cy="264.9" r="3.5"/>
	<circle cx="449.8" cy="243.6" r="3.5"/>
	<circle cx="449.8" cy="218.3" r="3.5"/>
	<circle cx="449.8" cy="187.4" r="3.5"/>
	<circle cx="432.5" cy="187.4" r="3.5"/>
	<circle cx="430.5" cy="160.9" r="3.5"/>
	<circle cx="429" cy="131.6" r="3.5"/>
	<circle cx="429" cy="103.9" r="3.5"/>
	<circle cx="427" cy="77.3" r="3.5"/>
	<circle cx="398.5" cy="77.3" r="3.5"/>
	<circle cx="368.1" cy="77.3" r="3.5"/>
	<circle cx="334.2" cy="77.4" r="3.5"/>
</g>
</svg>
