<?xml version="1.0" encoding="utf-8"?>
<!-- Generator: Adobe Illustrator 22.1.0, SVG Export Plug-In . SVG Version: 6.00 Build 0)  -->
<svg version="1.1" id="Layer_1" xmlns="http://www.w3.org/2000/svg" xmlns:xlink="http://www.w3.org/1999/xlink" x="0px" y="0px"
	 viewBox="0 0 512 512" style="enable-background:new 0 0 512 512;" xml:space="preserve">
<style type="text/css">
	.st0{fill:#FFFFFF;stroke:#000000;stroke-width:5;stroke-miterlimit:10;}
	.st1{opacity:0;}
</style>
<g>
	<circle class="st0" cx="123.7" cy="359.4" r="37.5"/>
	<path class="st0" d="M298.9,237.7c0,0-1.2,35.6-8,39.7l-105.8,2.5c0,0,36.8-31.7,72.1-39.3C292.5,233.2,298.9,237.7,298.9,237.7z"
		/>
	<path class="st0" d="M312.1,236.3v38.9h102.5c0,0-13.8-35-47.3-38.9H312.1z"/>
	<circle class="st0" cx="417.5" cy="359.4" r="37.5"/>
</g>
<g class="st1">
	<circle cx="251.5" cy="227" r="3.5"/>
	<circle cx="221.8" cy="236.4" r="3.5"/>
	<circle cx="195.8" cy="246.9" r="3.5"/>
	<circle cx="173.3" cy="258.1" r="3.5"/>
	<circle cx="149" cy="276.4" r="3.5"/>
	<circle cx="125" cy="278.4" r="3.5"/>
	<circle cx="98.8" cy="279.9" r="3.5"/>
	<circle cx="72.8" cy="285.4" r="3.5"/>
	<circle cx="49.9" cy="298" r="3.5"/>
	<circle cx="30.9" cy="318.4" r="3.5"/>
	<circle cx="30.9" cy="344.1" r="3.5"/>
	<circle cx="30.9" cy="369.8" r="3.5"/>
	<circle cx="52.1" cy="369.8" r="3.5"/>
	<circle cx="73.9" cy="369.8" r="3.5"/>
	<circle cx="73.9" cy="350" r="3.5"/>
	<circle cx="79.8" cy="332.3" r="3.5"/>
	<circle cx="95.3" cy="317.5" r="3.5"/>
	<circle cx="118.3" cy="310.5" r="3.5"/>
	<circle cx="141" cy="311.4" r="3.5"/>
	<circle cx="161.2" cy="324.5" r="3.5"/>
	<circle cx="173.3" cy="343" r="3.5"/>
	<circle cx="173.3" cy="369.8" r="3.5"/>
	<circle cx="206.3" cy="369.8" r="3.5"/>
	<circle cx="240" cy="369.8" r="3.5"/>
	<circle cx="270" cy="369.8" r="3.5"/>
	<circle cx="295.4" cy="369.8" r="3.5"/>
	<circle cx="327.1" cy="369" r="3.5"/>
	<circle cx="365.3" cy="369" r="3.5"/>
	<circle cx="368.8" cy="349" r="3.5"/>
	<circle cx="380" cy="327.7" r="3.5"/>
	<circle cx="401.3" cy="313" r="3.5"/>
	<circle cx="432.3" cy="311" r="3.5"/>
	<circle cx="453.7" cy="324.2" r="3.5"/>
	<circle cx="466.7" cy="342" r="3.5"/>
	<circle cx="466.7" cy="366.3" r="3.5"/>
	<circle cx="485.7" cy="359.4" r="3.5"/>
	<circle cx="497.1" cy="350.5" r="3.5"/>
	<circle cx="498.3" cy="331.2" r="3.5"/>
	<circle cx="489.2" cy="320" r="3.5"/>
	<circle cx="489.2" cy="289.4" r="3.5"/>
	<circle cx="473.7" cy="275.2" r="3.5"/>
	<circle cx="451.6" cy="258.1" r="3.5"/>
	<circle cx="428.8" cy="244.1" r="3.5"/>
	<circle cx="404.8" cy="231.8" r="3.5"/>
	<circle cx="387" cy="227" r="3.5"/>
	<circle cx="348.7" cy="227" r="3.5"/>
	<circle cx="312.1" cy="227" r="3.5"/>
	<circle cx="283.5" cy="227" r="3.5"/>
</g>
</svg>
