<?xml version="1.0" encoding="utf-8"?>
<!-- Generator: Adobe Illustrator 22.1.0, SVG Export Plug-In . SVG Version: 6.00 Build 0)  -->
<svg version="1.1" id="Layer_1" xmlns="http://www.w3.org/2000/svg" xmlns:xlink="http://www.w3.org/1999/xlink" x="0px" y="0px"
	 viewBox="0 0 512 512" style="enable-background:new 0 0 512 512;" xml:space="preserve">
<style type="text/css">
	.st0{fill:none;stroke:#000000;stroke-width:5;stroke-linecap:round;stroke-linejoin:round;stroke-miterlimit:10;}
	.st1{opacity:0;}
</style>
<g>
	<line class="st0" x1="497.7" y1="289.1" x2="332.5" y2="303.7"/>
	<polyline class="st0" points="355.5,222.1 334.5,251.4 48,251.4 	"/>
	<line class="st0" x1="63.9" y1="136" x2="79.8" y2="251.4"/>
	<line class="st0" x1="131.8" y1="135.3" x2="137.6" y2="251.4"/>
	<line class="st0" x1="200.8" y1="135.3" x2="200.8" y2="251.4"/>
	<polyline class="st0" points="272,135.3 261.6,175.8 259,251.4 	"/>
	<g>
		<path class="st0" d="M114.8,288.6c-23.4,0-42.3,19-42.3,42.3s18.9,42.3,42.3,42.3s42.3-19,42.3-42.3S138.3,288.6,114.8,288.6z
			 M114.9,341.6c-5.5,0-10-4.5-10-10s4.5-10,10-10s10,4.5,10,10S120.4,341.6,114.9,341.6z"/>
		<line class="st0" x1="124.9" y1="337.3" x2="147.4" y2="355.6"/>
		<line class="st0" x1="85.1" y1="305" x2="107.5" y2="323.2"/>
		<line class="st0" x1="106.6" y1="339.7" x2="87.9" y2="360"/>
		<line class="st0" x1="142.4" y1="300.8" x2="121.8" y2="323.2"/>
		<line class="st0" x1="115" y1="342.4" x2="114.8" y2="373.3"/>
		<line class="st0" x1="115.4" y1="291.7" x2="115.3" y2="320.8"/>
		<line class="st0" x1="126.3" y1="329.3" x2="153.9" y2="329.5"/>
		<line class="st0" x1="76.1" y1="328.9" x2="103.6" y2="329.1"/>
	</g>
	<g>
		<path class="st0" d="M272,291.1c-23.4,0-42.3,19-42.3,42.3s18.9,42.3,42.3,42.3c23.4,0,42.3-19,42.3-42.3S295.3,291.1,272,291.1z
			 M272,344.1c-5.5,0-10-4.5-10-10s4.5-10,10-10s10,4.5,10,10S277.6,344.1,272,344.1z"/>
		<line class="st0" x1="282" y1="339.9" x2="304.5" y2="358.2"/>
		<line class="st0" x1="242.3" y1="307.5" x2="264.6" y2="325.7"/>
		<line class="st0" x1="263.8" y1="342.2" x2="245.1" y2="362.6"/>
		<line class="st0" x1="299.5" y1="303.3" x2="279" y2="325.7"/>
		<line class="st0" x1="272.1" y1="344.9" x2="272" y2="375.8"/>
		<line class="st0" x1="272.5" y1="294.2" x2="272.3" y2="323.3"/>
		<line class="st0" x1="283.3" y1="331.8" x2="311" y2="332.1"/>
		<line class="st0" x1="233.3" y1="331.4" x2="260.8" y2="331.7"/>
	</g>
</g>
<g class="st1">
	<circle cx="47.4" cy="145" r="3.5"/>
	<circle cx="50.9" cy="175" r="3.5"/>
	<circle cx="56.4" cy="208" r="3.5"/>
	<circle cx="59.9" cy="242.8" r="3.5"/>
	<circle cx="54.7" cy="261.9" r="3.5"/>
	<circle cx="54.7" cy="279.6" r="3.5"/>
	<circle cx="54.7" cy="299.8" r="3.5"/>
	<circle cx="52.9" cy="321.6" r="3.5"/>
	<circle cx="65.7" cy="321.6" r="3.5"/>
	<circle cx="71.8" cy="300.8" r="3.5"/>
	<circle cx="85.1" cy="287.7" r="3.5"/>
	<circle cx="104.9" cy="279.6" r="3.5"/>
	<circle cx="124.9" cy="279.6" r="3.5"/>
	<circle cx="145.9" cy="287.7" r="3.5"/>
	<circle cx="158.7" cy="300.8" r="3.5"/>
	<circle cx="165.7" cy="320.5" r="3.5"/>
	<circle cx="195.4" cy="320.5" r="3.5"/>
	<circle cx="220.7" cy="320.5" r="3.5"/>
	<circle cx="229.6" cy="300.8" r="3.5"/>
	<circle cx="250.5" cy="287.6" r="3.5"/>
	<circle cx="279" cy="282.3" r="3.5"/>
	<circle cx="306" cy="291.2" r="3.5"/>
	<circle cx="317.8" cy="304.3" r="3.5"/>
	<circle cx="321.3" cy="320.9" r="3.5"/>
	<circle cx="333.7" cy="320.5" r="3.5"/>
	<circle cx="332.3" cy="296.4" r="3.5"/>
	<circle cx="332.3" cy="275.3" r="3.5"/>
	<circle cx="332.5" cy="263" r="3.5"/>
	<circle cx="313" cy="263" r="3.5"/>
	<circle cx="289.3" cy="261.9" r="3.5"/>
	<circle cx="274.5" cy="261.9" r="3.5"/>
	<circle cx="274.5" cy="240.3" r="3.5"/>
	<circle cx="274.5" cy="222.1" r="3.5"/>
	<circle cx="274.5" cy="200.8" r="3.5"/>
	<circle cx="274.1" cy="180.5" r="3.5"/>
	<circle cx="299.5" cy="169.5" r="3.5"/>
	<circle cx="320.8" cy="158.5" r="3.5"/>
	<circle cx="315" cy="142.5" r="3.5"/>
	<circle cx="294.7" cy="139" r="3.5"/>
	<circle cx="272" cy="127.5" r="3.5"/>
	<circle cx="254.2" cy="139" r="3.5"/>
	<circle cx="233.9" cy="140.5" r="3.5"/>
	<circle cx="215.7" cy="139" r="3.5"/>
	<circle cx="200.8" cy="127.5" r="3.5"/>
	<circle cx="186.1" cy="139" r="3.5"/>
	<circle cx="163.7" cy="142.5" r="3.5"/>
	<circle cx="144.4" cy="140.5" r="3.5"/>
	<circle cx="131.8" cy="127.5" r="3.5"/>
	<circle cx="116.5" cy="139" r="3.5"/>
	<circle cx="97.2" cy="140.5" r="3.5"/>
	<circle cx="73.9" cy="137" r="3.5"/>
	<circle cx="63.4" cy="127.5" r="3.5"/>
</g>
</svg>
