<?xml version="1.0" encoding="utf-8"?>
<!-- Generator: Adobe Illustrator 22.1.0, SVG Export Plug-In . SVG Version: 6.00 Build 0)  -->
<svg version="1.1" id="Layer_1" xmlns="http://www.w3.org/2000/svg" xmlns:xlink="http://www.w3.org/1999/xlink" x="0px" y="0px"
	 viewBox="0 0 512 512" style="enable-background:new 0 0 512 512;" xml:space="preserve">
<style type="text/css">
	.st0{fill:none;stroke:#000000;stroke-width:5;stroke-linecap:round;stroke-linejoin:round;stroke-miterlimit:10;}
	.st1{opacity:0;}
</style>
<g>
	<path class="st0" d="M127.7,283.8H57.4c-5.1,0-9.2-4.1-9.2-9.2l0,0c0-5.1,4.1-9.2,9.2-9.2h82.2"/>
	<path class="st0" d="M362.2,265.4h89.5c5.1,0,9.2,4.1,9.2,9.2l0,0c0,5.1-4.1,9.2-9.2,9.2h-79"/>
	<path class="st0" d="M108.7,329.7H57.4c-5.1,0-9.2-4.1-9.2-9.2l0,0c0-5.1,4.1-9.2,9.2-9.2h59.8"/>
	<path class="st0" d="M382.9,311.3h68.8c5.1,0,9.2,4.1,9.2,9.2l0,0c0,5.1-4.1,9.2-9.2,9.2h-61.5"/>
	<g>
		<path class="st0" d="M248.4,245.5c-64.1,0-115.8,52-115.8,115.8s51.7,115.8,115.8,115.8s115.8-52,115.8-115.8
			S312.4,245.5,248.4,245.5z M248.6,390.6c-15.1,0-27.4-12.3-27.4-27.4s12.3-27.4,27.4-27.4s27.4,12.3,27.4,27.4
			S263.7,390.6,248.6,390.6z"/>
		<line class="st0" x1="276" y1="378.8" x2="337.6" y2="428.9"/>
		<line class="st0" x1="160.9" y1="285.4" x2="228.4" y2="340.2"/>
		<line class="st0" x1="225.9" y1="385.4" x2="169.8" y2="446.3"/>
		<line class="st0" x1="323.9" y1="278.9" x2="267.5" y2="340.2"/>
		<line class="st0" x1="248.9" y1="392.7" x2="248.4" y2="477.3"/>
		<line class="st0" x1="248.4" y1="245.5" x2="249.4" y2="333.6"/>
		<line class="st0" x1="275.9" y1="357.3" x2="364.1" y2="357.9"/>
		<line class="st0" x1="132.7" y1="355.7" x2="222.1" y2="356.4"/>
	</g>
	<g>
		<path class="st0" d="M65.5,230.6c11.1-5.2,26.1-11.7,45.1-14.2c59.3-8.2,128.7-4.1,177.8-55.2c43.6-45.5,84.1-90.9,154.5-88.8"/>
	</g>
</g>
<g class="st1">
	<circle cx="45.7" cy="199.7" r="3.5"/>
	<circle cx="45.7" cy="237.8" r="3.5"/>
	<circle cx="59.7" cy="237.8" r="3.5"/>
	<circle cx="59.7" cy="257.5" r="3.5"/>
	<circle cx="59.7" cy="297.3" r="3.5"/>
	<circle cx="59.7" cy="352.3" r="3.5"/>
	<circle cx="89.7" cy="352.3" r="3.5"/>
	<circle cx="120.7" cy="352.3" r="3.5"/>
	<circle cx="127.7" cy="324" r="3.5"/>
	<circle cx="136.1" cy="297.3" r="3.5"/>
	<circle cx="150.7" cy="274.6" r="3.5"/>
	<circle cx="180.1" cy="254" r="3.5"/>
	<circle cx="217.7" cy="237.8" r="3.5"/>
	<circle cx="267.5" cy="230.8" r="3.5"/>
	<circle cx="310.3" cy="245.5" r="3.5"/>
	<circle cx="341.1" cy="268.9" r="3.5"/>
	<circle cx="364.1" cy="300.8" r="3.5"/>
	<circle cx="376.2" cy="329.7" r="3.5"/>
	<circle cx="376.2" cy="354.2" r="3.5"/>
	<circle cx="415.2" cy="354.2" r="3.5"/>
	<circle cx="454.2" cy="352.3" r="3.5"/>
	<circle cx="454.2" cy="297.3" r="3.5"/>
	<circle cx="454.2" cy="254" r="3.5"/>
	<circle cx="454.2" cy="218.7" r="3.5"/>
	<circle cx="454.2" cy="175.2" r="3.5"/>
	<circle cx="454.2" cy="134.5" r="3.5"/>
	<circle cx="454.2" cy="93.8" r="3.5"/>
	<circle cx="454.2" cy="72.2" r="3.5"/>
	<circle cx="472.6" cy="72.2" r="3.5"/>
	<circle cx="472.6" cy="38.2" r="3.5"/>
	<circle cx="444.2" cy="38.2" r="3.5"/>
	<circle cx="404.2" cy="41.7" r="3.5"/>
	<circle cx="360.6" cy="51.7" r="3.5"/>
	<circle cx="325.7" cy="68.7" r="3.5"/>
	<circle cx="293.2" cy="90.3" r="3.5"/>
	<circle cx="264" cy="116.7" r="3.5"/>
	<circle cx="231.9" cy="145.2" r="3.5"/>
	<circle cx="192.7" cy="171.7" r="3.5"/>
	<circle cx="147.2" cy="182.2" r="3.5"/>
	<circle cx="108.7" cy="182.2" r="3.5"/>
	<circle cx="73.7" cy="185.7" r="3.5"/>
</g>
</svg>
