<?xml version="1.0" encoding="utf-8"?>
<!-- Generator: Adobe Illustrator 22.1.0, SVG Export Plug-In . SVG Version: 6.00 Build 0)  -->
<svg version="1.1" id="Layer_1" xmlns="http://www.w3.org/2000/svg" xmlns:xlink="http://www.w3.org/1999/xlink" x="0px" y="0px"
	 viewBox="0 0 512 512" style="enable-background:new 0 0 512 512;" xml:space="preserve">
<style type="text/css">
	.st0{fill:none;stroke:#000000;stroke-width:5;stroke-linecap:round;stroke-linejoin:round;stroke-miterlimit:10;}
	.st1{opacity:0;}
</style>
<g>
	<polygon class="st0" points="102.4,192.2 66.4,192.2 40.6,247.4 102.4,247.4 	"/>
	<path class="st0" d="M453.9,166.2v-9.8c0-7-5.7-12.7-12.7-12.7H286.9c-7.2,0-12.9,5.7-12.9,12.7v9.8"/>
	<path class="st0" d="M77.2,175.8V159c0-7.4,6.1-13.5,13.5-13.5l0,0c7.4,0,13.5,6.1,13.5,13.5c0,0,0,16.8,0,16.8"/>
	<line class="st0" x1="269.7" y1="183.2" x2="497.1" y2="183.2"/>
	<line class="st0" x1="269.7" y1="230.6" x2="497.1" y2="230.6"/>
	<circle class="st0" cx="109.9" cy="337.1" r="39.5"/>
	<circle class="st0" cx="382.6" cy="337.1" r="39.5"/>
	<line class="st0" x1="292.9" y1="183.2" x2="292.9" y2="230.4"/>
	<line class="st0" x1="325.6" y1="183.2" x2="325.6" y2="230.4"/>
	<line class="st0" x1="360.2" y1="183.2" x2="360.2" y2="230.4"/>
	<line class="st0" x1="395.2" y1="183.2" x2="395.2" y2="230.4"/>
	<line class="st0" x1="427.9" y1="183.2" x2="427.9" y2="230.4"/>
	<line class="st0" x1="462.6" y1="183.2" x2="462.6" y2="230.4"/>
</g>
<g class="st1">
	<circle cx="65.6" cy="166.8" r="3.5"/>
	<circle cx="48.2" cy="196.1" r="3.5"/>
	<circle cx="34.6" cy="216.3" r="3.5"/>
	<circle cx="27.3" cy="241" r="3.5"/>
	<circle cx="27.3" cy="273.4" r="3.5"/>
	<circle cx="27.3" cy="305.7" r="3.5"/>
	<circle cx="10.6" cy="306" r="3.5"/>
	<circle cx="10.6" cy="330.3" r="3.5"/>
	<circle cx="27.3" cy="330" r="3.5"/>
	<circle cx="60.1" cy="330.4" r="3.5"/>
	<circle cx="69.1" cy="309.5" r="3.5"/>
	<circle cx="85.2" cy="292.5" r="3.5"/>
	<circle cx="109.9" cy="285.5" r="3.5"/>
	<circle cx="133.9" cy="294.1" r="3.5"/>
	<circle cx="149.4" cy="307.5" r="3.5"/>
	<circle cx="158.2" cy="330.3" r="3.5"/>
	<circle cx="183.7" cy="330.3" r="3.5"/>
	<circle cx="217.6" cy="330.3" r="3.5"/>
	<circle cx="258.7" cy="328.5" r="3.5"/>
	<circle cx="292.9" cy="328.5" r="3.5"/>
	<circle cx="331.4" cy="330.3" r="3.5"/>
	<circle cx="339.5" cy="312.2" r="3.5"/>
	<circle cx="356.7" cy="294.1" r="3.5"/>
	<circle cx="386.9" cy="285.5" r="3.5"/>
	<circle cx="412.4" cy="294.1" r="3.5"/>
	<circle cx="429.6" cy="312.2" r="3.5"/>
	<circle cx="433.1" cy="328.5" r="3.5"/>
	<circle cx="462.6" cy="330.3" r="3.5"/>
	<circle cx="497.1" cy="330.3" r="3.5"/>
	<circle cx="497.1" cy="309.3" r="3.5"/>
	<circle cx="483.4" cy="309.3" r="3.5"/>
	<circle cx="483.4" cy="278.5" r="3.5"/>
	<circle cx="483.4" cy="245.3" r="3.5"/>
	<circle cx="483.4" cy="208.5" r="3.5"/>
	<circle cx="483.4" cy="166.8" r="3.5"/>
	<circle cx="462.6" cy="166.8" r="3.5"/>
	<circle cx="433.9" cy="166.8" r="3.5"/>
	<circle cx="389.2" cy="166.8" r="3.5"/>
	<circle cx="345.9" cy="166.8" r="3.5"/>
	<circle cx="307.2" cy="166.8" r="3.5"/>
	<circle cx="247.3" cy="166.8" r="3.5"/>
	<circle cx="247.3" cy="196.1" r="3.5"/>
	<circle cx="226.4" cy="196.1" r="3.5"/>
	<circle cx="226.4" cy="166.8" r="3.5"/>
	<circle cx="184.7" cy="166.8" r="3.5"/>
	<circle cx="150.3" cy="166.8" r="3.5"/>
	<circle cx="115" cy="166.8" r="3.5"/>
	<circle cx="90.7" cy="166.8" r="3.5"/>
</g>
</svg>
