<?xml version="1.0" encoding="utf-8"?>
<!-- Generator: Adobe Illustrator 22.1.0, SVG Export Plug-In . SVG Version: 6.00 Build 0)  -->
<svg version="1.1" id="Layer_2" xmlns="http://www.w3.org/2000/svg" xmlns:xlink="http://www.w3.org/1999/xlink" x="0px" y="0px"
	 viewBox="0 0 512 512" style="enable-background:new 0 0 512 512;" xml:space="preserve">
<style type="text/css">
	.st0{fill:none;stroke:#000000;stroke-width:5;stroke-linecap:round;stroke-linejoin:round;stroke-miterlimit:10;}
	.st1{opacity:0;}
</style>
<g>
	<circle class="st0" cx="391.3" cy="278.2" r="35.1"/>
	<line class="st0" x1="461" y1="271.3" x2="490.5" y2="271.3"/>
	<path class="st0" d="M499.5,236.5c0,0-17,37,0,68"/>
	<g>
		<circle class="st0" cx="94.3" cy="278.2" r="35.1"/>
	</g>
	<polygon class="st0" points="315.8,202.7 315.8,142.2 378.3,142.2 407.5,202.7 	"/>
	<polyline class="st0" points="287.5,128 287.5,207 23,207 	"/>
</g>
<g class="st1">
	<circle cx="10.5" cy="143.5" r="3.5"/>
	<circle cx="10.5" cy="173.5" r="3.5"/>
	<circle cx="10.5" cy="200.5" r="3.5"/>
	<circle cx="9.5" cy="232.5" r="3.5"/>
	<circle cx="9.5" cy="256.5" r="3.5"/>
	<circle cx="10.5" cy="278.5" r="3.5"/>
	<circle cx="38.5" cy="278.5" r="3.5"/>
	<circle cx="45.5" cy="252.5" r="3.5"/>
	<circle cx="67.5" cy="232.5" r="3.5"/>
	<circle cx="97.5" cy="225.5" r="3.5"/>
	<circle cx="122.5" cy="232.5" r="3.5"/>
	<circle cx="136.5" cy="249.5" r="3.5"/>
	<circle cx="141.5" cy="275.5" r="3.5"/>
	<circle cx="172.5" cy="275.5" r="3.5"/>
	<circle cx="207.5" cy="275.5" r="3.5"/>
	<circle cx="241.5" cy="275.5" r="3.5"/>
	<circle cx="272.5" cy="275.5" r="3.5"/>
	<circle cx="304.5" cy="275.5" r="3.5"/>
	<circle cx="337.5" cy="275.5" r="3.5"/>
	<circle cx="347.5" cy="250.5" r="3.5"/>
	<circle cx="371.5" cy="229.5" r="3.5"/>
	<circle cx="401.5" cy="225.5" r="3.5"/>
	<circle cx="422.5" cy="236.5" r="3.5"/>
	<circle cx="436.5" cy="250.5" r="3.5"/>
	<circle cx="440.5" cy="272.5" r="3.5"/>
	<circle cx="451.5" cy="269.5" r="3.5"/>
	<circle cx="451.5" cy="248.5" r="3.5"/>
	<circle cx="450.5" cy="210.5" r="3.5"/>
	<circle cx="436.5" cy="187.5" r="3.5"/>
	<circle cx="418.5" cy="163.5" r="3.5"/>
	<circle cx="404.5" cy="138.5" r="3.5"/>
	<circle cx="390.5" cy="118.5" r="3.5"/>
	<circle cx="352.5" cy="118.5" r="3.5"/>
	<circle cx="314.5" cy="119.5" r="3.5"/>
	<circle cx="275.5" cy="118.5" r="3.5"/>
	<circle cx="259.5" cy="131.5" r="3.5"/>
	<circle cx="241.5" cy="142.5" r="3.5"/>
	<circle cx="211.5" cy="142.5" r="3.5"/>
	<circle cx="175.5" cy="143.5" r="3.5"/>
	<circle cx="134.5" cy="143.5" r="3.5"/>
	<circle cx="102.5" cy="142.5" r="3.5"/>
	<circle cx="61.5" cy="143.5" r="3.5"/>
	<circle cx="34.5" cy="142.5" r="3.5"/>
</g>
</svg>
