<?xml version="1.0" encoding="utf-8"?>
<!-- Generator: Adobe Illustrator 22.1.0, SVG Export Plug-In . SVG Version: 6.00 Build 0)  -->
<svg version="1.1" id="Layer_1" xmlns="http://www.w3.org/2000/svg" xmlns:xlink="http://www.w3.org/1999/xlink" x="0px" y="0px"
	 viewBox="0 0 512 512" style="enable-background:new 0 0 512 512;" xml:space="preserve">
<style type="text/css">
	.st0{opacity:0;}
	.st1{fill:none;stroke:#000000;stroke-width:5;stroke-linecap:round;stroke-linejoin:round;stroke-miterlimit:10;}
	.st2{display:none;}
	.st3{display:inline;fill:none;stroke:#000000;stroke-width:5;stroke-linecap:round;stroke-linejoin:round;stroke-miterlimit:10;}
</style>
<g class="st0">
	<polyline class="st1" points="321,233.3 321,125.4 402,198.2 443.5,235.7 	"/>
	<path class="st1" d="M190.4,156l-22.3,82.4"/>
	<g>
		<g id="_x30_1_1_" class="st2">
			<path class="st3" d="M180.6,336.5l-0.2-7.2h-2.3c-0.3-2.8-0.8-5.4-1.5-7.9l2.1-0.7l-2.3-6.9l-2.1,0.7c-1.2-2.5-2.3-4.9-3.8-7.1
				l1.8-1.3l-4.3-5.8l-1.8,1.3c-1.8-2-3.8-3.9-5.8-5.6l1.3-1.8l-5.9-4.3l-1.3,1.8c-2.3-1.3-4.8-2.6-7.2-3.6l0.7-2.1l-6.9-2.1
				l-0.7,2.1c-2.6-0.7-5.3-1-8.1-1.2v-2.3h-7.2v2.3c-4.3,0.3-8.2,1.2-12.2,2.5l-0.8-2l-6.7,2.8l0.8,2.1c-2.5,1.3-4.8,2.6-6.9,4.3
				l-1.5-1.6l-5.6,4.8l1.5,1.6c-2,2-3.6,3.9-5.3,6.1l-2-1.2l-3.8,6.1l2,1.2c-1.3,2.5-2.3,4.9-3.1,7.4l-2.1-0.5l-1.8,7.1l2.1,0.5
				c-0.5,2.6-0.7,5.3-0.7,8.1l-2.3,0.2l0.5,7.2l2.3-0.2c0.3,2.6,1,5.4,1.8,7.9l-2.1,0.8l2.6,6.7l2.1-0.8c1.2,2.5,2.6,4.8,4.1,6.9
				l-1.8,1.5l4.6,5.6l1.8-1.5c1.8,2,3.9,3.8,6.1,5.4l-1.2,1.8l6.1,3.9l1.2-1.8c2.3,1.3,4.8,2.5,7.4,3.3l-0.7,2.1l7.1,2l0.7-2.1
				c2.6,0.5,5.3,0.8,8.1,0.8l0.2,2.3l7.2-0.3l-0.2-2.3c2.8-0.3,5.4-0.8,7.9-1.6l0.8,2.1l6.7-2.5l-0.8-2.1c2.5-1.2,4.8-2.5,7.1-3.9
				l1.3,1.8l5.8-4.4l-1.3-1.8c2-1.8,3.8-3.8,5.6-5.9l1.8,1.3l4.1-5.9l-1.8-1.3c1.3-2.3,2.5-4.8,3.5-7.4l2.1,0.7l2.1-6.9l-2.1-0.7
				c0.5-2.6,1-5.3,1-8.1L180.6,336.5z"/>
			<circle class="st3" cx="128.7" cy="334.2" r="32.3"/>
		</g>
		<g id="_x30_2_1_" class="st2">
			<path class="st3" d="M167.1,299.2l-5.3-4.9l-1.5,1.6c-2.1-1.8-4.3-3.3-6.6-4.6l1-2l-6.6-3.1l-1,2c-2.5-1-5.1-1.8-7.7-2.3l0.3-2.1
				l-7.2-1l-0.3,2.3c-2.6-0.2-5.4-0.2-8.1,0.2l-0.3-2.1l-7.1,1.2l0.3,2.3c-2.6,0.7-5.3,1.5-7.7,2.6l-1-2l-6.4,3.3l1,2
				c-2.3,1.5-4.4,3-6.6,4.8l-1.6-1.6l-5.1,5.1l1.6,1.6c-2.8,3.1-5.1,6.7-6.9,10.4l-2.1-0.8l-2.8,6.7l2.1,0.8
				c-0.8,2.6-1.5,5.3-1.8,7.9l-2.3-0.2l-0.5,7.2l2.3,0.2c0,2.6,0.2,5.4,0.7,8.1l-2.1,0.5l1.6,7.1l2.1-0.5c0.8,2.6,1.8,5.1,3.1,7.6
				l-2,1.2l3.8,6.3l2-1.2c1.5,2.1,3.3,4.3,5.3,6.3l-1.5,1.6l5.4,4.8l1.5-1.6c2.1,1.6,4.4,3.1,6.9,4.3l-0.8,2l6.6,3l0.8-2.1
				c2.6,0.8,5.3,1.5,7.9,2l-0.2,2.3l7.2,0.7l0.2-2.3c2.6,0,5.4-0.2,8.1-0.5l0.5,2.1l7.1-1.5l-0.5-2.1c2.6-0.8,5.1-1.6,7.6-3l1.2,2
				l6.3-3.6l-1.2-2c2.1-1.5,4.3-3.1,6.3-5.1l1.6,1.5l4.9-5.3l-1.6-1.5c1.6-2.1,3.1-4.4,4.4-6.7l2,1l3-6.6l-2-1
				c1-2.5,1.6-5.1,2.1-7.7l2.1,0.3l0.8-7.2l-2.3-0.3c0.2-2.6,0-5.4-0.3-8.1l2.1-0.5l-1.3-7.1l-2.1,0.5c-0.7-2.6-1.6-5.1-2.8-7.6l2-1
				l-3.5-6.4l-2,1.2c-1.5-2.3-3.1-4.4-4.9-6.4L167.1,299.2z"/>
			<circle class="st3" cx="128.7" cy="334" r="32.3"/>
		</g>
		<g id="_x30_3_1_" class="st2">
			<path class="st3" d="M131.1,282.4l-7.2,0.2v2.3c-2.8,0.3-5.4,0.8-7.9,1.5l-0.7-2.1l-6.9,2.3l0.7,2.1c-2.5,1.2-4.9,2.3-7.1,3.8
				l-1.3-1.8l-5.8,4.3l1.3,1.8c-2,1.8-3.9,3.8-5.6,5.8l-1.8-1.3l-4.3,5.9l1.8,1.3c-1.3,2.3-2.6,4.8-3.6,7.2l-2.1-0.7l-2.1,6.9
				l2.1,0.7c-0.7,2.6-1,5.3-1.2,8.1h-2.3v7.2h2.3c0.3,4.3,1.2,8.2,2.5,12.2l-2,0.8l2.8,6.7l2.1-0.8c1.3,2.5,2.6,4.8,4.3,6.9
				l-1.6,1.5l4.8,5.6l1.6-1.5c2,2,3.9,3.6,6.1,5.3l-1.2,2l6.1,3.8l1.2-2c2.5,1.3,4.9,2.3,7.4,3.1l-0.5,2.1l7.1,1.8l0.5-2.1
				c2.6,0.5,5.3,0.7,8.1,0.7l0.2,2.3l7.2-0.5l-0.2-2.3c2.6-0.3,5.4-1,7.9-1.8l0.8,2.1l6.7-2.6l-0.8-2.1c2.5-1.2,4.8-2.6,6.9-4.1
				l1.5,1.8l5.6-4.6l-1.5-1.8c2-1.8,3.8-3.9,5.4-6.1l1.8,1.2l3.9-6.1l-1.8-1.2c1.3-2.3,2.5-4.8,3.3-7.4l2.1,0.7l2-7.1l-2.1-0.7
				c0.5-2.6,0.8-5.3,0.8-8.1l2.3-0.2l-0.3-7.2l-2.3,0.2c-0.3-2.8-0.8-5.4-1.6-7.9l2.1-0.8l-2.5-6.7l-2.1,0.8
				c-1.2-2.5-2.5-4.8-3.9-7.1l1.8-1.3l-4.4-5.8l-1.8,1.3c-1.8-2-3.8-3.8-5.9-5.6l1.3-1.8l-5.9-4.1l-1.3,1.8
				c-2.3-1.3-4.8-2.5-7.4-3.5l0.7-2.1l-6.9-2.1l-0.7,2.1c-2.6-0.5-5.3-1-8.1-1L131.1,282.4z"/>
			<circle class="st3" cx="128.7" cy="334.2" r="32.3"/>
		</g>
		<g id="_x30_4_1_" class="st2">
			<path class="st3" d="M93.7,295.9l-4.9,5.3l1.6,1.5c-1.8,2.1-3.3,4.3-4.6,6.6l-2-1l-3.1,6.6l2,1c-1,2.5-1.8,5.1-2.3,7.7l-2.1-0.3
				l-1,7.2l2.3,0.3c-0.2,2.6-0.2,5.4,0.2,8.1l-2.1,0.3l1.2,7.1l2.3-0.3c0.7,2.6,1.5,5.3,2.6,7.7l-2,1L85,361l2-1
				c1.5,2.3,3,4.4,4.8,6.6l-1.6,1.6l5.1,5.1l1.6-1.6c3.1,2.8,6.7,5.1,10.4,6.9l-0.8,2.1l6.7,2.8l0.8-2.1c2.6,0.8,5.3,1.5,7.9,1.8
				l-0.2,2.3l7.2,0.5l0.2-2.3c2.6,0,5.4-0.2,8.1-0.7l0.5,2.1l7.1-1.6l-0.5-2.1c2.6-0.8,5.1-1.8,7.6-3.1l1.2,2l6.3-3.8l-1.2-2
				c2.1-1.5,4.3-3.3,6.3-5.3l1.6,1.5l4.8-5.4l-1.6-1.5c1.6-2.1,3.1-4.4,4.3-6.9l2,0.8l3-6.6l-2.1-0.8c0.8-2.6,1.5-5.3,2-7.9l2.3,0.2
				l0.7-7.2l-2.3-0.2c0-2.6-0.2-5.4-0.5-8.1l2.1-0.5l-1.5-7.1l-2.1,0.5c-0.8-2.6-1.6-5.1-3-7.6l2-1.2l-3.6-6.3l-2,1.2
				c-1.5-2.1-3.1-4.3-5.1-6.3l1.5-1.6l-5.3-4.9l-1.5,1.6c-2.1-1.6-4.4-3.1-6.7-4.4l1-2l-6.6-3l-1,2c-2.5-1-5.1-1.6-7.7-2.1l0.3-2.1
				l-7.2-0.8l-0.3,2.3c-2.6-0.2-5.4,0-8.1,0.3L123,283l-7.1,1.3l0.5,2.1c-2.6,0.7-5.1,1.6-7.6,2.8l-1-2l-6.4,3.5l1.2,2
				c-2.3,1.5-4.4,3.1-6.4,4.9L93.7,295.9z"/>
			<circle class="st3" cx="128.7" cy="334.2" r="32.3"/>
		</g>
		<g id="_x30_5_1_">
			<circle class="st1" cx="128.7" cy="334.2" r="49.8"/>
		</g>
	</g>
	<line class="st1" x1="183.9" y1="258.5" x2="215.3" y2="231.3"/>
	<line class="st1" x1="198.3" y1="210.1" x2="239" y2="253.5"/>
	<circle class="st1" cx="128.7" cy="334.2" r="32.3"/>
	<g>
		<g id="_x30_1_2_" class="st2">
			<path class="st3" d="M438.8,331.7l-0.2-7.2h-2.3c-0.3-2.8-0.8-5.4-1.5-7.9l2.1-0.7l-2.3-6.9l-2.1,0.7c-1.2-2.5-2.3-4.9-3.8-7.1
				l1.8-1.3l-4.3-5.8l-1.8,1.3c-1.8-2-3.8-3.9-5.8-5.6l1.3-1.8l-5.9-4.3l-1.3,1.8c-2.3-1.3-4.8-2.6-7.2-3.6l0.7-2.1l-6.9-2.1
				l-0.7,2.1c-2.6-0.7-5.3-1-8.1-1.2v-2.3h-7.2v2.3c-4.3,0.3-8.2,1.2-12.2,2.5l-0.8-2l-6.7,2.8l0.8,2.1c-2.5,1.3-4.8,2.6-6.9,4.3
				l-1.5-1.6l-5.6,4.8l1.5,1.6c-2,2-3.6,3.9-5.3,6.1l-2-1.2l-3.8,6.1l2,1.2c-1.3,2.5-2.3,4.9-3.1,7.4l-2.1-0.5l-1.8,7.1l2.1,0.5
				c-0.5,2.6-0.7,5.3-0.7,8.1l-2.3,0.2l0.5,7.2l2.3-0.2c0.3,2.6,1,5.4,1.8,7.9l-2.1,0.8l2.6,6.7l2.1-0.8c1.2,2.5,2.6,4.8,4.1,6.9
				l-1.8,1.5l4.6,5.6l1.8-1.5c1.8,2,3.9,3.8,6.1,5.4l-1.2,1.8l6.1,3.9l1.2-1.8c2.3,1.3,4.8,2.5,7.4,3.3l-0.7,2.1l7.1,2l0.7-2.1
				c2.6,0.5,5.3,0.8,8.1,0.8l0.2,2.3l7.2-0.3l-0.2-2.3c2.8-0.3,5.4-0.8,7.9-1.6l0.8,2.1l6.7-2.5l-0.8-2.1c2.5-1.2,4.8-2.5,7.1-3.9
				l1.3,1.8l5.8-4.4l-1.3-1.8c2-1.8,3.8-3.8,5.6-5.9l1.8,1.3l4.1-5.9l-1.8-1.3c1.3-2.3,2.5-4.8,3.5-7.4l2.1,0.7l2.1-6.9l-2.1-0.7
				c0.5-2.6,1-5.3,1-8.1L438.8,331.7z"/>
			<circle class="st3" cx="387" cy="329.4" r="32.3"/>
		</g>
		<g id="_x30_2_2_" class="st2">
			<path class="st3" d="M425.4,294.4l-5.3-4.9l-1.5,1.6c-2.1-1.8-4.3-3.3-6.6-4.6l1-2l-6.6-3.1l-1,2c-2.5-1-5.1-1.8-7.7-2.3l0.3-2.1
				l-7.2-1l-0.3,2.3c-2.6-0.2-5.4-0.2-8.1,0.2l-0.3-2.1l-7.1,1.2l0.3,2.3c-2.6,0.7-5.3,1.5-7.7,2.6l-1-2l-6.4,3.3l1,2
				c-2.3,1.5-4.4,3-6.6,4.8l-1.6-1.6l-5.1,5.1l1.6,1.6c-2.8,3.1-5.1,6.7-6.9,10.4l-2.1-0.8l-2.8,6.7l2.1,0.8
				c-0.8,2.6-1.5,5.3-1.8,7.9l-2.3-0.2l-0.5,7.2l2.3,0.2c0,2.6,0.2,5.4,0.7,8.1l-2.1,0.5l1.6,7.1l2.1-0.5c0.8,2.6,1.8,5.1,3.1,7.6
				l-2,1.2l3.8,6.3l2-1.2c1.5,2.1,3.3,4.3,5.3,6.3l-1.5,1.6l5.4,4.8l1.5-1.6c2.1,1.6,4.4,3.1,6.9,4.3l-0.8,2l6.6,3l0.8-2.1
				c2.6,0.8,5.3,1.5,7.9,2l-0.2,2.3l7.2,0.7l0.2-2.3c2.6,0,5.4-0.2,8.1-0.5l0.5,2.1l7.1-1.5l-0.5-2.1c2.6-0.8,5.1-1.6,7.6-3l1.2,2
				l6.3-3.6l-1.2-2c2.1-1.5,4.3-3.1,6.3-5.1l1.6,1.5l4.9-5.3l-1.6-1.5c1.6-2.1,3.1-4.4,4.4-6.7l2,1l3-6.6l-2-1
				c1-2.5,1.6-5.1,2.1-7.7l2.1,0.3l0.8-7.2l-2.3-0.3c0.2-2.6,0-5.4-0.3-8.1l2.1-0.5l-1.3-7.1l-2.1,0.5c-0.7-2.6-1.6-5.1-2.8-7.6l2-1
				l-3.5-6.4l-2,1.2c-1.5-2.3-3.1-4.4-4.9-6.4L425.4,294.4z"/>
			<circle class="st3" cx="387" cy="329.2" r="32.3"/>
		</g>
		<g id="_x30_3_2_" class="st2">
			<path class="st3" d="M389.3,277.6l-7.2,0.2v2.3c-2.8,0.3-5.4,0.8-7.9,1.5l-0.7-2.1l-6.9,2.3l0.7,2.1c-2.5,1.2-4.9,2.3-7.1,3.8
				l-1.3-1.8l-5.8,4.3l1.3,1.8c-2,1.8-3.9,3.8-5.6,5.8l-1.8-1.3l-4.3,5.9l1.8,1.3c-1.3,2.3-2.6,4.8-3.6,7.2l-2.1-0.7l-2.1,6.9
				l2.1,0.7c-0.7,2.6-1,5.3-1.2,8.1h-2.3v7.2h2.3c0.3,4.3,1.2,8.2,2.5,12.2l-2,0.8l2.8,6.7l2.1-0.8c1.3,2.5,2.6,4.8,4.3,6.9
				l-1.6,1.5l4.8,5.6l1.6-1.5c2,2,3.9,3.6,6.1,5.3l-1.2,2l6.1,3.8l1.2-2c2.5,1.3,4.9,2.3,7.4,3.1l-0.5,2.1l7.1,1.8l0.5-2.1
				c2.6,0.5,5.3,0.7,8.1,0.7l0.2,2.3l7.2-0.5l-0.2-2.3c2.6-0.3,5.4-1,7.9-1.8l0.8,2.1l6.7-2.6l-0.8-2.1c2.5-1.2,4.8-2.6,6.9-4.1
				l1.5,1.8l5.6-4.6l-1.5-1.8c2-1.8,3.8-3.9,5.4-6.1l1.8,1.2l3.9-6.1l-1.8-1.2c1.3-2.3,2.5-4.8,3.3-7.4l2.1,0.7l2-7.1l-2.1-0.7
				c0.5-2.6,0.8-5.3,0.8-8.1l2.3-0.2l-0.3-7.2l-2.3,0.2c-0.3-2.8-0.8-5.4-1.6-7.9l2.1-0.8l-2.5-6.7l-2.1,0.8
				c-1.2-2.5-2.5-4.8-3.9-7.1l1.8-1.3l-4.4-5.8l-1.8,1.3c-1.8-2-3.8-3.8-5.9-5.6l1.3-1.8l-5.9-4.1l-1.3,1.8
				c-2.3-1.3-4.8-2.5-7.4-3.5l0.7-2.1l-6.9-2.1l-0.7,2.1c-2.6-0.5-5.3-1-8.1-1L389.3,277.6z"/>
			<circle class="st3" cx="387" cy="329.4" r="32.3"/>
		</g>
		<g id="_x30_4_2_" class="st2">
			<path class="st3" d="M352,291.1l-4.9,5.3l1.6,1.5c-1.8,2.1-3.3,4.3-4.6,6.6l-2-1l-3.1,6.6l2,1c-1,2.5-1.8,5.1-2.3,7.7l-2.1-0.3
				l-1,7.2l2.3,0.3c-0.2,2.6-0.2,5.4,0.2,8.1l-2.1,0.3l1.2,7.1l2.3-0.3c0.7,2.6,1.5,5.3,2.6,7.7l-2,1l3.3,6.4l2-1
				c1.5,2.3,3,4.4,4.8,6.6l-1.6,1.6l5.1,5.1l1.6-1.6c3.1,2.8,6.7,5.1,10.4,6.9l-0.8,2.1l6.7,2.8l0.8-2.1c2.6,0.8,5.3,1.5,7.9,1.8
				l-0.2,2.3l7.2,0.5l0.2-2.3c2.6,0,5.4-0.2,8.1-0.7l0.5,2.1l7.1-1.6l-0.5-2.1c2.6-0.8,5.1-1.8,7.6-3.1l1.2,2l6.3-3.8l-1.2-2
				c2.1-1.5,4.3-3.3,6.3-5.3l1.6,1.5l4.8-5.4l-1.6-1.5c1.6-2.1,3.1-4.4,4.3-6.9l2,0.8l3-6.6l-2.1-0.8c0.8-2.6,1.5-5.3,2-7.9l2.3,0.2
				l0.7-7.2l-2.3-0.2c0-2.6-0.2-5.4-0.5-8.1l2.1-0.5l-1.5-7.1l-2.1,0.5c-0.8-2.6-1.6-5.1-3-7.6l2-1.2l-3.6-6.3l-2,1.2
				c-1.5-2.1-3.1-4.3-5.1-6.3l1.5-1.6l-5.3-4.9l-1.5,1.6c-2.1-1.6-4.4-3.1-6.7-4.4l1-2l-6.6-3l-1,2c-2.5-1-5.1-1.6-7.7-2.1l0.3-2.1
				l-7.2-0.8l-0.3,2.3c-2.6-0.2-5.4,0-8.1,0.3l-0.5-2.1l-7.1,1.3l0.5,2.1c-2.6,0.7-5.1,1.6-7.6,2.8l-1-2l-6.4,3.5l1.2,2
				c-2.3,1.5-4.4,3.1-6.4,4.9L352,291.1z"/>
			<circle class="st3" cx="387" cy="329.4" r="32.3"/>
		</g>
		<g id="_x30_5_2_">
			<circle class="st1" cx="387" cy="329.4" r="49.8"/>
		</g>
	</g>
	<circle class="st1" cx="387" cy="329.4" r="32.3"/>
	<g>
		<path class="st1" d="M312.8,233.3v-44.7l-8.7-3.5c-2.5-1-5.6,0.4-6.6,3.1l-33.1,83.9"/>
	</g>
</g>
<g>
	<circle cx="56.8" cy="238.6" r="3.5"/>
	<circle cx="56.8" cy="262.7" r="3.5"/>
	<circle cx="56.8" cy="289" r="3.5"/>
	<circle cx="38.2" cy="289" r="3.5"/>
	<circle cx="18.7" cy="289" r="3.5"/>
	<circle cx="18.7" cy="308" r="3.5"/>
	<circle cx="18.7" cy="327" r="3.5"/>
	<circle cx="44.9" cy="327" r="3.5"/>
	<circle cx="69.6" cy="327" r="3.5"/>
	<circle cx="78.9" cy="299.7" r="3.5"/>
	<circle cx="100" cy="279.6" r="3.5"/>
	<circle cx="126.7" cy="275.8" r="3.5"/>
	<circle cx="153.3" cy="279.3" r="3.5"/>
	<circle cx="173.3" cy="292.5" r="3.5"/>
	<circle cx="184" cy="311.7" r="3.5"/>
	<circle cx="187.5" cy="327" r="3.5"/>
	<circle cx="215.3" cy="328.5" r="3.5"/>
	<circle cx="255" cy="328.5" r="3.5"/>
	<circle cx="289" cy="328.5" r="3.5"/>
	<circle cx="324.5" cy="328.5" r="3.5"/>
	<circle cx="333.7" cy="302.5" r="3.5"/>
	<circle cx="354.7" cy="278" r="3.5"/>
	<circle cx="387" cy="268.8" r="3.5"/>
	<circle cx="415.8" cy="278" r="3.5"/>
	<circle cx="433.3" cy="293.7" r="3.5"/>
	<circle cx="443.5" cy="309.5" r="3.5"/>
	<circle cx="443.7" cy="329.4" r="3.5"/>
	<circle cx="468.7" cy="329.4" r="3.5"/>
	<circle cx="487.9" cy="328.5" r="3.5"/>
	<circle cx="487.9" cy="306" r="3.5"/>
	<circle cx="468.7" cy="306" r="3.5"/>
	<circle cx="457" cy="306" r="3.5"/>
	<circle cx="457" cy="274.5" r="3.5"/>
	<circle cx="458.2" cy="238.8" r="3.5"/>
	<circle cx="435.2" cy="238.4" r="3.5"/>
	<circle cx="433.3" cy="198.3" r="3.5"/>
	<circle cx="390.5" cy="198.3" r="3.5"/>
	<circle cx="362.1" cy="197.7" r="3.5"/>
	<circle cx="331.7" cy="197.7" r="3.5"/>
	<circle cx="334.2" cy="234.7" r="3.5"/>
	<circle cx="306.5" cy="234.7" r="3.5"/>
	<circle cx="299.5" cy="253.5" r="3.5"/>
	<circle cx="289.2" cy="272.3" r="3.5"/>
	<circle cx="257.5" cy="272.3" r="3.5"/>
	<circle cx="227.8" cy="272.3" r="3.5"/>
	<circle cx="193.3" cy="271.7" r="3.5"/>
	<circle cx="176.8" cy="238.6" r="3.5"/>
	<circle cx="142.2" cy="238.2" r="3.5"/>
	<circle cx="93" cy="238.6" r="3.5"/>
</g>
</svg>
