<?xml version="1.0" encoding="utf-8"?>
<!-- Generator: Adobe Illustrator 22.1.0, SVG Export Plug-In . SVG Version: 6.00 Build 0)  -->
<svg version="1.1" id="Layer_1" xmlns="http://www.w3.org/2000/svg" xmlns:xlink="http://www.w3.org/1999/xlink" x="0px" y="0px"
	 viewBox="0 0 512 512" style="enable-background:new 0 0 512 512;" xml:space="preserve">
<style type="text/css">
	.st0{opacity:0;}
	.st1{fill:none;stroke:#000000;stroke-width:5;stroke-linecap:round;stroke-linejoin:round;stroke-miterlimit:10;}
</style>
<g class="st0">
	<circle class="st1" cx="117.7" cy="297.4" r="30.7"/>
	<circle class="st1" cx="117.7" cy="297.4" r="19.7"/>
	<circle class="st1" cx="367.8" cy="297.4" r="30.7"/>
	<circle class="st1" cx="367.8" cy="297.4" r="19.7"/>
	<circle class="st1" cx="367.8" cy="297.4" r="30.7"/>
	<circle class="st1" cx="367.8" cy="297.4" r="19.7"/>
	<path class="st1" d="M61.1,147.9h46.4c2.5,0,4.7,2.5,4.7,5.7v41.4c0,3-2.1,5.7-4.7,5.7H52.8C52.8,200.6,53.7,158,61.1,147.9z"/>
	<line class="st1" x1="183.3" y1="147.9" x2="203.8" y2="218.8"/>
	<line class="st1" x1="283.6" y1="147.9" x2="305.6" y2="217.9"/>
	<line class="st1" x1="391.1" y1="147.9" x2="412" y2="218.8"/>
	<line class="st1" x1="440" y1="147.9" x2="472.5" y2="200.8"/>
	<polyline class="st1" points="440,226 151.9,226 139.5,143.3 	"/>
</g>
<g>
	<circle cx="49.3" cy="127.5" r="3.5"/>
	<circle cx="37.1" cy="146.8" r="3.5"/>
	<circle cx="30.1" cy="169.5" r="3.5"/>
	<circle cx="26.6" cy="197.3" r="3.5"/>
	<circle cx="26.6" cy="217.9" r="3.5"/>
	<circle cx="25" cy="238.5" r="3.5"/>
	<circle cx="25" cy="266.7" r="3.5"/>
	<circle cx="24" cy="295" r="3.5"/>
	<circle cx="53.3" cy="296.9" r="3.5"/>
	<circle cx="76.4" cy="296.9" r="3.5"/>
	<circle cx="82" cy="277.7" r="3.5"/>
	<circle cx="95.8" cy="259.5" r="3.5"/>
	<circle cx="115.7" cy="254.3" r="3.5"/>
	<circle cx="136" cy="257.8" r="3.5"/>
	<circle cx="151.9" cy="270.2" r="3.5"/>
	<circle cx="158.9" cy="294.6" r="3.5"/>
	<circle cx="186.8" cy="296.9" r="3.5"/>
	<circle cx="223.3" cy="296.9" r="3.5"/>
	<circle cx="259.5" cy="296.9" r="3.5"/>
	<circle cx="295.7" cy="296.9" r="3.5"/>
	<circle cx="328" cy="296.9" r="3.5"/>
	<circle cx="331.5" cy="277.7" r="3.5"/>
	<circle cx="344.6" cy="263.2" r="3.5"/>
	<circle cx="366" cy="256" r="3.5"/>
	<circle cx="387.6" cy="261.7" r="3.5"/>
	<circle cx="403.7" cy="276" r="3.5"/>
	<circle cx="407.2" cy="293.4" r="3.5"/>
	<circle cx="425.6" cy="293.4" r="3.5"/>
	<circle cx="454.9" cy="293.4" r="3.5"/>
	<circle cx="454.9" cy="265.2" r="3.5"/>
	<circle cx="454.9" cy="240" r="3.5"/>
	<circle cx="454.9" cy="226" r="3.5"/>
	<circle cx="476" cy="215.3" r="3.5"/>
	<circle class="st0" cx="497.2" cy="202.5" r="3.5"/>
	<circle class="st0" cx="483" cy="176.7" r="3.5"/>
	<circle cx="470.3" cy="154.7" r="3.5"/>
	<circle cx="454.9" cy="134" r="3.5"/>
	<circle cx="412" cy="134" r="3.5"/>
	<circle cx="373" cy="132.3" r="3.5"/>
	<circle cx="331.5" cy="130.5" r="3.5"/>
	<circle cx="287.1" cy="130.5" r="3.5"/>
	<circle cx="248" cy="131" r="3.5"/>
	<circle cx="209.3" cy="131" r="3.5"/>
	<circle cx="175.3" cy="131" r="3.5"/>
	<circle cx="148.6" cy="131" r="3.5"/>
	<circle cx="132.5" cy="113.4" r="3.5"/>
	<circle cx="85.3" cy="111.7" r="3.5"/>
	<circle cx="83.9" cy="124" r="3.5"/>
	<circle cx="66.6" cy="124" r="3.5"/>
</g>
</svg>
