<?xml version="1.0" encoding="utf-8"?>
<!-- Generator: Adobe Illustrator 22.1.0, SVG Export Plug-In . SVG Version: 6.00 Build 0)  -->
<svg version="1.1" id="Layer_1" xmlns="http://www.w3.org/2000/svg" xmlns:xlink="http://www.w3.org/1999/xlink" x="0px" y="0px"
	 viewBox="0 0 512 512" style="enable-background:new 0 0 512 512;" xml:space="preserve">
<style type="text/css">
	.st0{opacity:0;}
	.st1{fill:none;stroke:#000000;stroke-width:5;stroke-linecap:round;stroke-linejoin:round;stroke-miterlimit:10;}
</style>
<g class="st0">
	<path class="st1" d="M364.4,209.7c14.9-12.9,19.8-22.8,17.8-32.7c-2-9.6-12-27.3-31.5-40.6"/>
	<path class="st1" d="M70.3,226.5H33.7"/>
	<path class="st1" d="M480.3,220.8h-65.5"/>
	<circle class="st1" cx="104.9" cy="250.1" r="30.6"/>
	<circle class="st1" cx="384.5" cy="250.1" r="30.6"/>
	<path class="st1" d="M255.9,181.6l14.5-41.7c0,0-68.7-7.9-97.9,41.7H255.9z"/>
	<path class="st1" d="M355,181.6h-81l8.6-42.8l56.9,1.8c5.9,4.6,20,16.7,20,27.5C359.4,168.1,361.7,179.5,355,181.6z"/>
	<path class="st1" d="M483.8,183.1c0,0-14.6-2.7-19.2,6.3v13.5h19.2"/>
	<line class="st1" x1="341.6" y1="192.8" x2="361" y2="192"/>
	<line class="st1" x1="227.3" y1="192" x2="249.3" y2="192"/>
</g>
<g>
	<circle cx="216.8" cy="129.9" r="3.5"/>
	<circle cx="195" cy="139.9" r="3.5"/>
	<circle cx="169" cy="155.4" r="3.5"/>
	<circle cx="145.7" cy="175" r="3.5"/>
	<circle cx="104.9" cy="178.5" r="3.5"/>
	<circle cx="66.8" cy="186.2" r="3.5"/>
	<circle cx="37.9" cy="194.1" r="3.5"/>
	<circle cx="26.7" cy="224.5" r="3.5"/>
	<circle cx="13.2" cy="224.5" r="3.5"/>
	<circle cx="13.2" cy="255.8" r="3.5"/>
	<circle cx="63.3" cy="255.8" r="3.5"/>
	<circle cx="66.8" cy="235.5" r="3.5"/>
	<circle cx="77.8" cy="215" r="3.5"/>
	<circle cx="97.9" cy="208" r="3.5"/>
	<circle cx="122.5" cy="208" r="3.5"/>
	<circle cx="139.1" cy="221" r="3.5"/>
	<circle cx="142.6" cy="239" r="3.5"/>
	<circle cx="145.7" cy="252.3" r="3.5"/>
	<circle cx="179" cy="252.3" r="3.5"/>
	<circle cx="222.1" cy="252.3" r="3.5"/>
	<circle cx="259.6" cy="252.3" r="3.5"/>
	<circle cx="299.5" cy="252.3" r="3.5"/>
	<circle cx="335.8" cy="253.6" r="3.5"/>
	<circle cx="339.3" cy="232" r="3.5"/>
	<circle cx="359.8" cy="215" r="3.5"/>
	<circle cx="386.1" cy="208" r="3.5"/>
	<circle cx="407.5" cy="215" r="3.5"/>
	<circle cx="421.5" cy="232" r="3.5"/>
	<circle cx="425" cy="253.6" r="3.5"/>
	<circle cx="452.5" cy="252.3" r="3.5"/>
	<circle cx="483.8" cy="245.3" r="3.5"/>
	<circle cx="498.8" cy="235.5" r="3.5"/>
	<circle cx="495.3" cy="218.5" r="3.5"/>
	<circle cx="483.8" cy="211.5" r="3.5"/>
	<circle cx="483.7" cy="170.4" r="3.5"/>
	<circle cx="458" cy="170.4" r="3.5"/>
	<circle cx="435.3" cy="170.4" r="3.5"/>
	<circle cx="407.5" cy="155.4" r="3.5"/>
	<circle cx="379.1" cy="139.9" r="3.5"/>
	<circle cx="347.8" cy="129.9" r="3.5"/>
	<circle cx="313.4" cy="129.9" r="3.5"/>
	<circle cx="287.4" cy="129.9" r="3.5"/>
	<circle cx="290.9" cy="112.8" r="3.5"/>
	<circle cx="256.1" cy="112.8" r="3.5"/>
	<circle cx="256.1" cy="128.5" r="3.5"/>
	<circle cx="236.5" cy="128.5" r="3.5"/>
</g>
</svg>
