<?xml version="1.0" encoding="utf-8"?>
<!-- Generator: Adobe Illustrator 22.1.0, SVG Export Plug-In . SVG Version: 6.00 Build 0)  -->
<svg version="1.1" id="Layer_1" xmlns="http://www.w3.org/2000/svg" xmlns:xlink="http://www.w3.org/1999/xlink" x="0px" y="0px"
	 viewBox="0 0 512 512" style="enable-background:new 0 0 512 512;" xml:space="preserve">
<style type="text/css">
	.st0{display:none;}
	.st1{display:inline;fill:none;stroke:#000000;stroke-width:5;stroke-linecap:round;stroke-linejoin:round;stroke-miterlimit:10;}
	.st2{fill:none;stroke:#000000;stroke-width:5;stroke-linecap:round;stroke-linejoin:round;stroke-miterlimit:10;}
	.st3{opacity:0;}
</style>
<g id="_x30_1" class="st0">
	<path class="st1" d="M441.9,324l-0.2-8.5H439c-0.4-3.3-1-6.4-1.7-9.3l2.5-0.8l-2.7-8.1l-2.5,0.8c-1.4-2.9-2.7-5.8-4.5-8.3l2.1-1.6
		l-5-6.8l-2.1,1.6c-2.1-2.3-4.5-4.7-6.8-6.6l1.6-2.1l-7-5l-1.6,2.1c-2.7-1.6-5.6-3.1-8.5-4.3l0.8-2.5l-8.1-2.5l-0.8,2.5
		c-3.1-0.8-6.2-1.2-9.5-1.4v-2.7h-8.5v2.7c-5,0.4-9.7,1.4-14.3,2.9l-1-2.3l-7.9,3.3l1,2.5c-2.9,1.6-5.6,3.1-8.1,5l-1.7-1.9l-6.6,5.6
		l1.7,1.9c-2.3,2.3-4.3,4.7-6.2,7.2l-2.3-1.4l-4.5,7.2l2.3,1.4c-1.6,2.9-2.7,5.8-3.7,8.7l-2.5-0.6l-2.1,8.3l2.5,0.6
		c-0.6,3.1-0.8,6.2-0.8,9.5l-2.7,0.2l0.6,8.5l2.7-0.2c0.4,3.1,1.2,6.4,2.1,9.3l-2.5,1l3.1,7.9l2.5-1c1.4,2.9,3.1,5.6,4.8,8.1
		l-2.1,1.7l5.4,6.6l2.1-1.7c2.1,2.3,4.7,4.5,7.2,6.4l-1.4,2.1l7.2,4.7l1.4-2.1c2.7,1.6,5.6,2.9,8.7,3.9l-0.8,2.5l8.3,2.3l0.8-2.5
		c3.1,0.6,6.2,1,9.5,1l0.2,2.7l8.5-0.4l-0.2-2.7c3.3-0.4,6.4-1,9.3-1.9l1,2.5l7.9-2.9l-1-2.5c2.9-1.4,5.6-2.9,8.3-4.7l1.6,2.1
		l6.8-5.2l-1.6-2.1c2.3-2.1,4.5-4.5,6.6-7l2.1,1.6l4.8-7l-2.1-1.6c1.6-2.7,2.9-5.6,4.1-8.7l2.5,0.8l2.5-8.1l-2.5-0.8
		c0.6-3.1,1.2-6.2,1.2-9.5L441.9,324z"/>
	<circle class="st1" cx="380.9" cy="321.3" r="38"/>
</g>
<g id="_x30_2" class="st0">
	<path class="st1" d="M426,280l-6.2-5.8l-1.7,1.9c-2.5-2.1-5-3.9-7.8-5.4l1.2-2.3l-7.8-3.7l-1.2,2.3c-2.9-1.2-6-2.1-9.1-2.7l0.4-2.5
		l-8.5-1.2l-0.4,2.7c-3.1-0.2-6.4-0.2-9.5,0.2l-0.4-2.5l-8.3,1.4l0.4,2.7c-3.1,0.8-6.2,1.7-9.1,3.1l-1.2-2.3l-7.6,3.9l1.2,2.3
		c-2.7,1.7-5.2,3.5-7.8,5.6l-1.9-1.9l-6,6l1.9,1.9c-3.3,3.7-6,7.9-8.1,12.2l-2.5-1l-3.3,7.9l2.5,1c-1,3.1-1.7,6.2-2.1,9.3l-2.7-0.2
		l-0.6,8.5l2.7,0.2c0,3.1,0.2,6.4,0.8,9.5l-2.5,0.6l1.9,8.3l2.5-0.6c1,3.1,2.1,6,3.7,8.9l-2.3,1.4l4.5,7.4l2.3-1.4
		c1.7,2.5,3.9,5,6.2,7.4l-1.7,1.9l6.4,5.6l1.7-1.9c2.5,1.9,5.2,3.7,8.1,5l-1,2.3l7.8,3.5l1-2.5c3.1,1,6.2,1.7,9.3,2.3l-0.2,2.7
		l8.5,0.8l0.2-2.7c3.1,0,6.4-0.2,9.5-0.6l0.6,2.5l8.3-1.7l-0.6-2.5c3.1-1,6-1.9,8.9-3.5l1.4,2.3l7.4-4.3l-1.4-2.3
		c2.5-1.7,5-3.7,7.4-6l1.9,1.7l5.8-6.2L427,358c1.9-2.5,3.7-5.2,5.2-7.9l2.3,1.2l3.5-7.8l-2.3-1.2c1.2-2.9,1.9-6,2.5-9.1l2.5,0.4
		l1-8.5l-2.7-0.4c0.2-3.1,0-6.4-0.4-9.5l2.5-0.6l-1.6-8.3l-2.5,0.6c-0.8-3.1-1.9-6-3.3-8.9l2.3-1.2l-4.1-7.6l-2.3,1.4
		c-1.7-2.7-3.7-5.2-5.8-7.6L426,280z"/>
	<circle class="st1" cx="380.9" cy="321.1" r="38"/>
</g>
<g id="_x30_3" class="st0">
	<path class="st1" d="M383.6,260.3l-8.5,0.2v2.7c-3.3,0.4-6.4,1-9.3,1.7l-0.8-2.5l-8.1,2.7l0.8,2.5c-2.9,1.4-5.8,2.7-8.3,4.5
		l-1.6-2.1l-6.8,5l1.6,2.1c-2.3,2.1-4.7,4.5-6.6,6.8l-2.1-1.6l-5,7l2.1,1.6c-1.6,2.7-3.1,5.6-4.3,8.5l-2.5-0.8l-2.5,8.1l2.5,0.8
		c-0.8,3.1-1.2,6.2-1.4,9.5H320v8.5h2.7c0.4,5,1.4,9.7,2.9,14.3l-2.3,1l3.3,7.9l2.5-1c1.6,2.9,3.1,5.6,5,8.1l-1.9,1.7l5.6,6.6
		l1.9-1.7c2.3,2.3,4.7,4.3,7.2,6.2l-1.4,2.3l7.2,4.5l1.4-2.3c2.9,1.6,5.8,2.7,8.7,3.7l-0.6,2.5l8.3,2.1l0.6-2.5
		c3.1,0.6,6.2,0.8,9.5,0.8l0.2,2.7l8.5-0.6l-0.2-2.7c3.1-0.4,6.4-1.2,9.3-2.1l1,2.5l7.9-3.1l-1-2.5c2.9-1.4,5.6-3.1,8.1-4.8l1.7,2.1
		l6.6-5.4l-1.7-2.1c2.3-2.1,4.5-4.7,6.4-7.2l2.1,1.4l4.7-7.2l-2.1-1.4c1.6-2.7,2.9-5.6,3.9-8.7l2.5,0.8l2.3-8.3l-2.5-0.8
		c0.6-3.1,1-6.2,1-9.5l2.7-0.2l-0.4-8.5l-2.7,0.2c-0.4-3.3-1-6.4-1.9-9.3l2.5-1l-2.9-7.9l-2.5,1c-1.4-2.9-2.9-5.6-4.7-8.3l2.1-1.6
		l-5.2-6.8l-2.1,1.6c-2.1-2.3-4.5-4.5-7-6.6l1.6-2.1l-7-4.8l-1.6,2.1c-2.7-1.6-5.6-2.9-8.7-4.1l0.8-2.5l-8.1-2.5l-0.8,2.5
		c-3.1-0.6-6.2-1.2-9.5-1.2L383.6,260.3z"/>
	<circle class="st1" cx="380.9" cy="321.3" r="38"/>
</g>
<g id="_x30_4" class="st0">
	<path class="st1" d="M339.6,276.2l-5.8,6.2l1.9,1.7c-2.1,2.5-3.9,5-5.4,7.8l-2.3-1.2l-3.7,7.8l2.3,1.2c-1.2,2.9-2.1,6-2.7,9.1
		l-2.5-0.4l-1.2,8.5l2.7,0.4c-0.2,3.1-0.2,6.4,0.2,9.5l-2.5,0.4l1.4,8.3l2.7-0.4c0.8,3.1,1.7,6.2,3.1,9.1l-2.3,1.2l3.9,7.6l2.3-1.2
		c1.7,2.7,3.5,5.2,5.6,7.8l-1.9,1.9l6,6l1.9-1.9c3.7,3.3,7.9,6,12.2,8.1l-1,2.5l7.9,3.3l1-2.5c3.1,1,6.2,1.7,9.3,2.1l-0.2,2.7
		l8.5,0.6l0.2-2.7c3.1,0,6.4-0.2,9.5-0.8l0.6,2.5l8.3-1.9l-0.6-2.5c3.1-1,6-2.1,8.9-3.7l1.4,2.3l7.4-4.5l-1.4-2.3
		c2.5-1.7,5-3.9,7.4-6.2l1.9,1.7l5.6-6.4l-1.9-1.7c1.9-2.5,3.7-5.2,5-8.1l2.3,1l3.5-7.8l-2.5-1c1-3.1,1.7-6.2,2.3-9.3l2.7,0.2
		l0.8-8.5l-2.7-0.2c0-3.1-0.2-6.4-0.6-9.5l2.5-0.6l-1.7-8.3l-2.5,0.6c-1-3.1-1.9-6-3.5-8.9l2.3-1.4L432,287l-2.3,1.4
		c-1.7-2.5-3.7-5-6-7.4l1.7-1.9l-6.2-5.8l-1.7,1.9c-2.5-1.9-5.2-3.7-7.9-5.2l1.2-2.3l-7.8-3.5l-1.2,2.3c-2.9-1.2-6-1.9-9.1-2.5
		l0.4-2.5l-8.5-1l-0.4,2.7c-3.1-0.2-6.4,0-9.5,0.4l-0.6-2.5l-8.3,1.6l0.6,2.5c-3.1,0.8-6,1.9-8.9,3.3l-1.2-2.3l-7.6,4.1l1.4,2.3
		c-2.7,1.7-5.2,3.7-7.6,5.8L339.6,276.2z"/>
	<circle class="st1" cx="380.9" cy="321.3" r="38"/>
</g>
<g>
	<path class="st2" d="M364.4,209.7c14.9-12.9,19.8-22.8,17.8-32.7c-2-9.6-12-27.3-31.5-40.6"/>
	<path class="st2" d="M70.3,226.5H33.7"/>
	<path class="st2" d="M480.3,220.8h-65.5"/>
	<circle class="st2" cx="104.9" cy="250.1" r="30.6"/>
	<circle class="st2" cx="384.5" cy="250.1" r="30.6"/>
	<path class="st2" d="M255.9,181.6l14.5-41.7c0,0-68.7-7.9-97.9,41.7H255.9z"/>
	<path class="st2" d="M355,181.6h-81l8.6-42.8l56.9,1.8c5.9,4.6,20,16.7,20,27.5C359.4,168.1,361.7,179.5,355,181.6z"/>
	<path class="st2" d="M483.8,183.1c0,0-14.6-2.7-19.2,6.3v13.5h19.2"/>
	<line class="st2" x1="341.6" y1="192.8" x2="361" y2="192"/>
	<line class="st2" x1="227.3" y1="192" x2="249.3" y2="192"/>
</g>
<g class="st3">
	<circle cx="216.8" cy="129.9" r="3.5"/>
	<circle cx="195" cy="139.9" r="3.5"/>
	<circle cx="169" cy="155.4" r="3.5"/>
	<circle cx="145.7" cy="175" r="3.5"/>
	<circle cx="104.9" cy="178.5" r="3.5"/>
	<circle cx="66.8" cy="186.2" r="3.5"/>
	<circle cx="37.9" cy="194.1" r="3.5"/>
	<circle cx="26.7" cy="224.5" r="3.5"/>
	<circle cx="13.2" cy="224.5" r="3.5"/>
	<circle cx="13.2" cy="255.8" r="3.5"/>
	<circle cx="63.3" cy="255.8" r="3.5"/>
	<circle cx="66.8" cy="235.5" r="3.5"/>
	<circle cx="77.8" cy="215" r="3.5"/>
	<circle cx="97.9" cy="208" r="3.5"/>
	<circle cx="122.5" cy="208" r="3.5"/>
	<circle cx="139.1" cy="221" r="3.5"/>
	<circle cx="142.6" cy="239" r="3.5"/>
	<circle cx="145.7" cy="252.3" r="3.5"/>
	<circle cx="179" cy="252.3" r="3.5"/>
	<circle cx="222.1" cy="252.3" r="3.5"/>
	<circle cx="259.6" cy="252.3" r="3.5"/>
	<circle cx="299.5" cy="252.3" r="3.5"/>
	<circle cx="335.8" cy="253.6" r="3.5"/>
	<circle cx="339.3" cy="232" r="3.5"/>
	<circle cx="359.8" cy="215" r="3.5"/>
	<circle cx="386.1" cy="208" r="3.5"/>
	<circle cx="407.5" cy="215" r="3.5"/>
	<circle cx="421.5" cy="232" r="3.5"/>
	<circle cx="425" cy="253.6" r="3.5"/>
	<circle cx="452.5" cy="252.3" r="3.5"/>
	<circle cx="483.8" cy="245.3" r="3.5"/>
	<circle cx="498.8" cy="235.5" r="3.5"/>
	<circle cx="495.3" cy="218.5" r="3.5"/>
	<circle cx="483.8" cy="211.5" r="3.5"/>
	<circle cx="483.7" cy="170.4" r="3.5"/>
	<circle cx="458" cy="170.4" r="3.5"/>
	<circle cx="435.3" cy="170.4" r="3.5"/>
	<circle cx="407.5" cy="155.4" r="3.5"/>
	<circle cx="379.1" cy="139.9" r="3.5"/>
	<circle cx="347.8" cy="129.9" r="3.5"/>
	<circle cx="313.4" cy="129.9" r="3.5"/>
	<circle cx="287.4" cy="129.9" r="3.5"/>
	<circle cx="290.9" cy="112.8" r="3.5"/>
	<circle cx="256.1" cy="112.8" r="3.5"/>
	<circle cx="256.1" cy="128.5" r="3.5"/>
	<circle cx="236.5" cy="128.5" r="3.5"/>
</g>
</svg>
