<?xml version="1.0" encoding="utf-8"?>
<!-- Generator: Adobe Illustrator 22.1.0, SVG Export Plug-In . SVG Version: 6.00 Build 0)  -->
<svg version="1.1" id="Layer_2" xmlns="http://www.w3.org/2000/svg" xmlns:xlink="http://www.w3.org/1999/xlink" x="0px" y="0px"
	 viewBox="0 0 512 512" style="enable-background:new 0 0 512 512;" xml:space="preserve">
<style type="text/css">
	.st0{fill:none;stroke:#000000;stroke-width:5;stroke-linecap:round;stroke-linejoin:round;stroke-miterlimit:10;}
	.st1{opacity:0;}
</style>
<g>
	<circle class="st0" cx="69" cy="354.5" r="58"/>
	<path class="st0" d="M208.5,354.5c0,10.5-8.5,19-19,19c-1.4,0-2.7-0.2-4-0.4c-8.6-1.8-15-9.5-15-18.6c0-10.5,8.5-19,19-19
		c2.1,0,4.2,0.3,6.1,1C203.1,339,208.5,346.1,208.5,354.5z"/>
	<path class="st0" d="M440,354.5c0,10.5-8.5,19-19,19c-1.4,0-2.7-0.2-4-0.4c-0.1,0-0.2,0-0.3-0.1c-8.4-1.9-14.7-9.5-14.7-18.5
		c0-9,6.3-16.6,14.7-18.5c1.4-0.3,2.8-0.5,4.3-0.5c2.1,0,4.2,0.3,6.1,1C434.6,339,440,346.1,440,354.5z"/>
	<path class="st0" d="M421,296.5c-25.6,0-47.3,16.5-55,39.5c-2,5.8-3,12-3,18.5s1.1,12.7,3,18.5c7.7,23,29.4,39.5,55,39.5
		c32,0,58-26,58-58S453,296.5,421,296.5z M421,373.5c-1.4,0-2.7-0.2-4-0.4c-0.1,0-0.2,0-0.3-0.1c-8.4-1.9-14.7-9.5-14.7-18.5
		c0-9,6.3-16.6,14.7-18.5c1.4-0.3,2.8-0.5,4.3-0.5c2.1,0,4.2,0.3,6.1,1c7.5,2.5,12.9,9.6,12.9,18C440,365,431.5,373.5,421,373.5z"/>
	<path class="st0" d="M108.2,249.2l18.4-1.4c2.5-0.2,4.6,2,4.3,4.5l0,0c-0.2,1.8-1.7,3.3-3.5,3.5L109,258c-2.4,0.3-4.5-1.6-4.5-4
		v-0.8C104.5,251.1,106.1,249.4,108.2,249.2z"/>
	<line class="st0" x1="88.9" y1="299.2" x2="104.5" y2="258.5"/>
	<path class="st0" d="M416.7,373H189.5c10.2,0,18.5-8.5,18.5-19c0-8.4-5.3-15.5-12.6-18h221.3c-8.4,1.9-14.7,9.5-14.7,18.5
		C402,363.5,408.3,371.1,416.7,373z"/>
</g>
<g class="st1">
	<circle cx="154.8" cy="272.2" r="3.5"/>
	<circle cx="208" cy="268.4" r="3.5"/>
	<circle cx="244.3" cy="288.5" r="3.5"/>
	<circle cx="276.4" cy="314.4" r="3.5"/>
	<circle cx="309.5" cy="327.3" r="3.5"/>
	<circle cx="336.6" cy="327.1" r="3.5"/>
	<circle cx="348.2" cy="292.4" r="3.5"/>
	<circle cx="369.7" cy="260.3" r="3.5"/>
	<circle cx="396.6" cy="244.2" r="3.5"/>
	<circle cx="430.8" cy="239" r="3.5"/>
	<circle cx="453.8" cy="179.7" r="3.5"/>
	<circle cx="454.3" cy="132.5" r="3.5"/>
	<circle cx="422.3" cy="98.7" r="3.5"/>
	<circle cx="393.7" cy="95.6" r="3.5"/>
	<circle cx="363.1" cy="94" r="3.5"/>
	<circle cx="339.8" cy="79.2" r="3.5"/>
	<circle cx="318.8" cy="59.6" r="3.5"/>
	<circle cx="348.2" cy="58.5" r="3.5"/>
	<circle cx="388.5" cy="58.5" r="3.5"/>
	<circle cx="428.8" cy="58.5" r="3.5"/>
	<circle cx="457.7" cy="86.2" r="3.5"/>
	<circle cx="486.4" cy="114.4" r="3.5"/>
	<circle cx="488.1" cy="153.8" r="3.5"/>
	<circle cx="487.6" cy="194.1" r="3.5"/>
	<circle cx="474.3" cy="231.4" r="3.5"/>
	<circle cx="457.1" cy="267.7" r="3.5"/>
	<circle cx="435.8" cy="311.1" r="3.5"/>
	<circle cx="422.6" cy="347.5" r="3.5"/>
	<circle cx="394" cy="358.7" r="3.5"/>
	<circle cx="353.7" cy="358.2" r="3.5"/>
	<circle cx="313.5" cy="357.7" r="3.5"/>
	<circle cx="273.2" cy="357.2" r="3.5"/>
	<circle cx="233" cy="356.6" r="3.5"/>
	<circle cx="193.5" cy="354.2" r="3.5"/>
	<circle cx="163.8" cy="327" r="3.5"/>
	<circle cx="134.2" cy="299.7" r="3.5"/>
	<circle cx="104.5" cy="272.5" r="3.5"/>
</g>
</svg>
