<?xml version="1.0" encoding="utf-8"?>
<!-- Generator: Adobe Illustrator 22.1.0, SVG Export Plug-In . SVG Version: 6.00 Build 0)  -->
<svg version="1.1" id="Layer_2" xmlns="http://www.w3.org/2000/svg" xmlns:xlink="http://www.w3.org/1999/xlink" x="0px" y="0px"
	 viewBox="0 0 512 512" style="enable-background:new 0 0 512 512;" xml:space="preserve">
<style type="text/css">
	.st0{fill:none;stroke:#000000;stroke-width:5;stroke-linecap:round;stroke-linejoin:round;stroke-miterlimit:10;}
	.st1{opacity:0;}
</style>
<g>
	<circle class="st0" cx="44.1" cy="328.3" r="13.8"/>
	<circle class="st0" cx="86.8" cy="328.3" r="13.8"/>
	<circle class="st0" cx="147" cy="328.3" r="13.8"/>
	<circle class="st0" cx="272.1" cy="328.3" r="13.8"/>
	<circle class="st0" cx="339.6" cy="328.3" r="13.8"/>
	<circle class="st0" cx="464.8" cy="328.3" r="13.8"/>
	<line class="st0" x1="120.5" y1="321.5" x2="133.3" y2="321.4"/>
	<line class="st0" x1="98.5" y1="321.5" x2="111.3" y2="321.4"/>
	<line class="st0" x1="19.5" y1="321.5" x2="32.3" y2="321.4"/>
	<line class="st0" x1="160.8" y1="321.4" x2="260.4" y2="321.4"/>
	<line class="st0" x1="317.3" y1="321.4" x2="326.6" y2="321.4"/>
	<line class="st0" x1="284.5" y1="321.4" x2="293.9" y2="321.4"/>
	<line class="st0" x1="353.4" y1="321.4" x2="453.1" y2="321.4"/>
	<line class="st0" x1="478" y1="321.1" x2="488.5" y2="321.1"/>
	<line class="st0" x1="302.8" y1="245.8" x2="302.8" y2="289.8"/>
	<line class="st0" x1="118.5" y1="245.8" x2="118.5" y2="289.8"/>
</g>
<g class="st1">
	<circle cx="90.9" cy="228.5" r="3.5"/>
	<circle cx="134.9" cy="228.5" r="3.5"/>
	<circle cx="178.9" cy="228.5" r="3.5"/>
	<circle cx="222.9" cy="228.5" r="3.5"/>
	<circle cx="266.9" cy="228.5" r="3.5"/>
	<circle cx="311" cy="228.5" r="3.5"/>
	<circle cx="355" cy="228.5" r="3.5"/>
	<circle cx="399" cy="228.5" r="3.5"/>
	<circle cx="443" cy="228.5" r="3.5"/>
	<circle cx="487" cy="228.5" r="3.5"/>
	<circle cx="487" cy="267.9" r="3.5"/>
	<circle cx="487" cy="304.5" r="3.5"/>
	<circle cx="444.5" cy="304.5" r="3.5"/>
	<circle cx="402" cy="304.5" r="3.5"/>
	<circle cx="359.5" cy="304.5" r="3.5"/>
	<circle cx="317" cy="304.5" r="3.5"/>
	<circle cx="274.4" cy="304.5" r="3.5"/>
	<circle cx="231.9" cy="304.5" r="3.5"/>
	<circle cx="189.4" cy="304.5" r="3.5"/>
	<circle cx="146.9" cy="304.5" r="3.5"/>
	<circle cx="104.4" cy="304.5" r="3.5"/>
	<circle cx="61.9" cy="304.5" r="3.5"/>
	<circle cx="19.4" cy="304.5" r="3.5"/>
	<circle cx="19.1" cy="275.5" r="3.5"/>
	<circle cx="46.4" cy="263.5" r="3.5"/>
	<circle cx="46.4" cy="246" r="3.5"/>
	<circle cx="46.4" cy="228.5" r="3.5"/>
</g>
</svg>
