<?xml version="1.0" encoding="utf-8"?>
<!-- Generator: Adobe Illustrator 22.1.0, SVG Export Plug-In . SVG Version: 6.00 Build 0)  -->
<svg version="1.1" id="Layer_2" xmlns="http://www.w3.org/2000/svg" xmlns:xlink="http://www.w3.org/1999/xlink" x="0px" y="0px"
	 viewBox="0 0 512 512" style="enable-background:new 0 0 512 512;" xml:space="preserve">
<style type="text/css">
	.st0{opacity:0;}
	.st1{fill:none;stroke:#1D1D1D;stroke-width:5;stroke-linecap:round;stroke-linejoin:round;stroke-miterlimit:10;}
</style>
<g class="st0">
	<circle cx="99.2" cy="204.8" r="3.5"/>
	<circle cx="138.5" cy="202.6" r="3.5"/>
	<circle cx="177.7" cy="200.3" r="3.5"/>
	<circle cx="217" cy="198.1" r="3.5"/>
	<circle cx="256.2" cy="195.9" r="3.5"/>
	<circle cx="295.5" cy="193.7" r="3.5"/>
	<circle cx="300.5" cy="153.7" r="3.5"/>
	<circle cx="305.6" cy="113.8" r="3.5"/>
	<circle cx="310.6" cy="73.8" r="3.5"/>
	<circle cx="358" cy="77.1" r="3.5"/>
	<circle cx="405.3" cy="80.4" r="3.5"/>
	<circle cx="452.6" cy="83.7" r="3.5"/>
	<circle cx="452.6" cy="135.2" r="3.5"/>
	<circle cx="452.6" cy="186.8" r="3.5"/>
	<circle cx="452.6" cy="238.3" r="3.5"/>
	<circle cx="425.1" cy="217.6" r="3.5"/>
	<circle cx="393.7" cy="206.7" r="3.5"/>
	<circle cx="357.7" cy="207.4" r="3.5"/>
	<circle cx="320.3" cy="222.9" r="3.5"/>
	<circle cx="295" cy="247.3" r="3.5"/>
	<circle cx="274.6" cy="283.5" r="3.5"/>
	<circle cx="271.5" cy="320.4" r="3.5"/>
	<circle cx="276.9" cy="356.4" r="3.5"/>
	<circle cx="249.5" cy="356.1" r="3.5"/>
	<circle cx="220.5" cy="355.6" r="3.5"/>
	<circle cx="183.8" cy="356.5" r="3.5"/>
	<circle cx="165.9" cy="323.8" r="3.5"/>
	<circle cx="144.9" cy="289" r="3.5"/>
	<circle cx="109.9" cy="289" r="3.5"/>
	<circle cx="60" cy="286.9" r="3.5"/>
	<circle cx="60" cy="247" r="3.5"/>
	<circle cx="60" cy="207" r="3.5"/>
</g>
<g>
	<line class="st1" x1="311" y1="208" x2="339.3" y2="190.3"/>
	<line class="st1" x1="328" y1="177" x2="347.9" y2="197.2"/>
	<circle class="st1" cx="86.5" cy="361.5" r="61"/>
	<circle class="st1" cx="378.5" cy="314.5" r="95"/>
	<circle class="st1" cx="86.5" cy="361.5" r="25"/>
	<circle class="st1" cx="378.5" cy="314.5" r="29"/>
	<line class="st1" x1="283.5" y1="53.5" x2="478.5" y2="66.5"/>
</g>
</svg>
