<?xml version="1.0" encoding="utf-8"?>
<!-- Generator: Adobe Illustrator 22.1.0, SVG Export Plug-In . SVG Version: 6.00 Build 0)  -->
<svg version="1.1" id="Layer_1" xmlns="http://www.w3.org/2000/svg" xmlns:xlink="http://www.w3.org/1999/xlink" x="0px" y="0px"
	 viewBox="0 0 512 512" style="enable-background:new 0 0 512 512;" xml:space="preserve">
<style type="text/css">
	.st0{opacity:0;}
	.st1{fill:none;stroke:#000000;stroke-width:5;stroke-linecap:round;stroke-linejoin:round;stroke-miterlimit:10;}
	.st2{opacity:0.9;}
</style>
<g class="st0">
	<path class="st1" d="M349.4,305.7l21.3,16.7c-11.8,34.4-8.4,68.5-8.4,68.5l5.3,38.9l-24.7-18.1"/>
	<path class="st1" d="M175.3,411.7l-22.7,14l6-43.5c0.2,0.2,3.1-29.2-6-60.9l16-16"/>
	<path class="st1" d="M158.5,382.2l-6,43.5l-3.5,25.9h-31.3l-9.5-69.4c0,0-3.4-34.3,8.5-68.8c11.9-34.5,21.4-34.5,33.3,0
		c0.9,2.7,1.8,5.3,2.5,8C161.6,353,158.7,382.4,158.5,382.2z"/>
	<path class="st1" d="M119.2,476l-1.4-24.2H149l-5.6,25.6C134.5,481.1,126.2,482.1,119.2,476z"/>
	<path class="st1" d="M412.8,390.9l-9.5,69.4h-31.5l-4.2-30.5l-5.3-38.9c0,0-3.4-34.1,8.4-68.5c0-0.1,0.1-0.2,0.1-0.3
		c11.9-34.5,21.4-34.5,33.3,0C416,356.4,412.5,390.9,412.8,390.9z"/>
	<path class="st1" d="M373.2,484.5l-1.4-24.2h31.5l-5.6,25.6C388.5,489.8,380.1,490.8,373.2,484.5z"/>
	<circle class="st1" cx="266.1" cy="206.3" r="54.5"/>
	<line class="st1" x1="342.9" y1="402.1" x2="174.9" y2="402.1"/>
	<path class="st1" d="M191.2,99.3c41.6,15.5,86.6,17.8,136.4,2.2"/>
</g>
<g class="st2">
	<circle cx="259.5" cy="17.5" r="3.5"/>
	<circle cx="238" cy="24.5" r="3.5"/>
	<circle cx="220.4" cy="47.5" r="3.5"/>
	<circle cx="202.9" cy="76.5" r="3.5"/>
	<circle cx="187.7" cy="112.1" r="3.5"/>
	<circle cx="175.3" cy="139.2" r="3.5"/>
	<circle cx="167.8" cy="171.8" r="3.5"/>
	<circle cx="163.9" cy="202.8" r="3.5"/>
	<circle cx="160.4" cy="233.7" r="3.5"/>
	<circle cx="163.9" cy="271.5" r="3.5"/>
	<circle cx="167.4" cy="296.2" r="3.5"/>
	<circle cx="170.9" cy="330" r="3.5"/>
	<circle cx="170.9" cy="362" r="3.5"/>
	<circle cx="174.4" cy="388.5" r="3.5"/>
	<circle cx="175.3" cy="425.7" r="3.5"/>
	<circle cx="175.3" cy="444.6" r="3.5"/>
	<circle cx="199.3" cy="448.1" r="3.5"/>
	<circle cx="227.3" cy="448.1" r="3.5"/>
	<circle cx="228.9" cy="463.8" r="3.5"/>
	<circle cx="211.6" cy="484.5" r="3.5"/>
	<circle cx="244" cy="484.5" r="3.5"/>
	<circle cx="276" cy="484.5" r="3.5"/>
	<circle cx="313.2" cy="484.5" r="3.5"/>
	<circle cx="300.7" cy="463.8" r="3.5"/>
	<circle cx="300.7" cy="448.1" r="3.5"/>
	<circle cx="320.5" cy="448.8" r="3.5"/>
	<circle cx="339.4" cy="448.8" r="3.5"/>
	<circle cx="339.4" cy="425.7" r="3.5"/>
	<circle cx="342.9" cy="388.5" r="3.5"/>
	<circle cx="346.4" cy="358.5" r="3.5"/>
	<circle cx="346.4" cy="326.5" r="3.5"/>
	<circle cx="353.6" cy="287.5" r="3.5"/>
	<circle cx="353.6" cy="256" r="3.5"/>
	<circle cx="353.6" cy="224.5" r="3.5"/>
	<circle cx="349.9" cy="190" r="3.5"/>
	<circle cx="346.4" cy="156" r="3.5"/>
	<circle cx="334.7" cy="122.8" r="3.5"/>
	<circle cx="320.5" cy="83.5" r="3.5"/>
	<circle cx="304" cy="54.5" r="3.5"/>
	<circle cx="287.3" cy="34.8" r="3.5"/>
	<circle cx="276" cy="21" r="3.5"/>
</g>
</svg>
