<?xml version="1.0" encoding="utf-8"?>
<!-- Generator: Adobe Illustrator 22.1.0, SVG Export Plug-In . SVG Version: 6.00 Build 0)  -->
<svg version="1.1" id="Layer_1" xmlns="http://www.w3.org/2000/svg" xmlns:xlink="http://www.w3.org/1999/xlink" x="0px" y="0px"
	 viewBox="0 0 512 512" style="enable-background:new 0 0 512 512;" xml:space="preserve">
<style type="text/css">
	.st0{opacity:0;}
	.st1{fill:none;stroke:#000000;stroke-width:5;stroke-linecap:round;stroke-linejoin:round;stroke-miterlimit:10;}
</style>
<g class="st0">
	<path class="st1" d="M471.7,317.4c-2.5-10.9-8.3-25-21.3-40.4c-28.6-33.4-48.2-35-82-35.6c-33.6-0.6-60.8,18.5-55,47
		c2.7,13.2,9.8,22.6,16.6,29"/>
	<path class="st1" d="M185.7,143.9v13.4c0,0-13.4,15.3-28.8,15.5h-8.2c-2.3,0-5.4-9.9-5.4-22.2c0-12.3,2.9-22.2,5.4-22.2h11.8
		C160.6,128.5,178.9,135.3,185.7,143.9z"/>
	<path class="st1" d="M357.3,321.9c-3.1,6.8-4.9,14.4-4.9,22.4c0,30.1,24.5,54.6,54.6,54.6s54.6-24.5,54.6-54.6c0-6.6-1.2-13-3.5-19
		"/>
	<path class="st1" d="M385.7,321.1c-6.2,5.8-10.1,14-10.1,23.1c0,17.3,14,31.5,31.5,31.5c17.3,0,31.5-14,31.5-31.5
		c0-8.2-3.1-15.5-8.2-21"/>
	<path class="st1" d="M59.4,288.8c-16.7,10.5-27.8,29.2-27.8,50.3c0,32.8,26.6,59.7,59.7,59.7c32.8,0,59.7-26.6,59.7-59.7
		c0-4.7-0.6-9.3-1.6-13.6"/>
	<path class="st1" d="M195,143.7h27c0,0,5.1,1.6,5.1,6.8s-4.5,6.6-4.5,6.6h-28.2c0,0-4.3,2.9-8.7,0v-13.4
		C185.7,143.7,188.8,139.6,195,143.7z"/>
	<path class="st1" d="M407.5,224.9l-139-4.5"/>
	<circle class="st1" cx="91" cy="339.2" r="34.4"/>
</g>
<g>
	<circle cx="161" cy="180.9" r="3.5"/>
	<circle cx="148.8" cy="207.2" r="3.5"/>
	<circle cx="134.5" cy="228.4" r="3.5"/>
	<circle cx="121.3" cy="252.5" r="3.5"/>
	<circle cx="99.3" cy="250.7" r="3.5"/>
	<circle cx="72.1" cy="257.7" r="3.5"/>
	<circle cx="54.8" cy="269.2" r="3.5"/>
	<circle cx="36.4" cy="288.2" r="3.5"/>
	<circle cx="70.4" cy="288.8" r="3.5"/>
	<circle cx="91.2" cy="292.3" r="3.5"/>
	<circle cx="117.8" cy="302.3" r="3.5"/>
	<circle cx="134.5" cy="315" r="3.5"/>
	<circle cx="158.8" cy="327.9" r="3.5"/>
	<circle cx="177.5" cy="332.6" r="3.5"/>
	<circle cx="174" cy="315" r="3.5"/>
	<circle cx="189.8" cy="324.4" r="3.5"/>
	<circle cx="214.2" cy="336.1" r="3.5"/>
	<circle cx="242.5" cy="343.9" r="3.5"/>
	<circle cx="270.2" cy="346.3" r="3.5"/>
	<circle cx="302.6" cy="343.9" r="3.5"/>
	<circle cx="327.5" cy="340.4" r="3.5"/>
	<circle cx="343.2" cy="336.9" r="3.5"/>
	<circle cx="343.2" cy="318.5" r="3.5"/>
	<circle cx="369.3" cy="318.5" r="3.5"/>
	<circle cx="396.4" cy="317.4" r="3.5"/>
	<circle cx="420.8" cy="318.5" r="3.5"/>
	<circle cx="449.2" cy="322" r="3.5"/>
	<circle cx="482" cy="324.6" r="3.5"/>
	<circle cx="476.6" cy="303.7" r="3.5"/>
	<circle cx="466.3" cy="284.7" r="3.5"/>
	<circle cx="456.2" cy="267" r="3.5"/>
	<circle cx="438.5" cy="249" r="3.5"/>
	<circle cx="424.3" cy="236" r="3.5"/>
	<circle cx="410.6" cy="224.9" r="3.5"/>
	<circle cx="424.3" cy="222.7" r="3.5"/>
	<circle cx="425.4" cy="202.9" r="3.5"/>
	<circle cx="425.4" cy="183.2" r="3.5"/>
	<circle cx="396.4" cy="183.2" r="3.5"/>
	<circle cx="360" cy="183.2" r="3.5"/>
	<circle cx="327.5" cy="183.2" r="3.5"/>
	<circle cx="292" cy="186.7" r="3.5"/>
	<circle cx="263.2" cy="186.7" r="3.5"/>
	<circle cx="251.2" cy="186.7" r="3.5"/>
	<circle cx="251.2" cy="213.3" r="3.5"/>
	<circle cx="263.2" cy="213.3" r="3.5"/>
	<circle cx="270.2" cy="232.5" r="3.5"/>
	<circle cx="282.3" cy="250.7" r="3.5"/>
	<circle cx="288.5" cy="270.5" r="3.5"/>
	<circle cx="285.8" cy="290.3" r="3.5"/>
	<circle cx="273.7" cy="308.3" r="3.5"/>
	<circle cx="254.7" cy="317.4" r="3.5"/>
	<circle cx="229.3" cy="318.5" r="3.5"/>
	<circle cx="207.2" cy="308.3" r="3.5"/>
	<circle cx="188.5" cy="295.8" r="3.5"/>
	<circle cx="177.5" cy="275.2" r="3.5"/>
	<circle cx="170.5" cy="254.2" r="3.5"/>
	<circle cx="167.2" cy="231.9" r="3.5"/>
	<circle cx="177.5" cy="209.8" r="3.5"/>
	<circle cx="185.7" cy="186.7" r="3.5"/>
	<circle cx="197.7" cy="167.5" r="3.5"/>
</g>
</svg>
