<?xml version="1.0" encoding="utf-8"?>
<!-- Generator: Adobe Illustrator 22.1.0, SVG Export Plug-In . SVG Version: 6.00 Build 0)  -->
<svg version="1.1" id="Layer_1" xmlns="http://www.w3.org/2000/svg" xmlns:xlink="http://www.w3.org/1999/xlink" x="0px" y="0px"
	 viewBox="0 0 512 512" style="enable-background:new 0 0 512 512;" xml:space="preserve">
<style type="text/css">
	.st0{opacity:0;}
	.st1{fill:none;stroke:#000000;stroke-width:5;stroke-linecap:round;stroke-linejoin:round;stroke-miterlimit:10;}
</style>
<g class="st0">
	<g>
		<rect x="176" y="179.4" class="st1" width="26" height="17"/>
	</g>
	<g>
		<polyline class="st1" points="176,253.3 176,196.3 202,196.3 202,253.3 		"/>
	</g>
	<g>
		<polyline class="st1" points="217.6,253.3 217.6,196.3 243.6,196.3 243.6,253.3 		"/>
	</g>
	<g>
		<rect x="217.6" y="179.4" class="st1" width="26" height="17"/>
	</g>
	<line class="st1" x1="474.2" y1="288.8" x2="39.5" y2="288.8"/>
	<path class="st1" d="M204.4,328.8c-7.7,0-14.2-6.3-14.2-14.2s6.3-14.2,14.2-14.2s14.2,6.3,14.2,14.2S212.1,328.8,204.4,328.8z"/>
	<path class="st1" d="M160.1,329.9c-7.7,0-14.2-6.3-14.2-14.2c0-7.7,6.3-14.2,14.2-14.2c7.9,0,14.2,6.3,14.2,14.2
		C174.3,323.6,168,329.9,160.1,329.9z"/>
	<path class="st1" d="M381,329.9c-7.7,0-14.2-6.3-14.2-14.2c0-7.7,6.3-14.2,14.2-14.2c7.7,0,14.2,6.3,14.2,14.2
		C395.2,323.6,389,329.9,381,329.9z"/>
	<path class="st1" d="M333.2,328.3c-7.7,0-14.2-6.3-14.2-14.2c0-7.7,6.3-14.2,14.2-14.2c7.7,0,14.2,6.3,14.2,14.2
		C347.4,322,341.1,328.3,333.2,328.3z"/>
	<path class="st1" d="M245.3,328.8c-7.7,0-14.2-6.3-14.2-14.2s6.3-14.2,14.2-14.2c7.9,0,14.2,6.3,14.2,14.2S253,328.8,245.3,328.8z"
		/>
	<path class="st1" d="M288.3,328.8c-7.7,0-14.2-6.3-14.2-14.2s6.3-14.2,14.2-14.2s14.2,6.3,14.2,14.2S296,328.8,288.3,328.8z"/>
</g>
<g>
	<circle cx="154" cy="256.8" r="3.5"/>
	<circle cx="154" cy="270.8" r="3.5"/>
	<circle cx="129.5" cy="270.8" r="3.5"/>
	<circle cx="98" cy="270.8" r="3.5"/>
	<circle cx="69.5" cy="270.8" r="3.5"/>
	<circle cx="31" cy="270.8" r="3.5"/>
	<circle cx="45" cy="299.9" r="3.5"/>
	<circle cx="61" cy="333.5" r="3.5"/>
	<circle cx="76.5" cy="362.9" r="3.5"/>
	<circle cx="115.1" cy="362.9" r="3.5"/>
	<circle cx="168.5" cy="362.9" r="3.5"/>
	<circle cx="227.6" cy="362.9" r="3.5"/>
	<circle cx="284.8" cy="362.9" r="3.5"/>
	<circle cx="350.9" cy="362.9" r="3.5"/>
	<circle cx="396.9" cy="362.9" r="3.5"/>
	<circle cx="437.3" cy="362.9" r="3.5"/>
	<circle cx="451.5" cy="337" r="3.5"/>
	<circle cx="466" cy="305.5" r="3.5"/>
	<circle cx="481" cy="270.8" r="3.5"/>
	<circle cx="437.3" cy="270.8" r="3.5"/>
	<circle cx="396.1" cy="270.8" r="3.5"/>
	<circle cx="396.1" cy="247.5" r="3.5"/>
	<circle cx="396.1" cy="221.3" r="3.5"/>
	<circle cx="396.1" cy="186.2" r="3.5"/>
	<circle cx="357.9" cy="182.9" r="3.5"/>
	<circle cx="337.7" cy="209" r="3.5"/>
	<circle cx="315.5" cy="227.5" r="3.5"/>
	<circle cx="291.8" cy="227.5" r="3.5"/>
	<circle cx="269.5" cy="227.5" r="3.5"/>
	<circle cx="269.5" cy="256" r="3.5"/>
	<circle cx="231.1" cy="256" r="3.5"/>
	<circle cx="185.5" cy="256" r="3.5"/>
</g>
</svg>
