<?xml version="1.0" encoding="utf-8"?>
<!-- Generator: Adobe Illustrator 22.1.0, SVG Export Plug-In . SVG Version: 6.00 Build 0)  -->
<svg version="1.1" id="Layer_1" xmlns="http://www.w3.org/2000/svg" xmlns:xlink="http://www.w3.org/1999/xlink" x="0px" y="0px"
	 viewBox="0 0 512 512" style="enable-background:new 0 0 512 512;" xml:space="preserve">
<style type="text/css">
	.st0{opacity:0;}
	.st1{fill:none;stroke:#000000;stroke-width:5;stroke-linecap:round;stroke-linejoin:round;stroke-miterlimit:10;}
</style>
<g class="st0">
	<polyline class="st1" points="195.2,171.8 195.2,163.2 255.9,163.2 255.9,171.8 	"/>
	<rect x="458.2" y="190" class="st1" width="28.8" height="15.5"/>
	<circle class="st1" cx="67.7" cy="297.3" r="9.3"/>
	<circle class="st1" cx="383" cy="297.3" r="9.3"/>
	<circle class="st1" cx="119.8" cy="306.7" r="16"/>
	<circle class="st1" cx="328.8" cy="306.7" r="16"/>
	<circle class="st1" cx="189.5" cy="309.1" r="21.1"/>
	<circle class="st1" cx="261.8" cy="309.1" r="21.1"/>
	<line class="st1" x1="458.2" y1="197.7" x2="332.1" y2="196.8"/>
	<line class="st1" x1="365.3" y1="244.1" x2="387.5" y2="244.1"/>
	<line class="st1" x1="72" y1="257.2" x2="361.1" y2="257.2"/>
</g>
<g>
	<circle cx="163" cy="172.3" r="3.5"/>
	<circle cx="153" cy="196.8" r="3.5"/>
	<circle cx="146" cy="222.3" r="3.5"/>
	<circle cx="107.3" cy="222.3" r="3.5"/>
	<circle cx="54.9" cy="222.3" r="3.5"/>
	<circle cx="54.9" cy="256" r="3.5"/>
	<circle cx="54.9" cy="273.5" r="3.5"/>
	<circle cx="43.6" cy="288" r="3.5"/>
	<circle cx="43.6" cy="303.7" r="3.5"/>
	<circle cx="58.4" cy="317" r="3.5"/>
	<circle cx="80.5" cy="324" r="3.5"/>
	<circle cx="103.8" cy="333.7" r="3.5"/>
	<circle cx="128.2" cy="342.8" r="3.5"/>
	<circle cx="159.5" cy="342.8" r="3.5"/>
	<circle cx="193" cy="346.3" r="3.5"/>
	<circle cx="225.3" cy="342.8" r="3.5"/>
	<circle cx="261.8" cy="342.8" r="3.5"/>
	<circle cx="291.5" cy="342.8" r="3.5"/>
	<circle cx="319.5" cy="342.8" r="3.5"/>
	<circle cx="344.8" cy="337.2" r="3.5"/>
	<circle cx="373.7" cy="324" r="3.5"/>
	<circle cx="392.4" cy="317" r="3.5"/>
	<circle cx="406.9" cy="307.2" r="3.5"/>
	<circle cx="410.4" cy="290.7" r="3.5"/>
	<circle cx="399.9" cy="277" r="3.5"/>
	<circle cx="399.9" cy="257.2" r="3.5"/>
	<circle cx="377.2" cy="256" r="3.5"/>
	<circle cx="361.1" cy="235.8" r="3.5"/>
	<circle cx="335.6" cy="233.3" r="3.5"/>
	<circle cx="304" cy="232.3" r="3.5"/>
	<circle cx="304" cy="217" r="3.5"/>
	<circle cx="319.5" cy="215.3" r="3.5"/>
	<circle cx="335.6" cy="205.4" r="3.5"/>
	<circle cx="335.6" cy="186.6" r="3.5"/>
	<circle cx="312.8" cy="179.6" r="3.5"/>
	<circle cx="291.5" cy="172.3" r="3.5"/>
	<circle cx="268.8" cy="172.3" r="3.5"/>
	<circle cx="240.7" cy="172.3" r="3.5"/>
	<circle cx="210.6" cy="172.3" r="3.5"/>
	<circle cx="186.8" cy="171.8" r="3.5"/>
</g>
</svg>
