<?xml version="1.0" encoding="utf-8"?>
<!-- Generator: Adobe Illustrator 22.1.0, SVG Export Plug-In . SVG Version: 6.00 Build 0)  -->
<svg version="1.1" id="Layer_2" xmlns="http://www.w3.org/2000/svg" xmlns:xlink="http://www.w3.org/1999/xlink" x="0px" y="0px"
	 viewBox="0 0 512 512" style="enable-background:new 0 0 512 512;" xml:space="preserve">
<style type="text/css">
	.st0{fill:none;stroke:#000000;stroke-width:5;stroke-linecap:round;stroke-linejoin:round;stroke-miterlimit:10;}
	.st1{opacity:0;}
</style>
<g>
	<rect x="404.5" y="196.5" class="st0" width="68" height="69"/>
	<rect x="414.5" y="161.5" class="st0" width="48" height="35"/>
	<path class="st0" d="M215.3,259.2c0,2.7-0.3,5.3-0.7,7.8h-82.9c-0.5-2.5-0.7-5.1-0.7-7.8c0-23.3,18.9-42.1,42.2-42.1
		C196.4,217.1,215.3,235.9,215.3,259.2z"/>
	<path class="st0" d="M303.5,259.2c0,2.7-0.3,5.3-0.7,7.8h-82.9c-0.5-2.5-0.7-5.1-0.7-7.8c0-23.3,18.9-42.1,42.1-42.1
		C284.6,217.1,303.5,235.9,303.5,259.2z"/>
	<path class="st0" d="M393.5,259.2c0,2.7-0.3,5.3-0.7,7.8h-82.9c-0.5-2.5-0.7-5.1-0.7-7.8c0-23.3,18.9-42.1,42.2-42.1
		C374.6,217.1,393.5,235.9,393.5,259.2z"/>
	<line class="st0" x1="455.5" y1="124.5" x2="455.5" y2="161.5"/>
	<line class="st0" x1="431.5" y1="142.5" x2="431.5" y2="161.5"/>
	<line class="st0" x1="70.5" y1="217.5" x2="70.5" y2="248"/>
</g>
<g class="st1">
	<circle cx="65.5" cy="263" r="3.5"/>
	<circle cx="99.9" cy="263" r="3.5"/>
	<circle cx="103.4" cy="282" r="3.5"/>
	<circle cx="145.4" cy="282" r="3.5"/>
	<circle cx="187.4" cy="282" r="3.5"/>
	<circle cx="229.4" cy="282" r="3.5"/>
	<circle cx="271.4" cy="282" r="3.5"/>
	<circle cx="313.4" cy="282" r="3.5"/>
	<circle cx="355.3" cy="282" r="3.5"/>
	<circle cx="397.3" cy="282" r="3.5"/>
	<circle cx="439.3" cy="282" r="3.5"/>
	<circle cx="481.3" cy="282" r="3.5"/>
	<circle cx="480.9" cy="310.8" r="3.5"/>
	<circle cx="472" cy="335.1" r="3.5"/>
	<circle cx="447.8" cy="351.4" r="3.5"/>
	<circle cx="393.8" cy="351.4" r="3.5"/>
	<circle cx="339.8" cy="351.4" r="3.5"/>
	<circle cx="285.8" cy="351.4" r="3.5"/>
	<circle cx="231.7" cy="351.4" r="3.5"/>
	<circle cx="177.7" cy="351.4" r="3.5"/>
	<circle cx="123.7" cy="351.4" r="3.5"/>
	<circle cx="72.7" cy="351.4" r="3.5"/>
	<circle cx="69.3" cy="324" r="3.5"/>
	<circle cx="60.7" cy="300.7" r="3.5"/>
	<circle cx="42.4" cy="281.9" r="3.5"/>
	<circle cx="26" cy="263" r="3.5"/>
</g>
</svg>
