<?xml version="1.0" encoding="utf-8"?>
<!-- Generator: Adobe Illustrator 22.1.0, SVG Export Plug-In . SVG Version: 6.00 Build 0)  -->
<svg version="1.1" id="Layer_1" xmlns="http://www.w3.org/2000/svg" xmlns:xlink="http://www.w3.org/1999/xlink" x="0px" y="0px"
	 viewBox="0 0 512 512" style="enable-background:new 0 0 512 512;" xml:space="preserve">
<style type="text/css">
	.st0{opacity:0;}
	.st1{fill:none;stroke:#000000;stroke-width:5;stroke-linecap:round;stroke-linejoin:round;stroke-miterlimit:10;}
</style>
<g class="st0">
	<g>
		<g>
			<line class="st1" x1="133.6" y1="362" x2="182.8" y2="392"/>
			<line class="st1" x1="182.2" y1="363.7" x2="132.8" y2="390.7"/>
			<line class="st1" x1="158.4" y1="349.4" x2="158.4" y2="405"/>
			<circle class="st1" cx="157.6" cy="376.7" r="29.5"/>
			<circle class="st1" cx="157.6" cy="376.7" r="41.6"/>
		</g>
	</g>
	<g>
		<g>
			<line class="st1" x1="281.7" y1="362" x2="331" y2="392"/>
			<line class="st1" x1="330.4" y1="363.7" x2="280.9" y2="390.7"/>
			<line class="st1" x1="306.6" y1="349.4" x2="306.6" y2="405"/>
			<circle class="st1" cx="305.8" cy="376.7" r="29.5"/>
			<circle class="st1" cx="305.8" cy="376.7" r="41.6"/>
		</g>
	</g>
	<g>
		<g>
			<line class="st1" x1="392.7" y1="362" x2="441.9" y2="392"/>
			<line class="st1" x1="441.3" y1="363.7" x2="391.8" y2="390.7"/>
			<line class="st1" x1="417.5" y1="349.4" x2="417.5" y2="405"/>
			<circle class="st1" cx="416.7" cy="376.7" r="29.5"/>
			<circle class="st1" cx="416.7" cy="376.7" r="41.6"/>
		</g>
	</g>
	<polyline class="st1" points="216.6,181.2 216.6,84.1 230.5,56.4 135.4,56.4 149.3,84.1 149.3,181.2 	"/>
	<path class="st1" d="M373.1,183h-37.6v-69.9h37.6V183z M428.6,181h-37.6v-67.9h37.6V181z"/>
	<g>
		<path class="st1" d="M437.3,261.8v-28.7c-0.3,0-0.7,0-1.2,0c-10.6,0-19.2-6.4-19.2-14.3c0-1.5,0.3-2.9,0.8-4.2h-71.4
			c0.5,1.3,0.8,2.7,0.8,4.2c0,7.9-8.6,14.3-19.2,14.3c-1.2,0-2.4-0.2-3.4-0.2V262c1.2-0.2,2.2-0.2,3.4-0.2
			c10.6,0,19.2,6.4,19.2,14.3c0,1.5-0.3,2.9-0.8,4.2h73.8c-0.5-1.3-0.8-2.7-0.8-4.2C419.4,268.5,427.3,262.3,437.3,261.8z"/>
	</g>
</g>
<g>
	<circle cx="87.9" cy="182" r="3.5"/>
	<circle cx="66.7" cy="202" r="3.5"/>
	<circle cx="54.1" cy="235.6" r="3.5"/>
	<circle cx="52.1" cy="267.7" r="3.5"/>
	<circle cx="57.6" cy="294.6" r="3.5"/>
	<circle cx="66.7" cy="311.1" r="3.5"/>
	<circle cx="66.7" cy="329" r="3.5"/>
	<circle cx="48.6" cy="329" r="3.5"/>
	<circle cx="39.3" cy="357.5" r="3.5"/>
	<circle cx="29.7" cy="382.4" r="3.5"/>
	<circle cx="19.9" cy="407.6" r="3.5"/>
	<circle cx="48.6" cy="409" r="3.5"/>
	<circle cx="76" cy="409" r="3.5"/>
	<circle cx="101.3" cy="409" r="3.5"/>
	<circle cx="101.3" cy="384.2" r="3.5"/>
	<circle cx="101.3" cy="350.5" r="3.5"/>
	<circle cx="103.1" cy="322.1" r="3.5"/>
	<circle cx="144.8" cy="322.1" r="3.5"/>
	<circle cx="184.3" cy="322.1" r="3.5"/>
	<circle cx="220.3" cy="322.1" r="3.5"/>
	<circle cx="256" cy="322.1" r="3.5"/>
	<circle cx="295.4" cy="322.1" r="3.5"/>
	<circle cx="339" cy="322.1" r="3.5"/>
	<circle cx="387.2" cy="322.1" r="3.5"/>
	<circle cx="425.1" cy="322.1" r="3.5"/>
	<circle cx="459.5" cy="322.1" r="3.5"/>
	<circle cx="474.9" cy="322.1" r="3.5"/>
	<circle cx="474.9" cy="298.1" r="3.5"/>
	<circle cx="459.5" cy="298.1" r="3.5"/>
	<circle cx="458.3" cy="252" r="3.5"/>
	<circle cx="458.3" cy="209.7" r="3.5"/>
	<circle cx="458.3" cy="170.9" r="3.5"/>
	<circle cx="458.3" cy="127.9" r="3.5"/>
	<circle cx="459.5" cy="95.5" r="3.5"/>
	<circle cx="474.9" cy="95.5" r="3.5"/>
	<circle cx="474.9" cy="68.5" r="3.5"/>
	<circle cx="441.3" cy="68.5" r="3.5"/>
	<circle cx="406.3" cy="68.5" r="3.5"/>
	<circle cx="366.7" cy="68.5" r="3.5"/>
	<circle cx="330.4" cy="68.5" r="3.5"/>
	<circle cx="295.4" cy="68.5" r="3.5"/>
	<circle cx="291.9" cy="95.5" r="3.5"/>
	<circle cx="305.8" cy="95.5" r="3.5"/>
	<circle cx="309.3" cy="127.8" r="3.5"/>
	<circle cx="306.6" cy="156.7" r="3.5"/>
	<circle cx="305.8" cy="182" r="3.5"/>
	<circle cx="291.9" cy="182" r="3.5"/>
	<circle cx="264.2" cy="182" r="3.5"/>
	<circle cx="230.5" cy="182" r="3.5"/>
	<circle cx="196.8" cy="182" r="3.5"/>
	<circle cx="161.9" cy="182" r="3.5"/>
	<circle cx="133.6" cy="182" r="3.5"/>
	<circle cx="106.6" cy="182" r="3.5"/>
</g>
</svg>
