<?xml version="1.0" encoding="utf-8"?>
<!-- Generator: Adobe Illustrator 22.1.0, SVG Export Plug-In . SVG Version: 6.00 Build 0)  -->
<svg version="1.1" id="Layer_1" xmlns="http://www.w3.org/2000/svg" xmlns:xlink="http://www.w3.org/1999/xlink" x="0px" y="0px"
	 viewBox="0 0 512 512" style="enable-background:new 0 0 512 512;" xml:space="preserve">
<style type="text/css">
	.st0{display:none;}
	.st1{display:inline;fill:none;stroke:#000000;stroke-width:5;stroke-linecap:round;stroke-linejoin:round;stroke-miterlimit:10;}
	.st2{fill:none;stroke:#000000;stroke-width:5;stroke-linecap:round;stroke-linejoin:round;stroke-miterlimit:10;}
	.st3{opacity:0;}
</style>
<g id="_x30_1" class="st0">
	<path class="st1" d="M441.9,324l-0.2-8.5H439c-0.4-3.3-1-6.4-1.7-9.3l2.5-0.8l-2.7-8.1l-2.5,0.8c-1.4-2.9-2.7-5.8-4.5-8.3l2.1-1.6
		l-5-6.8l-2.1,1.6c-2.1-2.3-4.5-4.7-6.8-6.6l1.6-2.1l-7-5l-1.6,2.1c-2.7-1.6-5.6-3.1-8.5-4.3l0.8-2.5l-8.1-2.5l-0.8,2.5
		c-3.1-0.8-6.2-1.2-9.5-1.4v-2.7h-8.5v2.7c-5,0.4-9.7,1.4-14.3,2.9l-1-2.3l-7.9,3.3l1,2.5c-2.9,1.6-5.6,3.1-8.1,5l-1.7-1.9l-6.6,5.6
		l1.7,1.9c-2.3,2.3-4.3,4.7-6.2,7.2l-2.3-1.4l-4.5,7.2l2.3,1.4c-1.6,2.9-2.7,5.8-3.7,8.7l-2.5-0.6l-2.1,8.3l2.5,0.6
		c-0.6,3.1-0.8,6.2-0.8,9.5l-2.7,0.2l0.6,8.5l2.7-0.2c0.4,3.1,1.2,6.4,2.1,9.3l-2.5,1l3.1,7.9l2.5-1c1.4,2.9,3.1,5.6,4.8,8.1
		l-2.1,1.7l5.4,6.6l2.1-1.7c2.1,2.3,4.7,4.5,7.2,6.4l-1.4,2.1l7.2,4.7l1.4-2.1c2.7,1.6,5.6,2.9,8.7,3.9l-0.8,2.5l8.3,2.3l0.8-2.5
		c3.1,0.6,6.2,1,9.5,1l0.2,2.7l8.5-0.4l-0.2-2.7c3.3-0.4,6.4-1,9.3-1.9l1,2.5l7.9-2.9l-1-2.5c2.9-1.4,5.6-2.9,8.3-4.7l1.6,2.1
		l6.8-5.2l-1.6-2.1c2.3-2.1,4.5-4.5,6.6-7l2.1,1.6l4.8-7l-2.1-1.6c1.6-2.7,2.9-5.6,4.1-8.7l2.5,0.8l2.5-8.1l-2.5-0.8
		c0.6-3.1,1.2-6.2,1.2-9.5L441.9,324z"/>
	<circle class="st1" cx="380.9" cy="321.3" r="38"/>
</g>
<g id="_x30_2" class="st0">
	<path class="st1" d="M426,280l-6.2-5.8l-1.7,1.9c-2.5-2.1-5-3.9-7.8-5.4l1.2-2.3l-7.8-3.7l-1.2,2.3c-2.9-1.2-6-2.1-9.1-2.7l0.4-2.5
		l-8.5-1.2l-0.4,2.7c-3.1-0.2-6.4-0.2-9.5,0.2l-0.4-2.5l-8.3,1.4l0.4,2.7c-3.1,0.8-6.2,1.7-9.1,3.1l-1.2-2.3l-7.6,3.9l1.2,2.3
		c-2.7,1.7-5.2,3.5-7.8,5.6l-1.9-1.9l-6,6l1.9,1.9c-3.3,3.7-6,7.9-8.1,12.2l-2.5-1l-3.3,7.9l2.5,1c-1,3.1-1.7,6.2-2.1,9.3l-2.7-0.2
		l-0.6,8.5l2.7,0.2c0,3.1,0.2,6.4,0.8,9.5l-2.5,0.6l1.9,8.3l2.5-0.6c1,3.1,2.1,6,3.7,8.9l-2.3,1.4l4.5,7.4l2.3-1.4
		c1.7,2.5,3.9,5,6.2,7.4l-1.7,1.9l6.4,5.6l1.7-1.9c2.5,1.9,5.2,3.7,8.1,5l-1,2.3l7.8,3.5l1-2.5c3.1,1,6.2,1.7,9.3,2.3l-0.2,2.7
		l8.5,0.8l0.2-2.7c3.1,0,6.4-0.2,9.5-0.6l0.6,2.5l8.3-1.7l-0.6-2.5c3.1-1,6-1.9,8.9-3.5l1.4,2.3l7.4-4.3l-1.4-2.3
		c2.5-1.7,5-3.7,7.4-6l1.9,1.7l5.8-6.2L427,358c1.9-2.5,3.7-5.2,5.2-7.9l2.3,1.2l3.5-7.8l-2.3-1.2c1.2-2.9,1.9-6,2.5-9.1l2.5,0.4
		l1-8.5l-2.7-0.4c0.2-3.1,0-6.4-0.4-9.5l2.5-0.6l-1.6-8.3l-2.5,0.6c-0.8-3.1-1.9-6-3.3-8.9l2.3-1.2l-4.1-7.6l-2.3,1.4
		c-1.7-2.7-3.7-5.2-5.8-7.6L426,280z"/>
	<circle class="st1" cx="380.9" cy="321.1" r="38"/>
</g>
<g id="_x30_3" class="st0">
	<path class="st1" d="M383.6,260.3l-8.5,0.2v2.7c-3.3,0.4-6.4,1-9.3,1.7l-0.8-2.5l-8.1,2.7l0.8,2.5c-2.9,1.4-5.8,2.7-8.3,4.5
		l-1.6-2.1l-6.8,5l1.6,2.1c-2.3,2.1-4.7,4.5-6.6,6.8l-2.1-1.6l-5,7l2.1,1.6c-1.6,2.7-3.1,5.6-4.3,8.5l-2.5-0.8l-2.5,8.1l2.5,0.8
		c-0.8,3.1-1.2,6.2-1.4,9.5H320v8.5h2.7c0.4,5,1.4,9.7,2.9,14.3l-2.3,1l3.3,7.9l2.5-1c1.6,2.9,3.1,5.6,5,8.1l-1.9,1.7l5.6,6.6
		l1.9-1.7c2.3,2.3,4.7,4.3,7.2,6.2l-1.4,2.3l7.2,4.5l1.4-2.3c2.9,1.6,5.8,2.7,8.7,3.7l-0.6,2.5l8.3,2.1l0.6-2.5
		c3.1,0.6,6.2,0.8,9.5,0.8l0.2,2.7l8.5-0.6l-0.2-2.7c3.1-0.4,6.4-1.2,9.3-2.1l1,2.5l7.9-3.1l-1-2.5c2.9-1.4,5.6-3.1,8.1-4.8l1.7,2.1
		l6.6-5.4l-1.7-2.1c2.3-2.1,4.5-4.7,6.4-7.2l2.1,1.4l4.7-7.2l-2.1-1.4c1.6-2.7,2.9-5.6,3.9-8.7l2.5,0.8l2.3-8.3l-2.5-0.8
		c0.6-3.1,1-6.2,1-9.5l2.7-0.2l-0.4-8.5l-2.7,0.2c-0.4-3.3-1-6.4-1.9-9.3l2.5-1l-2.9-7.9l-2.5,1c-1.4-2.9-2.9-5.6-4.7-8.3l2.1-1.6
		l-5.2-6.8l-2.1,1.6c-2.1-2.3-4.5-4.5-7-6.6l1.6-2.1l-7-4.8l-1.6,2.1c-2.7-1.6-5.6-2.9-8.7-4.1l0.8-2.5l-8.1-2.5l-0.8,2.5
		c-3.1-0.6-6.2-1.2-9.5-1.2L383.6,260.3z"/>
	<circle class="st1" cx="380.9" cy="321.3" r="38"/>
</g>
<g id="_x30_4" class="st0">
	<path class="st1" d="M339.6,276.2l-5.8,6.2l1.9,1.7c-2.1,2.5-3.9,5-5.4,7.8l-2.3-1.2l-3.7,7.8l2.3,1.2c-1.2,2.9-2.1,6-2.7,9.1
		l-2.5-0.4l-1.2,8.5l2.7,0.4c-0.2,3.1-0.2,6.4,0.2,9.5l-2.5,0.4l1.4,8.3l2.7-0.4c0.8,3.1,1.7,6.2,3.1,9.1l-2.3,1.2l3.9,7.6l2.3-1.2
		c1.7,2.7,3.5,5.2,5.6,7.8l-1.9,1.9l6,6l1.9-1.9c3.7,3.3,7.9,6,12.2,8.1l-1,2.5l7.9,3.3l1-2.5c3.1,1,6.2,1.7,9.3,2.1l-0.2,2.7
		l8.5,0.6l0.2-2.7c3.1,0,6.4-0.2,9.5-0.8l0.6,2.5l8.3-1.9l-0.6-2.5c3.1-1,6-2.1,8.9-3.7l1.4,2.3l7.4-4.5l-1.4-2.3
		c2.5-1.7,5-3.9,7.4-6.2l1.9,1.7l5.6-6.4l-1.9-1.7c1.9-2.5,3.7-5.2,5-8.1l2.3,1l3.5-7.8l-2.5-1c1-3.1,1.7-6.2,2.3-9.3l2.7,0.2
		l0.8-8.5l-2.7-0.2c0-3.1-0.2-6.4-0.6-9.5l2.5-0.6l-1.7-8.3l-2.5,0.6c-1-3.1-1.9-6-3.5-8.9l2.3-1.4L432,287l-2.3,1.4
		c-1.7-2.5-3.7-5-6-7.4l1.7-1.9l-6.2-5.8l-1.7,1.9c-2.5-1.9-5.2-3.7-7.9-5.2l1.2-2.3l-7.8-3.5l-1.2,2.3c-2.9-1.2-6-1.9-9.1-2.5
		l0.4-2.5l-8.5-1l-0.4,2.7c-3.1-0.2-6.4,0-9.5,0.4l-0.6-2.5l-8.3,1.6l0.6,2.5c-3.1,0.8-6,1.9-8.9,3.3l-1.2-2.3l-7.6,4.1l1.4,2.3
		c-2.7,1.7-5.2,3.7-7.6,5.8L339.6,276.2z"/>
	<circle class="st1" cx="380.9" cy="321.3" r="38"/>
</g>
<g>
	<g>
		<g>
			<line class="st2" x1="133.6" y1="362" x2="182.8" y2="392"/>
			<line class="st2" x1="182.2" y1="363.7" x2="132.8" y2="390.7"/>
			<line class="st2" x1="158.4" y1="349.4" x2="158.4" y2="405"/>
			<circle class="st2" cx="157.6" cy="376.7" r="29.5"/>
			<circle class="st2" cx="157.6" cy="376.7" r="41.6"/>
		</g>
	</g>
	<g>
		<g>
			<line class="st2" x1="281.7" y1="362" x2="331" y2="392"/>
			<line class="st2" x1="330.4" y1="363.7" x2="280.9" y2="390.7"/>
			<line class="st2" x1="306.6" y1="349.4" x2="306.6" y2="405"/>
			<circle class="st2" cx="305.8" cy="376.7" r="29.5"/>
			<circle class="st2" cx="305.8" cy="376.7" r="41.6"/>
		</g>
	</g>
	<g>
		<g>
			<line class="st2" x1="392.7" y1="362" x2="441.9" y2="392"/>
			<line class="st2" x1="441.3" y1="363.7" x2="391.8" y2="390.7"/>
			<line class="st2" x1="417.5" y1="349.4" x2="417.5" y2="405"/>
			<circle class="st2" cx="416.7" cy="376.7" r="29.5"/>
			<circle class="st2" cx="416.7" cy="376.7" r="41.6"/>
		</g>
	</g>
	<polyline class="st2" points="216.6,181.2 216.6,84.1 230.5,56.4 135.4,56.4 149.3,84.1 149.3,181.2 	"/>
	<path class="st2" d="M373.1,183h-37.6v-69.9h37.6V183z M428.6,181h-37.6v-67.9h37.6V181z"/>
	<g>
		<path class="st2" d="M437.3,261.8v-28.7c-0.3,0-0.7,0-1.2,0c-10.6,0-19.2-6.4-19.2-14.3c0-1.5,0.3-2.9,0.8-4.2h-71.4
			c0.5,1.3,0.8,2.7,0.8,4.2c0,7.9-8.6,14.3-19.2,14.3c-1.2,0-2.4-0.2-3.4-0.2V262c1.2-0.2,2.2-0.2,3.4-0.2
			c10.6,0,19.2,6.4,19.2,14.3c0,1.5-0.3,2.9-0.8,4.2h73.8c-0.5-1.3-0.8-2.7-0.8-4.2C419.4,268.5,427.3,262.3,437.3,261.8z"/>
	</g>
</g>
<g class="st3">
	<circle cx="87.9" cy="182" r="3.5"/>
	<circle cx="66.7" cy="202" r="3.5"/>
	<circle cx="54.1" cy="235.6" r="3.5"/>
	<circle cx="52.1" cy="267.7" r="3.5"/>
	<circle cx="57.6" cy="294.6" r="3.5"/>
	<circle cx="66.7" cy="311.1" r="3.5"/>
	<circle cx="66.7" cy="329" r="3.5"/>
	<circle cx="48.6" cy="329" r="3.5"/>
	<circle cx="39.3" cy="357.5" r="3.5"/>
	<circle cx="29.7" cy="382.4" r="3.5"/>
	<circle cx="19.9" cy="407.6" r="3.5"/>
	<circle cx="48.6" cy="409" r="3.5"/>
	<circle cx="76" cy="409" r="3.5"/>
	<circle cx="101.3" cy="409" r="3.5"/>
	<circle cx="101.3" cy="384.2" r="3.5"/>
	<circle cx="101.3" cy="350.5" r="3.5"/>
	<circle cx="103.1" cy="322.1" r="3.5"/>
	<circle cx="144.8" cy="322.1" r="3.5"/>
	<circle cx="184.3" cy="322.1" r="3.5"/>
	<circle cx="220.3" cy="322.1" r="3.5"/>
	<circle cx="256" cy="322.1" r="3.5"/>
	<circle cx="295.4" cy="322.1" r="3.5"/>
	<circle cx="339" cy="322.1" r="3.5"/>
	<circle cx="387.2" cy="322.1" r="3.5"/>
	<circle cx="425.1" cy="322.1" r="3.5"/>
	<circle cx="459.5" cy="322.1" r="3.5"/>
	<circle cx="474.9" cy="322.1" r="3.5"/>
	<circle cx="474.9" cy="298.1" r="3.5"/>
	<circle cx="459.5" cy="298.1" r="3.5"/>
	<circle cx="458.3" cy="252" r="3.5"/>
	<circle cx="458.3" cy="209.7" r="3.5"/>
	<circle cx="458.3" cy="170.9" r="3.5"/>
	<circle cx="458.3" cy="127.9" r="3.5"/>
	<circle cx="459.5" cy="95.5" r="3.5"/>
	<circle cx="474.9" cy="95.5" r="3.5"/>
	<circle cx="474.9" cy="68.5" r="3.5"/>
	<circle cx="441.3" cy="68.5" r="3.5"/>
	<circle cx="406.3" cy="68.5" r="3.5"/>
	<circle cx="366.7" cy="68.5" r="3.5"/>
	<circle cx="330.4" cy="68.5" r="3.5"/>
	<circle cx="295.4" cy="68.5" r="3.5"/>
	<circle cx="291.9" cy="95.5" r="3.5"/>
	<circle cx="305.8" cy="95.5" r="3.5"/>
	<circle cx="309.3" cy="127.8" r="3.5"/>
	<circle cx="306.6" cy="156.7" r="3.5"/>
	<circle cx="305.8" cy="182" r="3.5"/>
	<circle cx="291.9" cy="182" r="3.5"/>
	<circle cx="264.2" cy="182" r="3.5"/>
	<circle cx="230.5" cy="182" r="3.5"/>
	<circle cx="196.8" cy="182" r="3.5"/>
	<circle cx="161.9" cy="182" r="3.5"/>
	<circle cx="133.6" cy="182" r="3.5"/>
	<circle cx="106.6" cy="182" r="3.5"/>
</g>
</svg>
