<?xml version="1.0" encoding="utf-8"?>
<!-- Generator: Adobe Illustrator 22.1.0, SVG Export Plug-In . SVG Version: 6.00 Build 0)  -->
<svg version="1.1" xmlns="http://www.w3.org/2000/svg" xmlns:xlink="http://www.w3.org/1999/xlink" x="0px" y="0px"
	 viewBox="0 0 512 512" style="enable-background:new 0 0 512 512;" xml:space="preserve">
<style type="text/css">
	.st0{display:none;opacity:0.5;}
	.st1{display:inline;}
	.st2{opacity:0.2;enable-background:new    ;}
	.st3{display:inline;enable-background:new    ;}
	.st4{display:inline;fill:#58595B;}
	.st5{display:inline;fill:#F8CA4D;}
	.st6{display:inline;fill:#2F3440;}
	.st7{fill:none;stroke:#58595B;stroke-width:1.7435;stroke-miterlimit:10;}
	.st8{display:inline;fill:#A6A8AB;}
	.st9{display:inline;fill:#FAAF40;}
	.st10{display:inline;fill:#51596E;}
	.st11{fill:none;stroke:#000000;stroke-width:5;stroke-linecap:round;stroke-linejoin:round;stroke-miterlimit:10;}
	.st12{opacity:0;}
</style>
<g id="Layer_1" class="st0">
	<g class="st1">
		<path class="st2" d="M114.3,172c5.2,4.8,12.1,5,20,2.5c0.2,5.8-2.1,11-2.3,16.9c4.2,4.8,7.9,8.8,11.5,12.1
			c-2.1-2.3-4.4-4.8-6.9-7.7c0.2-5.8,7.9-44.6,7.7-50.4l-29.6-11C115.6,145.8,115.4,158.5,114.3,172z"/>
		<path class="st2" d="M327.8,93.4c-15-13.8-34-23.3-52.9-30.4c-4.4-1.7-7.1-4.4-8.5-7.5c-2.9,6.3-0.8,15.4,8.5,19
			c19,7.1,37.7,16.7,52.9,30.4c11.5,10.4,14.6,22.1,15.2,35C343.6,122.2,342.6,106.8,327.8,93.4z"/>
		<path class="st2" d="M381,306.9c-3.3-27.5-6.5-55-8.3-82.8c-2.1-29.4-0.6-58.2-0.4-87.3c0-14.2-4.4-26.3-11.5-36.5
			c2.3,6.5,3.3,13.3,3.3,20.8c-0.2,29.2-5,58.2-2.9,87.3c1.9,27.7,0.2,55.5,3.3,83c1.3,11.5-6.3,15.6-12.5,12.5
			c0.2,1,0.2,2.1,0.4,2.9C354.5,324.8,383,325,381,306.9z"/>
		<path class="st2" d="M128.5,208.5c-5,29.6-14.2,74-28.1,104.6c0,0-7.1,6.3-16.1,0.6c-0.8,1.9-1.5,3.8-2.3,5.6
			c11.7,15,22.5,5.4,22.5,5.4c13.8-30.9,23.1-75.3,28.1-104.6c12.1,13.3,18.8,21.1,23.3,31.3C151,233.9,144.8,226.2,128.5,208.5z"/>
	</g>
	<path class="st3" d="M342.6,163.3c0.2-4,0.4-7.7,0.4-11.5C229.8,173.5,170,328,92.4,334c-6.9,0.6-11.5-1.5-13.8-4.4
		c-4.8,7.3-1,17.7,13.8,16.5c77.1-6.3,137-152,249.7-173C342.4,169.7,342.6,166.6,342.6,163.3z"/>
	<path class="st4" d="M118.5,329.2c-1.3,0-2.3,0.8-2.5,2.1c0,1.3,0.8,2.3,2.1,2.5c1.3,0,2.3-0.8,2.5-2.1
		C120.6,330.5,119.8,329.4,118.5,329.2z"/>
	<rect x="45.3" y="317.3" class="st5" width="97.1" height="20.8"/>
	<path class="st6" d="M372,206.2c-55.2-4.2-103.4,37.1-107.6,92.3s37.1,103.4,92.3,107.6s103.4-37.1,107.6-92.3
		C468.5,258.5,427.2,210.4,372,206.2z M358.7,380.5c-41.1-3.1-71.9-39-68.8-80s39-71.9,80-68.8s71.9,39,68.8,80
		C435.8,353,399.9,383.6,358.7,380.5z"/>
	<g class="st1">
		<g>
			<g>
				<g>
					<line class="st7" x1="364.5" y1="231.4" x2="364.5" y2="281.7"/>
					<line class="st7" x1="364.5" y1="330.7" x2="364.5" y2="380.9"/>
				</g>
				<g>
					<line class="st7" x1="439.3" y1="306.1" x2="389.1" y2="306.1"/>
					<line class="st7" x1="340.1" y1="306.1" x2="289.9" y2="306.1"/>
				</g>
			</g>
			<g>
				<g>
					<line class="st7" x1="311.7" y1="253.3" x2="347.2" y2="288.8"/>
					<line class="st7" x1="381.8" y1="323.4" x2="417.4" y2="359"/>
				</g>
				<g>
					<line class="st7" x1="417.4" y1="253.3" x2="381.8" y2="288.8"/>
					<line class="st7" x1="347.2" y1="323.4" x2="311.7" y2="359"/>
				</g>
			</g>
		</g>
		<g>
			<g>
				<g>
					<line class="st7" x1="336.6" y1="236.9" x2="355.3" y2="283.3"/>
					<line class="st7" x1="373.7" y1="328.8" x2="392.4" y2="375.5"/>
				</g>
				<g>
					<line class="st7" x1="433.7" y1="278.1" x2="387.2" y2="296.9"/>
					<line class="st7" x1="341.8" y1="315.2" x2="295.3" y2="334.2"/>
				</g>
			</g>
			<g>
				<g>
					<line class="st7" x1="295.7" y1="276.9" x2="342" y2="296.5"/>
					<line class="st7" x1="387" y1="315.7" x2="433.3" y2="335.2"/>
				</g>
				<g>
					<line class="st7" x1="393.7" y1="237.3" x2="374.1" y2="283.5"/>
					<line class="st7" x1="354.9" y1="328.8" x2="335.3" y2="374.9"/>
				</g>
			</g>
		</g>
	</g>
	<path class="st8" d="M366.4,281.7c-13.5-1-25.2,9.2-26.3,22.5c-1,13.5,9.2,25.2,22.5,26.3c13.5,1,25.2-9.2,26.3-22.5
		C389.9,294.4,379.9,282.7,366.4,281.7z M363.7,318.8c-6.9-0.6-12.1-6.7-11.7-13.5c0.6-6.9,6.7-12.1,13.5-11.7
		c6.9,0.6,12.1,6.7,11.7,13.5C376.6,314,370.5,319.2,363.7,318.8z"/>
	<path class="st4" d="M364.7,302.7c-1.9-0.2-3.5,1.3-3.8,3.1c-0.2,1.9,1.3,3.5,3.1,3.8c1.9,0.2,3.5-1.3,3.8-3.1
		C368,304.4,366.6,302.7,364.7,302.7z"/>
	<path class="st6" d="M95.4,265.4c-36.3-2.7-68,24.4-70.7,60.7c-2.7,36.3,24.4,68,60.7,70.7c36.3,2.7,68-24.4,70.7-60.7
		S131.6,268.1,95.4,265.4z M86.8,375.7c-24.6-1.9-43.2-23.3-41.3-47.9s23.3-43.2,47.9-41.3c24.6,1.9,43.2,23.3,41.3,47.9
		S111.4,377.6,86.8,375.7z"/>
	<g class="st1">
		<g>
			<g>
				<g>
					<line class="st7" x1="90.4" y1="285.4" x2="90.4" y2="316.1"/>
					<line class="st7" x1="90.4" y1="346.1" x2="90.4" y2="376.7"/>
				</g>
				<g>
					<line class="st7" x1="136" y1="331.1" x2="105.4" y2="331.1"/>
					<line class="st7" x1="75.4" y1="331.1" x2="44.7" y2="331.1"/>
				</g>
			</g>
			<g>
				<g>
					<line class="st7" x1="58.1" y1="298.8" x2="79.7" y2="320.4"/>
					<line class="st7" x1="101" y1="341.7" x2="122.7" y2="363.4"/>
				</g>
				<g>
					<line class="st7" x1="122.7" y1="298.8" x2="101" y2="320.4"/>
					<line class="st7" x1="79.7" y1="341.7" x2="58.1" y2="363.4"/>
				</g>
			</g>
		</g>
		<g>
			<g>
				<g>
					<line class="st7" x1="73.3" y1="288.8" x2="84.7" y2="317.3"/>
					<line class="st7" x1="96" y1="345" x2="107.5" y2="373.4"/>
				</g>
				<g>
					<line class="st7" x1="132.7" y1="314" x2="104.3" y2="325.4"/>
					<line class="st7" x1="76.6" y1="336.7" x2="48" y2="348.2"/>
				</g>
			</g>
			<g>
				<g>
					<line class="st7" x1="48.5" y1="313.4" x2="76.6" y2="325.2"/>
					<line class="st7" x1="104.1" y1="336.9" x2="132.3" y2="349"/>
				</g>
				<g>
					<line class="st7" x1="108.3" y1="289.2" x2="96.2" y2="317.3"/>
					<line class="st7" x1="84.5" y1="344.8" x2="72.6" y2="373.2"/>
				</g>
			</g>
		</g>
	</g>
	<path class="st9" d="M91.6,315c-9-0.6-16.7,6-17.3,14.8c-0.6,9,6,16.7,14.8,17.3c9,0.6,16.7-6,17.3-14.8
		C107,323.4,100.4,315.7,91.6,315z M89.7,339.4c-4.6-0.4-7.9-4.4-7.7-9c0.4-4.6,4.4-7.9,9-7.7c4.6,0.4,7.9,4.4,7.7,9
		C98.3,336.3,94.3,339.8,89.7,339.4z"/>
	<path class="st4" d="M90.6,328.8c-1.3,0-2.3,0.8-2.5,2.1c0,1.3,0.8,2.3,2.1,2.5c1.3,0,2.3-0.8,2.5-2.1
		C92.7,330,91.8,329,90.6,328.8z"/>
	<path class="st5" d="M337.8,215.6c34-5.8,91.3-5,118.6,55.7c0,0,6.9,12.7,18.8,4.6c11.9-7.9,2.3-24.2-0.2-27.7
		c-2.5-3.5-25.6-55.9-95.5-61.3c-59.4-4.6-99.9,19.2-118.4,52.7c-7.3,13.1,14,24.6,22.3,12.1c0.2-0.2,0.2-0.4,0.4-0.6
		C296.1,232.3,315.7,219.3,337.8,215.6z"/>
	<path class="st6" d="M96,103c-15.8,9-12.7,26.5-7.1,34.8c5.6,8.5,16.7,14,45.2,10c28.6-4,76.9,7.7,73.6-5.8
		c-3.3-13.5-20.2-23.6-42.1-22.1c-22.1,1.5-49.2-16.9-54.6-19.4C105.4,98.2,100.8,100.3,96,103z"/>
	<path class="st9" d="M358.4,318.4c-1,0-2.3-0.4-3.5-1c-5.4-2.5-30.9-17.9-33.6-19.8c-2.1-1.3-2.7-4-1.5-6.3c1.3-2.1,4-2.7,6.3-1.5
		c7.7,4.8,28.6,17.3,32.7,19.2c0.2,0,0.2,0,0.4,0.2c0.6-0.6,1-2.5,1.3-3.8c0.2-2.5,2.5-4.4,5-4c2.5,0.2,4.2,2.5,4,5
		c-0.2,1.3-1,8.1-5.8,10.8C362,317.9,360.3,318.6,358.4,318.4z"/>
	<polygon class="st5" points="304.2,309.2 340.1,288.1 335.1,280.8 298.4,301.7 	"/>
	<path class="st6" d="M285.7,59.7c0,7.7-6.3,13.8-13.8,13.8c-3.3,0-8.8,0-8.8,0s0-9.4,0-13.8s0-13.8,0-13.8s5.4,0,9,0
		C279.4,45.7,285.7,51.9,285.7,59.7z"/>
	
		<ellipse transform="matrix(0.9411 -0.3382 0.3382 0.9411 -4.5967 92.959)" class="st10" cx="264.4" cy="59.7" rx="13.8" ry="13.8"/>
</g>
<g id="Layer_2">
	<g>
		<path class="st11" d="M141.5,309.5c0,0,47-38,83-77s98-74,131-73"/>
		<path class="st11" d="M274.5,59.5c11,3,79,30,80,65s1,62,1,62"/>
		<path class="st11" d="M136.5,139.5c-2,8-5,102-25,139"/>
		<path class="st11" d="M96.5,135.5c0,0,66,3,80,5"/>
		<circle class="st11" cx="90.5" cy="333.5" r="56"/>
		<circle class="st11" cx="260.5" cy="55.5" r="14"/>
		<path class="st11" d="M260.5,248.5c0,0,25-62,109-62c77,0,112,74,112,74"/>
		<path class="st11" d="M304.5,292.5c3-4,36-19,36-19"/>
		<line class="st11" x1="367.5" y1="298.5" x2="320.6" y2="283"/>
		<path class="st11" d="M90.5,277.5c0,90,0,112,0,112"/>
		<line class="st11" x1="34.5" y1="333.5" x2="144.5" y2="333.5"/>
		<line class="st11" x1="130.5" y1="294.5" x2="52.5" y2="372.5"/>
		<line class="st11" x1="53.5" y1="294.5" x2="131.5" y2="372.5"/>
		<path class="st11" d="M365.3,212c0,143.8,0,179,0,179"/>
		<line class="st11" x1="275.8" y1="301.5" x2="451.6" y2="301.5"/>
		<line class="st11" x1="429.2" y1="239.2" x2="304.6" y2="363.8"/>
		<line class="st11" x1="306.2" y1="239.2" x2="430.8" y2="363.8"/>
	</g>
	<g class="st12">
		<circle cx="404.6" cy="208.9" r="3.5"/>
		<circle cx="436.7" cy="230.6" r="3.5"/>
		<circle cx="458.2" cy="262.7" r="3.5"/>
		<circle cx="466" cy="302.1" r="3.5"/>
		<circle cx="457.9" cy="341.1" r="3.5"/>
		<circle cx="436.2" cy="372.9" r="3.5"/>
		<circle cx="404.2" cy="394.3" r="3.5"/>
		<circle cx="365.1" cy="402" r="3.5"/>
		<circle cx="326.1" cy="394" r="3.5"/>
		<circle cx="294.2" cy="372.4" r="3.5"/>
		<circle cx="272.8" cy="340.4" r="3.5"/>
		<circle cx="265" cy="301.3" r="3.5"/>
		<circle cx="273" cy="262.3" r="3.5"/>
		<circle cx="294.5" cy="230.4" r="3.5"/>
		<circle cx="326.4" cy="208.9" r="3.5"/>
		<circle cx="365.5" cy="201" r="3.5"/>
	</g>
</g>
</svg>
