<?xml version="1.0" encoding="utf-8"?>
<!-- Generator: Adobe Illustrator 22.1.0, SVG Export Plug-In . SVG Version: 6.00 Build 0)  -->
<svg version="1.1" id="Layer_1" xmlns="http://www.w3.org/2000/svg" xmlns:xlink="http://www.w3.org/1999/xlink" x="0px" y="0px"
	 viewBox="0 0 512 512" style="enable-background:new 0 0 512 512;" xml:space="preserve">
<style type="text/css">
	.st0{opacity:0;}
	.st1{fill:none;stroke:#000000;stroke-width:5;stroke-linecap:round;stroke-linejoin:round;stroke-miterlimit:10;}
</style>
<g class="st0">
	<path class="st1" d="M141.5,309.5c0,0,47-38,83-77s98-74,131-73"/>
	<path class="st1" d="M274.5,59.5c11,3,79,30,80,65s1,62,1,62"/>
	<path class="st1" d="M136.5,139.5c-2,8-5,102-25,139"/>
	<path class="st1" d="M96.5,135.5c0,0,66,3,80,5"/>
	<circle class="st1" cx="90.5" cy="333.5" r="56"/>
	<circle class="st1" cx="260.5" cy="55.5" r="14"/>
	<path class="st1" d="M260.5,248.5c0,0,25-62,109-62c77,0,112,74,112,74"/>
	<path class="st1" d="M304.5,292.5c3-4,36-19,36-19"/>
	<line class="st1" x1="367.5" y1="298.5" x2="320.6" y2="283"/>
	<path class="st1" d="M90.5,277.5c0,90,0,112,0,112"/>
	<line class="st1" x1="34.5" y1="333.5" x2="144.5" y2="333.5"/>
	<line class="st1" x1="130.5" y1="294.5" x2="52.5" y2="372.5"/>
	<line class="st1" x1="53.5" y1="294.5" x2="131.5" y2="372.5"/>
	<path class="st1" d="M365.3,212c0,143.8,0,179,0,179"/>
	<line class="st1" x1="275.8" y1="301.5" x2="451.6" y2="301.5"/>
	<line class="st1" x1="429.2" y1="239.2" x2="304.6" y2="363.8"/>
	<line class="st1" x1="306.2" y1="239.2" x2="430.8" y2="363.8"/>
</g>
<g>
	<circle cx="404.6" cy="208.9" r="3.5"/>
	<circle cx="436.7" cy="230.6" r="3.5"/>
	<circle cx="458.2" cy="262.7" r="3.5"/>
	<circle cx="466" cy="302.1" r="3.5"/>
	<circle cx="457.9" cy="341.1" r="3.5"/>
	<circle cx="436.2" cy="372.9" r="3.5"/>
	<circle cx="404.2" cy="394.3" r="3.5"/>
	<circle cx="365.1" cy="402" r="3.5"/>
	<circle cx="326.1" cy="394" r="3.5"/>
	<circle cx="294.2" cy="372.4" r="3.5"/>
	<circle cx="272.8" cy="340.4" r="3.5"/>
	<circle cx="265" cy="301.3" r="3.5"/>
	<circle cx="273" cy="262.3" r="3.5"/>
	<circle cx="294.5" cy="230.4" r="3.5"/>
	<circle cx="326.4" cy="208.9" r="3.5"/>
	<circle cx="365.5" cy="201" r="3.5"/>
</g>
</svg>
