<?xml version="1.0" encoding="utf-8"?>
<!-- Generator: Adobe Illustrator 22.1.0, SVG Export Plug-In . SVG Version: 6.00 Build 0)  -->
<svg version="1.1" xmlns="http://www.w3.org/2000/svg" xmlns:xlink="http://www.w3.org/1999/xlink" x="0px" y="0px"
	 viewBox="0 0 196 164" style="enable-background:new 0 0 196 164;" xml:space="preserve">
<g id="Layer_1">
	<g>
		<polygon style="fill:#7F33B5;" points="129.8,30 62.9,30 42.3,59.2 62.9,88.4 129.8,88.4 		"/>
		<rect x="122" y="30" style="opacity:0.1;" width="10.7" height="58.4"/>
		<path style="fill:#F7BA0F;" d="M132.7,27.3v119.6c0,1.6-1.3,2.9-2.9,2.9c-1.6,0-2.9-1.3-2.9-2.9V27.3c0-1.6,1.3-2.9,2.9-2.9
			c0.8,0,1.5,0.3,2.1,0.9C132.4,25.8,132.7,26.5,132.7,27.3z"/>
		<path style="opacity:0.1;" d="M129.8,24.4v125.4c-1.6,0-2.9-1.3-2.9-2.9V27.3C126.9,25.7,128.2,24.4,129.8,24.4z"/>
		<circle style="fill:#F9D812;" cx="129.8" cy="21" r="6"/>
		<circle style="fill:#66259E;stroke:#FFFFFF;stroke-width:6;stroke-miterlimit:10;" cx="90.4" cy="59.2" r="14.7"/>
	</g>
</g>
<g id="Layer_2">
</g>
</svg>
