<?xml version="1.0" encoding="utf-8"?>
<!-- Generator: Adobe Illustrator 22.1.0, SVG Export Plug-In . SVG Version: 6.00 Build 0)  -->
<svg version="1.1" xmlns="http://www.w3.org/2000/svg" xmlns:xlink="http://www.w3.org/1999/xlink" x="0px" y="0px"
	 viewBox="0 0 196 164" style="enable-background:new 0 0 196 164;" xml:space="preserve">
<g id="Layer_1">
	<g>
		<g>
			<polygon style="fill:#FFC431;" points="143.8,41.6 132,34.7 143.7,26.1 145.3,28.3 136.9,34.4 145.2,39.3 			"/>
		</g>
		<g>
			<polygon style="fill:#FFC431;" points="143.8,91.1 132,84.1 143.7,75.6 145.3,77.8 136.9,83.9 145.2,88.8 			"/>
		</g>
		<g>
			<polygon style="fill:#FC3FB0;" points="134.4,89.4 42.5,89.4 65.4,74.2 42.5,58.9 65.4,43.7 42.5,28.5 134.4,28.5 			"/>
		</g>
		<g style="opacity:0.1;">
			<rect x="126.8" y="28.5" width="10.5" height="60.8"/>
		</g>
		<g>
			<path style="fill:#D86635;" d="M137.3,23.9v125.5c0,1.6-1.3,2.9-2.9,2.9c-1.6,0-2.9-1.3-2.9-2.9V23.9c0-1.6,1.3-2.9,2.9-2.9
				c0.8,0,1.5,0.3,2,0.8C137,22.4,137.3,23.1,137.3,23.9z"/>
		</g>
		<g>
			<path style="fill:#C6422C;" d="M134.4,21v131.3c-1.6,0-2.9-1.3-2.9-2.9V23.9C131.6,22.3,132.8,21,134.4,21z"/>
		</g>
		<g>
			<polygon style="fill:#EF4B9A;" points="87.9,72.1 110.9,58.4 87.9,45.8 			"/>
			<path style="fill:#FFFFFF;" d="M85.9,75.7V42.4L115,58.3L85.9,75.7z M89.9,49.2v19.3l16.9-10.1L89.9,49.2z"/>
		</g>
	</g>
</g>
<g id="Layer_2">
</g>
</svg>
