<?xml version="1.0" encoding="utf-8"?>
<!-- Generator: Adobe Illustrator 22.1.0, SVG Export Plug-In . SVG Version: 6.00 Build 0)  -->
<svg version="1.1" xmlns="http://www.w3.org/2000/svg" xmlns:xlink="http://www.w3.org/1999/xlink" x="0px" y="0px"
	 viewBox="0 0 196 164" style="enable-background:new 0 0 196 164;" xml:space="preserve">
<g id="Layer_1">
	<g>
		<polygon style="fill:#6D20A5;" points="101.8,88.2 46.6,88.2 46.6,30 60.2,30 		"/>
		<polygon style="fill:#941FBF;" points="133.9,30 133.9,88.2 101.8,88.2 60.2,30 		"/>
		<rect x="125.6" y="30" style="opacity:0.1;" width="10.7" height="58.3"/>
		<path style="fill:#E2E2E2;" d="M133.9,149.6L133.9,149.6c-1.6,0-2.9-1.3-2.9-2.9V27.3c0-1.6,1.3-2.9,2.9-2.9h0
			c1.6,0,2.9,1.3,2.9,2.9v119.4C136.8,148.3,135.5,149.6,133.9,149.6z"/>
		<path style="opacity:0.1;" d="M133.4,24.4v125.2c-1.6,0-2.9-1.3-2.9-2.9V27.3C130.5,25.7,131.8,24.4,133.4,24.4z"/>
		<circle style="fill:#EDEDED;" cx="133.9" cy="21" r="6"/>
		<polygon style="fill:#F4B62A;" points="128.4,88.2 101.8,88.2 60.2,30 86.8,30 		"/>
		<polygon style="fill:#F4DE3B;" points="94.6,88.2 89.9,88.2 48.4,30 53,30 		"/>
	</g>
</g>
<g id="Layer_2">
</g>
</svg>
