<?xml version="1.0" encoding="utf-8"?>
<!-- Generator: Adobe Illustrator 22.1.0, SVG Export Plug-In . SVG Version: 6.00 Build 0)  -->
<svg version="1.1" id="Layer_1" xmlns="http://www.w3.org/2000/svg" xmlns:xlink="http://www.w3.org/1999/xlink" x="0px" y="0px"
	 viewBox="0 0 196 164" style="enable-background:new 0 0 196 164;" xml:space="preserve">
<g>
	<g>
		<rect x="45.1" y="29.2" style="fill:#1CC4F2;" width="88.4" height="59"/>
	</g>
	<g>
		<polygon style="fill:#12B9E0;" points="89.4,39.5 93.9,50.9 107.1,52.4 96.7,60.7 100.3,73.3 89.4,66.8 78.4,73.3 82,60.7 
			71.6,52.4 84.8,50.9 		"/>
		<path style="fill:#FFFFFF;" d="M103.2,77l-13.9-8.3L75.5,77L80,61.4L67.2,51.1l16.4-1.8l5.8-14.6l5.8,14.6l16.4,1.8L98.7,61.4
			L103.2,77z M89.4,64.8l8.1,4.8l-2.7-9.5l8-6.4l-10.1-1.1l-3.3-8.4L86,52.6l-10.1,1.1l8,6.4l-2.7,9.5L89.4,64.8z"/>
	</g>
	<g style="opacity:0.1;">
		<rect x="125.2" y="29.2" width="10.8" height="59"/>
	</g>
	<g>
		<path style="fill:#E2E2E2;" d="M133.6,150.3L133.6,150.3c-1.6,0-2.9-1.3-2.9-2.9V26.5c0-1.6,1.3-2.9,2.9-2.9h0
			c1.6,0,2.9,1.3,2.9,2.9v120.9C136.5,149,135.2,150.3,133.6,150.3z"/>
	</g>
	<g style="opacity:0.1;">
		<path d="M133.1,23.5v126.8c-1.6,0-2.9-1.3-2.9-2.9V26.5C130.1,24.8,131.5,23.5,133.1,23.5z"/>
	</g>
	<g>
		<circle style="fill:#EDEDED;" cx="133.6" cy="20" r="6"/>
	</g>
</g>
</svg>
