<?xml version="1.0" encoding="utf-8"?>
<!-- Generator: Adobe Illustrator 22.1.0, SVG Export Plug-In . SVG Version: 6.00 Build 0)  -->
<svg version="1.1" xmlns="http://www.w3.org/2000/svg" xmlns:xlink="http://www.w3.org/1999/xlink" x="0px" y="0px"
	 viewBox="0 0 196 164" style="enable-background:new 0 0 196 164;" xml:space="preserve">
<g id="Layer_1">
	<g>
		<polygon style="fill:#490F72;" points="130.4,37.4 130.4,95.8 56.3,95.8 69.7,79.2 71.6,77 70,74.7 57.2,56.2 54,51.7 44,37.4 		
			"/>
		<rect x="123" y="37.4" style="opacity:0.1;" width="10.1" height="58.4"/>
		<path style="fill:#D86635;" d="M133.2,34.2v113.4c0,1.5-1.2,2.8-2.8,2.8c-1.5,0-2.8-1.2-2.8-2.8V34.2c0-1.5,1.2-2.8,2.8-2.8
			c0.8,0,1.4,0.3,1.9,0.8C132.8,32.7,133.2,33.4,133.2,34.2z"/>
		<path style="fill:#C6422C;" d="M130.4,31.4v118.9c-1.5,0-2.8-1.2-2.8-2.8V34.2C127.7,32.7,128.9,31.4,130.4,31.4z"/>
		<g>
			<path style="fill:#FC3FB0;" d="M95.6,76.9L85,67.5c-2.7-2.4-2.9-6.5-0.5-9.1c2.4-2.7,6.5-2.9,9.1-0.5l1.9,1.7l1.9-1.7
				c2.7-2.4,6.8-2.1,9.1,0.5c2.4,2.7,2.1,6.8-0.5,9.1L95.6,76.9z"/>
		</g>
		<circle style="fill:#EA764E;" cx="130.4" cy="29.6" r="5.6"/>
	</g>
</g>
<g id="Layer_2">
</g>
</svg>
