<?xml version="1.0" encoding="utf-8"?>
<!-- Generator: Adobe Illustrator 22.1.0, SVG Export Plug-In . SVG Version: 6.00 Build 0)  -->
<svg version="1.1" xmlns="http://www.w3.org/2000/svg" xmlns:xlink="http://www.w3.org/1999/xlink" x="0px" y="0px"
	 viewBox="0 0 196 164" style="enable-background:new 0 0 196 164;" xml:space="preserve">
<g id="Layer_1">
	<g>
		<rect x="46" y="30.1" style="fill:#FC4C1D;" width="87.8" height="58.6"/>
		<polygon style="fill:#FFFFFF;" points="93.8,43.7 74,59.6 93.8,76.9 		"/>
		<polygon style="fill:#E5E5E5;" points="101.3,43.7 81.4,59.6 101.3,76.9 		"/>
		<rect x="125.9" y="30.1" style="opacity:0.1;" width="10.8" height="58.6"/>
		<path style="fill:#F7BA0F;" d="M136.7,27.4v120c0,1.6-1.3,2.9-2.9,2.9c-1.6,0-2.9-1.3-2.9-2.9v-120c0-1.6,1.3-2.9,2.9-2.9
			c0.8,0,1.5,0.3,2.1,0.9C136.4,25.8,136.7,26.6,136.7,27.4z"/>
		<path style="opacity:0.1;" d="M133.8,24.4v125.9c-1.6,0-2.9-1.3-2.9-2.9v-120C130.8,25.8,132.1,24.4,133.8,24.4z"/>
		<circle style="fill:#F9D812;" cx="133.8" cy="21" r="6"/>
	</g>
</g>
<g id="Layer_2">
</g>
</svg>
