<?xml version="1.0" encoding="utf-8"?>
<!-- Generator: Adobe Illustrator 22.1.0, SVG Export Plug-In . SVG Version: 6.00 Build 0)  -->
<svg version="1.1" xmlns="http://www.w3.org/2000/svg" xmlns:xlink="http://www.w3.org/1999/xlink" x="0px" y="0px"
	 viewBox="0 0 196 164" style="enable-background:new 0 0 196 164;" xml:space="preserve">
<g id="Layer_1">
	<g>
		<path style="fill:#FFC431;" d="M130,32.7V90c0,0-24.1-3-41-2.8c-13.8,0.2-41.4,5.1-41.4,5.1l2.6-6.8c5.8-15.4,5.9-32.3,0.2-47.7
			l-2.8-7.5c0,0,28.4,4.6,41,5.1C101.8,36,130,32.7,130,32.7z"/>
		<rect x="122.3" y="32.7" style="opacity:0.1;" width="10.5" height="57.3"/>
		<path style="fill:#D86635;" d="M132.9,30.1v117.3c0,1.6-1.3,2.9-2.9,2.9c-1.6,0-2.9-1.3-2.9-2.9V30.1c0-1.6,1.3-2.9,2.9-2.9
			c0.8,0,1.5,0.3,2,0.8C132.6,28.6,132.9,29.3,132.9,30.1z"/>
		<path style="fill:#C6422C;" d="M130,27.2v123c-1.6,0-2.9-1.3-2.9-2.9V30.1C127.2,28.5,128.4,27.2,130,27.2z"/>
		<circle style="fill:#EA764E;" cx="130" cy="23.9" r="5.9"/>
		<polygon style="fill:#1CC4F2;stroke:#FFFFFF;stroke-width:5;stroke-miterlimit:10;" points="91.5,46.3 106,71.4 77,71.4 		"/>
	</g>
</g>
<g id="Layer_2">
</g>
</svg>
