<?xml version="1.0" encoding="utf-8"?>
<!-- Generator: Adobe Illustrator 22.1.0, SVG Export Plug-In . SVG Version: 6.00 Build 0)  -->
<svg version="1.1" xmlns="http://www.w3.org/2000/svg" xmlns:xlink="http://www.w3.org/1999/xlink" x="0px" y="0px"
	 viewBox="0 0 196 164" style="enable-background:new 0 0 196 164;" xml:space="preserve">
<g id="Layer_1">
	<g>
		<polyline style="fill:none;stroke:#F437B5;stroke-width:4;stroke-miterlimit:10;" points="146,23.2 136.2,30.3 146,36 		"/>
		<polyline style="fill:none;stroke:#F437B5;stroke-width:4;stroke-miterlimit:10;" points="146,71.2 136.2,78.3 146,84 		"/>
		<polygon style="fill:#F437B5;" points="134.6,21.2 134.6,89.1 126.8,86 51.3,56.7 126.8,24.6 		"/>
		<polygon style="opacity:0.1;" points="134.6,21.2 134.6,89.1 126.8,86 126.8,24.6 		"/>
		<path style="fill:#E2E2E2;" d="M134.6,148.5L134.6,148.5c-1.5,0-2.8-1.2-2.8-2.8V20c0-1.5,1.2-2.8,2.8-2.8l0,0
			c1.5,0,2.8,1.2,2.8,2.8v125.7C137.4,147.2,136.2,148.5,134.6,148.5z"/>
		<path style="opacity:0.1;" d="M134.6,17.2v131.3c-1.5,0-2.8-1.2-2.8-2.8V20C131.9,18.4,133.1,17.2,134.6,17.2z"/>
		<circle style="fill:#FFF24D;" cx="105.9" cy="55.1" r="10.8"/>
	</g>
</g>
<g id="Layer_2">
</g>
</svg>
