<?xml version="1.0" encoding="utf-8"?>
<!-- Generator: Adobe Illustrator 22.1.0, SVG Export Plug-In . SVG Version: 6.00 Build 0)  -->
<svg version="1.1" xmlns="http://www.w3.org/2000/svg" xmlns:xlink="http://www.w3.org/1999/xlink" x="0px" y="0px"
	 viewBox="0 0 196 164" style="enable-background:new 0 0 196 164;" xml:space="preserve">
<g id="Layer_1">
	<g>
		<path style="fill:#087DB7;" d="M125.5,33.4v56c0,0-24.6-0.5-40.1-2.7c-13.4-1.9-40.5-8.5-40.5-8.5l22.2-16.7L44.9,44.6
			c0,0,27.9-6.7,40.1-8.5C98.7,34.1,125.5,33.4,125.5,33.4z"/>
		<rect x="118" y="33.4" style="opacity:0.1;" width="10.3" height="56"/>
		<path style="fill:#D86635;" d="M128.3,30.8v114.6c0,1.5-1.3,2.8-2.8,2.8c-1.5,0-2.8-1.3-2.8-2.8V30.8c0-1.5,1.3-2.8,2.8-2.8
			c0.8,0,1.5,0.3,2,0.8C128,29.3,128.3,30,128.3,30.8z"/>
		<path style="fill:#C6422C;" d="M125.5,28v120.2c-1.5,0-2.8-1.3-2.8-2.8V30.8C122.7,29.3,123.9,28,125.5,28z"/>
		<circle style="fill:#EA764E;" cx="125.5" cy="24.7" r="5.7"/>
		<g>
			<polygon style="fill:#F7DB37;" points="103.7,43.1 90.2,55.9 88.9,51.7 99.8,53.5 105.8,54.5 100.8,58 87.4,67.3 86.9,63 
				94.3,65.9 98.4,67.6 95.1,70 80.7,80.6 91.6,66.5 92.4,70.6 85,67.6 80.8,65.9 84.5,63.2 97.9,53.9 99,58.4 88.1,56.6 83.2,55.8 
				86.8,52.3 100.2,39.5 			"/>
		</g>
	</g>
</g>
<g id="Layer_2">
</g>
</svg>
