<?xml version="1.0" encoding="utf-8"?>
<!-- Generator: Adobe Illustrator 22.1.0, SVG Export Plug-In . SVG Version: 6.00 Build 0)  -->
<svg version="1.1" xmlns="http://www.w3.org/2000/svg" xmlns:xlink="http://www.w3.org/1999/xlink" x="0px" y="0px"
	 viewBox="0 0 196 164" style="enable-background:new 0 0 196 164;" xml:space="preserve">
<g id="Layer_1">
	<g>
		<polygon style="fill:#8AEA36;" points="128.7,35.4 128.7,91.3 48.1,91.3 70.3,63.4 48.1,35.4 		"/>
		<rect x="121.2" y="35.4" style="opacity:0.1;" width="10.3" height="56"/>
		<path style="fill:#F7BA0F;" d="M131.5,32.8v114.6c0,1.5-1.3,2.8-2.8,2.8c-1.5,0-2.8-1.3-2.8-2.8V32.8c0-1.5,1.3-2.8,2.8-2.8
			c0.8,0,1.5,0.3,2,0.8C131.2,31.3,131.5,32,131.5,32.8z"/>
		<path style="opacity:0.1;" d="M128.7,30v120.2c-1.5,0-2.8-1.3-2.8-2.8V32.8C125.9,31.3,127.1,30,128.7,30z"/>
		<circle style="fill:#F9D812;" cx="128.7" cy="26.7" r="5.7"/>
		<line style="fill:#66259E;stroke:#FFFFFF;stroke-width:6;stroke-miterlimit:10;" x1="82.5" y1="52.3" x2="116.3" y2="52.3"/>
		<line style="fill:#66259E;stroke:#FFFFFF;stroke-width:6;stroke-miterlimit:10;" x1="89.1" y1="63.4" x2="116.3" y2="63.4"/>
		<line style="fill:#66259E;stroke:#FFFFFF;stroke-width:6;stroke-miterlimit:10;" x1="82.5" y1="74.4" x2="116.3" y2="74.4"/>
		<polygon style="fill:#B8F928;" points="79.1,63.4 56.9,91.3 48.1,91.3 70.3,63.4 48.1,35.4 56.9,35.4 		"/>
	</g>
</g>
<g id="Layer_2">
</g>
</svg>
