<?xml version="1.0" encoding="utf-8"?>
<!-- Generator: Adobe Illustrator 22.1.0, SVG Export Plug-In . SVG Version: 6.00 Build 0)  -->
<svg version="1.1" id="Layer_1" xmlns="http://www.w3.org/2000/svg" xmlns:xlink="http://www.w3.org/1999/xlink" x="0px" y="0px"
	 viewBox="0 0 512 512" style="enable-background:new 0 0 512 512;" xml:space="preserve">
<g>
	<circle cx="263.5" cy="12.5" r="3.5"/>
	<circle cx="263.5" cy="56.5" r="3.5"/>
	<circle cx="261.5" cy="100.5" r="3.5"/>
	<circle cx="262.5" cy="144.5" r="3.5"/>
	<circle cx="259.5" cy="188.5" r="3.5"/>
	<circle cx="259.5" cy="232.5" r="3.5"/>
	<circle cx="259.5" cy="276.5" r="3.5"/>
	<circle cx="257.5" cy="337.5" r="3.5"/>
	<circle cx="247.5" cy="341.5" r="3.5"/>
	<circle cx="250.5" cy="377.5" r="3.5"/>
	<circle cx="230.5" cy="407.5" r="3.5"/>
	<circle cx="205.5" cy="460.5" r="3.5"/>
	<circle cx="199.5" cy="492.5" r="3.5"/>
	<circle cx="239.5" cy="499.5" r="3.5"/>
	<circle cx="276.5" cy="499.5" r="3.5"/>
	<circle cx="311.5" cy="493.5" r="3.5"/>
	<circle cx="303.5" cy="451.5" r="3.5"/>
	<circle cx="288.5" cy="407.5" r="3.5"/>
	<circle cx="276.5" cy="375.5" r="3.5"/>
	<circle cx="287.5" cy="344.5" r="3.5"/>
	<circle cx="274.5" cy="337.5" r="3.5"/>
	<circle cx="274.5" cy="276.5" r="3.5"/>
	<circle cx="274.5" cy="232.5" r="3.5"/>
	<circle cx="275.5" cy="188.5" r="3.5"/>
	<circle cx="276.5" cy="144.5" r="3.5"/>
	<circle cx="276.5" cy="99.5" r="3.5"/>
	<circle cx="276.5" cy="57.5" r="3.5"/>
	<circle cx="277.5" cy="12.5" r="3.5"/>
</g>
</svg>
