<?xml version="1.0" encoding="utf-8"?>
<!-- Generator: Adobe Illustrator 22.1.0, SVG Export Plug-In . SVG Version: 6.00 Build 0)  -->
<svg version="1.1" id="Layer_1" xmlns="http://www.w3.org/2000/svg" xmlns:xlink="http://www.w3.org/1999/xlink" x="0px" y="0px"
	 viewBox="0 0 512 512" style="enable-background:new 0 0 512 512;" xml:space="preserve">
<g>
	<circle cx="259.5" cy="14.5" r="3.5"/>
	<circle cx="240.5" cy="38.5" r="3.5"/>
	<circle cx="232.5" cy="73.5" r="3.5"/>
	<circle cx="230.5" cy="116.5" r="3.5"/>
	<circle cx="236.5" cy="160.5" r="3.5"/>
	<circle cx="239.5" cy="204.5" r="3.5"/>
	<circle cx="237.5" cy="238.5" r="3.5"/>
	<circle cx="218.5" cy="268.5" r="3.5"/>
	<circle cx="193.5" cy="288.5" r="3.5"/>
	<circle cx="195.5" cy="348.5" r="3.5"/>
	<circle cx="193.5" cy="415.5" r="3.5"/>
	<circle cx="189.5" cy="495.5" r="3.5"/>
	<circle cx="259.5" cy="495.5" r="3.5"/>
	<circle cx="332.5" cy="497.5" r="3.5"/>
	<circle cx="325.5" cy="418.5" r="3.5"/>
	<circle cx="321.5" cy="351.5" r="3.5"/>
	<circle cx="323.5" cy="283.5" r="3.5"/>
	<circle cx="294.5" cy="268.5" r="3.5"/>
	<circle cx="279.5" cy="241.5" r="3.5"/>
	<circle cx="279.5" cy="206.5" r="3.5"/>
	<circle cx="283.5" cy="160.5" r="3.5"/>
	<circle cx="284.5" cy="116.5" r="3.5"/>
	<circle cx="283.5" cy="76.5" r="3.5"/>
	<circle cx="277.5" cy="38.5" r="3.5"/>
</g>
</svg>
