<?xml version="1.0" encoding="utf-8"?>
<!-- Generator: Adobe Illustrator 22.1.0, SVG Export Plug-In . SVG Version: 6.00 Build 0)  -->
<svg version="1.1" id="Layer_1" xmlns="http://www.w3.org/2000/svg" xmlns:xlink="http://www.w3.org/1999/xlink" x="0px" y="0px"
	 viewBox="0 0 512 512" style="enable-background:new 0 0 512 512;" xml:space="preserve">
<g>
	
		<path style="fill:none;stroke:#000000;stroke-width:4;stroke-linecap:round;stroke-linejoin:round;stroke-miterlimit:10;enable-background:new    ;" d="
		M418,193c-2,27-66.5,45.1-149.9,45.1s-150.9-22.6-150.9-50.6"/>
	
		<ellipse style="fill:none;stroke:#000000;stroke-width:4;stroke-linecap:round;stroke-linejoin:round;stroke-miterlimit:10;enable-background:new    ;" cx="375.5" cy="271.8" rx="17.4" ry="24.8"/>
	
		<path style="fill:none;stroke:#000000;stroke-width:4;stroke-linecap:round;stroke-linejoin:round;stroke-miterlimit:10;enable-background:new    ;" d="
		M375.5,272.8c0,0,13.5-164.6-52.2-202.2c-58.4-33.5-122.9-27.8-156.9,51.7"/>
</g>
<g style="opacity:0;">
	<circle cx="335.5" cy="116" r="3.5"/>
	<circle cx="279.5" cy="112" r="3.5"/>
	<circle cx="392.9" cy="132.7" r="3.5"/>
	<circle cx="419.3" cy="192.6" r="3.5"/>
	<circle cx="408.2" cy="290.4" r="3.5"/>
	<circle cx="397.1" cy="388.1" r="3.5"/>
	<circle cx="384.4" cy="447.2" r="3.5"/>
	<circle cx="265.2" cy="490.8" r="3.5"/>
	<circle cx="333.2" cy="478.8" r="3.5"/>
	<circle cx="145.7" cy="449.2" r="3.5"/>
	<circle cx="199.7" cy="475.2" r="3.5"/>
	<circle cx="138.8" cy="382.7" r="3.5"/>
	<circle cx="127.6" cy="285" r="3.5"/>
	<circle cx="116.4" cy="187.3" r="3.5"/>
	<circle cx="147.9" cy="130.7" r="3.5"/>
	<circle cx="229.1" cy="112" r="3.5"/>
</g>
</svg>
