<?xml version="1.0" encoding="utf-8"?>
<!-- Generator: Adobe Illustrator 22.1.0, SVG Export Plug-In . SVG Version: 6.00 Build 0)  -->
<svg version="1.1" id="Layer_1" xmlns="http://www.w3.org/2000/svg" xmlns:xlink="http://www.w3.org/1999/xlink" x="0px" y="0px"
	 viewBox="0 0 512 512" style="enable-background:new 0 0 512 512;" xml:space="preserve">
<g>
	<circle cx="254.6" cy="20.1" r="3.5"/>
	<circle cx="326.8" cy="31.2" r="3.5"/>
	<circle cx="380.5" cy="56.7" r="3.5"/>
	<circle cx="425.6" cy="94.5" r="3.5"/>
	<circle cx="460.1" cy="142.4" r="3.5"/>
	<circle cx="481.6" cy="198.2" r="3.5"/>
	<circle cx="488.1" cy="259.7" r="3.5"/>
	<circle cx="478.4" cy="320.3" r="3.5"/>
	<circle cx="454.2" cy="374.6" r="3.5"/>
	<circle cx="417.6" cy="420.6" r="3.5"/>
	<circle cx="370.6" cy="456.1" r="3.5"/>
	<circle cx="315.6" cy="478.9" r="3.5"/>
	<circle cx="254.5" cy="487" r="3.5"/>
	<circle cx="193.5" cy="478.9" r="3.5"/>
	<circle cx="138.4" cy="456" r="3.5"/>
	<circle cx="91.5" cy="420.5" r="3.5"/>
	<circle cx="54.9" cy="374.5" r="3.5"/>
	<circle cx="30.7" cy="320.1" r="3.5"/>
	<circle cx="21.1" cy="259.6" r="3.5"/>
	<circle cx="27.6" cy="198" r="3.5"/>
	<circle cx="49.2" cy="142.2" r="3.5"/>
	<circle cx="83.7" cy="94.4" r="3.5"/>
	<circle cx="128.8" cy="56.6" r="3.5"/>
	<circle cx="182.6" cy="31.2" r="3.5"/>
</g>
</svg>
