<?xml version="1.0" encoding="utf-8"?>
<!-- Generator: Adobe Illustrator 22.1.0, SVG Export Plug-In . SVG Version: 6.00 Build 0)  -->
<svg version="1.1" id="Layer_1" xmlns="http://www.w3.org/2000/svg" xmlns:xlink="http://www.w3.org/1999/xlink" x="0px" y="0px"
	 viewBox="0 0 512 512" style="enable-background:new 0 0 512 512;" xml:space="preserve">
<g>
	
		<path id="XMLID_41_" style="fill:none;stroke:#000000;stroke-width:5;stroke-linecap:round;stroke-linejoin:round;stroke-miterlimit:10;enable-background:new    ;" d="
		M254.6,452.3c109.6,0,198.9-89.3,198.9-198.9S364.2,54.5,254.6,54.5S55.7,143.8,55.7,253.4S145,452.3,254.6,452.3z"/>
	
		<polyline id="XMLID_1_" style="fill:none;stroke:#000000;stroke-width:5;stroke-linecap:round;stroke-linejoin:round;stroke-miterlimit:10;enable-background:new    ;" points="
		239.5,242.2 247.1,182.1 254.6,113.2 262.1,182.1 269.5,242.2 	"/>
	
		<polyline id="XMLID_2_" style="fill:none;stroke:#000000;stroke-width:5;stroke-linecap:round;stroke-linejoin:round;stroke-miterlimit:10;enable-background:new    ;" points="
		241.6,266.1 198,260.1 141.4,253.8 198,247.8 241.6,241.6 	"/>
	
		<path id="XMLID_37_" style="fill:none;stroke:#000000;stroke-width:5;stroke-linecap:round;stroke-linejoin:round;stroke-miterlimit:10;enable-background:new    ;" d="
		M254.6,271.9c10.1,0,18.5-8.2,18.5-18.5c0-10.1-8.2-18.5-18.5-18.5c-10.1,0-18.3,8.2-18.3,18.5
		C236.1,263.5,244.5,271.9,254.6,271.9z"/>
	
		<line style="fill:none;stroke:#000000;stroke-width:5;stroke-linecap:round;stroke-linejoin:round;stroke-miterlimit:10;" x1="254.5" y1="54.5" x2="254.5" y2="77.5"/>
	
		<line style="fill:none;stroke:#000000;stroke-width:5;stroke-linecap:round;stroke-linejoin:round;stroke-miterlimit:10;" x1="452.5" y1="253.5" x2="429.5" y2="253.5"/>
	
		<line style="fill:none;stroke:#000000;stroke-width:5;stroke-linecap:round;stroke-linejoin:round;stroke-miterlimit:10;" x1="253.5" y1="451.5" x2="253.5" y2="428.5"/>
	
		<line style="fill:none;stroke:#000000;stroke-width:5;stroke-linecap:round;stroke-linejoin:round;stroke-miterlimit:10;" x1="55.5" y1="252.5" x2="78.5" y2="252.5"/>
	
		<line style="fill:none;stroke:#000000;stroke-width:5;stroke-linecap:round;stroke-linejoin:round;stroke-miterlimit:10;" x1="254.5" y1="54.5" x2="254.5" y2="77.5"/>
	
		<line style="fill:none;stroke:#000000;stroke-width:5;stroke-linecap:round;stroke-linejoin:round;stroke-miterlimit:10;" x1="452.5" y1="253.5" x2="429.5" y2="253.5"/>
	
		<line style="fill:none;stroke:#000000;stroke-width:5;stroke-linecap:round;stroke-linejoin:round;stroke-miterlimit:10;" x1="253.5" y1="451.5" x2="253.5" y2="428.5"/>
	
		<line style="fill:none;stroke:#000000;stroke-width:5;stroke-linecap:round;stroke-linejoin:round;stroke-miterlimit:10;" x1="55.5" y1="252.5" x2="78.5" y2="252.5"/>
	
		<line style="fill:none;stroke:#000000;stroke-width:5;stroke-linecap:round;stroke-linejoin:round;stroke-miterlimit:10;" x1="155.2" y1="80.8" x2="166.7" y2="100.8"/>
	
		<line style="fill:none;stroke:#000000;stroke-width:5;stroke-linecap:round;stroke-linejoin:round;stroke-miterlimit:10;" x1="426.2" y1="154.2" x2="406.2" y2="165.7"/>
	
		<line style="fill:none;stroke:#000000;stroke-width:5;stroke-linecap:round;stroke-linejoin:round;stroke-miterlimit:10;" x1="352.8" y1="425.2" x2="341.3" y2="405.2"/>
	
		<line style="fill:none;stroke:#000000;stroke-width:5;stroke-linecap:round;stroke-linejoin:round;stroke-miterlimit:10;" x1="81.8" y1="351.8" x2="101.8" y2="340.3"/>
	
		<line style="fill:none;stroke:#000000;stroke-width:5;stroke-linecap:round;stroke-linejoin:round;stroke-miterlimit:10;" x1="79.6" y1="158.1" x2="99.9" y2="169.1"/>
	
		<line style="fill:none;stroke:#000000;stroke-width:5;stroke-linecap:round;stroke-linejoin:round;stroke-miterlimit:10;" x1="348.9" y1="78.6" x2="337.9" y2="98.9"/>
	
		<line style="fill:none;stroke:#000000;stroke-width:5;stroke-linecap:round;stroke-linejoin:round;stroke-miterlimit:10;" x1="428.4" y1="347.9" x2="408.1" y2="336.9"/>
	
		<line style="fill:none;stroke:#000000;stroke-width:5;stroke-linecap:round;stroke-linejoin:round;stroke-miterlimit:10;" x1="159.1" y1="427.4" x2="170.1" y2="407.1"/>
</g>
<g style="opacity:0;">
	<circle cx="254.6" cy="20.1" r="3.5"/>
	<circle cx="326.8" cy="31.2" r="3.5"/>
	<circle cx="380.5" cy="56.7" r="3.5"/>
	<circle cx="425.6" cy="94.5" r="3.5"/>
	<circle cx="460.1" cy="142.4" r="3.5"/>
	<circle cx="481.6" cy="198.2" r="3.5"/>
	<circle cx="488.1" cy="259.7" r="3.5"/>
	<circle cx="478.4" cy="320.3" r="3.5"/>
	<circle cx="454.2" cy="374.6" r="3.5"/>
	<circle cx="417.6" cy="420.6" r="3.5"/>
	<circle cx="370.6" cy="456.1" r="3.5"/>
	<circle cx="315.6" cy="478.9" r="3.5"/>
	<circle cx="254.5" cy="487" r="3.5"/>
	<circle cx="193.5" cy="478.9" r="3.5"/>
	<circle cx="138.4" cy="456" r="3.5"/>
	<circle cx="91.5" cy="420.5" r="3.5"/>
	<circle cx="54.9" cy="374.5" r="3.5"/>
	<circle cx="30.7" cy="320.1" r="3.5"/>
	<circle cx="21.1" cy="259.6" r="3.5"/>
	<circle cx="27.6" cy="198" r="3.5"/>
	<circle cx="49.2" cy="142.2" r="3.5"/>
	<circle cx="83.7" cy="94.4" r="3.5"/>
	<circle cx="128.8" cy="56.6" r="3.5"/>
	<circle cx="182.6" cy="31.2" r="3.5"/>
</g>
</svg>
