<?xml version="1.0" encoding="utf-8"?>
<!-- Generator: Adobe Illustrator 22.1.0, SVG Export Plug-In . SVG Version: 6.00 Build 0)  -->
<svg version="1.1" id="Layer_1" xmlns="http://www.w3.org/2000/svg" xmlns:xlink="http://www.w3.org/1999/xlink" x="0px" y="0px"
	 viewBox="0 0 512 512" style="enable-background:new 0 0 512 512;" xml:space="preserve">
<g>
	<circle cx="198.7" cy="44.7" r="3.5"/>
	<circle cx="302.1" cy="47.5" r="3.5"/>
	<circle cx="360.4" cy="54.5" r="3.5"/>
	<circle cx="365.3" cy="103.7" r="3.5"/>
	<circle cx="365.3" cy="175.2" r="3.5"/>
	<circle cx="365.3" cy="246.7" r="3.5"/>
	<circle cx="365.3" cy="318.2" r="3.5"/>
	<circle cx="357" cy="388.8" r="3.5"/>
	<circle cx="301.6" cy="428.3" r="3.5"/>
	<circle cx="299.1" cy="468.3" r="3.5"/>
	<circle cx="197.6" cy="468.3" r="3.5"/>
	<circle cx="91.1" cy="468.3" r="3.5"/>
	<circle cx="93.5" cy="428.2" r="3.5"/>
	<circle cx="38.7" cy="387.9" r="3.5"/>
	<circle cx="30.8" cy="317.3" r="3.5"/>
	<circle cx="30.8" cy="245.8" r="3.5"/>
	<circle cx="30.8" cy="174.3" r="3.5"/>
	<circle cx="30.8" cy="102.9" r="3.5"/>
	<circle cx="35.7" cy="54.4" r="3.5"/>
	<circle cx="94.4" cy="47.4" r="3.5"/>
</g>
</svg>
