<?xml version="1.0" encoding="utf-8"?>
<!-- Generator: Adobe Illustrator 22.1.0, SVG Export Plug-In . SVG Version: 6.00 Build 0)  -->
<svg version="1.1" id="Layer_1" xmlns="http://www.w3.org/2000/svg" xmlns:xlink="http://www.w3.org/1999/xlink" x="0px" y="0px"
	 viewBox="0 0 512 512" style="enable-background:new 0 0 512 512;" xml:space="preserve">
<g>
	<path style="fill:none;stroke:#000000;stroke-width:5;stroke-miterlimit:10;" d="M365,342.5c65-2.6,116.7-56.1,116.7-121.6
		S429.7,102.1,365,99.2"/>
	<path style="fill:none;stroke:#000000;stroke-width:5;stroke-miterlimit:10;" d="M365,130.7c47.6,2.6,85.3,41.8,85.3,90.2
		c0,48.1-37.7,87.6-85.3,90.2"/>
	<path style="fill:none;stroke:#000000;stroke-width:5;stroke-miterlimit:10;" d="M360,57.7c0,7.2-72.6,13-162.1,13
		s-162.1-5.8-162.1-13"/>
	<path style="display:none;fill:none;stroke:#F05B56;stroke-miterlimit:10;" d="M197.9,44.7c-92.4,0-167.4,5.8-167.4,13
		c0,0.2,0.1,0.5,0.3,0.7v296.1c0,41.1,33.3,74.6,74.6,74.6h4.7v39.2h175.7v-39.2h4.9c41.1,0,74.6-33.3,74.6-74.6V57.7
		c0-7.2-74.5-13-166.6-13"/>
</g>
<g style="opacity:0;">
	<circle cx="198.7" cy="44.7" r="3.5"/>
	<circle cx="302.1" cy="47.5" r="3.5"/>
	<circle cx="360.4" cy="54.5" r="3.5"/>
	<circle cx="365.3" cy="103.7" r="3.5"/>
	<circle cx="365.3" cy="175.2" r="3.5"/>
	<circle cx="365.3" cy="246.7" r="3.5"/>
	<circle cx="365.3" cy="318.2" r="3.5"/>
	<circle cx="357" cy="388.8" r="3.5"/>
	<circle cx="301.6" cy="428.3" r="3.5"/>
	<circle cx="299.1" cy="468.3" r="3.5"/>
	<circle cx="197.6" cy="468.3" r="3.5"/>
	<circle cx="91.1" cy="468.3" r="3.5"/>
	<circle cx="93.5" cy="428.2" r="3.5"/>
	<circle cx="38.7" cy="387.9" r="3.5"/>
	<circle cx="30.8" cy="317.3" r="3.5"/>
	<circle cx="30.8" cy="245.8" r="3.5"/>
	<circle cx="30.8" cy="174.3" r="3.5"/>
	<circle cx="30.8" cy="102.9" r="3.5"/>
	<circle cx="35.7" cy="54.4" r="3.5"/>
	<circle cx="94.4" cy="47.4" r="3.5"/>
</g>
</svg>
