<?xml version="1.0" encoding="utf-8"?>
<!-- Generator: Adobe Illustrator 22.1.0, SVG Export Plug-In . SVG Version: 6.00 Build 0)  -->
<svg version="1.1" id="Layer_1" xmlns="http://www.w3.org/2000/svg" xmlns:xlink="http://www.w3.org/1999/xlink" x="0px" y="0px"
	 viewBox="0 0 512 512" style="enable-background:new 0 0 512 512;" xml:space="preserve">
<g>
	<circle cx="237.5" cy="29.5" r="3.5"/>
	<circle cx="237.5" cy="66.5" r="3.5"/>
	<circle cx="220.5" cy="66.5" r="3.5"/>
	<circle cx="220.5" cy="87.5" r="3.5"/>
	<circle cx="185.5" cy="135.5" r="3.5"/>
	<circle cx="142.5" cy="203.5" r="3.5"/>
	<circle cx="142.5" cy="275.5" r="3.5"/>
	<circle cx="142.5" cy="347.5" r="3.5"/>
	<circle cx="142.5" cy="419.5" r="3.5"/>
	<circle cx="142.5" cy="475.5" r="3.5"/>
	<circle cx="219.5" cy="475.5" r="3.5"/>
	<circle cx="296.5" cy="475.5" r="3.5"/>
	<circle cx="358.5" cy="475.5" r="3.5"/>
	<circle cx="358.5" cy="419.5" r="3.5"/>
	<circle cx="358.5" cy="350.5" r="3.5"/>
	<circle cx="358.5" cy="275.5" r="3.5"/>
	<circle cx="358.5" cy="203.5" r="3.5"/>
	<circle cx="332.5" cy="138.5" r="3.5"/>
	<circle cx="313.5" cy="87.5" r="3.5"/>
	<circle cx="312.5" cy="66.5" r="3.5"/>
	<circle cx="293.5" cy="66.5" r="3.5"/>
	<circle cx="293.5" cy="28.5" r="3.5"/>
</g>
</svg>
