<?xml version="1.0" encoding="utf-8"?>
<!-- Generator: Adobe Illustrator 22.1.0, SVG Export Plug-In . SVG Version: 6.00 Build 0)  -->
<svg version="1.1" id="Layer_1" xmlns="http://www.w3.org/2000/svg" xmlns:xlink="http://www.w3.org/1999/xlink" x="0px" y="0px"
	 viewBox="0 0 512 512" style="enable-background:new 0 0 512 512;" xml:space="preserve">
<g>
	<circle cx="230.3" cy="31.6" r="3.5"/>
	<circle cx="280.4" cy="31.6" r="3.5"/>
	<circle cx="340.4" cy="31.6" r="3.5"/>
	<circle cx="341.9" cy="82" r="3.5"/>
	<circle cx="341.9" cy="118" r="3.5"/>
	<circle cx="341.9" cy="168" r="3.5"/>
	<circle cx="341.9" cy="218" r="3.5"/>
	<circle cx="322.9" cy="254.3" r="3.5"/>
	<circle cx="322.9" cy="314.3" r="3.5"/>
	<circle cx="322.9" cy="364.3" r="3.5"/>
	<circle cx="322.9" cy="414.3" r="3.5"/>
	<circle cx="322.9" cy="464.3" r="3.5"/>
	<circle cx="322.4" cy="498.9" r="3.5"/>
	<circle cx="256.3" cy="499" r="3.5"/>
	<circle cx="192.3" cy="499" r="3.5"/>
	<circle cx="190.4" cy="465.7" r="3.5"/>
	<circle cx="190.4" cy="415.7" r="3.5"/>
	<circle cx="190.4" cy="365.7" r="3.5"/>
	<circle cx="190.4" cy="315.7" r="3.5"/>
	<circle cx="190.4" cy="265.6" r="3.5"/>
	<circle cx="176.5" cy="227.7" r="3.5"/>
	<circle cx="171.2" cy="179.6" r="3.5"/>
	<circle cx="171.2" cy="129.6" r="3.5"/>
	<circle cx="171.2" cy="79.6" r="3.5"/>
	<circle cx="171.2" cy="31.6" r="3.5"/>
</g>
</svg>
