<?xml version="1.0" encoding="utf-8"?>
<!-- Generator: Adobe Illustrator 22.1.0, SVG Export Plug-In . SVG Version: 6.00 Build 0)  -->
<svg version="1.1" id="Layer_1" xmlns="http://www.w3.org/2000/svg" xmlns:xlink="http://www.w3.org/1999/xlink" x="0px" y="0px"
	 viewBox="0 0 512 512" style="enable-background:new 0 0 512 512;" xml:space="preserve">
<g style="opacity:0;">
	<circle cx="228.5" cy="15.5" r="3.5"/>
	<circle cx="219.5" cy="55.5" r="3.5"/>
	<circle cx="219.5" cy="123.5" r="3.5"/>
	<circle cx="219.5" cy="151.5" r="3.5"/>
	<circle cx="243.5" cy="190.5" r="3.5"/>
	<circle cx="245.5" cy="252.5" r="3.5"/>
	<circle cx="247.5" cy="308.5" r="3.5"/>
	<circle cx="249.5" cy="368.5" r="3.5"/>
	<circle cx="239.5" cy="409.5" r="3.5"/>
	<circle cx="230.5" cy="448.5" r="3.5"/>
	<circle cx="236.5" cy="486.5" r="3.5"/>
	<circle cx="249.5" cy="499.5" r="3.5"/>
	<circle cx="269.5" cy="498.5" r="3.5"/>
	<circle cx="279.5" cy="479.5" r="3.5"/>
	<circle cx="283.5" cy="451.5" r="3.5"/>
	<circle cx="272.5" cy="411.5" r="3.5"/>
	<circle cx="265.5" cy="308.5" r="3.5"/>
	<circle cx="267.5" cy="252.5" r="3.5"/>
	<circle cx="269.5" cy="190.5" r="3.5"/>
	<circle cx="293.5" cy="120.5" r="3.5"/>
	<circle cx="294.5" cy="61.5" r="3.5"/>
	<circle cx="283.5" cy="13.5" r="3.5"/>
	<circle cx="280.5" cy="61.5" r="3.5"/>
	<circle cx="279.5" cy="131.5" r="3.5"/>
	<circle cx="235.5" cy="131.5" r="3.5"/>
	<circle cx="231.5" cy="57.5" r="3.5"/>
</g>
<g>
	
		<line style="fill:none;stroke:#000000;stroke-width:4;stroke-linecap:round;stroke-linejoin:round;stroke-miterlimit:10;" x1="266.8" y1="13.5" x2="266.8" y2="131"/>
	
		<line style="fill:none;stroke:#000000;stroke-width:4;stroke-linecap:round;stroke-linejoin:round;stroke-miterlimit:10;" x1="248.8" y1="13.5" x2="248.8" y2="131"/>
</g>
</svg>
