<?xml version="1.0" encoding="utf-8"?>
<!-- Generator: Adobe Illustrator 22.1.0, SVG Export Plug-In . SVG Version: 6.00 Build 0)  -->
<svg version="1.1" id="Layer_1" xmlns="http://www.w3.org/2000/svg" xmlns:xlink="http://www.w3.org/1999/xlink" x="0px" y="0px"
	 viewBox="0 0 512 512" style="enable-background:new 0 0 512 512;" xml:space="preserve">
<g>
	<path style="fill:none;stroke:#000000;stroke-width:5;stroke-linecap:round;stroke-linejoin:round;stroke-miterlimit:10;" d="
		M30.7,285.7l1.8,25.1c0.4,5.1,4.7,9.2,9.8,9.2h426.6c5.5,0,9.8-4.5,9.8-9.8v-22.7c0-5.5-4.3-9.8-9.8-9.8l-428.7-2.7
		C34.7,275.1,30.3,280,30.7,285.7z"/>
	
		<line style="fill:none;stroke:#000000;stroke-width:5;stroke-linecap:round;stroke-linejoin:round;stroke-miterlimit:10;" x1="213" y1="298.8" x2="295.2" y2="298.8"/>
	
		<circle style="fill:none;stroke:#000000;stroke-width:5;stroke-linecap:round;stroke-linejoin:round;stroke-miterlimit:10;" cx="359.5" cy="297.6" r="17.8"/>
	
		<line style="fill:none;stroke:#000000;stroke-width:5;stroke-linecap:round;stroke-linejoin:round;stroke-miterlimit:10;" x1="345.6" y1="308.6" x2="359.5" y2="297.6"/>
	
		<circle style="fill:none;stroke:#000000;stroke-width:5;stroke-linecap:round;stroke-linejoin:round;stroke-miterlimit:10;" cx="137" cy="297.6" r="17.8"/>
	
		<line style="fill:none;stroke:#000000;stroke-width:5;stroke-linecap:round;stroke-linejoin:round;stroke-miterlimit:10;" x1="123.1" y1="308.6" x2="137" y2="297.6"/>
	
		<ellipse style="fill:none;stroke:#000000;stroke-width:5;stroke-linecap:round;stroke-linejoin:round;stroke-miterlimit:10;" cx="146.6" cy="219.6" rx="67" ry="26.1"/>
	
		<ellipse style="fill:none;stroke:#000000;stroke-width:5;stroke-linecap:round;stroke-linejoin:round;stroke-miterlimit:10;" cx="359.5" cy="219.6" rx="67" ry="26.1"/>
	
		<ellipse style="fill:none;stroke:#000000;stroke-width:5;stroke-linecap:round;stroke-linejoin:round;stroke-miterlimit:10;" cx="146.6" cy="219.6" rx="29" ry="11.2"/>
	
		<ellipse style="fill:none;stroke:#000000;stroke-width:5;stroke-linecap:round;stroke-linejoin:round;stroke-miterlimit:10;" cx="359.5" cy="219.6" rx="29" ry="11.2"/>
	
		<line style="fill:none;stroke:#000000;stroke-width:5;stroke-linecap:round;stroke-linejoin:round;stroke-miterlimit:10;" x1="14.5" y1="260.5" x2="497.5" y2="260.5"/>
</g>
<g style="opacity:0;">
	<circle cx="63.1" cy="183" r="3.5"/>
	<circle cx="36.9" cy="221.9" r="3.5"/>
	<circle cx="14.9" cy="260.6" r="3.5"/>
	<circle cx="16.2" cy="330.5" r="3.5"/>
	<circle cx="101.8" cy="330.9" r="3.5"/>
	<circle cx="200.5" cy="330.9" r="3.5"/>
	<circle cx="299.1" cy="330.9" r="3.5"/>
	<circle cx="397.8" cy="330.9" r="3.5"/>
	<circle cx="495.7" cy="330.8" r="3.5"/>
	<circle cx="497.4" cy="260.6" r="3.5"/>
	<circle cx="481.1" cy="221.9" r="3.5"/>
	<circle cx="453" cy="183" r="3.5"/>
	<circle cx="360.9" cy="183" r="3.5"/>
	<circle cx="262.2" cy="183" r="3.5"/>
	<circle cx="163.6" cy="183" r="3.5"/>
</g>
</svg>
