<?xml version="1.0" encoding="utf-8"?>
<!-- Generator: Adobe Illustrator 22.1.0, SVG Export Plug-In . SVG Version: 6.00 Build 0)  -->
<svg version="1.1" id="Layer_1" xmlns="http://www.w3.org/2000/svg" xmlns:xlink="http://www.w3.org/1999/xlink" x="0px" y="0px"
	 viewBox="0 0 512 512" style="enable-background:new 0 0 512 512;" xml:space="preserve">
<g style="opacity:0;">
	<circle cx="338.5" cy="22.6" r="3.5"/>
	<circle cx="398" cy="26.3" r="3.5"/>
	<circle cx="401.8" cy="65.9" r="3.5"/>
	<circle cx="379.8" cy="65.9" r="3.5"/>
	<circle cx="380.2" cy="99.7" r="3.5"/>
	<circle cx="394.5" cy="126.1" r="3.5"/>
	<circle cx="415.8" cy="185.3" r="3.5"/>
	<circle cx="415.8" cy="235" r="3.5"/>
	<circle cx="415.8" cy="284.7" r="3.5"/>
	<circle cx="415.8" cy="334.3" r="3.5"/>
	<circle cx="415.8" cy="384" r="3.5"/>
	<circle cx="415.8" cy="433.7" r="3.5"/>
	<circle cx="415.8" cy="483.4" r="3.5"/>
	<circle cx="375.9" cy="502" r="3.5"/>
	<circle cx="326.2" cy="502" r="3.5"/>
	<circle cx="276.5" cy="502" r="3.5"/>
	<circle cx="226.9" cy="502" r="3.5"/>
	<circle cx="177.2" cy="502" r="3.5"/>
	<circle cx="143.5" cy="477.2" r="3.5"/>
	<circle cx="143.5" cy="427.5" r="3.5"/>
	<circle cx="143.5" cy="377.8" r="3.5"/>
	<circle cx="143.5" cy="328.1" r="3.5"/>
	<circle cx="143.5" cy="278.5" r="3.5"/>
	<circle cx="143.5" cy="228.8" r="3.5"/>
	<circle cx="143.5" cy="179.1" r="3.5"/>
	<circle cx="169.1" cy="122.1" r="3.5"/>
	<circle cx="178.4" cy="93.5" r="3.5"/>
	<circle cx="181.4" cy="62.1" r="3.5"/>
	<circle cx="154.4" cy="62.1" r="3.5"/>
	<circle cx="155.4" cy="25.9" r="3.5"/>
	<circle cx="215.1" cy="22.3" r="3.5"/>
	<circle cx="274.5" cy="21" r="3.5"/>
</g>
<g>
	<line style="fill:none;stroke:#000000;stroke-width:5;stroke-miterlimit:10;" x1="380" y1="66" x2="182" y2="62"/>
</g>
</svg>
