<?xml version="1.0" encoding="utf-8"?>
<!-- Generator: Adobe Illustrator 22.1.0, SVG Export Plug-In . SVG Version: 6.00 Build 0)  -->
<svg version="1.1" id="Layer_1" xmlns="http://www.w3.org/2000/svg" xmlns:xlink="http://www.w3.org/1999/xlink" x="0px" y="0px"
	 viewBox="0 0 512 512" style="enable-background:new 0 0 512 512;" xml:space="preserve">
<g>
	<path d="M192.7,124.4l67.5-94.1L323,127c2.6,1.7,5.2,3.6,7.7,5.5L261.9,26.2c-0.4-0.4-0.8-0.8-1.4-0.8s-1,0.2-1.4,0.8L185,129.5
		C187.5,127.7,190.1,126,192.7,124.4z"/>
	<ellipse style="fill:none;stroke:#000000;stroke-width:5;stroke-miterlimit:10;" cx="256" cy="296.5" rx="127.3" ry="164"/>
	<path d="M265.4,38.4c0,3.1-2.4,5.5-5.5,5.5c-3.1,0-5.5-2.4-5.5-5.5s2.4-5.5,5.5-5.5C262.9,32.9,265.4,35.4,265.4,38.4z"/>
</g>
<g style="opacity:0;">
	<circle cx="247.3" cy="106.8" r="3.5"/>
	<circle cx="195.2" cy="123.3" r="3.5"/>
	<circle cx="152.4" cy="161.3" r="3.5"/>
	<circle cx="122.3" cy="216" r="3.5"/>
	<circle cx="108.9" cy="282.7" r="3.5"/>
	<circle cx="115.1" cy="352.7" r="3.5"/>
	<circle cx="139.3" cy="412.7" r="3.5"/>
	<circle cx="177.9" cy="457.7" r="3.5"/>
	<circle cx="227.1" cy="482.8" r="3.5"/>
	<circle cx="282.1" cy="483.5" r="3.5"/>
	<circle cx="331.7" cy="459.6" r="3.5"/>
	<circle cx="371" cy="415.5" r="3.5"/>
	<circle cx="396.1" cy="356.2" r="3.5"/>
	<circle cx="403.3" cy="286.5" r="3.5"/>
	<circle cx="390.9" cy="219.4" r="3.5"/>
	<circle cx="361.7" cy="164" r="3.5"/>
	<circle cx="319.5" cy="125" r="3.5"/>
	<circle cx="268" cy="107.1" r="3.5"/>
</g>
</svg>
