<?xml version="1.0" encoding="utf-8"?>
<!-- Generator: Adobe Illustrator 22.1.0, SVG Export Plug-In . SVG Version: 6.00 Build 0)  -->
<svg version="1.1" id="Layer_1" xmlns="http://www.w3.org/2000/svg" xmlns:xlink="http://www.w3.org/1999/xlink" x="0px" y="0px"
	 viewBox="0 0 512 512" style="enable-background:new 0 0 512 512;" xml:space="preserve">
<circle cx="466.5" cy="147.5" r="3.5"/>
<circle cx="414.7" cy="147.5" r="3.5"/>
<circle cx="354.8" cy="147.5" r="3.5"/>
<circle cx="294.9" cy="147.5" r="3.5"/>
<circle cx="235" cy="147.5" r="3.5"/>
<circle cx="165.1" cy="147.5" r="3.5"/>
<circle cx="105.2" cy="147.5" r="3.5"/>
<circle cx="41.2" cy="147.5" r="3.5"/>
<circle cx="38.5" cy="208.2" r="3.5"/>
<circle cx="38.5" cy="288.1" r="3.5"/>
<circle cx="38.5" cy="348" r="3.5"/>
<circle cx="38.5" cy="407.1" r="3.5"/>
<circle cx="105.2" cy="407.1" r="3.5"/>
<circle cx="165.1" cy="407.1" r="3.5"/>
<circle cx="235" cy="407.1" r="3.5"/>
<circle cx="294.9" cy="407.1" r="3.5"/>
<circle cx="354.8" cy="407.1" r="3.5"/>
<circle cx="414.7" cy="407.1" r="3.5"/>
<circle cx="466.5" cy="407.1" r="3.5"/>
<circle cx="466.5" cy="348" r="3.5"/>
<circle cx="466.5" cy="288.1" r="3.5"/>
<circle cx="466.5" cy="208.2" r="3.5"/>
</svg>
