<?xml version="1.0" encoding="utf-8"?>
<!-- Generator: Adobe Illustrator 22.1.0, SVG Export Plug-In . SVG Version: 6.00 Build 0)  -->
<svg version="1.1" id="Layer_1" xmlns="http://www.w3.org/2000/svg" xmlns:xlink="http://www.w3.org/1999/xlink" x="0px" y="0px"
	 viewBox="0 0 512 512" style="enable-background:new 0 0 512 512;" xml:space="preserve">
<g>
	<circle cx="204.5" cy="7.5" r="3.5"/>
	<circle cx="204.5" cy="57.5" r="3.5"/>
	<circle cx="218.5" cy="57.5" r="3.5"/>
	<circle cx="218.5" cy="109.5" r="3.5"/>
	<circle cx="218.5" cy="161.5" r="3.5"/>
	<circle cx="218.5" cy="213.5" r="3.5"/>
	<circle cx="218.5" cy="265.5" r="3.5"/>
	<circle cx="218.5" cy="317.5" r="3.5"/>
	<circle cx="218.5" cy="369.5" r="3.5"/>
	<circle cx="218.5" cy="421.5" r="3.5"/>
	<circle cx="218.5" cy="454.5" r="3.5"/>
	<circle cx="205.5" cy="454.5" r="3.5"/>
	<circle cx="205.5" cy="504.5" r="3.5"/>
	<circle cx="254.5" cy="504.5" r="3.5"/>
	<circle cx="307.5" cy="504.5" r="3.5"/>
	<circle cx="307.5" cy="454.5" r="3.5"/>
	<circle cx="293.5" cy="454.5" r="3.5"/>
	<circle cx="293.5" cy="423.5" r="3.5"/>
	<circle cx="293.5" cy="369.5" r="3.5"/>
	<circle cx="293.5" cy="315.5" r="3.5"/>
	<circle cx="293.5" cy="261.5" r="3.5"/>
	<circle cx="293.5" cy="207.5" r="3.5"/>
	<circle cx="293.5" cy="153.5" r="3.5"/>
	<circle cx="293.5" cy="99.5" r="3.5"/>
	<circle cx="293.5" cy="57.5" r="3.5"/>
	<circle cx="307.5" cy="57.5" r="3.5"/>
	<circle cx="307.5" cy="7.5" r="3.5"/>
	<circle cx="253.5" cy="7.5" r="3.5"/>
</g>
</svg>
