<?xml version="1.0" encoding="utf-8"?>
<!-- Generator: Adobe Illustrator 22.1.0, SVG Export Plug-In . SVG Version: 6.00 Build 0)  -->
<svg version="1.1" id="Layer_1" xmlns="http://www.w3.org/2000/svg" xmlns:xlink="http://www.w3.org/1999/xlink" x="0px" y="0px"
	 viewBox="0 0 512 512" style="enable-background:new 0 0 512 512;" xml:space="preserve">
<g>
	<ellipse style="fill:none;stroke:#000000;stroke-width:5;stroke-miterlimit:10;" cx="259.2" cy="273.4" rx="164.8" ry="31"/>
	<path style="fill:none;stroke:#000000;stroke-width:5;stroke-miterlimit:10;" d="M100.6,318.6c1.3,3.1,7.2,7.7,19.7,13.4
		c5.8,2.7,11.8,4.7,18,6.2c77.3,17.9,99.2,14.7,182.3,12.2c62.1-3,85.4-24.2,93.6-32.8"/>
</g>
<g style="opacity:0;">
	<circle cx="342.9" cy="208" r="3.5"/>
	<circle cx="414.6" cy="219.4" r="3.5"/>
	<circle cx="467.3" cy="236.5" r="3.5"/>
	<circle cx="495.7" cy="257.7" r="3.5"/>
	<circle cx="494.4" cy="281" r="3.5"/>
	<circle cx="464.2" cy="301.8" r="3.5"/>
	<circle cx="410.2" cy="318.4" r="3.5"/>
	<circle cx="337.9" cy="329.4" r="3.5"/>
	<circle cx="252.7" cy="333.4" r="3.5"/>
	<circle cx="167.7" cy="329.3" r="3.5"/>
	<circle cx="95.6" cy="318.2" r="3.5"/>
	<circle cx="41.8" cy="301.6" r="3.5"/>
	<circle cx="11.9" cy="280.7" r="3.5"/>
	<circle cx="11" cy="257.5" r="3.5"/>
	<circle cx="39.6" cy="236.3" r="3.5"/>
	<circle cx="92.5" cy="219.3" r="3.5"/>
	<circle cx="164.3" cy="207.9" r="3.5"/>
	<circle cx="249.3" cy="203.5" r="3.5"/>
</g>
</svg>
