<?xml version="1.0" encoding="utf-8"?>
<!-- Generator: Adobe Illustrator 22.1.0, SVG Export Plug-In . SVG Version: 6.00 Build 0)  -->
<svg version="1.1" id="Layer_1" xmlns="http://www.w3.org/2000/svg" xmlns:xlink="http://www.w3.org/1999/xlink" x="0px" y="0px"
	 viewBox="0 0 512 512" style="enable-background:new 0 0 512 512;" xml:space="preserve">
<g>
	<circle cx="392.5" cy="12.5" r="3.5"/>
	<circle cx="349.8" cy="54" r="3.5"/>
	<circle cx="307.1" cy="95.6" r="3.5"/>
	<circle cx="264.4" cy="137.1" r="3.5"/>
	<circle cx="221.8" cy="178.6" r="3.5"/>
	<circle cx="180" cy="221.1" r="3.5"/>
	<circle cx="138.8" cy="264.1" r="3.5"/>
	<circle cx="110.9" cy="297.4" r="3.5"/>
	<circle cx="85.8" cy="356.4" r="3.5"/>
	<circle cx="47.7" cy="415.4" r="3.5"/>
	<circle cx="91" cy="416.2" r="3.5"/>
	<circle cx="153.3" cy="372.3" r="3.5"/>
	<circle cx="210" cy="318.3" r="3.5"/>
	<ellipse transform="matrix(0.1602 -0.9871 0.9871 0.1602 -56.3292 479.793)" cx="253.8" cy="273" rx="3.5" ry="3.5"/>
	<circle cx="267.7" cy="257.1" r="3.5"/>
	<circle cx="307" cy="214.8" r="3.5"/>
	<circle cx="365.2" cy="194.9" r="3.5"/>
	<circle cx="389.3" cy="154.2" r="3.5"/>
	<circle cx="445.6" cy="110.6" r="3.5"/>
	<circle cx="494.8" cy="97.5" r="3.5"/>
	<circle cx="448.2" cy="38.9" r="3.5"/>
</g>
</svg>
