<?xml version="1.0" encoding="utf-8"?>
<!-- Generator: Adobe Illustrator 22.1.0, SVG Export Plug-In . SVG Version: 6.00 Build 0)  -->
<svg version="1.1" id="Layer_1" xmlns="http://www.w3.org/2000/svg" xmlns:xlink="http://www.w3.org/1999/xlink" x="0px" y="0px"
	 viewBox="0 0 512 512" style="enable-background:new 0 0 512 512;" xml:space="preserve">
<g>
	<path style="fill:none;stroke:#000000;stroke-width:5;stroke-miterlimit:10;" d="M191,125.6L191,125.6c-3.6,0-6.4-2.8-6.4-6.4V74.7
		c0-3.6,2.8-6.4,6.4-6.4l0,0c3.6,0,6.4,2.8,6.4,6.4v44.6C197.3,122.9,194.6,125.6,191,125.6z"/>
	<path style="fill:none;stroke:#000000;stroke-width:5;stroke-miterlimit:10;" d="M191,318.8L191,318.8c-3.6,0-6.4-2.8-6.4-6.4
		v-57.3c0-3.6,2.8-6.4,6.4-6.4l0,0c3.6,0,6.4,2.8,6.4,6.4v57.3C197.3,316,194.6,318.8,191,318.8z"/>
	<rect x="165.5" y="205.2" width="227.1" height="4.2"/>
</g>
<g style="opacity:0;">
	<circle cx="333.7" cy="20.5" r="3.5"/>
	<circle cx="392.9" cy="20.5" r="3.5"/>
	<circle cx="392.9" cy="69.3" r="3.5"/>
	<circle cx="392.9" cy="119.5" r="3.5"/>
	<circle cx="392.9" cy="169.8" r="3.5"/>
	<circle cx="392.9" cy="220" r="3.5"/>
	<circle cx="392.9" cy="270.3" r="3.5"/>
	<circle cx="392.9" cy="320.5" r="3.5"/>
	<circle cx="392.9" cy="370.8" r="3.5"/>
	<circle cx="392.9" cy="421" r="3.5"/>
	<circle cx="392.9" cy="469.2" r="3.5"/>
	<circle cx="353.6" cy="469.2" r="3.5"/>
	<circle cx="303.3" cy="469.2" r="3.5"/>
	<circle cx="253.1" cy="469.2" r="3.5"/>
	<circle cx="202.8" cy="469.2" r="3.5"/>
	<circle cx="165.6" cy="469.2" r="3.5"/>
	<circle cx="165.6" cy="419.2" r="3.5"/>
	<circle cx="165.6" cy="368.9" r="3.5"/>
	<circle cx="165.6" cy="318.7" r="3.5"/>
	<circle cx="165.6" cy="268.4" r="3.5"/>
	<circle cx="165.6" cy="218.2" r="3.5"/>
	<circle cx="165.6" cy="167.9" r="3.5"/>
	<circle cx="165.6" cy="117.7" r="3.5"/>
	<circle cx="165.6" cy="67.4" r="3.5"/>
	<circle cx="165.6" cy="20.5" r="3.5"/>
	<circle cx="226.4" cy="20.5" r="3.5"/>
	<circle cx="276.7" cy="20.5" r="3.5"/>
</g>
</svg>
