<?xml version="1.0" encoding="utf-8"?>
<!-- Generator: Adobe Illustrator 22.1.0, SVG Export Plug-In . SVG Version: 6.00 Build 0)  -->
<svg version="1.1" id="Layer_1" xmlns="http://www.w3.org/2000/svg" xmlns:xlink="http://www.w3.org/1999/xlink" x="0px" y="0px"
	 viewBox="0 0 512 512" style="enable-background:new 0 0 512 512;" xml:space="preserve">
<g>
	<circle cx="76" cy="23.6" r="3.5"/>
	<circle cx="104.6" cy="42.5" r="3.5"/>
	<circle cx="140.5" cy="82.5" r="3.5"/>
	<circle cx="173.6" cy="138.7" r="3.5"/>
	<circle cx="177.8" cy="176.6" r="3.5"/>
	<circle cx="183.9" cy="200.4" r="3.5"/>
	<circle cx="206.9" cy="218.6" r="3.5"/>
	<circle cx="238.8" cy="245.9" r="3.5"/>
	<circle cx="273.6" cy="277.6" r="3.5"/>
	<circle cx="304.1" cy="307.4" r="3.5"/>
	<circle cx="324.3" cy="329.2" r="3.5"/>
	<circle cx="353.2" cy="354.2" r="3.5"/>
	<circle cx="391.6" cy="384.6" r="3.5"/>
	<circle cx="431.3" cy="415.9" r="3.5"/>
	<circle cx="464.5" cy="443.6" r="3.5"/>
	<circle cx="482.9" cy="463" r="3.5"/>
	<circle cx="470.9" cy="490.9" r="3.5"/>
	<circle cx="433" cy="482.8" r="3.5"/>
	<circle cx="393.2" cy="451.2" r="3.5"/>
	<circle cx="361.5" cy="416.2" r="3.5"/>
	<circle cx="341.6" cy="389.7" r="3.5"/>
	<circle cx="324.3" cy="365.8" r="3.5"/>
	<circle cx="297.9" cy="331.8" r="3.5"/>
	<circle cx="265" cy="293.3" r="3.5"/>
	<circle cx="228.4" cy="256.1" r="3.5"/>
	<circle cx="190.6" cy="225.9" r="3.5"/>
	<circle cx="154.3" cy="208.3" r="3.5"/>
	<circle cx="99.7" cy="181.6" r="3.5"/>
	<circle cx="68.7" cy="147.9" r="3.5"/>
	<circle cx="55.8" cy="123.3" r="3.5"/>
	<circle cx="46.9" cy="99.6" r="3.5"/>
	<circle cx="40.1" cy="56" r="3.5"/>
	<circle cx="50.5" cy="25.5" r="3.5"/>
</g>
</svg>
