<?xml version="1.0" encoding="utf-8"?>
<!-- Generator: Adobe Illustrator 22.1.0, SVG Export Plug-In . SVG Version: 6.00 Build 0)  -->
<svg version="1.1" id="Layer_1" xmlns="http://www.w3.org/2000/svg" xmlns:xlink="http://www.w3.org/1999/xlink" x="0px" y="0px"
	 viewBox="0 0 512 512" style="enable-background:new 0 0 512 512;" xml:space="preserve">
<g>
	<polyline style="fill:none;stroke:#000000;stroke-width:5;stroke-miterlimit:10;" points="56.8,220.2 14.9,220.2 14.9,201.9 
		56.8,201.9 	"/>
	<polyline style="fill:none;stroke:#000000;stroke-width:5;stroke-miterlimit:10;" points="455.1,201.9 497,201.9 497,220.2 
		455.1,220.2 	"/>
	<path style="fill:none;stroke:#000000;stroke-width:5;stroke-miterlimit:10;" d="M221.8,89.4c4.5-10.6,19.5-12.2,34-12.2
		s29.5,1.6,34,12.2"/>
	<path style="fill:none;stroke:#000000;stroke-width:5;stroke-miterlimit:10;" d="M301.7,90.2C297,66,266.3,66,255.9,66
		c-10.6,0-41.3,0-45.8,24.2"/>
	<path style="fill:none;stroke:#000000;stroke-width:5;stroke-miterlimit:10;" d="M451.5,177.5c0,0-397,0-395,0"/>
</g>
<g style="opacity:0;">
	<circle cx="455" cy="177.7" r="3.5"/>
	<circle cx="455" cy="217.7" r="3.5"/>
	<circle cx="455" cy="265.2" r="3.5"/>
	<circle cx="455.1" cy="319.1" r="3.5"/>
	<circle cx="455.1" cy="379.9" r="3.5"/>
	<circle cx="456.2" cy="435.2" r="3.5"/>
	<circle cx="397.4" cy="435.2" r="3.5"/>
	<circle cx="346.6" cy="435.2" r="3.5"/>
	<circle cx="295.9" cy="435.2" r="3.5"/>
	<circle cx="245.2" cy="435.2" r="3.5"/>
	<circle cx="194.4" cy="435.2" r="3.5"/>
	<circle cx="143.7" cy="435.2" r="3.5"/>
	<circle cx="93" cy="435.2" r="3.5"/>
	<circle cx="56.8" cy="435.2" r="3.5"/>
	<circle cx="56.8" cy="379.9" r="3.5"/>
	<circle cx="56.8" cy="319.1" r="3.5"/>
	<circle cx="56.8" cy="265.2" r="3.5"/>
	<circle cx="56.8" cy="217.7" r="3.5"/>
	<circle cx="59.1" cy="159.6" r="3.5"/>
	<circle cx="84.9" cy="126.1" r="3.5"/>
	<circle cx="130.2" cy="104.7" r="3.5"/>
	<circle cx="185.3" cy="92.9" r="3.5"/>
	<circle cx="240.9" cy="88.6" r="3.5"/>
	<circle cx="293.5" cy="89.7" r="3.5"/>
	<circle cx="350.1" cy="96.8" r="3.5"/>
	<circle cx="402.2" cy="112.3" r="3.5"/>
	<circle cx="440.5" cy="138.5" r="3.5"/>
	<circle cx="455.3" cy="177.7" r="3.5"/>
</g>
</svg>
