<?xml version="1.0" encoding="utf-8"?>
<!-- Generator: Adobe Illustrator 22.1.0, SVG Export Plug-In . SVG Version: 6.00 Build 0)  -->
<svg version="1.1" id="Layer_1" xmlns="http://www.w3.org/2000/svg" xmlns:xlink="http://www.w3.org/1999/xlink" x="0px" y="0px"
	 viewBox="0 0 512 512" style="enable-background:new 0 0 512 512;" xml:space="preserve">
<g>
	<circle cx="21" cy="171" r="3.5"/>
	<circle cx="26.9" cy="210.9" r="3.5"/>
	<circle cx="39" cy="255.1" r="3.5"/>
	<circle cx="74.4" cy="299.5" r="3.5"/>
	<circle cx="106.7" cy="303.4" r="3.5"/>
	<circle cx="134.1" cy="280.6" r="3.5"/>
	<circle cx="146.8" cy="255.7" r="3.5"/>
	<circle cx="157" cy="255.8" r="3.5"/>
	<circle cx="174.1" cy="299.2" r="3.5"/>
	<circle cx="206.2" cy="336.2" r="3.5"/>
	<circle cx="245.3" cy="351.3" r="3.5"/>
	<circle cx="282.1" cy="343.2" r="3.5"/>
	<circle cx="297.9" cy="309.9" r="3.5"/>
	<circle cx="312" cy="269.1" r="3.5"/>
	<circle cx="305.4" cy="240" r="3.5"/>
	<circle cx="246.3" cy="227.2" r="3.5"/>
	<circle cx="193.7" cy="221.5" r="3.5"/>
	<circle cx="164.5" cy="222.3" r="3.5"/>
	<circle cx="145.4" cy="221.8" r="3.5"/>
	<circle cx="107.1" cy="198" r="3.5"/>
	<circle cx="74.6" cy="183.1" r="3.5"/>
	<circle cx="37" cy="167.8" r="3.5"/>
</g>
</svg>
