<?xml version="1.0" encoding="utf-8"?>
<!-- Generator: Adobe Illustrator 22.1.0, SVG Export Plug-In . SVG Version: 6.00 Build 0)  -->
<svg version="1.1" id="Layer_1" xmlns="http://www.w3.org/2000/svg" xmlns:xlink="http://www.w3.org/1999/xlink" x="0px" y="0px"
	 viewBox="0 0 512 512" style="enable-background:new 0 0 512 512;" xml:space="preserve">
<g>
	<circle cx="291" cy="20.4" r="3.5"/>
	<circle cx="350.1" cy="32.2" r="3.5"/>
	<circle cx="395.7" cy="57.1" r="3.5"/>
	<circle cx="422.3" cy="91.7" r="3.5"/>
	<circle cx="426.9" cy="121.5" r="3.5"/>
	<circle cx="427.1" cy="174.2" r="3.5"/>
	<circle cx="427.4" cy="247.8" r="3.5"/>
	<circle cx="426.6" cy="320.5" r="3.5"/>
	<circle cx="404.8" cy="364.7" r="3.5"/>
	<circle cx="353" cy="404.5" r="3.5"/>
	<circle cx="301" cy="438.1" r="3.5"/>
	<circle cx="260.7" cy="481.5" r="3.5"/>
	<circle cx="260" cy="442" r="3.5"/>
	<circle cx="260" cy="401.6" r="3.5"/>
	<circle cx="205.5" cy="386.9" r="3.5"/>
	<circle cx="158.9" cy="362.6" r="3.5"/>
	<circle cx="131.1" cy="328.3" r="3.5"/>
	<circle cx="125.8" cy="245.5" r="3.5"/>
	<circle cx="125.8" cy="172" r="3.5"/>
	<circle cx="125.9" cy="120.1" r="3.5"/>
	<circle cx="131.2" cy="89.9" r="3.5"/>
	<circle cx="158.8" cy="55.8" r="3.5"/>
	<circle cx="205" cy="31.4" r="3.5"/>
	<circle cx="264.3" cy="20.3" r="3.5"/>
</g>
</svg>
