<?xml version="1.0" encoding="utf-8"?>
<!-- Generator: Adobe Illustrator 22.1.0, SVG Export Plug-In . SVG Version: 6.00 Build 0)  -->
<svg version="1.1" id="Layer_1" xmlns="http://www.w3.org/2000/svg" xmlns:xlink="http://www.w3.org/1999/xlink" x="0px" y="0px"
	 viewBox="0 0 512 512" style="enable-background:new 0 0 512 512;" xml:space="preserve">
<g>
	
		<line style="fill:none;stroke:#000000;stroke-width:5;stroke-linecap:round;stroke-linejoin:round;stroke-miterlimit:10;" x1="248" y1="248.6" x2="452.5" y2="438"/>
	<path style="fill:none;stroke:#000000;stroke-width:5;stroke-linecap:round;stroke-linejoin:round;stroke-miterlimit:10;" d="
		M77.4,168.4c0,0,8.6,142.1,48.1,217.1"/>
	<path style="fill:none;stroke:#000000;stroke-width:5;stroke-linecap:round;stroke-linejoin:round;stroke-miterlimit:10;" d="
		M342.5,168.5C202.8,58.1,145.3,92.3,145.3,92.3"/>
	<path style="fill:none;stroke:#000000;stroke-width:5;stroke-linecap:round;stroke-linejoin:round;stroke-miterlimit:10;" d="
		M114.5,122.5l-27.1-17.2c-4.3-2.6-8.9,2.6-5.7,6.5L103,136"/>
</g>
<g style="opacity:0;">
	<circle cx="84.2" cy="159.7" r="3.5"/>
	<circle cx="118.5" cy="117.8" r="3.5"/>
	<circle cx="161.9" cy="78.9" r="3.5"/>
	<circle cx="216.5" cy="41.6" r="3.5"/>
	<circle cx="273.9" cy="16.6" r="3.5"/>
	<circle cx="335.2" cy="10.4" r="3.5"/>
	<circle cx="401.2" cy="12.9" r="3.5"/>
	<circle cx="456.8" cy="18.9" r="3.5"/>
	<circle cx="487.1" cy="23.5" r="3.5"/>
	<circle cx="450.4" cy="47.1" r="3.5"/>
	<circle cx="402.3" cy="92.7" r="3.5"/>
	<circle cx="365.9" cy="138.9" r="3.5"/>
	<circle cx="345.3" cy="170.4" r="3.5"/>
	<circle cx="317.1" cy="191.9" r="3.5"/>
	<circle cx="264" cy="234.3" r="3.5"/>
	<circle cx="215.8" cy="280.8" r="3.5"/>
	<circle cx="175.2" cy="325.8" r="3.5"/>
	<circle cx="144.6" cy="363.1" r="3.5"/>
	<circle cx="126.4" cy="386.9" r="3.5"/>
	<circle cx="103.7" cy="397" r="3.5"/>
	<circle cx="50.2" cy="433.2" r="3.5"/>
	<circle cx="11.1" cy="479.5" r="3.5"/>
	<circle cx="11.4" cy="433.8" r="3.5"/>
	<circle cx="11.1" cy="365.6" r="3.5"/>
	<circle cx="15.8" cy="309.3" r="3.5"/>
	<circle cx="28.8" cy="257.1" r="3.5"/>
	<circle cx="43.4" cy="218.3" r="3.5"/>
</g>
</svg>
