<?xml version="1.0" encoding="utf-8"?>
<!-- Generator: Adobe Illustrator 22.1.0, SVG Export Plug-In . SVG Version: 6.00 Build 0)  -->
<svg version="1.1" id="Layer_1" xmlns="http://www.w3.org/2000/svg" xmlns:xlink="http://www.w3.org/1999/xlink" x="0px" y="0px"
	 viewBox="0 0 512 512" style="enable-background:new 0 0 512 512;" xml:space="preserve">
<g>
	<circle cx="281" cy="13.4" r="3.5"/>
	<circle cx="313.2" cy="13.4" r="3.5"/>
	<circle cx="313.2" cy="37" r="3.5"/>
	<circle cx="313.2" cy="75.3" r="3.5"/>
	<circle cx="313.2" cy="115.6" r="3.5"/>
	<circle cx="313.2" cy="155.3" r="3.5"/>
	<circle cx="305.4" cy="190.4" r="3.5"/>
	<circle cx="285.1" cy="202.8" r="3.5"/>
	<circle cx="328.7" cy="202.8" r="3.5"/>
	<circle cx="328.7" cy="227" r="3.5"/>
	<circle cx="328.7" cy="267.1" r="3.5"/>
	<circle cx="328.7" cy="307.3" r="3.5"/>
	<circle cx="328.7" cy="347.4" r="3.5"/>
	<circle cx="328.7" cy="387.5" r="3.5"/>
	<circle cx="328.7" cy="427.7" r="3.5"/>
	<circle cx="328.7" cy="467.8" r="3.5"/>
	<circle cx="328.7" cy="499" r="3.5"/>
	<circle cx="275.9" cy="499" r="3.5"/>
	<circle cx="235.8" cy="499" r="3.5"/>
	<circle cx="183.6" cy="499" r="3.5"/>
	<circle cx="183.6" cy="467.4" r="3.5"/>
	<circle cx="183.6" cy="427.3" r="3.5"/>
	<circle cx="183.6" cy="387.2" r="3.5"/>
	<circle cx="183.6" cy="347" r="3.5"/>
	<circle cx="183.6" cy="306.9" r="3.5"/>
	<circle cx="183.6" cy="266.8" r="3.5"/>
	<circle cx="183.6" cy="226.6" r="3.5"/>
	<circle cx="183.6" cy="202.8" r="3.5"/>
	<circle cx="226.4" cy="202.8" r="3.5"/>
	<circle cx="206.4" cy="190.5" r="3.5"/>
	<circle cx="198.8" cy="155.6" r="3.5"/>
	<circle cx="198.8" cy="115.9" r="3.5"/>
	<circle cx="198.8" cy="75.5" r="3.5"/>
	<circle cx="198.8" cy="37.2" r="3.5"/>
	<circle cx="198.8" cy="13.4" r="3.5"/>
	<circle cx="230.7" cy="13.4" r="3.5"/>
</g>
</svg>
