<svg xmlns="http://www.w3.org/2000/svg" viewBox="0 0 487.96 512"><title>asset1</title><g id="Layer_2" data-name="Layer 2"><g id="Layer_1-2" data-name="Layer 1"><path d="M243.84,0h-.06a3.5,3.5,0,0,0,0,7h.06a3.5,3.5,0,0,0,0-7ZM95.27,48.31a3.49,3.49,0,0,0-2.06.67h0l0,0a3.5,3.5,0,0,0,4.13,5.65l0,0a3.5,3.5,0,0,0-2.06-6.33ZM3.52,174.8a3.5,3.5,0,0,0-3.33,2.42l0,.05h0a3.5,3.5,0,0,0,2.26,4.4,3.32,3.32,0,0,0,1.07.17,3.5,3.5,0,0,0,3.33-2.42l0-.05A3.51,3.51,0,0,0,4.59,175a3.32,3.32,0,0,0-1.07-.17ZM3.8,331.07a3.46,3.46,0,0,0-1.09.18,3.5,3.5,0,0,0-2.24,4.4l0,.07a3.5,3.5,0,0,0,3.32,2.41A3.46,3.46,0,0,0,4.91,338a3.5,3.5,0,0,0,2.24-4.41l0-.05a3.5,3.5,0,0,0-3.33-2.42ZM96,457.23A3.5,3.5,0,0,0,94,463.56l0,0h0a3.52,3.52,0,0,0,2,.66,3.5,3.5,0,0,0,2.06-6.34l0,0a3.5,3.5,0,0,0-2-.66ZM244.82,505h-.07a3.5,3.5,0,0,0,0,7h.07a3.5,3.5,0,0,0,0-7Zm148.37-48.89a3.49,3.49,0,0,0-2.07.68l0,0a3.5,3.5,0,0,0,2.07,6.32,3.47,3.47,0,0,0,2.07-.68h0l0,0a3.5,3.5,0,0,0-2.09-6.31Zm91.27-126.84a3.51,3.51,0,0,0-3.34,2.44v.05a3.49,3.49,0,0,0,2.27,4.4,3.54,3.54,0,0,0,1.06.16,3.49,3.49,0,0,0,3.33-2.43h0l0-.06a3.5,3.5,0,0,0-2.28-4.38,3.26,3.26,0,0,0-1.06-.17ZM483.57,173a3.5,3.5,0,0,0-3.32,4.6v.05a3.51,3.51,0,0,0,3.33,2.4,3.57,3.57,0,0,0,1.1-.18,3.49,3.49,0,0,0,2.22-4.41v-.07a3.5,3.5,0,0,0-3.32-2.39ZM390.87,47.2a3.5,3.5,0,0,0-2,6.35l0,0a3.53,3.53,0,0,0,2,.65A3.5,3.5,0,0,0,393,47.9l-.07,0a3.5,3.5,0,0,0-2-.65Z"/></g></g></svg>