<?xml version="1.0" encoding="utf-8"?>
<!-- Generator: Adobe Illustrator 22.1.0, SVG Export Plug-In . SVG Version: 6.00 Build 0)  -->
<svg version="1.1" id="Layer_1" xmlns="http://www.w3.org/2000/svg" xmlns:xlink="http://www.w3.org/1999/xlink" x="0px" y="0px"
	 viewBox="0 0 256 256" style="enable-background:new 0 0 256 256;" xml:space="preserve">
<style type="text/css">
	.st0{opacity:0;}
	.st1{fill:none;stroke:#000000;stroke-width:2;stroke-linecap:round;stroke-linejoin:round;stroke-miterlimit:10;}
</style>
<g class="st0">
	<path class="st1" d="M138.8,186.2v40.5c0,5.3-4.3,9.5-9.5,9.5h-2.6c-5.2,0-9.5-4.3-9.5-9.5v-40.5"/>
	<g>
		<path class="st1" d="M159.2,50.3c-8.2-12.8-22-17.4-26.4-18.5"/>
	</g>
</g>
<g>
	<g>
		<path d="M81.5,187.5c3.2,0,3.2-5,0-5S78.3,187.5,81.5,187.5L81.5,187.5z"/>
	</g>
	<g>
		<path d="M81,159c3.2,0,3.2-5,0-5S77.8,159,81,159L81,159z"/>
	</g>
	<g>
		<path d="M81.5,129c3.2,0,3.2-5,0-5S78.3,129,81.5,129L81.5,129z"/>
	</g>
	<g>
		<path d="M81.5,100c3.2,0,3.2-5,0-5S78.3,100,81.5,100L81.5,100z"/>
	</g>
	<g>
		<path d="M81,70c3.2,0,3.2-5,0-5S77.8,70,81,70L81,70z"/>
	</g>
	<g>
		<path d="M86,47c3.2,0,3.2-5,0-5S82.8,47,86,47L86,47z"/>
	</g>
	<g>
		<path d="M102.5,29.5c3.2,0,3.2-5,0-5S99.3,29.5,102.5,29.5L102.5,29.5z"/>
	</g>
	<g>
		<path d="M128,21.5c3.2,0,3.2-5,0-5S124.8,21.5,128,21.5L128,21.5z"/>
	</g>
	<g>
		<path d="M149.5,26c3.2,0,3.2-5,0-5S146.3,26,149.5,26L149.5,26z"/>
	</g>
	<g>
		<path d="M165.5,41.5c3.2,0,3.2-5,0-5S162.3,41.5,165.5,41.5L165.5,41.5z"/>
	</g>
	<g>
		<path d="M174,61c3.2,0,3.2-5,0-5S170.8,61,174,61L174,61z"/>
	</g>
	<g>
		<path d="M175,80c3.2,0,3.2-5,0-5S171.8,80,175,80L175,80z"/>
	</g>
	<g>
		<path d="M174,109c3.2,0,3.2-5,0-5S170.8,109,174,109L174,109z"/>
	</g>
	<g>
		<path d="M175,138c3.2,0,3.2-5,0-5S171.8,138,175,138L175,138z"/>
	</g>
	<g>
		<path d="M174,166.5c3.2,0,3.2-5,0-5S170.8,166.5,174,166.5L174,166.5z"/>
	</g>
	<g>
		<path d="M174,186c3.2,0,3.2-5,0-5S170.8,186,174,186L174,186z"/>
	</g>
	<g>
		<path d="M150.5,189c3.2,0,3.2-5,0-5S147.3,189,150.5,189L150.5,189z"/>
	</g>
	<g>
		<path d="M127,188.5c3.2,0,3.2-5,0-5S123.8,188.5,127,188.5L127,188.5z"/>
	</g>
	<g>
		<path d="M101.5,189c3.2,0,3.2-5,0-5S98.3,189,101.5,189L101.5,189z"/>
	</g>
</g>
</svg>
