<?xml version="1.0" encoding="utf-8"?>
<!-- Generator: Adobe Illustrator 23.0.0, SVG Export Plug-In . SVG Version: 6.00 Build 0)  -->
<svg version="1.1" id="Layer_1" xmlns="http://www.w3.org/2000/svg" xmlns:xlink="http://www.w3.org/1999/xlink" x="0px" y="0px"
	 viewBox="0 0 512 512" style="enable-background:new 0 0 512 512;" xml:space="preserve">
<g>
	<g>
		<circle cx="36.8" cy="86.6" r="9"/>
		<circle cx="14.5" cy="129" r="9"/>
		<circle cx="58.9" cy="153.8" r="9"/>
		<circle cx="75.6" cy="192.2" r="9"/>
		<circle cx="50" cy="240.2" r="9"/>
		<circle cx="54.2" cy="292.9" r="9"/>
		<circle cx="79.9" cy="341" r="9"/>
		<circle cx="103.5" cy="388" r="9"/>
		<circle cx="94.5" cy="440.7" r="9"/>
		<circle cx="61" cy="473.3" r="9"/>
		<circle cx="66.9" cy="503" r="9"/>
		<circle cx="110.2" cy="483.4" r="9"/>
		<circle cx="128.1" cy="431.8" r="9"/>
		<circle cx="137.1" cy="379.1" r="9"/>
		<circle cx="157.9" cy="330.9" r="9"/>
		<circle cx="207.1" cy="301.9" r="9"/>
		<circle cx="223.5" cy="330.1" r="9"/>
		<circle cx="186.1" cy="348.1" r="9"/>
		<circle cx="171.9" cy="382.5" r="9"/>
		<circle cx="177.1" cy="429.7" r="9"/>
		<circle cx="225.4" cy="453" r="9"/>
		<circle cx="201.3" cy="474.4" r="9"/>
		<circle cx="163" cy="498.1" r="9"/>
		<circle cx="216.5" cy="502" r="9"/>
		<circle cx="271.8" cy="503" r="9"/>
		<circle cx="325.6" cy="502" r="9"/>
		<circle cx="376.3" cy="487.1" r="9"/>
		<circle cx="419.7" cy="455.3" r="9"/>
		<circle cx="452.9" cy="412.9" r="9"/>
		<circle cx="479.1" cy="364.6" r="9"/>
		<circle cx="493.7" cy="315.2" r="9"/>
		<circle cx="495.4" cy="260.7" r="9"/>
		<circle cx="482.8" cy="209.1" r="9"/>
		<circle cx="457.5" cy="160.3" r="9"/>
		<circle cx="421.1" cy="129.9" r="9"/>
		<circle cx="439.6" cy="171.9" r="9"/>
		<circle cx="459.1" cy="218.1" r="9"/>
		<circle cx="468" cy="269" r="9"/>
		<circle cx="463.3" cy="321.2" r="9"/>
		<circle cx="442.2" cy="367" r="9"/>
		<circle cx="407.4" cy="407.4" r="9"/>
		<circle cx="368.8" cy="436.6" r="9"/>
		<circle cx="361" cy="388.6" r="9"/>
		<circle cx="359.8" cy="339.1" r="9"/>
		<circle cx="345.8" cy="288" r="9"/>
		<circle cx="309.8" cy="248.8" r="9"/>
		<circle cx="264.8" cy="217.9" r="9"/>
		<circle cx="225.8" cy="181.9" r="9"/>
		<circle cx="200.4" cy="135.9" r="9"/>
		<circle cx="182.5" cy="84.8" r="9"/>
		<circle cx="146.8" cy="44.3" r="9"/>
		<circle cx="99.9" cy="9" r="9"/>
		<circle cx="63.5" cy="41.9" r="9"/>
	</g>
</g>
</svg>
