<svg xmlns="http://www.w3.org/2000/svg" viewBox="0 0 383.58 515.95"><defs><style>.cls-1{fill:#1c1c1c;}</style></defs><title>dot</title><g id="Layer_2" data-name="Layer 2"><g id="Layer_1-2" data-name="Layer 1"><path class="cls-1" d="M86.26,515.46a5.49,5.49,0,0,1-2.76-7.27h0a5.5,5.5,0,0,1,7.27-2.76h0a5.5,5.5,0,0,1,2.76,7.27h0a5.49,5.49,0,0,1-5,3.25h0A5.47,5.47,0,0,1,86.26,515.46Zm188.48-5.62a5.5,5.5,0,0,1-2-7.51h0a5.5,5.5,0,0,1,7.51-2h0a5.5,5.5,0,0,1,2,7.51h0a5.49,5.49,0,0,1-4.77,2.75h0A5.44,5.44,0,0,1,274.74,509.84ZM311,505.35a5.51,5.51,0,0,1-5.17-5.81h0a5.5,5.5,0,0,1,5.82-5.17h0a5.5,5.5,0,0,1,5.17,5.82h0a5.51,5.51,0,0,1-5.49,5.18H311ZM122.4,500.86a5.49,5.49,0,0,1,.83-7.73h0A5.51,5.51,0,0,1,131,494h0a5.52,5.52,0,0,1-.84,7.74h0a5.54,5.54,0,0,1-3.45,1.21h0A5.46,5.46,0,0,1,122.4,500.86Zm75.54-8a5.5,5.5,0,0,1,5.23-5.76h0a5.51,5.51,0,0,1,5.76,5.23h0a5.51,5.51,0,0,1-5.23,5.76h-.27A5.5,5.5,0,0,1,197.94,492.88Zm-37.44,1.49h0a5.51,5.51,0,0,1-4.15-6.58h0a5.5,5.5,0,0,1,6.58-4.15h0a5.5,5.5,0,0,1,4.15,6.58h0a5.5,5.5,0,0,1-5.36,4.28h0A5.69,5.69,0,0,1,160.5,494.37Zm78.87-7.74a5.5,5.5,0,0,1,3.46-7h0a5.49,5.49,0,0,1,7,3.46h0a5.5,5.5,0,0,1-3.46,7h0a5.63,5.63,0,0,1-1.75.29h0A5.49,5.49,0,0,1,239.37,486.63ZM88.43,477.77A5.51,5.51,0,0,1,87,470.13h0a5.49,5.49,0,0,1,7.64-1.47h0a5.48,5.48,0,0,1,1.47,7.63h0a5.49,5.49,0,0,1-4.56,2.42h0A5.56,5.56,0,0,1,88.43,477.77Zm201-11.19h0a5.5,5.5,0,0,1,.38-7.77h0a5.5,5.5,0,0,1,7.77.38h0a5.5,5.5,0,0,1-.37,7.76h0a5.49,5.49,0,0,1-3.7,1.43h0A5.52,5.52,0,0,1,289.4,466.58ZM79.2,446.76h0a5.5,5.5,0,0,1,.38-7.77h0a5.5,5.5,0,0,1,7.77.38h0a5.5,5.5,0,0,1-.38,7.77h0a5.52,5.52,0,0,1-3.69,1.42h0A5.47,5.47,0,0,1,79.2,446.76Zm234.37-9.53a5.5,5.5,0,0,1-1.05-7.71h0a5.51,5.51,0,0,1,7.71-1h0a5.5,5.5,0,0,1,1,7.71h0a5.52,5.52,0,0,1-4.39,2.17h0A5.43,5.43,0,0,1,313.57,437.23ZM54.74,410.94a5.49,5.49,0,0,1,2.47-7.37h0A5.5,5.5,0,0,1,64.59,406h0a5.49,5.49,0,0,1-2.47,7.37h0a5.54,5.54,0,0,1-2.45.58h0A5.51,5.51,0,0,1,54.74,410.94Zm280.69-9.44a5.51,5.51,0,0,1-3.09-7.14h0a5.5,5.5,0,0,1,7.14-3.09h0a5.49,5.49,0,0,1,3.09,7.13h0a5.49,5.49,0,0,1-5.12,3.48h0A5.56,5.56,0,0,1,335.43,401.5ZM40.88,369.85a5.49,5.49,0,0,1,4.37-6.43h0a5.51,5.51,0,0,1,6.44,4.37h0a5.51,5.51,0,0,1-4.38,6.43h0a5.14,5.14,0,0,1-1,.1h0A5.51,5.51,0,0,1,40.88,369.85Zm306-8.66a5.51,5.51,0,0,1-4.91-6h0a5.51,5.51,0,0,1,6-4.91h0a5.5,5.5,0,0,1,4.9,6h0a5.49,5.49,0,0,1-5.46,4.93h0ZM38.5,336.74a5.48,5.48,0,0,1-4.71-6.18h0A5.51,5.51,0,0,1,40,325.84h0A5.5,5.5,0,0,1,44.69,332h0a5.5,5.5,0,0,1-5.44,4.77h0A4.74,4.74,0,0,1,38.5,336.74ZM359.77,329a5.51,5.51,0,0,1,2.14-7.48h0a5.51,5.51,0,0,1,7.48,2.14h0a5.51,5.51,0,0,1-2.13,7.48h0a5.44,5.44,0,0,1-2.66.69h0A5.52,5.52,0,0,1,359.77,329ZM8.07,302.61A5.5,5.5,0,0,1,13.46,297h0a5.5,5.5,0,0,1,5.61,5.39h0A5.51,5.51,0,0,1,13.69,308h-.12A5.51,5.51,0,0,1,8.07,302.61Zm364.84-10.53h0A5.49,5.49,0,0,1,376.2,285h0a5.5,5.5,0,0,1,7.05,3.28h0a5.5,5.5,0,0,1-3.28,7.05h0a5.46,5.46,0,0,1-1.89.33h0A5.51,5.51,0,0,1,372.91,292.08ZM32.59,273.61A5.49,5.49,0,0,1,37,267.23h0a5.49,5.49,0,0,1,6.38,4.44h0A5.5,5.5,0,0,1,39,278.06h0a6.48,6.48,0,0,1-1,.08h0A5.49,5.49,0,0,1,32.59,273.61Zm312.09-2.94a5.5,5.5,0,0,1,5.5-5.5h0a5.5,5.5,0,0,1,5.5,5.49h0a5.5,5.5,0,0,1-5.5,5.5h0A5.5,5.5,0,0,1,344.68,270.67ZM46,241.77a5.51,5.51,0,0,1-4.92-6h0a5.5,5.5,0,0,1,6-4.91h0a5.5,5.5,0,0,1,4.92,6h0a5.5,5.5,0,0,1-5.47,5h0ZM338.69,232a5.51,5.51,0,0,1,4.78-6.14h0a5.5,5.5,0,0,1,6.13,4.78h0a5.5,5.5,0,0,1-4.77,6.14h0a5.43,5.43,0,0,1-.69,0h0A5.5,5.5,0,0,1,338.69,232ZM51.83,200.21a5.51,5.51,0,0,1-4.09-6.62h0a5.48,5.48,0,0,1,6.61-4.09h0a5.5,5.5,0,0,1,4.1,6.61h0a5.52,5.52,0,0,1-5.36,4.24h0A5.53,5.53,0,0,1,51.83,200.21Zm278.73-8.54a5.51,5.51,0,0,1,3.87-6.75h0a5.5,5.5,0,0,1,6.75,3.86h0a5.49,5.49,0,0,1-3.87,6.75h0a5.55,5.55,0,0,1-1.44.2h0A5.51,5.51,0,0,1,330.56,191.67ZM66.05,160.83a5.51,5.51,0,0,1-1.88-7.55h0a5.5,5.5,0,0,1,7.55-1.87h0A5.49,5.49,0,0,1,73.6,159h0a5.5,5.5,0,0,1-4.72,2.66h0A5.44,5.44,0,0,1,66.05,160.83Zm248.1-5.78h0a5.49,5.49,0,0,1,1.62-7.61h0a5.5,5.5,0,0,1,7.61,1.62h0a5.51,5.51,0,0,1-1.62,7.61h0a5.5,5.5,0,0,1-3,.88h0A5.5,5.5,0,0,1,314.15,155.05ZM91.48,127.56a5.49,5.49,0,0,1,.41-7.77h0a5.5,5.5,0,0,1,7.76.41h0a5.49,5.49,0,0,1-.41,7.77h0a5.45,5.45,0,0,1-3.68,1.41h0A5.45,5.45,0,0,1,91.48,127.56Zm200.92-2.94a5.5,5.5,0,0,1-1.12-7.7h0a5.5,5.5,0,0,1,7.7-1.12h0a5.5,5.5,0,0,1,1.11,7.7h0a5.47,5.47,0,0,1-4.41,2.21h0A5.5,5.5,0,0,1,292.4,124.62ZM36.46,106.89a5.5,5.5,0,0,1,3.43-7h0a5.49,5.49,0,0,1,7,3.42h0a5.51,5.51,0,0,1-3.42,7h0a5.53,5.53,0,0,1-1.78.29h0A5.5,5.5,0,0,1,36.46,106.89ZM138.16,97A5.5,5.5,0,0,1,141.42,90h0a5.48,5.48,0,0,1,7.06,3.25h0a5.51,5.51,0,0,1-3.26,7.07h0a5.48,5.48,0,0,1-1.9.34h0A5.5,5.5,0,0,1,138.16,97Zm121.93,3.2a5.51,5.51,0,0,1-4.55-6.31h0a5.5,5.5,0,0,1,6.31-4.55h0a5.5,5.5,0,0,1,4.55,6.31h0A5.5,5.5,0,0,1,261,100.3h0A5.42,5.42,0,0,1,260.09,100.23ZM.53,95.26a5.49,5.49,0,0,1,2.63-7.32h0a5.5,5.5,0,0,1,7.32,2.64h0A5.51,5.51,0,0,1,7.84,97.9h0a5.52,5.52,0,0,1-2.33.52h0A5.49,5.49,0,0,1,.53,95.26Zm70.29-2.7A5.5,5.5,0,0,1,72.64,85h0a5.5,5.5,0,0,1,7.56,1.83h0a5.49,5.49,0,0,1-1.82,7.56h0a5.47,5.47,0,0,1-2.86.81h0A5.48,5.48,0,0,1,70.82,92.56Zm154.06,1.92A5.5,5.5,0,0,1,220.63,88h0a5.49,5.49,0,0,1,6.51-4.25h0a5.48,5.48,0,0,1,4.25,6.51h0A5.5,5.5,0,0,1,226,94.6h0A4.91,4.91,0,0,1,224.88,94.48Zm-46.12-7.79a5.5,5.5,0,0,1,5.08-5.88h0a5.5,5.5,0,0,1,5.89,5.09h0a5.5,5.5,0,0,1-5.09,5.88h-.41A5.5,5.5,0,0,1,178.76,86.69Zm137.55,3.37a5.5,5.5,0,0,1-1.95-7.53h0a5.5,5.5,0,0,1,7.53-2h0a5.51,5.51,0,0,1,1.95,7.53h0a5.51,5.51,0,0,1-4.75,2.71h0A5.45,5.45,0,0,1,316.31,90.06ZM121,72.2A5.48,5.48,0,0,1,125,65.58h0a5.5,5.5,0,0,1,6.62,4.08h0a5.5,5.5,0,0,1-4.08,6.62h0a5.66,5.66,0,0,1-1.28.15h0A5.49,5.49,0,0,1,121,72.2ZM13,58.78a5.49,5.49,0,0,1-1-7.7h0a5.49,5.49,0,0,1,7.71-1h0a5.5,5.5,0,0,1,1,7.71h0a5.51,5.51,0,0,1-4.38,2.17h0A5.49,5.49,0,0,1,13,58.78Zm255.74.32a5.51,5.51,0,0,1-3.59-6.91h0a5.5,5.5,0,0,1,6.9-3.58h0a5.49,5.49,0,0,1,3.59,6.9h0a5.51,5.51,0,0,1-5.24,3.84h0A5.62,5.62,0,0,1,268.7,59.1ZM335,52.46a5.51,5.51,0,0,1-3.85-6.76h0a5.5,5.5,0,0,1,6.76-3.85h0a5.5,5.5,0,0,1,3.85,6.76h0a5.5,5.5,0,0,1-5.3,4h0A5.68,5.68,0,0,1,335,52.46ZM107.8,33.85h0a5.49,5.49,0,0,1,2.3-7.43h0a5.5,5.5,0,0,1,7.43,2.3h0a5.5,5.5,0,0,1-2.31,7.43h0a5.45,5.45,0,0,1-2.55.64h0A5.52,5.52,0,0,1,107.8,33.85ZM41.56,28.06a5.49,5.49,0,0,1,.66-7.75h0A5.5,5.5,0,0,1,50,21h0a5.51,5.51,0,0,1-.66,7.75h0A5.47,5.47,0,0,1,45.76,30h0A5.46,5.46,0,0,1,41.56,28.06Zm244-7.35A5.48,5.48,0,0,1,285.1,13h0a5.48,5.48,0,0,1,7.76-.43h0a5.48,5.48,0,0,1,.43,7.76h0a5.46,5.46,0,0,1-4.1,1.84h0A5.48,5.48,0,0,1,285.53,20.71Zm38.7-6.27a5.49,5.49,0,0,1-2.05-7.5h0a5.49,5.49,0,0,1,7.5-2.05h0a5.49,5.49,0,0,1,2.05,7.5h0A5.49,5.49,0,0,1,327,15.17h0A5.47,5.47,0,0,1,324.23,14.44ZM81.57,11a5.5,5.5,0,0,1-5.11-5.87h0A5.5,5.5,0,0,1,82.32,0h0a5.51,5.51,0,0,1,5.11,5.87h0A5.5,5.5,0,0,1,82,11h-.38Z"/></g></g></svg>