<?xml version="1.0" encoding="utf-8"?>
<!-- Generator: Adobe Illustrator 22.1.0, SVG Export Plug-In . SVG Version: 6.00 Build 0)  -->
<svg version="1.1" id="Layer_1" xmlns="http://www.w3.org/2000/svg" xmlns:xlink="http://www.w3.org/1999/xlink" x="0px" y="0px"
	 viewBox="0 0 512 512" style="enable-background:new 0 0 512 512;" xml:space="preserve">
<style type="text/css">
	.st0{fill:none;stroke:#000000;stroke-width:5;stroke-linecap:round;stroke-linejoin:round;stroke-miterlimit:10;}
</style>
<g>
	<path class="st0" d="M410.4,301.4c13.7-9.7,24.7-23.4,30.8-39.4l35.4,88.1l-66.8,26.8"/>
	<polyline class="st0" points="240.9,445 153.8,480 139.4,444.4 	"/>
	<path class="st0" d="M256.7,53.4l86.7-34.8l16.4,41.3"/>
	<path class="st0" d="M107.6,392.1c-26.1-15-43.9-43-43.9-75.3c0-13.7,3.2-26.8,8.9-38.4c7.8-16,20.5-29.1,36.1-37.7"/>
	<path class="st0" d="M411.3,177.6l17.7,0.2c11.4,14.3,18.1,32.7,18.1,52.9c0,11.2-2.1,21.7-5.9,31.6c-6.3,16-17.1,29.7-30.8,39.4"
		/>
	<path class="st0" d="M390.4,446.3c-15.8,19-39.9,31.2-66.4,31.2c-27.2,0-51.5-12.4-67.5-32.1"/>
	<path class="st0" d="M108.9,240.7c-15.6,8.6-28.3,21.7-36.1,37.7L20.3,148.5l22.1-8.9c-0.2,1.7-0.2,3.2-0.2,4.9v8
		c0,12.2,12.4,22.1,28,22.1l19,0.2l20,0.2"/>
	<path class="st0" d="M67.7,90.5c10.3-36.5,43.9-63.1,83.5-63.1c24.7,0,46.8,10.3,62.6,27"/>
</g>
<g>
	<circle cx="65" cy="101" r="3.5"/>
	<circle cx="69.6" cy="98.6" r="3.5"/>
	<circle cx="83" cy="92.5" r="3.5"/>
	<circle cx="104.6" cy="83.8" r="3.5"/>
	<circle cx="133.9" cy="74.1" r="3.5"/>
	<circle cx="170.5" cy="64.8" r="3.5"/>
	<circle cx="213.6" cy="57.1" r="3.5"/>
	<circle cx="262.8" cy="52.5" r="3.5"/>
	<circle cx="310.3" cy="52" r="3.5"/>
	<circle cx="351.5" cy="55.3" r="3.5"/>
	<circle cx="387.2" cy="61.8" r="3.5"/>
	<circle cx="417.3" cy="71.2" r="3.5"/>
	<circle cx="441.9" cy="83" r="3.5"/>
	<circle cx="460.9" cy="96.9" r="3.5"/>
	<circle cx="474.4" cy="112.4" r="3.5"/>
	<circle cx="482.2" cy="129.1" r="3.5"/>
	<circle cx="476.3" cy="159.2" r="3.5"/>
	<circle cx="445" cy="175.6" r="3.5"/>
	<circle cx="415.8" cy="180.7" r="3.5"/>
	<circle cx="410.9" cy="196.4" r="3.5"/>
	<circle cx="410.8" cy="226.4" r="3.5"/>
	<circle cx="410.7" cy="256.4" r="3.5"/>
	<circle cx="410.6" cy="286.4" r="3.5"/>
	<circle cx="410.5" cy="316.4" r="3.5"/>
	<circle cx="410.4" cy="346.4" r="3.5"/>
	<circle cx="410.3" cy="376.4" r="3.5"/>
	<circle cx="410.1" cy="406.4" r="3.5"/>
	<circle cx="410" cy="436.3" r="3.5"/>
	<circle cx="386.7" cy="443.4" r="3.5"/>
	<circle cx="356.7" cy="443.9" r="3.5"/>
	<circle cx="326.7" cy="444.3" r="3.5"/>
	<circle cx="296.7" cy="444.8" r="3.5"/>
	<circle cx="266.7" cy="445.3" r="3.5"/>
	<circle cx="236.7" cy="445.8" r="3.5"/>
	<circle cx="206.8" cy="446.3" r="3.5"/>
	<circle cx="176.8" cy="446.8" r="3.5"/>
	<circle cx="146.8" cy="447.3" r="3.5"/>
	<circle cx="116.8" cy="447.7" r="3.5"/>
	<circle cx="101.8" cy="433.8" r="3.5"/>
	<circle cx="103.5" cy="403.9" r="3.5"/>
	<circle cx="105.3" cy="374" r="3.5"/>
	<circle cx="107" cy="344" r="3.5"/>
	<circle cx="108.7" cy="314.1" r="3.5"/>
	<circle cx="110.4" cy="284.1" r="3.5"/>
	<circle cx="112.2" cy="254.2" r="3.5"/>
	<circle cx="113.9" cy="224.3" r="3.5"/>
	<circle cx="115.6" cy="194.3" r="3.5"/>
	<circle cx="116.7" cy="170.1" r="3.5"/>
	<circle cx="97" cy="171.8" r="3.5"/>
	<circle cx="47.4" cy="169" r="3.5"/>
	<circle cx="42.6" cy="138.8" r="3.5"/>
	<circle cx="51" cy="118" r="3.5"/>
</g>
</svg>
