<?xml version="1.0" encoding="utf-8"?>
<!-- Generator: Adobe Illustrator 22.1.0, SVG Export Plug-In . SVG Version: 6.00 Build 0)  -->
<svg version="1.1" id="Layer_1" xmlns="http://www.w3.org/2000/svg" xmlns:xlink="http://www.w3.org/1999/xlink" x="0px" y="0px"
	 viewBox="0 0 512 512" style="enable-background:new 0 0 512 512;" xml:space="preserve">
<g>
	<path style="fill:#FFFFFF;stroke:#000000;stroke-width:5;stroke-linecap:round;stroke-linejoin:round;stroke-miterlimit:10;" d="
		M263,202.3c0,0-23.1-17.8-50.8-29.7c-27.7-11.9-18.6-31-30.3-39.7c-11.6-8.9-8.9,11.6-8.9,11.6s25.1,40.5,19.2,43.3
		c-5.9,2.9-57-61.3-57-61.3s2.6,35.1,33,60.3s74,40.3,74,40.3"/>
	<g>
		<g>
			<path style="fill:#FFFFFF;stroke:#000000;stroke-width:5;stroke-linecap:round;stroke-linejoin:round;stroke-miterlimit:10;" d="
				M219.6,181.5c1.3-10.5,3-21,13.2-26.4c5.8-3.1,11.7-4.7,16.5-9.5c2.8-2.6-1.1-7.2-4-4.6c-6.5,6.5-16.7,7.5-22.9,14.5
				s-7.7,16.8-8.9,25.7C213,185,219.1,185.4,219.6,181.5L219.6,181.5z"/>
		</g>
	</g>
	<path style="fill:#FFFFFF;stroke:#000000;stroke-width:5;stroke-linecap:round;stroke-linejoin:round;stroke-miterlimit:10;" d="
		M181.9,132.9l-0.6-5.1l-10.7-18.4l9.8-28.4l-10.9-11L167.9,89l-12.3-21.3l-2.4,13.9l-6.5-2.2l5.7,11.8l-11.6-1.7l3-8.8L131.4,74
		c0,0,12.7-22.5,25.8-18c13.2,4.5-19.7-14.1-24.8-6.2c-5.1,8-4.5,13.2-4.5,13.2s-10.1-13.3-7.1-22.1c0,0-8.1,9.4-4.7,20.4
		c0,0-20.8-31.7-42-26.7C52.8,39.4,58,46.1,58,46.1s14.7,0.2,19.6,6.8c0,0-13.9,5-11,10.9c0,0,11-3.5,18.3,4s18.9,8.9,18.9,8.9
		s-12.4,0.6-15.4,9.4c0,0,13.9-5,17.5-1.2c0,0-11.2,18.1-12.7,22.5c0,0,14.1-19.7,20.5-10l21.7,33.1l5.6,19c4.8,1.5,9,1.2,12.4-0.6
		c0,0-2.1-11.8,1.6-15.2c3.7-3.4,8.8,3,9.4,8.1s8.8,3,8.8,3C177.4,141.8,180.2,137.8,181.9,132.9z"/>
	<path style="fill:#FFFFFF;stroke:#000000;stroke-width:5;stroke-linecap:round;stroke-linejoin:round;stroke-miterlimit:10;" d="
		M218.2,158.9c0,0-10.1-5.9-7.9-19.8c2.4-13.9,4.5-13.2,4.5-13.2s5,13.9,4.8,21.3l3.6-3.7l1.4,10.3l-5.1,8L218.2,158.9z"/>
	<path style="fill:#FFFFFF;stroke:#000000;stroke-width:5;stroke-linecap:round;stroke-linejoin:round;stroke-miterlimit:10;" d="
		M237.2,145.8c0,0-14.5-7.4-13-19.2c1.7-11.6,6.8-19.6,6.8-19.6l5,6.6l4.3-5.8l1.4,10.3l5.9-2.9l-0.9,9.5l13.9-5l-13.3,10.1
		l-0.9,9.5l-3.6,3.7l-3.7-3.6l0.6,5.1L237.2,145.8z"/>
	<g>
		<path style="fill:#FFFFFF;stroke:#000000;stroke-width:5;stroke-miterlimit:10;" d="M368.9,412.4c29.2,0.3,46.2-20.8,72.1-38.7
			c17.8-12.4,16.2-32.7,13.5-44.1c-1.1-4.4-3.4-8.5-6.8-11.6c-6.9-6.4-14.3-11.4-17.5-13.5c-1-0.7-2.1-1.3-3.2-1.8l-6.1-2.7
			c-3-1.4-6.3-2.1-9.6-2.1l-10.4,0c-2.2,0-4.5,0.3-6.6,0.9l-17.7,5.1c-0.9,0.3-1.7,0.6-2.6,0.9l-12.7,5.3l-15.2,5.9
			c-1.9,0.7-3.7,1.7-5.3,2.9l-0.2,0.2c-2.2,1.6-4.1,3.5-5.6,5.7l-2.6,3.7c-1,1.5-1.9,3.1-2.6,4.8l-4,10.2c-0.4,1.1-0.8,2.3-1.1,3.5
			l0,0c-0.4,2-1.1,3.9-2.1,5.7c-0.4,0.8-1,1.9-1.5,3.1c-2.1,4.6-2.6,9.8-1.4,14.8C324.5,390.9,343.1,412.2,368.9,412.4z"/>
	</g>
	<g>
		<g>
			<path d="M322.5,191.4c-6.2,8.5-14,16.3-19.4,25.3c-3.1,5.3-3.8,11.1-1.3,16.6c1.7,3.6,7.1,1,5.4-2.6c-3.7-7.7,3.5-14.6,8-20.1
				c4.1-5.2,8.1-10.4,12.1-15.9C329.7,191.6,324.6,188.3,322.5,191.4L322.5,191.4z"/>
		</g>
	</g>
	<g>
		<g>
			<path d="M335.1,199.4c-4.1,5.2-8.1,10.4-11.7,15.8c-2.2,3.3,2.8,6.7,5,3.4c3.6-5.6,7.6-10.8,11.7-15.8
				C342.6,199.9,337.6,196.4,335.1,199.4L335.1,199.4z"/>
		</g>
	</g>
	<g>
		<g>
			<path d="M351.2,203.9c-0.6,3-1.1,5.8-3.6,7.9c-1.3,1.3-2.9,2.2-4.2,3.5c-2.8,2.5-5,5.1-6.2,8.7s4.5,5.6,5.7,2
				c1.8-5.1,6.5-6.9,9.9-10.7c2.8-3.1,3.6-6.9,4.4-10.9C358,200.5,351.9,200.1,351.2,203.9L351.2,203.9z"/>
		</g>
	</g>
	<g>
		<g>
			<path d="M311.7,270.8c9-3.3,16.6-9.2,22.1-16.9c2.4-3.2-2.7-6.5-5-3.4c-5,7-11.6,12-19.7,15C305.4,266.7,308.1,272.1,311.7,270.8
				L311.7,270.8z"/>
		</g>
	</g>
	<g>
		<g>
			<path d="M260.5,275.5c14.4-2.7,30.2,0.8,40.9-11.5c2.5-3-2.5-6.4-5-3.4c-8.9,10.4-25.1,6.7-37,9
				C255.5,270.3,256.6,276.3,260.5,275.5L260.5,275.5z"/>
		</g>
	</g>
	<g>
		<g>
			<path d="M256.1,258.6c9.3-1.5,16.9-7,24.3-12.3c3.2-2.3-0.8-6.9-4-4.6c-6.6,4.8-13.2,9.7-21.6,11.1
				C251.1,253.5,252.2,259.4,256.1,258.6L256.1,258.6z"/>
		</g>
	</g>
	<g>
		<g>
			<path d="M280.8,223.6c-0.2-3.1,2.2-7.6,3.6-10.3c1.8-3.2,4-5.9,7.1-7.6c3.4-1.8,0.8-7.2-2.6-5.4c-4.4,2.3-7.6,5.9-9.9,10.2
				c-2.1,4.2-4.5,9.3-4.2,14.1C275.2,228.7,281,227.5,280.8,223.6L280.8,223.6z"/>
		</g>
	</g>
	<g>
		<g>
			<path d="M302.2,333c6.4-3.1,9.8-7.9,13.2-14c4.2-7.9,8.4-13.1,16.3-17.6c11.6-6.9,20.3-14.1,23.7-27.9c0.9-3.8-4.9-5.7-5.7-2
				c-3.7,15.1-14.2,19.6-26,27.7c-10.6,7.2-12.4,23-23.9,28.5C296,329.2,298.6,334.6,302.2,333L302.2,333z"/>
		</g>
	</g>
	<g>
		<g>
			<path d="M321.2,337.2c1-5.4,5.7-8.5,8.8-12.5c3.5-4.6,6.3-8.9,10.8-12.7c6.4-5.5,13.2-9.7,18.1-17c2.2-3.3-2.8-6.7-5-3.4
				c-5.7,8.5-15.1,12.9-22,20.4c-3.8,4.2-6.7,9-10.6,13.4c-2.8,3.3-5,5.8-6,9.9C314.8,339.1,320.5,341,321.2,337.2L321.2,337.2z"/>
		</g>
	</g>
	<g>
		<g>
			<path d="M367.9,280.6c1.5-5.7,4.1-10.5,7.6-15.3c2.3-3-2.7-6.5-5-3.4c-3.7,5.1-6.5,10.8-8.3,16.8
				C361.1,282.3,366.8,284.2,367.9,280.6L367.9,280.6z"/>
		</g>
	</g>
	<g>
		<g>
			<path d="M391.1,266.6c-3.1,10.2-6.8,20.3-10.8,30c-1.4,3.6,4.3,5.5,5.7,2c4.1-9.9,7.6-20,10.8-30
				C397.9,264.7,392.2,262.7,391.1,266.6L391.1,266.6z"/>
		</g>
	</g>
	<g>
		<g>
			<path d="M389.7,262.5c2.4-6.4,6-13.1,7.3-19.9c0.5-2,0.4-3.7,0.1-5.7c-1-5.7-2.5-8.8-1.4-14.6c0.9-3.8-4.9-5.7-5.7-2
				c-1.1,5.8-0.9,9.9,0.2,15.6c1.8,8.5-3.2,16.8-6.2,24.8C382.5,264.1,388.3,266,389.7,262.5L389.7,262.5z"/>
		</g>
	</g>
	<g>
		<g>
			<path d="M405.8,235c-2.9,16.3,0.9,33.2-3.6,49.3c-1.1,3.7,4.7,5.7,5.7,2c4.7-16.7,1.1-34,3.9-50.9
				C412.6,231.5,406.5,231.1,405.8,235L405.8,235z"/>
		</g>
	</g>
	<g>
		<g>
			<path d="M418.5,258.3c-1.9,9.2-3.8,18.5-5.7,27.7c-0.9,3.8,4.9,5.7,5.7,2c1.9-9.2,3.8-18.5,5.7-27.7
				C424.8,256.7,419.1,254.5,418.5,258.3L418.5,258.3z"/>
		</g>
	</g>
	<g>
		<g>
			<path d="M385,422.5c8.9-1.2,17.5-4.9,26.3-6.9c7.9-1.8,15.7-3.3,22.9-6.8c3.6-1.7,1-7.1-2.6-5.4c-7.7,3.7-15.8,5-24,7.1
				c-7.9,2-15.6,5.1-23.7,6.3C379.9,417.1,381.1,422.9,385,422.5L385,422.5z"/>
		</g>
	</g>
	<g>
		<g>
			<path d="M435.8,398.1c10.2-4.2,16-13,21.3-22.1c2-3.4-3-6.8-5-3.4c-5,8.3-9.9,16.2-19.1,20.1
				C429.7,394.1,432.4,399.5,435.8,398.1L435.8,398.1z"/>
		</g>
	</g>
</g>
<g style="opacity:0;">
	<circle cx="242.5" cy="228.5" r="3.5"/>
	<circle cx="247.5" cy="261.5" r="3.5"/>
	<circle cx="254.5" cy="291.5" r="3.5"/>
	<circle cx="265.5" cy="318.5" r="3.5"/>
	<circle cx="279.5" cy="335.5" r="3.5"/>
	<circle cx="302.5" cy="345.5" r="3.5"/>
	<circle cx="317.5" cy="350.5" r="3.5"/>
	<circle cx="313.5" cy="367.5" r="3.5"/>
	<circle cx="321.5" cy="389.5" r="3.5"/>
	<circle cx="339.5" cy="411.5" r="3.5"/>
	<circle cx="361.5" cy="426.5" r="3.5"/>
	<circle cx="386.5" cy="436.5" r="3.5"/>
	<circle cx="412.5" cy="433.5" r="3.5"/>
	<circle cx="441.5" cy="421.5" r="3.5"/>
	<circle cx="458.5" cy="406.5" r="3.5"/>
	<circle cx="467.5" cy="384.5" r="3.5"/>
	<circle cx="467.5" cy="359.5" r="3.5"/>
	<circle cx="467.5" cy="339.5" r="3.5"/>
	<circle cx="456.5" cy="318.5" r="3.5"/>
	<circle cx="432.5" cy="298.5" r="3.5"/>
	<circle cx="432.5" cy="279.5" r="3.5"/>
	<circle cx="428.5" cy="260.5" r="3.5"/>
	<circle cx="414.5" cy="235.5" r="3.5"/>
	<circle cx="397.5" cy="212.5" r="3.5"/>
	<circle cx="376.5" cy="199.5" r="3.5"/>
	<circle cx="350.5" cy="190.5" r="3.5"/>
	<circle cx="315.5" cy="188.5" r="3.5"/>
	<circle cx="294.5" cy="194.5" r="3.5"/>
	<circle cx="276.5" cy="198.5" r="3.5"/>
	<circle cx="254.5" cy="202.5" r="3.5"/>
</g>
</svg>
