<?xml version="1.0" encoding="utf-8"?>
<!-- Generator: Adobe Illustrator 22.1.0, SVG Export Plug-In . SVG Version: 6.00 Build 0)  -->
<svg version="1.1" id="Layer_1" xmlns="http://www.w3.org/2000/svg" xmlns:xlink="http://www.w3.org/1999/xlink" x="0px" y="0px"
	 viewBox="0 0 512 512" style="enable-background:new 0 0 512 512;" xml:space="preserve">
<g>
	<path style="fill:#FFFFFF;stroke:#000000;stroke-width:4;stroke-linecap:round;stroke-linejoin:round;stroke-miterlimit:10;" d="
		M417.8,69.4c-20.1,39.8-85,164.4-133.5,211"/>
	<path style="fill:#FFFFFF;stroke:#000000;stroke-width:4;stroke-linecap:round;stroke-linejoin:round;stroke-miterlimit:10;" d="
		M149,409.3c0,0,55.9-62.3,126.8-131c47-45.5,110.4-157.5,137.5-208.4"/>
</g>
<g style="opacity:0;">
	<circle cx="432.5" cy="30.5" r="3.5"/>
	<circle cx="412.5" cy="51.5" r="3.5"/>
	<circle cx="394.5" cy="78.5" r="3.5"/>
	<circle cx="377.5" cy="110.5" r="3.5"/>
	<circle cx="359.5" cy="139.5" r="3.5"/>
	<circle cx="341.5" cy="170.5" r="3.5"/>
	<circle cx="322.5" cy="200.5" r="3.5"/>
	<circle cx="303.5" cy="226.5" r="3.5"/>
	<circle cx="283.5" cy="252.5" r="3.5"/>
	<circle cx="261.5" cy="277.5" r="3.5"/>
	<circle cx="235.5" cy="304.5" r="3.5"/>
	<circle cx="211.5" cy="328.5" r="3.5"/>
	<circle cx="184.5" cy="356.5" r="3.5"/>
	<circle cx="157.5" cy="385.5" r="3.5"/>
	<circle cx="131.5" cy="417.5" r="3.5"/>
	<circle cx="105.5" cy="452.5" r="3.5"/>
	<circle cx="93.5" cy="479.5" r="3.5"/>
	<circle cx="97.5" cy="492.5" r="3.5"/>
	<circle cx="107.5" cy="475.5" r="3.5"/>
	<circle cx="125.5" cy="448.5" r="3.5"/>
	<circle cx="149.5" cy="422.5" r="3.5"/>
	<circle cx="173.5" cy="396.5" r="3.5"/>
	<circle cx="204.5" cy="370.5" r="3.5"/>
	<circle cx="234.5" cy="341.5" r="3.5"/>
	<circle cx="265.5" cy="312.5" r="3.5"/>
	<circle cx="293.5" cy="280.5" r="3.5"/>
	<circle cx="317.5" cy="252.5" r="3.5"/>
	<circle cx="342.5" cy="222.5" r="3.5"/>
	<circle cx="364.5" cy="193.5" r="3.5"/>
	<circle cx="384.5" cy="163.5" r="3.5"/>
	<circle cx="401.5" cy="135.5" r="3.5"/>
	<circle cx="418.5" cy="104.5" r="3.5"/>
	<circle cx="427.5" cy="81.5" r="3.5"/>
	<circle cx="435.5" cy="54.5" r="3.5"/>
</g>
</svg>
