<?xml version="1.0" encoding="utf-8"?>
<!-- Generator: Adobe Illustrator 22.1.0, SVG Export Plug-In . SVG Version: 6.00 Build 0)  -->
<svg version="1.1" id="Layer_1" xmlns="http://www.w3.org/2000/svg" xmlns:xlink="http://www.w3.org/1999/xlink" x="0px" y="0px"
	 viewBox="0 0 512 512" style="enable-background:new 0 0 512 512;" xml:space="preserve">
<g>
	<path d="M116.4,428.6c-1.8-7.8-3.1-15.8-3.9-23.8c-0.8-8-1.2-16-0.8-24c0.4-16,2.5-32,5.7-48c3.1-16,7.8-31.6,13.7-47
		c5.9-15.4,12.9-30.2,20.7-44.9c7.6-14.6,16.2-28.9,25.2-42.9c18-27.9,38.1-54.6,60.3-79.6l-1.2-1.2c-12.1,11.7-23.4,24-34.3,36.7
		c-10.9,12.7-21.3,26-31.2,39.6c-9.8,13.7-19.1,27.7-27.7,42.3c-8.6,14.6-16.4,29.7-23,45.3c-3.5,7.8-6.6,15.6-9.4,23.8
		c-2.9,8-5.5,16.2-7.6,24.6c-2.1,8.4-3.9,16.8-4.9,25.4c-0.4,4.3-1,8.6-1.2,12.9c-0.2,2.1-0.2,4.3-0.2,6.4c0,2.1,0,4.3,0,6.4
		c0.4,17.4,3.7,34.7,9.8,50.9c2.3,6.2,5.1,12.3,8.4,18.1c3.7,2.5,7.6,5.3,11.5,7.8c-0.8-2-1.6-3.9-2.3-5.9
		C120.5,444.2,118.1,436.4,116.4,428.6z"/>
	<path d="M180.6,402.9c2.1-16,4.7-32,7.2-48c1.2-8,2.7-16,4.1-24c1.6-8,3.1-16,4.9-24c3.5-16,7.6-31.8,11.7-47.6s8.6-31.6,13.3-47.2
		c9.2-31.4,19.3-62.6,30.2-93.7l-1.4-0.6c-6.6,15-12.9,30.2-18.7,45.7c-6,15.2-11.7,30.6-17.4,46.3c-5.5,15.4-10.7,31-15.8,46.8
		c-4.9,15.8-9.6,31.6-13.9,47.4c-4.3,16-8.4,32-12.1,48.2c-3.5,16.2-6.2,32.6-7.4,49.4c-1.2,16.6-1.4,33.6,0.6,50.3
		c1,8.4,2.5,16.8,5.1,24.8c0.6,1.8,1.2,3.5,1.8,5.3c2.1,1,4.3,1.8,6.6,2.7c-2.1-11.1-2.7-22.2-2.5-33.6
		C176.9,434.9,178.6,418.9,180.6,402.9z"/>
	<path d="M246.9,482.7c-0.2-8,0-16,0.2-24c0.4-16,1.2-32,2-48c0.6-16,1.2-32.2,1.2-48.2c0-16.2,0.4-32.2,0.8-48.4
		c0.6-16.2,1.2-32.2,2-48.4c0.6-16.2,1.4-32.2,2.1-48.4c1.4-32.2,3.3-64.4,5.5-96.6l-1.6-0.2c-2.3,16-4.3,32-6.2,48
		s-3.7,32.2-5.5,48.2s-3.3,32.2-4.7,48.2c-1.4,16.2-2.7,32.2-4.1,48.4s-2.5,32.2-3.7,48.4c-1.2,16.2-1.6,32.4-1.4,48.6
		c0.2,16.2,1,32.6,2.7,48.8c0.4,4.1,1,8.2,1.6,12.1c0.8,4.1,1.2,8.2,2.1,12.1l1.4,6c0.4,1.4,0.8,2.9,1.2,4.3
		c1.6,0.2,3.3,0.2,4.9,0.4c0-1.8-0.2-3.7-0.2-5.5L246.9,482.7z"/>
	<path d="M334.9,407.2c-0.4-16.4-1.6-32.6-3.5-49c-2-16.2-4.5-32.4-7.4-48.4c-2.7-16-6-32-9.4-48c-3.5-16-7.6-31.6-12.5-47.2
		c-9.6-31-21.1-61.5-33.6-91.5l-1.6,0.4c2,16.2,5.5,32.2,9,48s7.2,31.6,11.1,47.2s8,31.2,12.5,46.8c2.1,7.8,4.3,15.6,6.4,23.4
		c2,7.8,3.9,15.6,5.7,23.4c3.5,15.6,6.6,31.4,9.4,47.4c2.7,15.8,4.7,31.8,6,47.8c1.2,16,1.6,32,0.4,48c-0.2,2-0.2,4.1-0.4,6l-0.8,6
		c-0.4,4.1-1.2,8-2,11.9c-0.4,3.1-1.4,6.2-2.1,9.2c1.2-0.4,2.1-0.8,3.1-1.2c3.3-10.1,5.7-20.7,7-31.2
		C334.5,439.9,335.1,423.6,334.9,407.2z"/>
	<path d="M412,372.4c-2.1-16.4-6.2-32.2-11.3-47.8l-4.1-11.5l-4.5-11.3c-1.4-3.9-3.1-7.6-4.7-11.3l-2.3-5.7l-2.5-5.5
		c-13.1-29.7-29.1-58-46.6-84.9c-8.8-13.5-18.1-26.7-27.9-39.4c-9.8-12.9-19.7-25.4-30.4-37.3l-1.2,1c19.3,25.4,37.1,52.3,52.9,79.8
		c8,13.9,15.4,27.9,22.4,42.2c7,14.2,13.5,28.7,19.3,43.5c5.7,14.8,10.7,29.7,14.6,45.1c1.2,3.7,2,7.6,2.9,11.3
		c1,3.7,2,7.6,2.7,11.5l2.5,11.5l2.3,11.5c2.7,15.4,5.1,30.8,6,46.6c0.6,10.7,0.6,21.7,0.2,32.6c2.3-1.8,4.5-3.7,6.8-5.9
		c2-8.8,3.3-17.8,3.9-26.7C414.8,405.2,414,388.6,412,372.4z"/>
</g>
<g style="opacity:0;">
	<circle cx="176.5" cy="30.5" r="3.5"/>
	<circle cx="208.5" cy="69.5" r="3.5"/>
	<circle cx="215.5" cy="105.5" r="3.5"/>
	<circle cx="173.5" cy="141.5" r="3.5"/>
	<circle cx="132.5" cy="182.5" r="3.5"/>
	<circle cx="95.5" cy="228.5" r="3.5"/>
	<circle cx="69.5" cy="276.5" r="3.5"/>
	<circle cx="55.5" cy="315.5" r="3.5"/>
	<circle cx="53.5" cy="346.5" r="3.5"/>
	<circle cx="57.5" cy="379.5" r="3.5"/>
	<circle cx="77.5" cy="417.5" r="3.5"/>
	<circle cx="114.5" cy="450.5" r="3.5"/>
	<circle cx="152.5" cy="473.5" r="3.5"/>
	<circle cx="190.5" cy="488.5" r="3.5"/>
	<circle cx="240.5" cy="494.5" r="3.5"/>
	<circle cx="287.5" cy="494.5" r="3.5"/>
	<circle cx="334.5" cy="484.5" r="3.5"/>
	<circle cx="374.5" cy="472.5" r="3.5"/>
	<circle cx="414.5" cy="443.5" r="3.5"/>
	<circle cx="436.5" cy="407.5" r="3.5"/>
	<circle cx="445.5" cy="373.5" r="3.5"/>
	<circle cx="439.5" cy="328.5" r="3.5"/>
	<circle cx="425.5" cy="286.5" r="3.5"/>
	<circle cx="398.5" cy="234.5" r="3.5"/>
	<circle cx="368.5" cy="191.5" r="3.5"/>
	<circle cx="340.5" cy="155.5" r="3.5"/>
	<circle cx="317.5" cy="126.5" r="3.5"/>
	<circle cx="295.5" cy="107.5" r="3.5"/>
	<circle cx="297.5" cy="67.5" r="3.5"/>
	<circle cx="317.5" cy="23.5" r="3.5"/>
	<circle cx="283.5" cy="52.5" r="3.5"/>
	<circle cx="268.5" cy="9.5" r="3.5"/>
	<circle cx="251.5" cy="56.5" r="3.5"/>
	<circle cx="212.5" cy="11.5" r="3.5"/>
	<circle cx="213.5" cy="47.5" r="3.5"/>
</g>
</svg>
