<?xml version="1.0" encoding="utf-8"?>
<!-- Generator: Adobe Illustrator 22.1.0, SVG Export Plug-In . SVG Version: 6.00 Build 0)  -->
<svg version="1.1" id="Layer_1" xmlns="http://www.w3.org/2000/svg" xmlns:xlink="http://www.w3.org/1999/xlink" x="0px" y="0px"
	 viewBox="0 0 512 512" style="enable-background:new 0 0 512 512;" xml:space="preserve">
<g>
	<path style="fill:none;stroke:#000000;stroke-width:5;stroke-linejoin:round;stroke-miterlimit:10;" d="M232.6,305.9L232.6,305.9
		c-1.1-15.3-27.1-54.4-32.8-70.3c-2.3-6.4-1.9-12.5-0.6-17.4c-17.2-2.8-29,5.3-37.9-3.6c-10.2-10.2-6.1-21-26.5-23.5
		c-20.7-2.7-39.6-6.1-45.1-35.8c-4.4-23.3,5.3-18.6-1.3-36.9c-14.4-2.3-39.2,13.8-48.3,31.5c-9.3,18,5.1,30.7,23.1,32.8
		c18,2.1,12.3,29.2,18.4,39c6.1,9.7,13.8,16.9,35.8,14.8s27.7,0,56.5,18.9c28.6,18.9,48.1,58.9,48.1,58.9l0,0"/>
	<path style="fill:none;stroke:#000000;stroke-width:5;stroke-linejoin:round;stroke-miterlimit:10;" d="M267.6,253.6
		c0.6,0.4,1.3,0.8,2.1,1.3c-13.3-10.4-15.9-34.5-15-46.4c0.9-11.7-16.5-15.9-14.8-25.6c1.5-9.7,3.6-36.4-12.3-48.7
		c-15.9-12.3-2.7-25.6-17.4-76.4c-14.8-50.8-47.7-12.3-47.7-12.3s-21-5.7-49.3-8.7c-28-3-57.8,15.3-34.7,59.9s5.7,28.6,11.4,58.4
		s24.6,33.3,45.1,35.8c20.7,2.7,16.3,13.3,26.5,23.5c10.2,10.2,24.1-2.1,45.7,5.7c21.4,8,53.6,46.8,53.6,46.8l0,0"/>
	<path style="fill:none;stroke:#000000;stroke-width:5;stroke-linejoin:round;stroke-miterlimit:10;" d="M341.3,255.2
		c0,0-16.3-20.7-31.6-38.5c-15.3-17.8-25.8-39.8-25.8-67.6s-25.2-59.5-40.2-68.8c-7.4-4.5-19.9-8.7-30.7-11.6
		c10.2,41.9-0.2,54.2,14.6,65.6c15.9,12.3,13.8,39,12.3,48.7c-0.6,3,0.9,5.5,2.8,7.8c12.9-1.7,22.4,15.9,21.6,26.1
		c-0.8,10,3.6,6.4,19.5,10c15.9,3.6,43.4,30.5,44.5,32"/>
	<path style="fill:none;stroke:#000000;stroke-width:5;stroke-linejoin:round;stroke-miterlimit:10;" d="M243.2,409.6
		c9.5-1.3,22.7-3.8,36.8-8.3c27.7-9.3,46,3,55.3-15.3c9.3-18.4,3-49.3,24.6-52.3s61.6,0,70.7-18.4c0.9-1.7,1.5-3.2,2.1-4.7"/>
</g>
<g style="opacity:0;">
	<circle cx="222.5" cy="314.5" r="3.5"/>
	<circle cx="230.5" cy="340.5" r="3.5"/>
	<circle cx="237.5" cy="372.5" r="3.5"/>
	<circle cx="241.5" cy="409.5" r="3.5"/>
	<circle cx="226.5" cy="410.5" r="3.5"/>
	<circle cx="244.5" cy="435.5" r="3.5"/>
	<circle cx="262.5" cy="455.5" r="3.5"/>
	<circle cx="286.5" cy="473.5" r="3.5"/>
	<circle cx="310.5" cy="484.5" r="3.5"/>
	<circle cx="334.5" cy="489.5" r="3.5"/>
	<circle cx="357.5" cy="486.5" r="3.5"/>
	<circle cx="378.5" cy="480.5" r="3.5"/>
	<circle cx="403.5" cy="466.5" r="3.5"/>
	<circle cx="424.5" cy="448.5" r="3.5"/>
	<circle cx="442.5" cy="428.5" r="3.5"/>
	<circle cx="458.5" cy="401.5" r="3.5"/>
	<circle cx="464.5" cy="372.5" r="3.5"/>
	<circle cx="461.5" cy="347.5" r="3.5"/>
	<circle cx="451.5" cy="318.5" r="3.5"/>
	<circle cx="436.5" cy="295.5" r="3.5"/>
	<circle cx="432.5" cy="310.5" r="3.5"/>
	<circle cx="419.5" cy="298.5" r="3.5"/>
	<circle cx="399.5" cy="284.5" r="3.5"/>
	<circle cx="371.5" cy="272.5" r="3.5"/>
	<circle cx="341.5" cy="254.5" r="3.5"/>
	<circle cx="328.5" cy="258.5" r="3.5"/>
	<circle cx="341.5" cy="277.5" r="3.5"/>
	<circle cx="327.5" cy="285.5" r="3.5"/>
	<circle cx="295.5" cy="273.5" r="3.5"/>
	<circle cx="270.5" cy="256.5" r="3.5"/>
	<circle cx="260.5" cy="266.5" r="3.5"/>
	<circle cx="267.5" cy="282.5" r="3.5"/>
	<circle cx="283.5" cy="302.5" r="3.5"/>
	<circle cx="278.5" cy="317.5" r="3.5"/>
	<circle cx="263.5" cy="328.5" r="3.5"/>
	<circle cx="248.5" cy="327.5" r="3.5"/>
	<circle cx="233.5" cy="305.5" r="3.5"/>
</g>
</svg>
