<?xml version="1.0" encoding="utf-8"?>
<!-- Generator: Adobe Illustrator 22.1.0, SVG Export Plug-In . SVG Version: 6.00 Build 0)  -->
<svg version="1.1" id="Layer_1" xmlns="http://www.w3.org/2000/svg" xmlns:xlink="http://www.w3.org/1999/xlink" x="0px" y="0px"
	 viewBox="0 0 512 512" style="enable-background:new 0 0 512 512;" xml:space="preserve">
<g style="opacity:0;">
	<circle cx="201.5" cy="25.5" r="3.5"/>
	<circle cx="165.5" cy="33.5" r="3.5"/>
	<circle cx="154.5" cy="49.5" r="3.5"/>
	<circle cx="133.5" cy="78.5" r="3.5"/>
	<circle cx="118.5" cy="102.5" r="3.5"/>
	<circle cx="108.5" cy="135.5" r="3.5"/>
	<circle cx="101.5" cy="168.5" r="3.5"/>
	<circle cx="95.5" cy="201.5" r="3.5"/>
	<circle cx="88.5" cy="220.5" r="3.5"/>
	<circle cx="79.5" cy="238.5" r="3.5"/>
	<circle cx="75.5" cy="262.5" r="3.5"/>
	<circle cx="65.5" cy="299.5" r="3.5"/>
	<circle cx="58.5" cy="331.5" r="3.5"/>
	<circle cx="53.5" cy="363.5" r="3.5"/>
	<circle cx="49.5" cy="398.5" r="3.5"/>
	<circle cx="48.5" cy="441.5" r="3.5"/>
	<circle cx="53.5" cy="459.5" r="3.5"/>
	<circle cx="70.5" cy="466.5" r="3.5"/>
	<circle cx="91.5" cy="461.5" r="3.5"/>
	<circle cx="128.5" cy="442.5" r="3.5"/>
	<circle cx="164.5" cy="425.5" r="3.5"/>
	<circle cx="203.5" cy="404.5" r="3.5"/>
	<circle cx="236.5" cy="382.5" r="3.5"/>
	<circle cx="266.5" cy="351.5" r="3.5"/>
	<circle cx="289.5" cy="320.5" r="3.5"/>
	<circle cx="313.5" cy="290.5" r="3.5"/>
	<circle cx="339.5" cy="261.5" r="3.5"/>
	<circle cx="369.5" cy="236.5" r="3.5"/>
	<circle cx="407.5" cy="212.5" r="3.5"/>
	<circle cx="445.5" cy="189.5" r="3.5"/>
	<circle cx="461.5" cy="172.5" r="3.5"/>
	<circle cx="465.5" cy="162.5" r="3.5"/>
	<circle cx="454.5" cy="155.5" r="3.5"/>
	<circle cx="431.5" cy="159.5" r="3.5"/>
	<circle cx="412.5" cy="151.5" r="3.5"/>
	<circle cx="403.5" cy="165.5" r="3.5"/>
	<circle cx="387.5" cy="158.5" r="3.5"/>
	<circle cx="372.5" cy="172.5" r="3.5"/>
	<circle cx="372.5" cy="187.5" r="3.5"/>
	<circle cx="354.5" cy="178.5" r="3.5"/>
	<circle cx="339.5" cy="187.5" r="3.5"/>
	<circle cx="316.5" cy="212.5" r="3.5"/>
	<circle cx="326.5" cy="198.5" r="3.5"/>
	<circle cx="325.5" cy="181.5" r="3.5"/>
	<circle cx="330.5" cy="162.5" r="3.5"/>
	<circle cx="325.5" cy="143.5" r="3.5"/>
	<circle cx="330.5" cy="126.5" r="3.5"/>
	<circle cx="322.5" cy="105.5" r="3.5"/>
	<circle cx="302.5" cy="89.5" r="3.5"/>
	<circle cx="283.5" cy="74.5" r="3.5"/>
	<circle cx="259.5" cy="75.5" r="3.5"/>
	<circle cx="233.5" cy="89.5" r="3.5"/>
	<circle cx="219.5" cy="102.5" r="3.5"/>
	<circle cx="204.5" cy="100.5" r="3.5"/>
	<circle cx="201.5" cy="80.5" r="3.5"/>
	<circle cx="211.5" cy="60.5" r="3.5"/>
	<circle cx="208.5" cy="42.5" r="3.5"/>
</g>
<g>
	<path style="fill:none;stroke:#000000;stroke-width:5;stroke-linecap:round;stroke-linejoin:round;stroke-miterlimit:10;" d="
		M67.4,434.2c2.6-18.2,5.1-36.5,7.7-54.7c1-7.1,2.3-14.9,7.7-19.6c2.2-1.9,4.9-3.2,7-5.2c5.3-5.2,5.2-13.6,8.6-20.2
		c4.2-8,13.7-14,13-22.9c-0.4-4.8-4-9.4-3-14.1c0.8-3.9,4.5-6.5,7-9.6c5.3-6.7,5.2-15.9,6.5-24.3c1.3-8.4,5.7-17.9,14.1-19.1
		c2.6-0.4,5.5,0.1,7.8-1.2c1.9-1.1,2.9-3.1,3.8-5.1c5.4-12.6,6.1-27.1,13-39c2.3-4,5.4-7.7,6.8-12.1c2.1-6.6,0.1-13.9,1.7-20.7
		c1.1-4.7,3.8-8.8,6.4-12.8c6-9.1,12.1-18.3,20.2-25.6c3.3-3,7.1-5.6,9.5-9.3c2.8-4.1,3.8-9.5,2.6-14.3"/>
	<path style="fill:none;stroke:#000000;stroke-width:5;stroke-linecap:round;stroke-linejoin:round;stroke-miterlimit:10;" d="
		M316.2,214.2c-5.4,7-2.7,18.6,5.1,22.5c-5.7,4.1-12.2,7-19,8.5c-2.6,0.6-5.4,1-7.4,2.8c-1.6,1.4-2.5,3.5-3.1,5.6
		c-2.9,10.7,0.9,24-7,31.9c-2.5,2.5-6.1,4.3-7.3,7.7c-0.8,2.4-0.2,5.1-1.1,7.5c-1.8,5.2-8.9,5.7-14.4,5c-5.5-0.7-12.3-1.2-15.2,3.5
		c-3.5,5.5,1.9,12.3,6.8,16.6c-9.1,1.2-18.3,2.3-27.4,3.5c-1.5,0.2-3.3,0.6-3.6,2.1c-0.2,0.9,0.2,1.7,0.7,2.5
		c3.7,5.1,11.6,4.7,16.5,8.7c1.8,1.5,3.2,4.3,1.7,6.1c-0.8,1-2.1,1.3-3.4,1.5c-5.1,1-10.6,1.8-14.4,5.4c-3.8,3.5-4.5,10.9,0,13.4
		c-9,2.1-18.3,2.9-27.5,2.4c-4.4-0.2-8.9-0.7-13,0.5c-4.2,1.3-8,4.9-7.9,9.3c0.1,1.6,0.6,3.2,0.1,4.7c-0.5,1.3-1.7,2.1-2.9,2.8
		c-10.5,6.3-22.8,8.9-33.6,14.6c-19.6,10.3-33.3,29.9-53.4,39.2"/>
	<g>
		<g>
			<path d="M51.8,440.7c3.8-1,7.6-1.9,11.4-2.7c5.1-1,9-2.1,13.7,1.1c7.1,4.9,11.8,11.3,12.3,20.2c0.1,1.9,3.1,1.9,3,0
				c-0.6-9.1-5-16.4-12.3-21.7c-3.4-2.5-6-4.1-10.2-3.8c-6.2,0.6-12.6,2.4-18.6,4C49.1,438.3,49.9,441.2,51.8,440.7L51.8,440.7z"/>
		</g>
	</g>
</g>
</svg>
