<?xml version="1.0" encoding="utf-8"?>
<!-- Generator: Adobe Illustrator 22.1.0, SVG Export Plug-In . SVG Version: 6.00 Build 0)  -->
<svg version="1.1" id="Layer_1" xmlns="http://www.w3.org/2000/svg" xmlns:xlink="http://www.w3.org/1999/xlink" x="0px" y="0px"
	 viewBox="0 0 512 512" style="enable-background:new 0 0 512 512;" xml:space="preserve">
<g>
	<circle cx="359.5" cy="156.5" r="3.5"/>
	<circle cx="341.5" cy="154.5" r="3.5"/>
	<circle cx="325.5" cy="171.5" r="3.5"/>
	<circle cx="307.5" cy="212.5" r="3.5"/>
	<circle cx="293.5" cy="256.5" r="3.5"/>
	<circle cx="271.5" cy="300.5" r="3.5"/>
	<circle cx="240.5" cy="343.5" r="3.5"/>
	<circle cx="204.5" cy="378.5" r="3.5"/>
	<circle cx="166.5" cy="407.5" r="3.5"/>
	<circle cx="122.5" cy="431.5" r="3.5"/>
	<circle cx="88.5" cy="441.5" r="3.5"/>
	<circle cx="67.5" cy="441.5" r="3.5"/>
	<circle cx="60.5" cy="457.5" r="3.5"/>
	<circle cx="79.5" cy="471.5" r="3.5"/>
	<circle cx="120.5" cy="474.5" r="3.5"/>
	<circle cx="170.5" cy="469.5" r="3.5"/>
	<circle cx="218.5" cy="457.5" r="3.5"/>
	<circle cx="262.5" cy="437.5" r="3.5"/>
	<circle cx="312.5" cy="403.5" r="3.5"/>
	<circle cx="353.5" cy="361.5" r="3.5"/>
	<circle cx="390.5" cy="316.5" r="3.5"/>
	<circle cx="418.5" cy="270.5" r="3.5"/>
	<circle cx="432.5" cy="221.5" r="3.5"/>
	<circle cx="422.5" cy="186.5" r="3.5"/>
	<circle cx="407.5" cy="175.5" r="3.5"/>
	<circle cx="403.5" cy="144.5" r="3.5"/>
	<circle cx="408.5" cy="104.5" r="3.5"/>
	<circle cx="401.5" cy="75.5" r="3.5"/>
	<circle cx="377.5" cy="34.5" r="3.5"/>
	<circle cx="359.5" cy="19.5" r="3.5"/>
	<circle cx="348.5" cy="34.5" r="3.5"/>
	<circle cx="359.5" cy="53.5" r="3.5"/>
	<circle cx="379.5" cy="68.5" r="3.5"/>
	<circle cx="386.5" cy="95.5" r="3.5"/>
	<circle cx="379.5" cy="132.5" r="3.5"/>
</g>
</svg>
