<?xml version="1.0" encoding="utf-8"?>
<!-- Generator: Adobe Illustrator 22.1.0, SVG Export Plug-In . SVG Version: 6.00 Build 0)  -->
<svg version="1.1" id="Layer_1" xmlns="http://www.w3.org/2000/svg" xmlns:xlink="http://www.w3.org/1999/xlink" x="0px" y="0px"
	 viewBox="0 0 512 512" style="enable-background:new 0 0 512 512;" xml:space="preserve">
<g>
	
		<path id="XMLID_2_" style="fill:none;stroke:#000000;stroke-width:5;stroke-linecap:round;stroke-linejoin:round;stroke-miterlimit:10;" d="
		M234.5,354.5c0,0.2-1.1-88.7,36.1-109.2c0,0,78.5-51.5,163.9-15.8"/>
	<g id="XMLID_54_">
		<g>
			<path d="M72.4,239.8c-2.9,4.8-1.3,10.9,3.4,14c2,1.3,5,0.4,6.1-1.6c1.3-2.2,0.4-4.8-1.6-6.1c0.9,0.7-1.1-0.7-0.2-0.2
				c-0.2-0.5-0.2-0.5,0,0c-0.2-0.2-0.2-0.5-0.2-0.7c0.4,1.1,0.2-1.1,0,0c0-0.2,0.2-0.5,0.2-0.7c-0.2,0.5-0.2,0.4,0.2,0
				c1.3-2.2,0.5-4.8-1.6-6.1C76.5,236.9,73.6,237.6,72.4,239.8L72.4,239.8z"/>
		</g>
	</g>
	<g id="XMLID_53_">
		<g>
			<path d="M144.9,245.9c2,0.4,3.8,0.7,5.7,1.1c2.3,0.4,5-0.7,5.6-3.1c0.5-2.2-0.7-5-3.1-5.6c-2-0.4-3.8-0.7-5.7-1.1
				c-2.3-0.4-5,0.7-5.6,3.1C141.3,242.5,142.4,245.3,144.9,245.9L144.9,245.9z"/>
		</g>
	</g>
	<g id="XMLID_52_">
		<g>
			<path d="M184.8,239.9c2,0.7,3.8,1.4,5.7,2c2.2,0.7,5-0.9,5.6-3.1c0.5-2.5-0.7-4.7-3.1-5.6c-2-0.7-3.8-1.4-5.7-2
				c-2.2-0.7-5,0.9-5.6,3.1C181,236.9,182.2,239,184.8,239.9L184.8,239.9z"/>
		</g>
	</g>
	<g id="XMLID_51_">
		<g>
			<path d="M208.8,290.6c4.1,1.1,8.8,0.5,12.2-2c2-1.4,2.9-3.9,1.6-6.1c-1.1-2-4.1-3.1-6.1-1.6c-1.8,1.3-3.2,1.6-5.4,1.1
				C205.6,280.5,203.2,289.1,208.8,290.6L208.8,290.6z"/>
		</g>
	</g>
	<g id="XMLID_50_">
		<g>
			<path d="M157.7,323.6c-2.2,3.1-1.1,7.5,1.6,9.9c3.2,2.7,7.2,2.5,11.1,1.6c2.3-0.5,3.8-3.2,3.1-5.6c-0.7-2.5-3.1-3.6-5.6-3.1
				c-0.4,0-0.9,0.2-1.3,0.2c-0.7,0.2,0.5,0-0.4,0c-0.4,0-0.9,0-1.3,0h0.2c-0.5-0.2-0.5-0.2-0.4,0c0,0,0.7,0.5,0.4,0.2
				c-0.2-0.2-0.2-0.2,0.2,0.2c0-0.2-0.2-0.2-0.2-0.4c0.2,0.4,0.2,0.5,0.2,0.9c0,0.2-0.5,1.3-0.2,0.5c1.4-2,0.4-5-1.6-6.1
				C161.6,320.7,159.1,321.6,157.7,323.6L157.7,323.6z"/>
		</g>
	</g>
	<g id="XMLID_49_">
		<g>
			<path d="M312,137.3c2.3-1.3,4.8-1.4,7.4-0.7c5.6,1.6,7.9-7.2,2.3-8.6c-4.8-1.4-9.9-0.7-14.4,1.6C302.5,132.2,307,140,312,137.3
				L312,137.3z"/>
		</g>
	</g>
	<g id="XMLID_48_">
		<g>
			<path d="M333.4,164.6c0.2,0.2,1.1,1.4,0.7,0.7c0.2,0.2,0.7,1.3,0.5,0.9s0-0.2,0,0.2c0,0.2,0.2,0.5,0.2,0.9c0.2,0.5,0.2,0.5,0,0
				c0,0.4,0,0.5,0,0.9c0,2.3,2,4.7,4.5,4.5c2.3-0.2,4.5-2,4.5-4.5c0-3.8-1.6-7.4-4.3-9.9c-1.6-1.6-4.7-1.8-6.3,0
				C331.8,160.1,331.4,162.9,333.4,164.6L333.4,164.6z"/>
		</g>
	</g>
	<g id="XMLID_47_">
		<g>
			<path d="M280.6,170.1c-0.4,0.4,0.9-0.5,1.1-0.5c-0.7,0.2,0.5-0.2,0.7-0.2c-0.7,0.2,0.5,0,0.7,0c0.5,0,0.5,0,0.2,0
				c0.4,0,0.5,0.2,0.9,0.2c5.6,1.6,7.9-7,2.3-8.6c-4.3-1.3-8.6,0-12.2,2.9c-1.8,1.6-1.6,4.7,0,6.3
				C276.1,171.9,278.6,171.6,280.6,170.1L280.6,170.1z"/>
		</g>
	</g>
	<g id="XMLID_46_">
		<g>
			<path d="M327.3,240.1c1.3,0,2.5,0,3.9,0c2.3,0,4.7-2.2,4.5-4.5c-0.2-2.5-2-4.5-4.5-4.5c-1.3,0-2.5,0-3.9,0
				c-2.3,0-4.7,2.2-4.5,4.5C322.8,238.1,324.8,240.1,327.3,240.1L327.3,240.1z"/>
		</g>
	</g>
	<g id="XMLID_45_">
		<g>
			<path d="M141.5,186.5C141.3,186.6,141,187,141.5,186.5c0,0,0.2-0.2,0.4-0.4s0.4-0.4,0.5-0.4c0.5-0.5-0.5,0.4,0,0
				c0.4-0.2,0.7-0.5,1.1-0.7c0.2-0.2,0.4-0.2,0.5-0.4c0.5-0.4-1.1,0.4,0,0c2.2-0.9,3.9-3.1,3.1-5.6c-0.7-2.2-3.2-3.9-5.6-3.1
				c-3.2,1.3-5.6,3.1-7.7,5.7c-0.7,0.9-0.7,2.5-0.5,3.4c0.4,1.1,1.1,2.2,2,2.7c1.1,0.5,2.3,0.9,3.4,0.5
				C139.9,188.1,140.6,187.3,141.5,186.5L141.5,186.5z"/>
		</g>
	</g>
	<g id="XMLID_44_">
		<g>
			<path d="M241.5,228.3c1.8-0.7,3.6-0.9,5.4-0.5c2.3,0.5,4.8-0.7,5.6-3.1c0.5-2.2-0.7-5-3.1-5.6c-3.4-0.7-6.8-0.5-10.2,0.5
				c-2.3,0.9-3.8,3.1-3.1,5.6C236.6,227.4,239.1,229.2,241.5,228.3L241.5,228.3z"/>
		</g>
	</g>
	<g id="XMLID_43_">
		<g>
			<path d="M101.1,295.4c2.3,0.4,4.5,0.7,6.8,1.1s5-0.5,5.6-3.1c0.5-2.2-0.7-5.2-3.1-5.6c-2.3-0.4-4.5-0.7-6.8-1.1
				c-2.3-0.4-5,0.5-5.6,3.1C97.5,292.2,98.8,295,101.1,295.4L101.1,295.4z"/>
		</g>
	</g>
	<g id="XMLID_42_">
		<g>
			<path d="M154.4,294.5c0.7,1.3,1.3,2.5,2,3.8c1.1,2.2,4.1,2.9,6.1,1.6c2.2-1.4,2.7-3.9,1.6-6.1c-0.7-1.3-1.3-2.5-2-3.8
				c-1.1-2.2-4.1-2.9-6.1-1.6C153.9,289.7,153.3,292.2,154.4,294.5L154.4,294.5z"/>
		</g>
	</g>
	<g id="XMLID_40_">
		<g>
			<path d="M377.5,169.9C377.9,169.8,377.9,169.8,377.5,169.9c0.4-0.2,0.5-0.2,0.9-0.4c-1.1,0.2,0.9,0.2,0.4,0
				c-0.7-0.2,1.3,0.5,0.4,0c0.2,0.2,0.5,0.4,0.7,0.4c-0.4-0.2-0.4-0.2,0,0.2c1.6,1.8,4.7,1.6,6.3,0c1.8-1.8,1.6-4.7,0-6.3
				c-3.4-3.6-8.8-4.3-13.1-1.8C368,165.1,372.5,173,377.5,169.9L377.5,169.9z"/>
		</g>
	</g>
	<g id="XMLID_38_">
		<g>
			<path d="M307.9,202.4c0-0.2,0.2-0.4,0.2-0.5C308.1,202.1,307.5,203,307.9,202.4c-0.2,0.2-0.7,0.7-0.4,0.4
				c0.5-0.5-0.7,0.4-0.4,0.2c0.2-0.2,0.7-0.4,0,0c-0.7,0.4-0.2,0,0,0c0.5,0-1.1,0.2-0.5,0c0.4,0,0.9,0.2-0.4-0.2
				c2.3,0.4,5-0.7,5.6-3.1c0.5-2.2-0.7-5-3.1-5.6c-2.2-0.4-4.1-0.2-6.1,0.9c-1.8,1.1-3.1,2.9-3.6,4.8c-0.5,2.3,0.7,5,3.1,5.6
				C304.7,206.2,307.4,204.9,307.9,202.4L307.9,202.4z"/>
		</g>
	</g>
	<g id="XMLID_34_">
		<g>
			<path d="M348.5,239.4C348.8,239,348.8,239.2,348.5,239.4c0,0,0.2-0.2,0.4-0.2s0.2-0.2,0.4-0.2c0.4-0.2,0.4-0.2-0.2,0l0.9-0.2
				c0.5-0.2,0.4,0-0.2,0c0.2,0,0.4,0,0.7,0c2.3,0,4.7-2,4.5-4.5c-0.2-2.3-2-4.5-4.5-4.5c-3.1,0-5.7,1.3-8.1,3.2
				c-1.8,1.6-1.8,4.8,0,6.3C344,241.2,346.7,241.2,348.5,239.4L348.5,239.4z"/>
		</g>
	</g>
	<g id="XMLID_33_">
		<g>
			<path d="M402,245.5c1.3,1.3,2.5,2.7,3.8,3.9c1.6,1.6,4.7,1.8,6.3,0c1.6-1.8,1.8-4.5,0-6.3c-1.3-1.3-2.5-2.7-3.8-3.9
				c-1.6-1.6-4.7-1.8-6.3,0C400.3,241,400.3,243.7,402,245.5L402,245.5z"/>
		</g>
	</g>
	<g id="XMLID_32_">
		<g>
			<path d="M425.3,263.5c1.8,2.7,4.5,4.1,7.5,4.3c2.3,0.2,4.7-2.2,4.5-4.5c-0.2-2.5-2-4.3-4.5-4.5c-0.9,0,0.9,0.2,0.2,0
				c-0.9-0.2,0.9,0.5,0,0c-0.9-0.5,0.4,0.4,0,0c-0.7-0.9,0.4,0.7,0,0c-1.3-2-4.1-2.9-6.1-1.6C424.9,258.6,423.9,261.3,425.3,263.5
				L425.3,263.5z"/>
		</g>
	</g>
	<g id="XMLID_31_">
		<g>
			<path d="M430.5,243.5c5.7,0,5.7-9,0-9C424.6,234.6,424.6,243.5,430.5,243.5L430.5,243.5z"/>
		</g>
	</g>
	<g id="XMLID_30_">
		<g>
			<path d="M385.1,232.6c2.5-0.2,5.2-0.5,7.7-0.7c2.3-0.2,4.5-2,4.5-4.5c0-2.3-2-4.7-4.5-4.5c-2.5,0.2-5.2,0.5-7.7,0.7
				c-2.3,0.2-4.5,2-4.5,4.5C380.6,230.4,382.7,232.9,385.1,232.6L385.1,232.6z"/>
		</g>
	</g>
	<g id="XMLID_29_">
		<g>
			<path d="M447,309.2c2.3,1.8,5.6,2.2,8.3,1.4c2.3-0.5,3.8-3.2,3.1-5.6c-0.7-2.3-3.1-3.8-5.6-3.1c-0.5,0.2-0.4,0.2,0.4,0
				c-0.2,0-0.4,0-0.5,0c-0.9,0,0.9,0.2,0,0c-0.2,0-0.4,0-0.4-0.2c-0.4-0.2-0.2,0,0.4,0.2c-0.2,0-0.9-0.5-1.1-0.5
				c-2-1.4-5-0.4-6.1,1.6C444.1,305.3,445,307.8,447,309.2L447,309.2z"/>
		</g>
	</g>
	<g id="XMLID_28_">
		<g>
			<path d="M438.7,349.3c1.3,0,2.5,0,3.9,0c2.3,0,4.7-2.2,4.5-4.5c-0.2-2.5-2-4.5-4.5-4.5c-1.3,0-2.5,0-3.9,0
				c-2.3,0-4.7,2.2-4.5,4.5C434.4,347.3,436.2,349.1,438.7,349.3L438.7,349.3z"/>
		</g>
	</g>
	<g id="XMLID_27_">
		<g>
			<path d="M454.7,280.9c1.6,0,3.2,0,4.8,0.2c2.3,0,4.7-2.2,4.5-4.5c-0.2-2.5-2-4.5-4.5-4.5c-1.6,0-3.2,0-4.8-0.2
				c-2.3,0-4.7,2.2-4.5,4.5C450.4,278.9,452.2,280.7,454.7,280.9L454.7,280.9z"/>
		</g>
	</g>
	
		<path id="XMLID_36_" style="fill:none;stroke:#000000;stroke-width:5;stroke-linecap:round;stroke-linejoin:round;stroke-miterlimit:10;" d="
		M261.8,266.9c0,0-25.6,22-15.5,88.5c0,0,22.3,57.7,111.7,49.9c0,0,48.2-4.2,54.8-48.6c0,0,6.7-100.3-59.7-98.2
		C353.1,258.3,295.2,237.1,261.8,266.9z"/>
</g>
<g style="opacity:0;">
	<circle cx="54.5" cy="202.5" r="3.5"/>
	<circle cx="35.5" cy="242.5" r="3.5"/>
	<circle cx="31.5" cy="280.5" r="3.5"/>
	<circle cx="39.5" cy="311.5" r="3.5"/>
	<circle cx="52.5" cy="335.5" r="3.5"/>
	<circle cx="80.5" cy="358.5" r="3.5"/>
	<circle cx="117.5" cy="374.5" r="3.5"/>
	<circle cx="165.5" cy="378.5" r="3.5"/>
	<circle cx="209.5" cy="367.5" r="3.5"/>
	<circle cx="234.5" cy="354.5" r="3.5"/>
	<circle cx="248.5" cy="383.5" r="3.5"/>
	<circle cx="276.5" cy="406.5" r="3.5"/>
	<circle cx="304.5" cy="417.5" r="3.5"/>
	<circle cx="346.5" cy="421.5" r="3.5"/>
	<circle cx="391.5" cy="417.5" r="3.5"/>
	<circle cx="428.5" cy="395.5" r="3.5"/>
	<circle cx="458.5" cy="362.5" r="3.5"/>
	<circle cx="475.5" cy="329.5" r="3.5"/>
	<circle cx="477.5" cy="287.5" r="3.5"/>
	<circle cx="466.5" cy="256.5" r="3.5"/>
	<circle cx="434.5" cy="229.5" r="3.5"/>
	<circle cx="434.5" cy="190.5" r="3.5"/>
	<circle cx="419.5" cy="156.5" r="3.5"/>
	<circle cx="397.5" cy="130.5" r="3.5"/>
	<circle cx="370.5" cy="116.5" r="3.5"/>
	<circle cx="341.5" cy="108.5" r="3.5"/>
	<circle cx="308.5" cy="108.5" r="3.5"/>
	<circle cx="265.5" cy="113.5" r="3.5"/>
	<circle cx="211.5" cy="125.5" r="3.5"/>
	<circle cx="168.5" cy="139.5" r="3.5"/>
	<circle cx="117.5" cy="156.5" r="3.5"/>
	<circle cx="80.5" cy="175.5" r="3.5"/>
</g>
</svg>
