<?xml version="1.0" encoding="utf-8"?>
<!-- Generator: Adobe Illustrator 22.1.0, SVG Export Plug-In . SVG Version: 6.00 Build 0)  -->
<svg version="1.1" id="Layer_1" xmlns="http://www.w3.org/2000/svg" xmlns:xlink="http://www.w3.org/1999/xlink" x="0px" y="0px"
	 viewBox="0 0 512 512" style="enable-background:new 0 0 512 512;" xml:space="preserve">
<g>
	<path style="fill:none;stroke:#000000;stroke-width:5;stroke-linecap:round;stroke-linejoin:round;stroke-miterlimit:10;" d="
		M325.2,168.8c-2.9,2.2-6.1,4.5-9.5,6.9c-0.2,0.1-3,2.7-3.2,2.8v-3l-9.1-26.2c0,0-4-21.4,6.3-19.3c0,0,1.5-42.8,18.2-31.6
		c-0.5-0.8-24.3-37.1-7.3-37.5c0,0-3.8-51.9,25.6-21.4c0,0,23.9-19.7,20.3,15.7L359.1,91c0,0,0.3,0,0.9,0.2
		c4.2,1.1,20.4,7.4-5.1,38.5C354.9,129.6,379,128.4,325.2,168.8z"/>
	<path style="fill:none;stroke:#000000;stroke-width:5;stroke-linecap:round;stroke-linejoin:round;stroke-miterlimit:10;" d="
		M443.7,110.9c7.1,22.2-43.4,9.2-43.4,9.2c11.9,9.6-0.4,22.1-11.8,30.4c-7.2,5.3-14.1,8.8-14.1,8.8c6.7,12.4-18,18-18,18l-7.8,2
		l-24,6.1l-0.7,0.2l-1.7-2.5c0.2-0.8,0.3-1.6,0.5-2.5c0.9-4.1,1.7-8.1,2.5-11.8c53.9-40.3,29.7-39.1,29.7-39.1
		c25.5-31.1,9.3-37.4,5.1-38.5c22.2-41.2,34.7-14.9,34.7-14.9l35-27.8c36.7-22.6,25.8,18.4,25.8,18.4
		C500.9,89.8,443.7,110.9,443.7,110.9z"/>
	<path style="fill:none;stroke:#000000;stroke-width:5;stroke-linecap:round;stroke-linejoin:round;stroke-miterlimit:10;" d="
		M454,196.8c-2.1,16.6-35.5-10.8-36.3-11.5c9.5,17.6-33.3,14.5-33.3,14.5c1,10.5-19.9,4.2-19.9,4.2l-26-9.6l-2,1l1-2l1-1
		c3.4-3.8,7.2-10.1,10.2-13.3l7.8-2c0,0,24.7-5.5,18-18c0,0,6.9-3.5,14.1-8.8c1.6,1.7,1,4.8,1,4.8c38.1-24.9,38.8,0,38.8,0l36.4-3.6
		c35.6,0.4,13.4,22,13.4,22C505.1,206.2,454,196.8,454,196.8z"/>
	
		<line style="fill:none;stroke:#000000;stroke-width:5;stroke-linecap:round;stroke-linejoin:round;stroke-miterlimit:10;" x1="312.8" y1="176.1" x2="284.5" y2="212.5"/>
	
		<line style="fill:none;stroke:#000000;stroke-width:5;stroke-linecap:round;stroke-linejoin:round;stroke-miterlimit:10;" x1="322.5" y1="185.5" x2="292.5" y2="220.5"/>
	
		<line style="fill:none;stroke:#000000;stroke-width:5;stroke-linecap:round;stroke-linejoin:round;stroke-miterlimit:10;" x1="338.7" y1="193.2" x2="297.5" y2="224.5"/>
	<path id="XMLID_8_" d="M197.8,261.3c0,0,16.6-2.7,28.7,5.9c0,0-14.4-12.8-26.2-11.9L197.8,261.3z"/>
	<path id="XMLID_7_" d="M274.2,304.9c0,0-7.5-22.6-18.4-25.3c0,0,10.5,0.6,22.8,23.7L274.2,304.9z"/>
	<path id="XMLID_6_" d="M220.4,362.9c0,0-5.5-13.8-14.2-22.2c0,0,12.4,5.9,18.2,15.9l-2.9,0.2L220.4,362.9z"/>
	<path id="XMLID_5_" d="M152.5,319.8c0,0,9.2-1,21,4.4c0,0-8.2-5.9-18-10.1l-0.6,4.8L152.5,319.8z"/>
	<path id="XMLID_4_" d="M97.5,383.2c0,0,13.8,2.5,20.9,8.4c0,0-2.7-6.3-18.4-15.3l-0.4,5.5L97.5,383.2z"/>
	<path id="XMLID_3_" d="M141,426c0,0-1.9-10.7-7.5-19.1c0,0,8.2,8.6,11.9,15.7l-2.3,1.1L141,426z"/>
</g>
<g style="opacity:0;">
	<circle cx="260.5" cy="204.5" r="3.5"/>
	<circle cx="229.5" cy="216.5" r="3.5"/>
	<circle cx="210.5" cy="236.5" r="3.5"/>
	<circle cx="197.5" cy="261.5" r="3.5"/>
	<circle cx="173.5" cy="282.5" r="3.5"/>
	<circle cx="154.5" cy="319.5" r="3.5"/>
	<circle cx="126.5" cy="341.5" r="3.5"/>
	<circle cx="105.5" cy="365.5" r="3.5"/>
	<circle cx="98.5" cy="382.5" r="3.5"/>
	<circle cx="81.5" cy="401.5" r="3.5"/>
	<circle cx="70.5" cy="423.5" r="3.5"/>
	<circle cx="19.5" cy="499.5" r="3.5"/>
	<circle cx="94.5" cy="458.5" r="3.5"/>
	<circle cx="120.5" cy="445.5" r="3.5"/>
	<circle cx="144.5" cy="423.5" r="3.5"/>
	<circle cx="167.5" cy="410.5" r="3.5"/>
	<circle cx="198.5" cy="386.5" r="3.5"/>
	<circle cx="220.5" cy="357.5" r="3.5"/>
	<circle cx="236.5" cy="351.5" r="3.5"/>
	<circle cx="252.5" cy="337.5" r="3.5"/>
	<circle cx="273.5" cy="304.5" r="3.5"/>
	<circle cx="292.5" cy="294.5" r="3.5"/>
	<circle cx="307.5" cy="275.5" r="3.5"/>
	<circle cx="311.5" cy="252.5" r="3.5"/>
	<circle cx="292.5" cy="220.5" r="3.5"/>
</g>
</svg>
