<?xml version="1.0" encoding="utf-8"?>
<!-- Generator: Adobe Illustrator 22.1.0, SVG Export Plug-In . SVG Version: 6.00 Build 0)  -->
<svg version="1.1" id="Layer_1" xmlns="http://www.w3.org/2000/svg" xmlns:xlink="http://www.w3.org/1999/xlink" x="0px" y="0px"
	 viewBox="0 0 512 512" style="enable-background:new 0 0 512 512;" xml:space="preserve">
<g>
	<path style="fill:none;stroke:#000000;stroke-width:5;stroke-linecap:round;stroke-linejoin:round;stroke-miterlimit:10;" d="
		M269.1,265.8l5.3-8.4c0,0-3.5-8.4,4.6-13.8c8.1-5.4-1.2-12.6,5.4-19.3c6.6-6.6-8.6-9.6,1.9-20.8c0,0-3.5-8.1,5.4-12.9
		c8.9-4.9-2.3-8.9,8.8-13.8c11-4.9,6.1-7.2,11.4-14.5c5.3-7.4,3.9-2.6,6.1-11.2c2.3-8.6,4.6-18,11.2-19.6c6.7-1.6,3-0.3,7.2-5.6
		c4.4-5.4,6.1,0.3,10.1-1.6c4-1.9,7.2-8.4,10.9-8.8c3.7-0.4,1.1-4.4,6.1-7.9s2.1-7.5,7.9-8.8c5.9-1.2,2.3,1.2,7.4,0
		c5.1-1.2,7.9-3.7,9.4-0.4c1.6,3.3,4.6,3.5,9.3,1.8c4.7-1.8,2.8-0.3,7.2,0.7c4.6,1.2,6.5-2.8,10.5-1.2c4,1.4,3.3,3.3,7.9,3
		c4.6-0.3,4,0.5,3.5,4.4c-0.5,3.9,4.9,6.3,3.7,9.8c-1.2,3.5-5.8,3.7-2.6,6c3.1,2.3,3.8,7.9,2.8,11c-1,3,6.1,4.7,4.7,8.8
		c-1.4,3.9-2.6,5.8-0.5,9.3c2.1,3.5-5.3,4.9-7,9.6s-7.7,5.4-9.1,8.6c-1.4,3.1-10.9,9.6-9.8,14.2c1.1,4.6,0.2,4.4-3.5,8.8
		c-3.7,4.6,0.2,7.5-3,10.2c-3,2.6-11.7,3.3-13,5.9c-1.2,2.6-9.4,1.4-12.9,5.4c-3.5,3.8-18.6,9.8-18.9,17.2
		c-0.4,7.4-11.7,6.3-13.7,12.9c-1.9,6.7-7.5-1.8-12.9,1.4c-5.4,3.2-9.4,5.8-14.5,2.8c-5.1-3-12.1,6.3-16.8,4.6
		c-4.7-1.8-12.3,10.9-16.6,7.9C278.6,258.1,269.1,265.8,269.1,265.8z"/>
</g>
<g style="opacity:0;">
	<circle cx="427.5" cy="100.5" r="3.5"/>
	<circle cx="411.5" cy="93.5" r="3.5"/>
	<circle cx="396.5" cy="86.5" r="3.5"/>
	<circle cx="365.5" cy="80.5" r="3.5"/>
	<circle cx="345.5" cy="86.5" r="3.5"/>
	<circle cx="327.5" cy="100.5" r="3.5"/>
	<circle cx="302.5" cy="113.5" r="3.5"/>
	<circle cx="285.5" cy="136.5" r="3.5"/>
	<circle cx="278.5" cy="168.5" r="3.5"/>
	<circle cx="264.5" cy="195.5" r="3.5"/>
	<circle cx="272.5" cy="230.5" r="3.5"/>
	<circle cx="249.5" cy="257.5" r="3.5"/>
	<circle cx="221" cy="286" r="3.5"/>
	<circle cx="194.5" cy="318.5" r="3.5"/>
	<circle cx="164.5" cy="349.6" r="3.5"/>
	<circle cx="140.5" cy="378.6" r="3.5"/>
	<circle cx="112.5" cy="409.6" r="3.5"/>
	<circle cx="79.5" cy="445.6" r="3.5"/>
	<circle cx="102.5" cy="464.6" r="3.5"/>
	<circle cx="129.5" cy="436.6" r="3.5"/>
	<circle cx="163.5" cy="398.6" r="3.5"/>
	<circle cx="196.5" cy="364.6" r="3.5"/>
	<circle cx="219.5" cy="338.6" r="3.5"/>
	<circle cx="247.5" cy="309.6" r="3.5"/>
	<circle cx="274.6" cy="280.6" r="3.5"/>
	<circle cx="305.6" cy="259.6" r="3.5"/>
	<circle cx="347.6" cy="257.6" r="3.5"/>
	<circle cx="369.6" cy="239.6" r="3.5"/>
	<circle cx="397.6" cy="226.6" r="3.5"/>
	<circle cx="417.6" cy="218.6" r="3.5"/>
	<circle cx="424.6" cy="199.5" r="3.5"/>
	<circle cx="438.6" cy="178.5" r="3.5"/>
	<circle cx="450.6" cy="164.5" r="3.5"/>
	<circle cx="445.6" cy="147.5" r="3.5"/>
	<circle cx="440.6" cy="118.5" r="3.5"/>
</g>
</svg>
