<?xml version="1.0" encoding="utf-8"?>
<!-- Generator: Adobe Illustrator 22.1.0, SVG Export Plug-In . SVG Version: 6.00 Build 0)  -->
<svg version="1.1" id="Layer_1" xmlns="http://www.w3.org/2000/svg" xmlns:xlink="http://www.w3.org/1999/xlink" x="0px" y="0px"
	 viewBox="0 0 512 512" style="enable-background:new 0 0 512 512;" xml:space="preserve">
<g>
	
		<polygon id="XMLID_31_" style="fill:none;stroke:#000000;stroke-width:5;stroke-linecap:round;stroke-linejoin:round;stroke-miterlimit:10;" points="
		98.6,282.8 99.2,240.6 102.9,195.6 64.9,189.3 55.7,196 64.4,204.7 45.3,212.1 44.4,243 68.1,258.4 60.5,262.8 	"/>
	
		<polygon id="XMLID_30_" style="fill:none;stroke:#000000;stroke-width:5;stroke-linecap:round;stroke-linejoin:round;stroke-miterlimit:10;" points="
		62.3,284.7 82.3,282.4 92.1,292.4 99.4,296.5 105.8,355.9 69,321.7 	"/>
	
		<polygon id="XMLID_29_" style="fill:none;stroke:#000000;stroke-width:5;stroke-linecap:round;stroke-linejoin:round;stroke-miterlimit:10;" points="
		76.4,353.3 94.9,380.2 103.1,388.1 106.2,367.9 80.5,346.3 	"/>
	
		<polyline id="XMLID_1_" style="fill:none;stroke:#000000;stroke-width:5;stroke-linecap:round;stroke-linejoin:round;stroke-miterlimit:10;" points="
		128.5,202.5 119.5,162.3 131.6,134.5 159.5,126.5 	"/>
	
		<polygon id="XMLID_25_" style="fill:none;stroke:#000000;stroke-width:5;stroke-linecap:round;stroke-linejoin:round;stroke-miterlimit:10;" points="
		65.9,174.5 99.2,187.3 102,155.8 105.1,136.9 96.4,129.3 83.3,131.5 	"/>
	
		<polygon id="XMLID_20_" style="fill:none;stroke:#000000;stroke-width:5;stroke-linecap:round;stroke-linejoin:round;stroke-miterlimit:10;" points="
		294,377.2 335.4,357.6 380.5,336.5 402.3,368 399.7,380.2 387.1,375.6 386.6,396.8 356.2,412 332.1,396.5 331.4,406.1 	"/>
	
		<polygon id="XMLID_19_" style="fill:none;stroke:#000000;stroke-width:5;stroke-linecap:round;stroke-linejoin:round;stroke-miterlimit:10;" points="
		305.6,415.6 298.8,394.6 284.3,389.5 276.9,384.3 215.1,405.2 265.8,425.9 	"/>
	
		<polyline id="XMLID_2_" style="fill:none;stroke:#000000;stroke-width:5;stroke-linecap:round;stroke-linejoin:round;stroke-miterlimit:10;" points="
		336.5,302.5 344.5,330.2 290.3,352.2 267.9,360.8 	"/>
	
		<polygon id="XMLID_16_" style="fill:none;stroke:#000000;stroke-width:5;stroke-linecap:round;stroke-linejoin:round;stroke-miterlimit:10;" points="
		368.4,313.4 406,300.4 428,275.9 422.7,239.5 375.1,245.6 	"/>
	
		<polygon id="XMLID_14_" style="fill:none;stroke:#000000;stroke-width:5;stroke-linecap:round;stroke-linejoin:round;stroke-miterlimit:10;" points="
		419.9,362.2 391.9,335 421.7,318 439.1,305.9 450.6,311.3 454.5,325.4 	"/>
	
		<polygon id="XMLID_10_" style="fill:none;stroke:#000000;stroke-width:5;stroke-linecap:round;stroke-linejoin:round;stroke-miterlimit:10;" points="
		182.7,353.9 256.6,329.1 279.9,297.6 246.2,320.9 236.8,292.1 219.9,288 198.2,306.7 	"/>
	
		<polygon id="XMLID_9_" style="fill:none;stroke:#000000;stroke-width:5;stroke-linecap:round;stroke-linejoin:round;stroke-miterlimit:10;" points="
		190.8,242.4 213.2,195.4 240.8,147.1 201.6,120.2 187.7,123 193.1,137.3 167.7,135.6 150.7,169.7 169.4,199.3 158.4,200.2 	"/>
	
		<polygon id="XMLID_8_" style="fill:none;stroke:#000000;stroke-width:5;stroke-linecap:round;stroke-linejoin:round;stroke-miterlimit:10;" points="
		147.7,229.1 171.2,236.9 177.1,253.2 182.9,261.7 159.4,331.5 136,274.1 	"/>
	
		<polygon id="XMLID_6_" style="fill:none;stroke:#000000;stroke-width:5;stroke-linecap:round;stroke-linejoin:round;stroke-miterlimit:10;" points="
		219,246.7 209.5,271.9 225.3,279.7 247.5,286.7 255.5,302.4 280.5,283.9 317.7,253 288.8,238.7 272.1,193 244,185.4 	"/>
	
		<polygon id="XMLID_5_" style="fill:none;stroke:#000000;stroke-width:5;stroke-linecap:round;stroke-linejoin:round;stroke-miterlimit:10;" points="
		263.2,158.6 277.9,116 305.6,91.2 346.7,97.3 339.7,151 	"/>
	
		<polygon id="XMLID_4_" style="fill:none;stroke:#000000;stroke-width:5;stroke-linecap:round;stroke-linejoin:round;stroke-miterlimit:10;" points="
		290.5,194.5 294.7,220.2 314.5,238.2 346.4,216.5 334.3,202.1 	"/>
	
		<polygon id="XMLID_3_" style="fill:none;stroke:#000000;stroke-width:5;stroke-linecap:round;stroke-linejoin:round;stroke-miterlimit:10;" points="
		208.1,100.2 238.6,131.9 258,98.2 271.6,78.6 265.6,65.6 249.7,61.2 	"/>
	<path style="fill:none;stroke:#000000;stroke-width:5;stroke-linecap:round;stroke-linejoin:round;stroke-miterlimit:10;" d="
		M167.2,113.9c-43.8,59-41.8,143-41.8,143C111.8,360.9,147,377.8,147,377.8l12.4,3.2c1.1,0.6,2.1,1.2,3.2,1.7"/>
	<path style="fill:none;stroke:#000000;stroke-width:5;stroke-linecap:round;stroke-linejoin:round;stroke-miterlimit:10;" d="
		M164.4,383.5c55.5,25,137.7-53,137.7-53c56.1-38.9,72.2-107.6,72.2-107.6c0.6-2.1,1.1-4.2,1.6-6.3"/>
	<path d="M123.3,378.2c0,0-0.5,17.9-1.7,38.1c-5.5,7.9-10.6,14.9-14.9,20.6c3-16.7,5.8-37.1,6.4-56.8c0,0-11.1-107.4-7.2-153.7
		c0,0,4.4-73.5,10.4-94.8C116.2,131.5,101.8,241.5,123.3,378.2z"/>
	<path d="M438,289.9c-18.6,15.6-89.4,53.6-89.4,53.6c-44.3,25-155.9,63.2-155.9,63.2c-29.7,14.7-58.9,35.8-74.1,47.4
		c-0.8,0.6-1.5,1.1-2.2,1.7c-5.5,4.2-8.7,6.9-8.7,6.9c-2.3-0.6-4.2-1.2-5.8-1.9c-14.1-6-0.3-14.8-0.3-14.8c1-1,2.3-2.1,4-3.3
		c3.7-2.7,8.9-6,14.9-9.6c4.7-2.8,9.9-5.8,15.3-8.8c25.1-13.9,54.1-28.4,54.1-28.4C333.2,355.3,434.8,291.9,438,289.9z"/>
	<path d="M290.1,79.9c-1.1,1.8-73.7,117-120.2,279.9c0,0-17.7,35.5-34.1,64.5c-5.4,3-10.6,6-15.3,8.8c-6,3.6-11.2,6.9-14.9,9.6
		c-1.7,1.2-3,2.3-4,3.3c0,0-13.8,8.8,0.3,14.8c1.6,0.7,3.5,1.3,5.8,1.9c0,0,3.2-2.6,8.7-6.9c-1.2,1.5-2.2,2.8-3.1,3.7
		c0,0-6.4,10.1-12.4,5.9c-2.3-1.6-4.6-5.4-6.5-12.8c0,0,4.9-6,12.3-15.8c4.3-5.7,9.4-12.7,14.9-20.6c11.8-17,25.4-38.2,36.1-59.5
		c0,0,43.3-126.1,71.7-175.9C229.3,180.8,272.5,100.8,290.1,79.9z"/>
</g>
<g style="opacity:0;">
	<circle cx="318.5" cy="32.5" r="3.5"/>
	<circle cx="288.5" cy="32.5" r="3.5"/>
	<circle cx="260.5" cy="41.5" r="3.5"/>
	<circle cx="243.5" cy="55.5" r="3.5"/>
	<circle cx="214.5" cy="70.5" r="3.5"/>
	<circle cx="190.5" cy="87.5" r="3.5"/>
	<circle cx="167.5" cy="112.5" r="3.5"/>
	<circle cx="147.5" cy="97.5" r="3.5"/>
	<circle cx="118.5" cy="87.5" r="3.5"/>
	<circle cx="90.5" cy="102.5" r="3.5"/>
	<circle cx="73.5" cy="127.5" r="3.5"/>
	<circle cx="55.5" cy="151.5" r="3.5"/>
	<circle cx="42.5" cy="179.5" r="3.5"/>
	<circle cx="34.5" cy="211.5" r="3.5"/>
	<circle cx="34.5" cy="249.5" r="3.5"/>
	<circle cx="43.5" cy="286.5" r="3.5"/>
	<circle cx="53.5" cy="316.5" r="3.5"/>
	<circle cx="67.5" cy="351.5" r="3.5"/>
	<circle cx="86.5" cy="381.5" r="3.5"/>
	<circle cx="102.5" cy="397.5" r="3.5"/>
	<circle cx="129.5" cy="394.5" r="3.5"/>
	<circle cx="159.5" cy="390.5" r="3.5"/>
	<circle cx="181.5" cy="421.5" r="3.5"/>
	<circle cx="200.5" cy="432.5" r="3.5"/>
	<circle cx="225.5" cy="438.5" r="3.5"/>
	<circle cx="258.5" cy="438.5" r="3.5"/>
	<circle cx="290.5" cy="434.5" r="3.5"/>
	<circle cx="324.5" cy="431.5" r="3.5"/>
	<circle cx="356.5" cy="423.5" r="3.5"/>
	<circle cx="392.5" cy="407.5" r="3.5"/>
	<circle cx="417.5" cy="388.5" r="3.5"/>
	<circle cx="440.5" cy="364.5" r="3.5"/>
	<circle cx="460.5" cy="330.5" r="3.5"/>
	<circle cx="477.5" cy="302.5" r="3.5"/>
	<circle cx="481.5" cy="281.5" r="3.5"/>
	<circle cx="477.5" cy="265.5" r="3.5"/>
	<circle cx="460.5" cy="244.5" r="3.5"/>
	<circle cx="433.5" cy="231.5" r="3.5"/>
	<circle cx="408.5" cy="226.5" r="3.5"/>
	<circle cx="378.5" cy="215.5" r="3.5"/>
	<circle cx="377.5" cy="177.5" r="3.5"/>
	<circle cx="370.5" cy="144.5" r="3.5"/>
	<circle cx="360.5" cy="114.5" r="3.5"/>
	<circle cx="355.5" cy="83.5" r="3.5"/>
	<circle cx="338.5" cy="51.5" r="3.5"/>
</g>
</svg>
