<?xml version="1.0" encoding="utf-8"?>
<!-- Generator: Adobe Illustrator 22.1.0, SVG Export Plug-In . SVG Version: 6.00 Build 0)  -->
<svg version="1.1" id="Layer_2" xmlns="http://www.w3.org/2000/svg" xmlns:xlink="http://www.w3.org/1999/xlink" x="0px" y="0px"
	 viewBox="0 0 512 512" style="enable-background:new 0 0 512 512;" xml:space="preserve">
<style type="text/css">
	.st0{fill:none;stroke:#000000;stroke-width:5;stroke-linecap:round;stroke-linejoin:round;stroke-miterlimit:10;}
	.st1{opacity:0;}
</style>
<g>
	<path class="st0" d="M394.6,341.8c0,21.2-57.9,38.1-129,38.1S137,363,137,341.8c0-21.2,57.9-38.1,128.6-38.1
		C336.8,303.5,394.6,320.5,394.6,341.8z"/>
	<g>
		<path class="st0" d="M298.1,274.7c0.4-0.8,41.9-83.7,48.2-127.6"/>
	</g>
	<g>
		<path class="st0" d="M320.9,271.7c23.6-6.9,44.3-34.3,44.7-34.3"/>
	</g>
	<g>
		<path class="st0" d="M178.2,111c0,1.2,9.7,110.3,66.3,164.5"/>
	</g>
</g>
<g class="st1">
	<circle cx="310.1" cy="32.9" r="3.5"/>
	<circle cx="339.6" cy="58.1" r="3.5"/>
	<circle cx="365.1" cy="85.6" r="3.5"/>
	<circle cx="389.7" cy="118.1" r="3.5"/>
	<circle cx="412.8" cy="154.5" r="3.5"/>
	<circle cx="433.6" cy="193.4" r="3.5"/>
	<circle cx="451.5" cy="233.6" r="3.5"/>
	<circle cx="465.7" cy="273.8" r="3.5"/>
	<circle cx="475.5" cy="312.9" r="3.5"/>
	<circle cx="480.2" cy="349.5" r="3.5"/>
	<circle cx="477.8" cy="381.7" r="3.5"/>
	<circle cx="464.6" cy="410.8" r="3.5"/>
	<circle cx="441.5" cy="436.7" r="3.5"/>
	<circle cx="409.8" cy="458.7" r="3.5"/>
	<circle cx="371" cy="476" r="3.5"/>
	<circle cx="326.3" cy="487.6" r="3.5"/>
	<circle cx="277.2" cy="492.8" r="3.5"/>
	<circle cx="232.8" cy="491.5" r="3.5"/>
	<circle cx="192.9" cy="485.2" r="3.5"/>
	<circle cx="156.3" cy="474.6" r="3.5"/>
	<circle cx="114.4" cy="463.5" r="3.5"/>
	<circle cx="78.8" cy="440.4" r="3.5"/>
	<circle cx="56.8" cy="409.7" r="3.5"/>
	<circle cx="50.5" cy="374.4" r="3.5"/>
	<circle cx="52.4" cy="333.3" r="3.5"/>
	<circle cx="59.6" cy="292.1" r="3.5"/>
	<circle cx="71.9" cy="249.4" r="3.5"/>
	<circle cx="88.7" cy="206.6" r="3.5"/>
	<circle cx="109.2" cy="165" r="3.5"/>
	<circle cx="132.5" cy="126" r="3.5"/>
	<circle cx="158" cy="91" r="3.5"/>
	<circle cx="184.7" cy="61.3" r="3.5"/>
	<circle cx="212.1" cy="38.5" r="3.5"/>
	<circle cx="239.3" cy="23.7" r="3.5"/>
	<circle cx="277.4" cy="18.5" r="3.5"/>
</g>
</svg>
