<?xml version="1.0" encoding="utf-8"?>
<!-- Generator: Adobe Illustrator 22.1.0, SVG Export Plug-In . SVG Version: 6.00 Build 0)  -->
<svg version="1.1" id="Layer_2" xmlns="http://www.w3.org/2000/svg" xmlns:xlink="http://www.w3.org/1999/xlink" x="0px" y="0px"
	 viewBox="0 0 512 512" style="enable-background:new 0 0 512 512;" xml:space="preserve">
<style type="text/css">
	.st0{fill:none;stroke:#000000;stroke-width:5;stroke-linecap:round;stroke-linejoin:round;stroke-miterlimit:10;}
	.st1{opacity:0;}
</style>
<g>
	<rect x="28.5" y="270.5" class="st0" width="451" height="52"/>
	<line class="st0" x1="83" y1="442.9" x2="83" y2="322.5"/>
	<line class="st0" x1="423" y1="442.9" x2="423" y2="322.5"/>
	<line class="st0" x1="455.3" y1="78.8" x2="455.3" y2="270.5"/>
	<line class="st0" x1="54.7" y1="75.5" x2="54.7" y2="270.5"/>
	<line class="st0" x1="83.5" y1="171.5" x2="432.5" y2="171.5"/>
</g>
<g class="st1">
	<circle cx="79" cy="92" r="3.5"/>
	<circle cx="118.7" cy="92" r="3.5"/>
	<circle cx="158.3" cy="92" r="3.5"/>
	<circle cx="198" cy="92" r="3.5"/>
	<circle cx="237.6" cy="92" r="3.5"/>
	<circle cx="277.3" cy="92" r="3.5"/>
	<circle cx="316.9" cy="92" r="3.5"/>
	<circle cx="356.6" cy="92" r="3.5"/>
	<circle cx="396.2" cy="92" r="3.5"/>
	<circle cx="435.9" cy="92" r="3.5"/>
	<circle cx="476" cy="92" r="3.5"/>
	<circle cx="476" cy="128.3" r="3.5"/>
	<circle cx="476" cy="164.5" r="3.5"/>
	<circle cx="476" cy="200.8" r="3.5"/>
	<circle cx="476" cy="237" r="3.5"/>
	<circle cx="439.2" cy="237" r="3.5"/>
	<circle cx="399.5" cy="237" r="3.5"/>
	<circle cx="359.9" cy="237" r="3.5"/>
	<circle cx="320.2" cy="237" r="3.5"/>
	<circle cx="280.6" cy="237" r="3.5"/>
	<circle cx="240.9" cy="237" r="3.5"/>
	<circle cx="201.2" cy="237" r="3.5"/>
	<circle cx="161.6" cy="237" r="3.5"/>
	<circle cx="121.9" cy="237" r="3.5"/>
	<circle cx="82.3" cy="237" r="3.5"/>
	<circle cx="31.7" cy="237" r="3.5"/>
	<circle cx="31.7" cy="200.8" r="3.5"/>
	<circle cx="31.7" cy="164.5" r="3.5"/>
	<circle cx="31.7" cy="128.3" r="3.5"/>
	<circle cx="31.7" cy="92" r="3.5"/>
</g>
</svg>
