<?xml version="1.0" encoding="utf-8"?>
<!-- Generator: Adobe Illustrator 22.1.0, SVG Export Plug-In . SVG Version: 6.00 Build 0)  -->
<svg version="1.1" id="Layer_2" xmlns="http://www.w3.org/2000/svg" xmlns:xlink="http://www.w3.org/1999/xlink" x="0px" y="0px"
	 viewBox="0 0 512 512" style="enable-background:new 0 0 512 512;" xml:space="preserve">
<style type="text/css">
	.st0{fill:none;stroke:#000000;stroke-width:5;stroke-linecap:round;stroke-linejoin:round;stroke-miterlimit:10;}
	.st1{opacity:0;}
</style>
<g>
	<line class="st0" x1="41" y1="292.1" x2="465" y2="292.1"/>
	<line class="st0" x1="41" y1="172.2" x2="464.5" y2="172.2"/>
	<circle class="st0" cx="272" cy="319" r="9.5"/>
</g>
<g class="st1">
	<circle cx="56" cy="56" r="3.5"/>
	<circle cx="95.6" cy="56" r="3.5"/>
	<circle cx="135.1" cy="56" r="3.5"/>
	<circle cx="174.7" cy="56" r="3.5"/>
	<circle cx="214.3" cy="56" r="3.5"/>
	<circle cx="253.8" cy="56" r="3.5"/>
	<circle cx="293.4" cy="56" r="3.5"/>
	<circle cx="332.9" cy="56" r="3.5"/>
	<circle cx="372.5" cy="56" r="3.5"/>
	<circle cx="412" cy="56" r="3.5"/>
	<circle cx="451.6" cy="56" r="3.5"/>
	<circle cx="489" cy="58.1" r="3.5"/>
	<circle cx="489" cy="97.7" r="3.5"/>
	<circle cx="489" cy="137.3" r="3.5"/>
	<circle cx="489" cy="176.8" r="3.5"/>
	<circle cx="489" cy="216.4" r="3.5"/>
	<circle cx="489" cy="255.9" r="3.5"/>
	<circle cx="489" cy="295.5" r="3.5"/>
	<circle cx="489" cy="335" r="3.5"/>
	<circle cx="489" cy="374.6" r="3.5"/>
	<circle cx="489" cy="418.5" r="3.5"/>
	<circle cx="461.7" cy="418.5" r="3.5"/>
	<circle cx="461.7" cy="448.1" r="3.5"/>
	<circle cx="425.2" cy="448.1" r="3.5"/>
	<circle cx="425.2" cy="418.5" r="3.5"/>
	<circle cx="376.6" cy="418.5" r="3.5"/>
	<circle cx="328" cy="418.5" r="3.5"/>
	<circle cx="279.4" cy="418.5" r="3.5"/>
	<circle cx="230.8" cy="418.5" r="3.5"/>
	<circle cx="182.2" cy="418.5" r="3.5"/>
	<circle cx="133.6" cy="418.5" r="3.5"/>
	<circle cx="85" cy="418.5" r="3.5"/>
	<circle cx="85" cy="448.1" r="3.5"/>
	<circle cx="42.1" cy="448.1" r="3.5"/>
	<circle cx="42" cy="418.5" r="3.5"/>
	<circle cx="22" cy="418.5" r="3.5"/>
	<circle cx="22" cy="372.4" r="3.5"/>
	<circle cx="22" cy="332.9" r="3.5"/>
	<circle cx="22" cy="293.3" r="3.5"/>
	<circle cx="22" cy="253.8" r="3.5"/>
	<circle cx="22" cy="214.2" r="3.5"/>
	<circle cx="22" cy="174.7" r="3.5"/>
	<circle cx="22" cy="135.1" r="3.5"/>
	<circle cx="22" cy="95.6" r="3.5"/>
	<circle cx="22" cy="56" r="3.5"/>
</g>
</svg>
