<?xml version="1.0" encoding="utf-8"?>
<!-- Generator: Adobe Illustrator 22.1.0, SVG Export Plug-In . SVG Version: 6.00 Build 0)  -->
<svg version="1.1" id="Layer_1" xmlns="http://www.w3.org/2000/svg" xmlns:xlink="http://www.w3.org/1999/xlink" x="0px" y="0px"
	 viewBox="0 0 512 512" style="enable-background:new 0 0 512 512;" xml:space="preserve">
<g>
	<circle cx="267.5" cy="242.5" r="3.5"/>
	<circle cx="240.5" cy="228.5" r="3.5"/>
	<circle cx="210.5" cy="222.5" r="3.5"/>
	<circle cx="190.5" cy="223.5" r="3.5"/>
	<circle cx="174.5" cy="231.5" r="3.5"/>
	<circle cx="155.5" cy="251.5" r="3.5"/>
	<circle cx="141.5" cy="273.5" r="3.5"/>
	<circle cx="131.5" cy="298.5" r="3.5"/>
	<circle cx="131.5" cy="323.5" r="3.5"/>
	<circle cx="137.5" cy="353.5" r="3.5"/>
	<circle cx="154.5" cy="381.5" r="3.5"/>
	<circle cx="166.5" cy="394.5" r="3.5"/>
	<circle cx="173.5" cy="408.5" r="3.5"/>
	<circle cx="163.5" cy="418.5" r="3.5"/>
	<circle cx="146.5" cy="423.5" r="3.5"/>
	<circle cx="129.5" cy="430.5" r="3.5"/>
	<circle cx="113.5" cy="444.5" r="3.5"/>
	<circle cx="105.5" cy="460.5" r="3.5"/>
	<circle cx="97.5" cy="474.5" r="3.5"/>
	<circle cx="84.5" cy="483.5" r="3.5"/>
	<circle cx="69.5" cy="487.5" r="3.5"/>
	<circle cx="80.5" cy="493.5" r="3.5"/>
	<circle cx="97.5" cy="486.5" r="3.5"/>
	<circle cx="109.5" cy="473.5" r="3.5"/>
	<circle cx="118.5" cy="456.5" r="3.5"/>
	<circle cx="129.5" cy="444.5" r="3.5"/>
	<circle cx="148.5" cy="438.5" r="3.5"/>
	<circle cx="170.5" cy="431.5" r="3.5"/>
	<circle cx="186.5" cy="419.5" r="3.5"/>
	<circle cx="194.5" cy="406.5" r="3.5"/>
	<circle cx="206.5" cy="405.5" r="3.5"/>
	<circle cx="219.5" cy="412.5" r="3.5"/>
	<circle cx="233.5" cy="418.5" r="3.5"/>
	<circle cx="247.5" cy="417.5" r="3.5"/>
	<circle cx="272.5" cy="409.5" r="3.5"/>
	<circle cx="298.5" cy="393.5" r="3.5"/>
	<circle cx="316.5" cy="375.5" r="3.5"/>
	<circle cx="328.5" cy="358.5" r="3.5"/>
	<circle cx="335.5" cy="337.5" r="3.5"/>
	<circle cx="339.5" cy="317.5" r="3.5"/>
	<circle cx="336.5" cy="297.5" r="3.5"/>
	<circle cx="328.5" cy="280.5" r="3.5"/>
	<circle cx="316.5" cy="263.5" r="3.5"/>
	<circle cx="293.5" cy="252.5" r="3.5"/>
</g>
</svg>
