<?xml version="1.0" encoding="utf-8"?>
<!-- Generator: Adobe Illustrator 22.1.0, SVG Export Plug-In . SVG Version: 6.00 Build 0)  -->
<svg version="1.1" id="Layer_1" xmlns="http://www.w3.org/2000/svg" xmlns:xlink="http://www.w3.org/1999/xlink" x="0px" y="0px"
	 viewBox="0 0 512 512" style="enable-background:new 0 0 512 512;" xml:space="preserve">
<style type="text/css">
	.st0{fill:none;stroke:#000000;stroke-width:5;stroke-miterlimit:10;}
	.st1{opacity:0;}
</style>
<g>
	<path class="st0" d="M450.7,117.3c-16.5-25.9,2.5-22.5-14.8-40.5c-17.5-18-72.6,6.7-55.1,33.4s-32.4,17.1-22.3,40.9
		c10.2,23.8-15.2,15.4-10,33c5.2,17.9-11.3,30.9-39,34.7c-24.6,3.5-36.3,20.2-38.6,24c1.5,0.6,3.1,1,4.6,1.5
		c24.6-25.3,61.8-26.7,68.5-22.1c12.3,8.6,24.8-6.7,24.8-6.7c5.2-7.7,17.9-15,39-18c21.1-2.9,12.1-28.4,15.5-38.6
		C426.9,149,467.2,143.2,450.7,117.3z"/>
	<path class="st0" d="M241.9,73.2c31.5,5.2-9.4,35.5,15,44s1,21.5,17.7,29.8c16.5,8.3,15,29.2-0.8,52.2
		c-11.3,16.5-10.8,32.8-9.4,40.7c1.7,1.2,2.7,1.7,2.7,1.7c0.8,0.2,1.5,0.6,2.5,0.8c-2.5-35.5,22.1-64.5,30.1-66.2
		c14.6-3.3,11.9-22.8,11.9-22.8c-2.1-9,1-23.2,13.2-40.9c12.1-17.7-12.7-28.2-17.9-37.4c-5.2-9.4,17.9-43-12.5-48.4
		c-30.3-5.4-14.8-17.1-39.9-16.5C229.4,10.6,210.2,68,241.9,73.2z"/>
</g>
<g class="st1">
	<circle cx="267.5" cy="242.5" r="3.5"/>
	<circle cx="240.5" cy="228.5" r="3.5"/>
	<circle cx="210.5" cy="222.5" r="3.5"/>
	<circle cx="190.5" cy="223.5" r="3.5"/>
	<circle cx="174.5" cy="231.5" r="3.5"/>
	<circle cx="155.5" cy="251.5" r="3.5"/>
	<circle cx="141.5" cy="273.5" r="3.5"/>
	<circle cx="131.5" cy="298.5" r="3.5"/>
	<circle cx="131.5" cy="323.5" r="3.5"/>
	<circle cx="137.5" cy="353.5" r="3.5"/>
	<circle cx="154.5" cy="381.5" r="3.5"/>
	<circle cx="166.5" cy="394.5" r="3.5"/>
	<circle cx="173.5" cy="408.5" r="3.5"/>
	<circle cx="163.5" cy="418.5" r="3.5"/>
	<circle cx="146.5" cy="423.5" r="3.5"/>
	<circle cx="129.5" cy="430.5" r="3.5"/>
	<circle cx="113.5" cy="444.5" r="3.5"/>
	<circle cx="105.5" cy="460.5" r="3.5"/>
	<circle cx="97.5" cy="474.5" r="3.5"/>
	<circle cx="84.5" cy="483.5" r="3.5"/>
	<circle cx="69.5" cy="487.5" r="3.5"/>
	<circle cx="80.5" cy="493.5" r="3.5"/>
	<circle cx="97.5" cy="486.5" r="3.5"/>
	<circle cx="109.5" cy="473.5" r="3.5"/>
	<circle cx="118.5" cy="456.5" r="3.5"/>
	<circle cx="129.5" cy="444.5" r="3.5"/>
	<circle cx="148.5" cy="438.5" r="3.5"/>
	<circle cx="170.5" cy="431.5" r="3.5"/>
	<circle cx="186.5" cy="419.5" r="3.5"/>
	<circle cx="194.5" cy="406.5" r="3.5"/>
	<circle cx="206.5" cy="405.5" r="3.5"/>
	<circle cx="219.5" cy="412.5" r="3.5"/>
	<circle cx="233.5" cy="418.5" r="3.5"/>
	<circle cx="247.5" cy="417.5" r="3.5"/>
	<circle cx="272.5" cy="409.5" r="3.5"/>
	<circle cx="298.5" cy="393.5" r="3.5"/>
	<circle cx="316.5" cy="375.5" r="3.5"/>
	<circle cx="328.5" cy="358.5" r="3.5"/>
	<circle cx="335.5" cy="337.5" r="3.5"/>
	<circle cx="339.5" cy="317.5" r="3.5"/>
	<circle cx="336.5" cy="297.5" r="3.5"/>
	<circle cx="328.5" cy="280.5" r="3.5"/>
	<circle cx="316.5" cy="263.5" r="3.5"/>
	<circle cx="293.5" cy="252.5" r="3.5"/>
</g>
</svg>
