<?xml version="1.0" encoding="utf-8"?>
<!-- Generator: Adobe Illustrator 22.1.0, SVG Export Plug-In . SVG Version: 6.00 Build 0)  -->
<svg version="1.1" id="Layer_1" xmlns="http://www.w3.org/2000/svg" xmlns:xlink="http://www.w3.org/1999/xlink" x="0px" y="0px"
	 viewBox="0 0 512 512" style="enable-background:new 0 0 512 512;" xml:space="preserve">
<g>
	<path style="fill:none;stroke:#000000;stroke-width:5;stroke-linecap:round;stroke-linejoin:round;" d="M250.6,460
		c-13.9-15.9-30.7-29.3-49.3-39.3c-6.5-3.5-13.3-6.6-19.4-10.8c-8.5-5.9-15.5-13.7-21.7-22c-15-20-25.7-43.2-31.2-67.5
		c-5.9-26-6-53.3-14.4-78.7"/>
	<path style="fill:none;stroke:#000000;stroke-width:5;stroke-linecap:round;stroke-linejoin:round;" d="M125.5,298.5
		c39.1,4.8,84.2-0.9,120.8-15.6"/>
	<path style="fill:none;stroke:#000000;stroke-width:5;stroke-linecap:round;stroke-linejoin:round;" d="M127.5,314.5
		c-3,0.3-11.7-3.1-14.3-4.8c-17.1-11-34.2-21.9-51.2-32.9c-6-3.9-12.1-7.8-17.1-13c-7.2-7.4-11.8-17.3-12.8-27.6"/>
	<path style="fill:none;stroke:#000000;stroke-width:5;stroke-linecap:round;stroke-linejoin:round;" d="M158.5,387.5
		c-10.1-1.4-21.8-2.9-31.9-4.4c-8.2-1.2-16.6-2.4-24-6.2c-14.2-7.4-22-22.9-28.1-37.7"/>
	<path style="fill:none;stroke:#000000;stroke-width:5;stroke-linecap:round;stroke-linejoin:round;" d="M163.5,392.5
		c18.7-14.1,48.1-16.9,71.1-20.5c18-2.8,35.5-8.1,52.8-13.6c14-4.4,28.1-9.1,40.9-16.4c12.8-7.2,24.4-17.3,31.3-30.3
		c1.3-2.4,2.4-5.4,1-7.8"/>
	<path style="fill:none;stroke:#000000;stroke-width:5;stroke-linecap:round;stroke-linejoin:round;" d="M139.5,424.9
		c15.9-5.1,33.2-0.5,48.8,5.2c15.7,5.7,26.4,11.8,43.1,11.4"/>
	<path style="fill:none;stroke:#000000;stroke-width:5;stroke-linecap:round;stroke-linejoin:round;" d="M231.5,441.5
		c11,0.6,21.8-0.7,31.8-5.2c38.6-17.2,75.3-39.6,106-68.7c8.9-8.4,17.8-18.4,18.4-30.6"/>
	<path style="fill:none;stroke:#000000;stroke-width:5;stroke-linecap:round;stroke-linejoin:round;" d="M463.2,308.8
		c-6.5-12.7-13.1-25.4-19.6-38.1c-4.4-8.5-9.8-17.8-19-20.2c-4.6-1.1-10.5-1-12.4-5.3c-0.7-1.6-0.6-3.5-0.9-5.3
		c-0.9-4.7-5.3-8-9.8-9.5c-4.5-1.6-9.3-1.8-14-3c-11.7-2.9-21.4-11.3-33-14.3c-7.4-1.9-15.1-1.5-22.7-1.8
		c-16.8-0.7-33.4-4.7-48.5-11.9c-19.7-9.3-38.4-24-60.1-23.3c-3.7,0.1-7.6,0.7-11.1-0.6c-4.3-1.6-7.2-5.5-10.7-8.6
		c-7-6.3-16.4-8.9-25.4-11.4c-14.4-4-28.9-7.9-43.7-9.6c-12-1.3-24.1-1.2-35.9-3.3s-21-6.9-28.8-16.1"/>
	<path style="fill:none;stroke:#000000;stroke-width:5;stroke-linecap:round;stroke-linejoin:round;" d="M331.5,211.5
		c5.5-11.8,14.8-21.2,26-27.8c9-5.3,19.3-8.5,27.2-15.3c4.4-3.8,7.9-8.5,11.6-13.1c8.7-10.7,18.6-20.5,25.9-32.2s7.9-20.4,4.2-33.6"
		/>
	<path style="fill:none;stroke:#000000;stroke-width:5;stroke-linecap:round;stroke-linejoin:round;" d="M438.5,261.5
		c3.9-7.6,10-18.1,10.7-26.6c0.7-7.9-1.4-15.8-3.4-23.5c-1.5-5.5-2.9-10.9-5.2-16.1c-4.4-10.4-11.8-19.6-21.1-26.2"/>
	<path style="fill:none;stroke:#000000;stroke-width:5;stroke-linecap:round;stroke-linejoin:round;" d="M384.9,200.5
		c17.3,9.6,38.6,7.9,57.9,3.9"/>
	<path style="fill:none;stroke:#000000;stroke-width:5;stroke-linecap:round;stroke-linejoin:round;" d="M435.3,184.6
		c2.4-10.5,11.3-19,11.7-29.7c0.3-8.1-4.3-15.4-8.8-22.1"/>
	<path style="fill:none;stroke:#000000;stroke-width:5;stroke-linecap:round;stroke-linejoin:round;" d="M449.5,229.5
		c2-8.3,9.3-15.6,12.6-23.5c3.3-7.9,5.8-16.7,3.8-25"/>
	<path style="fill:none;stroke:#000000;stroke-width:5;stroke-linecap:round;stroke-linejoin:round;" d="M388.7,119.5
		c-8.6-16.1-19.4-31-32-44.2"/>
	<path style="fill:none;stroke:#000000;stroke-width:5;stroke-linecap:round;stroke-linejoin:round;" d="M372.5,95.5
		c-12,3.4-21.1-7.4-32.9-4.8"/>
	<path style="fill:none;stroke:#000000;stroke-width:5;stroke-linecap:round;stroke-linejoin:round;" d="M371.5,92.5
		c0.9-10.4,5.7-22.9,9.3-32.6"/>
	<path style="fill:none;stroke:#000000;stroke-width:5;stroke-linecap:round;stroke-linejoin:round;" d="M367,51.8
		c11,1.1,21.5,6.4,29.1,14.5c7.5,8.1,12,19,12.4,30"/>
	<path style="fill:none;stroke:#000000;stroke-width:5;stroke-linecap:round;stroke-linejoin:round;" d="M247.7,123.1
		c16-1.7,33-3.8,45.6-13.8c7.6-6,13-14.4,20-21.1c6.6-6.2,14.6-11,19.8-18.4c7.7-10.9,13.7-26.1,23.3-35.3"/>
	<path style="fill:none;stroke:#000000;stroke-width:5;stroke-linecap:round;stroke-linejoin:round;" d="M318.3,82.3
		c-26.2,0.1-52.5,0.1-78.7,0.2c-13.4,0-27.4-0.1-39.3-6.1c-8.6-4.4-15.6-11.7-19.5-20.5c-1.3-2.8-2.2-6.1-1.1-9
		c1-2.6,3.5-4.3,5.9-5.7c25.9-15.3,57.6-16.6,87.7-15.3c7.2,0.3,14.8,0.9,20.7,5s8.8,13.3,4.1,18.8c-1.6,1.8-3.8,3-6.1,4.1
		c-10.9,5-22.9,7.5-34.8,7.3c-5.9-0.1-12.2-1-16.8-4.7c-4.7-3.7-7-10.8-3.7-15.7c3.1-4.6,9.5-5.5,15-5.4c4,0.1,8.4,0.8,11.2,3.7
		c2.8,2.9,2.5,8.7-1.2,10.1"/>
	<path style="fill:none;stroke:#000000;stroke-width:5;stroke-linecap:round;stroke-linejoin:round;" d="M328.3,56.9
		c1.3-0.9,0.7-3-0.2-4.4c-4.6-7.1-11.6-12.4-19.2-16.2c-7.6-3.8-14.3-6.4-22.4-8.8"/>
</g>
<g style="opacity:0;">
	<circle cx="244.5" cy="16.5" r="3.5"/>
	<circle cx="208.5" cy="20.5" r="3.5"/>
	<circle cx="173.5" cy="31.5" r="3.5"/>
	<circle cx="131.5" cy="51.5" r="3.5"/>
	<circle cx="94.5" cy="78.5" r="3.5"/>
	<circle cx="68.5" cy="108.5" r="3.5"/>
	<circle cx="47.5" cy="142.5" r="3.5"/>
	<circle cx="31.5" cy="181.5" r="3.5"/>
	<circle cx="23.5" cy="215.5" r="3.5"/>
	<circle cx="22.5" cy="256.5" r="3.5"/>
	<circle cx="25.5" cy="292.5" r="3.5"/>
	<circle cx="35.5" cy="327.5" r="3.5"/>
	<circle cx="51.5" cy="362.5" r="3.5"/>
	<circle cx="68.5" cy="389.5" r="3.5"/>
	<circle cx="88.5" cy="412.5" r="3.5"/>
	<circle cx="112.5" cy="434.5" r="3.5"/>
	<circle cx="139.5" cy="452.5" r="3.5"/>
	<circle cx="171.5" cy="467.5" r="3.5"/>
	<circle cx="203.5" cy="476.5" r="3.5"/>
	<circle cx="238.5" cy="481.5" r="3.5"/>
	<circle cx="272.5" cy="481.5" r="3.5"/>
	<circle cx="301.5" cy="477.5" r="3.5"/>
	<circle cx="330.5" cy="469.5" r="3.5"/>
	<circle cx="361.5" cy="454.5" r="3.5"/>
	<circle cx="389.5" cy="437.5" r="3.5"/>
	<circle cx="415.5" cy="415.5" r="3.5"/>
	<circle cx="438.5" cy="389.5" r="3.5"/>
	<circle cx="457.5" cy="360.5" r="3.5"/>
	<circle cx="471.5" cy="330.5" r="3.5"/>
	<circle cx="480.5" cy="300.5" r="3.5"/>
	<circle cx="482.5" cy="284.5" r="3.5"/>
	<circle cx="486.5" cy="269.5" r="3.5"/>
	<circle cx="486.5" cy="240.5" r="3.5"/>
	<circle cx="485.5" cy="223.5" r="3.5"/>
	<circle cx="481.5" cy="200.5" r="3.5"/>
	<circle cx="475.5" cy="175.5" r="3.5"/>
	<circle cx="470.5" cy="151.5" r="3.5"/>
	<circle cx="459.5" cy="132.5" r="3.5"/>
	<circle cx="449.5" cy="111.5" r="3.5"/>
	<circle cx="438.5" cy="97.5" r="3.5"/>
	<circle cx="427.5" cy="84.5" r="3.5"/>
	<circle cx="413.5" cy="70.5" r="3.5"/>
	<circle cx="396.5" cy="56.5" r="3.5"/>
	<circle cx="371.5" cy="42.5" r="3.5"/>
	<circle cx="357.5" cy="34.5" r="3.5"/>
	<circle cx="357.5" cy="23.5" r="3.5"/>
	<circle cx="343.5" cy="18.5" r="3.5"/>
	<circle cx="325.5" cy="20.5" r="3.5"/>
	<circle cx="314.5" cy="22.5" r="3.5"/>
	<circle cx="295.5" cy="17.5" r="3.5"/>
	<circle cx="272.5" cy="14.5" r="3.5"/>
</g>
</svg>
