<?xml version="1.0" encoding="utf-8"?>
<!-- Generator: Adobe Illustrator 22.1.0, SVG Export Plug-In . SVG Version: 6.00 Build 0)  -->
<svg version="1.1" id="Layer_1" xmlns="http://www.w3.org/2000/svg" xmlns:xlink="http://www.w3.org/1999/xlink" x="0px" y="0px"
	 viewBox="0 0 512 512" style="enable-background:new 0 0 512 512;" xml:space="preserve">
<g>
	<circle cx="244.5" cy="16.5" r="3.5"/>
	<circle cx="208.5" cy="20.5" r="3.5"/>
	<circle cx="173.5" cy="31.5" r="3.5"/>
	<circle cx="131.5" cy="51.5" r="3.5"/>
	<circle cx="94.5" cy="78.5" r="3.5"/>
	<circle cx="68.5" cy="108.5" r="3.5"/>
	<circle cx="47.5" cy="142.5" r="3.5"/>
	<circle cx="31.5" cy="181.5" r="3.5"/>
	<circle cx="23.5" cy="215.5" r="3.5"/>
	<circle cx="22.5" cy="256.5" r="3.5"/>
	<circle cx="25.5" cy="292.5" r="3.5"/>
	<circle cx="35.5" cy="327.5" r="3.5"/>
	<circle cx="51.5" cy="362.5" r="3.5"/>
	<circle cx="68.5" cy="389.5" r="3.5"/>
	<circle cx="88.5" cy="412.5" r="3.5"/>
	<circle cx="112.5" cy="434.5" r="3.5"/>
	<circle cx="139.5" cy="452.5" r="3.5"/>
	<circle cx="171.5" cy="467.5" r="3.5"/>
	<circle cx="203.5" cy="476.5" r="3.5"/>
	<circle cx="238.5" cy="481.5" r="3.5"/>
	<circle cx="272.5" cy="481.5" r="3.5"/>
	<circle cx="301.5" cy="477.5" r="3.5"/>
	<circle cx="330.5" cy="469.5" r="3.5"/>
	<circle cx="361.5" cy="454.5" r="3.5"/>
	<circle cx="389.5" cy="437.5" r="3.5"/>
	<circle cx="415.5" cy="415.5" r="3.5"/>
	<circle cx="438.5" cy="389.5" r="3.5"/>
	<circle cx="457.5" cy="360.5" r="3.5"/>
	<circle cx="471.5" cy="330.5" r="3.5"/>
	<circle cx="480.5" cy="300.5" r="3.5"/>
	<circle cx="482.5" cy="284.5" r="3.5"/>
	<circle cx="486.5" cy="269.5" r="3.5"/>
	<circle cx="486.5" cy="240.5" r="3.5"/>
	<circle cx="485.5" cy="223.5" r="3.5"/>
	<circle cx="481.5" cy="200.5" r="3.5"/>
	<circle cx="475.5" cy="175.5" r="3.5"/>
	<circle cx="470.5" cy="151.5" r="3.5"/>
	<circle cx="459.5" cy="132.5" r="3.5"/>
	<circle cx="449.5" cy="111.5" r="3.5"/>
	<circle cx="438.5" cy="97.5" r="3.5"/>
	<circle cx="427.5" cy="84.5" r="3.5"/>
	<circle cx="413.5" cy="70.5" r="3.5"/>
	<circle cx="396.5" cy="56.5" r="3.5"/>
	<circle cx="371.5" cy="42.5" r="3.5"/>
	<circle cx="357.5" cy="34.5" r="3.5"/>
	<circle cx="357.5" cy="23.5" r="3.5"/>
	<circle cx="343.5" cy="18.5" r="3.5"/>
	<circle cx="325.5" cy="20.5" r="3.5"/>
	<circle cx="314.5" cy="22.5" r="3.5"/>
	<circle cx="295.5" cy="17.5" r="3.5"/>
	<circle cx="272.5" cy="14.5" r="3.5"/>
</g>
</svg>
