<?xml version="1.0" encoding="utf-8"?>
<!-- Generator: Adobe Illustrator 22.1.0, SVG Export Plug-In . SVG Version: 6.00 Build 0)  -->
<svg version="1.1" id="Layer_1" xmlns="http://www.w3.org/2000/svg" xmlns:xlink="http://www.w3.org/1999/xlink" x="0px" y="0px"
	 viewBox="0 0 512 512" style="enable-background:new 0 0 512 512;" xml:space="preserve">
<g>
	<path style="fill:none;stroke:#000000;stroke-width:5;stroke-linecap:round;stroke-linejoin:round;stroke-miterlimit:10;" d="
		M97,127c0,0,57-2,92,23c0,0,10-34,53-33l-3-9"/>
	<path style="fill:none;stroke:#000000;stroke-width:5;stroke-linecap:round;stroke-linejoin:round;stroke-miterlimit:10;" d="
		M262.5,107.5l-4,8c0,0,59,4,58,40c0,0,60-44,113-24"/>
	<path style="fill:none;stroke:#000000;stroke-width:5;stroke-linecap:round;stroke-linejoin:round;stroke-miterlimit:10;" d="
		M202.5,480.5c-66-68-80-285-13-330c45.4-16.6,87.8-15.3,127,5c74.1,118.3,47.3,224.5-19,326"/>
</g>
<g style="opacity:0;">
	<circle cx="238.5" cy="106.5" r="3.5"/>
	<circle cx="226.5" cy="110.5" r="3.5"/>
	<circle cx="212.5" cy="111.5" r="3.5"/>
	<circle cx="197.5" cy="118.5" r="3.5"/>
	<circle cx="171.5" cy="112.5" r="3.5"/>
	<circle cx="134.5" cy="109.5" r="3.5"/>
	<circle cx="112.5" cy="111.5" r="3.5"/>
	<circle cx="96.5" cy="127.5" r="3.5"/>
	<circle cx="69.5" cy="135.5" r="3.5"/>
	<circle cx="42.5" cy="153.5" r="3.5"/>
	<circle cx="25.5" cy="181.5" r="3.5"/>
	<circle cx="19.5" cy="213.5" r="3.5"/>
	<circle cx="17.5" cy="256.5" r="3.5"/>
	<circle cx="20.5" cy="293.5" r="3.5"/>
	<circle cx="24.5" cy="333.5" r="3.5"/>
	<circle cx="36.5" cy="373.5" r="3.5"/>
	<circle cx="53.5" cy="413.5" r="3.5"/>
	<circle cx="70.5" cy="441.5" r="3.5"/>
	<circle cx="96.5" cy="471.5" r="3.5"/>
	<circle cx="120.5" cy="487.5" r="3.5"/>
	<circle cx="142.5" cy="494.5" r="3.5"/>
	<circle cx="163.5" cy="494.5" r="3.5"/>
	<circle cx="185.5" cy="490.5" r="3.5"/>
	<circle cx="202.5" cy="480.5" r="3.5"/>
	<circle cx="213.5" cy="488.5" r="3.5"/>
	<circle cx="239.5" cy="493.5" r="3.5"/>
	<circle cx="261.5" cy="493.5" r="3.5"/>
	<circle cx="280.5" cy="488.5" r="3.5"/>
	<circle cx="297.5" cy="481.5" r="3.5"/>
	<circle cx="317.5" cy="491.5" r="3.5"/>
	<circle cx="340.5" cy="492.5" r="3.5"/>
	<circle cx="368.5" cy="490.5" r="3.5"/>
	<circle cx="393.5" cy="475.5" r="3.5"/>
	<circle cx="417.5" cy="454.5" r="3.5"/>
	<circle cx="435.5" cy="426.5" r="3.5"/>
	<circle cx="455.5" cy="381.5" r="3.5"/>
	<circle cx="469.5" cy="337.5" r="3.5"/>
	<circle cx="478.5" cy="301.5" r="3.5"/>
	<circle cx="488.5" cy="255.5" r="3.5"/>
	<circle cx="488.5" cy="214.5" r="3.5"/>
	<circle cx="482.5" cy="185.5" r="3.5"/>
	<circle cx="468.5" cy="160.5" r="3.5"/>
	<circle cx="449.5" cy="143.5" r="3.5"/>
	<circle cx="429.5" cy="130.5" r="3.5"/>
	<circle cx="396.5" cy="115.5" r="3.5"/>
	<circle cx="370.5" cy="111.5" r="3.5"/>
	<circle cx="338.5" cy="111.5" r="3.5"/>
	<circle cx="299.5" cy="119.5" r="3.5"/>
	<circle cx="285.5" cy="110.5" r="3.5"/>
	<circle cx="263.5" cy="107.5" r="3.5"/>
	<circle cx="281.5" cy="81.5" r="3.5"/>
	<circle cx="303.5" cy="56.5" r="3.5"/>
	<circle cx="325.5" cy="32.5" r="3.5"/>
	<circle cx="317.5" cy="11.5" r="3.5"/>
	<circle cx="294.5" cy="22.5" r="3.5"/>
	<circle cx="261.5" cy="44.5" r="3.5"/>
	<circle cx="245.5" cy="67.5" r="3.5"/>
</g>
</svg>
