<?xml version="1.0" encoding="utf-8"?>
<!-- Generator: Adobe Illustrator 22.1.0, SVG Export Plug-In . SVG Version: 6.00 Build 0)  -->
<svg version="1.1" id="Layer_1" xmlns="http://www.w3.org/2000/svg" xmlns:xlink="http://www.w3.org/1999/xlink" x="0px" y="0px"
	 viewBox="0 0 512 512" style="enable-background:new 0 0 512 512;" xml:space="preserve">
<g>
	<path style="fill:none;stroke:#000000;stroke-width:5;stroke-linecap:round;stroke-linejoin:round;stroke-miterlimit:10;" d="
		M84.3,347.5c-0.7-2.4-1.4-5-2-8.1c-4-20.1-26-42.1-22.1-48.1c0,0,6-6,26,10.1c20.1,16.1,26-8,56.2,4c0,0,10.1,6,16.1,22.1
		c6,16.1,8-14.1,18.1-10.1c10.1,4,24.1,16.1,34.2,32.2c0,0,32.2,0,36.2,20.1c4,20.1,2.3,21.9,16.5,27.9"/>
	<path style="fill:none;stroke:#000000;stroke-width:5;stroke-linecap:round;stroke-linejoin:round;stroke-miterlimit:10;" d="
		M230.9,423.9c0,0-7.1-9,14.1-18.1c24.1-10.3,24.1-6,24.1-36.2s18.1-52.3,32.2-44.1c14.1,8,28-4,24.1-12.1c-4-8-10.1-20.1,4-28
		c14.1-8,16.1-14.1,16.1-14.1s10.1-10.1,18.1,0c8,10.1,6-24.1,24.1-34.2c18.1-10.1,30.2-4,30.2-4s10.2,5.7,21.2,1.8"/>
	<g>
		<path d="M328.1,420.8c1.8-6.5,1.3-13.4-0.2-19.9c-0.7-3.3-1.8-6.5-3.1-9.6c-0.7-1.4-1.3-3.1-2.2-4.5l-2.4-4.5
			c-3.3-6.1-6-12.8-6-20.1c0-3.6,0.4-7.1,1.3-10.5s2.2-6.7,4.2-9.4l0.4,0.2c-2,6.5-2.7,13-2.2,19.5c0.2,3.3,0.7,6.5,1.6,9.6l0.5,2.4
			l0.7,2.4c0.5,1.6,1.3,3.1,2,4.5l2.2,4.7c0.7,1.6,1.3,3.3,2,4.9c1.1,3.3,2,6.7,2.5,9.9c1.1,6.9,0.9,13.9-1.3,20.4L328.1,420.8z"/>
	</g>
	<g>
		<path d="M317.2,363.1c2-1.1,4-2.2,6-3.4c2-1.3,3.8-2.5,5.6-3.8c1.8-1.4,3.3-3.1,5.1-4.3c1.8-1.3,3.4-2.7,5.4-4l0.4,0.2
			c-0.4,2.5-1.8,4.7-3.3,6.5c-1.6,1.8-3.8,2.9-5.8,4.2c-2,1.1-4.2,2.2-6.3,3.1s-4.3,1.6-6.7,2.2L317.2,363.1z"/>
	</g>
	<g>
		<path d="M287.2,371.6c2.2,2.9,4.7,5.8,7.4,8.1c2.7,2.5,5.6,4.7,8.9,6.1c3.3,1.6,6.5,1.8,9.8,1.6c3.3-0.2,6.5-1.6,9.9-3.3l0.2,0.2
			c-2,3.3-5.4,5.8-9.6,6.7c-2,0.4-4.2,0.2-6.1-0.4c-2-0.5-3.8-1.4-5.4-2.4c-3.4-2-6.1-4.7-8.7-7.4c-2.5-2.9-4.7-6-6.5-9.2
			L287.2,371.6z"/>
	</g>
	<g>
		<path d="M335.1,419.7c6.7-11.2,13.4-22.4,20.3-33.5c3.4-5.6,7.1-11,10.7-16.5c1.8-2.7,3.6-5.4,5.8-8c2-2.7,4.3-5.1,6.5-7.4
			c8.9-9.6,17.7-19.2,26.4-28.8c4.3-4.9,8.5-9.8,12.3-15c1.8-2.5,3.6-5.2,5.2-8.1c1.6-2.7,2.9-5.8,3.4-8.9h0.4
			c-0.2,3.3-1.1,6.5-2.4,9.6c-1.3,3.1-2.9,6-4.5,8.9c-3.4,5.6-7.4,10.9-11.6,15.9c-8.3,10.1-17.9,19.2-26.9,28.4
			c-2.2,2.4-4.5,4.7-6.5,7.1c-2,2.5-4,5.1-5.8,7.8c-3.8,5.2-7.4,10.7-11,16.1c-7.2,10.9-14.5,21.7-21.3,32.7L335.1,419.7z"/>
	</g>
	<g>
		<path d="M425.9,341.6c-0.2,2.5-1.4,4.9-3.1,6.9c-1.6,2-3.6,3.4-5.8,4.9c-4.3,2.7-9,4.5-13.9,6c-4.9,1.3-9.8,2.7-14.6,3.1
			c-5.1,0.4-9.9,0.2-15-0.4v-0.4c2.4-0.7,4.9-1.1,7.2-1.4c1.3-0.2,2.4-0.4,3.6-0.7l3.6-0.5c2.4-0.4,4.9-0.7,7.2-1.1
			c2.4-0.2,4.7-0.7,7.2-1.1c4.7-1.1,9.4-2.4,13.7-4.7c2-1.3,4.2-2.4,5.8-4.2c0.5-0.4,0.9-0.9,1.3-1.3c0.4-0.5,0.7-0.9,1.1-1.4
			c0.7-0.9,1.1-2.2,1.3-3.3h0.4V341.6z"/>
	</g>
	<g>
		<path d="M425.7,359.7c-1.4,0.9-3.1,1.4-4.7,1.8c-1.6,0.2-3.4,0.2-5.2,0c-1.6-0.4-3.6-0.5-5.1-1.6c-1.4-1.1-2.7-2.4-3.3-4.2
			l0.2-0.4c0.9,0,1.8,0.4,2.5,0.5s1.4,0.5,2.2,0.7c1.4,0.5,2.5,1.4,4,2c1.4,0.5,2.9,0.9,4.3,1.1c1.4,0.2,3.1,0.2,4.7-0.2
			L425.7,359.7z"/>
	</g>
	<g>
		<path d="M134.4,395.9c-2.7-3.8-5.1-7.8-7.1-11.9c-2-4.2-3.6-8.7-4.5-13.2s-2.2-8.9-3.1-13.2c-1.1-4.3-2.2-8.5-5.4-11.9l0.2-0.4
			c2.2,0.9,4.2,2.7,5.4,4.7c1.4,2,2.4,4.2,3.1,6.5c1.6,4.5,2,9.2,2.5,13.7c0.5,4.5,1.6,8.9,3.3,13c1.6,4.3,3.4,8.3,5.8,12.3
			L134.4,395.9z"/>
	</g>
	<g>
		<path d="M102.6,345.6c-0.2,3.1,0.2,6.1,1.3,8.9c1.1,2.7,2.7,5.2,4.9,7.2l1.6,1.3c0.5,0.4,1.3,0.7,1.8,1.1c1.3,0.7,2.5,1.3,3.8,2.2
			c1.3,0.7,2.7,1.3,4,2c1.4,0.5,2.7,1.3,4.2,2.2v0.4c-1.6,0.2-3.3,0-4.9,0c-1.6-0.4-3.3-0.7-4.7-1.3c-3.1-1.1-5.8-3.3-8-5.8
			c-2.2-2.5-3.8-5.6-4.5-8.7c-0.7-3.3-0.7-6.5,0.2-9.6L102.6,345.6z"/>
	</g>
	<g>
		<path d="M162.8,365.7c-1.4,3.1-3.4,6-5.2,8.9c-2,2.9-4.2,5.6-6.5,8.1s-4.5,5.2-7.4,7.2c-2.9,2-5.8,3.8-9.2,4.9l-0.2-0.4
			c2.4-2.7,4.7-5.1,7.2-7.4c2.4-2.4,5.2-4.3,7.8-6.5c2.5-2.4,4.9-4.7,7.1-7.2c2.4-2.5,4.3-5.2,6.3-8L162.8,365.7z"/>
	</g>
	<g>
		<path style="fill:none;stroke:#000000;stroke-width:5;stroke-linecap:round;stroke-linejoin:round;stroke-miterlimit:10;" d="
			M393,234.7c-3.6-10.3-11.6-22.4-17.5-35.8c-8-18.1-30.2-10.1-36.2-24.1c-6-13.9-33.7-14.4-49.8-16.4"/>
		<path style="fill:none;stroke:#000000;stroke-width:5;stroke-linecap:round;stroke-linejoin:round;stroke-miterlimit:10;" d="
			M86.9,272.8c0.3,14.2,14.3,31.6,14.3,31.6l1.4,1.4l0,0"/>
		<path style="fill:none;stroke:#000000;stroke-width:5;stroke-linecap:round;stroke-linejoin:round;stroke-miterlimit:10;" d="
			M259,130.8c-23-6.9-41.2,13.1-41.2,13.1c-14.1-6-24.1-2-52.3,8c-28.2,9.9-12.1,12.1-36.2,34.2s-14.1,40.1-14.1,40.1
			c-22.1,6-14.1,30.2-14.1,30.2c-5.3,1.3-8.8,3.5-11,6.2"/>
	</g>
	<path style="fill:none;stroke:#000000;stroke-width:5;stroke-linecap:round;stroke-linejoin:round;stroke-miterlimit:10;" d="
		M164.6,190.1c0,0,1.8,7.2,12.7,9c10.9,1.8,16.3,14.5,0,16.3s-18.1-10.9-19.9-16.3S159.2,186.4,164.6,190.1z"/>
	<path style="fill:none;stroke:#000000;stroke-width:5;stroke-linecap:round;stroke-linejoin:round;stroke-miterlimit:10;" d="
		M259.9,225.9c0,0,4.3,6.1,18.4,3.8c14.1-2.4,24.6,7.8,4.5,15.6c-20.1,7.8-25.9-3.6-29.7-8.1C249.4,232.7,251.9,224.6,259.9,225.9z"
		/>
</g>
<g style="opacity:0;">
	<circle cx="259.5" cy="131.5" r="3.5"/>
	<circle cx="253.5" cy="112.5" r="3.5"/>
	<circle cx="257.5" cy="89.5" r="3.5"/>
	<circle cx="219.5" cy="82.5" r="3.5"/>
	<circle cx="187.5" cy="94.5" r="3.5"/>
	<circle cx="165.5" cy="99.5" r="3.5"/>
	<circle cx="150.5" cy="109.5" r="3.5"/>
	<circle cx="132.5" cy="135.5" r="3.5"/>
	<circle cx="121.5" cy="155.5" r="3.5"/>
	<circle cx="108.5" cy="170.5" r="3.5"/>
	<circle cx="95.5" cy="182.5" r="3.5"/>
	<circle cx="95.5" cy="212.5" r="3.5"/>
	<circle cx="77.5" cy="234.5" r="3.5"/>
	<circle cx="78.5" cy="247.5" r="3.5"/>
	<circle cx="89.5" cy="261.5" r="3.5"/>
	<circle cx="86.5" cy="272.5" r="3.5"/>
	<circle cx="73.5" cy="272.5" r="3.5"/>
	<circle cx="58.5" cy="262.5" r="3.5"/>
	<circle cx="47.5" cy="279.5" r="3.5"/>
	<circle cx="35.5" cy="287.5" r="3.5"/>
	<circle cx="19.5" cy="296.5" r="3.5"/>
	<circle cx="38.5" cy="302.5" r="3.5"/>
	<circle cx="54.5" cy="322.5" r="3.5"/>
	<circle cx="69.5" cy="340.5" r="3.5"/>
	<circle cx="83.5" cy="347.5" r="3.5"/>
	<circle cx="92.5" cy="362.5" r="3.5"/>
	<circle cx="111.5" cy="381.5" r="3.5"/>
	<circle cx="129.5" cy="397.5" r="3.5"/>
	<circle cx="144.5" cy="415.5" r="3.5"/>
	<circle cx="167.5" cy="425.5" r="3.5"/>
	<circle cx="197.5" cy="429.5" r="3.5"/>
	<circle cx="230.5" cy="424.5" r="3.5"/>
	<circle cx="261.5" cy="419.5" r="3.5"/>
	<circle cx="293.5" cy="426.5" r="3.5"/>
	<circle cx="328.5" cy="426.5" r="3.5"/>
	<circle cx="357.5" cy="413.5" r="3.5"/>
	<circle cx="384.5" cy="403.5" r="3.5"/>
	<circle cx="412.5" cy="389.5" r="3.5"/>
	<circle cx="433.5" cy="368.5" r="3.5"/>
	<circle cx="451.5" cy="343.5" r="3.5"/>
	<circle cx="464.5" cy="316.5" r="3.5"/>
	<circle cx="471.5" cy="284.5" r="3.5"/>
	<circle cx="468.5" cy="258.5" r="3.5"/>
	<circle cx="466.5" cy="245.5" r="3.5"/>
	<circle cx="471.5" cy="232.5" r="3.5"/>
	<circle cx="479.5" cy="221.5" r="3.5"/>
	<circle cx="464.5" cy="216.5" r="3.5"/>
	<circle cx="441.5" cy="232.5" r="3.5"/>
	<circle cx="439.5" cy="212.5" r="3.5"/>
	<circle cx="432.5" cy="199.5" r="3.5"/>
	<circle cx="412.5" cy="185.5" r="3.5"/>
	<circle cx="400.5" cy="171.5" r="3.5"/>
	<circle cx="394.5" cy="146.5" r="3.5"/>
	<circle cx="373.5" cy="131.5" r="3.5"/>
	<circle cx="355.5" cy="122.5" r="3.5"/>
	<circle cx="345.5" cy="123.5" r="3.5"/>
	<circle cx="329.5" cy="128.5" r="3.5"/>
	<circle cx="309.5" cy="121.5" r="3.5"/>
	<circle cx="287.5" cy="128.5" r="3.5"/>
	<circle cx="288.5" cy="158.5" r="3.5"/>
	<circle cx="275.5" cy="144.5" r="3.5"/>
</g>
</svg>
