<?xml version="1.0" encoding="utf-8"?>
<!-- Generator: Adobe Illustrator 22.1.0, SVG Export Plug-In . SVG Version: 6.00 Build 0)  -->
<svg version="1.1" id="Layer_1" xmlns="http://www.w3.org/2000/svg" xmlns:xlink="http://www.w3.org/1999/xlink" x="0px" y="0px"
	 viewBox="0 0 512 512" style="enable-background:new 0 0 512 512;" xml:space="preserve">
<g>
	<circle cx="259.5" cy="131.5" r="3.5"/>
	<circle cx="253.5" cy="112.5" r="3.5"/>
	<circle cx="257.5" cy="89.5" r="3.5"/>
	<circle cx="219.5" cy="82.5" r="3.5"/>
	<circle cx="187.5" cy="94.5" r="3.5"/>
	<circle cx="165.5" cy="99.5" r="3.5"/>
	<circle cx="150.5" cy="109.5" r="3.5"/>
	<circle cx="132.5" cy="135.5" r="3.5"/>
	<circle cx="121.5" cy="155.5" r="3.5"/>
	<circle cx="108.5" cy="170.5" r="3.5"/>
	<circle cx="95.5" cy="182.5" r="3.5"/>
	<circle cx="95.5" cy="212.5" r="3.5"/>
	<circle cx="77.5" cy="234.5" r="3.5"/>
	<circle cx="78.5" cy="247.5" r="3.5"/>
	<circle cx="89.5" cy="261.5" r="3.5"/>
	<circle cx="86.5" cy="272.5" r="3.5"/>
	<circle cx="73.5" cy="272.5" r="3.5"/>
	<circle cx="58.5" cy="262.5" r="3.5"/>
	<circle cx="47.5" cy="279.5" r="3.5"/>
	<circle cx="35.5" cy="287.5" r="3.5"/>
	<circle cx="19.5" cy="296.5" r="3.5"/>
	<circle cx="38.5" cy="302.5" r="3.5"/>
	<circle cx="54.5" cy="322.5" r="3.5"/>
	<circle cx="69.5" cy="340.5" r="3.5"/>
	<circle cx="83.5" cy="347.5" r="3.5"/>
	<circle cx="92.5" cy="362.5" r="3.5"/>
	<circle cx="111.5" cy="381.5" r="3.5"/>
	<circle cx="129.5" cy="397.5" r="3.5"/>
	<circle cx="144.5" cy="415.5" r="3.5"/>
	<circle cx="167.5" cy="425.5" r="3.5"/>
	<circle cx="197.5" cy="429.5" r="3.5"/>
	<circle cx="230.5" cy="424.5" r="3.5"/>
	<circle cx="261.5" cy="419.5" r="3.5"/>
	<circle cx="293.5" cy="426.5" r="3.5"/>
	<circle cx="328.5" cy="426.5" r="3.5"/>
	<circle cx="357.5" cy="413.5" r="3.5"/>
	<circle cx="384.5" cy="403.5" r="3.5"/>
	<circle cx="412.5" cy="389.5" r="3.5"/>
	<circle cx="433.5" cy="368.5" r="3.5"/>
	<circle cx="451.5" cy="343.5" r="3.5"/>
	<circle cx="464.5" cy="316.5" r="3.5"/>
	<circle cx="471.5" cy="284.5" r="3.5"/>
	<circle cx="468.5" cy="258.5" r="3.5"/>
	<circle cx="466.5" cy="245.5" r="3.5"/>
	<circle cx="471.5" cy="232.5" r="3.5"/>
	<circle cx="479.5" cy="221.5" r="3.5"/>
	<circle cx="464.5" cy="216.5" r="3.5"/>
	<circle cx="441.5" cy="232.5" r="3.5"/>
	<circle cx="439.5" cy="212.5" r="3.5"/>
	<circle cx="432.5" cy="199.5" r="3.5"/>
	<circle cx="412.5" cy="185.5" r="3.5"/>
	<circle cx="400.5" cy="171.5" r="3.5"/>
	<circle cx="394.5" cy="146.5" r="3.5"/>
	<circle cx="373.5" cy="131.5" r="3.5"/>
	<circle cx="355.5" cy="122.5" r="3.5"/>
	<circle cx="345.5" cy="123.5" r="3.5"/>
	<circle cx="329.5" cy="128.5" r="3.5"/>
	<circle cx="309.5" cy="121.5" r="3.5"/>
	<circle cx="287.5" cy="128.5" r="3.5"/>
	<circle cx="288.5" cy="158.5" r="3.5"/>
	<circle cx="275.5" cy="144.5" r="3.5"/>
</g>
</svg>
