<?xml version="1.0" encoding="utf-8"?>
<!-- Generator: Adobe Illustrator 22.1.0, SVG Export Plug-In . SVG Version: 6.00 Build 0)  -->
<svg version="1.1" id="Layer_1" xmlns="http://www.w3.org/2000/svg" xmlns:xlink="http://www.w3.org/1999/xlink" x="0px" y="0px"
	 viewBox="0 0 512 512" style="enable-background:new 0 0 512 512;" xml:space="preserve">
<g>
	<circle cx="242.5" cy="228.5" r="3.5"/>
	<circle cx="247.5" cy="261.5" r="3.5"/>
	<circle cx="254.5" cy="291.5" r="3.5"/>
	<circle cx="265.5" cy="318.5" r="3.5"/>
	<circle cx="279.5" cy="335.5" r="3.5"/>
	<circle cx="302.5" cy="345.5" r="3.5"/>
	<circle cx="317.5" cy="350.5" r="3.5"/>
	<circle cx="313.5" cy="367.5" r="3.5"/>
	<circle cx="321.5" cy="389.5" r="3.5"/>
	<circle cx="339.5" cy="411.5" r="3.5"/>
	<circle cx="361.5" cy="426.5" r="3.5"/>
	<circle cx="386.5" cy="436.5" r="3.5"/>
	<circle cx="412.5" cy="433.5" r="3.5"/>
	<circle cx="441.5" cy="421.5" r="3.5"/>
	<circle cx="458.5" cy="406.5" r="3.5"/>
	<circle cx="467.5" cy="384.5" r="3.5"/>
	<circle cx="467.5" cy="359.5" r="3.5"/>
	<circle cx="467.5" cy="339.5" r="3.5"/>
	<circle cx="456.5" cy="318.5" r="3.5"/>
	<circle cx="432.5" cy="298.5" r="3.5"/>
	<circle cx="432.5" cy="279.5" r="3.5"/>
	<circle cx="428.5" cy="260.5" r="3.5"/>
	<circle cx="414.5" cy="235.5" r="3.5"/>
	<circle cx="397.5" cy="212.5" r="3.5"/>
	<circle cx="376.5" cy="199.5" r="3.5"/>
	<circle cx="350.5" cy="190.5" r="3.5"/>
	<circle cx="315.5" cy="188.5" r="3.5"/>
	<circle cx="294.5" cy="194.5" r="3.5"/>
	<circle cx="276.5" cy="198.5" r="3.5"/>
	<circle cx="254.5" cy="202.5" r="3.5"/>
</g>
</svg>
