<?xml version="1.0" encoding="utf-8"?>
<!-- Generator: Adobe Illustrator 22.1.0, SVG Export Plug-In . SVG Version: 6.00 Build 0)  -->
<svg version="1.1" id="Layer_1" xmlns="http://www.w3.org/2000/svg" xmlns:xlink="http://www.w3.org/1999/xlink" x="0px" y="0px"
	 viewBox="0 0 512 512" style="enable-background:new 0 0 512 512;" xml:space="preserve">
<g style="opacity:0;">
	<circle cx="455.5" cy="42.5" r="3.5"/>
	<circle cx="426.5" cy="51.5" r="3.5"/>
	<circle cx="393.5" cy="79.5" r="3.5"/>
	<circle cx="362.5" cy="120.5" r="3.5"/>
	<circle cx="335.5" cy="161.5" r="3.5"/>
	<circle cx="305.5" cy="198.5" r="3.5"/>
	<circle cx="270.5" cy="243.5" r="3.5"/>
	<circle cx="228.5" cy="278.5" r="3.5"/>
	<circle cx="181.5" cy="308.5" r="3.5"/>
	<circle cx="133.5" cy="331.5" r="3.5"/>
	<circle cx="79.5" cy="353.5" r="3.5"/>
	<circle cx="41.5" cy="372.5" r="3.5"/>
	<circle cx="20.5" cy="398.5" r="3.5"/>
	<circle cx="16.5" cy="424.5" r="3.5"/>
	<circle cx="29.5" cy="447.5" r="3.5"/>
	<circle cx="57.5" cy="460.5" r="3.5"/>
	<circle cx="92.5" cy="465.5" r="3.5"/>
	<circle cx="138.5" cy="460.5" r="3.5"/>
	<circle cx="185.5" cy="451.5" r="3.5"/>
	<circle cx="226.5" cy="435.5" r="3.5"/>
	<circle cx="269.5" cy="417.5" r="3.5"/>
	<circle cx="313.5" cy="390.5" r="3.5"/>
	<circle cx="351.5" cy="360.5" r="3.5"/>
	<circle cx="391.5" cy="323.5" r="3.5"/>
	<circle cx="424.5" cy="287.5" r="3.5"/>
	<circle cx="453.5" cy="248.5" r="3.5"/>
	<circle cx="479.5" cy="205.5" r="3.5"/>
	<circle cx="496.5" cy="163.5" r="3.5"/>
	<circle cx="504.5" cy="112.5" r="3.5"/>
	<circle cx="498.5" cy="82.5" r="3.5"/>
	<circle cx="482.5" cy="58.5" r="3.5"/>
</g>
<g>
	<path style="fill:none;stroke:#000000;stroke-width:5;stroke-linecap:round;stroke-linejoin:round;stroke-miterlimit:10;" d="
		M23.1,397.2c44.2-10.3,87.4-24.6,129-42.7c15.7-6.8,31.2-14.2,46.1-22.5C254,300.8,302,255.8,336.7,202.2
		c16.8-25.9,30.5-53.8,48.3-78.9s40.6-48.2,69.5-59.1"/>
	<path style="fill:none;stroke:#000000;stroke-width:5;stroke-linecap:round;stroke-linejoin:round;stroke-miterlimit:10;" d="
		M22.2,416.3c101-9.8,197.9-57,267.8-130.5c5.3-5.6,10.5-11.4,16.7-16.1c6.2-4.7,13.2-8.2,19.8-12.3c31.7-19.6,53.2-51.9,70.4-85
		c17.2-33.1,38.4-75.3,59.6-105.9"/>
	<path style="fill:none;stroke:#000000;stroke-width:5;stroke-linecap:round;stroke-linejoin:round;stroke-miterlimit:10;" d="
		M463.9,66c-0.5,38.3-15.9,74.5-31,109.7c-6,14-12.1,28-20.3,40.9c-11.8,18.5-27.6,34-40,52.1c-6.8,10-12.7,20.9-21.6,29.1
		c-8.3,7.8-18.7,12.8-28.8,17.9c-28,14.2-55.3,29.8-81.7,46.9c-14.1,9.1-28,18.6-43.2,25.7c-13.5,6.3-27.8,10.6-42,14.8
		c-42.1,12.6-84.5,25.3-128.3,29.9"/>
	<path style="fill:none;stroke:#000000;stroke-width:5;stroke-linecap:round;stroke-linejoin:round;stroke-miterlimit:10;" d="
		M467.5,61.3c13.2,16.5,19.3,38.4,16.4,59.3c-1.8,12.9-6.8,25.1-11.9,37c-15.8,37-33.4,73.3-52.6,108.7c-5,9.2-10.3,18.6-18.3,25.3
		c-6.6,5.5-14.6,8.9-21.7,13.8c-13.7,9.4-23.3,23.6-36.5,33.8c-12,9.3-26.7,14.8-38.4,24.5c-6.6,5.5-12.3,12.3-19.7,16.8
		c-8.2,5-17.9,6.7-27.1,9.1c-14.5,3.8-28.4,9.5-41.4,16.9c-8.1,4.6-15.8,9.9-24.1,14.1c-12.6,6.4-26.4,10.1-40.1,13.7
		c-38,10-77.1,19.5-116.1,14.6"/>
	<path style="fill:none;stroke:#000000;stroke-width:5;stroke-linecap:round;stroke-linejoin:round;stroke-miterlimit:10;" d="
		M454.6,58.7c-7.1-1.9-14.8-0.5-21.7,2.2c-6.9,2.7-13.2,6.7-19.8,10.1c-3.3,1.7-6.7,3.3-9.7,5.5c-3.1,2.2-5.7,4.9-8.3,7.7
		c-9,9.7-17.3,20.1-24.9,31"/>
	<path style="fill:none;stroke:#000000;stroke-width:5;stroke-linecap:round;stroke-linejoin:round;stroke-miterlimit:10;" d="
		M453.7,56.3c-8.1-2.3-16.2-4.7-24.3-7"/>
	<path style="fill:none;stroke:#000000;stroke-width:5;stroke-linecap:round;stroke-linejoin:round;stroke-miterlimit:10;" d="
		M456.6,55c0.3-3.8,0-7.6-1-11.3"/>
	<path style="fill:none;stroke:#000000;stroke-width:5;stroke-linecap:round;stroke-linejoin:round;stroke-miterlimit:10;" d="
		M463.5,56.5c3,0,10.5-2.9,16.5-3.3"/>
</g>
</svg>
