<?xml version="1.0" encoding="utf-8"?>
<!-- Generator: Adobe Illustrator 22.1.0, SVG Export Plug-In . SVG Version: 6.00 Build 0)  -->
<svg version="1.1" id="Layer_1" xmlns="http://www.w3.org/2000/svg" xmlns:xlink="http://www.w3.org/1999/xlink" x="0px" y="0px"
	 viewBox="0 0 512 512" style="enable-background:new 0 0 512 512;" xml:space="preserve">
<g>
	<circle cx="455.5" cy="42.5" r="3.5"/>
	<circle cx="426.5" cy="51.5" r="3.5"/>
	<circle cx="393.5" cy="79.5" r="3.5"/>
	<circle cx="362.5" cy="120.5" r="3.5"/>
	<circle cx="335.5" cy="161.5" r="3.5"/>
	<circle cx="305.5" cy="198.5" r="3.5"/>
	<circle cx="270.5" cy="243.5" r="3.5"/>
	<circle cx="228.5" cy="278.5" r="3.5"/>
	<circle cx="181.5" cy="308.5" r="3.5"/>
	<circle cx="133.5" cy="331.5" r="3.5"/>
	<circle cx="79.5" cy="353.5" r="3.5"/>
	<circle cx="41.5" cy="372.5" r="3.5"/>
	<circle cx="20.5" cy="398.5" r="3.5"/>
	<circle cx="16.5" cy="424.5" r="3.5"/>
	<circle cx="29.5" cy="447.5" r="3.5"/>
	<circle cx="57.5" cy="460.5" r="3.5"/>
	<circle cx="92.5" cy="465.5" r="3.5"/>
	<circle cx="138.5" cy="460.5" r="3.5"/>
	<circle cx="185.5" cy="451.5" r="3.5"/>
	<circle cx="226.5" cy="435.5" r="3.5"/>
	<circle cx="269.5" cy="417.5" r="3.5"/>
	<circle cx="313.5" cy="390.5" r="3.5"/>
	<circle cx="351.5" cy="360.5" r="3.5"/>
	<circle cx="391.5" cy="323.5" r="3.5"/>
	<circle cx="424.5" cy="287.5" r="3.5"/>
	<circle cx="453.5" cy="248.5" r="3.5"/>
	<circle cx="479.5" cy="205.5" r="3.5"/>
	<circle cx="496.5" cy="163.5" r="3.5"/>
	<circle cx="504.5" cy="112.5" r="3.5"/>
	<circle cx="498.5" cy="82.5" r="3.5"/>
	<circle cx="482.5" cy="58.5" r="3.5"/>
</g>
</svg>
