<?xml version="1.0" encoding="utf-8"?>
<!-- Generator: Adobe Illustrator 22.1.0, SVG Export Plug-In . SVG Version: 6.00 Build 0)  -->
<svg version="1.1" id="Layer_1" xmlns="http://www.w3.org/2000/svg" xmlns:xlink="http://www.w3.org/1999/xlink" x="0px" y="0px"
	 viewBox="0 0 512 512" style="enable-background:new 0 0 512 512;" xml:space="preserve">
<circle cx="205.5" cy="129.5" r="3.5"/>
<circle cx="181.5" cy="157.5" r="3.5"/>
<circle cx="157.5" cy="191.5" r="3.5"/>
<circle cx="134.5" cy="225.5" r="3.5"/>
<circle cx="112.5" cy="265.5" r="3.5"/>
<circle cx="92.5" cy="301.5" r="3.5"/>
<circle cx="77.5" cy="339.5" r="3.5"/>
<circle cx="66.5" cy="378.5" r="3.5"/>
<circle cx="67.5" cy="406.5" r="3.5"/>
<circle cx="77.5" cy="433.5" r="3.5"/>
<circle cx="94.5" cy="456.5" r="3.5"/>
<circle cx="119.5" cy="470.5" r="3.5"/>
<circle cx="150.5" cy="480.5" r="3.5"/>
<circle cx="179.5" cy="482.5" r="3.5"/>
<circle cx="215.5" cy="464.5" r="3.5"/>
<circle cx="241.5" cy="440.5" r="3.5"/>
<circle cx="263.5" cy="409.5" r="3.5"/>
<circle cx="285.5" cy="371.5" r="3.5"/>
<circle cx="301.5" cy="335.5" r="3.5"/>
<circle cx="319.5" cy="297.5" r="3.5"/>
<circle cx="332.5" cy="265.5" r="3.5"/>
<circle cx="344.5" cy="232.5" r="3.5"/>
<circle cx="351.5" cy="204.5" r="3.5"/>
<circle cx="340.5" cy="187.5" r="3.5"/>
<circle cx="332.5" cy="164.5" r="3.5"/>
<circle cx="320.5" cy="148.5" r="3.5"/>
<circle cx="306.5" cy="164.5" r="3.5"/>
<circle cx="282.5" cy="188.5" r="3.5"/>
<circle cx="264.5" cy="204.5" r="3.5"/>
<circle cx="255.5" cy="191.5" r="3.5"/>
<circle cx="259.5" cy="165.5" r="3.5"/>
<circle cx="261.5" cy="142.5" r="3.5"/>
<circle cx="268.5" cy="123.5" r="3.5"/>
<circle cx="244.5" cy="126.5" r="3.5"/>
</svg>
