<?xml version="1.0" encoding="utf-8"?>
<!-- Generator: Adobe Illustrator 22.1.0, SVG Export Plug-In . SVG Version: 6.00 Build 0)  -->
<svg version="1.1" id="Layer_1" xmlns="http://www.w3.org/2000/svg" xmlns:xlink="http://www.w3.org/1999/xlink" x="0px" y="0px"
	 viewBox="0 0 512 512" style="enable-background:new 0 0 512 512;" xml:space="preserve">
<style type="text/css">
	.st0{fill:none;stroke:#000000;stroke-width:5;stroke-miterlimit:10;}
	.st1{opacity:0;}
</style>
<g>
	<path class="st0" d="M209.8,126.3c-0.8-0.2-1.7-0.3-2.5-0.5c-16.5-4.2-33.4-12.7-32.8-16.5c0.8-4,19.5,2.5,42.1-3.8
		c22-6.1,37-42.5,56.3-49.7c11-4.2,28.3-6.5,55.5-0.4c1.1,0.2,2.3,0.6,3.6,1.1l18.4-39.6c3.4-7.2,12.9-9.5,19-4.2
		c2,1.7,3.1,4.2,3.1,6.7c0,2-0.6,3.9-2,5.6l-30,35.7c4,2.4,7.2,4.6,7,4.7c21.4,18.2,28.8,34.3,31.9,45.5
		c5.3,20.1-15.9,53.3-8.2,74.7c8.1,22.2,24.2,33.8,21.3,36.6c-2.7,2.7-19.5-6.3-32.2-17.3"/>
</g>
<g class="st1">
	<circle cx="205.5" cy="129.5" r="3.5"/>
	<circle cx="181.5" cy="157.5" r="3.5"/>
	<circle cx="157.5" cy="191.5" r="3.5"/>
	<circle cx="134.5" cy="225.5" r="3.5"/>
	<circle cx="112.5" cy="265.5" r="3.5"/>
	<circle cx="92.5" cy="301.5" r="3.5"/>
	<circle cx="77.5" cy="339.5" r="3.5"/>
	<circle cx="66.5" cy="378.5" r="3.5"/>
	<circle cx="67.5" cy="406.5" r="3.5"/>
	<circle cx="77.5" cy="433.5" r="3.5"/>
	<circle cx="94.5" cy="456.5" r="3.5"/>
	<circle cx="119.5" cy="470.5" r="3.5"/>
	<circle cx="150.5" cy="480.5" r="3.5"/>
	<circle cx="179.5" cy="482.5" r="3.5"/>
	<circle cx="215.5" cy="464.5" r="3.5"/>
	<circle cx="241.5" cy="440.5" r="3.5"/>
	<circle cx="263.5" cy="409.5" r="3.5"/>
	<circle cx="285.5" cy="371.5" r="3.5"/>
	<circle cx="301.5" cy="335.5" r="3.5"/>
	<circle cx="319.5" cy="297.5" r="3.5"/>
	<circle cx="332.5" cy="265.5" r="3.5"/>
	<circle cx="344.5" cy="232.5" r="3.5"/>
</g>
</svg>
