<?xml version="1.0" encoding="utf-8"?>
<!-- Generator: Adobe Illustrator 22.1.0, SVG Export Plug-In . SVG Version: 6.00 Build 0)  -->
<svg version="1.1" id="Layer_1" xmlns="http://www.w3.org/2000/svg" xmlns:xlink="http://www.w3.org/1999/xlink" x="0px" y="0px"
	 viewBox="0 0 512 512" style="enable-background:new 0 0 512 512;" xml:space="preserve">
<g>
	<path style="fill:none;stroke:#000000;stroke-width:5;stroke-linecap:round;stroke-linejoin:round;stroke-miterlimit:10;" d="
		M173.5,188.5c5.7,13.9,20.7,44,30,50.9c5.5-15,13.3-72,15-89.9"/>
	<path style="fill:none;stroke:#000000;stroke-width:5;stroke-linecap:round;stroke-linejoin:round;stroke-miterlimit:10;" d="
		M333.5,164.5c-29.5,37.5-95,116.4-95,116.4s13.7,15.2,32,41.1c18.3,25.9,22.9,50.8,24.2,73.3s-17.9,75.4-37.1,87.6"/>
	<path style="fill:none;stroke:#000000;stroke-width:5;stroke-linecap:round;stroke-linejoin:round;stroke-miterlimit:10;" d="
		M238.3,280.9c0,0,55-64.4,53.5-65.9c-1.9-1.7-19.9-41.5-19.4-41.5"/>
</g>
<g style="opacity:0;">
	<circle cx="84.5" cy="72.5" r="3.5"/>
	<circle cx="101.5" cy="109.5" r="3.5"/>
	<circle cx="114.5" cy="141.5" r="3.5"/>
	<circle cx="126.5" cy="183.5" r="3.5"/>
	<circle cx="134.5" cy="225.5" r="3.5"/>
	<circle cx="134.5" cy="259.5" r="3.5"/>
	<circle cx="129.5" cy="295.5" r="3.5"/>
	<circle cx="122.5" cy="329.5" r="3.5"/>
	<circle cx="117.5" cy="351.5" r="3.5"/>
	<circle cx="113.5" cy="384.5" r="3.5"/>
	<circle cx="119.5" cy="410.5" r="3.5"/>
	<circle cx="130.5" cy="434.5" r="3.5"/>
	<circle cx="146.5" cy="452.5" r="3.5"/>
	<circle cx="163.5" cy="467.5" r="3.5"/>
	<circle cx="190.5" cy="480.5" r="3.5"/>
	<circle cx="225.5" cy="486.5" r="3.5"/>
	<circle cx="256.5" cy="483.5" r="3.5"/>
	<circle cx="282.5" cy="483.5" r="3.5"/>
	<circle cx="312.5" cy="476.5" r="3.5"/>
	<circle cx="334.5" cy="463.5" r="3.5"/>
	<circle cx="350.5" cy="448.5" r="3.5"/>
	<circle cx="363.5" cy="429.5" r="3.5"/>
	<circle cx="370.5" cy="403.5" r="3.5"/>
	<circle cx="370.5" cy="367.5" r="3.5"/>
	<circle cx="366.5" cy="336.5" r="3.5"/>
	<circle cx="357.5" cy="295.5" r="3.5"/>
	<circle cx="355.5" cy="259.5" r="3.5"/>
	<circle cx="357.5" cy="228.5" r="3.5"/>
	<circle cx="370.5" cy="191.5" r="3.5"/>
	<circle cx="386.5" cy="154.5" r="3.5"/>
	<circle cx="402.5" cy="117.5" r="3.5"/>
	<circle cx="428.5" cy="71.5" r="3.5"/>
	<circle cx="415.5" cy="53.5" r="3.5"/>
	<circle cx="388.5" cy="51.5" r="3.5"/>
	<circle cx="373.5" cy="81.5" r="3.5"/>
	<circle cx="357.5" cy="117.5" r="3.5"/>
	<circle cx="333.5" cy="161.5" r="3.5"/>
	<circle cx="344.5" cy="122.5" r="3.5"/>
	<circle cx="352.5" cy="79.5" r="3.5"/>
	<circle cx="352.5" cy="49.5" r="3.5"/>
	<circle cx="333.5" cy="39.5" r="3.5"/>
	<circle cx="312.5" cy="41.5" r="3.5"/>
	<circle cx="305.5" cy="76.5" r="3.5"/>
	<circle cx="295.5" cy="114.5" r="3.5"/>
	<circle cx="271.5" cy="169.5" r="3.5"/>
	<circle cx="267.5" cy="113.5" r="3.5"/>
	<circle cx="268.5" cy="67.5" r="3.5"/>
	<circle cx="264.5" cy="25.5" r="3.5"/>
	<circle cx="245.5" cy="18.5" r="3.5"/>
	<circle cx="218.5" cy="24.5" r="3.5"/>
	<circle cx="218.5" cy="64.5" r="3.5"/>
	<circle cx="218.5" cy="107.5" r="3.5"/>
	<circle cx="218.5" cy="145.5" r="3.5"/>
	<circle cx="205.5" cy="97.5" r="3.5"/>
	<circle cx="196.5" cy="60.5" r="3.5"/>
	<circle cx="171.5" cy="58.5" r="3.5"/>
	<circle cx="156.5" cy="75.5" r="3.5"/>
	<circle cx="163.5" cy="121.5" r="3.5"/>
	<circle cx="171.5" cy="183.5" r="3.5"/>
	<circle cx="152.5" cy="134.5" r="3.5"/>
	<circle cx="138.5" cy="92.5" r="3.5"/>
	<circle cx="124.5" cy="58.5" r="3.5"/>
	<circle cx="103.5" cy="57.5" r="3.5"/>
</g>
</svg>
