<?xml version="1.0" encoding="utf-8"?>
<!-- Generator: Adobe Illustrator 22.1.0, SVG Export Plug-In . SVG Version: 6.00 Build 0)  -->
<svg version="1.1" id="Layer_1" xmlns="http://www.w3.org/2000/svg" xmlns:xlink="http://www.w3.org/1999/xlink" x="0px" y="0px"
	 viewBox="0 0 512 512" style="enable-background:new 0 0 512 512;" xml:space="preserve">
<g>
	<circle cx="176.5" cy="30.5" r="3.5"/>
	<circle cx="208.5" cy="69.5" r="3.5"/>
	<circle cx="215.5" cy="105.5" r="3.5"/>
	<circle cx="173.5" cy="141.5" r="3.5"/>
	<circle cx="132.5" cy="182.5" r="3.5"/>
	<circle cx="95.5" cy="228.5" r="3.5"/>
	<circle cx="69.5" cy="276.5" r="3.5"/>
	<circle cx="55.5" cy="315.5" r="3.5"/>
	<circle cx="53.5" cy="346.5" r="3.5"/>
	<circle cx="57.5" cy="379.5" r="3.5"/>
	<circle cx="77.5" cy="417.5" r="3.5"/>
	<circle cx="114.5" cy="450.5" r="3.5"/>
	<circle cx="152.5" cy="473.5" r="3.5"/>
	<circle cx="190.5" cy="488.5" r="3.5"/>
	<circle cx="240.5" cy="494.5" r="3.5"/>
	<circle cx="287.5" cy="494.5" r="3.5"/>
	<circle cx="334.5" cy="484.5" r="3.5"/>
	<circle cx="374.5" cy="472.5" r="3.5"/>
	<circle cx="414.5" cy="443.5" r="3.5"/>
	<circle cx="436.5" cy="407.5" r="3.5"/>
	<circle cx="445.5" cy="373.5" r="3.5"/>
	<circle cx="439.5" cy="328.5" r="3.5"/>
	<circle cx="425.5" cy="286.5" r="3.5"/>
	<circle cx="398.5" cy="234.5" r="3.5"/>
	<circle cx="368.5" cy="191.5" r="3.5"/>
	<circle cx="340.5" cy="155.5" r="3.5"/>
	<circle cx="317.5" cy="126.5" r="3.5"/>
	<circle cx="295.5" cy="107.5" r="3.5"/>
	<circle cx="297.5" cy="67.5" r="3.5"/>
	<circle cx="317.5" cy="23.5" r="3.5"/>
	<circle cx="283.5" cy="52.5" r="3.5"/>
	<circle cx="268.5" cy="9.5" r="3.5"/>
	<circle cx="251.5" cy="56.5" r="3.5"/>
	<circle cx="212.5" cy="11.5" r="3.5"/>
	<circle cx="213.5" cy="47.5" r="3.5"/>
</g>
</svg>
