<?xml version="1.0" encoding="utf-8"?>
<!-- Generator: Adobe Illustrator 22.1.0, SVG Export Plug-In . SVG Version: 6.00 Build 0)  -->
<svg version="1.1" id="Layer_1" xmlns="http://www.w3.org/2000/svg" xmlns:xlink="http://www.w3.org/1999/xlink" x="0px" y="0px"
	 viewBox="0 0 512 512" style="enable-background:new 0 0 512 512;" xml:space="preserve">
<g>
	<path d="M338.2,148.8c15.3,18.9,38.7,29.7,69.5,32.5c1.7-2.6,3.4-5.2,4.9-7.9c-30.7-1.9-53.5-11.8-67.8-29.7
		C327,121.7,325.8,92.3,327,75.9c-2.8,0.9-5.6,2.1-8.6,3.2C317.4,97.2,319.7,126,338.2,148.8z"/>
	<path d="M312,231.6c0.9,0,1.9-0.2,2.8-0.4c-25.8-24.9-50.5-76.8-62.2-103.9c-2.2,1.9-4.3,3.7-6.5,5.8
		c11.6,26.4,33.6,72.5,58.3,99.2C306.8,231.9,309.2,231.8,312,231.6z"/>
	<path d="M242.7,236.2c2.2-0.2,4.7-0.4,7.3-0.4l1.9-3.7c-29.9-15-40.9-49.5-45-72.7c-2.6,1.1-5.2,2.1-8,3
		C203.1,185.8,214.1,218.7,242.7,236.2z"/>
	<path d="M455,398.1c-10.3-34.8,1.5-77.4,9-98.1c-2.1-2.1-4.3-3.9-6.9-5.6c-8,21.3-22.6,70.3-8.8,110.1
		C450.7,402.4,452.8,400.2,455,398.1z"/>
	<path d="M325.1,385c5.8-51.4,71.5-101.6,74.9-108l-9.1-1c-5.5,7.8-68.1,53-74.2,108.1c-1.3,11-0.2,21.7,3.4,31.8
		c5.2,3.7,8.4,6,8.4,6c1.3,0.4,2.4,0.6,3.7,0.9C326,411,323.6,398.3,325.1,385z"/>
	<path d="M243,314c27.5-11,31.4-32.1,30.5-47.1c-2.8-0.4-5.6-0.7-8.2-1.1c1.3,12.3-1.3,30.8-25.2,40.4
		c-19.4,7.7-27.1,23.7-29.5,39.4c2.4,1.3,5,2.8,7.5,4.1C219.7,335.7,225.9,320.9,243,314z"/>
	<path d="M241,259c-1.3-0.7-2.6-1.7-3.6-2.6c-1.3-1.3-2.6-2.6-3.7-3.7c-46.7,16.3-67.5,52.7-74.9,70.8c2.4,0.6,5.2,1.3,8,2.2
		C174.1,308.2,194.6,273.3,241,259z"/>
	<path d="M74.1,313.3c-0.9,3-1.9,5.8-3,8.8c27.8-4.5,52.7,5.2,69.9,15.3c-1.1-3.9-1.7-7.5-0.9-9.9
		C122.9,318.1,99.7,310.3,74.1,313.3z"/>
	<path d="M50.7,415.5c1.1,2.6,2.4,4.9,3.9,7.1c18.5-12.1,63.4-33.5,114.8-1.5c0.9-2.8,1.1-5.8,0.9-9
		C117.8,381.5,70.9,402.8,50.7,415.5z"/>
	<path d="M110.5,169.9c-4.3-0.4-8.6-0.9-12.5-1.5c-39.1,28-48.2,68.2-50.1,84.7c2.8,1.9,5.4,3.6,7.9,5.4
		C56.1,248.4,61.8,199.4,110.5,169.9z"/>
	<path d="M160.6,170.5c-2.8,0.2-5.6,0.6-8.6,0.6c-10.7,53.6-52.3,87.1-81.3,104.3c1.5,2.4,2.6,5,3.6,7.5
		C105.3,264.5,150.2,228.8,160.6,170.5z"/>
	<path style="fill:none;stroke:#000000;stroke-width:5;stroke-linecap:round;stroke-linejoin:round;stroke-miterlimit:10;" d="
		M300.4,88.8c4.9-22.4,9.2-58.5-13.3-64.1c-33.1-8.2-49.7,24.9-41.3,41.3c6.7,13.3,18.5,32,23,47.3"/>
	<path style="fill:none;stroke:#000000;stroke-width:5;stroke-linecap:round;stroke-linejoin:round;stroke-miterlimit:10;" d="
		M327.2,229.5c79.6,70.8,109,25,109-6.2c0-19.8-23.6-24.7-42.6-25.6"/>
	<path style="fill:none;stroke:#000000;stroke-width:5;stroke-linecap:round;stroke-linejoin:round;stroke-miterlimit:10;" d="
		M253,370.8c-1.5,13.5-5.4,32.7-15.5,42.8c-16.6,16.6,8.2,57.9,33.1,33.1c13.3-13.3,12.3-38.5,8.6-59.1"/>
	<path style="fill:none;stroke:#000000;stroke-width:5;stroke-linecap:round;stroke-linejoin:round;stroke-miterlimit:10;" d="
		M358,427.5c-2.8,22.6-4.1,55.3,12,60.7c22.6,7.5,93.8,1.3,55.1-69.5"/>
</g>
<g style="opacity:0;">
	<circle cx="21.5" cy="239.5" r="3.5"/>
	<circle cx="52.5" cy="254.5" r="3.5"/>
	<circle cx="74.5" cy="283.5" r="3.5"/>
	<circle cx="70.5" cy="319.5" r="3.5"/>
	<circle cx="51.5" cy="361.5" r="3.5"/>
	<circle cx="44.5" cy="396.5" r="3.5"/>
	<circle cx="55.5" cy="426.5" r="3.5"/>
	<circle cx="86.5" cy="448.5" r="3.5"/>
	<circle cx="127.5" cy="448.5" r="3.5"/>
	<circle cx="155.5" cy="436.5" r="3.5"/>
	<circle cx="171.5" cy="420.5" r="3.5"/>
	<circle cx="164.5" cy="388.5" r="3.5"/>
	<circle cx="153.5" cy="362.5" r="3.5"/>
	<circle cx="139.5" cy="328.5" r="3.5"/>
	<circle cx="164.5" cy="324.5" r="3.5"/>
	<circle cx="237.5" cy="359.5" r="3.5"/>
	<circle cx="280.5" cy="386.5" r="3.5"/>
	<circle cx="326.5" cy="420.5" r="3.5"/>
	<circle cx="358.5" cy="427.5" r="3.5"/>
	<circle cx="396.5" cy="425.5" r="3.5"/>
	<circle cx="426.5" cy="418.5" r="3.5"/>
	<circle cx="454.5" cy="398.5" r="3.5"/>
	<circle cx="474.5" cy="373.5" r="3.5"/>
	<circle cx="479.5" cy="344.5" r="3.5"/>
	<circle cx="475.5" cy="320.5" r="3.5"/>
	<circle cx="462.5" cy="297.5" r="3.5"/>
	<circle cx="441.5" cy="286.5" r="3.5"/>
	<circle cx="410.5" cy="278.5" r="3.5"/>
	<circle cx="385.5" cy="274.5" r="3.5"/>
	<circle cx="345.5" cy="270.5" r="3.5"/>
	<circle cx="304.5" cy="269.5" r="3.5"/>
	<circle cx="266.5" cy="266.5" r="3.5"/>
	<circle cx="239.5" cy="258.5" r="3.5"/>
	<circle cx="228.5" cy="245.5" r="3.5"/>
	<circle cx="256.5" cy="235.5" r="3.5"/>
	<circle cx="293.5" cy="232.5" r="3.5"/>
	<circle cx="327.5" cy="229.5" r="3.5"/>
	<circle cx="365.5" cy="215.5" r="3.5"/>
	<circle cx="393.5" cy="197.5" r="3.5"/>
	<circle cx="415.5" cy="168.5" r="3.5"/>
	<circle cx="422.5" cy="140.5" r="3.5"/>
	<circle cx="414.5" cy="113.5" r="3.5"/>
	<circle cx="396.5" cy="90.5" r="3.5"/>
	<circle cx="373.5" cy="79.5" r="3.5"/>
	<circle cx="345.5" cy="72.5" r="3.5"/>
	<circle cx="304.5" cy="87.5" r="3.5"/>
	<circle cx="268.5" cy="114.5" r="3.5"/>
	<circle cx="236.5" cy="139.5" r="3.5"/>
	<circle cx="203.5" cy="159.5" r="3.5"/>
	<circle cx="165.5" cy="169.5" r="3.5"/>
	<circle cx="123.5" cy="168.5" r="3.5"/>
	<circle cx="76.5" cy="162.5" r="3.5"/>
	<circle cx="47.5" cy="155.5" r="3.5"/>
</g>
</svg>
