<?xml version="1.0" encoding="utf-8"?>
<!-- Generator: Adobe Illustrator 22.1.0, SVG Export Plug-In . SVG Version: 6.00 Build 0)  -->
<svg version="1.1" id="Layer_1" xmlns="http://www.w3.org/2000/svg" xmlns:xlink="http://www.w3.org/1999/xlink" x="0px" y="0px"
	 viewBox="0 0 512 512" style="enable-background:new 0 0 512 512;" xml:space="preserve">
<g>
	<circle cx="21.5" cy="239.5" r="3.5"/>
	<circle cx="52.5" cy="254.5" r="3.5"/>
	<circle cx="74.5" cy="283.5" r="3.5"/>
	<circle cx="70.5" cy="319.5" r="3.5"/>
	<circle cx="51.5" cy="361.5" r="3.5"/>
	<circle cx="44.5" cy="396.5" r="3.5"/>
	<circle cx="55.5" cy="426.5" r="3.5"/>
	<circle cx="86.5" cy="448.5" r="3.5"/>
	<circle cx="127.5" cy="448.5" r="3.5"/>
	<circle cx="155.5" cy="436.5" r="3.5"/>
	<circle cx="171.5" cy="420.5" r="3.5"/>
	<circle cx="164.5" cy="388.5" r="3.5"/>
	<circle cx="153.5" cy="362.5" r="3.5"/>
	<circle cx="139.5" cy="328.5" r="3.5"/>
	<circle cx="164.5" cy="324.5" r="3.5"/>
	<circle cx="237.5" cy="359.5" r="3.5"/>
	<circle cx="280.5" cy="386.5" r="3.5"/>
	<circle cx="326.5" cy="420.5" r="3.5"/>
	<circle cx="358.5" cy="427.5" r="3.5"/>
	<circle cx="396.5" cy="425.5" r="3.5"/>
	<circle cx="426.5" cy="418.5" r="3.5"/>
	<circle cx="454.5" cy="398.5" r="3.5"/>
	<circle cx="474.5" cy="373.5" r="3.5"/>
	<circle cx="479.5" cy="344.5" r="3.5"/>
	<circle cx="475.5" cy="320.5" r="3.5"/>
	<circle cx="462.5" cy="297.5" r="3.5"/>
	<circle cx="441.5" cy="286.5" r="3.5"/>
	<circle cx="410.5" cy="278.5" r="3.5"/>
	<circle cx="385.5" cy="274.5" r="3.5"/>
	<circle cx="345.5" cy="270.5" r="3.5"/>
	<circle cx="304.5" cy="269.5" r="3.5"/>
	<circle cx="266.5" cy="266.5" r="3.5"/>
	<circle cx="239.5" cy="258.5" r="3.5"/>
	<circle cx="228.5" cy="245.5" r="3.5"/>
	<circle cx="256.5" cy="235.5" r="3.5"/>
	<circle cx="293.5" cy="232.5" r="3.5"/>
	<circle cx="327.5" cy="229.5" r="3.5"/>
	<circle cx="365.5" cy="215.5" r="3.5"/>
	<circle cx="393.5" cy="197.5" r="3.5"/>
	<circle cx="415.5" cy="168.5" r="3.5"/>
	<circle cx="422.5" cy="140.5" r="3.5"/>
	<circle cx="414.5" cy="113.5" r="3.5"/>
	<circle cx="396.5" cy="90.5" r="3.5"/>
	<circle cx="373.5" cy="79.5" r="3.5"/>
	<circle cx="345.5" cy="72.5" r="3.5"/>
	<circle cx="304.5" cy="87.5" r="3.5"/>
	<circle cx="268.5" cy="114.5" r="3.5"/>
	<circle cx="236.5" cy="139.5" r="3.5"/>
	<circle cx="203.5" cy="159.5" r="3.5"/>
	<circle cx="165.5" cy="169.5" r="3.5"/>
	<circle cx="123.5" cy="168.5" r="3.5"/>
	<circle cx="76.5" cy="162.5" r="3.5"/>
	<circle cx="47.5" cy="155.5" r="3.5"/>
</g>
</svg>
