<?xml version="1.0" encoding="utf-8"?>
<!-- Generator: Adobe Illustrator 22.1.0, SVG Export Plug-In . SVG Version: 6.00 Build 0)  -->
<svg version="1.1" id="Layer_1" xmlns="http://www.w3.org/2000/svg" xmlns:xlink="http://www.w3.org/1999/xlink" x="0px" y="0px"
	 viewBox="0 0 512 512" style="enable-background:new 0 0 512 512;" xml:space="preserve">
<g>
	<circle cx="222.5" cy="314.5" r="3.5"/>
	<circle cx="230.5" cy="340.5" r="3.5"/>
	<circle cx="237.5" cy="372.5" r="3.5"/>
	<circle cx="241.5" cy="409.5" r="3.5"/>
	<circle cx="226.5" cy="410.5" r="3.5"/>
	<circle cx="244.5" cy="435.5" r="3.5"/>
	<circle cx="262.5" cy="455.5" r="3.5"/>
	<circle cx="286.5" cy="473.5" r="3.5"/>
	<circle cx="310.5" cy="484.5" r="3.5"/>
	<circle cx="334.5" cy="489.5" r="3.5"/>
	<circle cx="357.5" cy="486.5" r="3.5"/>
	<circle cx="378.5" cy="480.5" r="3.5"/>
	<circle cx="403.5" cy="466.5" r="3.5"/>
	<circle cx="424.5" cy="448.5" r="3.5"/>
	<circle cx="442.5" cy="428.5" r="3.5"/>
	<circle cx="458.5" cy="401.5" r="3.5"/>
	<circle cx="464.5" cy="372.5" r="3.5"/>
	<circle cx="461.5" cy="347.5" r="3.5"/>
	<circle cx="451.5" cy="318.5" r="3.5"/>
	<circle cx="436.5" cy="295.5" r="3.5"/>
	<circle cx="432.5" cy="310.5" r="3.5"/>
	<circle cx="419.5" cy="298.5" r="3.5"/>
	<circle cx="399.5" cy="284.5" r="3.5"/>
	<circle cx="371.5" cy="272.5" r="3.5"/>
	<circle cx="341.5" cy="254.5" r="3.5"/>
	<circle cx="328.5" cy="258.5" r="3.5"/>
	<circle cx="341.5" cy="277.5" r="3.5"/>
	<circle cx="327.5" cy="285.5" r="3.5"/>
	<circle cx="295.5" cy="273.5" r="3.5"/>
	<circle cx="270.5" cy="256.5" r="3.5"/>
	<circle cx="260.5" cy="266.5" r="3.5"/>
	<circle cx="267.5" cy="282.5" r="3.5"/>
	<circle cx="283.5" cy="302.5" r="3.5"/>
	<circle cx="278.5" cy="317.5" r="3.5"/>
	<circle cx="263.5" cy="328.5" r="3.5"/>
	<circle cx="248.5" cy="327.5" r="3.5"/>
	<circle cx="233.5" cy="305.5" r="3.5"/>
</g>
</svg>
