<?xml version="1.0" encoding="utf-8"?>
<!-- Generator: Adobe Illustrator 22.1.0, SVG Export Plug-In . SVG Version: 6.00 Build 0)  -->
<svg version="1.1" id="Layer_1" xmlns="http://www.w3.org/2000/svg" xmlns:xlink="http://www.w3.org/1999/xlink" x="0px" y="0px"
	 viewBox="0 0 512 512" style="enable-background:new 0 0 512 512;" xml:space="preserve">
<g>
	<circle cx="243.5" cy="38.5" r="3.5"/>
	<circle cx="228.5" cy="66.5" r="3.5"/>
	<circle cx="193.5" cy="85.5" r="3.5"/>
	<circle cx="177.5" cy="123.5" r="3.5"/>
	<circle cx="163.5" cy="156.5" r="3.5"/>
	<circle cx="148.5" cy="187.5" r="3.5"/>
	<circle cx="135.5" cy="219.5" r="3.5"/>
	<circle cx="123.5" cy="252.5" r="3.5"/>
	<circle cx="105.5" cy="290.5" r="3.5"/>
	<circle cx="87.5" cy="323.5" r="3.5"/>
	<circle cx="75.5" cy="348.5" r="3.5"/>
	<circle cx="18.5" cy="364.5" r="3.5"/>
	<circle cx="59.5" cy="375.5" r="3.5"/>
	<circle cx="32.5" cy="418.5" r="3.5"/>
	<circle cx="54.5" cy="410.5" r="3.5"/>
	<circle cx="72.5" cy="396.5" r="3.5"/>
	<circle cx="95.5" cy="377.5" r="3.5"/>
	<circle cx="138.5" cy="376.5" r="3.5"/>
	<circle cx="94.5" cy="425.5" r="3.5"/>
	<circle cx="111.5" cy="423.5" r="3.5"/>
	<circle cx="135.5" cy="414.5" r="3.5"/>
	<circle cx="162.5" cy="399.5" r="3.5"/>
	<circle cx="207.5" cy="370.5" r="3.5"/>
	<circle cx="244.5" cy="362.5" r="3.5"/>
	<circle cx="280.5" cy="352.5" r="3.5"/>
	<circle cx="313.5" cy="343.5" r="3.5"/>
	<circle cx="352.5" cy="330.5" r="3.5"/>
	<circle cx="396.5" cy="314.5" r="3.5"/>
	<circle cx="455.5" cy="290.5" r="3.5"/>
	<circle cx="462.5" cy="256.5" r="3.5"/>
	<circle cx="484.5" cy="235.5" r="3.5"/>
	<circle cx="484.5" cy="220.5" r="3.5"/>
	<circle cx="474.5" cy="204.5" r="3.5"/>
	<circle cx="439.5" cy="215.5" r="3.5"/>
	<circle cx="396.5" cy="207.5" r="3.5"/>
	<circle cx="344.5" cy="230.5" r="3.5"/>
	<circle cx="372.5" cy="197.5" r="3.5"/>
	<circle cx="396.5" cy="163.5" r="3.5"/>
	<circle cx="386.5" cy="134.5" r="3.5"/>
	<circle cx="392.5" cy="107.5" r="3.5"/>
	<circle cx="387.5" cy="96.5" r="3.5"/>
	<circle cx="370.5" cy="88.5" r="3.5"/>
	<circle cx="349.5" cy="115.5" r="3.5"/>
	<circle cx="312.5" cy="126.5" r="3.5"/>
	<circle cx="288.5" cy="161.5" r="3.5"/>
	<circle cx="269.5" cy="190.5" r="3.5"/>
	<circle cx="244.5" cy="225.5" r="3.5"/>
	<circle cx="219.5" cy="267.5" r="3.5"/>
	<circle cx="197.5" cy="300.5" r="3.5"/>
	<circle cx="153.5" cy="320.5" r="3.5"/>
	<circle cx="179.5" cy="286.5" r="3.5"/>
	<circle cx="201.5" cy="255.5" r="3.5"/>
	<circle cx="225.5" cy="215.5" r="3.5"/>
	<circle cx="251.5" cy="171.5" r="3.5"/>
	<circle cx="269.5" cy="135.5" r="3.5"/>
	<circle cx="283.5" cy="107.5" r="3.5"/>
	<circle cx="269.5" cy="81.5" r="3.5"/>
	<circle cx="271.5" cy="53.5" r="3.5"/>
	<circle cx="259.5" cy="41.5" r="3.5"/>
</g>
</svg>
