<?xml version="1.0" encoding="utf-8"?>
<!-- Generator: Adobe Illustrator 22.1.0, SVG Export Plug-In . SVG Version: 6.00 Build 0)  -->
<svg version="1.1" id="Layer_1" xmlns="http://www.w3.org/2000/svg" xmlns:xlink="http://www.w3.org/1999/xlink" x="0px" y="0px"
	 viewBox="0 0 512 512" style="enable-background:new 0 0 512 512;" xml:space="preserve">
<g>
	<circle cx="201.5" cy="25.5" r="3.5"/>
	<circle cx="165.5" cy="33.5" r="3.5"/>
	<circle cx="154.5" cy="49.5" r="3.5"/>
	<circle cx="133.5" cy="78.5" r="3.5"/>
	<circle cx="118.5" cy="102.5" r="3.5"/>
	<circle cx="108.5" cy="135.5" r="3.5"/>
	<circle cx="101.5" cy="168.5" r="3.5"/>
	<circle cx="95.5" cy="201.5" r="3.5"/>
	<circle cx="88.5" cy="220.5" r="3.5"/>
	<circle cx="79.5" cy="238.5" r="3.5"/>
	<circle cx="75.5" cy="262.5" r="3.5"/>
	<circle cx="65.5" cy="299.5" r="3.5"/>
	<circle cx="58.5" cy="331.5" r="3.5"/>
	<circle cx="53.5" cy="363.5" r="3.5"/>
	<circle cx="49.5" cy="398.5" r="3.5"/>
	<circle cx="48.5" cy="441.5" r="3.5"/>
	<circle cx="53.5" cy="459.5" r="3.5"/>
	<circle cx="70.5" cy="466.5" r="3.5"/>
	<circle cx="91.5" cy="461.5" r="3.5"/>
	<circle cx="128.5" cy="442.5" r="3.5"/>
	<circle cx="164.5" cy="425.5" r="3.5"/>
	<circle cx="203.5" cy="404.5" r="3.5"/>
	<circle cx="236.5" cy="382.5" r="3.5"/>
	<circle cx="266.5" cy="351.5" r="3.5"/>
	<circle cx="289.5" cy="320.5" r="3.5"/>
	<circle cx="313.5" cy="290.5" r="3.5"/>
	<circle cx="339.5" cy="261.5" r="3.5"/>
	<circle cx="369.5" cy="236.5" r="3.5"/>
	<circle cx="407.5" cy="212.5" r="3.5"/>
	<circle cx="445.5" cy="189.5" r="3.5"/>
	<circle cx="461.5" cy="172.5" r="3.5"/>
	<circle cx="465.5" cy="162.5" r="3.5"/>
	<circle cx="454.5" cy="155.5" r="3.5"/>
	<circle cx="431.5" cy="159.5" r="3.5"/>
	<circle cx="412.5" cy="151.5" r="3.5"/>
	<circle cx="403.5" cy="165.5" r="3.5"/>
	<circle cx="387.5" cy="158.5" r="3.5"/>
	<circle cx="372.5" cy="172.5" r="3.5"/>
	<circle cx="372.5" cy="187.5" r="3.5"/>
	<circle cx="354.5" cy="178.5" r="3.5"/>
	<circle cx="339.5" cy="187.5" r="3.5"/>
	<circle cx="316.5" cy="212.5" r="3.5"/>
	<circle cx="326.5" cy="198.5" r="3.5"/>
	<circle cx="325.5" cy="181.5" r="3.5"/>
	<circle cx="330.5" cy="162.5" r="3.5"/>
	<circle cx="325.5" cy="143.5" r="3.5"/>
	<circle cx="330.5" cy="126.5" r="3.5"/>
	<circle cx="322.5" cy="105.5" r="3.5"/>
	<circle cx="302.5" cy="89.5" r="3.5"/>
	<circle cx="283.5" cy="74.5" r="3.5"/>
	<circle cx="259.5" cy="75.5" r="3.5"/>
	<circle cx="233.5" cy="89.5" r="3.5"/>
	<circle cx="219.5" cy="102.5" r="3.5"/>
	<circle cx="204.5" cy="100.5" r="3.5"/>
	<circle cx="201.5" cy="80.5" r="3.5"/>
	<circle cx="211.5" cy="60.5" r="3.5"/>
	<circle cx="208.5" cy="42.5" r="3.5"/>
</g>
</svg>
