<?xml version="1.0" encoding="utf-8"?>
<!-- Generator: Adobe Illustrator 22.1.0, SVG Export Plug-In . SVG Version: 6.00 Build 0)  -->
<svg version="1.1" id="Layer_1" xmlns="http://www.w3.org/2000/svg" xmlns:xlink="http://www.w3.org/1999/xlink" x="0px" y="0px"
	 viewBox="0 0 512 512" style="enable-background:new 0 0 512 512;" xml:space="preserve">
<g>
	<path style="fill:none;stroke:#000000;stroke-width:5;stroke-linecap:round;stroke-linejoin:round;stroke-miterlimit:10;" d="
		M242.6,228.4c-1.6,0.9-3.2,2-4.8,3C239.4,230.4,241,229.3,242.6,228.4z"/>
	<path style="fill:none;stroke:#000000;stroke-width:5;stroke-linecap:round;stroke-linejoin:round;stroke-miterlimit:10;" d="
		M325,203.4c0,0.1,0,0.2-0.1,0.3c-23.1,2.5-51,8.4-75.4,21.2c0.7-0.4,1.2-0.7,2-1.1c0-0.1,0-0.3,0-0.4c-1-12.6-5.2-25.5-20.1-35.4
		c-0.3-0.2-0.7-0.4-1-0.7c-2.2-1.4-4.6-2.7-7.3-4c-25.1-11.9-45.5-5.2-55.3-0.2c-4.3,2.3-7.5,6.4-8.2,11.4
		c-1.4,9.3,0.5,19.4,3.7,30.1c0,0-0.1,0-0.1,0c-42.5-5.5-69.6-14.1-79.6-38.6c-2.3-5.7-1.2-11.9,2.8-16.4
		c10-11,37.2-29.3,106.5-29.3C285.9,140.4,327.7,188.1,325,203.4z"/>
	<path style="fill:none;stroke:#000000;stroke-width:5;stroke-linecap:round;stroke-linejoin:round;stroke-miterlimit:10;" d="
		M247.4,225.6c-1.2,0.7-2.7,1.4-3.9,2.3C244.7,227.2,246.1,226.3,247.4,225.6z"/>
	<path style="fill:none;stroke:#000000;stroke-width:5;stroke-linecap:round;stroke-linejoin:round;stroke-miterlimit:10;" d="
		M358.7,201.5c-8.4,0-20.3,0.4-33.8,1.8c0,0.1,0,0.2-0.1,0.3c-23.1,2.5-51,8.4-75.4,21.2c0.7-0.4,1.2-0.7,2-1.1c0-0.1,0-0.3,0-0.4
		c-0.1,0-0.1,0-0.2,0.1c-0.9-12.5-5.1-25.4-20-35.5c-0.3-0.2-0.7-0.4-1-0.7c-2.2-1.4-4.6-2.7-7.3-4c-25.1-11.9-45.5-5.2-55.3-0.2
		c-4.3,2.3-7.5,6.4-8.2,11.4c-1.4,9.3,0.5,19.4,3.7,30.1c0,0-0.1,0-0.1,0c1.5,4.8,3.3,9.8,5.3,14.8"/>
	<path style="fill:none;stroke:#000000;stroke-width:5;stroke-linecap:round;stroke-linejoin:round;stroke-miterlimit:10;" d="
		M220.7,245.1c8.9-8.9,19.4-16,30.6-21.6c0,0,0,0.1,0,0.1c-11.2,5.7-21.6,12.7-30.4,21.5C220.8,245.1,220.7,245.1,220.7,245.1z"/>
	<path style="fill:none;stroke:#000000;stroke-width:5;stroke-linecap:round;stroke-linejoin:round;stroke-miterlimit:10;" d="
		M333.1,351.3c0,0-139.4-44.3-122.1-92.2c0.1-0.4,0.3-0.7,0.4-1.1c0.1-0.2,0.2-0.5,0.3-0.7v0c1.6-3.5,4-6.9,7.4-10.4
		c0.6-0.6,1.2-1.2,1.8-1.8c8.9-8.8,19.3-15.9,30.4-21.5c0,0,0-0.1,0-0.1c0,0,0.1,0,0.2-0.1c0,0.1,0,0.3,0,0.4
		c-0.7,0.4-1.2,0.7-2,1.1c24.4-12.8,52.3-18.7,75.4-21.2c0-0.1,0-0.2,0.1-0.3c13.5-1.5,25.3-1.8,33.8-1.8"/>
	<path style="fill:none;stroke:#000000;stroke-width:5;stroke-linecap:round;stroke-linejoin:round;stroke-miterlimit:10;" d="
		M251.3,223.6c-11.2,5.7-21.6,12.7-30.4,21.5c-0.6,0.6-1.2,1.2-1.8,1.8c-3.4,3.5-5.8,6.9-7.4,10.4c1.6-3.5,4-7,7.4-10.5
		c0.5-0.5,1-1.1,1.6-1.6c8.9-8.9,19.4-16,30.6-21.6C251.3,223.5,251.3,223.6,251.3,223.6z"/>
	<path style="fill:none;stroke:#000000;stroke-width:5;stroke-linecap:round;stroke-linejoin:round;stroke-miterlimit:10;" d="
		M325,203.4c0,0.1,0,0.2-0.1,0.3c-23.1,2.5-51,8.4-75.4,21.2c0.7-0.4,1.2-0.7,2-1.1c0-0.1,0-0.3,0-0.4
		C275.3,211.4,302.5,205.8,325,203.4z"/>
	<path style="fill:none;stroke:#000000;stroke-width:5;stroke-linecap:round;stroke-linejoin:round;stroke-miterlimit:10;" d="
		M163.2,224.7C163.2,224.7,163.2,224.7,163.2,224.7c-3.1-10.7-5.1-20.8-3.7-30c0.7-5,3.9-9.1,8.2-11.4c9.8-5,30.2-11.7,55.3,0.2
		c2.7,1.3,5.1,2.6,7.3,4c0.3,0.2,0.7,0.4,1,0.7c14.9,10,19.1,23,20,35.5c-11.2,5.7-21.7,12.8-30.6,21.6c-0.5,0.5-1.1,1.1-1.6,1.6
		c-3.4,3.5-5.8,7-7.4,10.5v0c-0.1,0.2-0.2,0.5-0.3,0.7c-0.2,0.4-0.3,0.7-0.4,1.1c-7.9,21.1,14.9,41.6,43,57.9
		c0.2,7.4,0.2,15,0.1,22.6c-6.3,5.4-15.7,10.4-29.5,11.9c-33.6,3.7-42,44.3-29.9,65.5c3.9,6.7,10.7,14.3,19.1,21.2"/>
	<path style="fill:none;stroke:#000000;stroke-width:5;stroke-linecap:round;stroke-linejoin:round;stroke-miterlimit:10;" d="
		M223,183.4c-25.1-11.9-45.5-5.2-55.3-0.2c-4.3,2.3-7.5,6.4-8.2,11.4c-1.4,9.3,0.5,19.4,3.7,30.1c0,0-0.1,0-0.1,0
		c-3.3-10.7-5.2-20.9-3.8-30.2c0.7-5,3.7-9.1,8.2-11.4c10-5,30.2-11.7,55.3,0.2c2.7,1.3,5.2,2.7,7.5,4.2
		C228.1,186,225.7,184.7,223,183.4z"/>
	<path style="fill:none;stroke:#000000;stroke-width:5;stroke-linecap:round;stroke-linejoin:round;stroke-miterlimit:10;" d="
		M251.3,223.6c-11.2,5.7-21.6,12.7-30.4,21.5c-0.6,0.6-1.2,1.2-1.8,1.8c-3.4,3.5-5.8,6.9-7.4,10.4c1.6-3.5,4-7,7.4-10.5
		c0.5-0.5,1-1.1,1.6-1.6c8.9-8.9,19.4-16,30.6-21.6C251.3,223.5,251.3,223.6,251.3,223.6z"/>
	<path style="fill:none;stroke:#000000;stroke-width:5;stroke-linecap:round;stroke-linejoin:round;stroke-miterlimit:10;" d="
		M254.1,339.5c9-7.7,11.6-16.2,11.6-16.2"/>
</g>
<g style="opacity:0;">
	<circle cx="42.5" cy="158.5" r="3.5"/>
	<circle cx="55.5" cy="192.5" r="3.5"/>
	<circle cx="85.5" cy="218.5" r="3.5"/>
	<circle cx="127.5" cy="231.5" r="3.5"/>
	<circle cx="168.5" cy="240.5" r="3.5"/>
	<circle cx="183.5" cy="278.5" r="3.5"/>
	<circle cx="190.5" cy="318.5" r="3.5"/>
	<circle cx="185.5" cy="339.5" r="3.5"/>
	<circle cx="175.5" cy="361.5" r="3.5"/>
	<circle cx="173.5" cy="390.5" r="3.5"/>
	<circle cx="179.5" cy="414.5" r="3.5"/>
	<circle cx="213.5" cy="438.5" r="3.5"/>
	<circle cx="239.5" cy="454.5" r="3.5"/>
	<circle cx="276.5" cy="454.5" r="3.5"/>
	<circle cx="296.5" cy="429.5" r="3.5"/>
	<circle cx="309.5" cy="404.5" r="3.5"/>
	<circle cx="324.5" cy="370.5" r="3.5"/>
	<circle cx="336.5" cy="353.5" r="3.5"/>
	<circle cx="373.5" cy="365.5" r="3.5"/>
	<circle cx="407.5" cy="373.5" r="3.5"/>
	<circle cx="442.5" cy="370.5" r="3.5"/>
	<circle cx="468.5" cy="353.5" r="3.5"/>
	<circle cx="472.5" cy="323.5" r="3.5"/>
	<circle cx="463.5" cy="295.5" r="3.5"/>
	<circle cx="442.5" cy="266.5" r="3.5"/>
	<circle cx="423.5" cy="237.5" r="3.5"/>
	<circle cx="395.5" cy="214.5" r="3.5"/>
	<circle cx="376.5" cy="201.5" r="3.5"/>
	<circle cx="358.5" cy="200.5" r="3.5"/>
	<circle cx="366.5" cy="173.5" r="3.5"/>
	<circle cx="363.5" cy="143.5" r="3.5"/>
	<circle cx="351.5" cy="111.5" r="3.5"/>
	<circle cx="325.5" cy="83.5" r="3.5"/>
	<circle cx="294.5" cy="63.5" r="3.5"/>
	<circle cx="261.5" cy="49.5" r="3.5"/>
	<circle cx="230.5" cy="41.5" r="3.5"/>
	<circle cx="190.5" cy="42.5" r="3.5"/>
	<circle cx="153.5" cy="49.5" r="3.5"/>
	<circle cx="118.5" cy="63.5" r="3.5"/>
	<circle cx="83.5" cy="88.5" r="3.5"/>
	<circle cx="57.5" cy="115.5" r="3.5"/>
</g>
</svg>
