<?xml version="1.0" encoding="utf-8"?>
<!-- Generator: Adobe Illustrator 22.1.0, SVG Export Plug-In . SVG Version: 6.00 Build 0)  -->
<svg version="1.1" id="Layer_1" xmlns="http://www.w3.org/2000/svg" xmlns:xlink="http://www.w3.org/1999/xlink" x="0px" y="0px"
	 viewBox="0 0 512 512" style="enable-background:new 0 0 512 512;" xml:space="preserve">
<g>
	<circle cx="42.5" cy="158.5" r="3.5"/>
	<circle cx="55.5" cy="192.5" r="3.5"/>
	<circle cx="85.5" cy="218.5" r="3.5"/>
	<circle cx="127.5" cy="231.5" r="3.5"/>
	<circle cx="168.5" cy="240.5" r="3.5"/>
	<circle cx="183.5" cy="278.5" r="3.5"/>
	<circle cx="190.5" cy="318.5" r="3.5"/>
	<circle cx="185.5" cy="339.5" r="3.5"/>
	<circle cx="175.5" cy="361.5" r="3.5"/>
	<circle cx="173.5" cy="390.5" r="3.5"/>
	<circle cx="179.5" cy="414.5" r="3.5"/>
	<circle cx="213.5" cy="438.5" r="3.5"/>
	<circle cx="239.5" cy="454.5" r="3.5"/>
	<circle cx="276.5" cy="454.5" r="3.5"/>
	<circle cx="296.5" cy="429.5" r="3.5"/>
	<circle cx="309.5" cy="404.5" r="3.5"/>
	<circle cx="324.5" cy="370.5" r="3.5"/>
	<circle cx="336.5" cy="353.5" r="3.5"/>
	<circle cx="373.5" cy="365.5" r="3.5"/>
	<circle cx="407.5" cy="373.5" r="3.5"/>
	<circle cx="442.5" cy="370.5" r="3.5"/>
	<circle cx="468.5" cy="353.5" r="3.5"/>
	<circle cx="472.5" cy="323.5" r="3.5"/>
	<circle cx="463.5" cy="295.5" r="3.5"/>
	<circle cx="442.5" cy="266.5" r="3.5"/>
	<circle cx="423.5" cy="237.5" r="3.5"/>
	<circle cx="395.5" cy="214.5" r="3.5"/>
	<circle cx="376.5" cy="201.5" r="3.5"/>
	<circle cx="358.5" cy="200.5" r="3.5"/>
	<circle cx="366.5" cy="173.5" r="3.5"/>
	<circle cx="363.5" cy="143.5" r="3.5"/>
	<circle cx="351.5" cy="111.5" r="3.5"/>
	<circle cx="325.5" cy="83.5" r="3.5"/>
	<circle cx="294.5" cy="63.5" r="3.5"/>
	<circle cx="261.5" cy="49.5" r="3.5"/>
	<circle cx="230.5" cy="41.5" r="3.5"/>
	<circle cx="190.5" cy="42.5" r="3.5"/>
	<circle cx="153.5" cy="49.5" r="3.5"/>
	<circle cx="118.5" cy="63.5" r="3.5"/>
	<circle cx="83.5" cy="88.5" r="3.5"/>
	<circle cx="57.5" cy="115.5" r="3.5"/>
</g>
</svg>
