<?xml version="1.0" encoding="utf-8"?>
<!-- Generator: Adobe Illustrator 22.1.0, SVG Export Plug-In . SVG Version: 6.00 Build 0)  -->
<svg version="1.1" id="Layer_1" xmlns="http://www.w3.org/2000/svg" xmlns:xlink="http://www.w3.org/1999/xlink" x="0px" y="0px"
	 viewBox="0 0 512 512" style="enable-background:new 0 0 512 512;" xml:space="preserve">
<g>
	<circle cx="192.5" cy="44.5" r="3.5"/>
	<circle cx="206.5" cy="88.5" r="3.5"/>
	<circle cx="161.5" cy="116.5" r="3.5"/>
	<circle cx="119.5" cy="147.5" r="3.5"/>
	<circle cx="71.5" cy="201.5" r="3.5"/>
	<circle cx="41.5" cy="252.5" r="3.5"/>
	<circle cx="38.5" cy="304.5" r="3.5"/>
	<circle cx="48.5" cy="348.5" r="3.5"/>
	<circle cx="70.5" cy="380.5" r="3.5"/>
	<circle cx="102.5" cy="412.5" r="3.5"/>
	<circle cx="140.5" cy="432.5" r="3.5"/>
	<circle cx="180.5" cy="446.5" r="3.5"/>
	<circle cx="197.5" cy="450.5" r="3.5"/>
	<circle cx="193.5" cy="466.5" r="3.5"/>
	<circle cx="253.5" cy="466.5" r="3.5"/>
	<circle cx="312.5" cy="463.5" r="3.5"/>
	<circle cx="353.5" cy="461.5" r="3.5"/>
	<circle cx="339.5" cy="444.5" r="3.5"/>
	<circle cx="392.5" cy="424.5" r="3.5"/>
	<circle cx="432.5" cy="386.5" r="3.5"/>
	<circle cx="456.5" cy="340.5" r="3.5"/>
	<circle cx="462.5" cy="286.5" r="3.5"/>
	<circle cx="452.5" cy="236.5" r="3.5"/>
	<circle cx="428.5" cy="186.5" r="3.5"/>
	<circle cx="396.5" cy="156.5" r="3.5"/>
	<circle cx="359.5" cy="131.5" r="3.5"/>
	<circle cx="319.5" cy="108.5" r="3.5"/>
	<circle cx="261.5" cy="88.5" r="3.5"/>
	<circle cx="273.5" cy="44.5" r="3.5"/>
	<circle cx="231.5" cy="68.5" r="3.5"/>
</g>
</svg>
