<?xml version="1.0" encoding="utf-8"?>
<!-- Generator: Adobe Illustrator 22.1.0, SVG Export Plug-In . SVG Version: 6.00 Build 0)  -->
<svg version="1.1" id="Layer_1" xmlns="http://www.w3.org/2000/svg" xmlns:xlink="http://www.w3.org/1999/xlink" x="0px" y="0px"
	 viewBox="0 0 512 512" style="enable-background:new 0 0 512 512;" xml:space="preserve">
<g>
	<path style="fill:none;stroke:#000000;stroke-miterlimit:10;" d="M398.9,132.2c0.2,0,0.2,0,0.4,0c9.6-13.3,19.1-26.6,27.9-40.1
		c-2.6-7.3-7.9-13.3-14.8-16.7c-13.3,12.9-26.8,26.2-40.5,39.7C376.6,125.1,386.9,132.2,398.9,132.2z"/>
	<path style="fill:none;stroke:#000000;stroke-miterlimit:10;" d="M359.6,182.8c10.3-12.4,20.2-24.9,29.6-37.3
		c-3-12-13.1-21-25.7-22.3c-10.9,10.9-22.1,22.1-33.2,33.4C332.2,171.2,344.4,182.6,359.6,182.8z"/>
	<path style="fill:none;stroke:#000000;stroke-miterlimit:10;" d="M318.5,230c10.9-11.8,21.4-23.8,31.7-36c-2.8-13.7-15-24-29.4-24
		c-1.5,0-2.8,0.2-4.1,0.2c-8.6,8.8-17.2,17.6-25.7,26.4c-0.2,1.1-0.2,2.1-0.2,3.2C290.8,215.8,303,228.7,318.5,230z"/>
	<path style="fill:none;stroke:#000000;stroke-miterlimit:10;" d="M276.7,271.5c0.9,0,1.5,0,2.1-0.2c9.4-9.4,18.7-19.1,27.7-28.7
		c0-0.4,0-0.9,0-1.3c0-16.5-13.3-29.8-29.8-30c-10.1,10.5-20.2,21-30.2,31.5C247.5,259.1,260.6,271.5,276.7,271.5z"/>
	<path style="fill:none;stroke:#000000;stroke-miterlimit:10;" d="M232.1,316.6c10.9-10.1,21.7-20.4,32.2-30.7
		c-0.4-16.3-13.7-29.2-30-29.2c-0.2,0-0.4,0-0.4,0c-9.9,10.5-19.7,21-29.4,31.5C205.3,303.3,217.1,315.5,232.1,316.6z"/>
	<path style="fill:none;stroke:#000000;stroke-miterlimit:10;" d="M184.5,359c11.8-10.3,23.4-20.6,34.9-30.9
		c-0.6-14.6-11.6-26.4-25.7-28.5c-11.1,12-22.3,24.2-33.4,36.2C162.8,347.9,172.5,357.1,184.5,359z"/>
	<path style="fill:none;stroke:#000000;stroke-miterlimit:10;" d="M133,401.9c13.9-11.4,27.9-22.7,41.4-34.3
		c-2.6-11.1-11.4-19.9-22.5-22.5c-11.8,12.9-23.6,25.9-35.2,38.8C119.3,392,125.3,398.7,133,401.9z"/>
	<path style="fill:none;stroke:#000000;stroke-miterlimit:10;" d="M469,22C378.5,191.4,223.3,340.1,33.8,478"/>
	<path style="fill:none;stroke:#000000;stroke-miterlimit:10;" d="M33.8,478C173.1,317.6,330.3,150.4,468.1,22.2"/>
</g>
<g style="opacity:0;">
	<circle cx="468.5" cy="22.5" r="3.5"/>
	<circle cx="411.5" cy="43.5" r="3.5"/>
	<circle cx="333.5" cy="87.5" r="3.5"/>
	<circle cx="276.5" cy="132.5" r="3.5"/>
	<circle cx="219.5" cy="185.5" r="3.5"/>
	<circle cx="179.5" cy="233.5" r="3.5"/>
	<circle cx="137.5" cy="286.5" r="3.5"/>
	<circle cx="103.5" cy="341.5" r="3.5"/>
	<circle cx="67.5" cy="405.5" r="3.5"/>
	<circle cx="33.5" cy="474.5" r="3.5"/>
	<circle cx="93.5" cy="453.5" r="3.5"/>
	<circle cx="160.5" cy="421.5" r="3.5"/>
	<circle cx="219.5" cy="384.5" r="3.5"/>
	<circle cx="283.5" cy="329.5" r="3.5"/>
	<circle cx="340.5" cy="268.5" r="3.5"/>
	<circle cx="385.5" cy="207.5" r="3.5"/>
	<circle cx="423.5" cy="143.5" r="3.5"/>
	<circle cx="451.5" cy="78.5" r="3.5"/>
</g>
</svg>
