<?xml version="1.0" encoding="utf-8"?>
<!-- Generator: Adobe Illustrator 22.1.0, SVG Export Plug-In . SVG Version: 6.00 Build 0)  -->
<svg version="1.1" id="Layer_1" xmlns="http://www.w3.org/2000/svg" xmlns:xlink="http://www.w3.org/1999/xlink" x="0px" y="0px"
	 viewBox="0 0 512 512" style="enable-background:new 0 0 512 512;" xml:space="preserve">
<g>
	<circle cx="54.5" cy="202.5" r="3.5"/>
	<circle cx="35.5" cy="242.5" r="3.5"/>
	<circle cx="31.5" cy="280.5" r="3.5"/>
	<circle cx="39.5" cy="311.5" r="3.5"/>
	<circle cx="52.5" cy="335.5" r="3.5"/>
	<circle cx="80.5" cy="358.5" r="3.5"/>
	<circle cx="117.5" cy="374.5" r="3.5"/>
	<circle cx="165.5" cy="378.5" r="3.5"/>
	<circle cx="209.5" cy="367.5" r="3.5"/>
	<circle cx="234.5" cy="354.5" r="3.5"/>
	<circle cx="248.5" cy="383.5" r="3.5"/>
	<circle cx="276.5" cy="406.5" r="3.5"/>
	<circle cx="304.5" cy="417.5" r="3.5"/>
	<circle cx="346.5" cy="421.5" r="3.5"/>
	<circle cx="391.5" cy="417.5" r="3.5"/>
	<circle cx="428.5" cy="395.5" r="3.5"/>
	<circle cx="458.5" cy="362.5" r="3.5"/>
	<circle cx="475.5" cy="329.5" r="3.5"/>
	<circle cx="477.5" cy="287.5" r="3.5"/>
	<circle cx="466.5" cy="256.5" r="3.5"/>
	<circle cx="434.5" cy="229.5" r="3.5"/>
	<circle cx="434.5" cy="190.5" r="3.5"/>
	<circle cx="419.5" cy="156.5" r="3.5"/>
	<circle cx="397.5" cy="130.5" r="3.5"/>
	<circle cx="370.5" cy="116.5" r="3.5"/>
	<circle cx="341.5" cy="108.5" r="3.5"/>
	<circle cx="308.5" cy="108.5" r="3.5"/>
	<circle cx="265.5" cy="113.5" r="3.5"/>
	<circle cx="211.5" cy="125.5" r="3.5"/>
	<circle cx="168.5" cy="139.5" r="3.5"/>
	<circle cx="117.5" cy="156.5" r="3.5"/>
	<circle cx="80.5" cy="175.5" r="3.5"/>
</g>
</svg>
