<?xml version="1.0" encoding="utf-8"?>
<!-- Generator: Adobe Illustrator 22.1.0, SVG Export Plug-In . SVG Version: 6.00 Build 0)  -->
<svg version="1.1" id="Layer_1" xmlns="http://www.w3.org/2000/svg" xmlns:xlink="http://www.w3.org/1999/xlink" x="0px" y="0px"
	 viewBox="0 0 512 512" style="enable-background:new 0 0 512 512;" xml:space="preserve">
<g style="opacity:0;">
	<circle cx="275.5" cy="74.5" r="3.5"/>
	<circle cx="255.5" cy="99.5" r="3.5"/>
	<circle cx="247.5" cy="150.5" r="3.5"/>
	<circle cx="194.5" cy="141.5" r="3.5"/>
	<circle cx="141.5" cy="145.5" r="3.5"/>
	<circle cx="90.5" cy="173.5" r="3.5"/>
	<circle cx="53.5" cy="214.5" r="3.5"/>
	<circle cx="35.5" cy="261.5" r="3.5"/>
	<circle cx="29.5" cy="303.5" r="3.5"/>
	<circle cx="35.5" cy="351.5" r="3.5"/>
	<circle cx="53.5" cy="395.5" r="3.5"/>
	<circle cx="92.5" cy="435.5" r="3.5"/>
	<circle cx="148.5" cy="459.5" r="3.5"/>
	<circle cx="205.5" cy="463.5" r="3.5"/>
	<circle cx="258.5" cy="455.5" r="3.5"/>
	<circle cx="313.5" cy="469.5" r="3.5"/>
	<circle cx="376.5" cy="463.5" r="3.5"/>
	<circle cx="431.5" cy="435.5" r="3.5"/>
	<circle cx="463.5" cy="398.5" r="3.5"/>
	<circle cx="486.5" cy="347.5" r="3.5"/>
	<circle cx="490.5" cy="287.5" r="3.5"/>
	<circle cx="478.5" cy="245.5" r="3.5"/>
	<circle cx="458.5" cy="209.5" r="3.5"/>
	<circle cx="429.5" cy="178.5" r="3.5"/>
	<circle cx="394.5" cy="159.5" r="3.5"/>
	<circle cx="361.5" cy="150.5" r="3.5"/>
	<circle cx="306.5" cy="150.5" r="3.5"/>
	<circle cx="285.5" cy="150.5" r="3.5"/>
	<circle cx="283.5" cy="115.5" r="3.5"/>
	<circle cx="310.5" cy="86.5" r="3.5"/>
</g>
<g>
	<path d="M344,159c147.8,87.3,155.5,179.7,56,276C456,344.2,454.3,252.5,344,159z"/>
	<path d="M283,164c127,141.5,151.4,239.8,50,285C406,395.2,374.7,293.5,283,164z"/>
	<path d="M221,435c-12.1-82.5-7.5-166.4,17-252C184,278.9,181,362.2,221,435z"/>
	<path d="M201,164c-75,82.1-100.3,173.7-53,279C76.3,337.8,59.9,240.2,201,164z"/>
	<path d="M137,159c-0.8,0.9-1.7,1.8-2.5,2.7C43.1,263.1,42.9,345.8,94,418C63,384-33.2,305.4,137,159z"/>
</g>
</svg>
