<?xml version="1.0" encoding="utf-8"?>
<!-- Generator: Adobe Illustrator 22.1.0, SVG Export Plug-In . SVG Version: 6.00 Build 0)  -->
<svg version="1.1" id="Layer_1" xmlns="http://www.w3.org/2000/svg" xmlns:xlink="http://www.w3.org/1999/xlink" x="0px" y="0px"
	 viewBox="0 0 512 512" style="enable-background:new 0 0 512 512;" xml:space="preserve">
<g>
	<circle cx="260.5" cy="204.5" r="3.5"/>
	<circle cx="229.5" cy="216.5" r="3.5"/>
	<circle cx="210.5" cy="236.5" r="3.5"/>
	<circle cx="197.5" cy="261.5" r="3.5"/>
	<circle cx="173.5" cy="282.5" r="3.5"/>
	<circle cx="154.5" cy="319.5" r="3.5"/>
	<circle cx="126.5" cy="341.5" r="3.5"/>
	<circle cx="105.5" cy="365.5" r="3.5"/>
	<circle cx="98.5" cy="382.5" r="3.5"/>
	<circle cx="81.5" cy="401.5" r="3.5"/>
	<circle cx="70.5" cy="423.5" r="3.5"/>
	<circle cx="19.5" cy="499.5" r="3.5"/>
	<circle cx="94.5" cy="458.5" r="3.5"/>
	<circle cx="120.5" cy="445.5" r="3.5"/>
	<circle cx="144.5" cy="423.5" r="3.5"/>
	<circle cx="167.5" cy="410.5" r="3.5"/>
	<circle cx="198.5" cy="386.5" r="3.5"/>
	<circle cx="220.5" cy="357.5" r="3.5"/>
	<circle cx="236.5" cy="351.5" r="3.5"/>
	<circle cx="252.5" cy="337.5" r="3.5"/>
	<circle cx="273.5" cy="304.5" r="3.5"/>
	<circle cx="292.5" cy="294.5" r="3.5"/>
	<circle cx="307.5" cy="275.5" r="3.5"/>
	<circle cx="311.5" cy="252.5" r="3.5"/>
	<circle cx="292.5" cy="220.5" r="3.5"/>
</g>
</svg>
