<?xml version="1.0" encoding="utf-8"?>
<!-- Generator: Adobe Illustrator 22.1.0, SVG Export Plug-In . SVG Version: 6.00 Build 0)  -->
<svg version="1.1" id="Layer_1" xmlns="http://www.w3.org/2000/svg" xmlns:xlink="http://www.w3.org/1999/xlink" x="0px" y="0px"
	 viewBox="0 0 512 512" style="enable-background:new 0 0 512 512;" xml:space="preserve">
<g>
	<circle cx="427.5" cy="100.5" r="3.5"/>
	<circle cx="411.5" cy="93.5" r="3.5"/>
	<circle cx="396.5" cy="86.5" r="3.5"/>
	<circle cx="365.5" cy="80.5" r="3.5"/>
	<circle cx="345.5" cy="86.5" r="3.5"/>
	<circle cx="327.5" cy="100.5" r="3.5"/>
	<circle cx="302.5" cy="113.5" r="3.5"/>
	<circle cx="285.5" cy="136.5" r="3.5"/>
	<circle cx="278.5" cy="168.5" r="3.5"/>
	<circle cx="264.5" cy="195.5" r="3.5"/>
	<circle cx="272.5" cy="230.5" r="3.5"/>
	<circle cx="249.5" cy="257.5" r="3.5"/>
	<circle cx="221" cy="286" r="3.5"/>
	<circle cx="194.5" cy="318.5" r="3.5"/>
	<circle cx="164.5" cy="349.6" r="3.5"/>
	<circle cx="140.5" cy="378.6" r="3.5"/>
	<circle cx="112.5" cy="409.6" r="3.5"/>
	<circle cx="79.5" cy="445.6" r="3.5"/>
	<circle cx="102.5" cy="464.6" r="3.5"/>
	<circle cx="129.5" cy="436.6" r="3.5"/>
	<circle cx="163.5" cy="398.6" r="3.5"/>
	<circle cx="196.5" cy="364.6" r="3.5"/>
	<circle cx="219.5" cy="338.6" r="3.5"/>
	<circle cx="247.5" cy="309.6" r="3.5"/>
	<circle cx="274.6" cy="280.6" r="3.5"/>
	<circle cx="305.6" cy="259.6" r="3.5"/>
	<circle cx="347.6" cy="257.6" r="3.5"/>
	<circle cx="369.6" cy="239.6" r="3.5"/>
	<circle cx="397.6" cy="226.6" r="3.5"/>
	<circle cx="417.6" cy="218.6" r="3.5"/>
	<circle cx="424.6" cy="199.5" r="3.5"/>
	<circle cx="438.6" cy="178.5" r="3.5"/>
	<circle cx="450.6" cy="164.5" r="3.5"/>
	<circle cx="445.6" cy="147.5" r="3.5"/>
	<circle cx="440.6" cy="118.5" r="3.5"/>
</g>
</svg>
