<?xml version="1.0" encoding="utf-8"?>
<!-- Generator: Adobe Illustrator 22.1.0, SVG Export Plug-In . SVG Version: 6.00 Build 0)  -->
<svg version="1.1" id="Layer_1" xmlns="http://www.w3.org/2000/svg" xmlns:xlink="http://www.w3.org/1999/xlink" x="0px" y="0px"
	 viewBox="0 0 512 512" style="enable-background:new 0 0 512 512;" xml:space="preserve">
<g>
	<circle cx="318.5" cy="32.5" r="3.5"/>
	<circle cx="288.5" cy="32.5" r="3.5"/>
	<circle cx="260.5" cy="41.5" r="3.5"/>
	<circle cx="243.5" cy="55.5" r="3.5"/>
	<circle cx="214.5" cy="70.5" r="3.5"/>
	<circle cx="190.5" cy="87.5" r="3.5"/>
	<circle cx="167.5" cy="112.5" r="3.5"/>
	<circle cx="147.5" cy="97.5" r="3.5"/>
	<circle cx="118.5" cy="87.5" r="3.5"/>
	<circle cx="90.5" cy="102.5" r="3.5"/>
	<circle cx="73.5" cy="127.5" r="3.5"/>
	<circle cx="55.5" cy="151.5" r="3.5"/>
	<circle cx="42.5" cy="179.5" r="3.5"/>
	<circle cx="34.5" cy="211.5" r="3.5"/>
	<circle cx="34.5" cy="249.5" r="3.5"/>
	<circle cx="43.5" cy="286.5" r="3.5"/>
	<circle cx="53.5" cy="316.5" r="3.5"/>
	<circle cx="67.5" cy="351.5" r="3.5"/>
	<circle cx="86.5" cy="381.5" r="3.5"/>
	<circle cx="102.5" cy="397.5" r="3.5"/>
	<circle cx="129.5" cy="394.5" r="3.5"/>
	<circle cx="159.5" cy="390.5" r="3.5"/>
	<circle cx="181.5" cy="421.5" r="3.5"/>
	<circle cx="200.5" cy="432.5" r="3.5"/>
	<circle cx="225.5" cy="438.5" r="3.5"/>
	<circle cx="258.5" cy="438.5" r="3.5"/>
	<circle cx="290.5" cy="434.5" r="3.5"/>
	<circle cx="324.5" cy="431.5" r="3.5"/>
	<circle cx="356.5" cy="423.5" r="3.5"/>
	<circle cx="392.5" cy="407.5" r="3.5"/>
	<circle cx="417.5" cy="388.5" r="3.5"/>
	<circle cx="440.5" cy="364.5" r="3.5"/>
	<circle cx="460.5" cy="330.5" r="3.5"/>
	<circle cx="477.5" cy="302.5" r="3.5"/>
	<circle cx="481.5" cy="281.5" r="3.5"/>
	<circle cx="477.5" cy="265.5" r="3.5"/>
	<circle cx="460.5" cy="244.5" r="3.5"/>
	<circle cx="433.5" cy="231.5" r="3.5"/>
	<circle cx="408.5" cy="226.5" r="3.5"/>
	<circle cx="378.5" cy="215.5" r="3.5"/>
	<circle cx="377.5" cy="177.5" r="3.5"/>
	<circle cx="370.5" cy="144.5" r="3.5"/>
	<circle cx="360.5" cy="114.5" r="3.5"/>
	<circle cx="355.5" cy="83.5" r="3.5"/>
	<circle cx="338.5" cy="51.5" r="3.5"/>
</g>
</svg>
