<?xml version="1.0" encoding="utf-8"?>
<!-- Generator: Adobe Illustrator 17.1.0, SVG Export Plug-In . SVG Version: 6.00 Build 0)  -->
<!DOCTYPE svg PUBLIC "-//W3C//DTD SVG 1.1//EN" "http://www.w3.org/Graphics/SVG/1.1/DTD/svg11.dtd" [
	<!ENTITY ns_flows "http://ns.adobe.com/Flows/1.0/">
	<!ENTITY ns_extend "http://ns.adobe.com/Extensibility/1.0/">
	<!ENTITY ns_ai "http://ns.adobe.com/AdobeIllustrator/10.0/">
	<!ENTITY ns_graphs "http://ns.adobe.com/Graphs/1.0/">
]>
<svg version="1.1" id="Layer_1" xmlns:x="&ns_extend;" xmlns:i="&ns_ai;" xmlns:graph="&ns_graphs;"
	 xmlns="http://www.w3.org/2000/svg" xmlns:xlink="http://www.w3.org/1999/xlink" xmlns:a="http://ns.adobe.com/AdobeSVGViewerExtensions/3.0/"
	 x="0px" y="0px" viewBox="0 0 403.4 420" style="enable-background:new 0 0 403.4 420;" xml:space="preserve">
<g>
	<g>
		<g>
			<path style="fill:#FFFFFF;" d="M339.4,420H63.8C28.6,420,0,391.4,0,356.2V80.6c0-35.3,28.6-63.8,63.8-63.8h275.6
				c35.3,0,63.8,28.6,63.8,63.8v275.6C403.2,391.4,374.6,420,339.4,420z"/>
			<g>
				<path style="fill:#DBBEDC;" d="M339.4,403.6H63.8C28.6,403.6,0,375.1,0,339.8V64.2C0,29,28.6,0.4,63.8,0.4h275.6
					c35.3,0,63.8,28.6,63.8,63.8v275.6C403.2,375.1,374.6,403.6,339.4,403.6z"/>
			</g>
			<path style="fill:none;stroke:#FFFFFF;stroke-width:10;stroke-miterlimit:10;" d="M304.2,185.5h-84.9v-84.9
				c0-10.7-8.6-19.3-19.3-19.3h-0.4c-10.7,0-19.3,8.6-19.3,19.3v84.9H95.3c-10.7,0-19.3,8.6-19.3,19.3v0.4
				c0,10.7,8.6,19.3,19.3,19.3h84.9v84.9c0,10.7,8.6,19.3,19.3,19.3h0.4c10.7,0,19.3-8.6,19.3-19.3v-84.9h84.9
				c10.7,0,19.3-8.6,19.3-19.3v-0.4C323.5,194.1,314.8,185.5,304.2,185.5z"/>
			<path style="fill:#FFFFFF;" d="M359.9,60.3h-24.8V35.5c0-3.1-2.5-5.6-5.6-5.6h-0.1c-3.1,0-5.6,2.5-5.6,5.6v24.8H299
				c-3.1,0-5.6,2.5-5.6,5.6V66c0,3.1,2.5,5.6,5.6,5.6h24.8v24.8c0,3.1,2.5,5.6,5.6,5.6h0.1c3.1,0,5.6-2.5,5.6-5.6V71.7h24.8
				c3.1,0,5.6-2.5,5.6-5.6v-0.1C365.5,62.8,363,60.3,359.9,60.3z"/>
			<path style="fill:#FFFFFF;" d="M91.2,339H66.4v-24.8c0-3.1-2.5-5.6-5.6-5.6h-0.1c-3.1,0-5.6,2.5-5.6,5.6V339H30.3
				c-3.1,0-5.6,2.5-5.6,5.6v0.1c0,3.1,2.5,5.6,5.6,5.6h24.8v24.8c0,3.1,2.5,5.6,5.6,5.6h0.1c3.1,0,5.6-2.5,5.6-5.6v-24.8h24.8
				c3.1,0,5.6-2.5,5.6-5.6v-0.1C96.8,341.5,94.3,339,91.2,339z"/>
		</g>
	</g>
</g>
</svg>
