<?xml version="1.0" encoding="utf-8"?>
<!-- Generator: Adobe Illustrator 17.1.0, SVG Export Plug-In . SVG Version: 6.00 Build 0)  -->
<!DOCTYPE svg PUBLIC "-//W3C//DTD SVG 1.1//EN" "http://www.w3.org/Graphics/SVG/1.1/DTD/svg11.dtd" [
	<!ENTITY ns_flows "http://ns.adobe.com/Flows/1.0/">
	<!ENTITY ns_extend "http://ns.adobe.com/Extensibility/1.0/">
	<!ENTITY ns_ai "http://ns.adobe.com/AdobeIllustrator/10.0/">
	<!ENTITY ns_graphs "http://ns.adobe.com/Graphs/1.0/">
]>
<svg version="1.1" id="Layer_1" xmlns:x="&ns_extend;" xmlns:i="&ns_ai;" xmlns:graph="&ns_graphs;"
	 xmlns="http://www.w3.org/2000/svg" xmlns:xlink="http://www.w3.org/1999/xlink" xmlns:a="http://ns.adobe.com/AdobeSVGViewerExtensions/3.0/"
	 x="0px" y="0px" viewBox="0 0 1500.8 1094.8" style="enable-background:new 0 0 1500.8 1094.8;" xml:space="preserve">
<g style="opacity:0.2;">
	<path style="fill:#3B5892;" d="M129.8,204.8h-14.2v-14.2c0-4.7-3.8-8.5-8.5-8.5h-0.2c-4.7,0-8.5,3.8-8.5,8.5v14.2H84.2
		c-4.7,0-8.5,3.8-8.5,8.5v0.2c0,4.7,3.8,8.5,8.5,8.5h14.2v14.2c0,4.7,3.8,8.5,8.5,8.5h0.2c4.7,0,8.5-3.8,8.5-8.5v-14.2h14.2
		c4.7,0,8.5-3.8,8.5-8.5v-0.2C138.3,208.6,134.5,204.8,129.8,204.8z"/>
	<path style="fill:#3B5892;" d="M615.2,739.7h-10.1v-10.1c0-3.3-2.7-6-6-6h-0.1c-3.3,0-6,2.7-6,6v10.1h-10.1c-3.3,0-6,2.7-6,6v0.1
		c0,3.3,2.7,6,6,6h10.1V762c0,3.3,2.7,6,6,6h0.1c3.3,0,6-2.7,6-6v-10.1h10.1c3.3,0,6-2.7,6-6v-0.1
		C621.2,742.4,618.5,739.7,615.2,739.7z"/>
	<path style="fill:#3B5892;" d="M352,68.6h-8.7v-8.7c0-2.9-2.3-5.2-5.2-5.2h-0.1c-2.9,0-5.2,2.3-5.2,5.2v8.7H324
		c-2.9,0-5.2,2.3-5.2,5.2v0.1c0,2.9,2.3,5.2,5.2,5.2h8.7v8.7c0,2.9,2.3,5.2,5.2,5.2h0.1c2.9,0,5.2-2.3,5.2-5.2v-8.7h8.7
		c2.9,0,5.2-2.3,5.2-5.2v-0.1C357.2,70.9,354.9,68.6,352,68.6z"/>
	<path style="fill:#3B5892;" d="M376.5,437.2l-10,10l-10-10c-3.3-3.3-8.7-3.3-12,0l-0.1,0.1c-3.3,3.3-3.3,8.7,0,12l10,10l-10,10
		c-3.3,3.3-3.3,8.7,0,12l0.1,0.1c3.3,3.3,8.7,3.3,12,0l10-10l10,10c3.3,3.3,8.7,3.3,12,0l0.1-0.1c3.3-3.3,3.3-8.7,0-12l-10-10l10-10
		c3.3-3.3,3.3-8.7,0-12l-0.1-0.1C385.2,433.9,379.8,433.9,376.5,437.2z"/>
	<path style="fill:#3B5892;" d="M97.5,627.7l-10,10l-10-10c-3.3-3.3-8.7-3.3-12,0l-0.1,0.1c-3.3,3.3-3.3,8.7,0,12l10,10l-10,10
		c-3.3,3.3-3.3,8.7,0,12l0.1,0.1c3.3,3.3,8.7,3.3,12,0l10-10l10,10c3.3,3.3,8.7,3.3,12,0l0.1-0.1c3.3-3.3,3.3-8.7,0-12l-10-10l10-10
		c3.3-3.3,3.3-8.7,0-12l-0.1-0.1C106.2,624.4,100.9,624.4,97.5,627.7z"/>
	<circle style="fill:#3B5892;" cx="311.1" cy="250.5" r="13.5"/>
	<circle style="fill:#3B5892;" cx="56.1" cy="72" r="9"/>
	<circle style="fill:#3B5892;" cx="42.6" cy="456" r="7.5"/>
	<circle style="fill:#3B5892;" cx="336.6" cy="778.5" r="6"/>
	<circle style="fill:#3B5892;" cx="448.3" cy="627.8" r="6.7"/>
	<circle style="fill:#3B5892;" cx="182.1" cy="1024.5" r="7.5"/>
	<circle style="fill:#3B5892;" cx="656.1" cy="1030.5" r="9"/>
	<rect x="875.1" y="976.5" style="fill:#3B5892;" width="15" height="15"/>
	<rect x="188.1" y="454.5" style="fill:#3B5892;" width="12" height="12"/>
	<rect x="182.1" y="12" style="fill:#3B5892;" width="22.5" height="22.5"/>
	<rect x="17.1" y="994.5" style="fill:#3B5892;" width="15" height="15"/>
</g>
<g style="opacity:0.2;">
	<path style="fill:#3B5892;" d="M1500.8,69.2c0-38.2-31-69.2-69.2-69.2l-0.7,0C1430.9,0,405,0,405,0
		c0,577.3,446.4,1050.3,1012.9,1092.7c44.7,3.3,82.9-32,82.9-76.8v-921V69.2z"/>
	<path style="fill:#4B6EA6;" d="M1500.8,69.2c0-38.2-31-69.2-69.2-69.2l-0.7,0c0,0-918.9,0-918.9,0c0,546.1,442.7,988.8,988.8,988.8
		c0,0,0-893.9,0-893.9C1500.8,94.9,1500.8,69.2,1500.8,69.2z"/>
	<path style="fill:#6589BF;" d="M1500.8,69.2c0-38.2-31-69.2-69.2-69.2l-0.7,0c0,0-822.4,0-822.4,0c0,492.8,399.5,892.3,892.3,892.3
		c0,0,0-797.4,0-797.4C1500.8,94.9,1500.8,69.2,1500.8,69.2z"/>
	<path style="fill:#80A6D2;" d="M1500.8,69.2c0-38.2-31-69.2-69.2-69.2h-0.7H695.6c0,444.7,360.5,805.2,805.2,805.2V94.9V69.2z"/>
	<path style="fill:#E078A8;" d="M1500.7,69.9c0-38.2-31-69.2-69.2-69.2h-0.7H774.2c0,401.3,325.3,726.6,726.6,726.6V95.6V69.9z"/>
	<path style="fill:#E895C0;" d="M1500.8,69.2c0-38.2-31-69.2-69.2-69.2h-0.7H845.1c0,362.1,293.5,655.7,655.7,655.7V94.9V69.2z"/>
	<path style="fill:#ECB0D0;" d="M1500.8,68.4c0-37.8-30.6-68.4-68.4-68.4h-0.7H915.7c0,323.1,261.9,585,585,585V93.8V68.4z"/>
	<path style="fill:#EFCBDF;" d="M1500.7,66.3c0-36.6-29.7-66.3-66.3-66.3h-0.7H989.3c0,282.5,229,511.5,511.5,511.5V90.9V66.3z"/>
	<path style="fill:#FFFFFF;" d="M1500.7,64.9c0-35.4-28.7-64.2-64.2-64.2h-0.6h-382c0,246.8,200.1,446.9,446.9,446.9V88.7V64.9z"/>
</g>
</svg>
