<?xml version="1.0" encoding="utf-8"?>
<!-- Generator: Adobe Illustrator 17.1.0, SVG Export Plug-In . SVG Version: 6.00 Build 0)  -->
<!DOCTYPE svg PUBLIC "-//W3C//DTD SVG 1.1//EN" "http://www.w3.org/Graphics/SVG/1.1/DTD/svg11.dtd" [
	<!ENTITY ns_flows "http://ns.adobe.com/Flows/1.0/">
	<!ENTITY ns_extend "http://ns.adobe.com/Extensibility/1.0/">
	<!ENTITY ns_ai "http://ns.adobe.com/AdobeIllustrator/10.0/">
	<!ENTITY ns_graphs "http://ns.adobe.com/Graphs/1.0/">
]>
<svg version="1.1" id="Layer_1" xmlns:x="&ns_extend;" xmlns:i="&ns_ai;" xmlns:graph="&ns_graphs;"
	 xmlns="http://www.w3.org/2000/svg" xmlns:xlink="http://www.w3.org/1999/xlink" xmlns:a="http://ns.adobe.com/AdobeSVGViewerExtensions/3.0/"
	 x="0px" y="0px" viewBox="0 0 403.4 420" style="enable-background:new 0 0 403.4 420;" xml:space="preserve">
<g>
	<g>
		<g>
			<g>
				<path style="fill:#FFFFFF;" d="M339.4,419.6H63.8C28.6,419.6,0,391,0,355.8V80.2c0-35.3,28.6-63.8,63.8-63.8h275.6
					c35.3,0,63.8,28.6,63.8,63.8v275.6C403.2,391,374.6,419.6,339.4,419.6z"/>
				<path style="fill:#1B9390;" d="M339.4,403.2H63.8C28.6,403.2,0,374.6,0,339.4V63.8C0,28.6,28.6,0,63.8,0h275.6
					c35.3,0,63.8,28.6,63.8,63.8v275.6C403.2,374.6,374.6,403.2,339.4,403.2z"/>
				<path style="fill:none;stroke:#FFFFFF;stroke-width:10;stroke-miterlimit:10;" d="M165.3,346.2h-104c-6.5,0-11.7-5.3-11.7-11.7
					V75.9c0-6.5,5.3-11.7,11.7-11.7h104c6.5,0,11.7,5.3,11.7,11.7v258.5C177,340.9,171.7,346.2,165.3,346.2z"/>
				<path style="fill:none;stroke:#FFFFFF;stroke-width:10;stroke-miterlimit:10;" d="M338.4,347.5H232.1c-5.8,0-10.6-4.7-10.6-10.6
					V144.1c0-5.8,4.7-10.6,10.6-10.6h106.3c5.8,0,10.6,4.7,10.6,10.6v192.8C349,342.8,344.3,347.5,338.4,347.5z"/>
				
					<line style="fill:none;stroke:#FFFFFF;stroke-width:5;stroke-linecap:round;stroke-miterlimit:10;" x1="64.4" y1="205.1" x2="158.4" y2="205.1"/>
				
					<line style="fill:none;stroke:#FFFFFF;stroke-width:5;stroke-linecap:round;stroke-miterlimit:10;" x1="237.4" y1="242.1" x2="331.4" y2="242.1"/>
				<circle style="fill:#FFFFFF;" cx="88.6" cy="237.7" r="9"/>
				<circle style="fill:#FFFFFF;" cx="138.1" cy="238.2" r="9"/>
				<circle style="fill:#FFFFFF;" cx="261.1" cy="293.7" r="9"/>
				<circle style="fill:#FFFFFF;" cx="310.6" cy="294.2" r="9"/>
				<circle style="fill:#FFFFFF;" cx="88.1" cy="272.2" r="9"/>
				<circle style="fill:#FFFFFF;" cx="137.6" cy="272.7" r="9"/>
				<circle style="fill:#FFFFFF;" cx="87.6" cy="306.7" r="9"/>
				<circle style="fill:#FFFFFF;" cx="137.1" cy="307.2" r="9"/>
				<text transform="matrix(1 0 0 1 98.4484 160.3013)" style="fill:#FFFFFF; font-family:'MyriadPro-Bold'; font-size:64.1707;">6</text>
				<text transform="matrix(1 0 0 1 267.9484 208.8013)" style="fill:#FFFFFF; font-family:'MyriadPro-Bold'; font-size:64.1707;">2</text>
			</g>
		</g>
	</g>
</g>
</svg>
