<?xml version="1.0" encoding="utf-8"?>
<!-- Generator: Adobe Illustrator 17.1.0, SVG Export Plug-In . SVG Version: 6.00 Build 0)  -->
<!DOCTYPE svg PUBLIC "-//W3C//DTD SVG 1.1//EN" "http://www.w3.org/Graphics/SVG/1.1/DTD/svg11.dtd" [
	<!ENTITY ns_flows "http://ns.adobe.com/Flows/1.0/">
	<!ENTITY ns_extend "http://ns.adobe.com/Extensibility/1.0/">
	<!ENTITY ns_ai "http://ns.adobe.com/AdobeIllustrator/10.0/">
	<!ENTITY ns_graphs "http://ns.adobe.com/Graphs/1.0/">
]>
<svg version="1.1" id="Layer_1" xmlns:x="&ns_extend;" xmlns:i="&ns_ai;" xmlns:graph="&ns_graphs;"
	 xmlns="http://www.w3.org/2000/svg" xmlns:xlink="http://www.w3.org/1999/xlink" xmlns:a="http://ns.adobe.com/AdobeSVGViewerExtensions/3.0/"
	 x="0px" y="0px" viewBox="0 0 403.4 420" style="enable-background:new 0 0 403.4 420;" xml:space="preserve">
<g>
	<g>
		<path style="fill:#FFFFFF;" d="M327,420.1H76.2c-42.2,0-76.4-32.8-76.4-73.2V106.4C-0.2,66,34,33.2,76.2,33.2H327
			c42.2,0,76.4,32.8,76.4,73.2v240.5C403.4,387.4,369.2,420.1,327,420.1z"/>
		<path style="fill:#F1572C;" d="M327,395.3H76.2c-42.2,0-76.4-33.5-76.4-74.8V74.8C-0.2,33.5,34,0,76.2,0H327
			c42.2,0,76.4,33.5,76.4,74.8v245.7C403.4,361.8,369.2,395.3,327,395.3z"/>
		<path style="fill:none;stroke:#FFFFFF;stroke-width:10;stroke-miterlimit:10;" d="M321.7,343.3h-240c-9.9,0-18-8.1-18-18v-27
			c0-9.9,8.1-18,18-18h240c9.9,0,18,8.1,18,18v27C339.7,335.3,331.7,343.3,321.7,343.3z"/>
		<path style="fill:none;stroke:#FFFFFF;stroke-width:10;stroke-miterlimit:10;" d="M295.8,246H111.7c-7.6,0-13.8-6.2-13.8-13.8
			v-20.7c0-7.6,6.2-13.8,13.8-13.8h184.1c7.6,0,13.8,6.2,13.8,13.8v20.7C309.6,239.8,303.4,246,295.8,246z"/>
		<path style="fill:none;stroke:#FFFFFF;stroke-width:10;stroke-miterlimit:10;" d="M277,160.8H133.5c-5.9,0-10.8-4.8-10.8-10.8
			v-16.1c0-5.9,4.8-10.8,10.8-10.8H277c5.9,0,10.8,4.8,10.8,10.8V150C287.8,155.9,283,160.8,277,160.8z"/>
		<path style="fill:none;stroke:#FFFFFF;stroke-width:10;stroke-miterlimit:10;" d="M265.5,79.4H147.4c-4.9,0-8.9-4-8.9-8.9V57.2
			c0-4.9,4-8.9,8.9-8.9h118.1c4.9,0,8.9,4,8.9,8.9v13.3C274.4,75.4,270.4,79.4,265.5,79.4z"/>
	</g>
</g>
</svg>
