<?xml version="1.0" encoding="utf-8"?>
<!-- Generator: Adobe Illustrator 17.1.0, SVG Export Plug-In . SVG Version: 6.00 Build 0)  -->
<!DOCTYPE svg PUBLIC "-//W3C//DTD SVG 1.1//EN" "http://www.w3.org/Graphics/SVG/1.1/DTD/svg11.dtd" [
	<!ENTITY ns_flows "http://ns.adobe.com/Flows/1.0/">
	<!ENTITY ns_extend "http://ns.adobe.com/Extensibility/1.0/">
	<!ENTITY ns_ai "http://ns.adobe.com/AdobeIllustrator/10.0/">
	<!ENTITY ns_graphs "http://ns.adobe.com/Graphs/1.0/">
]>
<svg version="1.1" id="Layer_1" xmlns:x="&ns_extend;" xmlns:i="&ns_ai;" xmlns:graph="&ns_graphs;"
	 xmlns="http://www.w3.org/2000/svg" xmlns:xlink="http://www.w3.org/1999/xlink" xmlns:a="http://ns.adobe.com/AdobeSVGViewerExtensions/3.0/"
	 x="0px" y="0px" viewBox="0 0 403.4 420" style="enable-background:new 0 0 403.4 420;" xml:space="preserve">
<g>
	<g>
		<g>
			<path style="fill:#FFFFFF;" d="M0,355.8V80.2c0-35.3,28.6-63.8,63.8-63.8h275.6c35.3,0,63.8,28.6,63.8,63.8v275.6
				c0,35.3-28.6,63.8-63.8,63.8H63.8C28.6,419.6,0,391,0,355.8"/>
			<path style="fill:#356789;" d="M339.4,403.2H63.8C28.6,403.2,0,374.6,0,339.4V63.8C0,28.6,28.6,0,63.8,0h275.6
				c35.3,0,63.8,28.6,63.8,63.8v275.6C403.2,374.6,374.6,403.2,339.4,403.2z"/>
			<circle style="fill:none;stroke:#FFFFFF;stroke-width:10;stroke-miterlimit:10;" cx="115.8" cy="111.6" r="63.9"/>
			<path style="fill:none;stroke:#FFFFFF;stroke-width:10;stroke-miterlimit:10;" d="M337.7,178.3h-98.1c-7.9,0-14.3-6.4-14.3-14.3
				V65.8c0-7.9,6.4-14.3,14.3-14.3h98.1c7.9,0,14.3,6.4,14.3,14.3v98.1C352,171.9,345.6,178.3,337.7,178.3z"/>
			<path style="fill:none;stroke:#FFFFFF;stroke-width:10;stroke-miterlimit:10;" d="M171.1,352.1H63c-4.3,0-7.1-4.5-5.2-8.3
				l52.8-108.1c2.1-4.3,8.2-4.3,10.4-0.1l55.2,108.1C178.2,347.5,175.4,352.1,171.1,352.1z"/>
			<path style="fill:none;stroke:#FFFFFF;stroke-width:10;stroke-miterlimit:10;" d="M290.3,227.7l18,36.5l40.3,5.9
				c2.3,0.3,3.2,3.1,1.5,4.7l-29.2,28.4l6.9,40.2c0.4,2.3-2,4-4,2.9l-36.1-19l-36.1,19c-2,1.1-4.4-0.7-4-2.9l6.9-40.2l-29.2-28.4
				c-1.6-1.6-0.7-4.4,1.5-4.7l40.3-5.9l18-36.5C286.4,225.7,289.3,225.7,290.3,227.7z"/>
		</g>
	</g>
</g>
</svg>
