<?xml version="1.0" encoding="utf-8"?>
<!-- Generator: Adobe Illustrator 17.1.0, SVG Export Plug-In . SVG Version: 6.00 Build 0)  -->
<!DOCTYPE svg PUBLIC "-//W3C//DTD SVG 1.1//EN" "http://www.w3.org/Graphics/SVG/1.1/DTD/svg11.dtd" [
	<!ENTITY ns_flows "http://ns.adobe.com/Flows/1.0/">
	<!ENTITY ns_extend "http://ns.adobe.com/Extensibility/1.0/">
	<!ENTITY ns_ai "http://ns.adobe.com/AdobeIllustrator/10.0/">
	<!ENTITY ns_graphs "http://ns.adobe.com/Graphs/1.0/">
]>
<svg version="1.1" id="Layer_1" xmlns:x="&ns_extend;" xmlns:i="&ns_ai;" xmlns:graph="&ns_graphs;"
	 xmlns="http://www.w3.org/2000/svg" xmlns:xlink="http://www.w3.org/1999/xlink" xmlns:a="http://ns.adobe.com/AdobeSVGViewerExtensions/3.0/"
	 x="0px" y="0px" viewBox="0 0 403.4 420" style="enable-background:new 0 0 403.4 420;" xml:space="preserve">
<g>
	<g>
		<g>
			<path style="fill:#FFFFFF;" d="M339.4,419.6H63.8C28.6,419.6,0,391,0,355.8V80.2c0-35.3,28.6-63.8,63.8-63.8h275.6
				c35.3,0,63.8,28.6,63.8,63.8v275.6C403.2,391,374.6,419.6,339.4,419.6z"/>
			<path style="fill:#C83B79;" d="M339.4,403.2H63.8C28.6,403.2,0,374.6,0,339.4V63.8C0,28.6,28.6,0,63.8,0h275.6
				c35.3,0,63.8,28.6,63.8,63.8v275.6C403.2,374.6,374.6,403.2,339.4,403.2z"/>
			<path style="fill:none;stroke:#FFFFFF;stroke-width:10;stroke-miterlimit:10;" d="M176.5,182.9h-107c-6.4,0-11.5-5.1-11.5-11.5
				v-107c0-6.4,5.1-11.5,11.5-11.5h107c6.4,0,11.5,5.1,11.5,11.5v107C188,177.8,182.9,182.9,176.5,182.9z"/>
			<path style="fill:#FFFFFF;" d="M178.5,344.9h-107c-6.4,0-11.5-5.1-11.5-11.5v-107c0-6.4,5.1-11.5,11.5-11.5h107
				c6.4,0,11.5,5.1,11.5,11.5v107C190,339.8,184.9,344.9,178.5,344.9z"/>
			<path style="fill:#FFFFFF;" d="M339.9,182.3h-107c-6.4,0-11.5-5.1-11.5-11.5v-107c0-6.4,5.1-11.5,11.5-11.5h107
				c6.4,0,11.5,5.1,11.5,11.5v107C351.4,177.1,346.2,182.3,339.9,182.3z"/>
			<path style="fill:none;stroke:#FFFFFF;stroke-width:10;stroke-miterlimit:10;" d="M341.9,344.3h-107c-6.4,0-11.5-5.1-11.5-11.5
				v-107c0-6.4,5.1-11.5,11.5-11.5h107c6.4,0,11.5,5.1,11.5,11.5v107C353.4,339.1,348.2,344.3,341.9,344.3z"/>
		</g>
	</g>
</g>
</svg>
