<?xml version="1.0" encoding="utf-8"?>
<!-- Generator: Adobe Illustrator 22.1.0, SVG Export Plug-In . SVG Version: 6.00 Build 0)  -->
<svg version="1.1" id="Layer_1" xmlns="http://www.w3.org/2000/svg" xmlns:xlink="http://www.w3.org/1999/xlink" x="0px" y="0px"
	 viewBox="0 0 196 164" style="enable-background:new 0 0 196 164;" xml:space="preserve">
<g>
	<g>
		<path style="fill:#F48A2A;" d="M134.2,105.8c-0.4,0-0.9-0.1-1.3-0.3c-1.5-0.7-2.1-2.5-1.4-4l25.6-52.3c0.7-1.5,2.5-2.1,4-1.4
			c1.5,0.7,2.1,2.5,1.4,4l-25.6,52.3C136.4,105.2,135.3,105.8,134.2,105.8z"/>
	</g>
	<g>
		<path style="fill:#F48A2A;" d="M68.6,105.8c-1.1,0-2.2-0.6-2.7-1.7L40.2,51.9c-0.7-1.5-0.1-3.3,1.4-4c1.5-0.7,3.3-0.1,4,1.4
			l25.6,52.3c0.7,1.5,0.1,3.3-1.4,4C69.5,105.8,69,105.8,68.6,105.8z"/>
	</g>
	<g>
		<polygon style="fill:#F9D53D;" points="33.3,26 42.5,34.2 54.4,31.4 49.4,42.6 55.8,53.1 43.6,51.8 35.6,61.1 33.1,49.1 
			21.7,44.4 32.4,38.2 		"/>
	</g>
	<g>
		<polygon style="fill:#F9D53D;" points="169.3,26.6 160.2,34.8 148.3,32 153.3,43.2 146.8,53.7 159.1,52.4 167.1,61.7 169.6,49.7 
			181,45 170.3,38.9 		"/>
	</g>
	<g>
		<path style="fill:#F9D335;" d="M162.2,137c-1.4,0-2.6-0.9-2.9-2.3c0-0.1-2.2-8.9-10.3-17.6c-10.8-11.6-26.5-17.5-46.7-17.5
			c-20,0-35.5,6-46.2,17.7c-7.9,8.7-10,17.3-10,17.4c-0.4,1.6-2,2.6-3.6,2.3c-1.6-0.4-2.6-2-2.3-3.6c0.1-0.4,2.5-10.2,11.4-20.1
			c8.2-9,23.6-19.7,50.7-19.7c27.5,0,43.1,10.7,51.3,19.7c9,9.8,11.5,19.7,11.5,20.1c0.4,1.6-0.6,3.3-2.2,3.6
			C162.7,137,162.5,137,162.2,137z"/>
	</g>
</g>
</svg>
