<?xml version="1.0" encoding="utf-8"?>
<!-- Generator: Adobe Illustrator 22.1.0, SVG Export Plug-In . SVG Version: 6.00 Build 0)  -->
<svg version="1.1" id="Layer_1" xmlns="http://www.w3.org/2000/svg" xmlns:xlink="http://www.w3.org/1999/xlink" x="0px" y="0px"
	 viewBox="0 0 196 164" style="enable-background:new 0 0 196 164;" xml:space="preserve">
<g>
	<path style="fill:#1CC9B4;" d="M34.5,89.9c-2.3-1.3-17.6-13.8-10.4-15.8s48.5-1.6,63.4,10.4l4.6-1.6l5.5,19c0,0,6.1,28.5-0.8,37.3
		c-6.9,8.8-23.5-5.7-23.5-5.7L34.5,89.9z"/>
	<path style="fill:#1CC9B4;" d="M126.8,30.4c-0.3-2.6-5.8-21.6-10.4-15.8s-19,40.1-13.8,58.6l-4.8,7.4l15.9,9.3c0,0,23.2,20,34,17.1
		s4-23.9,4-23.9L126.8,30.4z"/>
	<path style="fill:#28E5C5;" d="M87.2,82c0,0-80.1-2.2-60.6,13.1c11.7,9.2,13.7,3.7,19.6,12.5s4.1,42.6,27,34.5
		c11.2-3.9,25.7-42.4,25.7-42.4L87.2,82z"/>
	<path style="fill:#28E5C5;" d="M100,73.5c0,0,28.5-73.9,34.9-49.9c3.9,14.4,3.5,16,9.4,24.9c5.8,8.9,29,20.4,15.5,36.4
		c-7.6,9.1-48.1,6.3-48.1,6.3L100,73.5z"/>
	<g style="opacity:0.6;">
		<path style="fill:#1BBFA0;" d="M109.1,82.8c-0.1-0.1,0.1-0.5,0.2-0.5l0.1,0l0,0l0.1,0l0.1-0.1l0.3-0.2l0.5-0.3l1-0.6l2.1-1.2
			c1.4-0.8,2.9-1.5,4.4-2.2c3-1.4,6-2.6,9.1-3.7c1.6-0.5,3.2-0.9,4.8-1.3c1.6-0.4,3.3-0.6,5.1-0.7c1.7-0.1,3.5,0,5.4,0.5
			c0.9,0.3,1.9,0.6,2.7,1.2c0.8,0.6,1.6,1.1,2.3,2.3c0.3,0.6,0.7,1.5,0.5,2.5c-0.2,1-0.8,1.6-1.2,2.1c-1,0.8-1.9,1.1-2.7,1.5
			c-1.7,0.6-3.4,0.9-5,1.2c-3.3,0.5-6.6,0.7-9.8,0.8c-3.3,0.1-6.5,0.1-9.7,0c-1.6-0.1-3.2-0.1-4.9-0.2l-2.4-0.2l-1.2-0.1l-0.6-0.1
			l-0.3,0l-0.2,0c0,0-0.2,0-0.3-0.1C109.3,83.1,109.2,82.9,109.1,82.8z M110.1,82.6c0-0.1,0-0.2-0.1-0.3c-0.1-0.1-0.3-0.1-0.2-0.1
			l0.2,0l0.3,0l0.6,0l1.2-0.1l2.4-0.2l4.8-0.3c3.2-0.2,6.4-0.5,9.6-0.8c3.2-0.3,6.4-0.7,9.4-1.3c1.5-0.3,3-0.7,4.4-1.1
			c0.6-0.2,1.3-0.6,1.5-0.8c0.1-0.1,0.1-0.1,0,0c0,0.2,0,0.3,0,0.2c-0.1-0.2-0.7-0.7-1.2-1c-0.5-0.3-1-0.6-1.7-0.7
			c-1.3-0.4-2.7-0.5-4.2-0.4c-3,0.1-6.1,0.7-9.1,1.5c-3.1,0.8-6.1,1.7-9.1,2.8c-1.5,0.5-3,1.1-4.5,1.6l-2.3,0.8l-1.1,0.4l-0.6,0.2
			l-0.3,0.1l-0.1,0.1l-0.1,0l0,0c0,0-0.1,0,0,0C110.1,83.1,110.2,82.7,110.1,82.6z"/>
	</g>
	<g style="opacity:0.6;">
		<path style="fill:#1BBFA0;" d="M110.5,78.6c1.6-3.7,2.9-7.5,4-11.3c0.6-1.9,1.1-3.8,1.5-5.7c0.4-1.9,0.7-3.8,1.1-5.9
			c0.8-4,2-7.9,3.4-11.8c0.7-1.9,1.6-3.8,2.5-5.7c0.5-0.9,1-1.9,1.8-2.8c0.4-0.5,0.8-1,1.5-1.5c0.4-0.2,0.9-0.5,1.7-0.6
			c0.4,0,0.9,0.1,1.2,0.3c0.4,0.2,0.6,0.4,0.8,0.7c0.7,0.9,0.8,1.6,1,2.2c0.1,0.6,0.2,1.2,0.3,1.7c0.1,0.5,0.1,1.1,0.1,1.7
			c0,0.6-0.1,1.1-0.1,1.7c-0.3,2.2-0.8,4.3-1.5,6.2c-1.5,3.9-3.3,7.6-5.3,11.1C120.5,66,115.8,72.6,110.5,78.6z M110.5,78.6
			c4-7,8-13.9,11.5-21c1.7-3.6,3.4-7.2,4.5-10.8c0.6-1.8,1.1-3.7,1.2-5.5c0-0.4,0.1-0.9,0.1-1.3c0-0.4,0-0.8-0.1-1.3
			c-0.1-0.4-0.1-0.9-0.2-1.2c-0.1-0.3-0.3-0.7-0.2-0.6c0,0,0.1,0.1,0.3,0.2c0.1,0.1,0.4,0.1,0.5,0.1c0.3,0,0.4-0.1,0.3-0.1
			c-0.1,0.1-0.4,0.3-0.6,0.6c-0.5,0.6-1,1.4-1.4,2.3c-0.9,1.7-1.7,3.5-2.5,5.3c-1.5,3.6-2.8,7.4-3.9,11.1c-0.5,1.8-1,3.9-1.6,5.8
			c-0.6,1.9-1.3,3.9-2.1,5.7C114.6,71.7,112.8,75.3,110.5,78.6z"/>
	</g>
	<g style="opacity:0.6;">
		<path style="fill:#1BBFA0;" d="M91.8,91.9c0.1,0.1,0.4,0.1,0.5,0c0.1-0.1,0,0,0,0l0,0L92.3,92l-0.1,0.1L92,92.3l-0.4,0.4l-0.8,0.9
			l-1.7,1.7c-1.1,1.2-2.2,2.3-3.3,3.5c-2.1,2.4-4.2,4.8-6.1,7.3c-1.9,2.5-3.7,5.1-5,7.8c-0.6,1.3-1.1,2.7-1.3,4
			c-0.1,0.6-0.1,1.3,0,1.8c0.1,0.6,0.3,1.3,0.5,1.5c0.1,0.1,0,0-0.2,0c-0.2,0-0.2,0,0,0c0.3-0.1,0.9-0.6,1.3-1.1
			c1-1,1.9-2.3,2.8-3.6c1.7-2.6,3.3-5.4,4.9-8.2c1.5-2.8,3-5.6,4.5-8.5l2.2-4.3l1.1-2.2l0.6-1.1l0.3-0.5l0.1-0.3l0.1-0.1
			c0-0.1,0,0.1,0,0.2C91.6,91.8,91.7,91.9,91.8,91.9z M92.4,91.1c0.1,0.1,0.2,0.2,0.2,0.4c0,0.2-0.1,0.4-0.1,0.3l0,0.1l-0.1,0.3
			l-0.2,0.6L91.8,94L91,96.3c-0.5,1.5-1.1,3-1.7,4.6c-1.2,3-2.4,6-3.8,9c-1.4,3-2.9,5.9-4.6,8.7c-0.9,1.4-1.8,2.8-3,4.2
			c-0.6,0.7-1.3,1.3-2.4,1.9c-0.6,0.3-1.4,0.5-2.4,0.3c-1-0.2-1.7-0.9-2.1-1.4c-0.8-1.1-1-2-1.2-3c-0.2-1-0.2-2,0-3
			c0.3-1.9,0.9-3.6,1.7-5.2c0.8-1.6,1.7-3,2.7-4.4c1-1.4,2-2.7,3.1-3.9c2.2-2.5,4.5-4.8,7-7c1.2-1.1,2.5-2.1,3.8-3.1l1.9-1.5l1-0.7
			l0.5-0.4l0.3-0.2l0.1-0.1l0.1,0l0,0l0.1,0C92,90.9,92.3,91,92.4,91.1z"/>
	</g>
	<g style="opacity:0.6;">
		<g>
			<path style="fill:#1BBFA0;" d="M88,90.6c-4,0.8-8,1.1-12.1,1.1c-2,0-4.1-0.1-6.1-0.3c-2-0.2-4.1-0.6-6-0.8
				c-3.9-0.5-7.8-0.8-11.8-0.8c-2,0-3.9,0-5.8,0.2c-0.9,0.1-1.9,0.2-2.6,0.4c-0.4,0.1-0.7,0.3-0.8,0.3c0,0,0.1,0,0.2-0.3
				c0.1-0.1,0.1-0.4,0.1-0.5c0-0.2,0-0.3-0.1-0.3c-0.1-0.1,0.1,0.2,0.4,0.4c0.3,0.2,0.7,0.5,1,0.7c0.4,0.2,0.8,0.4,1.2,0.6
				c0.4,0.2,0.8,0.3,1.2,0.5c1.7,0.5,3.6,0.8,5.5,1c3.8,0.4,7.8,0.3,11.7,0.1C72.1,92.5,80,91.6,88,90.6z M88,90.6
				c-7.7,2.5-15.6,4.3-23.6,5.3c-4,0.5-8.1,0.7-12.3,0.5c-2.1-0.1-4.2-0.4-6.3-1c-0.5-0.2-1.1-0.3-1.6-0.6c-0.5-0.2-1.1-0.5-1.5-0.7
				c-0.5-0.3-1-0.6-1.5-0.9c-0.5-0.4-1.1-0.8-1.6-1.8c-0.1-0.3-0.2-0.6-0.3-1c0-0.4,0-0.9,0.2-1.3c0.4-0.8,0.8-1.1,1.2-1.4
				c0.8-0.5,1.4-0.6,1.9-0.8c1.2-0.3,2.2-0.4,3.3-0.5c2.1-0.2,4.2-0.2,6.2-0.1c4.1,0.2,8.1,0.6,12.2,1.5c2.1,0.4,3.9,0.9,5.9,1.3
				c1.9,0.4,3.9,0.7,5.9,0.9C80,90.4,84,90.6,88,90.6z"/>
		</g>
	</g>
	<path style="fill:#F4EF4A;" d="M113.4,97.2l-7.6,5c-3.6,2.4-8.5,1.4-10.9-2.2l-8.3-12.5c-2.4-3.6-1.4-8.5,2.2-10.9l7.6-5
		c3.6-2.4,8.5-1.4,10.9,2.2l8.3,12.5C118,90,117,94.8,113.4,97.2z"/>
</g>
</svg>
