<?xml version="1.0" encoding="utf-8"?>
<!-- Generator: Adobe Illustrator 22.1.0, SVG Export Plug-In . SVG Version: 6.00 Build 0)  -->
<svg version="1.1" id="Layer_1" xmlns="http://www.w3.org/2000/svg" xmlns:xlink="http://www.w3.org/1999/xlink" x="0px" y="0px"
	 viewBox="0 0 196 164" style="enable-background:new 0 0 196 164;" xml:space="preserve">
<g>
	<g>
		<circle style="fill:#F9D335;" cx="97.9" cy="21.9" r="3.9"/>
	</g>
	<g>
		<circle style="fill:#F9D335;" cx="92.2" cy="25.4" r="3.1"/>
	</g>
	<g>
		<circle style="fill:#F9D335;" cx="103.6" cy="25.4" r="3.1"/>
	</g>
	<g style="opacity:0.9;">
		<path style="fill:#F9D335;" d="M94.4,131.3H70.8c-3.4,0-6.3-2.5-6.9-5.9c-1-6.4-4.9-25-10.1-33.7c-4.6-7.6-8.5-23.5-0.6-36
			c5-7.9,16.2-16.9,41.8-14.6c3.8,0.3,6.7,3.7,6.3,7.6c-0.3,3.8-3.7,6.7-7.6,6.3c-10.3-0.9-23.6-0.2-28.8,8.1
			c-4.3,6.8-2.1,16.6,0.8,21.4c5.5,9.1,9.1,24.4,10.8,32.8h17.8c3.9,0,7,3.1,7,7S98.3,131.3,94.4,131.3z"/>
	</g>
	<g style="opacity:0.9;">
		<path style="fill:#F9D335;" d="M52,136.4c-3.8,0-6.9-3.1-7-6.9c0-0.7-0.6-15.2-16.2-32.3C18.8,86.4,14.7,73.7,17,61.6
			c2-10.1,8.4-18.5,17.1-22.6c10.3-4.9,23.1-2.4,34.4-0.3c6.1,1.2,11.9,2.2,16.1,2c3.8-0.2,7.1,2.7,7.4,6.6c0.2,3.8-2.7,7.1-6.6,7.4
			C79.5,55,72.9,53.7,66,52.4c-9.2-1.7-19.7-3.7-25.9-0.8c-4.6,2.2-8.2,7.1-9.3,12.7c-1.5,7.6,1.5,16,8.3,23.4
			C58.8,109.2,59,128.6,59,129.4C59,133.3,55.9,136.4,52,136.4z"/>
	</g>
	<g style="opacity:0.9;">
		<path style="fill:#F9D335;" d="M125,131.3h-23.6c-3.9,0-7-3.1-7-7s3.1-7,7-7h17.8c1.7-8.4,5.3-23.6,10.8-32.8
			c2.9-4.8,5-14.6,0.8-21.4c-5.2-8.4-18.5-9-28.8-8.1c-3.9,0.3-7.2-2.5-7.6-6.3c-0.3-3.8,2.5-7.2,6.3-7.6
			c25.6-2.2,36.9,6.7,41.8,14.6c7.8,12.5,3.9,28.4-0.6,36c-5.2,8.7-9.1,27.3-10.1,33.7C131.3,128.9,128.4,131.3,125,131.3z"/>
	</g>
	<g style="opacity:0.9;">
		<path style="fill:#F9D335;" d="M144.6,136.4c-3.9,0-7-3.1-7-7c0-0.8,0.2-20.3,19.9-41.7c6.9-7.5,9.8-15.8,8.4-23.4
			c-1.1-5.6-4.7-10.5-9.3-12.7c-6.2-2.9-16.7-1-25.9,0.8c-7,1.3-13.6,2.6-19.5,2.2c-3.8-0.2-6.8-3.5-6.6-7.4
			c0.2-3.8,3.5-6.8,7.4-6.6c4.2,0.2,10-0.8,16.1-2c11.3-2.1,24.1-4.6,34.4,0.3c8.7,4.1,15.1,12.6,17.1,22.6
			c2.4,12.1-1.8,24.7-11.8,35.6c-15.8,17.2-16.2,32.1-16.2,32.2C151.6,133.3,148.5,136.4,144.6,136.4z"/>
	</g>
	<g>
		<path style="fill:#F9D335;" d="M97.9,128.7c-3.9,0-7-3.1-7-7V47.6c0-3.9,3.1-7,7-7c3.9,0,7,3.1,7,7v74.1
			C104.9,125.6,101.7,128.7,97.9,128.7z"/>
	</g>
	<g>
		<path style="fill:none;stroke:#F4BF2C;stroke-width:11;stroke-linecap:round;stroke-linejoin:round;stroke-miterlimit:10;" d="
			M97.9,38.1"/>
	</g>
	<g>
		<circle style="fill:#4289CE;" cx="97.9" cy="33.7" r="9.6"/>
	</g>
	<g>
		<path style="fill:#F4BF2C;" d="M151.9,136.6c-36,3.8-72.1,3.8-108.1,0l-2.4-21.8c37.1,2.9,74.7,2.9,112.9,0L151.9,136.6z"/>
	</g>
	<g>
		<circle style="fill:#4289CE;" cx="97.9" cy="128.6" r="6.1"/>
	</g>
	<g>
		<circle style="fill:#4289CE;" cx="113.2" cy="128.6" r="3.9"/>
	</g>
	<g>
		<circle style="fill:#4289CE;" cx="127.1" cy="128.6" r="3.9"/>
	</g>
	<g>
		<circle style="fill:#4289CE;" cx="141.1" cy="128.6" r="3.9"/>
	</g>
	<g>
		<circle style="fill:#4289CE;" cx="53" cy="128.6" r="3.9"/>
	</g>
	<g>
		<circle style="fill:#4289CE;" cx="66.9" cy="128.6" r="3.9"/>
	</g>
	<g>
		<circle style="fill:#4289CE;" cx="80.9" cy="128.6" r="3.9"/>
	</g>
</g>
</svg>
