<?xml version="1.0" encoding="utf-8"?>
<!-- Generator: Adobe Illustrator 22.1.0, SVG Export Plug-In . SVG Version: 6.00 Build 0)  -->
<svg version="1.1" id="Layer_1" xmlns="http://www.w3.org/2000/svg" xmlns:xlink="http://www.w3.org/1999/xlink" x="0px" y="0px"
	 viewBox="0 0 196 164" style="enable-background:new 0 0 196 164;" xml:space="preserve">
<g>
	<path style="fill:#3F933F;" d="M58.6,81.7c0,0,3.1-11-11.8-11.8c0,0,2.4,5.5,0,8.6c-2.4,3.1,5.1,8.7,10,8.3
		C61.7,86.4,58.6,81.7,58.6,81.7z"/>
	<path style="fill:none;stroke:#1D931D;stroke-miterlimit:10;" d="M16.2,78.6c0,0,77.7,22,160.1,0"/>
	<path style="fill:#3F933F;" d="M79,79.4c0,0-2.4-2.4,4.7-4.7c7.1-2.4,8.6-6.3,8.6-6.3s3.9,4.7-1.6,9.4C85.2,82.5,79,79.4,79,79.4z"
		/>
	<path style="fill:#3F933F;" d="M164.5,92.7c0,0-2.4-2.4,4.7-4.7c7.1-2.4,8.6-6.3,8.6-6.3s3.9,4.7-1.6,9.4
		C170.8,95.8,164.5,92.7,164.5,92.7z"/>
	<path style="fill:#3F933F;" d="M40.3,91.1c0,0-1.2-3.1-6.2,2.3s-9.3,5.3-9.3,5.3s2.7,5.5,9.2,2.5S40.3,91.1,40.3,91.1z"/>
	<path style="fill:#3F933F;" d="M84.2,88.7c0,0-1.2-3.1-6.2,2.3c-5.1,5.5-9.3,5.3-9.3,5.3s2.7,5.5,9.2,2.5S84.2,88.7,84.2,88.7z"/>
	<path style="fill:#3F933F;" d="M108.4,85.7c0,0-0.4-4,4.3-6.4s3.1-7.1,3.1-7.1s8.6,5.5,5.5,11C118.2,88.8,108.4,85.7,108.4,85.7z"
		/>
	<path style="fill:#3F933F;" d="M143.7,86.5c0,0-0.4,3.9,3.5,7.8c3.9,3.9,2.4,6.3,2.4,6.3s10.2-11,2.4-14.9
		C144.1,81.7,143.7,86.5,143.7,86.5z"/>
	<path style="fill:#3F933F;" d="M163.2,81.5c0,0,2.8-2.7,2.3-8.2s2.2-6.3,2.2-6.3s-14.9,1.9-11.4,9.9S163.2,81.5,163.2,81.5z"/>
	<g>
		<path style="fill:#1FE5E5;" d="M65.4,97.5c0,0,11.9,1.2,14.3-10.7s-4.2-13.1-7.1-13.7s-18.8,2.2-17.2,10.7S65.4,97.5,65.4,97.5z"
			/>
		<path style="fill:#B9FCF7;" d="M72,80.2c0,0,5.4,0.6,5.4,5.4c0,3-4.2,8.9-8.3,4.8c0,0,2.8-0.5,4.8-3.6
			C74.7,85.3,73.7,82.6,72,80.2z"/>
		<path style="fill:#8FF9F3;" d="M71.4,84.4c0,0-1.3-2.6-3-1.8c-1.2,0.6-1.2,2.4-1.2,2.4s-2.4,0.6-1.2-2.4
			C67.4,79.1,72.6,79.6,71.4,84.4z"/>
		<path style="fill:#8FF9F3;" d="M69.6,84.4c0,0-1.8,3.6-4.8,1.2c0,0,0.6,3,3.6,3C70.8,88.6,72,86.2,69.6,84.4z"/>
		<path style="fill:#8FF9F3;" d="M69,92.1c0,0-7.1-4.8-4.8-9.5c2.4-4.8,8.9-3,8.9-3s-4.8-4.2-10.1,0.6C57.7,85,61.2,94.5,69,92.1z"
			/>
		<path style="fill:#8FF9F3;" d="M72,96.3c0,0,5.9-4.2,6.5-8.9c0.3-2.3-0.1-5.4-2.4-7.1C69.5,75.1,66,76.1,66,76.1
			s10.1-5.4,14.9,2.4S80.9,98.1,72,96.3z"/>
		<path style="fill:#8FF9F3;" d="M76.1,90.4c0,0-5.3,6.5-13.7,3c-7.1-3-7.1-11.9-7.1-11.9s-4.9,7.9,2.4,14.3c4.7,4,10.3,2.5,13.7,0
			C74.5,93.4,76.1,90.4,76.1,90.4z"/>
		<path style="fill:#B9FCF7;" d="M75.5,73.7c0,0-8.8-1.2-13.7,3.6c-2.2,2.2-3.6,6.5-1.8,11.3c0,0-8.9-8.3-1.8-15.5
			C63.9,67.4,75.5,73.7,75.5,73.7z"/>
	</g>
	<g>
		<path style="fill:#2591C1;" d="M93.7,73.8c0,0,11.9-1.2,14.3,10.7s-4.2,13.1-7.1,13.7S82,95.9,83.5,87.5S93.7,73.8,93.7,73.8z"/>
		<path style="fill:#6FC6DD;" d="M100.2,91c0,0,5.4-0.6,5.4-5.4c0-3-4.2-8.9-8.3-4.8c0,0,2.8,0.5,4.8,3.6
			C102.9,86,102,88.7,100.2,91z"/>
		<path style="fill:#50B5D8;" d="M99.6,86.9c0,0-1.3,2.6-3,1.8c-1.2-0.6-1.2-2.4-1.2-2.4s-2.4-0.6-1.2,2.4
			C95.7,92.2,100.8,91.6,99.6,86.9z"/>
		<path style="fill:#50B5D8;" d="M97.8,86.9c0,0-1.8-3.6-4.8-1.2c0,0,0.6-3,3.6-3C99.1,82.7,100.2,85.1,97.8,86.9z"/>
		<path style="fill:#50B5D8;" d="M97.2,79.1c0,0-7.1,4.8-4.8,9.5c2.4,4.8,8.9,3,8.9,3s-4.8,4.2-10.1-0.6
			C85.9,86.3,89.5,76.8,97.2,79.1z"/>
		<path style="fill:#50B5D8;" d="M100.2,75c0,0,5.9,4.2,6.5,8.9c0.3,2.3-0.1,5.4-2.4,7.1c-6.6,5.2-10.1,4.2-10.1,4.2
			s10.1,5.4,14.9-2.4S109.1,73.2,100.2,75z"/>
		<path style="fill:#50B5D8;" d="M104.4,80.9c0,0-5.3-6.5-13.7-3c-7.1,3-7.1,11.9-7.1,11.9s-4.9-7.9,2.4-14.3c4.7-4,10.3-2.5,13.7,0
			C102.7,77.8,104.4,80.9,104.4,80.9z"/>
		<path style="fill:#6FC6DD;" d="M103.8,97.6c0,0-8.8,1.2-13.7-3.6c-2.2-2.2-3.6-6.5-1.8-11.3c0,0-8.9,8.3-1.8,15.5
			C92.2,103.8,103.8,97.6,103.8,97.6z"/>
	</g>
	<g>
		<path style="fill:#2591C1;" d="M131.3,71.4c0,0,11.9-1.2,14.3,10.7s-4.2,13.1-7.1,13.7c-3,0.6-18.8-2.2-17.2-10.7
			S131.3,71.4,131.3,71.4z"/>
		<path style="fill:#6FC6DD;" d="M137.9,88.7c0,0,5.4-0.6,5.4-5.4c0-3-4.2-8.9-8.3-4.8c0,0,2.8,0.5,4.8,3.6
			C140.6,83.6,139.6,86.3,137.9,88.7z"/>
		<path style="fill:#50B5D8;" d="M137.3,84.5c0,0-1.3,2.6-3,1.8c-1.2-0.6-1.2-2.4-1.2-2.4s-2.4-0.6-1.2,2.4
			C133.3,89.8,138.5,89.3,137.3,84.5z"/>
		<path style="fill:#50B5D8;" d="M135.5,84.5c0,0-1.8-3.6-4.8-1.2c0,0,0.6-3,3.6-3C136.7,80.3,137.9,82.7,135.5,84.5z"/>
		<path style="fill:#50B5D8;" d="M134.9,76.8c0,0-7.1,4.8-4.8,9.5c2.4,4.8,8.9,3,8.9,3s-4.8,4.2-10.1-0.6
			C123.6,83.9,127.2,74.4,134.9,76.8z"/>
		<path style="fill:#50B5D8;" d="M137.9,72.6c0,0,5.9,4.2,6.5,8.9c0.3,2.3-0.1,5.4-2.4,7.1c-6.6,5.2-10.1,4.2-10.1,4.2
			s10.1,5.4,14.9-2.4S146.8,70.8,137.9,72.6z"/>
		<path style="fill:#50B5D8;" d="M142,78.6c0,0-5.3-6.5-13.7-3c-7.1,3-7.1,11.9-7.1,11.9s-4.9-7.9,2.4-14.3c4.7-4,10.3-2.5,13.7,0
			C140.4,75.5,142,78.6,142,78.6z"/>
		<path style="fill:#6FC6DD;" d="M141.4,95.2c0,0-8.8,1.2-13.7-3.6c-2.2-2.2-3.6-6.5-1.8-11.3c0,0-8.9,8.3-1.8,15.5
			C129.8,101.5,141.4,95.2,141.4,95.2z"/>
	</g>
	<g>
		<path style="fill:#2591C1;" d="M29.3,95.1c0,0,11.9,1.2,14.3-10.7s-4.2-13.1-7.1-13.7S17.6,73,19.2,81.5
			C20.8,89.9,29.3,95.1,29.3,95.1z"/>
		<path style="fill:#6FC6DD;" d="M35.9,77.9c0,0,5.4,0.6,5.4,5.4c0,3-4.2,8.9-8.3,4.8c0,0,2.8-0.5,4.8-3.6
			C38.6,83,37.6,80.3,35.9,77.9z"/>
		<path style="fill:#50B5D8;" d="M35.3,82.1c0,0-1.3-2.6-3-1.8c-1.2,0.6-1.2,2.4-1.2,2.4s-2.4,0.6-1.2-2.4
			C31.3,76.7,36.5,77.3,35.3,82.1z"/>
		<path style="fill:#50B5D8;" d="M33.5,82.1c0,0-1.8,3.6-4.8,1.2c0,0,0.6,3,3.6,3C34.7,86.2,35.9,83.8,33.5,82.1z"/>
		<path style="fill:#50B5D8;" d="M32.9,89.8c0,0-7.1-4.8-4.8-9.5c2.4-4.8,8.9-3,8.9-3s-4.8-4.2-10.1,0.6
			C21.6,82.6,25.2,92.2,32.9,89.8z"/>
		<path style="fill:#50B5D8;" d="M35.9,93.9c0,0,5.9-4.2,6.5-8.9c0.3-2.3-0.1-5.4-2.4-7.1c-6.6-5.2-10.1-4.2-10.1-4.2
			s10.1-5.4,14.9,2.4S44.8,95.7,35.9,93.9z"/>
		<path style="fill:#50B5D8;" d="M40,88c0,0-5.3,6.5-13.7,3c-7.1-3-7.1-11.9-7.1-11.9s-4.9,7.9,2.4,14.3c4.7,4,10.3,2.5,13.7,0
			C38.4,91.1,40,88,40,88z"/>
		<path style="fill:#6FC6DD;" d="M39.4,71.3c0,0-8.8-1.2-13.7,3.6c-2.2,2.2-3.6,6.5-1.8,11.3c0,0-8.9-8.3-1.8-15.5
			C27.8,65.1,39.4,71.3,39.4,71.3z"/>
	</g>
	<g>
		<path style="fill:#1FE5E5;" d="M165.2,74.3c0,0-8.2-0.8-9.8,7.3s2.9,9,4.9,9.4c2,0.4,12.9-1.5,11.8-7.3
			C171.1,77.9,165.2,74.3,165.2,74.3z"/>
		<path style="fill:#B9FCF7;" d="M160.7,86.2c0,0-3.7-0.4-3.7-3.7c0-2,2.9-6.1,5.7-3.3c0,0-1.9,0.3-3.3,2.4
			C158.9,82.7,159.5,84.6,160.7,86.2z"/>
		<path style="fill:#B9FCF7;" d="M161.1,83.3c0,0,0.9,1.8,2,1.2c0.8-0.4,0.8-1.6,0.8-1.6s1.6-0.4,0.8,1.6
			C163.8,87,160.3,86.6,161.1,83.3z"/>
		<path style="fill:#8FF9F3;" d="M162.4,83.3c0,0,1.2-2.4,3.3-0.8c0,0-0.4-2-2.4-2C161.5,80.5,160.7,82.1,162.4,83.3z"/>
		<path style="fill:#8FF9F3;" d="M162.8,78c0,0,4.9,3.3,3.3,6.5s-6.1,2-6.1,2s3.3,2.9,6.9-0.4C170.5,82.9,168.1,76.4,162.8,78z"/>
		<path style="fill:#8FF9F3;" d="M160.7,75.2c0,0-4.1,2.9-4.5,6.1c-0.2,1.6,0.1,3.7,1.6,4.9c4.6,3.5,6.9,2.9,6.9,2.9
			s-6.9,3.7-10.2-1.6C151.3,82.1,154.6,73.9,160.7,75.2z"/>
		<path style="fill:#B9FCF7;" d="M157.9,79.2c0,0,3.6-4.4,9.4-2c4.9,2,4.9,8.2,4.9,8.2s3.4-5.4-1.6-9.8c-3.2-2.8-7.1-1.7-9.4,0
			C159,77.1,157.9,79.2,157.9,79.2z"/>
		<path style="fill:#8FF9F3;" d="M158.3,90.7c0,0,6.1,0.8,9.4-2.4c1.5-1.5,2.4-4.5,1.2-7.8c0,0,6.1,5.7,1.2,10.6
			C166.2,95,158.3,90.7,158.3,90.7z"/>
	</g>
	<g>
		<path style="fill:#F46CB7;" d="M119.5,84.5c0,0-7.8-0.8-9.4,7s2.7,8.6,4.7,9c2,0.4,12.4-1.5,11.3-7S119.5,84.5,119.5,84.5z"/>
		<path style="fill:#FFCFEE;" d="M115.2,95.9c0,0-3.5-0.4-3.5-3.5c0-2,2.7-5.9,5.5-3.1c0,0-1.8,0.3-3.1,2.3
			C113.4,92.5,114,94.3,115.2,95.9z"/>
		<path style="fill:#FFCFEE;" d="M115.6,93.1c0,0,0.8,1.7,2,1.2c0.8-0.4,0.8-1.6,0.8-1.6s1.6-0.4,0.8,1.6
			C118.2,96.6,114.8,96.3,115.6,93.1z"/>
		<path style="fill:#FF9FD8;" d="M116.7,93.1c0,0,1.2-2.3,3.1-0.8c0,0-0.4-2-2.3-2C115.9,90.4,115.2,92,116.7,93.1z"/>
		<path style="fill:#FF9FD8;" d="M117.1,88c0,0,4.7,3.1,3.1,6.3c-1.6,3.1-5.9,2-5.9,2s3.1,2.7,6.6-0.4
			C124.6,92.7,122.2,86.5,117.1,88z"/>
		<path style="fill:#FF9FD8;" d="M115.2,85.3c0,0-3.9,2.7-4.3,5.9c-0.2,1.5,0.1,3.5,1.6,4.7c4.4,3.4,6.6,2.7,6.6,2.7
			s-6.6,3.5-9.8-1.6C106.2,92,109.3,84.1,115.2,85.3z"/>
		<path style="fill:#FF9FD8;" d="M112.5,89.2c0,0,3.5-4.3,9-2c4.7,2,4.7,7.8,4.7,7.8s3.2-5.2-1.6-9.4c-3.1-2.6-6.8-1.6-9,0
			C113.5,87.2,112.5,89.2,112.5,89.2z"/>
		<path style="fill:#FFCFEE;" d="M112.8,100.2c0,0,5.8,0.8,9-2.3c1.4-1.4,2.3-4.3,1.2-7.4c0,0,5.9,5.5,1.2,10.2
			C120.5,104.3,112.8,100.2,112.8,100.2z"/>
	</g>
	<g>
		<path style="fill:#F46CB7;" d="M152.4,68.8c0,0-7.8-0.8-9.4,7c-1.6,7.8,2.7,8.6,4.7,9c2,0.4,12.4-1.5,11.3-7
			C158,72.3,152.4,68.8,152.4,68.8z"/>
		<path style="fill:#FF9FD8;" d="M148.1,80.2c0,0-3.5-0.4-3.5-3.5c0-2,2.7-5.9,5.5-3.1c0,0-1.8,0.3-3.1,2.3
			C146.4,76.8,147,78.6,148.1,80.2z"/>
		<path style="fill:#FFCFEE;" d="M148.5,77.4c0,0,0.8,1.7,2,1.2c0.8-0.4,0.8-1.6,0.8-1.6s1.6-0.4,0.8,1.6
			C151.1,80.9,147.7,80.6,148.5,77.4z"/>
		<path style="fill:#FFCFEE;" d="M149.7,77.4c0,0,1.2-2.3,3.1-0.8c0,0-0.4-2-2.3-2C148.9,74.7,148.1,76.3,149.7,77.4z"/>
		<path style="fill:#FF9FD8;" d="M150.1,72.4c0,0,4.7,3.1,3.1,6.3c-1.6,3.1-5.9,2-5.9,2s3.1,2.7,6.6-0.4
			C157.5,77,155.2,70.8,150.1,72.4z"/>
		<path style="fill:#FFCFEE;" d="M148.1,69.6c0,0-3.9,2.7-4.3,5.9c-0.2,1.5,0.1,3.5,1.6,4.7c4.4,3.4,6.6,2.7,6.6,2.7
			s-6.6,3.5-9.8-1.6C139.2,76.3,142.3,68.4,148.1,69.6z"/>
		<path style="fill:#FFCFEE;" d="M145.4,73.5c0,0,3.5-4.3,9-2c4.7,2,4.7,7.8,4.7,7.8s3.2-5.2-1.6-9.4c-3.1-2.6-6.8-1.6-9,0
			C146.5,71.5,145.4,73.5,145.4,73.5z"/>
		<path style="fill:#FF9FD8;" d="M145.8,84.5c0,0,5.8,0.8,9-2.3c1.4-1.4,2.3-4.3,1.2-7.4c0,0,5.9,5.5,1.2,10.2
			C153.4,88.6,145.8,84.5,145.8,84.5z"/>
	</g>
	<g>
		<path style="fill:#F46CB7;" d="M50.4,82.2c0,0-7.5-0.7-9,6.7s2.6,8.2,4.5,8.6c1.9,0.4,11.8-1.4,10.8-6.7
			C55.7,85.4,50.4,82.2,50.4,82.2z"/>
		<path style="fill:#FFCFEE;" d="M46.2,93c0,0-3.4-0.4-3.4-3.4c0-1.9,2.6-5.6,5.2-3c0,0-1.8,0.3-3,2.2C44.5,89.8,45.1,91.5,46.2,93z
			"/>
		<path style="fill:#FFCFEE;" d="M46.6,90.4c0,0,0.8,1.6,1.9,1.1c0.7-0.4,0.7-1.5,0.7-1.5s1.5-0.4,0.7,1.5
			C49.1,93.7,45.9,93.4,46.6,90.4z"/>
		<path style="fill:#FF9FD8;" d="M47.7,90.4c0,0,1.1-2.2,3-0.7c0,0-0.4-1.9-2.2-1.9C46.9,87.8,46.2,89.3,47.7,90.4z"/>
		<path style="fill:#FF9FD8;" d="M48.1,85.5c0,0,4.5,3,3,6c-1.5,3-5.6,1.9-5.6,1.9s3,2.6,6.4-0.4C55.2,90,53,84,48.1,85.5z"/>
		<path style="fill:#FF9FD8;" d="M46.2,82.9c0,0-3.7,2.6-4.1,5.6c-0.2,1.4,0.1,3.4,1.5,4.5c4.2,3.2,6.4,2.6,6.4,2.6
			s-6.4,3.4-9.3-1.5C37.7,89.3,40.6,81.8,46.2,82.9z"/>
		<path style="fill:#FF9FD8;" d="M43.6,86.6c0,0,3.3-4.1,8.6-1.9c4.5,1.9,4.5,7.5,4.5,7.5s3.1-5-1.5-9c-2.9-2.5-6.5-1.6-8.6,0
			C44.7,84.7,43.6,86.6,43.6,86.6z"/>
		<path style="fill:#FFCFEE;" d="M44,97.1c0,0,5.6,0.7,8.6-2.2c1.4-1.4,2.2-4.1,1.1-7.1c0,0,5.6,5.2,1.1,9.7
			C51.3,101,44,97.1,44,97.1z"/>
	</g>
</g>
</svg>
