<?xml version="1.0" encoding="utf-8"?>
<!-- Generator: Adobe Illustrator 22.1.0, SVG Export Plug-In . SVG Version: 6.00 Build 0)  -->
<svg version="1.1" id="Layer_1" xmlns="http://www.w3.org/2000/svg" xmlns:xlink="http://www.w3.org/1999/xlink" x="0px" y="0px"
	 viewBox="0 0 196 164" style="enable-background:new 0 0 196 164;" xml:space="preserve">
<g>
	<path style="fill:#FFD7F7;" d="M68.7,120.3c0,0-4.2-26.6-18-46.5c-18.6-26.7-15.1-54.6,0-59.8c0,0,26.3,2.5,28.1,69.8
		c0.4,15-0.7,24.9,0.4,30.1L68.7,120.3z"/>
	<path style="opacity:0.6;fill:#F22F70;" d="M71.9,113.7c0,0-2.7-20.1-11.3-34.6c-16.3-27.3-15.7-62.2-1.7-50.6s14.5,51.1,15.1,59.8
		s1.2,23.2,1.2,23.2L71.9,113.7z"/>
	<path style="fill:#FFD7F7;" d="M127.9,120.3c0,0,4.2-26.6,18-46.5c18.6-26.7,15.7-54.6,0.6-59.8c0,0-26.9,2.5-28.7,69.8
		c-0.4,15,0.7,24.9-0.4,30.1L127.9,120.3z"/>
	<path style="opacity:0.6;fill:#F22F70;" d="M124.7,113.7c0,0,2.7-20.1,11.3-34.6c16.3-27.3,15.7-62.2,1.7-50.6
		s-14.5,51.1-15.1,59.8s-1.2,23.2-1.2,23.2L124.7,113.7z"/>
	<path style="fill:#282828;" d="M40.8,150c0,0,17.4-34.3,57.5-34.9s57.5,34.9,57.5,34.9s-8-43-57.5-43C51.9,107,40.8,150,40.8,150z"
		/>
</g>
</svg>
