<?xml version="1.0" encoding="utf-8"?>
<!-- Generator: Adobe Illustrator 22.1.0, SVG Export Plug-In . SVG Version: 6.00 Build 0)  -->
<svg version="1.1" id="Layer_1" xmlns="http://www.w3.org/2000/svg" xmlns:xlink="http://www.w3.org/1999/xlink" x="0px" y="0px"
	 viewBox="0 0 196 164" style="enable-background:new 0 0 196 164;" xml:space="preserve">
<g>
	<g>
		<path style="fill:#F9D335;" d="M178.8,54.4c-17.7,25-22,70.7-22,70.7l-60.3,2.6l-60.3-2.6c0,0-2.6-45.7-22-70.7
			c0.8,0.3,23.5,10.7,37.6,42.2l6-29.3l17.6,22.4c0,0,4-37.1,21.2-58.6c15.5,20.7,21.2,58.6,21.2,58.6l17.6-22.4l6,29.3
			C155.3,65.1,178,54.8,178.8,54.4z"/>
	</g>
	<g>
		<circle style="fill:#F9D335;" cx="13.7" cy="54.4" r="5.2"/>
	</g>
	<g>
		<circle style="fill:#F9D335;" cx="57.6" cy="67.4" r="5.2"/>
	</g>
	<g>
		<circle style="fill:#F9D335;" cx="96.4" cy="31.2" r="5.2"/>
	</g>
	<g>
		<circle style="fill:#F9D335;" cx="134.3" cy="67.4" r="5.2"/>
	</g>
	<g>
		<circle style="fill:#F9D335;" cx="179.1" cy="54.4" r="5.2"/>
	</g>
	<g>
		<circle style="fill:#ED4C1B;" cx="96.4" cy="104.4" r="5.2"/>
	</g>
	<g>
		<circle style="fill:#ED4C1B;" cx="78.3" cy="106.1" r="3.4"/>
	</g>
	<g>
		<circle style="fill:#ED4C1B;" cx="59.4" cy="106.1" r="3.4"/>
	</g>
	<g>
		<circle style="fill:#ED4C1B;" cx="114.5" cy="106.1" r="3.4"/>
	</g>
	<g>
		<circle style="fill:#ED4C1B;" cx="130.9" cy="106.1" r="3.4"/>
	</g>
	<g>
		<path style="fill:#F4BF2C;" d="M156.7,129.4c-40,3.5-80.3,3.4-120.6,0v-14.6c41,4.9,81.2,4.9,120.6,0V129.4z"/>
	</g>
	<g>
		<path style="fill:#FFE36C;" d="M96.3,119.3c-21.6,0-43.2-0.9-64.7-2.8l0.3-3.4c42.6,3.7,86,3.7,129,0l0.3,3.4
			C139.6,118.3,117.9,119.3,96.3,119.3z"/>
	</g>
	<g>
		<polygon style="fill:#FFFFFF;" points="104.6,60 105,63 108.1,63.5 105,64 104.6,66.9 104.2,64 101.2,63.5 104.2,63 		"/>
	</g>
	<g>
		<polygon style="fill:#FFFFFF;" points="84.8,95.4 85.2,98.3 88.2,98.8 85.2,99.3 84.8,102.3 84.4,99.3 81.3,98.8 84.4,98.3 		"/>
	</g>
	<g>
		<polygon style="fill:#FFFFFF;" points="130.5,85.9 130.9,88.8 133.9,89.3 130.9,89.8 130.5,92.8 130,89.8 127,89.3 130,88.8 		"/>
	</g>
	<g>
		<polygon style="fill:#FFFFFF;" points="148.6,118.6 149,121.6 152,122.1 149,122.6 148.6,125.5 148.1,122.6 145.1,122.1 
			148.1,121.6 		"/>
	</g>
	<g>
		<polygon style="fill:#FFFFFF;" points="39.1,85.9 39.5,88.8 42.6,89.3 39.5,89.8 39.1,92.8 38.7,89.8 35.7,89.3 38.7,88.8 		"/>
	</g>
</g>
</svg>
