<?xml version="1.0" encoding="utf-8"?>
<!-- Generator: Adobe Illustrator 22.1.0, SVG Export Plug-In . SVG Version: 6.00 Build 0)  -->
<svg version="1.1" id="Layer_1" xmlns="http://www.w3.org/2000/svg" xmlns:xlink="http://www.w3.org/1999/xlink" x="0px" y="0px"
	 viewBox="0 0 196 164" style="enable-background:new 0 0 196 164;" xml:space="preserve">
<g>
	<circle style="fill:#3D0C63;" cx="84.8" cy="50.9" r="6.8"/>
	<path style="fill:#581A75;" d="M48.5,108.4c0,0-31,6.8-35.6-2.3s47.7-52.3,108.9-62.8c62-10.6,64.3,6.8,61.3,17.4
		s-33.1,42.8-33.1,42.8L48.5,108.4z"/>
	<path style="fill:#581A75;" d="M31,118.5c0,0,85.7-10.5,130.8,0c0,0-3.3-7.2-11.8-13.7c0,0-35.3-7.8-105.3-0.7
		C44.8,104.1,37.6,108.7,31,118.5z"/>
	<path style="fill:#3D0C63;" d="M183.5,57.7c0,0-15,20.3-44.5,28.8C116,93.1,87.3,101,59.8,106.1c-12,2.2-26.6,4.7-30.7,4.6h8.5
		c0,0,29.4-4.6,40.6-5.9c9.1-1.1,58.9-3.3,72,0C150.1,104.8,176.9,78.6,183.5,57.7z"/>
</g>
</svg>
