<?xml version="1.0" encoding="utf-8"?>
<!-- Generator: Adobe Illustrator 22.1.0, SVG Export Plug-In . SVG Version: 6.00 Build 0)  -->
<svg version="1.1" id="Layer_1" xmlns="http://www.w3.org/2000/svg" xmlns:xlink="http://www.w3.org/1999/xlink" x="0px" y="0px"
	 viewBox="0 0 196 164" style="enable-background:new 0 0 196 164;" xml:space="preserve">
<g>
	<path style="fill:#EA5F1B;" d="M113.9,105.9l-36.7,13l-15.5,5.5c-0.2,0-7.7-0.1-11.7-14.8c-1-3.8-1.8-8.6-2.1-14.7
		c-0.9-16.6-5.3-24.6-14.7-23.9c-9.5,0.7-11,13.8-11,13.8S12.4,60.2,30.4,49c14.7-9.2,32.4-8.3,51.5,11S112.2,101.5,113.9,105.9z"/>
	<path style="opacity:0.1;fill:#631700;" d="M81,86.7l-3.8,32.2l-15.5,5.5c-0.2,0-7.7-0.1-11.7-14.8c3.7,1.6,10.1,2.2,14.4-8.2
		C70.9,85.8,81,86.7,81,86.7z"/>
	<path style="fill:#F4DF47;" d="M174,86.7c0.1-0.6,1.6-11.1-5.5-14.7c-4.8-2.4-15.6-2.8-17.3,24.1c-0.2,2.9-0.4,5.5-0.8,7.7
		c-1,7.1-2.6,11.6-4.3,14.4c-3.4,5.5-7.1,4.4-7.1,4.4l-56.4-14c1.7-4.4,11.4-27.4,30.6-46.8s40.5-24.9,55-14
		C184.8,60.4,174.3,85.8,174,86.7z"/>
	<path style="opacity:0.2;fill:#EA5F1B;" d="M150.4,103.8c-1,7.1-2.6,11.6-4.3,14.4l-20,1l3.7-39c0,0,1.8,25.8,12.9,24.9
		C146.1,104.8,148.6,104.3,150.4,103.8z"/>
	<path style="fill:#F79E1C;" d="M131.6,122.6H69c0,0-5.5-23.9,12-47.9c5.5-7.5,8.3-13.2,9.4-17.6c2.4-9.7-3.7-13.3-9.4-16.5
		C72.7,36.1,61.7,49,61.7,49S71.8,24,92.9,25c19.3,0.9,30.4,20.2,37.7,46C138.2,97.3,132.5,118,131.6,122.6z"/>
	<circle style="fill:#F4DF47;" cx="62.6" cy="48" r="6.4"/>
	<circle style="fill:#F4DF47;" cx="173.9" cy="86.7" r="6.4"/>
	<circle style="fill:#F4DF47;" cx="22.1" cy="83.9" r="6.4"/>
	<path style="opacity:0.2;fill:#EA5F1B;" d="M107.7,120.8l-24.9,1.8H69c0,0-5.5-23.9,12-47.9c5.5-7.5,8.3-13.2,9.4-17.6
		c0.7,5.8,0.7,13.9-2.1,23.1C82.8,98.7,88.3,117.1,107.7,120.8z"/>
	<path style="fill:#702A2D;" d="M49.7,111.9c0,0,53.5,14.4,100.3-1.5c0,0-2.2,11-3.5,13.5c0,0-34.3,15.3-92.2,1.6
		C54.3,125.4,50.6,119.5,49.7,111.9z"/>
</g>
</svg>
