<?xml version="1.0" encoding="utf-8"?>
<!-- Generator: Adobe Illustrator 22.1.0, SVG Export Plug-In . SVG Version: 6.00 Build 0)  -->
<svg version="1.1" id="Layer_1" xmlns="http://www.w3.org/2000/svg" xmlns:xlink="http://www.w3.org/1999/xlink" x="0px" y="0px"
	 viewBox="0 0 196 164" style="enable-background:new 0 0 196 164;" xml:space="preserve">
<g>
	<g>
		<path style="fill:#F9D335;" d="M30.2,40.4h-0.3c-3.2,0-6.1-2.3-6.7-5.4l-2.5-11.5c-0.4-1.9,0-3.9,1.2-5.5c1.2-1.6,3-2.6,4.9-2.8
			l13.7-1.3c3.7-0.3,7,2.3,7.5,6l0,0.2l-0.6,7.2c-0.1,1.2-1.1,2-2.3,1.9c-1.2-0.1-2-1.1-1.9-2.3l0.6-6.8c-0.3-1.3-1.5-2.2-2.9-2.1
			l-13.7,1.3c-0.8,0.1-1.5,0.5-1.9,1.1c-0.5,0.6-0.6,1.4-0.5,2.2l2.5,11.5c0.2,1.1,1.2,2,2.4,2.1l7.7-2.4c1.1-0.4,2.3,0.3,2.6,1.4
			c0.3,1.1-0.3,2.3-1.4,2.6L30.2,40.4z"/>
	</g>
	<g>
		<path style="fill:#F9D335;" d="M47.7,53.1h-0.3c-3.2,0-6.1-2.3-6.7-5.4l-2.5-11.5c-0.4-1.9,0-4,1.2-5.5c1.2-1.6,3-2.6,4.9-2.8
			l13.7-1.3c3.7-0.3,7,2.3,7.5,6l0,0.2l-0.6,7.2c-0.1,1.2-1.1,2-2.3,1.9c-1.2-0.1-2-1.1-1.9-2.3l0.6-6.8c-0.3-1.3-1.5-2.3-2.9-2.1
			L44.6,32c-0.8,0.1-1.5,0.5-1.9,1.1c-0.5,0.6-0.6,1.4-0.5,2.2l2.5,11.5c0.2,1.1,1.2,2,2.4,2.1l7.7-2.4c1.1-0.4,2.3,0.3,2.6,1.4
			c0.3,1.1-0.3,2.3-1.4,2.6L47.7,53.1z"/>
	</g>
	<g>
		<path style="fill:#F9D335;" d="M63.7,66.1h-0.3c-3.2,0-6.1-2.3-6.7-5.4l-2.5-11.5c-0.4-1.9,0-4,1.2-5.5s3-2.6,4.9-2.8l13.7-1.3
			c3.7-0.3,7,2.3,7.5,6l0,0.2l-0.6,7.2c-0.1,1.2-1.1,2-2.3,1.9c-1.2-0.1-2-1.1-1.9-2.3l0.6-6.8c-0.3-1.3-1.5-2.3-2.9-2.1L60.6,45
			c-0.8,0.1-1.5,0.5-1.9,1.1c-0.5,0.6-0.6,1.4-0.5,2.2l2.5,11.5c0.2,1.1,1.2,2,2.4,2.1l7.7-2.4c1.1-0.4,2.3,0.3,2.6,1.4
			s-0.3,2.3-1.4,2.6L63.7,66.1z"/>
	</g>
	<g>
		<path style="fill:#F9D335;" d="M143.1,115.9c-0.1,0-0.2,0-0.3,0l-11.8-0.5c-3.2-0.1-6-2.5-6.5-5.7l-0.1-0.3l1.1-8.7
			c0.1-1.2,1.2-2,2.4-1.8c1.2,0.1,2,1.2,1.8,2.4l-1,8c0.3,1.1,1.3,1.9,2.5,2l11.8,0.5c0.7,0.1,1.5-0.3,2-0.8
			c0.5-0.6,0.8-1.3,0.7-2.1l-1.1-13.7c-0.1-1.4-1.2-2.4-2.6-2.5l-6.6,1.7c-1.1,0.3-2.3-0.4-2.6-1.5c-0.3-1.1,0.4-2.3,1.5-2.6
			l7.2-1.9c3.7-0.3,6.9,2.6,7.2,6.3l1.1,13.7c0.2,2-0.5,3.9-1.9,5.3C146.8,115.2,145,115.9,143.1,115.9z"/>
	</g>
	<g>
		<path style="fill:#F9D335;" d="M158.1,130.8c-0.1,0-0.2,0-0.3,0l-11.8-0.5c-3.2-0.1-6-2.5-6.5-5.7l-0.1-0.3l1.1-8.7
			c0.1-1.2,1.2-2,2.4-1.8c1.2,0.1,2,1.2,1.8,2.4l-1,8c0.3,1.1,1.3,1.9,2.5,2l11.8,0.5c0.8,0.1,1.5-0.3,2-0.8
			c0.5-0.6,0.8-1.3,0.7-2.1l-1.1-13.7c-0.1-1.4-1.2-2.4-2.6-2.5l-6.6,1.7c-1.1,0.3-2.3-0.4-2.6-1.5c-0.3-1.1,0.4-2.3,1.5-2.6
			l7.2-1.9c3.7-0.3,6.9,2.6,7.2,6.3l1.1,13.7c0.2,2-0.5,3.9-1.9,5.3C161.8,130,160,130.8,158.1,130.8z"/>
	</g>
	<g>
		<path style="fill:#F9D335;" d="M173.1,144.8c-0.1,0-0.2,0-0.3,0l-11.8-0.5c-3.2-0.1-6-2.5-6.5-5.7l-0.1-0.3l1.1-8.7
			c0.1-1.2,1.2-2,2.4-1.8c1.2,0.1,2,1.2,1.8,2.4l-1,8c0.3,1.1,1.3,1.9,2.5,2l11.8,0.5c0.7,0.1,1.5-0.3,2-0.8s0.8-1.3,0.7-2.1
			l-1.1-13.7c-0.1-1.4-1.2-2.4-2.6-2.5l-6.6,1.7c-1.1,0.3-2.3-0.4-2.6-1.5c-0.3-1.1,0.4-2.3,1.5-2.6l7.2-1.9
			c3.6-0.3,6.9,2.6,7.2,6.3l1.1,13.7c0.2,2-0.5,3.9-1.9,5.3C176.8,144,175,144.8,173.1,144.8z"/>
	</g>
	<g>
		<path style="fill:#F9D335;" d="M106.5,105.4C106.4,105.4,106.4,105.4,106.5,105.4c-1.6,0-3.1-0.9-3.8-2.4l-7.4-15.1l-16.6-2.5
			c-1.6-0.2-2.9-1.4-3.4-2.9c-0.5-1.5-0.1-3.2,1.1-4.3l12.1-11.7L85.6,50c-0.3-1.6,0.4-3.2,1.7-4.1c1.3-0.9,3-1.1,4.4-0.3l14.8,7.9
			l14.9-7.8c1.4-0.7,3.1-0.6,4.4,0.3c1.3,0.9,1.9,2.5,1.7,4.1l-2.9,16.5l12,11.8c1.1,1.1,1.6,2.8,1.1,4.3c-0.5,1.5-1.8,2.6-3.4,2.9
			L117.7,88l-7.5,15C109.5,104.5,108.1,105.4,106.5,105.4z M88.4,78.4l10.3,1.5c1.4,0.2,2.6,1.1,3.2,2.3l4.6,9.4l4.7-9.4
			c0.6-1.2,1.8-2.1,3.2-2.3l10.3-1.5l-7.5-7.3c-1-1-1.4-2.4-1.2-3.7l1.8-10.3l-9.3,4.8c-1.2,0.6-2.7,0.6-3.9,0l-9.2-4.9l1.7,10.3
			c0.2,1.4-0.2,2.8-1.2,3.7L88.4,78.4z"/>
	</g>
	<g>
		<path style="fill:#F9D335;" d="M90,69c-0.4,0-0.8-0.1-1.2-0.4L73.5,57.9c-1-0.7-1.2-2-0.5-2.9c0.7-1,2-1.2,2.9-0.5l15.3,10.7
			c1,0.7,1.2,2,0.5,2.9C91.3,68.7,90.7,69,90,69z"/>
	</g>
	<g>
		<path style="fill:#F9D335;" d="M131.2,98c-0.4,0-0.8-0.1-1.2-0.4l-15.3-10.7c-1-0.7-1.2-2-0.5-2.9c0.7-1,2-1.2,2.9-0.5l15.3,10.7
			c1,0.7,1.2,2,0.5,2.9C132.5,97.7,131.9,98,131.2,98z"/>
	</g>
</g>
</svg>
