<?xml version="1.0" encoding="utf-8"?>
<!-- Generator: Adobe Illustrator 22.1.0, SVG Export Plug-In . SVG Version: 6.00 Build 0)  -->
<svg version="1.1" id="Layer_1" xmlns="http://www.w3.org/2000/svg" xmlns:xlink="http://www.w3.org/1999/xlink" x="0px" y="0px"
	 viewBox="0 0 196 164" style="enable-background:new 0 0 196 164;" xml:space="preserve">
<g>
	<path d="M149,145.1c-4.2,4.4-11,5.2-16.1,1.7c-12.3-8.4-35.2-25.2-55-45.3C58.3,81.6,40.1,60.4,30.5,48.9c-4.1-4.9-3.8-12,0.5-16.6
		l12-12.6c4.3-4.5,11.1-5.2,16.2-1.6c13.2,9.2,38.3,27.6,55,45.2c16.5,17.3,36.6,40.3,47.2,52.6c4.2,4.8,4,12.1-0.4,16.7L149,145.1z
		"/>
	
		<ellipse transform="matrix(0.6817 -0.7316 0.7316 0.6817 -30.2799 98.6472)" style="fill:#FFD527;" cx="98.2" cy="84.1" rx="21.8" ry="14.4"/>
	
		<ellipse transform="matrix(0.6817 -0.7316 0.7316 0.6817 -40.0347 122.1408)" style="fill:#FFD527;" cx="120.4" cy="107.1" rx="18.1" ry="14.4"/>
	
		<ellipse transform="matrix(0.6817 -0.7316 0.7316 0.6817 -47.0028 145.9674)" style="fill:#FFD527;" cx="144.3" cy="127" rx="16.1" ry="12.2"/>
	
		<ellipse transform="matrix(0.6817 -0.7316 0.7316 0.6817 -12.2366 50.564)" style="fill:#FFD527;" cx="52" cy="39.3" rx="16.1" ry="12.2"/>
	
		<ellipse transform="matrix(0.6817 -0.7316 0.7316 0.6817 -20.6961 74.5016)" style="fill:#FFD527;" cx="75.3" cy="61" rx="18.1" ry="14.4"/>
	<g>
		
			<ellipse transform="matrix(0.6817 -0.7316 0.7316 0.6817 -27.7524 97.5476)" style="fill:#FFE578;" cx="98.2" cy="80.7" rx="16.6" ry="11"/>
		
			<ellipse transform="matrix(0.6817 -0.7316 0.7316 0.6817 -37.0771 120.854)" style="fill:#FFE578;" cx="120.4" cy="103" rx="13.8" ry="11"/>
		
			<ellipse transform="matrix(0.6817 -0.7316 0.7316 0.6817 -45.7612 145.4272)" style="fill:#FFE578;" cx="144.3" cy="125.3" rx="12.3" ry="9.3"/>
		
			<ellipse transform="matrix(0.6817 -0.7316 0.7316 0.6817 -10.8567 49.7385)" style="fill:#FFE578;" cx="51.7" cy="37.3" rx="12.3" ry="9.3"/>
		
			<ellipse transform="matrix(0.6817 -0.7316 0.7316 0.6817 -18.6595 73.6155)" style="fill:#FFE578;" cx="75.3" cy="58.3" rx="13.8" ry="11"/>
	</g>
</g>
</svg>
