<?xml version="1.0" encoding="utf-8"?>
<!-- Generator: Adobe Illustrator 22.1.0, SVG Export Plug-In . SVG Version: 6.00 Build 0)  -->
<svg version="1.1" id="Layer_1" xmlns="http://www.w3.org/2000/svg" xmlns:xlink="http://www.w3.org/1999/xlink" x="0px" y="0px"
	 viewBox="0 0 196 164" style="enable-background:new 0 0 196 164;" xml:space="preserve">
<g>
	<polygon style="fill:#F22F70;" points="149.9,150 81.4,101.9 22.3,42.7 45.9,14.6 114.4,62.7 173.5,121.9 	"/>
	<g>
		<circle style="fill:#FFE1B6;" cx="97.9" cy="82.3" r="37.1"/>
		<path style="fill:#FC6090;" d="M133.7,63.2c-2.4-4.5-5.6-8.6-9.7-12c-17.2-14.4-42.8-12.2-57.2,5c-1.8,2.2-3.5,4.6-4.7,7
			c-3.2,5.9-4.7,12.5-4.7,19c0,1.2,0.1,2.4,0.2,3.7c0.3,3.6,1.1,7.2,2.4,10.6c2.3,6.4,6.3,12.2,11.9,16.9c7.6,6.4,16.9,9.5,26.1,9.5
			c11.6,0,23.1-4.9,31.1-14.4c3.1-3.7,5.4-7.7,7-12c1.3-3.4,2.1-7,2.4-10.6c0.1-1.2,0.1-2.4,0.1-3.7
			C138.5,75.6,136.9,69.1,133.7,63.2z M131.5,82.3c0,1.2-0.1,2.4-0.2,3.6c-0.4,3.6-1.3,7.2-2.9,10.6c-1.2,2.6-2.8,5.2-4.7,7.5
			c-11.9,14.2-33.2,16-47.4,4.1c-3.9-3.2-6.8-7.2-8.8-11.6c-1.6-3.4-2.5-6.9-3-10.6c-0.1-1.2-0.2-2.4-0.2-3.7c0-6.6,2-13.3,5.9-19
			c0.6-0.9,1.3-1.7,2-2.5C77.9,53.8,86,49.6,95,48.8c1-0.1,2-0.1,2.9-0.1c7.9,0,15.5,2.8,21.6,7.9c2.4,2,4.4,4.2,6.1,6.7
			C129.5,68.9,131.5,75.5,131.5,82.3C131.5,82.3,131.5,82.3,131.5,82.3z"/>
	</g>
	<g>
		<polyline style="fill:#FFE1B6;" points="77.7,63.1 97.9,82.3 96.9,64.2 		"/>
		<path style="fill:#FC6090;" d="M97.9,84c-0.4,0-0.9-0.2-1.2-0.5L76.5,64.4c-0.7-0.7-0.7-1.8-0.1-2.5c0.7-0.7,1.8-0.7,2.5-0.1
			l17,16.1l-0.7-13.7c-0.1-1,0.7-1.8,1.6-1.8c1.1-0.1,1.8,0.7,1.8,1.6l1,18c0,0.7-0.4,1.4-1,1.7C98.4,84,98.1,84,97.9,84z"/>
	</g>
	<g>
		<line style="fill:#FFE1B6;" x1="126.8" y1="47.9" x2="122.6" y2="52.9"/>
		
			<rect x="121.4" y="46.9" transform="matrix(0.6455 -0.7637 0.7637 0.6455 5.7096 113.0808)" style="fill:#FC6090;" width="6.6" height="7"/>
	</g>
	<path style="opacity:0.4;fill:#FFFFFF;" d="M138.5,82.2H57.3c0-6.5,1.6-13.1,4.7-19h71.7C136.9,69.1,138.5,75.6,138.5,82.2z"/>
	<path style="opacity:0.4;fill:#FFFFFF;" d="M138.4,85.9c-0.3,3.6-1.1,7.2-2.4,10.6h-76c-1.3-3.4-2.1-7-2.4-10.6H138.4z"/>
</g>
</svg>
