<?xml version="1.0" encoding="utf-8"?>
<!-- Generator: Adobe Illustrator 22.1.0, SVG Export Plug-In . SVG Version: 6.00 Build 0)  -->
<svg version="1.1" id="Layer_1" xmlns="http://www.w3.org/2000/svg" xmlns:xlink="http://www.w3.org/1999/xlink" x="0px" y="0px"
	 viewBox="0 0 196 164" style="enable-background:new 0 0 196 164;" xml:space="preserve">
<g>
	<path style="fill:#F22F70;" d="M145.5,139.4l-119-93.3C21,41.8,20,33.9,24.3,28.4l7.5-9.5c4.3-5.5,12.3-6.5,17.8-2.2l119,93.3
		c5.5,4.3,6.5,12.3,2.2,17.8l-7.5,9.5C158.9,142.8,151,143.7,145.5,139.4z"/>
	<path style="fill:#FFD7F7;" d="M85.4,97.8L85.4,97.8c-7.9-6.1-10-17-5-25.6l3.9-6.8c6-10.4,19.8-13.1,29.3-5.7l1.6,1.3
		c9.5,7.3,10.3,21.4,1.8,29.8l-5.6,5.5C104.4,103.2,93.3,103.9,85.4,97.8z"/>
	<path style="fill:#FFD7F7;" d="M48.3,67.7L48.3,67.7c-7.9-6.1-10-17-5-25.6l3.9-6.8c6-10.4,19.8-13.1,29.3-5.7l1.6,1.3
		c9.5,7.3,10.3,21.4,1.8,29.8l-5.6,5.5C67.3,73.1,56.1,73.8,48.3,67.7z"/>
	<path style="fill:#FFD7F7;" d="M123.6,127.4L123.6,127.4c-7.9-6.1-10-17-5-25.6l3.9-6.8c6-10.4,19.8-13.1,29.3-5.7l1.6,1.3
		c9.5,7.3,10.3,21.4,1.8,29.8l-5.6,5.5C142.6,132.8,131.5,133.4,123.6,127.4z"/>
	<path style="opacity:0.3;fill:#F22F70;" d="M90.4,91.5L90.4,91.5c-5.3-4.1-6.7-11.4-3.4-17.2l2.6-4.5c4-7,13.3-8.8,19.7-3.9
		l1.1,0.9c6.4,4.9,6.9,14.3,1.2,20l-3.7,3.7C103.1,95.2,95.6,95.6,90.4,91.5z"/>
	<path style="opacity:0.3;fill:#F22F70;" d="M53.2,61.4L53.2,61.4c-5.3-4.1-6.7-11.4-3.4-17.2l2.6-4.5c4-7,13.3-8.8,19.7-3.9
		l1.1,0.9c6.4,4.9,6.9,14.3,1.2,20l-3.7,3.7C65.9,65.1,58.4,65.5,53.2,61.4z"/>
	<path style="opacity:0.3;fill:#F22F70;" d="M128.5,121.1L128.5,121.1c-5.3-4.1-6.7-11.4-3.4-17.2l2.6-4.5c4-7,13.3-8.8,19.7-3.9
		l1.1,0.9c6.4,4.9,6.9,14.3,1.2,20L146,120C141.3,124.7,133.8,125.2,128.5,121.1z"/>
</g>
</svg>
