<?xml version="1.0" encoding="utf-8"?>
<!-- Generator: Adobe Illustrator 22.1.0, SVG Export Plug-In . SVG Version: 6.00 Build 0)  -->
<svg version="1.1" id="Layer_1" xmlns="http://www.w3.org/2000/svg" xmlns:xlink="http://www.w3.org/1999/xlink" x="0px" y="0px"
	 viewBox="0 0 196 164" style="enable-background:new 0 0 196 164;" xml:space="preserve">
<g>
	<path style="fill:#8EF225;" d="M55.1,66c0,0,4.8-21.6,18.7-16.5s39.9,34.9,48.5,37.9c8.6,3,43.4,43.1,40.9,49.7
		c-2.5,6.6-6,12.6-15.6,13.8c-9.6,1.2-21.6-17.3-25.3-24.2c-3.7-6.9-18.8-18.3-27.7-23.9C85.8,97.1,57.2,82.1,55.1,66z"/>
	<path style="fill:#A2F93D;" d="M69.2,62.7c0,0,45,12.7,53.6,19.1s12,17,22.2,24.7c10.2,7.6,23.6,40.7,6.9,33.3
		c-16.6-7.4-17.1-28-28.9-34.5C111.2,98.8,49.8,64.8,69.2,62.7z"/>
	<path style="fill:#7EEA1F;" d="M127.8,117.7c-0.6-5.5-18-10.6-24.3-14.9C97.4,98.5,66.3,89.5,64,81.1c-2.3-8.4-4.3-15.2-4.3-15.2
		s12.1,17.5,15.9,19.2c3.8,1.7,27.2,4.9,52.5,24.6c6.7,5.2,6.3,11.2,11.3,19c5.6,8.8,13.8,15.8,14.5,19
		C155.4,153.8,129.4,131.6,127.8,117.7z"/>
	<path style="fill:#7EEA1F;" d="M97.2,71.3c0,0-23.9-8.3-26.9-8.3c-2.9,0.1-4.1,0.8-4.2,4.1c0,0-3.1-7.1,2.1-7.9
		C73.4,58.3,97.2,71.3,97.2,71.3z"/>
	<path style="fill:#7EEA1F;" d="M58.9,58.3c0,0-7,6.1-14.5,4.7c-7.5-1.4-13-7.6-18.2-12.2c0,0,10.6-9.7,22-2.9
		c5.7,3.4,10.1,2.9,10.1,2.9S66.2,49.7,58.9,58.3z"/>
	<path style="fill:#A2F93D;" d="M53.2,55.9c0,0-11.9-4.1-15.4-14s0.2-20.5,2.1-29.8c0,0,18.7,6,18.4,24c-0.1,9.1,3.4,14,3.4,14
		S68.4,58.8,53.2,55.9z"/>
</g>
</svg>
