<?xml version="1.0" encoding="utf-8"?>
<!-- Generator: Adobe Illustrator 22.1.0, SVG Export Plug-In . SVG Version: 6.00 Build 0)  -->
<svg version="1.1" id="Layer_1" xmlns="http://www.w3.org/2000/svg" xmlns:xlink="http://www.w3.org/1999/xlink" x="0px" y="0px"
	 viewBox="0 0 196 164" style="enable-background:new 0 0 196 164;" xml:space="preserve">
<g>
	<path style="fill:#7FCDF4;" d="M138.7,139.7c1.8,9.7,3.1-0.7-4.5-3.9c1.7-0.6-4.1,6.1-5.2-4.5c0.8,3-5.2-10.3-6.8-5.8
		c-5.2-0.9-0.4-6.4-8.1-4.9c-1.9-0.8-5.1-8.3-4.4-2.3c-4.6-1.2-0.7-4.1-4.4-7.3c-10.5-9.7-5.4-7.7-9.6-7.1c-3.8,0.6,1.8,2.8-4.9-4
		c-7.9-3.2-3.5-1.5-4.9-5.6c-3.7-0.9-11.1-5.1-6.5-7.9c-6.4-4.3-7.2-8.1-6.3-9.1c-1.2-2.6-0.4-4.5-6.3-6c-4.9-1.5-4.6-1-6.4,1.3
		c0.4-2.1-11.1-5.4-8.3-6.4c3.1-1-5.8-3.2-2.6-3.7c6.8-1-4.3-3.8-8.7-6.7c-0.5-8.1-8.5,1.2-7.8-6.7c-1.5-8.5-6.3-7.6-4.6-10.8
		c0.7-3.4-4.1-7.6,4.9-12.3c-4.3-3.2,0.9,2.1,0,0c-1.6-4.1,4.2-6.3,5.5-7.7c4.9-0.9-0.3-1.7,5.9,1c0.3-2.5-4.1-6.1,6.4-5.4
		c15,1.3,2.1,1.2,5,8.3c4.7-2.4-4.7-3.8,2.2-1.4c-3.8,0.9,2.9,4.7,5.6,8.1c-0.8,0.3,9.4,4.8,8.6,8c0.2,1.7,8.9,6.6,5,8.4
		c-5.8,1.6,1.6,3.6,5.9,0.4c2.5,3.3-0.7,4.2,6,6.1c-3.1,0.6,8.5,2.9,6.4,4.4c2.2,1.1,4.5,2.4,6.6,4.2c1,1.7-0.4,3.5,6.5,7.1
		c-4.4,3.2,13.7,2.5,9.9,7.2c-0.8,4-2.5,3.3,4.8,4c3.7,0.3,0.3-0.2,4.6,5.4c8.4,7.2,9.6,9.6,4.3,9.2c2.4,0.7,3.3-0.7,4.7-1.8
		c-1.5-0.7-2.8,5,3.8,9.6c-0.9,3.7-2.2,5.2,4.2-2.5c10.9,8.8,0.7,8.9,6.7,6c7.5,0.3-1.7,9.3,5.2,4.3c5.9,10.9,2.9,8.7,4.5,3.9
		c3.1,4.3,5.7,13.1,4.6,10.8c1.7-1.2,4.2,7.4-4.9,12.3c5.6-11.3-1.1,1.3,0,0c-1,8.3-1.6,4.3-5.5,7.6c-3.3-0.4-6.6,2.6-5.9-0.9
		C154.3,141.5,134.9,135.7,138.7,139.7z"/>
	<path style="fill:#9DDFF9;" d="M116.5,103.8c2-2.4-1.2-2.7-5-5c0.1-6.9-5.3-10.1-13.9-10.9c-4.5-0.2-2.2-8.7-7.4-8.5
		c-3.6-1.7-6.9-3.9-9.8-6.6c-1.8-4-6.2-4.9-9.5-7c-6.1,1.3-5.6-5.1-8.4-7.3c-7.2-2.4-8.8-10-12.2-12.8c-3.7-2.5-4.7-5.4-6.6-3.1
		c-2.7-4.4-2.8-11.3-7.9-10.3c-3.8-0.5-1.2-6.7,0.3-8.6c-0.8,0.9,1.3-1.5,0,0c3.8-4.5,4.9-2.7,8.4-1.8c3.7,0.6,6.6,4.2,11.5,6
		c-0.6,0.7,3.2,0.3,5.8,4.1c4,2.1,6.8,8.3,13.1,11.8c3,1.8,6.9,3,8.4,7.3c1.3,4.4,3.2,8.3,8.6,8.1c4.2,1.1,4.4,7,9.7,6.7
		c1.2,4.5,5.6,5.1,8.3,7.4c1.6,9,9.2,9.6,13.5,11.3c2.3,4.1,5.4,4.6,5.4,4.5c1.8,5.6,4.9,8.8,7.9,10.3c3.2,1.2-0.4,8.7-0.3,8.6
		c3.7-4.4-1.9,2.2,0,0c-0.4,0.5-1.7-1.1-8.4,1.8C121.5,112.6,118.2,109.6,116.5,103.8z"/>
	<path style="fill:#9DDFF9;" d="M146.2,127.9c1.1,2.3-3.4-1.6-8.1-1.6c-2.8,1.8-4.5-0.4-5.2-0.6c-0.7-1.8-0.5,0.4,0.6-6.2
		c-0.8-4.1-2.2-4.3-2.4-6c-0.3-2.2,0.5,0.1,4-2.1c-3.5-3.4,3.2-4.2,6.8-4.6c6.3,0,3.7-2.8,8.1,1.6c4.7-1.5,7,1.4,4.6,6.8
		c3.4,6.4-0.1,9.6-1.6,8.1C151.1,122.2,144.9,127.3,146.2,127.9z"/>
</g>
</svg>
