<?xml version="1.0" encoding="utf-8"?>
<!-- Generator: Adobe Illustrator 22.1.0, SVG Export Plug-In . SVG Version: 6.00 Build 0)  -->
<svg version="1.1" id="Layer_1" xmlns="http://www.w3.org/2000/svg" xmlns:xlink="http://www.w3.org/1999/xlink" x="0px" y="0px"
	 viewBox="0 0 196 164" style="enable-background:new 0 0 196 164;" xml:space="preserve">
<g>
	
		<rect x="11.3" y="60.3" transform="matrix(0.7721 0.6355 -0.6355 0.7721 73.7847 -40.7607)" style="fill:#FCD015;" width="164.8" height="44.4"/>
	
		<rect x="31.9" y="20.8" transform="matrix(0.7721 0.6355 -0.6355 0.7721 33.8862 -17.027)" style="fill:#FFE161;" width="17.7" height="35.9"/>
	
		<rect x="49.6" y="35.4" transform="matrix(0.7721 0.6355 -0.6355 0.7721 47.254 -24.9393)" style="fill:#FFE161;" width="17.7" height="35.9"/>
	
		<rect x="138.8" y="108.8" transform="matrix(0.7721 0.6355 -0.6355 0.7721 114.241 -64.9462)" style="fill:#FFE161;" width="17.7" height="35.9"/>
	
		<rect x="124.3" y="95.8" transform="matrix(0.7721 0.6355 -0.6355 0.7721 102.3527 -57.7971)" style="fill:#FFE161;" width="14.9" height="35.9"/>
	<g>
		<circle style="fill:#FFF0B3;" cx="98.1" cy="86.1" r="34.5"/>
		<path style="fill:#F4BD0F;" d="M136.1,84.2c-0.3-5.2-1.6-10.2-3.8-14.7c-6.1-12.7-19.2-21.4-34.2-21.4c-17.9,0-33,12.4-37,29.1
			c-0.7,2.9-1,5.8-1,8.9c0,2.1,0.2,4.2,0.5,6.2c0.2,1.4,0.5,2.8,0.9,4.1c0.9,3,2.1,6,3.7,8.7c6.6,11.4,18.9,19.1,32.9,19.1
			c17,0,31.4-11.2,36.3-26.5c0.9-2.9,1.5-6,1.7-9.2c0-0.8,0.1-1.5,0.1-2.3C136.1,85.4,136.1,84.8,136.1,84.2z M129.2,86.1
			c0,1,0,2.1-0.2,3.1c-0.3,3.3-1.1,6.4-2.4,9.3c-4.8,11-15.7,18.7-28.5,18.7c-10.3,0-19.5-5.1-25.2-12.9c-1.8-2.6-3.3-5.4-4.4-8.5
			c-0.4-1.3-0.8-2.7-1-4.1C67.2,89.8,67,88,67,86.1c0-3.4,0.6-6.7,1.6-9.7C72.7,64,84.4,55.1,98.1,55.1c11.4,0,21.3,6.1,26.7,15.2
			c2.6,4.3,4.2,9.3,4.3,14.6C129.2,85.3,129.2,85.7,129.2,86.1z"/>
	</g>
	<g>
		<line style="fill:#FFFFFF;" x1="123.2" y1="53.4" x2="119.8" y2="57.6"/>
		
			<rect x="118.8" y="52" transform="matrix(0.6386 -0.7695 0.7695 0.6386 1.2204 113.5597)" style="fill:#F4BD0F;" width="5.4" height="7"/>
	</g>
	<g>
		<path style="fill:#A36411;" d="M98.1,87.8c-0.4,0-0.8-0.1-1.1-0.4L79,72.6c-0.7-0.6-0.9-1.7-0.2-2.5c0.6-0.7,1.7-0.9,2.5-0.2
			l15.4,12.7l1-13.8c0.1-1,0.9-1.7,1.9-1.6c1,0.1,1.7,0.9,1.6,1.9l-1.3,17.1c-0.1,0.7-0.5,1.2-1.1,1.5
			C98.6,87.8,98.3,87.8,98.1,87.8z"/>
	</g>
	<path style="opacity:0.4;fill:#FFFFFF;" d="M136.1,84.2l-3.5,0.4l-3.5,0.3l-61.6,6.7L64,91.9l-3.5,0.3c-0.3-2-0.5-4.1-0.5-6.2
		c0-3.1,0.3-6,1-8.9l3.7-0.4l3.8-0.4l56.2-6.1l3.8-0.4l3.7-0.4C134.5,74,135.8,78.9,136.1,84.2z"/>
	<path style="opacity:0.4;fill:#FFFFFF;" d="M136.1,88.4c-0.2,3.2-0.8,6.3-1.7,9.2l-3.8,0.4v0l-4,0.4l-53.7,5.8l-3.9,0.4l-3.8,0.4
		c-1.6-2.7-2.8-5.6-3.7-8.7l3.5-0.3l3.5-0.4l60.4-6.5l3.6-0.4L136.1,88.4z"/>
</g>
</svg>
