<?xml version="1.0" encoding="utf-8"?>
<!-- Generator: Adobe Illustrator 22.1.0, SVG Export Plug-In . SVG Version: 6.00 Build 0)  -->
<svg version="1.1" id="Layer_1" xmlns="http://www.w3.org/2000/svg" xmlns:xlink="http://www.w3.org/1999/xlink" x="0px" y="0px"
	 viewBox="0 0 196 164" style="enable-background:new 0 0 196 164;" xml:space="preserve">
<g>
	<path style="fill:#353535;" d="M160.4,142.8L28.2,37.5c-4.8-3.8-5.6-10.7-1.8-15.5l0,0c3.8-4.8,10.7-5.6,15.5-1.8l132.2,105.3
		c4.8,3.8,5.6,10.7,1.8,15.5l0,0C172.1,145.8,165.2,146.6,160.4,142.8z"/>
	<path d="M106.3,108.9l-33-26.3c-7.9-6.3-9.2-17.8-2.9-25.6l0,0c6.3-7.9,17.8-9.2,25.6-2.9l33,26.3c7.9,6.3,9.2,17.8,2.9,25.6l0,0
		C125.7,113.9,114.2,115.2,106.3,108.9z"/>
	<path style="fill:#353535;" d="M107.9,104.3L77.4,80.1c-5.9-4.7-6.9-13.3-2.2-19.2l0,0C80,55,88.6,54,94.5,58.7l30.5,24.3
		c5.9,4.7,6.9,13.3,2.2,19.2l0,0C122.4,108.1,113.8,109,107.9,104.3z"/>
	<circle style="opacity:0.3;fill:#FFFFFF;" cx="85.9" cy="69.3" r="8.5"/>
</g>
</svg>
